<?xml version="1.0" encoding="UTF-8"?>
<svg id="_레이어_1" data-name="레이어_1" xmlns="http://www.w3.org/2000/svg" version="1.1" viewBox="0 0 508 150">
  <!-- Generator: Adobe Illustrator 29.0.1, SVG Export Plug-In . SVG Version: 2.1.0 Build 192)  -->
  <defs>
    <style>
      .st0 {
        fill: #00aa83;
      }

      .st1 {
        fill: #61c4e4;
      }

      .st2 {
        fill: #8ac576;
      }

      .st3 {
        fill: #939494;
      }

      .st4 {
        fill: #009cdc;
      }

      .st5 {
        fill: #0077b3;
      }

      .st6 {
        fill: #25a739;
      }

      .st7 {
        fill: #0083cd;
      }
    </style>
  </defs>
  <g>
    <path class="st7" d="M200.83,95.12c-2.12-.84-4.64-1.26-7.54-1.26h-4.6v-6.76h19.95v-8h-3.62v-3.79c0-10.96-8-16.88-15.53-16.88h-29.83v8h12.95c2.6,0,7.52,1.86,7.52,8.88v3.79h-18.87v8h19.42v6.76h-19.48v9.05c0,1.8,0,5.53,2.12,8.86.13.21.27.4.41.6,2.6,3.59,6.97,5.41,13.02,5.41h32.08v-9.05c0-1.8,0-5.53-2.12-8.86-1.38-2.17-3.35-3.75-5.88-4.75ZM189.49,66.43c2.6,0,7.52,1.86,7.52,8.88v3.79h-8.88v-3.79c0-3.48-.81-6.45-2.15-8.88h3.5ZM200.83,109.78h-24.08c-7.54,0-7.54-3.49-7.54-6.87v-1.05h24.08c7.54,0,7.54,3.49,7.54,6.87v1.05ZM229.48,100.77c8.3,0,15.05-6.75,15.05-15.04s-6.75-15.05-15.05-15.05-15.05,6.75-15.05,15.05,6.75,15.04,15.05,15.04ZM229.48,78.68c3.88,0,7.04,3.16,7.04,7.05s-3.16,7.04-7.04,7.04-7.05-3.16-7.05-7.04,3.16-7.05,7.05-7.05ZM252.31,58.47v42.28c0,7.03-4.92,8.88-7.52,8.88h-31.66v8h31.66c7.53,0,15.53-5.92,15.53-16.88v-42.28h-8Z"/>
    <path class="st6" d="M406.16,75.31v28.05h8v-28.05c0-10.96-8-16.88-15.53-16.88h-25.87v8h25.87c2.6,0,7.52,1.86,7.52,8.88ZM329.09,85.03c2.33,2.58,5.68,4.27,10,4.27h3.96v-8h-3.96c-5.67,0-5.95-5.92-5.95-7.11v-15.83h-8.1v15.83c0,1.19-.29,7.11-5.95,7.11h-3.96v8h3.96c4.32,0,7.67-1.69,10-4.27ZM368.61,73.07h-6.06v-14.91h-8v51.62h-24.08c-7.54,0-7.54-3.49-7.54-6.87v-3.3h-8v3.3c0,1.8,0,5.53,2.12,8.86,2.54,3.99,7.06,6.01,13.43,6.01h32.08v-36.71h6.06v-8ZM440.76,100.22c6.36-1.76,11.04-7.59,11.04-14.5,0-8.3-6.75-15.05-15.05-15.05s-15.05,6.75-15.05,15.05c0,6.91,4.69,12.74,11.05,14.5v9.44h-12.35v8h32.7v-8h-12.35v-9.44ZM429.71,85.72c0-3.88,3.16-7.05,7.04-7.05s7.05,3.16,7.05,7.05-3.16,7.04-7.05,7.04-7.04-3.16-7.04-7.04ZM440.76,53.37h-8v5.2h-12.37v8h32.74v-8h-12.37v-5.2ZM459.57,58.47v59.08h8v-59.08h-8ZM401.14,91.9h-8v17.77h-8.67v-17.77h-8v17.77h-9.71v8h50.5v-8h-16.11v-17.77ZM291.58,81.98h19.39v-8h-38.78v-.05c0-2.6,1.86-7.52,8.88-7.52h29.83v-8h-29.83c-10.96,0-16.88,8-16.88,15.53v8.05h19.39v2.9h-19.69v8h11.87c-2.02,2.56-3.23,5.79-3.23,9.3,0,8.3,6.75,15.04,15.05,15.04s15.05-6.75,15.05-15.04c0-3.51-1.21-6.74-3.23-9.3h11.87v-8h-19.69v-2.9ZM294.62,102.19c0,3.88-3.16,7.04-7.04,7.04s-7.04-3.16-7.04-7.04,3.16-7.05,7.04-7.05,7.04,3.16,7.04,7.05Z"/>
  </g>
  <g>
    <path class="st3" d="M306.1,42.77v1.99h-6.73v5.61h-2.36v-5.61h-6.75v-1.99h15.83ZM292.21,34.04h11.93v1.99h-4.76v.15c0,.43.11.81.33,1.12.22.32.6.6,1.13.86.61.3,1.28.6,2.01.91.73.31,1.45.6,2.16.87l-.91,1.84c-.68-.27-1.35-.55-2.01-.84-.66-.29-1.28-.56-1.88-.84-.55-.25-.99-.48-1.33-.7-.34-.22-.56-.41-.66-.59h-.02c-.1.17-.33.37-.71.6-.37.23-.83.47-1.37.71-.59.27-1.22.55-1.88.84-.66.29-1.33.56-2.01.84l-.91-1.88c.71-.27,1.42-.56,2.16-.87.73-.31,1.4-.61,2.01-.91.53-.26.91-.55,1.13-.86.22-.32.33-.69.33-1.12v-.15h-4.76v-1.99Z"/>
    <path class="st3" d="M308.23,34h2.36v5.61c1.28,0,2.5-.03,3.67-.09,1.17-.06,2.35-.16,3.54-.3l.22,1.97c-.57.08-1.17.14-1.8.2-.63.05-1.33.1-2.11.14-.77.04-1.64.06-2.6.07-.96.01-2.05.02-3.28.02v-7.62ZM310.53,43.46h11v6.91h-11v-6.91ZM312.86,48.42h6.35v-3.01h-6.35v3.01ZM321.53,42.68h-2.34v-9.59h2.34v9.59Z"/>
    <path class="st3" d="M324.44,44.84c1.42,0,2.7,0,3.82-.02,1.12-.01,2.12-.03,3.01-.06.89-.02,1.67-.06,2.35-.09.68-.04,1.3-.09,1.86-.15l.17,2.01c-.53.06-1.15.12-1.85.16-.7.04-1.5.08-2.42.1-.91.02-1.94.04-3.08.06-1.15.01-2.43.02-3.86.02v-2.03ZM329.78,42.7c-.69,0-1.33-.11-1.9-.32-.58-.21-1.07-.5-1.48-.85-.41-.36-.73-.77-.96-1.25-.23-.47-.34-.97-.34-1.49v-.74c0-.52.11-1.02.34-1.49.23-.47.55-.89.96-1.25.41-.36.9-.64,1.48-.85.58-.21,1.21-.32,1.9-.32s1.33.11,1.9.32c.58.21,1.07.5,1.48.85.41.36.73.77.96,1.25.23.47.34.97.34,1.49v.74c0,.52-.11,1.02-.34,1.49-.23.47-.55.89-.96,1.25-.41.36-.9.64-1.48.85-.58.21-1.21.32-1.9.32ZM329.78,36.16c-.37,0-.71.06-1.01.18-.3.12-.56.27-.78.46-.22.19-.38.4-.49.64-.11.24-.17.49-.17.75v.48c0,.26.06.51.17.75.11.24.28.45.49.64.22.19.48.34.78.45.3.12.64.18,1.01.18s.71-.06,1.01-.18c.3-.12.56-.27.78-.45.22-.19.38-.4.49-.64.11-.24.17-.49.17-.75v-.48c0-.26-.06-.51-.17-.75-.11-.24-.28-.46-.49-.64-.22-.19-.48-.34-.78-.46-.3-.12-.64-.18-1.01-.18ZM338.7,50.37h-2.32v-17.28h2.32v17.28Z"/>
    <path class="st3" d="M347.85,43.86h4.53v-2.27h-6.75v-1.97h4.27c.19-.57.33-1.17.45-1.79.11-.63.17-1.24.17-1.83v-.28h-3.55v-1.99h5.83v1.47c0,.72-.04,1.46-.12,2.22-.08.76-.22,1.5-.42,2.2h4.31c.17-.67.3-1.31.37-1.92.07-.61.11-1.15.11-1.61v-.37h-3.33v-1.99h5.61v1.56c0,.72-.04,1.44-.11,2.17-.07.73-.19,1.45-.35,2.16h2.58v1.97h-6.75v2.27h4.53v6.52h-11.41v-6.52ZM350.17,48.49h6.76v-2.73h-6.76v2.73Z"/>
    <path class="st3" d="M367.9,46.3c-.79,0-1.47-.12-2.04-.37-.56-.25-1.02-.6-1.38-1.04-.36-.45-.62-.97-.79-1.58-.17-.61-.25-1.28-.25-2.01v-2.06c0-.72.08-1.38.25-2,.17-.61.43-1.14.79-1.59.36-.45.82-.79,1.38-1.04.56-.25,1.24-.37,2.04-.37s1.47.12,2.03.37c.56.25,1.03.59,1.38,1.04.36.45.62.98.79,1.59.17.61.25,1.28.25,2v2.06c0,.73-.08,1.4-.25,2.01-.17.61-.43,1.13-.79,1.58-.36.45-.82.79-1.38,1.04-.56.25-1.24.37-2.03.37ZM367.9,36.31c-.79,0-1.36.27-1.7.82-.34.54-.51,1.34-.51,2.4v1.5c0,1.05.17,1.85.51,2.4.34.54.91.82,1.7.82s1.36-.27,1.7-.82c.34-.54.51-1.34.51-2.4v-1.5c0-1.05-.17-1.85-.51-2.4s-.91-.82-1.7-.82ZM377.11,50.37h-2.36v-17.28h2.36v17.28Z"/>
    <path class="st3" d="M389.45,46.3c-.79,0-1.47-.12-2.04-.37-.56-.25-1.03-.6-1.38-1.04-.36-.45-.62-.97-.79-1.58-.17-.61-.25-1.28-.25-2.01v-2.06c0-.72.08-1.38.25-2,.17-.61.43-1.14.79-1.59.36-.45.82-.79,1.38-1.04.56-.25,1.24-.37,2.04-.37s1.47.12,2.03.37c.56.25,1.03.59,1.38,1.04.36.45.62.98.79,1.59.17.61.25,1.28.25,2v2.06c0,.73-.08,1.4-.25,2.01-.17.61-.43,1.13-.79,1.58-.36.45-.82.79-1.38,1.04-.56.25-1.24.37-2.03.37ZM389.45,36.31c-.79,0-1.36.27-1.7.82-.34.54-.51,1.34-.51,2.4v1.5c0,1.05.17,1.85.51,2.4.34.54.91.82,1.7.82s1.36-.27,1.7-.82c.34-.54.51-1.34.51-2.4v-1.5c0-1.05-.17-1.85-.51-2.4-.34-.54-.91-.82-1.7-.82ZM398.67,50.37h-2.36v-17.28h2.36v17.28Z"/>
    <path class="st3" d="M416.84,43.33v1.97h-6.73v5.09h-2.36v-5.09h-6.75v-1.97h15.83ZM403.13,42.05v-5.02h9.18v-1.21h-9.24v-1.95h11.56v5.04h-9.18v1.21h9.57v1.93h-11.89Z"/>
    <path class="st3" d="M423.02,46.3c-.79,0-1.47-.12-2.03-.37-.56-.25-1.03-.6-1.38-1.04-.36-.45-.62-.97-.79-1.58-.17-.61-.25-1.28-.25-2.01v-2.06c0-.72.08-1.38.25-2,.17-.61.43-1.14.79-1.59.36-.45.82-.79,1.38-1.04.56-.25,1.24-.37,2.03-.37s1.43.12,1.99.36c.56.24,1.02.58,1.37,1,.36.43.63.94.81,1.52.18.59.28,1.23.29,1.92h2.68v-5.96h2.36v17.28h-2.36v-9.29h-2.68v.22c0,.73-.08,1.4-.25,2.01-.17.61-.43,1.13-.79,1.58-.36.45-.82.79-1.38,1.04-.56.25-1.24.37-2.03.37ZM423.02,36.31c-.79,0-1.36.27-1.7.82-.34.54-.51,1.34-.51,2.4v1.5c0,1.05.17,1.85.51,2.4.34.54.91.82,1.7.82s1.36-.27,1.7-.82c.34-.54.51-1.34.51-2.4v-1.5c0-1.05-.17-1.85-.51-2.4-.34-.54-.91-.82-1.7-.82Z"/>
    <path class="st3" d="M435.68,34.58h9.22v2.01h-3.35v1.97c0,.36.02.68.06.98.04.29.1.57.19.83.09.26.23.52.4.78.17.26.4.54.69.84.4.43.83.88,1.29,1.34.46.46.93.9,1.4,1.32l-1.5,1.56c-.4-.37-.79-.75-1.19-1.14-.4-.39-.77-.76-1.12-1.12-.36-.36-.66-.68-.91-.98-.25-.29-.4-.51-.46-.66h-.04c-.09.17-.27.42-.54.74-.27.32-.56.64-.87.97-.35.36-.71.73-1.08,1.11-.37.38-.82.8-1.34,1.27l-1.54-1.58c1.02-.9,1.93-1.8,2.75-2.69.27-.31.5-.59.69-.86.19-.26.33-.53.45-.8s.19-.56.23-.86c.04-.3.06-.65.06-1.03v-1.97h-3.49v-2.01ZM449.4,50.37h-2.36v-17.28h2.36v17.28Z"/>
    <path class="st3" d="M467.57,41.71v1.99h-15.83v-1.99h15.83ZM456.31,33.68v4.37h8.99v1.99h-11.33v-6.36h2.34ZM456.31,48.19h9.37v1.99h-11.71v-5.24h2.34v3.25Z"/>
  </g>
  <g>
    <path class="st2" d="M80.33,118.37c.29-1.73.61-3.46.93-5.16-1.05,1.42-2.08,2.84-3.1,4.28.73.31,1.45.6,2.17.88Z"/>
    <g>
      <path class="st5" d="M129.75,59.29c-1.65-2.27-1.2-5.42-1.2-5.42,0,0,3.13.54,4.78,2.81.89,1.23,1.17,2.71,1.24,3.81,2.39-1.63,4.84-3.21,7.33-4.75-3.1-9.29-9.68-16.72-18.7-20.66-5.17,8.91-12.88,18.54-23.66,27.87.02.2.03.4.03.6,0,3.39-2.75,6.13-6.13,6.13-.66,0-1.3-.11-1.9-.3-1.99,1.48-4.06,2.95-6.22,4.41,3.05.38,5.22.3,7.83.29v-.3l.04.47h.44v-.18c.49,0,1.15.01,1.81.01-.83.69-1.69,1.41-2.57,2.13-3.81,3.13-8.01,6.5-12.07,9.59-1.31-1.9-3.17-3.54-5.8-4.86-.23-.12-.47-.24-.72-.36-1.2.68-2.41,1.35-3.65,2.01.72.26,1.17.51,1.17.51,0,0-1.76,2.96-4.71,3.75-1.63.44-3.27.12-4.42-.25-3.96,1.88-8.12,3.69-12.48,5.42-.35.14-.68.32-.99.55,6.84,11.55,18.28,20.32,28.97,24.91,1.02-1.44,2.06-2.86,3.1-4.28,1.12-5.96,2.24-11.43,2.32-14.49.02-.7.02-1.39,0-2.07,2.65-2.93,5.75-6.45,8.95-10.24,3.46-4.11,7.03-8.53,10.22-12.87,1.74-.29,3.75-.72,6.19-1.37,8.41-2.24,14.02-5.23,17.57-7.67.63-.43,1.48-.33,2.24.11,1.37-1.01,2.76-2.01,4.17-2.99-1.02-.41-2.31-1.13-3.19-2.33ZM92.65,82.7c-3.06,3.29-6.29,6.68-9.39,9.77-.22-1.43-.57-2.78-1.08-4.04,3.29-2.8,6.95-5.99,10.59-9.34,1.79-1.65,3.58-3.34,5.31-5.03.81-.04,1.68-.1,2.63-.22-2.35,2.64-5.12,5.71-8.05,8.87ZM119.35,61.8c-2.66,4.49-8.35,6.03-8.35,6.03,0,0-.85-3.54.08-7.24.24-1.43.94-2.65,1.61-3.6,2.79-4.01,7.95-5.41,7.95-5.41,0,0,1.37,5.73-1.29,10.22Z"/>
      <path class="st4" d="M62.65,86.61c-.93-.3-1.53-.63-1.53-.63,0,0,1.76-2.96,4.71-3.75,1.81-.48,3.63-.04,4.78.37,1.24-.66,2.46-1.33,3.65-2.01-7.46-3.74-18-9.27-18.54-11.98-.56-2.8,2.47-5.24,4.11-4.11,3.55,2.43,9.16,5.42,17.57,7.67,3.29.88,5.81,1.36,7.91,1.62,2.16-1.45,4.24-2.92,6.22-4.41-2.46-.8-4.23-3.11-4.23-5.83,0-3.39,2.75-6.13,6.13-6.13,3.18,0,5.8,2.43,6.1,5.53,10.78-9.33,18.49-18.96,23.66-27.87-.49-.21-.99-.42-1.49-.61-9.54-3.65-19.73-2.79-28.55,2-1.49-.81-3.01-1.5-4.57-2.08-10.98,5.98-24.45,11.12-40.74,13.98-6.08,9.9-7.41,23.25-2.14,37.05.95,2.49,2.13,4.88,3.48,7.16.31-.22.64-.41.99-.55,4.36-1.73,8.52-3.54,12.48-5.42ZM65.72,51.58s5.69,1.54,8.35,6.03c2.66,4.49,1.29,10.22,1.29,10.22,0,0-5.69-1.54-8.35-6.03-2.66-4.49-1.29-10.22-1.29-10.22ZM56.63,73.73c1.67.89,2.2,3.18,2.2,3.18,0,0-2.19.86-3.87-.02-1.67-.89-2.2-3.18-2.2-3.18,0,0,2.19-.86,3.87.02ZM53.03,56.69c1.65-2.27,4.78-2.81,4.78-2.81,0,0,.45,3.14-1.2,5.42-1.65,2.27-4.78,2.81-4.78,2.81,0,0-.45-3.14,1.2-5.42Z"/>
      <path class="st1" d="M64.61,34.47c-7.17,2.74-12.91,7.63-16.76,13.9,16.3-2.86,29.76-8,40.74-13.98-7.67-2.86-16.05-2.95-23.98.08Z"/>
      <path class="st2" d="M141.9,55.75c-2.5,1.54-4.94,3.12-7.33,4.75.06.94-.04,1.61-.04,1.61,0,0-.69-.12-1.59-.48-1.41.98-2.8,1.98-4.17,2.99,1.21.71,2.22,2.28,1.87,4-.56,2.8-11.78,8.6-19.26,12.34-7.48,3.74-8.79,10.1-8.6,17.76.09,3.52,1.58,9.77,2.86,16.23,12.27-15.88,25.87-30.43,38.05-42.41.58-5.98-.08-11.67-1.79-16.79ZM119.28,86.87c-2.94-.79-4.71-3.75-4.71-3.75,0,0,3.01-1.68,5.95-.89,2.94.79,4.71,3.75,4.71,3.75,0,0-3.01,1.68-5.95.89ZM131.41,76.88c-1.67.88-3.87.02-3.87.02,0,0,.52-2.3,2.2-3.18,1.67-.88,3.87-.02,3.87-.02,0,0-.52,2.3-2.2,3.18Z"/>
      <path class="st0" d="M105.64,114.95c.22,1.1.43,2.21.63,3.31,13.31-5.14,28.29-17,34.34-32.83,1.67-4.37,2.68-8.7,3.08-12.88-12.18,11.98-25.78,26.53-38.05,42.41Z"/>
    </g>
  </g>
</svg>