<?xml version="1.0" encoding="UTF-8"?>
<svg id="_레이어_1" data-name="레이어_1" xmlns="http://www.w3.org/2000/svg" version="1.1" viewBox="0 0 800 800">
  <!-- Generator: Adobe Illustrator 29.0.1, SVG Export Plug-In . SVG Version: 2.1.0 Build 192)  -->
  <defs>
    <style>
      .st0 {
        fill: #fff;
      }
    </style>
  </defs>
  <path class="st0" d="M194.53,393.79c-13.84,0-25.06,11.22-25.06,25.07s11.22,25.07,25.06,25.07,25.07-11.22,25.07-25.07-11.22-25.07-25.07-25.07Z"/>
  <path class="st0" d="M442.13,391.17c-14.9,0-26.99,12.08-26.99,27s12.09,26.99,26.99,26.99,26.99-12.08,26.99-26.99-12.09-27-26.99-27Z"/>
  <path class="st0" d="M479.66,655.85h186.6c53.78,0,97.38-43.6,97.38-97.39V242.02c0-53.78-43.6-97.38-97.38-97.38H133.06c-53.79,0-97.38,43.6-97.38,97.38v316.45c0,53.79,43.59,97.39,97.38,97.39h188.32M264.38,424.38c-.3,57.84-60.12,59.5-60.12,59.5-23.13,0-36.19-15.34-36.19-15.34v10.43h-43.56v-179.64c-.18-.03-.2-.07,0-.1v.1c2.7.43,43.56-.1,43.56-.1v68.71c10.24-17.47,39.87-17.18,39.87-17.18,64.5,6.01,56.43,73.62,56.43,73.62ZM341.06,356.28v123h-42.64v-121.77c0-16.56-20.55-21.16-20.55-21.16v-42.94c68.1,2.76,63.18,62.88,63.18,62.88ZM442.13,483.96c-39.47,0-71.47-29.46-71.47-65.79s32-65.79,71.47-65.79,71.47,29.46,71.47,65.79-31.99,65.79-71.47,65.79ZM675.71,483.96s.61,62.49-62.88,62.49h-19.32v-40.49h11.66s26.68,2.45,26.37-38.65c0,0-5.21,16.64-42.64,16.64,0,0-53.06-3.82-53.06-55.6v-19.63s1.23-53.68,59.5-57.97c0,0,23-2.45,37.11,16.56v-13.19h43.25v129.82Z"/>
  <path class="st0" d="M607.92,391.78c-14.57,0-26.37,11.81-26.37,26.38s11.81,26.38,26.37,26.38,26.38-11.81,26.38-26.38-11.81-26.38-26.38-26.38Z"/>
</svg>