<?xml version="1.0" encoding="UTF-8"?>
<svg id="_레이어_1" data-name="레이어_1" xmlns="http://www.w3.org/2000/svg" version="1.1" viewBox="0 0 500 134">
  <!-- Generator: Adobe Illustrator 29.0.1, SVG Export Plug-In . SVG Version: 2.1.0 Build 192)  -->
  <defs>
    <style>
      .st0 {
        font-size: 39.53px;
      }

      .st0, .st1, .st2 {
        fill: #381a1a;
      }

      .st0, .st2 {
        font-family: S-CoreDream-9Black, 'S-Core Dream';
        font-weight: 800;
      }

      .st3 {
        fill: #f8e200;
      }

      .st2 {
        font-size: 26.39px;
      }
    </style>
  </defs>
  <rect class="st3" x="18" y="14.37" width="464" height="105.26" rx="17.8" ry="17.8"/>
  <g>
    <text class="st0" transform="translate(130.96 66.9)"><tspan x="0" y="0">카카오톡 채널문의</tspan></text>
    <text class="st2" transform="translate(131.65 103.04)"><tspan x="0" y="0">꿈의동산교회</tspan></text>
  </g>
  <path class="st1" d="M70.31,30.71c-38.53-1.35-56.71,42.66-21.36,59.46-7.28,23.83-2.7,14.37,13.82,4.24,56.17,7.65,67.33-61.68,7.54-63.7"/>
  <g>
    <path class="st3" d="M53.96,53.37c-1.85.7-14.24-1.85-13.9,2.02-.07,2.86,4.19,1.86,5.88,2.02.76,1.9-2.12,17.28,2.4,16.21,3.88.48,1.23-14.49,1.97-16.21h3.65c2.62.04,2.62-4.08,0-4.04Z"/>
    <path class="st3" d="M82.52,69.82h-5.53v-14.54c.04-2.84-4.43-2.85-4.38,0,0,0,0,15.67,0,15.67.03.24.02.46,0,.7-.23,3.33,8.27,1.32,9.91,1.84,2.37.03,2.38-3.7,0-3.67Z"/>
    <path class="st3" d="M100.18,70.48l-6.16-8.09,5.56-5.57c1.8-1.74-.98-4.52-2.73-2.73,0,0-6.89,6.89-6.89,6.89v-5.71c.04-2.84-4.43-2.85-4.38,0,0,0,0,16.15,0,16.15-.04,2.84,4.43,2.85,4.38,0,0,0,0-4.98,0-4.98l1.25-1.25,5.82,7.64c1.5,2.06,4.69-.34,3.14-2.36Z"/>
    <path class="st3" d="M70.97,71.01s-5.9-16.22-5.94-16.22c-6.13-8.15-9.58,13.7-11.59,16.22-.88,2.39,2.89,3.72,3.71,1.3,0,0,1.01-2.88,1.01-2.88h8.11l1.01,2.88c.81,2.42,4.59,1.09,3.71-1.3ZM59.44,65.76l2.72-7.77s.06,0,.09,0l2.72,7.76h-5.53Z"/>
  </g>
</svg>