<?xml version="1.0" encoding="utf-8"?>
<!-- Generator: Adobe Illustrator 27.7.0, SVG Export Plug-In . SVG Version: 6.00 Build 0)  -->
<svg version="1.1" id="레이어_1" xmlns="http://www.w3.org/2000/svg" xmlns:xlink="http://www.w3.org/1999/xlink" x="0px"
	 y="0px" viewBox="0 0 800 500" style="enable-background:new 0 0 800 500;" xml:space="preserve">
<style type="text/css">
	.st0{fill:#87BCC4;}
	.st1{fill:#FFCF73;}
	.st2{fill:#FFB8AE;}
	.st3{fill:#CAC8E6;}
	.st4{fill:#50848C;}
	.st5{fill:#DEAA49;}
	.st6{fill:#DB968C;}
	.st7{fill:#A6A3D9;}
</style>
<g>
	<g>
		<path class="st0" d="M125.7,112.6c13.3,21.4,26.7,42,39.7,63.7c1.2,1.9,2.4,5.9,2.3,9c-0.1,2.4-1.7,5.7-4.1,8
			c-4.7,4.5-14.3,7.2-24.3,10c-30.3,8.4-45.3,10.5-81.3,13c-2.3,0.2-5.7-0.4-7.9-1.1c-5-1.5-8.1-6.9-8.4-12.1
			c-0.3-5.2,1.5-10.3,3.6-15.1C57,161.8,77,140.2,97,119.6C104.2,112.2,118.3,100.7,125.7,112.6z"/>
	</g>
	<g>
		<path class="st0" d="M550,253c17.4,18.3,34.7,35.7,51.8,54.2c1.5,1.7,3.6,5.3,4.1,8.4c0.4,2.4-0.5,6-2.4,8.6
			c-3.7,5.4-12.5,10-21.7,14.7c-28,14.4-42.2,19.5-76.9,29.3c-2.2,0.6-5.7,0.8-7.9,0.6c-5.2-0.5-9.3-5.1-10.7-10.1
			c-1.4-5-0.6-10.4,0.5-15.5c6.1-28.1,21.2-53.3,36.6-77.6C528.8,257,540.2,242.8,550,253z"/>
	</g>
	<g>
		<path class="st1" d="M183,197.2c19.1,12.5,38,24.2,56.9,37c1.7,1.1,4.2,3.9,5.3,6.5c0.9,2,0.8,5.4-0.3,8.1
			c-2.1,5.5-9,11.4-16.1,17.5c-21.7,18.5-33.1,26-61.7,41.8c-1.8,1-4.8,1.9-6.9,2.1c-4.7,0.7-9.2-2.5-11.5-6.7
			c-2.3-4.1-2.7-9-2.8-13.7c-0.5-26,7.6-51.4,16.1-76C165.2,205.1,172.4,190.2,183,197.2z"/>
	</g>
	<g>
		<path class="st1" d="M696,348.2c25.4-5,50.1-10.3,75.5-14.9c2.3-0.4,6.6-0.1,9.5,1.1c2.3,1,4.9,3.8,6.2,6.8
			c2.6,6.2,1.7,16.4,0.7,26.9c-3,32.2-6.4,47.3-17.1,82.8c-0.7,2.3-2.5,5.3-3.9,7.2c-3.3,4.2-9.5,5.2-14.6,3.7
			c-5.1-1.6-9.3-5.2-13.1-9c-21-20.8-34.5-47.8-47-74.5C687.8,368.8,681.8,351,696,348.2z"/>
	</g>
	<g>
		<path class="st1" d="M353.6,246.1c22.2-5.6,43.6-11.4,65.8-16.7c2-0.5,5.8-0.4,8.4,0.5c2.1,0.7,4.5,3.1,5.8,5.7
			c2.6,5.3,2.3,14.3,1.9,23.7c-1.1,28.5-3.4,42-11.1,73.7c-0.5,2-1.9,4.8-3.1,6.5c-2.7,3.9-8.1,5.1-12.7,3.9
			c-4.6-1.1-8.5-4.1-12-7.3c-19.5-17.3-32.6-40.4-44.9-63.4C347.3,264.6,341.2,249.2,353.6,246.1z"/>
	</g>
	<g>
		<path class="st2" d="M321.2,253.4c-18.3-2.3-36-4.9-54.3-6.9c-1.6-0.2-4.7,0.2-6.7,1.2c-1.6,0.8-3.3,2.9-4,5.1
			c-1.6,4.5-0.4,11.7,0.8,19.1c3.7,22.6,6.9,33.2,16.2,57.8c0.6,1.6,2,3.7,3.1,4.9c2.5,2.8,7,3.3,10.6,1.9c3.6-1.4,6.4-4.1,8.9-7
			c13.9-15.8,22.1-35.6,29.7-55.1C328.1,267.6,331.4,254.7,321.2,253.4z"/>
	</g>
	<g>
		<path class="st2" d="M675.1,341.1c-17.5-5.7-34.4-11.6-52-17c-1.6-0.5-4.6-0.7-6.8,0c-1.7,0.5-3.8,2.2-4.9,4.3
			c-2.4,4.1-2.6,11.4-2.8,18.9c-0.7,22.9,0.5,33.9,4.9,59.9c0.3,1.7,1.3,4,2.1,5.4c1.9,3.3,6.3,4.5,10,3.9c3.7-0.7,7-2.9,10-5.2
			c16.6-12.9,28.4-30.7,39.5-48.5C679.1,356.3,684.8,344.3,675.1,341.1z"/>
	</g>
	<g>
		<path class="st3" d="M104.9,91.8c-6.8-17.1-13-33.9-20-50.9c-0.6-1.5-2.4-4-4.3-5.3c-1.5-1-4.1-1.5-6.5-1.1
			c-4.7,0.8-10.5,5.2-16.4,9.9c-18.1,14.1-25.9,21.9-43,41.9c-1.1,1.3-2.2,3.5-2.8,5.1c-1.3,3.6,0.5,7.7,3.4,10.2
			c2.9,2.5,6.7,3.6,10.4,4.4c20.5,4.6,41.8,2.4,62.6-0.4C95.8,104.6,108.7,101.3,104.9,91.8z"/>
	</g>
	<g>
		<path class="st3" d="M515.3,228.3c-17.7-4.9-34.9-10-52.7-14.6c-1.6-0.4-4.6-0.5-6.8,0.3c-1.7,0.6-3.7,2.4-4.7,4.5
			c-2.2,4.3-2.1,11.5-2,19c0.4,22.9,2,33.9,7.7,59.6c0.4,1.6,1.5,3.9,2.4,5.3c2.1,3.2,6.5,4.2,10.2,3.4c3.7-0.8,6.9-3.2,9.8-5.7
			c16-13.6,27-32,37.3-50.3C520,243.3,525.2,231,515.3,228.3z"/>
	</g>
	<g>
		<path class="st4" d="M157.5,186.3c-0.5,0-1.1-0.3-1.3-0.8l-39.9-67c-0.4-0.7-0.2-1.7,0.5-2.1c0.7-0.4,1.7-0.2,2.1,0.5l39.9,67
			c0.4,0.7,0.2,1.7-0.5,2.1C158,186.2,157.7,186.3,157.5,186.3z"/>
	</g>
	<g>
		<path class="st4" d="M595.7,319.9c-0.4,0-0.8-0.2-1.1-0.5l-55.7-58.9c-0.6-0.6-0.6-1.6,0.1-2.2c0.6-0.6,1.6-0.6,2.2,0.1l55.7,58.9
			c0.6,0.6,0.6,1.6-0.1,2.2C596.5,319.7,596.1,319.9,595.7,319.9z"/>
	</g>
	<g>
		<path class="st5" d="M236.9,245.6c-0.3,0-0.6-0.1-0.9-0.3l-60.4-39.7c-0.7-0.5-0.9-1.4-0.5-2.2s1.4-0.9,2.2-0.5l60.4,39.7
			c0.7,0.5,0.9,1.4,0.5,2.2C238,245.4,237.5,245.6,236.9,245.6z"/>
	</g>
	<g>
		<path class="st5" d="M356.8,257.3c-0.7,0-1.3-0.5-1.5-1.2c-0.2-0.8,0.3-1.7,1.1-1.9l68.3-17.5c0.8-0.2,1.7,0.3,1.9,1.1
			c0.2,0.8-0.3,1.7-1.1,1.9l-68.3,17.5C357.1,257.3,356.9,257.3,356.8,257.3z"/>
	</g>
	<g>
		<path class="st6" d="M322.9,263.8c-0.1,0-0.1,0-0.2,0l-59.7-7.8c-0.9-0.1-1.5-0.9-1.4-1.8c0.1-0.9,0.9-1.5,1.8-1.4l59.7,7.8
			c0.9,0.1,1.5,0.9,1.4,1.8C324.3,263.2,323.6,263.8,322.9,263.8z"/>
	</g>
	<g>
		<path class="st6" d="M674.8,351.5c-0.2,0-0.3,0-0.5-0.1l-57.2-18.9c-0.8-0.3-1.3-1.2-1-2c0.3-0.8,1.2-1.3,2-1l57.2,18.9
			c0.8,0.3,1.3,1.2,1,2C676,351.1,675.4,351.5,674.8,351.5z"/>
	</g>
	<g>
		<path class="st5" d="M697.7,359.7c-0.7,0-1.4-0.5-1.5-1.3c-0.2-0.8,0.4-1.7,1.2-1.8l79.8-16.2c0.8-0.2,1.7,0.4,1.8,1.2
			c0.2,0.8-0.4,1.7-1.2,1.8l-79.8,16.2C698,359.7,697.8,359.7,697.7,359.7z"/>
	</g>
	<g>
		<path class="st7" d="M512.4,239.1c-0.1,0-0.3,0-0.4-0.1l-52.3-14.4c-0.8-0.2-1.3-1.1-1.1-1.9c0.2-0.8,1.1-1.3,1.9-1.1l52.3,14.4
			c0.8,0.2,1.3,1.1,1.1,1.9C513.7,238.6,513,239.1,512.4,239.1z"/>
	</g>
</g>
</svg>
