<?xml version="1.0" encoding="utf-8"?>
<!-- Generator: Adobe Illustrator 27.7.0, SVG Export Plug-In . SVG Version: 6.00 Build 0)  -->
<svg version="1.1" id="레이어_1" xmlns="http://www.w3.org/2000/svg" xmlns:xlink="http://www.w3.org/1999/xlink" x="0px"
	 y="0px" viewBox="0 0 800 500" style="enable-background:new 0 0 800 500;" xml:space="preserve">
<style type="text/css">
	.st0{fill:#87BCC4;}
	.st1{fill:#FFCF73;}
	.st2{fill:#FFB8AE;}
	.st3{fill:#CAC8E6;}
	.st4{fill:#50848C;}
	.st5{fill:#DEAA49;}
	.st6{fill:#DB968C;}
	.st7{fill:#A6A3D9;}
</style>
<g>
	<g>
		<path class="st0" d="M554.2,172.2c-42.1,18.5-83.4,35.6-125.3,54.7c-3.8,1.7-9.7,6.4-12.7,11.2c-2.4,3.7-3.3,10.4-2.1,16.2
			c2.4,11.7,14,25.6,26.2,40c36.9,43.9,57.2,62.5,108.7,103.4c3.3,2.6,9,5.3,13,6.5c9.1,2.9,19.2-2,25.1-9.4s8.3-17,10.1-26.4
			c9.6-51.5,2-104.6-6.9-156.2C587,193.9,577.7,161.9,554.2,172.2z"/>
	</g>
	<g>
		<path class="st1" d="M371.1,240.9c-41.3,5.2-81.6,9.5-122.8,15.3c-3.7,0.5-10.1,3.1-13.9,6.4c-3,2.6-5.5,8.2-6,13.5
			c-0.9,10.8,5.6,25.8,12.4,41.5c20.8,47.6,33.6,69,67.8,117.7c2.2,3.1,6.4,6.9,9.6,9c7.1,4.8,17.2,3.2,24.2-1.8
			c7-5,11.6-12.6,15.5-20.3C379.5,380,386.5,332,392,284.9C394,268.1,394.2,238,371.1,240.9z"/>
	</g>
	<g>
		<path class="st2" d="M81.5,236.4c35.8,7.6,70.8,14.2,106.5,22.3c3.2,0.7,8.6,3.4,11.7,6.7c2.5,2.5,4.3,7.6,4.3,12.3
			c0,9.5-6.8,22.2-13.9,35.4c-21.6,40.2-34.5,58-68,98.3c-2.1,2.6-6.1,5.6-9,7.2c-6.6,3.7-15.3,1.6-21.1-3.3
			c-5.8-4.9-9.3-11.9-12.1-18.9c-15.8-38.6-18.5-81.2-20-122.9C59.4,258.6,61.4,232.2,81.5,236.4z"/>
	</g>
	<g>
		<path class="st3" d="M600,145.2c26.5-20.6,51.8-41.2,78.5-61.5c2.4-1.8,7.5-4,11.6-4.3c3.2-0.2,7.8,1.5,11.1,4.3
			c6.7,5.6,11.6,17.9,16.6,30.7c15.4,38.9,20.3,58.4,28.7,105.6c0.5,3,0.3,7.6-0.3,10.6c-1.3,6.8-7.9,11.6-14.8,12.8
			c-6.8,1.2-13.8-0.6-20.4-2.7c-36.4-11.7-67.8-35-97.9-58.6C602.5,173.8,585.2,156.8,600,145.2z"/>
	</g>
	<g>
		<path class="st4" d="M437,249.7c-0.9,0-1.8-0.5-2.2-1.4c-0.5-1.2,0-2.6,1.2-3.1L561,189.3c1.2-0.5,2.6,0,3.1,1.2
			c0.5,1.2,0,2.6-1.2,3.1L438,249.5C437.7,249.6,437.4,249.7,437,249.7z"/>
	</g>
	<g>
		<path class="st5" d="M247.9,279.6c-1.2,0-2.2-0.9-2.4-2.1c-0.2-1.3,0.7-2.5,2-2.7l124.7-16.4c1.3-0.2,2.5,0.7,2.7,2
			c0.2,1.3-0.7,2.5-2,2.7l-124.7,16.4C248.1,279.6,248,279.6,247.9,279.6z"/>
	</g>
	<g>
		<path class="st6" d="M187.5,280c-0.2,0-0.3,0-0.5-0.1L77.5,256.6c-1.3-0.3-2.1-1.5-1.8-2.8c0.3-1.3,1.5-2.1,2.8-1.8L188,275.3
			c1.3,0.3,2.1,1.5,1.8,2.8C189.6,279.3,188.6,280,187.5,280z"/>
	</g>
	<g>
		<path class="st7" d="M614.3,161.8c-0.7,0-1.4-0.3-1.9-0.9c-0.8-1-0.6-2.5,0.4-3.3l83.2-63.8c1-0.8,2.5-0.6,3.3,0.4
			c0.8,1,0.6,2.5-0.4,3.3l-83.2,63.8C615.3,161.6,614.8,161.8,614.3,161.8z"/>
	</g>
</g>
</svg>
