<?xml version="1.0" encoding="utf-8"?>
<!-- Generator: Adobe Illustrator 27.7.0, SVG Export Plug-In . SVG Version: 6.00 Build 0)  -->
<svg version="1.1" id="레이어_1" xmlns="http://www.w3.org/2000/svg" xmlns:xlink="http://www.w3.org/1999/xlink" x="0px"
	 y="0px" viewBox="0 0 800 500" style="enable-background:new 0 0 800 500;" xml:space="preserve">
<style type="text/css">
	.st0{fill:#FFFFFF;}
	.st1{fill:#FFCF73;}
</style>
<g>
	<g>
		<path class="st0" d="M220.7,99.7c-9.8-4.2-17.1-7.7-28.5-14.6c-10.3-6.2-12.8-6.8-21.5-13.8c-8.3-6.6-9.9-13.7-11-21.4
			c-1.5-11.4,11.2-25.7,21.1-27.3c15.7-2.6,24.8,1,34.1,15.3c10.2,15.7,20.5,36,23.6,42.9C246.1,97.8,234.4,105.6,220.7,99.7z"/>
	</g>
	<g>
		<path class="st0" d="M235.6,76.9c0.3-8.4,0.2-13.4,0.8-22.6c0.7-10.1,0.6-14.4,4.5-25.9c4-11.5,9.9-15.5,16.5-18.9
			c12.9-6.6,36.6,4.5,39.5,18.8c2.4,11.5,1.3,19.1-2.8,26.6c-8.2,15.1-25.7,29.4-34.3,34.4C246.5,97,235.2,88.4,235.6,76.9z"/>
	</g>
	<g>
		<path class="st0" d="M260.4,89.4c8.3-1.3,13.2-2.3,22.4-3.4c10.1-1.2,14.3-2.1,26.3-0.3c12.1,1.8,17.1,6.9,21.6,12.8
			c8.9,11.5,2.4,36.8-11.2,42.3c-10.8,4.5-18.5,4.8-26.7,2.1c-16.4-5.3-33.6-19.9-40.1-27.4C242.7,103.8,249.1,91.2,260.4,89.4z"/>
	</g>
	<g>
		<path class="st0" d="M251.5,114c4.3,7.1,7.2,11.3,11.7,19.4c5,8.9,7.4,12.4,10.3,24.2c2.9,11.8,0.2,18.4-3.5,24.9
			c-7.2,12.6-33.1,16.2-43.4,5.8c-8.3-8.3-11.5-15.3-12.1-23.9c-1.4-17.2,5.5-38.7,10-47.5C231.4,103.1,245.5,104.2,251.5,114z"/>
	</g>
	<g>
		<path class="st0" d="M224.9,116.2c-5.1,7.8-11.7,18-21.8,25.5c-7.6,5.6-10.4,7.2-19.9,10c-10.5,3-15.9,2.5-25.6-0.9
			c-12.9-4.5-19.5-23.8-12.8-37.4c5-10.3,10.6-15.9,26.7-18.5c17.9-2.9,37.9,1.8,45.6,3C227.9,99.4,230.9,107.1,224.9,116.2z"/>
	</g>
	<g>
		<g>
			<path class="st1" d="M257.3,121.4c6.2-4.9,12.4-20,6.8-32.3C259.5,79,253.4,72.4,239.8,70c-14.5,0.1-26,7.2-31.4,21.2
				c-5.5,14.2,7.3,33.1,17.8,36.8C238.7,132.5,248.7,128.3,257.3,121.4z"/>
		</g>
	</g>
</g>
<g>
	<g>
		<path class="st0" d="M555.4,379.3c-6.5-4.9-11.2-8.8-18.4-16c-6.5-6.5-8.2-7.4-13.4-14.2c-4.9-6.4-4.8-12-4.2-17.9
			c1-8.7,13-16.9,20.6-16.3c12.1,1,18.2,5.3,22.4,17.6c4.7,13.5,8.5,30.4,9.5,36C574.5,382.6,564.5,386.2,555.4,379.3z"/>
	</g>
	<g>
		<path class="st0" d="M570.6,365.2c1.7-6.1,2.6-9.9,4.7-16.6c2.4-7.4,3.1-10.6,8.1-18.3c5.1-7.8,10.2-9.7,15.7-10.9
			c10.8-2.5,26.2,10,25.8,21.2c-0.4,8.9-2.6,14.3-7,19.2c-8.9,9.7-24.4,17-31.7,19.1C575,382,568.2,373.6,570.6,365.2z"/>
	</g>
	<g>
		<path class="st0" d="M586.7,379c6.3,0.6,10.2,0.7,17.2,1.6c7.7,1,10.9,1.1,19.5,4.6c8.6,3.6,11.4,8.2,13.6,13.4
			c4.4,10.1-5,27.6-16.1,29.2c-8.8,1.3-14.6,0.1-20.1-3.3c-11.1-6.9-21.2-20.9-24.6-27.6C570.9,386.4,578,378.2,586.7,379z"/>
	</g>
	<g>
		<path class="st0" d="M575.5,395.5c1.9,6.1,3.2,9.7,5.1,16.5c2,7.5,3.2,10.5,3.2,19.8c0,9.3-3.3,13.6-7.2,17.7
			c-7.7,8-27.4,5.9-33.2-3.7c-4.6-7.7-5.7-13.4-4.6-19.9C541,413,550,398.3,555,392.6C562.7,383.8,572.9,387.1,575.5,395.5z"/>
	</g>
	<g>
		<path class="st0" d="M555.5,392.3c-5.2,4.8-11.9,11.2-20.8,14.8c-6.7,2.7-9,3.4-16.5,3.7c-8.3,0.3-12.2-1.1-18.7-5.3
			c-8.7-5.7-10-21.2-2.6-30c5.6-6.7,10.7-9.8,23.2-8.8c13.7,1.1,27.7,8.3,33.2,10.6C560.8,380.4,561.6,386.6,555.5,392.3z"/>
	</g>
	<g>
		<g>
			<path class="st1" d="M578.5,402.1c5.5-2.5,12.8-12.5,11-22.6c-1.5-8.4-4.8-14.4-14.5-18.6c-10.7-2.6-20.6,0.6-27.1,9.9
				c-6.6,9.5-0.7,25.8,6.4,30.5C562.7,406.8,570.8,405.6,578.5,402.1z"/>
		</g>
	</g>
</g>
<g>
	<g>
		<path class="st0" d="M313,364.5c-6.7,14.8-12.3,25.7-23.1,42.8c-9.7,15.4-10.8,19.2-21.7,32.2c-10.3,12.3-21.2,14.6-32.9,15.9
			c-17.4,1.9-38.6-17.8-40.8-32.9c-3.4-23.9,2.4-37.7,24.4-51.3c24.1-15,55.4-29.9,65.9-34.3C311,325.9,322.4,343.9,313,364.5z"/>
	</g>
	<g>
		<path class="st0" d="M278.9,341.1c-12.7-0.7-20.3-0.7-34.3-1.9c-15.4-1.4-21.9-1.3-39.2-7.8c-17.4-6.5-23.2-15.5-28.2-25.7
			c-9.6-19.9,8-55.4,29.9-59.4c17.5-3.2,29-1.3,40.4,5.2c22.7,13,43.8,40,51,53.3C309.8,325.2,296.4,342.1,278.9,341.1z"/>
	</g>
	<g>
		<path class="st0" d="M298.7,303.8c-1.7-12.6-3.1-20.1-4.4-34.1c-1.5-15.4-2.7-21.7,0.4-39.9c3.2-18.3,11-25.7,20.1-32.4
			c17.8-13.1,55.9-2.3,63.9,18.5c6.4,16.6,6.6,28.3,2.3,40.6c-8.6,24.7-31.3,50.4-43,60C320,331.2,301,321.2,298.7,303.8z"/>
	</g>
	<g>
		<path class="st0" d="M335.8,318.3c11-6.3,17.4-10.5,29.8-17.1c13.6-7.2,19.1-10.8,37.1-14.8c18.1-4,27.9,0.4,37.6,6.2
			c18.9,11.4,23.5,50.8,7.3,66.1c-12.9,12.3-23.6,16.9-36.7,17.6c-26.1,1.5-58.5-9.7-71.8-16.9C318.6,348.4,320.6,327,335.8,318.3z"
			/>
	</g>
	<g>
		<path class="st0" d="M338.3,358.6c11.7,8,27,18.3,37.9,33.9c8.3,11.8,10.6,16,14.5,30.5c4.2,16,3.2,24.3-2.2,38.8
			c-7.2,19.5-36.8,28.8-57.3,18.2c-15.4-8-23.8-16.6-27.2-41.2c-3.8-27.2,4.1-57.5,6-69.2C312.8,353.6,324.6,349.3,338.3,358.6z"/>
	</g>
	<g>
		<g>
			<path class="st1" d="M347.3,309.7c-7.3-9.6-29.9-19.5-48.8-11.4c-15.6,6.6-25.9,15.7-29.9,36.3c-0.3,22,10.1,39.8,31.1,48.4
				c21.3,8.8,50.5-10,56.6-25.7C363.4,338.3,357.3,323,347.3,309.7z"/>
		</g>
	</g>
</g>
</svg>
