<?xml version="1.0" encoding="utf-8"?>
<!-- Generator: Adobe Illustrator 27.7.0, SVG Export Plug-In . SVG Version: 6.00 Build 0)  -->
<svg version="1.1" id="레이어_1" xmlns="http://www.w3.org/2000/svg" xmlns:xlink="http://www.w3.org/1999/xlink" x="0px"
	 y="0px" viewBox="0 0 800 500" style="enable-background:new 0 0 800 500;" xml:space="preserve">
<style type="text/css">
	.st0{fill:#FFFFFF;}
	.st1{fill:#FFCF73;}
</style>
<g>
	<g>
		<path class="st0" d="M446.3,86.3c-7.6-6.5-13.1-11.7-21.5-20.9c-7.5-8.4-9.5-9.7-15.4-18.4c-5.6-8.2-5.1-15-3.8-22.2
			c1.8-10.7,17.1-19.9,26.5-18.6c14.8,2,21.9,7.8,26.3,23.2c4.8,16.9,8.3,37.9,9.2,44.9C469.5,91.7,456.9,95.4,446.3,86.3z"/>
	</g>
	<g>
		<path class="st0" d="M465.9,70.1c2.6-7.4,3.9-11.9,7-20c3.4-8.9,4.5-12.7,11.3-21.9c6.8-9.2,13.2-11.1,20-12.3
			c13.4-2.3,31.5,14.1,30.2,27.8c-1.1,10.9-4.2,17.4-9.9,23.1c-11.6,11.3-31.2,19.2-40.3,21.2C470.1,91.1,462.4,80.3,465.9,70.1z"/>
	</g>
	<g>
		<path class="st0" d="M484.7,88.2c7.7,1.2,12.4,1.6,21,3.2c9.4,1.7,13.4,2.1,23.6,7c10.3,5,13.4,10.9,15.8,17.4
			c4.7,12.8-8.1,33.5-21.8,34.8c-10.9,1-17.9-0.9-24.5-5.5c-13.2-9.3-24.6-27.1-28.3-35.7C464.8,96.1,474,86.6,484.7,88.2z"/>
	</g>
	<g>
		<path class="st0" d="M469.8,107.7c1.9,7.6,3.3,12.1,5.1,20.6c2,9.3,3.2,13.1,2.5,24.5c-0.7,11.4-5,16.5-10.1,21.3
			c-10,9.3-34.1,5.3-40.5-6.9c-5.1-9.7-6-16.9-4.2-24.7c3.6-15.7,15.7-33.1,22.2-39.7C454.9,92.4,467.2,97.2,469.8,107.7z"/>
	</g>
	<g>
		<path class="st0" d="M445.5,102.3c-6.7,5.6-15.4,12.9-26.6,16.7c-8.4,2.9-11.3,3.6-20.6,3.4c-10.2-0.2-14.9-2.2-22.6-7.9
			c-10.3-7.6-10.8-26.7-1.1-37.1c7.4-7.8,13.9-11.3,29.1-9.1c16.8,2.4,33.4,12.2,40,15.3C452.8,88,453.3,95.8,445.5,102.3z"/>
	</g>
	<g>
		<g>
			<path class="st1" d="M473,115.9c6.9-2.7,16.6-14.4,15.1-27c-1.3-10.4-4.9-18-16.4-23.9c-13-3.9-25.3-0.8-34,10.2
				c-8.8,11.2-2.7,31.7,5.7,37.9C453.2,120.7,463.3,119.7,473,115.9z"/>
		</g>
	</g>
</g>
<g>
	<g>
		<path class="st0" d="M219.1,416c-7.5-1.6-13-3-22-6.2c-8.1-2.9-9.9-3-17-6.7c-6.7-3.5-8.9-8.2-10.7-13.5
			c-2.7-7.8,4.2-19.5,10.9-22.1c10.6-4,17.5-2.7,26,6c9.3,9.6,19.4,22.4,22.5,26.8C236.6,411.2,229.6,418.2,219.1,416z"/>
	</g>
	<g>
		<path class="st0" d="M226.4,398c-1-5.9-1.8-9.4-2.6-16c-0.9-7.2-1.6-10.2-0.4-18.8c1.2-8.6,4.8-12.2,8.9-15.5
			c8.1-6.4,26.2-2,30.3,7.7c3.3,7.7,3.6,13.2,1.7,19c-3.7,11.7-13.9,24.2-19.2,28.8C236.8,410.5,227.7,406.1,226.4,398z"/>
	</g>
	<g>
		<path class="st0" d="M245.5,403.3c5.6-2,8.9-3.5,15.2-5.5c6.9-2.2,9.7-3.5,18.4-3.9c8.7-0.4,12.9,2.4,16.9,5.9
			c7.8,6.8,6.8,25.4-2,31.2c-7,4.6-12.3,5.9-18.4,5.2c-12.2-1.4-26.3-9.2-31.9-13.6C235.1,415.9,237.8,406.1,245.5,403.3z"/>
	</g>
	<g>
		<path class="st0" d="M242.7,421.8c4,4.4,6.6,6.9,10.9,12c4.7,5.5,6.9,7.7,10.6,15.5c3.7,7.9,2.7,12.9,1,17.9
			c-3.3,9.8-20.9,15.9-29.6,10.1c-6.9-4.7-10.2-9.1-11.8-15c-3.3-11.8-1.5-27.8,0.4-34.7C227.1,416.9,237.1,415.7,242.7,421.8z"/>
	</g>
	<g>
		<path class="st0" d="M224.4,427c-2.5,6.2-5.7,14.3-11.7,20.9c-4.6,5-6.3,6.5-12.5,9.8c-6.9,3.6-10.8,4-18,3
			c-9.7-1.3-17-13.9-14.2-24.4c2.1-7.9,5.2-12.6,16.1-16.7c12.1-4.5,26.8-4,32.4-4.3C224.1,414.8,227.3,419.8,224.4,427z"/>
	</g>
	<g>
		<g>
			<path class="st1" d="M247.8,426.1c3.7-4.3,5.9-15.7,0.3-23.6c-4.6-6.5-9.8-10.3-19.7-10c-10.1,2.1-17.2,8.7-19,19.2
				c-1.8,10.7,9.7,22.2,17.6,23.3C236.3,436.5,242.7,432.1,247.8,426.1z"/>
		</g>
	</g>
</g>
<g>
	<g>
		<path class="st0" d="M431.2,303.3c5.4-14.4,9-25.5,13.3-44.2c3.9-16.9,5.6-20.1,7.1-36.2c1.4-15.2-4.3-24-11.3-32.8
			c-10.4-13-37.8-14.1-49.5-5.4c-18.4,13.7-23.7,26.8-18.2,50.7c6.1,26.2,17,57.3,21.1,67.3C403.8,327.8,423.6,323.5,431.2,303.3z"
			/>
	</g>
	<g>
		<path class="st0" d="M392.6,296c-9-8.1-14.1-13.2-24.3-21.8c-11.2-9.4-15.5-13.8-31.5-21.1c-16-7.3-26-5.2-36.1-1.7
			c-19.8,6.8-31.9,42.4-19.9,59.9c9.6,13.9,18.6,20.4,30.5,23.7c23.9,6.6,56.2,2.6,70-1.4C402.6,327.4,405,307.1,392.6,296z"/>
	</g>
	<g>
		<path class="st0" d="M380.8,334.3c-9.6,7.3-15.6,11.4-25.9,19.9c-11.3,9.3-16.4,12.7-26.6,27c-10.2,14.3-9.9,24.6-8.3,35.2
			c3.1,20.7,35.9,39.1,55.2,30.6c15.5-6.8,23.5-14.5,28.9-25.6c10.9-22.3,12.9-54.8,11.5-69.1C413.5,330.3,394,324.3,380.8,334.3z"
			/>
	</g>
	<g>
		<path class="st0" d="M415.3,349.6c3.1,11.6,4.6,18.7,8.5,31.5c4.3,14,5.5,20.1,14.9,34.9c9.4,14.9,18.9,18.5,29.4,21.1
			c20.3,5,49.9-18.2,49.3-39.4c-0.4-16.9-4.4-27.2-12.7-36.5c-16.5-18.6-45.7-32.9-59.4-37C424.1,317.8,411,333.6,415.3,349.6z"/>
	</g>
	<g>
		<path class="st0" d="M444.1,324.2c13.2,2.5,30.4,5.9,48.2,2.8c13.4-2.3,17.9-3.6,30.3-10.7c13.6-7.9,18.5-14.1,24.6-27.4
			c8.3-17.9-5.3-44-26.1-50.7c-15.7-5-27.1-4.9-46,9.3c-20.9,15.7-36,41.3-42.5,50.4C423.7,310.4,428.7,321.3,444.1,324.2z"/>
	</g>
	<g>
		<g>
			<path class="st1" d="M417.2,363c-11.3,1.5-33.1-7.1-40.4-25.1c-6-14.9-6.8-27.9,4.4-44.4c14.5-14.9,33.5-19.8,53.4-11.5
				c20.2,8.5,27.1,40.7,20.6,55.3C447.3,354.8,433,360.9,417.2,363z"/>
		</g>
	</g>
</g>
</svg>
