<?xml version="1.0" encoding="utf-8"?>
<!-- Generator: Adobe Illustrator 27.7.0, SVG Export Plug-In . SVG Version: 6.00 Build 0)  -->
<svg version="1.1" id="레이어_1" xmlns="http://www.w3.org/2000/svg" xmlns:xlink="http://www.w3.org/1999/xlink" x="0px"
	 y="0px" viewBox="0 0 800 500" style="enable-background:new 0 0 800 500;" xml:space="preserve">
<style type="text/css">
	.st0{fill:#FAD5C5;}
	.st1{fill:#FFB8AE;}
	.st2{fill:#FFFFFF;}
	.st3{fill:#3E3E42;}
	.st4{fill:#C3C665;}
	.st5{fill:#B47551;}
	.st6{fill:#4C4B54;}
	.st7{fill:#6C482D;}
	.st8{fill:#F57F6D;}
	.st9{fill:#5C3416;}
	.st10{fill:#4C351B;}
	.st11{fill:#FF9788;}
	.st12{fill:#915C3D;}
	.st13{fill:#FCEA21;}
	.st14{fill:#F0C424;}
	.st15{fill:#9CAA36;}
</style>
<g>
	<path class="st0" d="M488.3,424.1c-57.9-5.9-98.7-6.1-156-4.5c-11,0.3-37.3,1.2-50.2,4.3c-10.3,2.4-37.9,7.1-28.7,20.1
		c9.2,13,64.8,14.5,81.9,15.7c49.7,3.5,105.6,4.3,176.4,1.2c17.1-0.7,31.5-5.2,32.4-13.5c0.7-7.1-5.6-11.2-20-16.7
		C515.1,427.1,500.8,425.3,488.3,424.1z"/>
</g>
<g>
	<g>
		<g>
			<g>
				<path class="st1" d="M420.5,312.2c-48.6,43.6-118.1,103.7-118.1,103.7l-33.1-36.7c0,0,62-57.4,114.1-108.4L420.5,312.2z"/>
			</g>
		</g>
		<g>
			<g>
				<polygon class="st2" points="316.9,334.5 351.1,373.5 312.6,407.3 279.1,370 				"/>
			</g>
		</g>
		<g>
			<g>
				<path class="st3" d="M312.7,407.1c0,0,6.2,18.6,6.9,26.8c0.1,1,0.2,3.6-1.3,5.3c-1.4,1.5-4.3,2.4-6.7,0.1
					c-6.6-6.1-15.8-17-22.3-24.1c-7.6-8.5-16.7-18.1-23.8-27.1c-0.8-1-1.6-2.2-1.6-3.5c0.1-1.3,1.1-2.4,2-3.3
					c2.8-2.7,9.1-7.9,13.2-11.6C289.1,381.1,312.7,407.1,312.7,407.1z"/>
			</g>
		</g>
		<g>
			<g>
				
					<rect x="308" y="350.6" transform="matrix(0.7506 -0.6608 0.6608 0.7506 -171.1578 298.5342)" class="st4" width="3.7" height="50.8"/>
			</g>
		</g>
		<g>
			<g>
				
					<rect x="319.2" y="340" transform="matrix(0.7401 -0.6725 0.6725 0.7401 -162.5244 310.9164)" class="st4" width="3.7" height="51.5"/>
			</g>
		</g>
		<g>
			<g>
				<path class="st4" d="M298,280.8l122.4-5.2c-0.5,0.4,0.2-27.1,0.2-65.1c0-20.5-2.6-56.5-2.6-56.5l-63,8.8l-40.9,9.1
					c0,0-24.3,9.5-23.1,37.9C292.8,249.7,298,280.8,298,280.8z"/>
			</g>
		</g>
	</g>
	<g>
		<polygon class="st5" points="323.1,322.3 351.3,295.5 363.6,276.2 420.5,273.5 423.4,319.6 372.7,369.1 		"/>
	</g>
	<g>
		<g>
			<g>
				<path class="st1" d="M370.6,287.9c49.8,42.3,118.7,103,118.7,103l-31.9,37.8c0,0-65.3-53.6-122.8-98.4L370.6,287.9z"/>
			</g>
		</g>
		<g>
			<g>
				<polygon class="st2" points="406.6,387.5 440.6,348.4 479.3,381.9 446.9,420.2 				"/>
			</g>
		</g>
		<g>
			<g>
				<path class="st6" d="M479.2,381.8c0,0,17.6-8.7,25.6-10.4c1-0.2,3.6-0.7,5.4,0.6c1.6,1.2,3,3.9,1,6.6
					c-5.2,7.4-14.6,18-20.9,25.3c-7.4,8.7-15.6,19-23.6,27.2c-0.9,0.9-1.9,1.9-3.2,2c-1.3,0.1-2.5-0.8-3.6-1.6
					c-3-2.4-9-7.9-13.2-11.5C456.6,408.8,479.2,381.8,479.2,381.8z"/>
			</g>
		</g>
		<g>
			<g>
				
					<rect x="423.3" y="387" transform="matrix(0.6542 -0.7564 0.7564 0.6542 -138.9389 473.8711)" class="st4" width="50.8" height="3.7"/>
			</g>
		</g>
		<g>
			<g>
				
					<rect x="411.3" y="377.4" transform="matrix(0.6422 -0.7665 0.7665 0.6422 -134.2962 470.6925)" class="st4" width="51.5" height="3.7"/>
			</g>
		</g>
	</g>
	<g>
		<g>
			<g>
				<path class="st1" d="M445.1,114.7c4.6-13.1,16.4-20.7,25.2-20.8c5.4,0,8.9,1.6,10.7,2.5c2.3,1.2,5.5,4.3,8,7.5
					c4.8,6.1,8.6,12.1,6.6,20.8c-1.2,5.1-5,9.2-8.9,12.7c-3.5,3.1-7.3,6.1-11.7,7.5c-4.5,1.4-11.1-0.9-14.5-4
					c-3.6-3.2-6.2-6.5-10.9-12C449.4,128.9,443.4,119.5,445.1,114.7z"/>
			</g>
		</g>
		<g>
			<g>
				<path class="st4" d="M452.7,102.3l31.9,36.9c0,0-58.7,54.5-98.1,80.1l-35.9-38.8C350.6,180.5,419.7,126.8,452.7,102.3z"/>
			</g>
		</g>
	</g>
	<g>
		<path class="st5" d="M328.6,336.8l49,43.1l51.7-54.1l-52.8-50.2l-78.8,3.3c0,0,1.5,12.8,1.9,17.1
			C301.6,315.6,312.9,323,328.6,336.8z"/>
	</g>
	<g>
		<g>
			<g>
				<path class="st1" d="M380,166.8l-2.9-15.3l-41.5,7.5l0.8,0.4l2.5,15.5c0.7,5.3,7.4,9.6,12.5,11.5c7.6,2.9,17.1,1.2,22.5-3.8
					C377.8,178.9,380.7,173.4,380,166.8z"/>
			</g>
		</g>
		<g>
			<g>
				<path class="st1" d="M378,71.6c5.1,3.5,9.1,8.5,11.5,15.4c1,2.9,3.8,8.9,4.9,11.7c3.2,8,3.6,16.1,1.6,24.7
					c-0.1,0.5,0,1.2,0.2,1.7c0.3,0.5,0.8,0.9,1.2,1.3c3.5,2.8,4.3,7.9,4,12.3c-0.3,4.4-3,9.5-5.7,13.1c-7.1,9.3-18.3,17.3-29.2,21.3
					c-12.4,4.5-34.7,4.8-46.6,0.8c-12-4.1-16.2-7.9-23.8-18c-7.7-10.1-11.6-22.9-11.5-35.5c0-11.1,3.3-22.7,11.1-30.6
					c3.8-3.9,12.7-12.6,17.5-15C330.5,65.9,360.4,59.6,378,71.6z"/>
			</g>
		</g>
		<g>
			<g>
				<path class="st7" d="M308.2,135.5c-5.9,1.9-9.2,8.3-6.8,17.3c0,0,2.4,14.7,18.8,21c0,0-3.6,1.2-7.5,0.4
					c-11.3-2.3-18.2-6-26.3-10.6c-5.2-2.9-10.6-8.7-14.1-13.5c-12.9-17.8-15.3-30.5-14-46.4c1.8-20.5,11.9-41.4,30.1-50.9
					c9.8-5.2,22.3-7.8,34.4-5.5c4.4-6.7,19.9-10.7,31.1-9.8c11.1,0.9,25.2,8.4,34.1,15.3c11.1,8.6,18.2,23.6,19.7,32.8
					c1.1,7,1.2,15.9-1.3,23.9c-1.9,6-8,16.6-10.5,15.5c-1.6-0.7-1-5.7-1.2-9.3c0,0,0.2-10.4-1.3-13.7c-0.5-1.2-3.9-1.7-8.2-1.8
					c-14.4-0.2-25.3-4.4-35.1-17.5c0,0-5.7,22.1-28.1,29.7L308,116C308,116,309.9,135.3,308.2,135.5z"/>
			</g>
		</g>
		<g>
			<g>
				<g>
					<path class="st1" d="M316.6,147.3c1.9,4.7-1.5,10.4-6.2,12.1c-4.8,1.7-10.3,0-14.2-3.3c-5.9-4.9-8.6-14-4.6-20.6
						c4-6.5,15.2-7.6,19.1-1L316.6,147.3z"/>
				</g>
			</g>
		</g>
		<g>
			<g>
				<g>
					<path class="st8" d="M297.6,147.9c0.1,0,0.2-0.1,0.3-0.1c0.1,0,0.3-0.1,0.1,0c0.2-0.1,0.4-0.2,0.6-0.2c0.4-0.1,0.8-0.3,1.2-0.4
						c0.2,0,0.4-0.1,0.6-0.1c0.1,0,0.2,0,0.3,0c0,0,0.1,0,0.1,0c-0.1,0-0.2,0,0,0c0.4,0,0.8-0.1,1.2-0.1c0.4,0,0.8,0,1.3,0
						c0.2,0,0.4,0,0.6,0.1c0.1,0-0.1,0-0.1,0c0,0,0.1,0,0.1,0c0.1,0,0.2,0,0.3,0.1c0.8,0.2,1.6,0.4,2.4,0.7c0.1,0-0.1,0-0.1,0
						c0,0,0.1,0,0.1,0.1c0.1,0,0.2,0.1,0.3,0.1c0.2,0.1,0.4,0.2,0.6,0.3c0.3,0.2,0.6,0.3,1,0.4c0.5,0,1-0.2,1.2-0.7
						c0.6-1.4-1.4-2-2.3-2.4c-1.6-0.7-3.3-1-5-1c-2,0-4,0.5-5.9,1.3c-0.6,0.3-0.8,1.2-0.4,1.7C296.3,148.1,297,148.2,297.6,147.9
						L297.6,147.9z"/>
				</g>
			</g>
		</g>
		<g>
			<g>
				<path class="st9" d="M319.7,114.5c-0.4,0-0.8-0.3-0.9-0.7c-0.1-0.5,0.2-1.1,0.7-1.2c9.3-2.4,17.3-8.3,22-16.2
					c5.2-8.8,7.3-15.2,7.3-22.1c0-0.5,0.4-1,1-1c0,0,0,0,0,0c0.5,0,1,0.4,1,1c0,9.1-3.8,16.8-7.6,23.1c-4.9,8.3-13.3,14.5-23.1,17.1
					C319.9,114.5,319.8,114.5,319.7,114.5z"/>
			</g>
		</g>
		<g>
			<g>
				<path class="st9" d="M303.9,110.2c-0.4,0-0.7-0.2-0.9-0.6c-0.2-0.5,0-1.1,0.5-1.3c12.3-5.4,22.1-16.2,26.1-29.1
					c0.2-0.5,0.7-0.8,1.2-0.6c0.5,0.2,0.8,0.7,0.6,1.2c-4.2,13.3-14.4,24.6-27.2,30.3C304.2,110.1,304.1,110.2,303.9,110.2z"/>
			</g>
		</g>
		<g>
			<g>
				<path class="st9" d="M393.9,91.7c-2.4,0-4.9-0.2-7.4-0.6c-9.8-1.7-19-6.6-25.8-13.8c-0.4-0.4-0.4-1,0-1.4c0.4-0.4,1-0.4,1.4,0
					c6.5,6.9,15.3,11.6,24.7,13.2c3.4,0.6,6.7,0.7,9.9,0.5c0.5,0,1,0.4,1,0.9c0,0.5-0.4,1-0.9,1C395.9,91.7,394.9,91.7,393.9,91.7z"
					/>
			</g>
		</g>
		<g>
			<g>
				<path class="st9" d="M403.1,82.7c0,0-0.1,0-0.1,0c-10.6-1.5-20.6-5.8-28.9-12.5c-0.4-0.3-0.5-1-0.1-1.4c0.3-0.4,1-0.5,1.4-0.1
					c8,6.5,17.7,10.7,27.9,12.1c0.5,0.1,0.9,0.6,0.8,1.1C404,82.3,403.6,82.7,403.1,82.7z"/>
			</g>
		</g>
		<g>
			<g>
				<path class="st9" d="M271.3,124c-0.4,0-0.8-0.3-0.9-0.7c-2.7-10.2-2.5-21.2,0.8-31.8c3.2-10.6,9.2-19.9,17.1-26.8
					c0.4-0.4,1-0.3,1.4,0.1c0.4,0.4,0.3,1-0.1,1.4c-15.8,13.7-22.7,36.5-17.3,56.7c0.1,0.5-0.2,1.1-0.7,1.2
					C271.4,124,271.3,124,271.3,124z"/>
			</g>
		</g>
		<g>
			<g>
				<g>
					<path class="st10" d="M328.9,133.3c0.4,1.6,1.8,3.5,4.6,4c2.9,0.5,4.6-0.9,5.3-2.6c1.3-2.1,0.9-4.8-1.1-7.1
						c-0.7-0.8-1.9-1.7-3.4-1.9c-1.6-0.2-2.8,0.6-3.5,1.3C329.1,128.9,328.4,131.1,328.9,133.3z"/>
				</g>
			</g>
			<g>
				<g>
					<path class="st10" d="M369.5,125.7c0.4,1.6,1.8,3.5,4.6,4c2.9,0.5,4.6-0.9,5.3-2.6c1.3-2.1,0.9-4.8-1.1-7.1
						c-0.7-0.8-1.9-1.7-3.4-1.9c-1.6-0.2-2.8,0.6-3.5,1.3C369.7,121.3,369,123.5,369.5,125.7z"/>
				</g>
			</g>
			<g>
				<g>
					<g>
						<g>
							<path class="st10" d="M327.1,119.8c1.3,0.4,2.6-0.6,3.8-0.9c1.5-0.5,2.9-0.5,4.4-0.6c0.6,0,1.3-0.4,1.5-0.9
								c0.1-0.3,0.2-0.5,0.2-0.9c0-0.8-0.7-1.4-1.4-1.5c-1.9-0.4-4.1-0.1-5.9,0.5c-1.6,0.6-3.5,1.5-3.5,3.2
								C326.1,119.3,326.6,119.7,327.1,119.8L327.1,119.8z"/>
						</g>
					</g>
				</g>
			</g>
			<g>
				<g>
					<g>
						<g>
							<path class="st10" d="M367.8,111.5c1.3,0.5,2.4-0.4,3.7-0.7c1.4-0.4,2.8-0.3,4.3-0.3c0.6,0,1.1-0.5,1.3-1
								c0.1-0.3,0.1-0.6,0.1-0.9c0-0.5-0.5-1.2-1-1.3c-1.8-0.5-3.6-0.4-5.4,0.1c-1.4,0.4-3.6,1.2-3.7,3
								C367.1,110.8,367.4,111.3,367.8,111.5L367.8,111.5z"/>
						</g>
					</g>
				</g>
			</g>
			<g>
				<g>
					<g>
						<g>
							<path class="st10" d="M359.8,132.9c2.8,0,2.8-3.9,0-3.9C356.9,128.9,356.9,132.9,359.8,132.9L359.8,132.9z"/>
						</g>
					</g>
				</g>
			</g>
			<g>
				<g>
					<path class="st11" d="M330.3,142.2c-4.8,0.1-10,2.3-12,5.5c-1.1,1.8-1.3,4.2-0.1,5.9c0.9,1.2,2.3,1.9,3.7,2.3
						c4.1,1.3,8.7,1.1,12.7-0.5c1.3-0.5,2.7-1.3,3.7-2.3c1-1.1,1.7-2.5,1.6-3.9C339.4,144,335.1,142.1,330.3,142.2z"/>
				</g>
			</g>
			<g>
				<g>
					<path class="st11" d="M388,130.9c-4.7,0.8-9.6,3.7-11.1,7.2c-0.8,1.9-0.7,4.3,0.7,5.8c1,1.1,2.5,1.5,4,1.7
						c4.3,0.7,8.7-0.2,12.4-2.3c1.3-0.7,2.4-1.6,3.3-2.8c0.8-1.2,1.3-2.7,1-4.1C397.2,131.4,392.7,130.1,388,130.9z"/>
				</g>
			</g>
		</g>
	</g>
	<g>
		<path class="st12" d="M429.3,326c-0.3,0-0.5-0.1-0.7-0.3L391,290.8c-0.4-0.4-0.5-1.1-0.1-1.6c0.4-0.4,1.1-0.5,1.6-0.1l37.5,34.8
			c0.4,0.4,0.5,1.1,0.1,1.6C429.9,325.8,429.6,326,429.3,326z"/>
	</g>
	<g>
		<path class="st12" d="M355.3,361.6c-0.2,0-0.5-0.1-0.7-0.3c-0.2-0.2-24.4-20.2-36.7-31.1c-11-9.8-15.6-21.3-15.8-21.8
			c-0.2-0.6,0.1-1.2,0.6-1.4c0.6-0.2,1.2,0.1,1.4,0.6l0,0c0,0.1,4.7,11.5,15.2,20.9c12.2,10.9,36.4,30.9,36.6,31.1
			c0.5,0.4,0.5,1.1,0.1,1.6C355.9,361.5,355.6,361.6,355.3,361.6z"/>
	</g>
	<g>
		<g>
			<polygon class="st13" points="361.4,139.8 494.4,97.9 499.1,113 363.4,148.8 			"/>
		</g>
		<g>
			<path class="st13" d="M480,118.2c0,0,17.2,2.8,32.5,5.1c18,2.6,42.2,6.6,54.2,9.1l-25.4-75.1c0,0-22.1,19.2-38.3,30
				c-9.6,6.5-27.7,16.8-27.7,16.8L480,118.2z"/>
		</g>
		<g>
			<path class="st14" d="M565.9,132.3c-9.9-1-22.4-13.4-28.8-34.2c-6.7-22.1-1.2-36.7,4-40.7c12.2-9.4,29.2-2.8,38.8,28
				C587.4,109.6,583.6,134,565.9,132.3z"/>
		</g>
		<g>
			
				<rect x="430.9" y="92.3" transform="matrix(0.9582 -0.2861 0.2861 0.9582 -11.9879 129.3)" class="st13" width="11.3" height="26.8"/>
		</g>
		<g>
			
				<rect x="448.4" y="87.7" transform="matrix(0.9582 -0.2861 0.2861 0.9582 -9.9556 134.099)" class="st13" width="11.3" height="26.8"/>
		</g>
		<g>
			
				<rect x="414.2" y="98.1" transform="matrix(0.9582 -0.2861 0.2861 0.9582 -14.3603 124.7678)" class="st13" width="11.3" height="26.8"/>
		</g>
		<g>
			<path class="st14" d="M457.9,87.2c-0.1,1.9-2.4,4.4-6.4,5.8c-4.2,1.5-7,0.5-7.9-0.5c-1.9-2.3-0.7-5.6,5.1-7.7
				C453.4,83.2,458.1,83.8,457.9,87.2z"/>
		</g>
		<g>
			<path class="st14" d="M440.7,92.5c-0.1,1.9-2.4,4.4-6.4,5.8c-4.2,1.5-7,0.5-7.9-0.5c-1.9-2.3-0.7-5.6,5.1-7.7
				C436.2,88.6,440.9,89.1,440.7,92.5z"/>
		</g>
		<g>
			<path class="st14" d="M423.8,97.8c-0.1,1.9-2.4,4.4-6.4,5.8c-4.2,1.5-7,0.5-7.9-0.5c-1.9-2.3-0.7-5.6,5.1-7.7
				C419.3,93.8,424,94.4,423.8,97.8z"/>
		</g>
	</g>
	<g>
		<path class="st10" d="M359.2,152.5c-0.4,0-0.8-0.2-1-0.6c-0.3-0.5,0-1.2,0.5-1.5c0.2-0.1,4.3-2.2,3.5-6.3
			c-0.8-4.1-4.8-4.1-4.9-4.1c-0.6,0-1.1-0.5-1.1-1.1c0-0.6,0.5-1.1,1.1-1.1c0,0,0,0,0,0c2,0,6.1,1.2,7.1,5.9c1,4.6-2.6,7.7-4.7,8.7
			C359.5,152.5,359.4,152.5,359.2,152.5z"/>
	</g>
	<g>
		<g>
			<path class="st1" d="M447.9,150.1c12-2.2,17.4-15.9,15.4-28.5c-0.4-2.2-1-4.5-2.3-6.3c-1.6-2.3-3.9-3.9-6.2-5.4
				c-7.8-5.3-17.2-10.8-25.9-7.5c-5,2-8.6,6.7-11.6,11.3c-2.7,4.2-5.1,8.7-5.9,13.7c-0.8,5,2.9,10.3,6.5,13.5
				c3.8,3.4,9.4,6.4,16.6,8.1C434.7,149.2,442.7,151,447.9,150.1z"/>
		</g>
		<g>
			<path class="st4" d="M385,174.8l28.3-53.9l47,20.3c0,0-13.4,30.2-25,57.1c-9.7,22.8-21.9,32.6-46.3,31.9
				c-28-0.7-66.5-3.1-69.5-3.5c-18.7-2.2-24.7-18.9-24.3-31.8c0.4-12.7,11.3-25.6,25.8-25.6C335.6,169.4,385,174.8,385,174.8z"/>
		</g>
		<g>
			<path class="st15" d="M379.1,188.8c-0.1,0-0.3,0-0.4-0.1c-0.5-0.2-0.8-0.8-0.7-1.3c0-0.1,0.1-0.3,0.2-0.4c1.3-2.3,22.7-44,34-66
				c0.3-0.5,0.9-0.8,1.5-0.5c0.5,0.3,0.8,0.9,0.5,1.5c-0.1,0.2-8.6,16.8-17,33.1c-4.9,9.6-8.9,17.3-11.7,22.8
				c-1.7,3.3-3,5.8-3.9,7.5c-0.5,0.9-0.8,1.6-1.1,2.1C380,188.2,379.7,188.8,379.1,188.8z"/>
		</g>
		<g>
			<path class="st15" d="M354.7,230.7C354.7,230.7,354.7,230.7,354.7,230.7c-0.2,0-13-1-25.6-1.9c-7.4-0.6-13.3-1-17.5-1.4
				c-2.5-0.2-4.5-0.4-5.8-0.5c-0.7-0.1-1.3-0.1-1.6-0.2c-0.6-0.1-1.5-0.2-1.6-1.1c0-0.6,0.4-1,0.9-1.1c0.2,0,0.3,0,0.5,0
				c2.3,0.3,31.4,2.5,50.8,4c0.6,0,1.1,0.6,1,1.2C355.8,230.3,355.3,230.7,354.7,230.7z"/>
		</g>
		<g>
			<path class="st15" d="M385.4,175.2C385.4,175.2,385.3,175.2,385.4,175.2c-0.2,0-13.6-1-26.7-2c-7.7-0.6-13.9-1-18.3-1.4
				c-2.6-0.2-4.7-0.4-6-0.5c-0.7-0.1-1.3-0.1-1.7-0.2c-0.7-0.1-1.6-0.2-1.6-1.1c0-0.6,0.4-1.1,0.9-1.1c0.2,0,0.3,0,0.5,0
				c2.5,0.3,39,3,53,4c0.6,0,1.1,0.6,1,1.2C386.4,174.8,386,175.2,385.4,175.2z"/>
		</g>
		<g>
			<path class="st15" d="M394.1,231.3c-3.7,0-7.8-0.2-12.1-0.7c-0.6-0.1-1-0.6-1-1.2c0.1-0.6,0.6-1,1.2-1
				c11.4,1.3,21.7,0.8,26.6-1.4c5.6-2.5,13.8-7,19.7-18.2c0.3-0.5,1-0.7,1.5-0.5c0.5,0.3,0.7,1,0.5,1.5
				c-4.7,8.8-11.5,15.1-20.8,19.1C406.3,230.5,400.8,231.3,394.1,231.3z"/>
		</g>
		<g>
			<path class="st15" d="M437.1,194.7c-0.1,0-0.3,0-0.4-0.1c-0.6-0.2-0.8-0.9-0.6-1.4c0.3-0.7,3.4-7.8,8.4-19.3
				c5.9-13.3,13.8-31.5,14.4-33.1c0-0.2,0.2-0.4,0.3-0.6c0.4-0.3,1-0.4,1.4-0.1c0.7,0.5,0.5,1.1,0,2.2c-0.2,0.5-0.6,1.3-1,2.3
				c-0.8,1.8-1.9,4.4-3.4,7.9c-2.8,6.4-6.5,14.8-9.8,22.2c-4.2,9.5-8.1,18.5-8.4,19.2C437.9,194.5,437.5,194.7,437.1,194.7z"/>
		</g>
	</g>
</g>
</svg>
