<?xml version="1.0" encoding="utf-8"?>
<!-- Generator: Adobe Illustrator 27.7.0, SVG Export Plug-In . SVG Version: 6.00 Build 0)  -->
<svg version="1.1" id="레이어_1" xmlns="http://www.w3.org/2000/svg" xmlns:xlink="http://www.w3.org/1999/xlink" x="0px"
	 y="0px" viewBox="0 0 800 500" style="enable-background:new 0 0 800 500;" xml:space="preserve">
<style type="text/css">
	.st0{fill:#FAD5C5;}
	.st1{fill:#6C482D;}
	.st2{fill:#5C3416;}
	.st3{fill:#FFB8AE;}
	.st4{fill:#73ABB3;}
	.st5{fill:#87BCC4;}
	.st6{fill:#FFCF73;}
	.st7{fill:#68A2AB;}
	.st8{fill:#D9AD5B;}
	.st9{fill:#F57F6D;}
	.st10{fill:#4C351B;}
	.st11{fill:#FF9788;}
	.st12{fill:#824815;}
	.st13{fill:#8F5828;}
	.st14{fill:#4F2C0D;}
	.st15{fill:#38200B;}
	.st16{fill:#37200B;}
</style>
<g>
	<path class="st0" d="M481.1,454.7c-63.4-6.5-108.1-6.7-170.8-4.9c-12.1,0.3-40.9,1.3-54.9,4.7c-11.2,2.7-41.5,7.8-31.5,22
		c10.1,14.2,71,15.9,89.8,17.2c54.5,3.8,115.7,4.7,193.3,1.3c18.8-0.8,34.5-5.7,35.4-14.8c0.8-7.8-6.2-12.3-21.9-18.3
		C510.4,458,494.7,456.1,481.1,454.7z"/>
</g>
<g>
	<g>
		<path class="st1" d="M249,76c-4.8,11.9-6.3,24.8-10.1,37c-3.8,12.2-8.5,23.3-18.4,31.1c-5.3,4.2-14.2,9-18.8,13.8
			c-13.5,13.9-19.2,29.3-13.5,44.9c3.6,10,14.4,21.9,30.9,29c18.5,8,63.1,29.5,86.7,7.8c16.6-15.3,17.7-55.4,28.3-74.9
			c8.9-16.4,14.4-33.1,6.4-65.2C325.9,40.9,257,56.2,249,76z"/>
	</g>
	<g>
		<path class="st2" d="M224.8,214.8c-0.4,0-0.8-0.2-1-0.6c-4.3-7.1-2.8-17.1,3.4-23.9c2.7-2.9,6-5.2,9.3-7.4
			c1.7-1.2,3.5-2.4,5.1-3.6c5.4-4.2,9.6-9.5,12.3-15.3c0.3-0.6,1-0.9,1.6-0.6c0.6,0.3,0.9,1,0.6,1.6c-2.8,6.2-7.3,11.8-13,16.2
			c-1.7,1.3-3.5,2.5-5.3,3.7c-3.3,2.2-6.4,4.3-8.8,7c-5.5,6-6.8,14.9-3.1,21.1c0.3,0.6,0.2,1.3-0.4,1.7
			C225.3,214.8,225.1,214.8,224.8,214.8z"/>
	</g>
	<g>
		<path class="st2" d="M204,200.6c-0.5,0-1-0.4-1.1-0.9c-2.6-18.7,12.6-29.6,24.2-36.1c0.5-0.3,1.2-0.1,1.5,0.4
			c0.3,0.5,0.1,1.2-0.4,1.5c-11.1,6.2-25.5,16.5-23.1,34c0.1,0.6-0.3,1.1-0.9,1.2C204.1,200.6,204,200.6,204,200.6z"/>
	</g>
	<g>
		<path class="st2" d="M275.5,236.9c-0.3,0-0.6-0.1-0.9-0.4c-11.4-15-3.6-31.9,3.3-43.3c0.3-0.5,1-0.7,1.5-0.4
			c0.5,0.3,0.7,1,0.4,1.5c-6.6,10.9-14.1,26.9-3.4,40.9c0.4,0.5,0.3,1.1-0.2,1.5C276,236.8,275.8,236.9,275.5,236.9z"/>
	</g>
	<g>
		<g>
			<g>
				<path class="st3" d="M426.9,332.2c-53.3,47.7-129.4,113.6-129.4,113.6l-36.2-40.2c0,0,67.9-62.9,125-118.7L426.9,332.2z"/>
			</g>
		</g>
		<g>
			<g>
				<path class="st4" d="M308.9,436.1c0,0,6.8,20.4,7.5,29.4c0.1,1.1,0.3,4-1.4,5.8c-1.5,1.6-4.7,2.6-7.4,0.1
					c-7.2-6.7-17.4-18.6-24.4-26.4c-8.4-9.3-18.3-19.8-26-29.7c-0.9-1.1-1.8-2.4-1.7-3.8c0.1-1.5,1.2-2.6,2.2-3.6
					c3-3,9.9-8.6,14.4-12.7C283,407.6,308.9,436.1,308.9,436.1z"/>
			</g>
		</g>
		<g>
			<g>
				<path class="st5" d="M292.8,297.7l134.1-5.7c-0.5,0.5-2.8-94-2.8-94c-3.1-16.5-10.5-25.9-21.5-30.5c-5.6-2.3-11.7-3.1-17.7-2.4
					l-29.6,3.2l-44.8,10c0,0-26.7,10.4-25.3,41.5C287,263.6,292.8,297.7,292.8,297.7z"/>
			</g>
		</g>
	</g>
	<g>
		<polygon class="st6" points="273.7,385.1 351.2,313.8 364.6,292.8 426.9,289.8 430.1,340.2 320,434.1 		"/>
	</g>
	<g>
		<g>
			<path class="st3" d="M484,196.3c13.2,1.7,23.5-10.7,25.6-24.5c0.4-2.5,0.4-5-0.3-7.4c-0.8-2.9-2.7-5.4-4.6-7.7
				c-6.4-8.2-14.3-17.1-24.5-16.5c-5.9,0.4-11.2,4-15.9,7.9c-4.2,3.5-8.3,7.3-10.7,12.3c-2.5,4.9-0.5,11.7,2.3,16.3
				c2.9,4.8,7.6,9.8,14.6,14.1C470.6,190.9,478.3,195.5,484,196.3z"/>
		</g>
		<g>
			<path class="st5" d="M423.4,180.6l36.4-28.5l37.2,41.9c0,0-16.8,15.1-40.7,36.4c-20.3,18.1-48,22.2-66.6,2.4
				c-3.6-3.8-17-19.7-19-22.3c-16.1-20.9-0.4-39.3-0.2-39.5C393.6,148.4,423.4,180.6,423.4,180.6z"/>
		</g>
		<g>
			<path class="st7" d="M436.1,172.5c-0.3,0-0.6-0.1-0.8-0.4c-0.4-0.4-0.5-1.2,0-1.7c0.1-0.1,0.2-0.2,0.4-0.3
				c1.5-1.1,14.1-11.8,22.4-18.8c0.5-0.4,1.3-0.4,1.7,0.1c0.4,0.5,0.4,1.3-0.1,1.7c-0.1,0-5.7,4.8-11.3,9.5c-3.3,2.8-5.9,5-7.8,6.5
				c-1.1,0.9-2,1.6-2.6,2.1c-0.3,0.3-0.6,0.5-0.7,0.6C436.8,172.3,436.4,172.5,436.1,172.5z"/>
		</g>
		<g>
			<path class="st7" d="M454.5,232.4c-0.3,0-0.7-0.1-0.9-0.4c-0.4-0.5-0.4-1.3,0.1-1.7c18.3-15.5,41.1-34.9,42.5-36.2
				c0.4-0.5,1.1-0.6,1.6-0.2c0.3,0.2,0.5,0.6,0.5,0.9c0,0.6-0.1,0.7-1.5,2c-0.7,0.6-1.7,1.5-3.1,2.7c-2.5,2.2-6.2,5.3-10.5,9
				c-8.7,7.4-19.4,16.5-28,23.7C455.1,232.3,454.8,232.4,454.5,232.4z"/>
		</g>
	</g>
	<g>
		<g>
			<g>
				<path class="st3" d="M372.2,305.5c54.5,46.3,130.1,112.8,130.1,112.8l-35,41.4c0,0-71.5-58.7-134.5-107.8L372.2,305.5z"/>
			</g>
		</g>
		<g>
			<g>
				<path class="st4" d="M491.2,408.4c0,0,19.3-9.5,28.1-11.4c1.1-0.2,3.9-0.8,5.9,0.6c1.8,1.3,3.2,4.3,1.1,7.3
					c-5.7,8.1-16,19.7-22.9,27.7c-8.1,9.6-17.1,20.8-25.9,29.8c-1,1-2.1,2.1-3.5,2.2c-1.4,0.1-2.7-0.8-3.9-1.7
					c-3.3-2.6-9.9-8.7-14.5-12.6C466.5,437.9,491.2,408.4,491.2,408.4z"/>
			</g>
		</g>
	</g>
	<g>
		<path class="st6" d="M326.3,359.1l118.6,89.7l43.5-51.3L378.7,292l-86.4,3.6c0,0,1.7,14.1,2.1,18.7
			C296.6,335.8,309.1,343.9,326.3,359.1z"/>
	</g>
	<g>
		<path class="st8" d="M355.5,293.5c-0.6,0-1.2-0.5-1.2-1.2c0-0.7,0.5-1.2,1.2-1.3l44.1-1.8c0.7,0,1.2,0.5,1.3,1.2
			c0,0.7-0.5,1.2-1.2,1.3L355.5,293.5C355.5,293.5,355.5,293.5,355.5,293.5z"/>
	</g>
	<g>
		<path class="st6" d="M379.1,164.6c0,0,25.8,11.4,29,35.5l7.2,92h-9.5l-6.2-89.4c-1.5-14.7-13.3-26.9-25.7-34.8h0L379.1,164.6z"/>
	</g>
	<g>
		<path class="st6" d="M379.1,164.6c0,0,25.8,11.4,29,35.5l7.2,92h-9.5l-6.2-89.4c-1.5-14.7-13.3-26.9-25.7-34.8h0L379.1,164.6z"/>
	</g>
	<g>
		<path class="st6" d="M321.3,174c0,0,16.3,11,18.3,30.1l7.2,92h-9.5l-6.2-89.4c-2.5-12.7-6.6-21.4-18.5-28.4L321.3,174z"/>
	</g>
	<g>
		<path class="st8" d="M436.6,347.2c-0.3,0-0.6-0.1-0.8-0.3l-41.1-38.2c-0.5-0.5-0.5-1.2-0.1-1.7c0.5-0.5,1.2-0.5,1.7-0.1l41.1,38.2
			c0.5,0.5,0.5,1.2,0.1,1.7C437.3,347.1,436.9,347.2,436.6,347.2z"/>
	</g>
	<g>
		<path class="st8" d="M355.5,386.3c-0.3,0-0.5-0.1-0.8-0.3c-0.3-0.2-26.8-22.1-40.2-34.1c-12-10.7-17.1-23.3-17.3-23.9
			c-0.2-0.6,0.1-1.3,0.7-1.6c0.6-0.2,1.3,0.1,1.6,0.7l0,0c0,0.1,5.1,12.6,16.7,22.9c13.4,12,39.8,33.8,40.1,34
			c0.5,0.4,0.6,1.2,0.2,1.7C356.2,386.1,355.9,386.3,355.5,386.3z"/>
	</g>
	<g>
		<g>
			<g>
				<path class="st3" d="M375.6,170.1l-3.1-16.8l-45.4,8.2l0.9,0.5l2.7,17c0.7,5.8,8.1,10.5,13.7,12.6c8.4,3.1,18.7,1.4,24.6-4.1
					C373.2,183.5,376.4,177.4,375.6,170.1z"/>
			</g>
		</g>
		<g>
			<g>
				<path class="st3" d="M373.4,65.9c5.6,3.8,10,9.3,12.6,16.8c1.1,3.1,4.2,9.7,5.4,12.8c3.5,8.7,3.9,17.6,1.7,27.1
					c-0.1,0.6,0,1.3,0.2,1.8c0.3,0.6,0.9,1,1.4,1.4c3.8,3,4.8,8.6,4.4,13.5c-0.4,4.8-3.3,10.5-6.2,14.3c-7.7,10.2-20,19-32,23.3
					c-13.6,4.9-38.1,5.2-51,0.8c-13.1-4.5-17.7-8.7-26.1-19.7c-8.4-11.1-12.7-25-12.6-38.9c0.1-12.2,3.6-24.8,12.2-33.6
					c4.1-4.2,13.9-13.9,19.2-16.5C321.4,59.6,354.2,52.8,373.4,65.9z"/>
			</g>
		</g>
		<g>
			<g>
				<path class="st1" d="M298.6,146.5c-6.5,2.1-5.3,15.1-5.3,15.1s3.1,7.6,16.8,16.3c0,0-4,1.3-8.2,0.5
					c-12.4-2.5-19.9-6.6-28.8-11.6c-5.7-3.2-11.6-9.5-15.4-14.8c-14.1-19.5-16.8-33.4-15.3-50.9c1.9-22.5,13.1-45.3,33-55.8
					c10.7-5.6,24.4-8.5,37.7-6.1c4.8-7.3,21.8-11.7,34-10.7c12.2,1,27.6,9.2,37.3,16.7c12.1,9.4,20,25.8,21.5,35.9
					c1.2,7.7,1.3,17.4-1.4,26.2c-2.1,6.6-8.7,18.2-11.5,17c-1.7-0.7,5.6-16.8-7.8-24.5c-15-8.6-26.1,0.4-44.1-20.7
					c0,0-5.4,23-25.5,30.9c-6.7,2.6-12.2,7.8-15.1,14.4c-0.5,1.2-1,2.4-1.3,3.7C296.8,138.3,299.3,146.4,298.6,146.5z"/>
			</g>
		</g>
		<g>
			<g>
				<g>
					<path class="st3" d="M306.1,148.9c2.1,5.2-1.6,11.4-6.8,13.3c-5.2,1.9-11.3,0-15.6-3.6c-6.5-5.4-9.4-15.4-5-22.5
						c1.4-2.3,3.8-3.8,6.6-4.6c7.4-2,15.2,2.1,17.9,9.4L306.1,148.9z"/>
				</g>
			</g>
		</g>
		<g>
			<g>
				<g>
					<path class="st9" d="M285.3,149.5c0.1,0,0.2-0.1,0.3-0.1c0.1,0,0.3-0.1,0.1,0c0.2-0.1,0.4-0.2,0.7-0.2c0.4-0.2,0.9-0.3,1.3-0.4
						c0.2,0,0.4-0.1,0.6-0.1c0.1,0,0.2,0,0.3-0.1c0,0,0.1,0,0.2,0c-0.1,0-0.2,0,0,0c0.4-0.1,0.9-0.1,1.3-0.1c0.5,0,0.9,0,1.4,0
						c0.2,0,0.4,0,0.6,0.1c0.2,0-0.1,0-0.1,0c0,0,0.1,0,0.2,0c0.1,0,0.2,0,0.4,0.1c0.9,0.2,1.8,0.4,2.6,0.8c0.1,0.1-0.1,0-0.1,0
						c0,0,0.1,0,0.1,0.1c0.1,0,0.2,0.1,0.3,0.1c0.2,0.1,0.4,0.2,0.6,0.3c0.3,0.2,0.6,0.4,1,0.4c0.5,0,1.1-0.3,1.3-0.8
						c0.6-1.5-1.5-2.2-2.5-2.7c-1.7-0.7-3.7-1.1-5.5-1.1c-2.2,0-4.4,0.5-6.4,1.5c-0.6,0.3-0.9,1.3-0.5,1.8
						C283.9,149.7,284.7,149.8,285.3,149.5L285.3,149.5z"/>
				</g>
			</g>
		</g>
		<g>
			<g>
				<path class="st2" d="M314.2,111.6c-0.5,0-0.9-0.3-1-0.8c-0.1-0.6,0.2-1.2,0.8-1.3c9.9-2.4,16.4-11.3,19.4-16.4
					c5.7-9.6,8-16.6,8-24.2c0-0.6,0.5-1.1,1.1-1.1c0,0,0,0,0,0c0.6,0,1.1,0.5,1.1,1.1c0,9.9-4.2,18.4-8.3,25.3
					c-3.2,5.4-10.1,14.8-20.8,17.3C314.4,111.6,314.3,111.6,314.2,111.6z"/>
			</g>
		</g>
		<g>
			<g>
				<path class="st2" d="M292.3,108.1c-0.4,0-0.8-0.2-1-0.6c-0.2-0.5,0-1.2,0.6-1.4c13.5-5.9,24.2-17.8,28.6-31.8
					c0.2-0.6,0.8-0.9,1.3-0.7c0.6,0.2,0.9,0.8,0.7,1.3c-4.6,14.6-15.7,27-29.8,33.1C292.6,108.1,292.4,108.1,292.3,108.1z"/>
			</g>
		</g>
		<g>
			<g>
				<path class="st2" d="M390.9,87.9c-2.7,0-5.4-0.2-8.1-0.7C372,85.4,362,80,354.5,72.1c-0.4-0.4-0.4-1.1,0-1.5
					c0.4-0.4,1.1-0.4,1.5,0c7.2,7.6,16.8,12.7,27,14.5c3.7,0.6,7.3,0.8,10.9,0.6c0.6,0,1.1,0.4,1.1,1s-0.4,1.1-1,1.1
					C393.1,87.9,392,87.9,390.9,87.9z"/>
			</g>
		</g>
		<g>
			<g>
				<path class="st2" d="M400.9,78c0,0-0.1,0-0.1,0c-11.6-1.6-22.5-6.3-31.6-13.7c-0.5-0.4-0.5-1-0.2-1.5c0.4-0.5,1-0.5,1.5-0.2
					c8.8,7.1,19.4,11.7,30.6,13.2c0.6,0.1,1,0.6,0.9,1.2C401.9,77.7,401.4,78,400.9,78z"/>
			</g>
		</g>
		<g>
			<g>
				<path class="st2" d="M256.5,123.3c-0.5,0-0.9-0.3-1-0.8c-3-11.2-2.7-23.2,0.9-34.9c3.6-11.6,10-21.8,18.8-29.4
					c0.4-0.4,1.1-0.3,1.5,0.1c0.4,0.4,0.3,1.1-0.1,1.5c-17.3,15-24.9,40-19,62.1c0.2,0.6-0.2,1.2-0.8,1.3
					C256.7,123.3,256.6,123.3,256.5,123.3z"/>
			</g>
		</g>
		<g>
			<g>
				<g>
					<path class="st10" d="M319.6,133.5c0.4,1.8,2,3.9,5,4.4c3.2,0.6,5.1-1,5.9-2.8c1.4-2.3,1-5.2-1.2-7.7c-0.8-0.9-2.1-1.9-3.7-2.1
						c-1.8-0.2-3.1,0.6-3.9,1.5C319.8,128.7,319.1,131,319.6,133.5z"/>
				</g>
			</g>
			<g>
				<g>
					<path class="st10" d="M364.1,125.1c0.4,1.8,2,3.9,5,4.4c3.2,0.6,5.1-1,5.9-2.8c1.4-2.3,1-5.2-1.2-7.7c-0.8-0.9-2.1-1.9-3.7-2.1
						c-1.8-0.2-3.1,0.6-3.9,1.5C364.3,120.3,363.6,122.7,364.1,125.1z"/>
				</g>
			</g>
			<g>
				<g>
					<g>
						<g>
							<path class="st10" d="M317.6,118.7c1.4,0.4,2.8-0.6,4.2-1c1.6-0.5,3.2-0.5,4.8-0.6c0.6,0,1.4-0.4,1.7-1
								c0.1-0.3,0.2-0.6,0.2-0.9c0-0.8-0.7-1.5-1.6-1.7c-2.1-0.5-4.5-0.1-6.5,0.6c-1.7,0.6-3.8,1.6-3.9,3.6
								C316.6,118.1,317.1,118.5,317.6,118.7L317.6,118.7z"/>
						</g>
					</g>
				</g>
			</g>
			<g>
				<g>
					<g>
						<g>
							<path class="st10" d="M362.3,109.6c1.4,0.5,2.7-0.4,4-0.8c1.6-0.4,3.1-0.3,4.7-0.4c0.6,0,1.3-0.6,1.5-1.1
								c0.1-0.3,0.1-0.6,0.1-1c0-0.6-0.6-1.3-1.1-1.5c-2-0.6-4-0.5-6,0.1c-1.6,0.4-4,1.4-4.1,3.2
								C361.5,108.8,361.8,109.4,362.3,109.6L362.3,109.6z"/>
						</g>
					</g>
				</g>
			</g>
			<g>
				<g>
					<g>
						<g>
							<path class="st10" d="M353.4,133c3.1,0,3.1-4.3,0-4.3C350.3,128.7,350.3,133,353.4,133L353.4,133z"/>
						</g>
					</g>
				</g>
			</g>
			<g>
				<g>
					<path class="st11" d="M321.2,143.2c-5.3,0.1-11,2.5-13.2,6c-1.2,1.9-1.5,4.6-0.1,6.4c0.9,1.3,2.5,2,4.1,2.5
						c4.5,1.4,9.5,1.2,13.9-0.6c1.5-0.6,2.9-1.4,4-2.5c1.1-1.2,1.8-2.7,1.7-4.3C331.1,145.2,326.4,143.1,321.2,143.2z"/>
				</g>
			</g>
			<g>
				<g>
					<path class="st11" d="M384.3,130.8c-5.2,0.9-10.5,4.1-12.2,7.8c-0.9,2.1-0.8,4.7,0.8,6.4c1.1,1.2,2.8,1.7,4.4,1.9
						c4.7,0.7,9.6-0.2,13.6-2.6c1.4-0.8,2.7-1.8,3.6-3.1c0.9-1.3,1.4-3,1.1-4.5C394.5,131.4,389.5,130,384.3,130.8z"/>
				</g>
			</g>
			<g>
				<g>
					<path class="st10" d="M350.8,150.2c-6.6,0-9.3-4.7-9.4-5c-0.3-0.6-0.1-1.3,0.5-1.6c0.6-0.3,1.3-0.1,1.6,0.5
						c0.1,0.2,2.8,4.8,9.7,3.5c6.9-1.3,7.6-5.8,7.6-6c0.1-0.7,0.7-1.1,1.4-1c0.7,0.1,1.1,0.7,1,1.3c0,0.3-0.9,6.4-9.6,8
						C352.6,150.2,351.7,150.2,350.8,150.2z"/>
				</g>
			</g>
		</g>
	</g>
	<g>
		<g>
			<path class="st12" d="M393.3,226.6c0.3-11.5,5.3-28.7,17.5-38c13-9.9,30.3-6.5,42.3-1.4c11.1,4.7,23.4,14.3,25.4,31.3
				c1.8,15.2-7.9,35-20.5,39.9c2.8,7.9,2.4,23.4,2.4,23.4c-0.9,13.1-2.3,19.2-7.7,27.2c-5.8,8.6-12.5,13.7-22.2,17.9
				c-6.4,2.7-16.4,4.3-23.3,3.5c-7.7-0.9-20.5-3.8-29.7-9.9c-13.4-8.9-16.6-15.1-21.6-24.8c-4.3-8.3-6-18.7-5.1-27.9
				c1.1-11,9.2-23.5,18.2-29.8C376.4,232.8,383,229.1,393.3,226.6z"/>
		</g>
		<g>
			<polygon class="st13" points="393.7,277.7 475.6,124.9 493.2,133.9 414.5,288.4 			"/>
		</g>
		<g>
			<path class="st14" d="M435.3,217.3c-5.5-1.5-11-1.3-15.1,1.1c-2.1,1.3-3.9,3.1-5.2,5.1c-3,4.4-4.1,10.1-2.7,15.4
				c1.4,5.3,5.4,10,10.6,12.1c8.7,3.5,19.2-1.1,23.2-9c2-4,2.2-9.3,0.8-13.7S441,218.9,435.3,217.3z"/>
		</g>
		<g>
			<path class="st15" d="M399.1,279.2c-0.1,0-0.3,0-0.4-0.1c-0.4-0.2-0.5-0.7-0.3-1.1l81.5-153.2c0.2-0.4,0.7-0.5,1.1-0.3
				c0.4,0.2,0.5,0.7,0.3,1.1l-81.5,153.2C399.7,279,399.4,279.2,399.1,279.2z"/>
		</g>
		<g>
			<path class="st15" d="M404.7,282.4c-0.1,0-0.3,0-0.4-0.1c-0.4-0.2-0.5-0.7-0.3-1.1l80.8-154.4c0.2-0.4,0.7-0.5,1.1-0.3
				c0.4,0.2,0.5,0.7,0.3,1.1L405.4,282C405.3,282.2,405,282.4,404.7,282.4z"/>
		</g>
		<g>
			<path class="st15" d="M410.6,284.9c-0.1,0-0.3,0-0.4-0.1c-0.4-0.2-0.5-0.7-0.3-1.1l79.8-154.2c0.2-0.4,0.7-0.5,1.1-0.3
				c0.4,0.2,0.5,0.7,0.3,1.1l-79.8,154.2C411.2,284.8,410.9,284.9,410.6,284.9z"/>
		</g>
		<g>
			<path class="st16" d="M517.1,119.1c0-0.9,0.2-1.6,0.7-2.4l-7.8-5l1.6-2.5l7.9,5c0.3-0.4,0.6-0.8,0.8-1c0.4-0.4,1.1-0.8,1.5-0.7
				c0.4,0.1,0.9,0.4,0.9,0.9c0.2,0.9-0.3,1.9-0.6,2.5c-0.5,1.2-1,1.8-1.8,2.8c-0.2,0.2-0.6,0.7-0.9,0.9c-0.5,0.3-0.9,0.5-1.3,0.5
				C517.6,120,517.1,119.7,517.1,119.1z"/>
		</g>
		<g>
			<path class="st16" d="M511.2,128.3c0-0.9,0.2-1.6,0.7-2.4l-7.8-5l1.6-2.5l7.9,5c0.3-0.4,0.6-0.8,0.8-1c0.4-0.4,1.1-0.8,1.5-0.7
				c0.4,0.1,0.9,0.4,0.9,0.9c0.2,0.9-0.3,1.9-0.6,2.5c-0.5,1.2-1,1.8-1.8,2.8c-0.2,0.2-0.6,0.7-0.9,0.9c-0.5,0.3-0.9,0.5-1.3,0.5
				C511.8,129.3,511.3,128.9,511.2,128.3z"/>
		</g>
		<g>
			<path class="st16" d="M505.6,137.3c0-0.9,0.2-1.6,0.7-2.4l-7.8-5l1.6-2.5l7.9,5c0.3-0.4,0.6-0.8,0.8-1c0.4-0.4,1.1-0.8,1.5-0.7
				c0.4,0.1,0.9,0.4,0.9,0.9c0.2,0.9-0.3,1.9-0.6,2.5c-0.5,1.2-1,1.8-1.8,2.8c-0.2,0.2-0.6,0.7-0.9,0.9c-0.5,0.3-0.9,0.5-1.3,0.5
				C506.1,138.3,505.6,137.9,505.6,137.3z"/>
		</g>
		<g>
			<path class="st16" d="M467.5,109.6c0.2,0.8,0.1,1.6-0.3,2.5l8.5,3.7l-1.2,2.8l-8.5-3.7c-0.2,0.4-0.4,0.8-0.7,1.2
				c-0.3,0.5-1,0.9-1.4,0.9c-0.4,0-0.9-0.3-1-0.7c-0.3-0.9,0-1.9,0.2-2.6c0.4-1.2,0.7-2,1.3-3c0.2-0.3,0.5-0.8,0.8-1
				c0.4-0.4,0.8-0.6,1.2-0.7C466.8,108.8,467.4,109.1,467.5,109.6z"/>
		</g>
		<g>
			<path class="st16" d="M471.8,99.6c0.2,0.8,0.1,1.6-0.3,2.5l8.5,3.7l-1.2,2.8l-8.5-3.7c-0.2,0.4-0.4,0.8-0.7,1.2
				c-0.3,0.5-1,0.9-1.4,0.9c-0.4,0-0.9-0.3-1-0.7c-0.3-0.9,0-1.9,0.2-2.6c0.4-1.2,0.7-2,1.3-3c0.2-0.3,0.5-0.8,0.8-1
				c0.4-0.4,0.8-0.6,1.2-0.7C471.1,98.8,471.7,99,471.8,99.6z"/>
		</g>
		<g>
			<path class="st16" d="M476,89.8c0.2,0.8,0.1,1.6-0.3,2.5l8.5,3.7l-1.2,2.8l-8.5-3.7c-0.2,0.4-0.4,0.8-0.7,1.2
				c-0.3,0.5-1,0.9-1.4,0.9c-0.4,0-0.9-0.3-1-0.7c-0.3-0.9,0-1.9,0.2-2.6c0.4-1.2,0.7-2,1.3-3c0.2-0.3,0.5-0.8,0.8-1
				c0.4-0.4,0.8-0.6,1.2-0.7C475.3,89,475.9,89.3,476,89.8z"/>
		</g>
		<g>
			<path class="st12" d="M493,139.2c-1.7-0.1-10.5-4.6-10.5-4.6s-8-4-10.9-5.6c-0.7-0.4-1.3-1-1.5-1.8c-0.3-0.9,0.1-1.7,0.6-3
				c1.1-2.7,6.9-16.8,6.9-16.8l7.5-16.9c0,0,1.2-2,2.8-2.7c1.7-0.7,2.6-0.6,4.3,0c2.3,0.9,16.2,7.9,21.3,10.7
				c1.1,0.6,2.6,1.8,3.2,3.7c0.7,2.1-0.7,3.9-0.7,3.9s-5.8,8.8-9.9,15.4c-3.5,5.5-10.4,16-10.4,16S494.4,139.3,493,139.2z"/>
		</g>
		<g>
			<path class="st14" d="M387.7,267.1c13.1,6.6,26.2,14.1,38.4,20.2c-0.5,0.4-3.7,6.8-3.9,7c-11.1-5.6-38.6-19.6-38.6-19.6
				S387.7,267,387.7,267.1z"/>
		</g>
	</g>
	<g>
		<g>
			<path class="st3" d="M391.9,260.4c10.6,8.1,25.7,2.4,34.4-8.5c1.5-1.9,2.8-4.1,3.4-6.5c0.7-3,0.3-6-0.1-9
				c-1.5-10.2-3.9-21.9-13-26.4c-5.3-2.6-11.7-2.1-17.7-1c-5.4,0.9-10.8,2.3-15.4,5.3c-4.6,3.1-6.2,9.9-6.1,15.3
				c0.1,5.6,1.7,12.3,5.7,19.5C382.8,249.1,387.3,256.9,391.9,260.4z"/>
		</g>
		<g>
			<path class="st5" d="M347,216.7l45.7-6.7l11.4,54.9c0,0-22.1,4.7-53.4,11.4c-26.6,5.6-52.7-4.6-59-31c-1.2-5.1-4.9-25.5-5.4-28.9
				c-3.4-22.3,18.4-35.3,18.7-35.4C337.2,173.8,347,216.7,347,216.7z"/>
		</g>
		<g>
			<path class="st7" d="M347.5,218.8c-0.4,0-0.9-0.2-1.2-1c-0.1-0.1-0.1-0.4-0.2-0.6c-3.1-8.6-6-15.2-8.5-19.6
				c-4.2-7.3-13-15.2-22.6-15.3c-0.7,0-1.2-0.5-1.2-1.2c0-0.7,0.5-1.2,1.2-1.2c0,0,0,0,0,0c10.5,0,20.1,8.6,24.6,16.5
				c2.6,4.6,5.6,11.3,8.7,20c0.1,0.3,0.2,0.5,0.2,0.7c0,0.1,0.1,0.2,0.1,0.3c0.2,0.7-0.3,1.3-0.8,1.5
				C347.7,218.8,347.6,218.8,347.5,218.8z M346.3,217.9C346.3,217.9,346.3,217.9,346.3,217.9C346.3,217.9,346.3,217.9,346.3,217.9z"
				/>
		</g>
		<g>
			<path class="st7" d="M362.9,216.2c-0.7,0-1.1-0.3-1.3-0.9c-0.2-0.6,0.2-1.2,0.8-1.5c0.2-0.1,0.3-0.1,0.5-0.1
				c1.8-0.3,18-3.2,28.8-5.2c0.7-0.1,1.3,0.3,1.4,1c0.1,0.7-0.3,1.3-1,1.4c-0.1,0-7.4,1.4-14.5,2.7c-4.2,0.8-7.6,1.4-10,1.8
				c-1.4,0.2-2.5,0.4-3.3,0.6c-0.4,0.1-0.7,0.1-1,0.2C363.2,216.1,363,216.2,362.9,216.2z"/>
		</g>
		<g>
			<path class="st7" d="M332.9,278.7c-12.9,0-21.7-5.7-24.4-7.6c-8.7-6.4-15.5-16-17.8-25.2c-0.2-0.6,0.2-1.3,0.9-1.5
				c0.6-0.2,1.3,0.2,1.5,0.9c2.2,8.7,8.7,17.8,16.9,23.9c2.9,2.1,13.4,8.8,28.7,6.8c0.7-0.1,1.3,0.4,1.4,1c0.1,0.7-0.4,1.3-1,1.4
				C336.8,278.6,334.8,278.7,332.9,278.7z"/>
		</g>
		<g>
			<path class="st7" d="M349,277.3c-0.6,0-1.1-0.4-1.2-1c-0.1-0.7,0.3-1.3,1-1.4c23.6-4.3,53-9.8,54.9-10.3c0.6-0.2,1.3,0,1.5,0.6
				c0.2,0.3,0.1,0.7,0,1.1c-0.3,0.5-0.4,0.6-2.3,0.9c-0.9,0.2-2.3,0.5-4,0.8c-3.3,0.6-8,1.5-13.6,2.6c-11.2,2.1-25,4.7-36,6.7
				C349.1,277.3,349,277.3,349,277.3z"/>
		</g>
	</g>
</g>
</svg>
