<?xml version="1.0" encoding="utf-8"?>
<!-- Generator: Adobe Illustrator 27.7.0, SVG Export Plug-In . SVG Version: 6.00 Build 0)  -->
<svg version="1.1" id="레이어_1" xmlns="http://www.w3.org/2000/svg" xmlns:xlink="http://www.w3.org/1999/xlink" x="0px"
	 y="0px" viewBox="0 0 800 500" style="enable-background:new 0 0 800 500;" xml:space="preserve">
<style type="text/css">
	.st0{fill:#FAD5C5;}
	.st1{fill:#FFB8AE;}
	.st2{fill:#FF9673;}
	.st3{fill:#FF6F5A;}
	.st4{fill:#6C482D;}
	.st5{fill:#F57F6D;}
	.st6{fill:#5C3416;}
	.st7{fill:#4C351B;}
	.st8{fill:#FF9788;}
	.st9{fill:#FCEA21;}
	.st10{fill:#D45B48;}
	.st11{fill:#F0C424;}
</style>
<g>
	<path class="st0" d="M523.5,436.6c-62.9-6.4-107.3-6.6-169.6-4.9c-12,0.3-40.6,1.3-54.5,4.6c-11.2,2.7-41.2,7.8-31.2,21.8
		c10,14.1,70.5,15.8,89.1,17c54.1,3.8,114.8,4.6,191.8,1.3c18.6-0.8,34.3-5.7,35.2-14.7c0.8-7.8-6.1-12.2-21.7-18.1
		C552.6,439.9,537,438,523.5,436.6z"/>
</g>
<g>
	<g>
		<g>
			<g>
				<path class="st1" d="M435,251.1c53.4,46.8,127.4,114,127.4,114l-35.3,40.5c0,0-70.1-59.4-131.9-109L435,251.1z"/>
			</g>
		</g>
		<g>
			<g>
				<path class="st2" d="M551.6,355c0,0,19.3-9.1,28-10.9c1.1-0.2,3.9-0.7,5.8,0.7c1.8,1.3,3.2,4.3,1,7.2
					c-5.8,7.9-16.2,19.3-23.1,27.2c-8.2,9.4-17.3,20.4-26.1,29.2c-1,1-2.1,2.1-3.5,2.1c-1.4,0.1-2.7-0.9-3.8-1.8
					c-3.3-2.6-9.7-8.8-14.2-12.7C526.5,383.9,551.6,355,551.6,355z"/>
			</g>
		</g>
	</g>
	<g>
		<g>
			<g>
				<path class="st1" d="M401.5,280.8c-2.7,71-8.2,170.7-8.2,170.7l-53.7-1.9c0,0,1.9-91.9,1.5-171.1L401.5,280.8z"/>
			</g>
		</g>
		<g>
			<g>
				<path class="st2" d="M394.3,436.8c0,0,19.3,9.2,26.1,14.9c0.9,0.7,3,2.5,3.1,5c0.1,2.2-1.3,5.1-5,5.3
					c-9.8,0.5-25.2-0.4-35.7-0.8c-12.4-0.5-26.8-0.6-39.1-1.9c-1.4-0.1-2.9-0.4-3.9-1.4c-1-1.1-1-2.7-1-4.1c0-4.2,0.7-13,0.9-19
					C356.1,435.6,394.3,436.8,394.3,436.8z"/>
			</g>
		</g>
	</g>
	<g>
		<g>
			<path class="st3" d="M322.3,287.5l136.4-26.4c-0.5,0.5-13.8-90-13.8-90l-20.7-19.2l-39.9,7.2l-44.5,9.9c0,0-27.2,10.4-25.1,41.2
				C317.9,255.9,322.3,287.5,322.3,287.5z"/>
		</g>
	</g>
	<g>
		<g>
			<path class="st1" d="M480.3,100.4c4.3-14.5,16.7-23.4,26.2-23.9c5.9-0.3,9.7,1.2,11.8,2.2c2.6,1.2,6.2,4.4,9.1,7.7
				c5.6,6.4,10,12.6,8.3,22.3c-1,5.6-4.9,10.2-8.9,14.2c-3.6,3.6-7.6,7-12.3,8.8c-4.8,1.8-12.1-0.4-16-3.6c-4-3.3-7.1-6.7-12.5-12.5
				C485.8,115.6,478.7,105.8,480.3,100.4z"/>
		</g>
	</g>
	<g>
		<g>
			<path class="st3" d="M487.8,86.6l36.7,38.3c0,0-60.8,62.3-102.2,92.3L381.2,177C381.2,177,453.3,115,487.8,86.6z"/>
		</g>
	</g>
	<g>
		<g>
			<path class="st3" d="M524.5,314.4l-71.6-64.7l-130.9,35.7l0.6,93.8c0,0,46.8,6.9,107-8.9C492.5,353.8,524.5,314.4,524.5,314.4z"
				/>
		</g>
	</g>
	<g>
		<g>
			<g>
				<path class="st4" d="M280.1,115.8c0,0,16.3,61.5-12.4,64.1c0,0,5.8,14.4,29.7,13.2c23.9-1.2,49.8-22.1,49.8-22.1L280.1,115.8z"
					/>
			</g>
		</g>
		<g>
			<g>
				<path class="st4" d="M441,89c0,0,14.6,50.4,36,32.4c0,0,2.7,20.2-20.5,31.6c-21.4,10.6-42.7,5.9-42.7,5.9l8.4-62.1L441,89z"/>
			</g>
		</g>
		<g>
			<g>
				<path class="st1" d="M411.5,163.5l-3.1-16.7l-45.1,8.1l0.9,0.5l2.7,16.9c0.7,5.7,8,10.4,13.6,12.5c8.3,3.1,18.6,1.4,24.5-4.1
					C409.1,176.7,412.3,170.7,411.5,163.5z"/>
			</g>
		</g>
		<g>
			<g>
				<path class="st1" d="M409.2,60c5.5,3.8,9.9,9.2,12.5,16.7c1.1,3.1,4.1,9.6,5.4,12.7c3.5,8.7,3.9,17.5,1.7,26.9
					c-0.1,0.6,0,1.3,0.2,1.8c0.3,0.6,0.8,1,1.4,1.4c3.8,3,4.7,8.6,4.4,13.4c-0.4,4.8-3.3,10.4-6.2,14.2
					c-7.7,10.1-19.8,18.8-31.8,23.1c-13.5,4.9-37.8,5.2-50.6,0.8c-13.1-4.4-17.6-8.6-25.9-19.6c-8.3-11-12.6-24.9-12.5-38.6
					c0-12.1,3.6-24.7,12.1-33.3c4.1-4.2,13.8-13.8,19-16.4C357.7,53.8,390.2,47,409.2,60z"/>
			</g>
		</g>
		<g>
			<g>
				<path class="st4" d="M333.4,129.5c-6.4,2-10,9-7.3,18.8c0,0,2.6,16,20.4,22.9c0,0-3.9,1.3-8.1,0.5c-12.3-2.5-19.8-6.5-28.6-11.5
					c-5.6-3.2-11.5-9.5-15.3-14.7c-14-19.3-16.7-33.2-15.2-50.5c1.9-22.3,13-45,32.8-55.4c10.6-5.6,24.2-8.4,37.4-6
					c4.8-7.3,21.7-11.6,33.8-10.7c12.1,1,27.4,9.2,37,16.6c12.1,9.3,19.8,25.6,21.4,35.6c1.2,7.6,1.3,17.3-1.4,26
					c-2,6.5-8.7,18-11.4,16.9c-1.7-0.7-1-6.2-1.3-10.1c0,0,0.2-11.3-1.4-14.9c-0.6-1.3-4.3-1.8-9-1.9c-15.7-0.3-27.6-4.8-38.2-19
					c0,0-6.2,24.1-30.6,32.3l-15.3,4C333.1,108.4,335.2,129.3,333.4,129.5z"/>
			</g>
		</g>
		<g>
			<g>
				<g>
					<path class="st1" d="M342.5,142.4c2.1,5.1-1.6,11.3-6.8,13.2c-5.2,1.8-11.2,0-15.4-3.5c-6.4-5.3-9.3-15.3-5-22.4
						c4.3-7.1,16.5-8.2,20.8-1.1L342.5,142.4z"/>
				</g>
			</g>
		</g>
		<g>
			<g>
				<g>
					<path class="st5" d="M321.9,143c0.1,0,0.2-0.1,0.3-0.1c0.1,0,0.3-0.1,0.1,0c0.2-0.1,0.4-0.2,0.6-0.2c0.4-0.2,0.9-0.3,1.3-0.4
						c0.2,0,0.4-0.1,0.6-0.1c0.1,0,0.2,0,0.3-0.1c0,0,0.1,0,0.2,0c-0.1,0-0.2,0,0,0c0.4-0.1,0.9-0.1,1.3-0.1c0.5,0,0.9,0,1.4,0
						c0.2,0,0.4,0,0.6,0.1c0.2,0-0.1,0-0.1,0c0,0,0.1,0,0.2,0c0.1,0,0.2,0,0.4,0.1c0.9,0.2,1.7,0.4,2.6,0.8c0.1,0.1-0.1,0-0.1,0
						c0,0,0.1,0,0.1,0.1c0.1,0,0.2,0.1,0.3,0.1c0.2,0.1,0.4,0.2,0.6,0.3c0.3,0.2,0.6,0.4,1,0.4c0.5,0,1-0.3,1.3-0.8
						c0.6-1.5-1.5-2.2-2.5-2.7c-1.7-0.7-3.6-1.1-5.5-1.1c-2.2,0-4.4,0.5-6.4,1.5c-0.6,0.3-0.8,1.3-0.5,1.8
						C320.5,143.2,321.2,143.3,321.9,143L321.9,143z"/>
				</g>
			</g>
		</g>
		<g>
			<g>
				<path class="st6" d="M345.9,106.7c-0.5,0-0.9-0.3-1-0.8c-0.1-0.6,0.2-1.2,0.8-1.3c10.1-2.7,18.8-9.1,23.9-17.6
					c5.7-9.6,8-16.5,8-24.1c0-0.6,0.5-1.1,1.1-1.1c0,0,0,0,0,0c0.6,0,1.1,0.5,1.1,1.1c0,9.9-4.2,18.2-8.3,25.1
					c-5.3,9-14.5,15.7-25.2,18.5C346.1,106.7,346,106.7,345.9,106.7z"/>
			</g>
		</g>
		<g>
			<g>
				<path class="st6" d="M328.7,102c-0.4,0-0.8-0.2-1-0.6c-0.2-0.5,0-1.2,0.5-1.4c13.4-5.9,24-17.7,28.4-31.6
					c0.2-0.6,0.8-0.9,1.3-0.7c0.6,0.2,0.9,0.8,0.7,1.3c-4.6,14.5-15.6,26.8-29.6,32.9C329,101.9,328.9,102,328.7,102z"/>
			</g>
		</g>
		<g>
			<g>
				<path class="st6" d="M426.6,81.9c-2.7,0-5.4-0.2-8.1-0.7c-10.7-1.8-20.6-7.1-28-15c-0.4-0.4-0.4-1.1,0-1.5
					c0.4-0.4,1.1-0.4,1.5,0c7.1,7.5,16.6,12.6,26.8,14.4c3.6,0.6,7.3,0.8,10.8,0.5c0.6,0,1.1,0.4,1.1,1c0,0.6-0.4,1.1-1,1.1
					C428.8,81.9,427.7,81.9,426.6,81.9z"/>
			</g>
		</g>
		<g>
			<g>
				<path class="st6" d="M436.5,72.1c0,0-0.1,0-0.1,0c-11.5-1.6-22.4-6.3-31.4-13.6c-0.5-0.4-0.5-1-0.2-1.5c0.4-0.5,1-0.5,1.5-0.2
					c8.7,7.1,19.2,11.6,30.3,13.1c0.6,0.1,1,0.6,0.9,1.2C437.5,71.7,437.1,72.1,436.5,72.1z"/>
			</g>
		</g>
		<g>
			<g>
				<path class="st6" d="M293.2,117.1c-0.5,0-0.9-0.3-1-0.8c-3-11.1-2.7-23.1,0.8-34.6c3.5-11.5,10-21.6,18.6-29.2
					c0.4-0.4,1.1-0.3,1.5,0.1c0.4,0.4,0.3,1.1-0.1,1.5C296,69,288.4,93.8,294.3,115.7c0.2,0.6-0.2,1.2-0.8,1.3
					C293.4,117,293.3,117.1,293.2,117.1z"/>
			</g>
		</g>
		<g>
			<g>
				<path class="st6" d="M288.9,178.4c-0.3,0-0.6-0.1-0.8-0.4c-0.4-0.4-0.4-1.1,0.1-1.5c7.4-6.6,11.1-17.2,9.5-26.9
					c-0.1-0.6,0.3-1.1,0.9-1.2c0.6-0.1,1.1,0.3,1.2,0.9c1.7,10.5-2.3,21.8-10.2,28.9C289.4,178.3,289.2,178.4,288.9,178.4z"/>
			</g>
		</g>
		<g>
			<g>
				<path class="st6" d="M301.9,180c-0.3,0-0.5-0.1-0.7-0.3c-0.4-0.4-0.4-1.1,0-1.5c3.4-3.6,6-8,7.4-12.8c0.2-0.6,0.8-0.9,1.3-0.7
					c0.6,0.2,0.9,0.8,0.7,1.3c-1.5,5.1-4.3,9.8-7.9,13.6C302.4,179.9,302.1,180,301.9,180z"/>
			</g>
		</g>
		<g>
			<g>
				<path class="st6" d="M459.9,135.8c-3.3,0-6.7-1.4-9.7-4c-2.9-2.5-5-5.6-7.1-8.7c-0.3-0.5-0.2-1.1,0.3-1.5
					c0.5-0.3,1.1-0.2,1.5,0.3c2,2.9,4,6,6.7,8.3c2.9,2.5,6.2,3.7,9.2,3.4c0.6-0.1,1.1,0.4,1.2,1c0.1,0.6-0.4,1.1-1,1.2
					C460.7,135.8,460.3,135.8,459.9,135.8z"/>
			</g>
		</g>
		<g>
			<g>
				<g>
					<path class="st7" d="M355.9,127.1c0.4,1.7,2,3.8,5,4.4c3.2,0.6,5-1,5.8-2.8c1.4-2.3,1-5.2-1.2-7.7c-0.8-0.9-2.1-1.9-3.7-2
						c-1.8-0.2-3,0.6-3.8,1.5C356.1,122.3,355.4,124.7,355.9,127.1z"/>
				</g>
			</g>
			<g>
				<g>
					<path class="st7" d="M400.1,118.8c0.4,1.7,2,3.8,5,4.4c3.2,0.6,5-1,5.8-2.8c1.4-2.3,1-5.2-1.2-7.7c-0.8-0.9-2.1-1.9-3.7-2
						c-1.8-0.2-3,0.6-3.8,1.5C400.3,114.1,399.5,116.4,400.1,118.8z"/>
				</g>
			</g>
			<g>
				<g>
					<g>
						<g>
							<path class="st7" d="M353.9,112.5c1.4,0.4,2.8-0.6,4.1-1c1.6-0.5,3.1-0.5,4.8-0.6c0.6,0,1.4-0.4,1.6-1
								c0.1-0.3,0.2-0.6,0.2-0.9c0-0.8-0.7-1.5-1.6-1.7c-2.1-0.5-4.5-0.1-6.4,0.6c-1.7,0.6-3.8,1.6-3.8,3.5
								C352.9,111.9,353.4,112.3,353.9,112.5L353.9,112.5z"/>
						</g>
					</g>
				</g>
			</g>
			<g>
				<g>
					<g>
						<g>
							<path class="st7" d="M398.2,103.4c1.4,0.5,2.6-0.4,4-0.8c1.6-0.4,3.1-0.3,4.7-0.4c0.6,0,1.2-0.6,1.4-1.1
								c0.1-0.3,0.1-0.6,0.1-0.9c0-0.6-0.6-1.3-1.1-1.4c-1.9-0.6-4-0.5-5.9,0.1c-1.5,0.4-3.9,1.4-4,3.2
								C397.5,102.7,397.7,103.2,398.2,103.4L398.2,103.4z"/>
						</g>
					</g>
				</g>
			</g>
			<g>
				<g>
					<g>
						<g>
							<path class="st7" d="M389.4,126.7c3.1,0,3.1-4.3,0-4.3C386.4,122.4,386.4,126.7,389.4,126.7L389.4,126.7z"/>
						</g>
					</g>
				</g>
			</g>
			<g>
				<g>
					<path class="st8" d="M357.4,136.8c-5.2,0.1-10.9,2.5-13.1,6c-1.2,1.9-1.4,4.5-0.1,6.4c0.9,1.3,2.5,2,4,2.5
						c4.5,1.4,9.4,1.2,13.8-0.6c1.5-0.6,2.9-1.4,4-2.5c1.1-1.2,1.8-2.7,1.7-4.3C367.3,138.8,362.6,136.7,357.4,136.8z"/>
				</g>
			</g>
			<g>
				<g>
					<path class="st8" d="M420.1,124.5c-5.1,0.9-10.4,4-12.1,7.8c-0.9,2.1-0.8,4.7,0.8,6.3c1.1,1.2,2.8,1.6,4.4,1.9
						c4.6,0.7,9.5-0.2,13.5-2.5c1.4-0.8,2.7-1.8,3.6-3.1c0.9-1.3,1.4-2.9,1.1-4.5C430.2,125.1,425.2,123.7,420.1,124.5z"/>
				</g>
			</g>
		</g>
	</g>
	<g>
		<g>
			<path class="st9" d="M564.2,248.4c-2-0.7-8.4-3.8-8.4-3.8s-319.4-136.7-325.2-139c-20.5-8.2-34.8,21.9-10.3,34
				c4.1,2,11.2,4.9,11.2,4.9l-4.3,9.8c0,0-8.7-4-14.4-6.5c-33-14.4-13.9-65.4,19-53.5c8.5,3,327.3,142.3,327.3,142.3l0,0
				c0,0,4.8,2.2,6.5,2.9c13.5,5.5,21-11.6,9.7-17.2c-1.8-0.9-6.1-2.7-6.3-2.8c0,0,0,0,0,0l-177.2-75.3l1.9-9l178.6,75.8l0,0
				c0,0,7.4,3.5,9.1,4.4C599.7,225,586.6,256.6,564.2,248.4z"/>
		</g>
	</g>
	<g>
		<g>
			<path class="st7" d="M385.9,146.3c-0.3,0-0.5,0-0.7,0c-0.7-0.1-1.1-0.6-1.1-1.3c0.1-0.7,0.6-1.1,1.3-1.1c0.2,0,5.3,0.4,6.8-3.9
				c1.5-4.2-2.1-6.5-2.3-6.6c-0.6-0.3-0.7-1.1-0.4-1.6c0.3-0.6,1.1-0.7,1.6-0.4c1.9,1.1,5,4.6,3.3,9.5
				C392.8,145.1,388.5,146.3,385.9,146.3z"/>
		</g>
	</g>
	<g>
		<g>
			<path class="st1" d="M437.7,237.5c10.3,8.4,25.4,3.2,34.4-7.3c1.6-1.9,3-4,3.6-6.4c0.8-2.9,0.5-6,0.2-8.9
				c-1.1-10.2-3.2-21.9-12.1-26.7c-5.2-2.8-11.6-2.4-17.5-1.6c-5.3,0.8-10.8,1.9-15.5,4.8c-4.7,2.9-6.5,9.7-6.6,14.9
				c-0.1,5.6,1.3,12.2,5,19.5C429.1,226,433.3,233.8,437.7,237.5z"/>
		</g>
	</g>
	<g>
		<g>
			<path class="st3" d="M379.8,202.6l57.7-14.3l16.3,53.2c0,0-34.5,10.2-64.9,19.6c-25.7,8-52.5,0.3-61.1-25.2
				c-1.7-4.9-7.3-24.8-8-28c-5.9-25.5,15.8-35.7,16.1-35.8C366.1,161.2,379.8,202.6,379.8,202.6z"/>
		</g>
	</g>
	<g>
		<g>
			<path class="st10" d="M380.3,204.6c-0.4,0-0.8-0.2-1.2-0.9c-0.1-0.1-0.2-0.3-0.3-0.6c-3.9-8.2-7.3-14.5-10.3-18.6
				c-4.8-6.8-14.3-13.8-23.7-13c-0.7,0.1-1.2-0.4-1.3-1.1c-0.1-0.7,0.4-1.2,1.1-1.3c10.3-0.9,20.7,6.6,25.9,14
				c3,4.3,6.5,10.7,10.5,19c0.1,0.3,0.2,0.5,0.3,0.6c0.1,0.1,0.1,0.2,0.1,0.3c0.3,0.7-0.2,1.3-0.7,1.5
				C380.7,204.6,380.5,204.6,380.3,204.6z M379.2,203.8C379.2,203.8,379.2,203.8,379.2,203.8C379.2,203.8,379.2,203.8,379.2,203.8z"
				/>
		</g>
	</g>
	<g>
		<g>
			<path class="st10" d="M395.2,200.6c-0.4,0-0.9-0.2-1.1-0.8c-0.2-0.6,0.1-1.2,0.6-1.5c0.1-0.1,0.3-0.1,0.4-0.1
				c2.1-0.4,25.7-6.6,41.4-10.7c0.6-0.2,1.3,0.2,1.5,0.9c0.2,0.6-0.2,1.3-0.9,1.5c-0.1,0-10.5,2.8-20.8,5.5
				c-6,1.6-10.9,2.8-14.3,3.7c-2.1,0.5-3.6,0.9-4.7,1.2c-0.6,0.1-1,0.3-1.3,0.3C395.8,200.5,395.5,200.6,395.2,200.6z"/>
		</g>
	</g>
	<g>
		<g>
			<path class="st10" d="M367.5,265.3c-10.7,0-18.3-4-20.8-5.5c-9.2-5.5-16.8-14.4-19.9-23.3c-0.2-0.6,0.1-1.3,0.7-1.5
				c0.6-0.2,1.3,0.1,1.5,0.7c3,8.4,10.2,16.8,18.9,22c3,1.8,14.1,7.5,29,4c0.6-0.1,1.3,0.3,1.4,0.9c0.1,0.6-0.3,1.3-0.9,1.4
				C373.9,265,370.6,265.3,367.5,265.3z"/>
		</g>
	</g>
	<g>
		<g>
			<path class="st10" d="M387.2,262.2c-0.5,0-1-0.4-1.2-0.9c-0.1-0.6,0.3-1.3,0.9-1.4c19.6-4.5,40-10.6,66.3-19.8
				c0.6-0.2,1.3,0.1,1.5,0.7c0.2,0.6-0.1,1.3-0.7,1.5c-26.4,9.3-46.9,15.4-66.6,19.9C387.3,262.2,387.2,262.2,387.2,262.2z"/>
		</g>
	</g>
	<g>
		<g>
			<g>
				<polygon class="st9" points="229.4,143.5 469.3,249.2 464.8,260.5 226.3,153.8 				"/>
			</g>
		</g>
		<g>
			<g>
				<path class="st9" d="M414.6,237.1c0,0,43.9,23.8,67.4,71.1l36.8-64.8c0,0-51-1.5-100.5-15.8L414.6,237.1z"/>
			</g>
		</g>
		<g>
			<g>
				<path class="st11" d="M484.1,309.6c-6.1-7.2-6.4-23.7,3-42c9.9-19.4,23.3-25.6,29.4-24.9c14.4,1.6,21.5,17.3,7.8,44.4
					C513.5,308.4,494.9,322.3,484.1,309.6z"/>
			</g>
		</g>
	</g>
</g>
</svg>
