<?xml version="1.0" encoding="utf-8"?>
<!-- Generator: Adobe Illustrator 27.7.0, SVG Export Plug-In . SVG Version: 6.00 Build 0)  -->
<svg version="1.1" id="레이어_1" xmlns="http://www.w3.org/2000/svg" xmlns:xlink="http://www.w3.org/1999/xlink" x="0px"
	 y="0px" viewBox="0 0 800 500" style="enable-background:new 0 0 800 500;" xml:space="preserve">
<g>
	<g>
		<path d="M220.8,391.1c-12.5,1.3-23.8,5.6-29.8,15.4c-6,9.8-6.5,16.8-4.3,27.4c1.1,5.5,5.3,12.8,13.8,17.5c8.7,4.8,15.2,6,24.2,4.7
			c14.9-2.2,24-9.6,28.8-21.5c3.6-8.9,2.6-22.1-3.6-30.1C241.5,393.7,229.7,390.2,220.8,391.1z"/>
	</g>
	<g>
		<rect x="244.4" y="264.8" width="11.1" height="162"/>
	</g>
</g>
<g>
	<g>
		<path d="M460.3,198.3c-17,1.7-32.3,7.6-40.5,20.9c-8.2,13.3-8.8,22.8-5.9,37.2c1.5,7.5,7.2,17.4,18.8,23.8
			c11.9,6.5,20.7,8.2,32.9,6.4c20.3-3,32.6-13,39.2-29.2c4.9-12.1,3.5-30-4.9-41C488.6,201.9,472.5,197.1,460.3,198.3z"/>
	</g>
	<g>
		<rect x="492.5" y="26.5" width="15.1" height="220.4"/>
	</g>
	<g>
		<path d="M508.5,26.5c0,0,76.9,0.7,113.7,51.1c23.3,31.9,25.8,71.8,26.7,90.2c0.3,7.4-10.7,8.6-12.9,1.7
			c-12.2-39.1-34.7-85.4-130.5-80.3L508.5,26.5z"/>
	</g>
</g>
</svg>
