<?xml version="1.0" encoding="utf-8"?>
<!-- Generator: Adobe Illustrator 27.7.0, SVG Export Plug-In . SVG Version: 6.00 Build 0)  -->
<svg version="1.1" id="레이어_1" xmlns="http://www.w3.org/2000/svg" xmlns:xlink="http://www.w3.org/1999/xlink" x="0px"
	 y="0px" viewBox="0 0 800 500" style="enable-background:new 0 0 800 500;" xml:space="preserve">
<g>
	<g>
		<path d="M273.7,339.8c-20.4,2.1-38.9,9.2-48.8,25.2c-9.8,16-10.6,27.4-7.1,44.8c1.9,9.1,8.7,21,22.6,28.6
			c14.3,7.8,24.9,9.9,39.6,7.6c24.4-3.7,39.3-15.7,47.1-35.1c5.9-14.6,4.2-36.1-5.9-49.3C307.7,344,288.3,338.3,273.7,339.8z"/>
	</g>
	<g>
		<rect x="312.4" y="116.3" width="18.2" height="281.9"/>
	</g>
	<g>
		<path d="M503.9,282.9c-20.4,2.1-38.9,9.2-48.8,25.2c-9.8,16-10.6,27.4-7.1,44.8c1.9,9.1,8.7,21,22.6,28.6
			c14.3,7.8,24.9,9.9,39.6,7.6c24.4-3.7,39.3-15.7,47.1-35.1c5.9-14.6,4.2-36.1-5.9-49.3C538,287.2,518.5,281.4,503.9,282.9z"/>
	</g>
	<g>
		<rect x="542.7" y="66.5" width="18.2" height="274.9"/>
	</g>
	<g>
		<polygon points="312.4,109.7 312.4,146.2 560.9,97 560.9,60.5 		"/>
	</g>
</g>
</svg>
