<?xml version="1.0" encoding="utf-8"?>
<!-- Generator: Adobe Illustrator 27.7.0, SVG Export Plug-In . SVG Version: 6.00 Build 0)  -->
<svg version="1.1" id="레이어_1" xmlns="http://www.w3.org/2000/svg" xmlns:xlink="http://www.w3.org/1999/xlink" x="0px"
	 y="0px" viewBox="0 0 800 500" style="enable-background:new 0 0 800 500;" xml:space="preserve">
<g>
	<g>
		<path d="M282.6,308.2c-28.3,2.9-54,12.7-67.7,35c-13.7,22.2-14.8,38.1-9.8,62.2c2.6,12.6,12.1,29.1,31.4,39.7
			c19.8,10.8,34.5,13.7,55,10.6c33.8-5.1,54.5-21.8,65.4-48.8c8.2-20.3,5.9-50.1-8.3-68.4C329.8,314.1,302.8,306.2,282.6,308.2z"/>
	</g>
	<g>
		<rect x="336.3" y="21.1" width="25.3" height="368.3"/>
	</g>
	<g>
		<path d="M363.1,21.1c0,0,128.5,1.1,190,85.4c38.8,53.3,43.1,119.9,44.6,150.7c0.6,12.3-17.9,14.3-21.5,2.8
			c-20.4-65.3-58-142.7-218-134.1L363.1,21.1z"/>
	</g>
</g>
</svg>
