<?xml version="1.0" encoding="utf-8"?>
<!-- Generator: Adobe Illustrator 27.7.0, SVG Export Plug-In . SVG Version: 6.00 Build 0)  -->
<svg version="1.1" id="레이어_1" xmlns="http://www.w3.org/2000/svg" xmlns:xlink="http://www.w3.org/1999/xlink" x="0px"
	 y="0px" viewBox="0 0 800 500" style="enable-background:new 0 0 800 500;" xml:space="preserve">
<style type="text/css">
	.st0{fill:#FFC352;}
	.st1{fill:#FFB8AE;}
	.st2{fill:#74C893;}
	.st3{fill:#5DB7CF;}
</style>
<g>
	<g>
		<path class="st0" d="M329.1,39c1.9-3,2.3-10.1-1.7-14.2c-3.3-3.5-6.7-5.2-12.5-4.1c-5.9,2.3-9.6,7-9.9,13.5
			c-0.3,6.6,7.6,12.4,12.3,12.3C323,46.4,326.5,43.2,329.1,39z"/>
	</g>
</g>
<g>
	<g>
		<path class="st1" d="M678.6,441.3c2.8,0,7.7-2.7,8.8-7.1c0.9-3.6,0.7-6.6-2.5-10.1c-4-3-8.7-3.5-13.1-1
			c-4.5,2.6-5.1,10.2-3.1,13.4C671.2,440.4,674.8,441.3,678.6,441.3z"/>
	</g>
</g>
<g>
	<g>
		<path class="st1" d="M91.9,347.9c4.8,0,13.3-4.6,15.3-12.3c1.6-6.3,1.2-11.5-4.3-17.5c-6.9-5.2-15-6.1-22.8-1.7
			c-7.9,4.5-8.9,17.8-5.4,23.2C79,346.3,85.3,347.9,91.9,347.9z"/>
	</g>
</g>
<g>
	<g>
		<path class="st1" d="M427.7,131.7c3.6-3.1,7-12.2,3.6-19.3c-2.9-5.8-6.6-9.5-14.7-10.4c-8.6,0.6-15.4,5.2-18.3,13.6
			c-3,8.6,4.8,19.3,11.1,21.1C416.8,138.9,422.6,136.1,427.7,131.7z"/>
	</g>
</g>
<g>
	<g>
		<path class="st2" d="M178.4,249c-3,0-8.2-2.9-9.5-7.6c-1-3.9-0.8-7.1,2.7-10.8c4.3-3.2,9.3-3.8,14.1-1c4.9,2.8,5.5,11,3.3,14.4
			C186.4,248,182.5,249,178.4,249z"/>
	</g>
</g>
<g>
	<g>
		<path class="st3" d="M302.5,381.5c3-2.5,5.8-10.1,2.6-16.5c-2.6-5.3-5.8-8.8-12.8-10.2c-7.3-0.1-13,3.4-15.4,10.5
			c-2.4,7.2,4.5,17.1,9.9,19.2C293.4,387,298.3,384.9,302.5,381.5z"/>
	</g>
</g>
</svg>
