<?xml version="1.0" encoding="utf-8"?>
<!-- Generator: Adobe Illustrator 27.7.0, SVG Export Plug-In . SVG Version: 6.00 Build 0)  -->
<svg version="1.1" id="레이어_1" xmlns="http://www.w3.org/2000/svg" xmlns:xlink="http://www.w3.org/1999/xlink" x="0px"
	 y="0px" viewBox="0 0 800 500" style="enable-background:new 0 0 800 500;" xml:space="preserve">
<style type="text/css">
	.st0{fill:#FFB439;}
	.st1{fill:#FFB8AE;}
	.st2{fill:#74C893;}
	.st3{fill:#5DB7CF;}
</style>
<g>
	<g>
		<path class="st0" d="M384.7,484.5c4.6,0,12.8-4.5,14.7-11.8c1.6-6,1.2-11.1-4.2-16.8c-6.6-5-14.4-5.9-21.9-1.6
			c-7.6,4.3-8.6,17.1-5.2,22.3C372.3,482.9,378.3,484.5,384.7,484.5z"/>
	</g>
</g>
<g>
	<g>
		<path class="st1" d="M494,320.1c2.5,0,7.1-2.5,8.1-6.5c0.9-3.4,0.7-6.1-2.3-9.3c-3.7-2.8-8-3.2-12.1-0.9
			c-4.2,2.4-4.8,9.5-2.9,12.4C487.1,319.3,490.5,320.1,494,320.1z"/>
	</g>
</g>
<g>
	<g>
		<path class="st2" d="M342.2,95.8c-3.7,0-10.2-3.6-11.7-9.4c-1.3-4.8-0.9-8.8,3.3-13.4c5.3-4,11.5-4.7,17.4-1.3
			c6,3.4,6.8,13.6,4.1,17.8C352.1,94.6,347.2,95.8,342.2,95.8z"/>
	</g>
</g>
<g>
	<g>
		<path class="st3" d="M274.5,397.6c3.3-1.3,7.8-7.4,6.8-13.9c-0.8-5.4-2.7-9.3-8.5-12.5c-6.4-2.1-12.4-0.5-16.4,5.1
			c-4.1,5.7-0.7,16.4,3.5,19.6C264.9,399.9,269.8,399.5,274.5,397.6z"/>
	</g>
</g>
</svg>
