<?xml version="1.0" encoding="utf-8"?>
<!-- Generator: Adobe Illustrator 27.7.0, SVG Export Plug-In . SVG Version: 6.00 Build 0)  -->
<svg version="1.1" id="레이어_1" xmlns="http://www.w3.org/2000/svg" xmlns:xlink="http://www.w3.org/1999/xlink" x="0px"
	 y="0px" viewBox="0 0 500 500" style="enable-background:new 0 0 500 500;" xml:space="preserve">
<style type="text/css">
	.st0{fill:url(#SVGID_1_);}
	.st1{fill:url(#SVGID_00000172438813397247298380000005502488290655734197_);}
	.st2{fill:url(#SVGID_00000145058508070450527790000003914408209850950591_);}
	.st3{fill:#2C3135;}
	.st4{fill:none;stroke:#2C3135;stroke-width:1.5;stroke-linecap:round;stroke-linejoin:round;stroke-miterlimit:10;}
	.st5{fill:#2A2E38;}
	.st6{fill:#FFC9C2;}
	.st7{fill:#4C5057;}
	.st8{fill:none;stroke:#FF9299;stroke-width:1.5;stroke-linecap:round;stroke-linejoin:round;stroke-miterlimit:10;}
	.st9{fill:url(#SVGID_00000066516905108396619150000017575975325768488883_);}
	.st10{fill:url(#SVGID_00000158000488725873133610000007184964391287019149_);}
	.st11{fill:url(#SVGID_00000138531765826937213970000015711291623025186470_);}
	.st12{fill:#72727C;}
	.st13{fill:#FFFFFF;}
	.st14{fill:none;stroke:#909095;stroke-width:1.5;stroke-linecap:round;stroke-linejoin:round;stroke-miterlimit:10;}
	.st15{fill:#4C5057;stroke:#2C3135;stroke-width:1.5;stroke-linecap:round;stroke-linejoin:round;stroke-miterlimit:10;}
	.st16{opacity:0.84;fill:url(#SVGID_00000091712998225832015950000018422064563496842136_);}
	.st17{fill:url(#SVGID_00000098937989830992166470000016605273889192628647_);}
	.st18{fill:#FFBCB7;}
	.st19{fill:#C13F47;}
	.st20{clip-path:url(#SVGID_00000181793952030662070760000013939835726701164672_);fill:#E34B5D;}
	.st21{fill:none;stroke:#2F2429;stroke-width:1.5;stroke-linecap:round;stroke-linejoin:round;stroke-miterlimit:10;}
	.st22{fill:#FF7C88;}
	.st23{fill:#2F2429;}
	.st24{opacity:0.35;fill:url(#SVGID_00000039097597736952606050000006968453297413724604_);}
	.st25{fill:url(#SVGID_00000012443079620345153230000008069359379578481310_);}
	.st26{fill:#DEDBDC;}
	.st27{fill:none;stroke:#FF505D;stroke-width:2;stroke-linecap:round;stroke-linejoin:round;stroke-miterlimit:10;}
	.st28{clip-path:url(#SVGID_00000003792164378224055630000002786782177105830794_);}
	.st29{fill:#DCDCE2;}
</style>
<g>
	<g>
		<g>
			
				<linearGradient id="SVGID_1_" gradientUnits="userSpaceOnUse" x1="259.4969" y1="259.3394" x2="151.5391" y2="221.7772" gradientTransform="matrix(0.9956 9.360000e-02 -9.360000e-02 0.9956 -1.1611 110.4091)">
				<stop  offset="0.4857" style="stop-color:#FFC9C2"/>
				<stop  offset="0.5256" style="stop-color:#FFBFBB"/>
				<stop  offset="0.6402" style="stop-color:#FFA9A9"/>
				<stop  offset="0.7495" style="stop-color:#FF9C9F"/>
				<stop  offset="0.8471" style="stop-color:#FF979B"/>
			</linearGradient>
			<path class="st0" d="M227.4,418.3c-3.3-0.2-6.7-1.3-9.6-3.4l-73-52.3c-8.1-5.8-9.9-17.1-4-25.1c5.8-8.1,17.1-9.9,25.1-4l73,52.3
				c8.1,5.8,9.9,17.1,4,25.1C239.2,416,233.3,418.6,227.4,418.3z"/>
			
				<linearGradient id="SVGID_00000057110739587018388190000010320338179346376599_" gradientUnits="userSpaceOnUse" x1="188.7859" y1="195.2421" x2="188.9894" y2="251.7462" gradientTransform="matrix(0.9956 9.360000e-02 -9.360000e-02 0.9956 -1.1611 110.4091)">
				<stop  offset="0.4031" style="stop-color:#FFC9C2"/>
				<stop  offset="0.8471" style="stop-color:#FF979B"/>
			</linearGradient>
			<path style="fill:url(#SVGID_00000057110739587018388190000010320338179346376599_);" d="M153.8,365.2c-2.2-0.2-4.3-0.8-6.4-1.9
				c-8.9-4.5-12.5-15.3-8-24.2c6.3-12.6,19.3-37.6,26.8-49.6c5.3-8.4,16.4-10.9,24.8-5.6c8.4,5.3,10.9,16.4,5.6,24.8
				c-6.9,11-19.3,35-25.1,46.6C168.1,362.2,161,365.9,153.8,365.2z"/>
		</g>
		
			<linearGradient id="SVGID_00000076566451717593010820000014192244271545654205_" gradientUnits="userSpaceOnUse" x1="278.8126" y1="291.2272" x2="222.4963" y2="242.8187" gradientTransform="matrix(0.9956 9.360000e-02 -9.360000e-02 0.9956 -1.1611 110.4091)">
			<stop  offset="0" style="stop-color:#9C9E9D"/>
			<stop  offset="0.6103" style="stop-color:#FFFFFF"/>
		</linearGradient>
		<path style="fill:url(#SVGID_00000076566451717593010820000014192244271545654205_);" d="M252.9,396.7l-22.4,29.6l-51.3-38.9
			l22.4-29.6C222.1,373,241.8,387.7,252.9,396.7z"/>
		<path class="st3" d="M215.4,411.6l15.9,47.3c3.5,12.1,18.6,17.6,30.6,10.8c0.2-0.1,0.4-0.2,0.6-0.4c0,0,9.1-5.8,5.4-21l-16.2-55.5
			c-0.2-0.8-0.6-1.5-1.2-2c-2-2-6.9-6.3-12-5.2c-0.7,0.1-1.1,0.8-1,1.4l2.4,13c0.3,1.8-1.3,3.5-3.2,3.3
			C229.9,402.9,214.5,403.4,215.4,411.6z"/>
		<line class="st4" x1="186.8" y1="393.2" x2="208.9" y2="364.2"/>
	</g>
	<path class="st5" d="M220,176.4c0,0-13.8,31.8-20.3,52.3c0,0-10.9,36.6,4.3,54.1l96.2-11.2c-19.2-35.9-22.6-59.5-48.4-94.8
		L220,176.4z"/>
	<path class="st6" d="M314.8,91.2c0,0,11.5,2.5,24,4.3c0,0,7.9,22.2-7,29.8l-6.5,10l-23.6-3.8l5.3-23.6
		C307.7,100.1,310.3,94.6,314.8,91.2z"/>
	<path class="st7" d="M244.6,246.5c-5.9-0.6-11.5-3.6-15.2-8.8c-6.6-9.5-4.3-22.5,5.1-29.1c13.1-9.2,27-17.4,41.4-24.3
		c10.4-5,22.9-0.6,27.9,9.8c5,10.4,0.6,22.9-9.8,27.9c-12.4,6-24.3,13-35.6,20.9C254.4,245.8,249.4,247,244.6,246.5z"/>
	<path class="st7" d="M337.8,131.3c-6.1,20.7-22.7,57.8-30.8,77.9c-3.5,8.8-12.4,13.8-21.3,13c-2-0.2-3.9-0.7-5.9-1.4
		c-10.7-4.3-15.9-16.5-11.6-27.2c7.6-18.8,22.5-54.2,29.5-74.1L337.8,131.3z"/>
	<g>
		<g>
			<path class="st6" d="M193.1,200.4c0.5,0.7,1.3,1.1,2.2,1.2c1.9,0.3,3.6-1.1,3.8-2.9l1.4-10.1c0,0,0-0.1,0-0.1l0-0.1
				c0.1-1.1,0.2-2.1,2.3-2.8c1.3-0.4,2.5-0.9,3.7-1.6c1.6-1,4-2.4,6-4.1c1.8-1.4,4.2-4.5,5.2-6.1c1-1.6,0.5-3.7-1.1-4.7
				c-1.6-1-3.7-0.5-4.7,1.1c-0.8,1.3-2.8,3.7-3.7,4.4c-1.8,1.4-3.8,2.7-5.3,3.6c-0.7,0.4-1.4,0.7-2.2,1c-2.9,0.9-6.5,3.1-7.1,8.6
				l0,0l-1.4,10.1C192.3,198.8,192.6,199.7,193.1,200.4z"/>
			<path class="st6" d="M202.9,176.3c0.4,0.5,1,0.9,1.7,1.1c1.8,0.5,3.7-0.5,4.2-2.3c1.1-3.9,2.8-9.2,4-12.6c0.7-1.8-0.2-3.7-2-4.4
				c-1.8-0.7-3.7,0.2-4.4,2c-1.3,3.5-3,9.1-4.2,13.1C201.9,174.3,202.2,175.4,202.9,176.3z"/>
			<path class="st6" d="M197.8,172.5c0.7,0.9,1.9,1.4,3.1,1.3c1.9-0.2,3.2-1.9,3-3.8c-0.2-2-1.1-8.8-2-13.3c-0.3-1.8-2.1-3.1-4-2.7
				c-1.8,0.3-3.1,2.1-2.7,4c0.6,3.4,1.4,8.9,1.9,12.9C197.2,171.5,197.5,172.1,197.8,172.5z"/>
			<path class="st6" d="M191.9,170.9c0.8,1,2.1,1.5,3.4,1.2c1.8-0.4,3-2.2,2.6-4.1c-0.4-1.6-0.9-3.5-1.4-5.4c-0.4-1.6-0.9-3-1.2-4.2
				c-0.4-1.8-2.3-2.9-4.1-2.5c-1.8,0.4-2.9,2.3-2.5,4.1c0.3,1.4,0.8,3,1.2,4.5c0.5,1.8,1,3.6,1.3,5
				C191.4,170,191.6,170.5,191.9,170.9z"/>
			<path class="st6" d="M186.7,172.7c1,1.2,2.7,1.6,4.1,0.9c1.7-0.8,2.4-2.9,1.6-4.6l-2.9-6c-0.8-1.7-2.9-2.4-4.6-1.6
				c-1.7,0.8-2.4,2.9-1.6,4.6l2.9,6C186.4,172.3,186.5,172.5,186.7,172.7z"/>
			<path class="st6" d="M182.1,200C182.1,200,182.2,200,182.1,200c0.7,0.8,1.6,1.2,2.5,1.3l11,0.5c1.9,0.1,3.5-1.4,3.6-3.3
				c0.1-1.9-1.4-3.5-3.3-3.6l-7.3-0.3L190,183c0-0.4,0-0.7,0-1.1c-0.7-3.2-0.1-6.6,1.5-8.1c1.3-1.3,1.4-3.5,0-4.8
				c-1.3-1.3-3.5-1.4-4.8,0c-3.7,3.6-4.2,9.5-3.5,13.8l-1.8,14.7C181.3,198.3,181.5,199.2,182.1,200z"/>
		</g>
		
			<rect x="187.4" y="169.4" transform="matrix(-0.9313 -0.3644 0.3644 -0.9313 312 417.1859)" class="st6" width="16" height="19.4"/>
		
			<rect x="184.6" y="182.1" transform="matrix(-0.9878 -0.1554 0.1554 -0.9878 349.1368 409.9489)" class="st6" width="12" height="18.5"/>
		<path class="st8" d="M209.2,173.8c-0.5,0.6-1.3,0.9-2.1,1c-0.8,0.1-1.6-0.1-2.3-0.1c-3.9-0.4-7.9,0.7-11,3.1"/>
		<path class="st8" d="M195.1,159.6c0.5,3,1,6,1.6,9c0-0.1-0.1-0.2-0.1-0.3"/>
		<path class="st8" d="M190.1,164.2c0.6,1.5,1.3,3,1.9,4.5"/>
		<path class="st8" d="M190.5,169.7c5.1-0.9,10.4-0.5,15.3,1.4"/>
	</g>
	<g>
		<g>
			
				<linearGradient id="SVGID_00000164490919196756516270000009653704257318240917_" gradientUnits="userSpaceOnUse" x1="288.0519" y1="221.0522" x2="169.9593" y2="219.097" gradientTransform="matrix(0.9956 9.360000e-02 -9.360000e-02 0.9956 -1.1611 110.4091)">
				<stop  offset="0.4031" style="stop-color:#FFC9C2"/>
				<stop  offset="0.8471" style="stop-color:#FF979B"/>
			</linearGradient>
			<path style="fill:url(#SVGID_00000164490919196756516270000009653704257318240917_);" d="M168.1,384.1c-7-1.1-13.2-6-15.5-13.2
				c-3.4-10.2,2.2-21.3,12.4-24.7l88.3-26c10.2-3.4,11.5,3,14.9,13.3c3.4,10.2,7.6,20.4-2.7,23.8l-88.3,26
				C174.1,384.3,171,384.6,168.1,384.1z"/>
			
				<linearGradient id="SVGID_00000034788339553432514070000004701133492104999829_" gradientUnits="userSpaceOnUse" x1="301.6378" y1="188.2592" x2="246.17" y2="219.5672" gradientTransform="matrix(0.9956 9.360000e-02 -9.360000e-02 0.9956 -1.1611 110.4091)">
				<stop  offset="0" style="stop-color:#9C9E9D"/>
				<stop  offset="0.6103" style="stop-color:#FFFFFF"/>
			</linearGradient>
			<polygon style="fill:url(#SVGID_00000034788339553432514070000004701133492104999829_);" points="264.3,317.3 275.4,354.2 
				213.8,372.8 202.7,335.9 			"/>
			<line class="st4" x1="213.9" y1="333.7" x2="224.1" y2="369.7"/>
			
				<linearGradient id="SVGID_00000012442963750678780000000014144123879803157124_" gradientUnits="userSpaceOnUse" x1="224.9933" y1="201.9796" x2="176.5982" y2="279.0611" gradientTransform="matrix(0.9956 9.360000e-02 -9.360000e-02 0.9956 -1.1611 110.4091)">
				<stop  offset="0.4031" style="stop-color:#FFC9C2"/>
				<stop  offset="0.8471" style="stop-color:#FF979B"/>
			</linearGradient>
			<path style="fill:url(#SVGID_00000012442963750678780000000014144123879803157124_);" d="M225.1,281.7
				c10.6-2.2,20.9,4.6,23.1,15.1c2.2,10.6-0.2,21.8-6.6,30.5c-5.2,7-12.6,12-22.1,14.7c-12,10.8-23.4,22.5-34,34.7
				c-4.3,4.9-10.5,7.2-16.6,6.6c-3.9-0.4-7.8-1.9-11-4.7c-8.1-7.1-9-19.4-1.9-27.5c12.8-14.7,26.6-28.7,41.2-41.6L225.1,281.7z"/>
		</g>
		<path class="st3" d="M244.9,356.1l33.3,37.2c8,9.7,24,8.8,32.4-2.1c0.1-0.2,0.3-0.4,0.4-0.6c0,0,6-8.9-3.3-21.4l-38.9-48.7
			c-0.5-0.6-1.1-1.1-1.9-1.4c-2.6-1.1-8.9-3.1-13.1,0c-0.6,0.4-0.7,1.2-0.3,1.7l9.4,15.1c1,1.5,0.2,3.7-1.7,4.3
			C254.8,342.4,240.8,348.9,244.9,356.1z"/>
	</g>
	<path class="st7" d="M215.8,195c-4.1,15.3-13.5,39.6-15.5,46.8c-3,11.1-11.3,19.9-22.8,18.8c0,0-0.1,0-0.1,0
		c-11.5-1.1-19.9-11.4-18.8-22.9c1.4-14.2,12-37.1,21.3-53.8L215.8,195z"/>
	<path class="st12" d="M244.6,349.8l-102.2-17.9l31.6-61.3l79.4,13.7C258.5,301,251.4,325.5,244.6,349.8z"/>
	<path class="st7" d="M162.2,275.8c-0.9-0.2-1.3-1.1-0.9-1.9c10.9-21.2,24.8-52.1,36.7-73.2c3.7-6.5,6.9-8.4,14.7-7.5l39.2,3.6
		c12.7,1.4,22.1,12.1,21.1,24.1L262.8,297c-0.2,1.2-1.4,2-2.6,1.7L162.2,275.8z"/>
	<polygon class="st13" points="249.5,196.5 220.4,194.4 206.6,225.3 	"/>
	<path class="st14" d="M240.9,202c-2.8,2.4-5.9,4.4-9.1,6.2c-0.4,0.2-1,0.5-1.4,0.3c-0.4-0.2-0.7-0.6-0.9-1.1
		c-0.7-1.6-1.4-3.2-2-4.7c-1.6,0.6-3.2,1.2-4.8,1.8c-0.4,0.2-1,0.3-1.3,0.1c-0.4-0.2-0.5-0.7-0.5-1.2c-0.4-2.7-0.6-5.4-0.7-8.2"/>
	<path class="st15" d="M206.6,225.3c13.3-6.9,30.8-20.1,42.9-28.8c2.4,2.5,4.2,5.6,5.1,8.8c-5.8,1.4-11.7,2.8-17,3.5
		c0.9,3.4,1.3,6.9,1.3,10.4C229.9,220.8,206.6,225.3,206.6,225.3z"/>
	<path class="st15" d="M208.1,224.6c3.9-11.2,8.7-19.8,12.3-30.1c-3.8,0.7-7.6,1.6-11.5,3.3c1.4,3.5,2.5,7.1,3.2,10.4
		c-2.4,1.2-4.8,2.5-6.7,3.8C206.3,216.8,208.1,224.6,208.1,224.6z"/>
	<path class="st4" d="M207.2,223.5c-9.4,16.8-19.6,32.6-30,54.4"/>
	
		<radialGradient id="SVGID_00000147204677587952893590000000215522096621650337_" cx="240.564" cy="58.7101" r="22.0728" gradientTransform="matrix(0.9956 9.360000e-02 -9.360000e-02 0.9956 -1.1611 110.4091)" gradientUnits="userSpaceOnUse">
		<stop  offset="0.2426" style="stop-color:#7388A7;stop-opacity:0.9609"/>
		<stop  offset="0.9405" style="stop-color:#7388A7;stop-opacity:0"/>
	</radialGradient>
	<path style="opacity:0.84;fill:url(#SVGID_00000147204677587952893590000000215522096621650337_);" d="M253.3,193.8
		c-2.2,11.8-13.1,19.6-24.4,17.4c-11.2-2.1-18.5-13.4-16.3-25.1c2.2-11.8,13.1-19.6,24.4-17.4S255.5,182.1,253.3,193.8z"/>
	<g>
		
			<radialGradient id="SVGID_00000004519643843200788870000015900114776101335716_" cx="242.7814" cy="52.3949" r="26.2286" gradientTransform="matrix(0.9956 9.360000e-02 -9.360000e-02 0.9956 -1.1611 110.4091)" gradientUnits="userSpaceOnUse">
			<stop  offset="0.4449" style="stop-color:#FFC9C2"/>
			<stop  offset="1" style="stop-color:#FF979B"/>
		</radialGradient>
		<path style="fill:url(#SVGID_00000004519643843200788870000015900114776101335716_);" d="M253.1,189.4
			c-2.4,10.1-12.1,16.4-21.7,14.2s-15.5-12.3-13.1-22.3c2.4-10.1,12.1-16.4,21.7-14.2C249.6,169.3,255.4,179.3,253.1,189.4z"/>
		<path class="st18" d="M249.5,187.9c-0.7,3,0.7,5.8,3,6.4c2.4,0.6,4.9-1.4,5.6-4.4c0.7-3-0.7-5.8-3-6.4
			C252.7,182.9,250.2,184.9,249.5,187.9z"/>
		<path class="st8" d="M252.5,188.9c0.6-0.7,1.6-1.1,2.5-1"/>
		<g>
			<g>
				<path class="st19" d="M229.4,189.3c-0.6-0.1-1.2,0.4-1.2,1c0,1.1,0.3,2.2,0.8,3.4c0.4,0.8,0.9,1.5,1.8,2.1
					c0.9,0.6,2.1,1,3.2,0.9c1.1-0.1,1.8-0.7,2.3-1.2c1-1.1,1.7-2.3,2.1-3.6c0.2-0.6-0.2-1.2-0.8-1.2L229.4,189.3z"/>
				<g>
					<defs>
						<path id="SVGID_00000147200898052355953880000012602544216884507308_" d="M229.4,189.3c-0.6-0.1-1.2,0.4-1.2,1
							c0,1.1,0.3,2.2,0.8,3.4c0.4,0.8,0.9,1.5,1.8,2.1c0.9,0.6,2.1,1,3.2,0.9c1.1-0.1,1.8-0.7,2.3-1.2c1-1.1,1.7-2.3,2.1-3.6
							c0.2-0.6-0.2-1.2-0.8-1.2L229.4,189.3z"/>
					</defs>
					<clipPath id="SVGID_00000146489284353063351510000009758856805097296025_">
						<use xlink:href="#SVGID_00000147200898052355953880000012602544216884507308_"  style="overflow:visible;"/>
					</clipPath>
					<path style="clip-path:url(#SVGID_00000146489284353063351510000009758856805097296025_);fill:#E34B5D;" d="M229,193.6
						c0,0,4.2-1.7,8.9-0.4l-1.7,3.8l-5.2-0.6L229,193.6z"/>
				</g>
			</g>
			<path class="st21" d="M232.8,188.2c-2.6-0.9-1.4-2.3-1.4-2.3l2.1-3c0.4-0.6,0.6-1.3,0.4-2.1l-0.2-0.9"/>
			<path class="st22" d="M247.7,192c-0.3,2.4-2.4,4.1-4.8,3.8c-2.4-0.3-4.1-2.4-3.8-4.8c0.3-2.4,2.4-4.1,4.8-3.8
				C246.3,187.5,248,189.7,247.7,192z"/>
			<path class="st22" d="M228.7,187.7c-0.3,2.4-2.4,4.1-4.8,3.8c-2.4-0.3-4.1-2.4-3.8-4.8c0.3-2.4,2.4-4.1,4.8-3.8
				C227.3,183.2,228.9,185.3,228.7,187.7z"/>
			<path class="st21" d="M240.5,182.3c-0.7,0.3-1.4,0.7-2.1,1c-0.1,0-0.2,0.1-0.3,0.2c0,0.1,0.1,0.3,0.2,0.4
				c0.6,0.6,1.3,1.1,2.1,1.6"/>
		</g>
		<path class="st5" d="M233.9,172.4c0,0-2.7,3.5-13.9,4c0,0,5.8-11.9,19.9-9.4c0,0,12.3,2.5,13.6,16.4
			C253.5,183.5,235.9,181.1,233.9,172.4z"/>
		<path class="st23" d="M230.5,182.3c-0.3,0.7-1.1,1-1.8,0.7c-0.7-0.3-1-1.1-0.7-1.8c0.3-0.7,1.1-1,1.8-0.7
			C230.5,180.8,230.8,181.6,230.5,182.3z"/>
	</g>
	
		<linearGradient id="SVGID_00000165915653244366127040000009280974691940901006_" gradientUnits="userSpaceOnUse" x1="211.8567" y1="102.2725" x2="172.7772" y2="85.7091" gradientTransform="matrix(0.9956 9.360000e-02 -9.360000e-02 0.9956 -1.1611 110.4091)">
		<stop  offset="0.3303" style="stop-color:#7388A7;stop-opacity:0.9609"/>
		<stop  offset="0.4198" style="stop-color:#7388A7;stop-opacity:0.82"/>
		<stop  offset="0.9405" style="stop-color:#7388A7;stop-opacity:0"/>
	</linearGradient>
	<path style="opacity:0.35;fill:url(#SVGID_00000165915653244366127040000009280974691940901006_);" d="M205.5,192.3L169.2,258
		c0,0-11.8-6.2-10.5-20.3L205.5,192.3z"/>
	
		<linearGradient id="SVGID_00000150094355598690406580000002160941141015566511_" gradientUnits="userSpaceOnUse" x1="270.5288" y1="85.5506" x2="279.4844" y2="133.6448" gradientTransform="matrix(0.9956 9.360000e-02 -9.360000e-02 0.9956 -1.1611 110.4091)">
		<stop  offset="0.3303" style="stop-color:#7388A7;stop-opacity:0.9609"/>
		<stop  offset="0.4198" style="stop-color:#7388A7;stop-opacity:0.82"/>
		<stop  offset="0.9405" style="stop-color:#7388A7;stop-opacity:0"/>
	</linearGradient>
	<polygon style="fill:url(#SVGID_00000150094355598690406580000002160941141015566511_);" points="271.2,234.5 252.8,247.3 
		266.4,269.9 	"/>
	<g>
		<path class="st13" d="M334.2,137.7l-28-5.3c11.2-35.3,18.3-70.2,19.6-104.3l28,5.3C343.1,67,336.9,101.9,334.2,137.7z"/>
		<path class="st26" d="M353.8,33.3c-0.2,1.1-6.7,0.8-14.4-0.6c-7.7-1.5-13.8-3.5-13.6-4.6c0.2-1.1,6.7-0.8,14.4,0.6
			C347.9,30.1,354,32.2,353.8,33.3z"/>
	</g>
	<g>
		<g>
			<g>
				<path class="st27" d="M301.5,79c0.1-4.4,5.1-7.7,13.5-7.5c8.4,0.3,17.2,4.1,17,8.4c-0.1,4.4-9.1,7.6-17.5,7.3
					C306.1,87.1,301.3,83.4,301.5,79z"/>
				<path class="st27" d="M362.6,81c-0.1,4.4-5.1,7.7-13.5,7.5c-8.4-0.3-17.2-4.1-17-8.4c0.1-4.4,9.1-7.6,17.5-7.3
					C358,72.9,362.7,76.6,362.6,81z"/>
			</g>
		</g>
		<path class="st27" d="M332.4,83.1c-10.4,2.8-4.1,18.8-14.5,21.6c-10.4,2.8-16.6-13.1-27-10.3c-5.1,1.4-6.2,6-7.2,10.7"/>
		<path class="st27" d="M311,131.5c5.6-9.2-9.9-16.5-4.3-25.7c5.6-9.2,21.1-1.9,26.7-11.1c2.8-4.5,0.4-8.6-2.1-12.7"/>
	</g>
	<path class="st6" d="M333.5,100.3c-2.3-0.2-4.1-2-4.4-4.3c-0.3-2.7,1.6-5.1,4.3-5.4c3.7-0.4,7.5-0.3,11.2,0.3c2.7,0.5,4.4,3,4,5.7
		c-0.5,2.7-3,4.4-5.7,4c-2.8-0.5-5.6-0.6-8.5-0.3C334.2,100.3,333.8,100.3,333.5,100.3z"/>
	<path class="st6" d="M332.5,107.2c-2.1-0.2-3.8-1.7-4.3-3.8c-0.6-2.6,1.1-5.3,3.7-5.8c3.9-0.9,8-0.8,11.8,0.1
		c2.6,0.6,4.2,3.3,3.6,5.9c-0.6,2.6-3.3,4.2-5.9,3.6c-2.4-0.6-5-0.6-7.4-0.1C333.5,107.2,333,107.3,332.5,107.2z"/>
	<path class="st6" d="M340.3,115.3c-0.6-0.1-1.2-0.2-1.7-0.5c-1.6-0.8-3.6-1-5.3-0.5c-2.6,0.7-5.3-0.8-6-3.4c-0.7-2.6,0.8-5.3,3.4-6
		c4.1-1.1,8.6-0.7,12.4,1.2c2.4,1.2,3.4,4.1,2.2,6.6C344.2,114.5,342.2,115.5,340.3,115.3z"/>
	<path class="st6" d="M336.9,121c-0.4,0-0.8-0.1-1.2-0.3c-1.4-0.5-2.9-0.7-4.4-0.6c-2.7,0.1-5-1.9-5.2-4.6c-0.1-2.7,1.9-5,4.6-5.2
		c2.8-0.2,5.6,0.3,8.2,1.2c2.5,0.9,3.9,3.7,2.9,6.3C341.2,119.9,339,121.2,336.9,121z"/>
	<path class="st6" d="M314.4,91.6l0.4-1.1c0.8-1.9,2.9-2.8,4.8-2.1l4.2,1.7c1.9,0.8,2.8,2.9,2.1,4.8l-0.4,1.1
		c-0.8,1.9-2.9,2.8-4.8,2.1l-4.2-1.7C314.6,95.7,313.7,93.5,314.4,91.6z"/>
	<path class="st8" d="M331.3,98.3c4.1-0.2,8.2-0.1,12.3,0.2"/>
	<path class="st8" d="M331.2,106.1c3.6-0.3,7.2-0.2,10.8,0.3"/>
	<path class="st8" d="M330.4,112.8c3.3,0.3,6.7,0.9,9.9,1.7"/>
	<path class="st8" d="M168.3,337.7l-12,13.5c-2.1,2.4-3.8,5.3-4.7,8.4c-0.6,2.4-0.9,5.1-0.1,7.8"/>
	<g>
		<defs>
			<path id="SVGID_00000018932701912715576300000011338549063282936967_" d="M244.6,349.8l-102.2-17.9l31.6-61.3l79.4,13.7
				C258.5,301,251.4,325.5,244.6,349.8z"/>
		</defs>
		<clipPath id="SVGID_00000103257470776867524890000014072599461312091019_">
			<use xlink:href="#SVGID_00000018932701912715576300000011338549063282936967_"  style="overflow:visible;"/>
		</clipPath>
		<g style="clip-path:url(#SVGID_00000103257470776867524890000014072599461312091019_);">
			
				<rect x="191.7" y="239" transform="matrix(0.1726 -0.985 0.985 0.1726 -167.3081 465.0877)" class="st29" width="3" height="186.3"/>
		</g>
		<g style="clip-path:url(#SVGID_00000103257470776867524890000014072599461312091019_);">
			
				<rect x="190.7" y="230" transform="matrix(0.1726 -0.985 0.985 0.1726 -159.2706 456.656)" class="st29" width="3" height="186.3"/>
		</g>
	</g>
</g>
</svg>
