<?xml version="1.0" encoding="utf-8"?>
<!-- Generator: Adobe Illustrator 27.7.0, SVG Export Plug-In . SVG Version: 6.00 Build 0)  -->
<svg version="1.1" id="레이어_1" xmlns="http://www.w3.org/2000/svg" xmlns:xlink="http://www.w3.org/1999/xlink" x="0px"
	 y="0px" viewBox="0 0 500 500" style="enable-background:new 0 0 500 500;" xml:space="preserve">
<style type="text/css">
	.st0{fill:url(#SVGID_1_);}
	.st1{fill:url(#SVGID_00000025429725811953876310000008821315907635575709_);}
	.st2{fill:none;stroke:#FFFFFF;stroke-width:2.0024;stroke-linecap:round;stroke-linejoin:round;stroke-miterlimit:10;}
	.st3{fill:url(#SVGID_00000112614197853000650300000000088188071069123213_);}
	.st4{fill:#33363C;}
	.st5{fill:url(#SVGID_00000047054553942498041190000007116632711329336222_);}
	.st6{fill:url(#SVGID_00000060722070735806334630000004735160153928503202_);}
	.st7{fill:url(#SVGID_00000179613398101058073940000007579648333004432002_);}
	.st8{fill:#2C3135;}
	.st9{fill:#72727C;}
	.st10{fill:#FFFFFF;}
	.st11{fill:none;stroke:#909095;stroke-width:2.0024;stroke-linecap:round;stroke-linejoin:round;stroke-miterlimit:10;}
	.st12{fill:url(#SVGID_00000062886698117587181600000007895553298060709777_);}
	.st13{opacity:0.84;fill:url(#SVGID_00000088115297056141732200000015714311815839488935_);}
	.st14{fill:#FFC9C2;}
	.st15{fill:url(#SVGID_00000016036489519429809360000010182983344794365355_);}
	.st16{fill:url(#SVGID_00000090981733840753819770000010921174810170798231_);}
	.st17{fill:url(#SVGID_00000023993061976982643310000004536432556125374143_);}
	.st18{fill:url(#SVGID_00000017503801970979561780000018324953843752133015_);}
	.st19{fill:none;stroke:#FF9299;stroke-width:2.0024;stroke-linecap:round;stroke-linejoin:round;stroke-miterlimit:10;}
	.st20{fill:url(#SVGID_00000134238511756139657540000006570593547142642065_);}
	.st21{fill:none;stroke:#232323;stroke-width:2.6699;stroke-linecap:round;stroke-linejoin:round;stroke-miterlimit:10;}
	.st22{fill:#FF7C88;}
	.st23{fill:#C13F47;}
	.st24{clip-path:url(#SVGID_00000060716551712937174260000016964439734854653340_);fill:#E34B5D;}
	.st25{fill:#FFB4B4;}
	.st26{fill:none;stroke:#FF9299;stroke-width:2.6699;stroke-linecap:round;stroke-linejoin:round;stroke-miterlimit:10;}
	.st27{fill:url(#SVGID_00000168800120121233953670000013018121193362154153_);}
	.st28{fill:none;stroke:#2C3135;stroke-width:2.6699;stroke-linecap:round;stroke-linejoin:round;stroke-miterlimit:10;}
	.st29{filter:url(#Adobe_OpacityMaskFilter);}
	.st30{mask:url(#SVGID_00000080886563673498389770000001566033469031961777_);}
	.st31{fill:#FFA0A2;}
	.st32{fill:url(#SVGID_00000181070456417601446650000012011598208705603201_);}
	.st33{fill:url(#SVGID_00000120522843361386279000000006409361620042237343_);}
	.st34{fill:url(#SVGID_00000022532185947379073970000012824199263938347405_);}
	.st35{fill:none;stroke:#FFFFFF;stroke-width:2.6699;stroke-linecap:round;stroke-linejoin:round;stroke-miterlimit:10;}
</style>
<g>
	<radialGradient id="SVGID_1_" cx="296.2346" cy="367.5029" r="54.3479" gradientUnits="userSpaceOnUse">
		<stop  offset="0.5206" style="stop-color:#FFC9C2"/>
		<stop  offset="1" style="stop-color:#FF979B"/>
	</radialGradient>
	<path class="st0" d="M352.1,301.1c-6.2-9.5-19-12.3-28.5-6.1l-80.8,52.3c-4.6,3-7.8,7.6-8.9,13c-1.2,5.4-0.1,10.9,2.9,15.5
		c3.1,4.8,8.1,8.1,13.7,9.1c0.1,0,0.1,0,0.2,0c5.1,0.8,10.2-0.2,14.5-3l80.8-52.3c4.6-3,7.8-7.6,8.9-13
		C356.1,311.2,355.1,305.7,352.1,301.1z"/>
	
		<linearGradient id="SVGID_00000129192123759544419220000017634089568064868255_" gradientUnits="userSpaceOnUse" x1="148.3832" y1="516.1083" x2="231.278" y2="516.1083" gradientTransform="matrix(0.9851 -0.172 0.172 0.9851 -10.3873 -118.2244)">
		<stop  offset="0" style="stop-color:#101A21"/>
		<stop  offset="0.4367" style="stop-color:#28323A"/>
	</linearGradient>
	<polygon style="fill:url(#SVGID_00000129192123759544419220000017634089568064868255_);" points="283.1,319.8 307,354.9 
		247.7,395.3 223.8,360.2 	"/>
	<line class="st2" x1="274.6" y1="326.7" x2="298.4" y2="359.3"/>
	<line class="st2" x1="266.4" y1="331.8" x2="289.7" y2="366.7"/>
	
		<radialGradient id="SVGID_00000051348246367942189350000017988254184873367699_" cx="332.1665" cy="286.1795" r="54.5904" gradientTransform="matrix(1.0075 -5.000000e-04 -5.000000e-04 1.0046 4.9426 7.100000e-02)" gradientUnits="userSpaceOnUse">
		<stop  offset="0.5206" style="stop-color:#FFC9C2"/>
		<stop  offset="1" style="stop-color:#FF979B"/>
	</radialGradient>
	<path style="fill:url(#SVGID_00000051348246367942189350000017988254184873367699_);" d="M325.5,208.5c-6.1-10.9-20-14.9-31.2-8.9
		c-5.4,2.9-9.4,7.8-11.1,13.7c-1.7,5.8-1,11.9,1.9,17.1c14,25.2,22.6,53.6,25.1,82.2c0.5,6,3.4,11.4,8,15.3
		c4.7,3.9,10.7,5.8,16.9,5.3c0.7-0.1,1.3-0.1,2-0.3c11.7-2,20-12.7,19-24.4C353,273.7,342.5,239.1,325.5,208.5z"/>
	<path class="st4" d="M220,59.7c9.9-3.7,22.5-0.8,30.4,7.6c3.2,3.5,5.6,7.7,8.1,11.8c2.5,4.1,5.3,8.1,9,11c3.8,2.9,8.7,4.4,12.8,2.8
		c-10.6,6.1-19.9,14.4-30.2,21c-10.3,6.6-22.2,11.8-35,11c-9.1-9-14.4-22-13.9-34.5c0.4-11.5,3.6-21.2,12.9-27.8
		c1.3-1,2.1-1.5,3.7-2.1L220,59.7z"/>
	
		<radialGradient id="SVGID_00000168078317459736231130000006174977960492168585_" cx="239.9847" cy="318.2816" r="46.826" gradientUnits="userSpaceOnUse">
		<stop  offset="0.5206" style="stop-color:#FFC9C2"/>
		<stop  offset="1" style="stop-color:#FF979B"/>
	</radialGradient>
	<path style="fill:url(#SVGID_00000168078317459736231130000006174977960492168585_);" d="M310.2,310.6c-3.2-4.6-8.5-6.1-13.5-8.5
		c-23.2-11.1-40.4-17.1-64.8-24c-5.3-1.5-10.4-3.7-15.7-2.3c-5.4,1.4-9.9,4.8-12.7,9.6c-2.8,4.8-3.6,10.4-2.2,15.8
		c1.4,5.4,4.4,10.9,9.6,12.8c32.1,11.5,54.2,21.1,78.9,29.3c3.8,1.3,8,0.2,11.7-1.4c6.5-2.8,11.1-8.6,12.2-15.7
		C314.7,320.7,313.4,315.2,310.2,310.6z"/>
	
		<linearGradient id="SVGID_00000062898046285386160220000002371974072469047697_" gradientUnits="userSpaceOnUse" x1="128.99" y1="455.4525" x2="212.3777" y2="455.4525" gradientTransform="matrix(0.9851 -0.172 0.172 0.9851 -10.3873 -118.2244)">
		<stop  offset="0" style="stop-color:#101A21"/>
		<stop  offset="0.4367" style="stop-color:#28323A"/>
	</linearGradient>
	<path style="fill:url(#SVGID_00000062898046285386160220000002371974072469047697_);" d="M277.1,293.4l-14.6,40l-67.4-24.7
		l14.6-39.9C237.1,278.4,267.1,288.7,277.1,293.4z"/>
	<line class="st2" x1="266.9" y1="289.6" x2="253.6" y2="330.1"/>
	<line class="st2" x1="260.4" y1="287.5" x2="247.1" y2="327.9"/>
	
		<radialGradient id="SVGID_00000100378799013167453670000006400012343020048537_" cx="275.7459" cy="269.9056" r="92.0657" gradientUnits="userSpaceOnUse">
		<stop  offset="0.5206" style="stop-color:#FFC9C2"/>
		<stop  offset="1" style="stop-color:#FF979B"/>
	</radialGradient>
	<path style="fill:url(#SVGID_00000100378799013167453670000006400012343020048537_);" d="M295.9,241.8c-7.5-5.2-12.3-8.8-14.4-12.1
		c-0.4-0.7-0.7-1.4-0.8-1.8c5.4-10.2,1.9-22.7-8.1-28.7c-10.3-6.2-23.8-2.9-30.1,7.4c-8.3,13.6-7.6,31.3,1.8,46.2
		c5.3,8.5,12.2,14.3,18.3,18.9c2.1,18.2,5,36.6,8.7,54.5c2.2,11,12.8,18.6,24.1,17.3c0.4,0,0.8-0.1,1.2-0.2c0.2,0,0.4-0.1,0.6-0.1
		c5.8-1.2,10.7-4.5,14-9.4c3.2-4.8,4.3-10.6,3.2-16.3c-4-19.8-7.1-40-9.1-60.1C304.5,251.2,301.1,245.5,295.9,241.8z"/>
	<path class="st8" d="M354.3,263.9l-109.1,23c-10.9-31.5-18.3-62.4-15.8-91l90.4-21.4L354.3,263.9z"/>
	<path class="st9" d="M216.3,106.9c-13.1,3-12.5,10.2-11.4,22.2l14.4,92.1l111.1-30.8l-39.7-86.1c-5.2-10.8-18-15.4-28.6-10.1"/>
	<path class="st10" d="M258.9,96.9l1.9,28.3c0.2,2.6-2.4,4.5-4.9,3.5l-26.4-10.5c-2.6-1-3-4.5-0.8-6.2l24.5-17.8
		C255.5,92.6,258.7,94.1,258.9,96.9z"/>
	<path class="st11" d="M224.3,111.7c5.5,2.7,11.2,4.8,17,6.4c0.8,0.2,1.7,0.4,2.4-0.1c0.7-0.4,0.9-1.3,1.1-2
		c0.6-2.8,1.3-5.5,1.8-8.1c2.8,0.3,5.7,0.7,8.5,1c0.8,0.1,1.7,0.1,2.2-0.4c0.5-0.5,0.5-1.3,0.5-2c-0.2-4.4-0.7-8.8-1.5-13.1"/>
	
		<linearGradient id="SVGID_00000042726709679403504280000003362030431954992549_" gradientUnits="userSpaceOnUse" x1="266.6051" y1="189.4743" x2="202.86" y2="145.4615">
		<stop  offset="0" style="stop-color:#9C9E9D"/>
		<stop  offset="0.6103" style="stop-color:#FFFFFF"/>
	</linearGradient>
	<path style="fill:url(#SVGID_00000042726709679403504280000003362030431954992549_);" d="M244.9,213.1c-7.9,3.4-17.3,1.5-22.6-5.2
		c-8.3-10.5-17.8-22.5-24.1-37.1c-8.2-18.9-8.7-38.4-1.3-52.3c4.8-9.2,16.4-13.2,25.7-8.9c9.4,4.3,13,15.2,8.2,24.4
		c-1.5,2.8-1.6,11.4,2.8,21.6c4.5,10.4,12.1,20.1,19.5,29.4c6.3,7.9,4.4,19.5-4.1,25.8C247.7,211.7,246.3,212.5,244.9,213.1z"/>
	
		<radialGradient id="SVGID_00000096760841342204782260000004844939195806210434_" cx="236.7424" cy="94.7839" r="25.7765" gradientUnits="userSpaceOnUse">
		<stop  offset="0.2426" style="stop-color:#7388A7;stop-opacity:0.9609"/>
		<stop  offset="0.9405" style="stop-color:#7388A7;stop-opacity:0"/>
	</radialGradient>
	<path style="opacity:0.84;fill:url(#SVGID_00000096760841342204782260000004844939195806210434_);" d="M260.8,95.4
		c-1.3,13.9-13.1,24.2-26.4,22.9s-23-13.5-21.7-27.5C214,77,225.8,66.7,239.1,68C252.4,69.2,262.1,81.5,260.8,95.4z"/>
	<g>
		<path class="st14" d="M272.9,110.4c-0.1-0.1-0.2-0.1-0.3-0.2c-1.7-1.2-2.2-3.5-1-5.3c1.4-2.1,2.2-6.6,2.3-8.9
			c0-0.4,0.1-0.9,0.3-1.3c1.4-3.1,2.2-6.4,2.4-9.7c0.1-2.1,2-3.7,4.1-3.5c2.1,0.1,3.7,2,3.5,4.1c-0.3,4-1.2,7.9-2.7,11.7
			c-0.2,2.1-1,8.1-3.6,12C276.8,110.8,274.6,111.3,272.9,110.4z"/>
		<path class="st14" d="M274.9,94c-1.1-0.4-2-1.4-2.3-2.6l-3.3-13.1c-0.5-2,0.7-4.1,2.8-4.6c2-0.5,4.1,0.7,4.6,2.8l3.3,13.1
			c0.5,2-0.7,4.1-2.8,4.6C276.5,94.4,275.7,94.3,274.9,94z"/>
		<path class="st14" d="M269.3,92.8c-1.1-0.4-2-1.4-2.3-2.6c-1.1-4.5-2.9-8.8-5.4-12.8c-1.1-1.8-0.6-4.1,1.2-5.3
			c1.8-1.1,4.1-0.6,5.3,1.2c2.9,4.6,5.1,9.7,6.4,15c0.5,2-0.8,4.1-2.8,4.6C270.8,93.2,270,93.1,269.3,92.8z"/>
		
			<linearGradient id="SVGID_00000039853309831971596930000017659539669171019948_" gradientUnits="userSpaceOnUse" x1="267.0621" y1="83.7106" x2="247.3573" y2="83.3843">
			<stop  offset="0.4031" style="stop-color:#FFC9C2"/>
			<stop  offset="0.8471" style="stop-color:#FF979B"/>
		</linearGradient>
		<path style="fill:url(#SVGID_00000039853309831971596930000017659539669171019948_);" d="M261.8,92.9c-1-0.4-1.8-1.2-2.2-2.3
			c-1.3-3.7-3.3-7.2-6-10.1c-1.4-1.5-1.3-4,0.2-5.4c1.5-1.4,4-1.3,5.4,0.2c3.4,3.7,6,8.1,7.6,12.8c0.7,2-0.4,4.2-2.4,4.8
			C263.6,93.2,262.6,93.2,261.8,92.9z"/>
		
			<linearGradient id="SVGID_00000074436829658693252470000008741759550101885583_" gradientUnits="userSpaceOnUse" x1="272.4419" y1="104.6" x2="243.9187" y2="85.2783">
			<stop  offset="0.4031" style="stop-color:#FFC9C2"/>
			<stop  offset="0.8471" style="stop-color:#FF979B"/>
		</linearGradient>
		<path style="fill:url(#SVGID_00000074436829658693252470000008741759550101885583_);" d="M265.9,111c-0.3-0.1-0.6-0.3-0.9-0.5
			c-4.3-3.3-7.7-7.6-9.9-12.6c-0.5-1.2-0.9-2.3-1.3-3.4c-0.5-1.2-0.9-2.4-1.4-3.5c-0.9-2-2-3.3-3.2-4c-1.8-1-2.5-3.4-1.4-5.2
			c1-1.8,3.4-2.5,5.2-1.4c2.6,1.5,4.7,4,6.3,7.4c0.6,1.4,1.2,2.8,1.6,4.1c0.4,1.1,0.8,2.1,1.2,3c1.6,3.8,4.2,7.1,7.5,9.5
			c1.7,1.3,2,3.7,0.7,5.3C269.2,111.2,267.4,111.7,265.9,111z"/>
		
			<linearGradient id="SVGID_00000052092077170270882040000012321360591644939661_" gradientUnits="userSpaceOnUse" x1="269.0183" y1="94.7485" x2="264.5325" y2="75.5283">
			<stop  offset="0.4031" style="stop-color:#FFC9C2"/>
			<stop  offset="0.8471" style="stop-color:#FF979B"/>
		</linearGradient>
		<polygon style="fill:url(#SVGID_00000052092077170270882040000012321360591644939661_);" points="279.4,106.2 263,108.8 
			259.7,87.7 276.1,85.1 		"/>
		
			<linearGradient id="SVGID_00000020361619749824632050000002353962137170771893_" gradientUnits="userSpaceOnUse" x1="267.5547" y1="101.8069" x2="282.8595" y2="120.72">
			<stop  offset="0.4031" style="stop-color:#FFC9C2"/>
			<stop  offset="0.8471" style="stop-color:#FF979B"/>
		</linearGradient>
		<polygon style="fill:url(#SVGID_00000020361619749824632050000002353962137170771893_);" points="286,113.3 273.9,122.3 
			262.6,106.9 274.7,98 		"/>
		<path class="st19" d="M259,87.5c0.5,1.3,1.1,2.5,1.6,3.8c4.2-0.1,8.4,1.3,11.7,3.9"/>
		<path class="st19" d="M263.7,81.8c1.1,2,2.2,4,3.3,6"/>
		<path class="st19" d="M269.5,76.9c1.2,3.5,2.4,7,3.6,10.5"/>
		<path class="st19" d="M278,82.9c-0.1,1.7-0.1,3.5,0.1,5.2"/>
	</g>
	<path class="st4" d="M201.3,90.6c-0.5,12.4,4.8,25.5,13.9,34.5c12.7,0.7,21.8-2.6,32.1-9.2c0,0-25.1-2.7-30.2-15.3"/>
	<g>
		
			<radialGradient id="SVGID_00000146469569265616784970000008762628454541870477_" cx="2719.5149" cy="-332.8311" r="45.9768" gradientTransform="matrix(-0.8129 0.5825 0.5825 0.8129 2635.6448 -1228.6752)" gradientUnits="userSpaceOnUse">
			<stop  offset="0.4031" style="stop-color:#FFC9C2"/>
			<stop  offset="0.8471" style="stop-color:#FF979B"/>
		</radialGradient>
		<path style="fill:url(#SVGID_00000146469569265616784970000008762628454541870477_);" d="M212.3,99.9c8.7,10.8,24.1,12.9,34.4,4.6
			c10.3-8.3,11.7-23.8,3-34.6c-8.7-10.8-24.1-12.9-34.4-4.6C205,73.5,203.7,89,212.3,99.9z"/>
		<path class="st4" d="M249,69.8c-11,3.1-21.3,4.3-32.4,4.2c-1.4,0-2.6,0.9-2.9,2.3c-1.6,7-1.6,13.7-3.3,20.7
			c-3.9-5.7-6.2-16.7-2.2-24.1c4.1-7.4,12-12.5,20.4-13.2c8.4-0.7,15.7,3.3,21.1,9.9L249,69.8z"/>
		<g>
			<path class="st21" d="M238,74.1c-0.4,0.9-0.8,1.8-1.1,2.7c-0.1,0.1-0.1,0.3,0,0.4c0.1,0.2,0.3,0.2,0.5,0.2c1.1,0,2.2-0.1,3.3-0.3
				"/>
			<path class="st21" d="M225,82.8c1,0,2,0.1,3,0.1c0.1,0,0.3,0,0.4,0.1c0.1,0.1,0.1,0.4,0,0.5c-0.4,1-1,2-1.6,2.9"/>
			<path class="st21" d="M237.1,86.9c2.5-2,0.5-3.1,0.5-3.1l-3.5-2.4c-0.7-0.5-1.2-1.2-1.3-2.1l-0.2-1.1"/>
			<path class="st22" d="M222.2,96.7c1.3,2.5,4.3,3.4,6.8,2.1c2.5-1.3,3.4-4.3,2.1-6.8c-1.3-2.5-4.3-3.4-6.8-2.1
				C221.9,91.2,220.9,94.2,222.2,96.7z"/>
			<path class="st22" d="M241.1,84.2c1.3,2.5,4.3,3.4,6.8,2.1c2.5-1.3,3.4-4.3,2.1-6.8c-1.3-2.5-4.3-3.4-6.8-2.1
				C240.8,78.7,239.8,81.7,241.1,84.2z"/>
			<g>
				<path class="st23" d="M241.8,85.8c0.7-0.5,1.6-0.2,2,0.5c0.7,1.3,1,2.9,0.9,4.5c0,1.1-0.3,2.4-1,3.6c-0.7,1.2-2,2.5-3.3,3
					c-1.3,0.5-2.5,0.2-3.5-0.2c-1.8-0.7-3.4-1.7-4.6-3.1c-0.5-0.6-0.4-1.5,0.3-2L241.8,85.8z"/>
				<g>
					<defs>
						<path id="SVGID_00000163761238621018582150000008526518787559354293_" d="M241.8,85.8c0.7-0.5,1.6-0.2,2,0.5
							c0.7,1.3,1,2.9,0.9,4.5c0,1.1-0.3,2.4-1,3.6c-0.7,1.2-2,2.5-3.3,3c-1.3,0.5-2.5,0.2-3.5-0.2c-1.8-0.7-3.4-1.7-4.6-3.1
							c-0.5-0.6-0.4-1.5,0.3-2L241.8,85.8z"/>
					</defs>
					<clipPath id="SVGID_00000139276957617588432510000007754806656223332267_">
						<use xlink:href="#SVGID_00000163761238621018582150000008526518787559354293_"  style="overflow:visible;"/>
					</clipPath>
					<path style="clip-path:url(#SVGID_00000139276957617588432510000007754806656223332267_);fill:#E34B5D;" d="M244.7,90.9
						c0,0-6,0.3-11,4.6l4.2,3.7l5.9-3.7L244.7,90.9z"/>
				</g>
			</g>
		</g>
		<path class="st25" d="M219.3,98.4c2.6,3.2,2.6,7.5,0,9.5c-2.5,2-6.7,1.1-9.3-2.1c-2.6-3.2-2.6-7.5,0-9.5S216.7,95.2,219.3,98.4z"
			/>
		<path class="st26" d="M216.3,101.6c-1.3-0.6-2.9-0.4-4,0.5"/>
	</g>
	<g>
		<g>
			<path class="st4" d="M254.7,394.8l-8.9,7.1c-1.8,1.4-3,3.5-3.4,5.7l-7.2,37.9c-1,5.5-4.9,10.1-10.3,12.1h0
				c-7.8,2.9-16.1-2.7-16.2-11l-1.2-89c-0.1-8.1,7.5-14.2,15.4-12.4l17.4,4l-2.5,15.8c-0.5,3.3,0.8,6.5,3.3,8.6
				c4.9,3.9,12.6,10.9,14.8,17.3C256.3,392.3,255.8,393.8,254.7,394.8z"/>
			
				<radialGradient id="SVGID_00000037651916287346253020000010941288121066304158_" cx="2422.4019" cy="-748.626" r="63.1386" gradientTransform="matrix(-0.955 0.2967 0.2967 0.955 2729.3098 333.8358)" gradientUnits="userSpaceOnUse">
				<stop  offset="0" style="stop-color:#9C9E9D"/>
				<stop  offset="0.6603" style="stop-color:#FFFFFF"/>
			</radialGradient>
			<path style="fill:url(#SVGID_00000037651916287346253020000010941288121066304158_);" d="M218.2,345c-6.1,1-10.8,6.1-10.8,12.6
				l1.2,89c0.1,8.3,8.4,13.9,16.2,11h0c11-4.8,10.3-12.1,12.6-24.4c0,0-6.3-3.6-19.7-4.5L218.2,345z"/>
		</g>
		<line class="st28" x1="217.8" y1="455.9" x2="218.4" y2="346.3"/>
	</g>
	<g>
		<defs>
			<filter id="Adobe_OpacityMaskFilter" filterUnits="userSpaceOnUse" x="213.2" y="87.8" width="34.5" height="46.4">
				<feFlood  style="flood-color:white;flood-opacity:1" result="back"/>
				<feBlend  in="SourceGraphic" in2="back" mode="normal"/>
			</filter>
		</defs>
		
			<mask maskUnits="userSpaceOnUse" x="213.2" y="87.8" width="34.5" height="46.4" id="SVGID_00000056402495004477341860000010503734908641808516_">
			<g class="st29">
				
					<image style="overflow:visible;" width="161" height="211" xlink:href="9A0D9203.jpg"  transform="matrix(0.24 0 0 0.24 211.2 85.68)">
				</image>
			</g>
		</mask>
		<g style="mask:url(#SVGID_00000056402495004477341860000010503734908641808516_);">
			<g>
				<path class="st31" d="M241.3,123.8C241.3,123.8,241.2,123.9,241.3,123.8c-6.3,3.8-13.3-1.4-16.9-5.5c-3.9-2-5.7-3.1-9.5-5.9
					c-1.6-1.2-2.1-3.4-1.2-4.9c0.9-1.6,3-1.9,4.6-0.7c3.7,2.7,5.2,3.6,9.2,5.6c0.5,0.2,0.9,0.6,1.3,1c0,0.1,5.3,6.3,8.8,4.2
					c1.5-0.9,3.6-0.3,4.7,1.5C243.2,120.8,242.8,122.9,241.3,123.8z"/>
				<path class="st31" d="M227.1,112.1c0,0-0.1,0-0.1,0.1c-1.6,0.9-3.6,0.2-4.6-1.5c-2.4-4.1-5.1-8.1-8.1-11.7
					c-1.3-1.5-1.2-3.8,0.1-4.9c1.3-1.2,3.5-0.9,4.7,0.7c3.3,4,6.3,8.3,8.9,12.8C229,109.2,228.6,111.2,227.1,112.1z"/>
				<path class="st31" d="M230.6,107.6c-0.2,0.1-0.5,0.2-0.7,0.3c-1.7,0.5-3.7-0.6-4.3-2.5c-1.4-4-3.7-7.9-6.5-11.2
					c-1.3-1.5-1.3-3.7,0-5c1.3-1.2,3.4-1,4.7,0.5c3.5,4,6.2,8.8,8,13.8C232.4,105.2,231.8,106.8,230.6,107.6z"/>
				<path class="st31" d="M235.5,105.6c-0.3,0.2-0.6,0.3-0.9,0.4c-1.8,0.4-3.6-0.9-4.2-2.8c-1-3.6-2.6-7-4.6-10.1
					c-1.1-1.7-0.8-3.8,0.7-4.8c0,0,0,0,0.1,0c1.5-0.9,3.6-0.4,4.6,1.3c2.5,3.8,4.4,8,5.6,12.3C237.2,103.3,236.6,104.8,235.5,105.6z
					"/>
				<path class="st31" d="M245.5,118.2c-0.8,0.5-2,0.6-3,0.1c-1.8-0.8-2.7-2.9-2.1-4.7c1.9-5.5-1.3-8.4-1.7-8.7
					c-0.6-0.5-1.1-1.1-1.3-1.9c-1-2.9-2.6-5.7-4.7-8c-1.4-1.5-1.4-3.7-0.2-5c1.3-1.3,3.4-1.1,4.7,0.3c2.6,2.9,4.7,6.3,6.1,9.9
					c2.7,2.7,5.9,8.6,3.3,16.2C246.5,117.3,246.1,117.8,245.5,118.2z"/>
				
					<rect x="226.5" y="102.2" transform="matrix(0.8621 -0.5068 0.5068 0.8621 -23.6475 134.2719)" class="st31" width="16.8" height="16.8"/>
				
					<rect x="227.7" y="115.4" transform="matrix(6.488802e-02 -0.9979 0.9979 6.488802e-02 98.222 352.7525)" class="st31" width="19.3" height="17.2"/>
			</g>
		</g>
	</g>
	<g>
		<path class="st14" d="M239.7,124.2C239.7,124.2,239.7,124.2,239.7,124.2c-6.3,3.8-13.3-1.4-16.9-5.5c-3.9-2-5.7-3.1-9.5-5.9
			c-1.6-1.2-2.1-3.4-1.2-4.9c0.9-1.6,3-1.9,4.6-0.7c3.7,2.7,5.2,3.6,9.2,5.6c0.5,0.2,0.9,0.6,1.3,1c0,0.1,5.3,6.3,8.8,4.2
			c1.5-0.9,3.6-0.3,4.7,1.5C241.6,121.2,241.2,123.3,239.7,124.2z"/>
		<path class="st14" d="M225.5,112.5c0,0-0.1,0-0.1,0.1c-1.6,0.9-3.6,0.2-4.6-1.5c-2.4-4.1-5.1-8.1-8.1-11.7
			c-1.3-1.5-1.2-3.8,0.1-4.9c1.3-1.2,3.5-0.9,4.7,0.7c3.3,4,6.3,8.3,8.9,12.8C227.4,109.5,227,111.6,225.5,112.5z"/>
		<path class="st14" d="M229,107.9c-0.2,0.1-0.5,0.2-0.7,0.3c-1.7,0.5-3.7-0.6-4.3-2.5c-1.4-4-3.7-7.9-6.5-11.2
			c-1.3-1.5-1.3-3.7,0-5c1.3-1.2,3.4-1,4.7,0.5c3.5,4,6.2,8.8,8,13.8C230.8,105.5,230.3,107.2,229,107.9z"/>
		<path class="st14" d="M233.9,105.9c-0.3,0.2-0.6,0.3-0.9,0.4c-1.8,0.4-3.6-0.9-4.2-2.8c-1-3.6-2.6-7-4.6-10.1
			c-1.1-1.7-0.8-3.8,0.7-4.8c0,0,0,0,0.1,0c1.5-0.9,3.6-0.4,4.6,1.3c2.5,3.8,4.4,8,5.6,12.3C235.6,103.7,235.1,105.2,233.9,105.9z"
			/>
		<path class="st14" d="M244,118.6c-0.8,0.5-2,0.6-3,0.1c-1.8-0.8-2.7-2.9-2.1-4.7c1.9-5.5-1.3-8.4-1.7-8.7
			c-0.6-0.5-1.1-1.1-1.3-1.9c-1-2.9-2.6-5.7-4.7-8c-1.4-1.5-1.4-3.7-0.2-5c1.3-1.3,3.4-1.1,4.7,0.3c2.6,2.9,4.7,6.3,6.1,9.9
			c2.7,2.7,5.9,8.6,3.3,16.2C245,117.7,244.5,118.2,244,118.6z"/>
		
			<rect x="224.9" y="102.6" transform="matrix(0.862 -0.5068 0.5068 0.862 -24.0437 133.5308)" class="st14" width="16.8" height="16.8"/>
		
			<linearGradient id="SVGID_00000178884077948012467730000007574181739327104409_" gradientUnits="userSpaceOnUse" x1="236.3208" y1="114.8477" x2="235.2431" y2="133.2507">
			<stop  offset="0.4031" style="stop-color:#FFC9C2"/>
			<stop  offset="0.8471" style="stop-color:#FF979B"/>
		</linearGradient>
		<polygon style="fill:url(#SVGID_00000178884077948012467730000007574181739327104409_);" points="243.7,134.5 226.5,133.4 
			227.8,114.2 245,115.3 		"/>
		<path class="st19" d="M220.2,98.5c1.7,2.6,3.5,5.3,5.2,7.9"/>
		<path class="st19" d="M223.8,92.4c2.3,4.3,4.6,8.6,6.9,12.9"/>
		<path class="st19" d="M230.5,92c2,4,4.1,8.1,6.1,12.1"/>
	</g>
	
		<linearGradient id="SVGID_00000061463961228324658930000011566996578480082057_" gradientUnits="userSpaceOnUse" x1="200.7325" y1="279.4073" x2="226.5016" y2="215.8769" gradientTransform="matrix(0.9988 -4.890000e-02 4.890000e-02 0.9988 0.1957 -33.4821)">
		<stop  offset="0" style="stop-color:#9C9E9D"/>
		<stop  offset="0.6103" style="stop-color:#FFFFFF"/>
	</linearGradient>
	<path style="fill:url(#SVGID_00000061463961228324658930000011566996578480082057_);" d="M255.8,127.5c-0.5,32.8,2.6,46.5,1.3,69.8
		c-0.4,7.5-5.4,13.7-12.2,16.3c-2.3,0.9-4.8,1.3-7.4,1.3c-10.3-0.2-18.1-8.5-17.6-18.5c1.3-24.3-0.8-36,2-68.3L255.8,127.5z"/>
	<path class="st10" d="M291.7,96.3l38.2,44c6.6,7.4,5.9,18.8-1.5,25.4c-2.6,2.3-5.8,3.8-9,4.3c-5.9,1-12.2-1-16.5-5.8l-36.8-46.4
		L291.7,96.3z"/>
	<g>
		<g>
			<path class="st4" d="M212.2,322.3l-11.4,0.4c-2.3,0.1-4.5,1-6.2,2.6l-28.2,26.3c-4.1,3.8-10,5.2-15.4,3.7l0,0
				c-8-2.3-11.4-11.7-6.6-18.5l51.7-72.5c4.7-6.6,14.5-7,19.8-0.8l11.6,13.5l-11.4,11.2c-2.4,2.3-3.3,5.7-2.4,8.9
				c1.6,6.1,3.7,16.3,1.7,22.7C215,321.2,213.7,322.2,212.2,322.3z"/>
			
				<radialGradient id="SVGID_00000000200914867740767590000006505447516679733439_" cx="1265.4792" cy="712.3322" r="63.137" gradientTransform="matrix(-0.9452 -0.3266 -0.3266 0.9452 1625.756 -19.8308)" gradientUnits="userSpaceOnUse">
				<stop  offset="0" style="stop-color:#9C9E9D"/>
				<stop  offset="0.6603" style="stop-color:#FFFFFF"/>
			</radialGradient>
			<path style="fill:url(#SVGID_00000000200914867740767590000006505447516679733439_);" d="M212.2,260.5
				c-5.5-2.8-12.3-1.5-16.1,3.8l-51.7,72.5c-4.8,6.7-1.4,16.2,6.6,18.5l0,0c11.7,2.7,15.4-3.7,24.6-12.2c0,0-2.9-6.6-13.2-15.3
				L212.2,260.5z"/>
		</g>
		<line class="st28" x1="146.3" y1="349.8" x2="211.7" y2="261.8"/>
	</g>
	<line class="st11" x1="221.7" y1="138.2" x2="253.8" y2="139.3"/>
	<line class="st11" x1="275.8" y1="128.6" x2="299.9" y2="107.3"/>
	<path class="st19" d="M307.2,275l7.5,46.2c0,0,3.3,13.1-15.3,22.5"/>
	<path class="st19" d="M269.1,315.1c0,0,1.8,13.3,4.3,17"/>
	<line class="st35" x1="241.4" y1="271.5" x2="346.7" y2="247.8"/>
</g>
</svg>
