<?xml version="1.0" encoding="utf-8"?>
<!-- Generator: Adobe Illustrator 27.7.0, SVG Export Plug-In . SVG Version: 6.00 Build 0)  -->
<svg version="1.1" id="레이어_1" xmlns="http://www.w3.org/2000/svg" xmlns:xlink="http://www.w3.org/1999/xlink" x="0px"
	 y="0px" viewBox="0 0 500 500" style="enable-background:new 0 0 500 500;" xml:space="preserve">
<style type="text/css">
	.st0{fill:#FF84AA;}
	.st1{opacity:0.43;}
	.st2{filter:url(#Adobe_OpacityMaskFilter);}
	.st3{mask:url(#SVGID_1_);}
	.st4{fill:#BBBBBB;}
	.st5{fill:#E6E6E6;}
	.st6{filter:url(#Adobe_OpacityMaskFilter_00000122712899022440576860000013296078223330597282_);}
	.st7{mask:url(#SVGID_00000126317971605034023060000014791260118317155732_);}
	.st8{fill:#FFFFFF;}
	.st9{opacity:0.43;fill:url(#SVGID_00000142865017943454841240000007843592735205789593_);}
	.st10{opacity:0.43;fill:url(#SVGID_00000165928414487641794320000006113421859186999683_);}
	
		.st11{opacity:0.49;fill:none;stroke:#909095;stroke-width:0.766;stroke-linecap:round;stroke-linejoin:round;stroke-miterlimit:10;}
	.st12{fill:#F9DEBA;}
	.st13{fill:#E74650;}
	.st14{fill:#FFFFFF;stroke:#E5BD8B;stroke-width:0.766;stroke-linecap:round;stroke-linejoin:round;stroke-miterlimit:10;}
	.st15{fill:#E5BD8B;}
	.st16{fill:#C7C3BE;}
	.st17{fill:none;stroke:#2C3135;stroke-width:1.0213;stroke-linecap:round;stroke-linejoin:round;stroke-miterlimit:10;}
	.st18{opacity:0.42;}
	.st19{filter:url(#Adobe_OpacityMaskFilter_00000104695350684991152140000000954630747851255223_);}
	.st20{mask:url(#SVGID_00000160875057827864932100000008635969728112833972_);}
	.st21{fill:#E8D5C3;}
	.st22{fill:#F9EDD1;}
	.st23{fill:#FFFFFF;stroke:#F6D68D;stroke-width:5.1067;stroke-miterlimit:10;}
	.st24{fill:#F6D68D;}
	.st25{fill:none;stroke:#909095;stroke-width:0.766;stroke-linecap:round;stroke-linejoin:round;stroke-miterlimit:10;}
	.st26{fill:#42464F;}
	.st27{fill:none;stroke:#2B323F;stroke-width:0.5107;stroke-linecap:round;stroke-linejoin:round;stroke-miterlimit:10;}
	.st28{fill:#2B323F;}
	.st29{fill:#42464F;stroke:#42464F;stroke-width:0.5107;stroke-linecap:round;stroke-linejoin:round;stroke-miterlimit:10;}
	.st30{fill:none;stroke:#6D7381;stroke-width:0.5107;stroke-linecap:round;stroke-linejoin:round;stroke-miterlimit:10;}
	.st31{fill:none;stroke:#2B323F;stroke-width:1.532;stroke-linecap:round;stroke-linejoin:round;stroke-miterlimit:10;}
	.st32{fill:#FFFFFF;stroke:#F6D68D;stroke-width:1.0213;stroke-linecap:round;stroke-linejoin:round;stroke-miterlimit:10;}
	.st33{fill:none;stroke:#E74650;stroke-width:9.1921;stroke-linecap:round;stroke-linejoin:round;stroke-miterlimit:10;}
	.st34{fill:#909095;}
	.st35{fill:url(#SVGID_00000074404862375619528790000012346268119941877379_);}
	.st36{fill:url(#SVGID_00000119102236592906977520000014978488935162965433_);}
	.st37{fill:#FFC9C2;}
	.st38{fill:none;stroke:#FF9299;stroke-width:0.766;stroke-linecap:round;stroke-linejoin:round;stroke-miterlimit:10;}
	.st39{fill:url(#SVGID_00000012431634320209692690000018110014251163388806_);}
	.st40{fill:url(#SVGID_00000168105487048397666100000006314672397947551665_);}
	.st41{fill:#2C3135;}
	.st42{fill:url(#SVGID_00000179642134943821053790000003337243818109191337_);}
	.st43{fill:url(#SVGID_00000168115869799076075790000002322564008575851408_);}
	.st44{fill:url(#SVGID_00000129909327692049880090000000029539579484185488_);}
	.st45{clip-path:url(#SVGID_00000026874068468395220860000005175936613481155514_);}
	.st46{opacity:0.44;fill:#E3E2DF;}
	.st47{fill:#72727C;}
	.st48{fill:url(#SVGID_00000057835759070450976820000014026866343025702331_);}
	.st49{clip-path:url(#SVGID_00000054226310758312002070000017431979602169075111_);}
	.st50{opacity:0.84;fill:url(#SVGID_00000117638379400465695390000007601737118094315407_);}
	.st51{fill:url(#SVGID_00000090281551307397200890000009343615551763849141_);}
	.st52{fill:url(#SVGID_00000101788212473530089330000010588841936518165434_);}
	.st53{fill:#2A2E38;}
	.st54{fill:#FFB4B4;}
	.st55{fill:#C13F47;}
	.st56{clip-path:url(#SVGID_00000094578773946012500010000004331019752520716171_);fill:#E34B5D;}
	.st57{fill:none;stroke:#232323;stroke-width:1.0213;stroke-linecap:round;stroke-linejoin:round;stroke-miterlimit:10;}
	.st58{fill:#FF7C88;}
	.st59{fill:#232323;}
	.st60{fill:none;stroke:#FF9299;stroke-width:1.0213;stroke-linecap:round;stroke-linejoin:round;stroke-miterlimit:10;}
	.st61{clip-path:url(#SVGID_00000036952940837736701620000012289250024202081922_);}
	.st62{fill:none;stroke:#5A595F;stroke-width:0.766;stroke-linecap:round;stroke-linejoin:round;stroke-miterlimit:10;}
	.st63{opacity:0.6;fill:url(#SVGID_00000135688988611650000890000002042606816215746493_);}
	.st64{fill:url(#SVGID_00000147193122225606703160000007500625215559792310_);}
	.st65{fill:url(#SVGID_00000119831878434453292980000017793217968573356974_);}
	.st66{fill:url(#SVGID_00000173880527010854170310000011096945096454731692_);}
	.st67{fill:url(#SVGID_00000047058354764296142220000001239107976582059185_);}
	.st68{fill:#33363C;}
	.st69{fill:url(#SVGID_00000036245422023525163340000017935557616463994505_);}
	.st70{fill:#4C5057;}
	.st71{fill:#4C5057;stroke:#2C3135;stroke-width:0.766;stroke-linecap:round;stroke-linejoin:round;stroke-miterlimit:10;}
	.st72{fill:none;stroke:#2C3135;stroke-width:0.766;stroke-linecap:round;stroke-linejoin:round;stroke-miterlimit:10;}
	.st73{fill:url(#SVGID_00000095318035692711184480000011282601110059016348_);}
	.st74{opacity:0.84;fill:url(#SVGID_00000173882551855311851020000005037657010919542954_);}
	.st75{opacity:0.62;fill:url(#SVGID_00000052791691131967316880000006061782368441850042_);}
	.st76{fill:url(#SVGID_00000008127725612507077550000012956446619028372389_);}
	.st77{fill:#FFBCB7;}
	.st78{fill:none;stroke:#2F2429;stroke-width:0.766;stroke-linecap:round;stroke-linejoin:round;stroke-miterlimit:10;}
	.st79{opacity:0.6;fill:url(#SVGID_00000096746124942825851010000003085665484180709532_);}
	.st80{opacity:0.35;fill:url(#SVGID_00000164489902816912521270000014667998859815682474_);}
	.st81{opacity:0.35;fill:url(#SVGID_00000097473503948511689280000017054923043845305998_);}
</style>
<g>
	<path class="st0" d="M395.2,307.3c-39.9-20.5-101.3-6.6-142.8,10.3c-41.5-16.9-100.4-31.3-140.3-10.8c-9,14.7-24.6,37.6-35.6,58.9
		c45.6-23.8,102.5-23.3,151.6-6.8c6.8,6.1,15.8,9.7,25,10l0,0c0.2,0,0.4,0,0.6,0c0.2,0,0.4,0,0.6,0l0,0c9.1-0.2,18.2-3.8,25-10
		c49.1-16.5,104.4-19.6,150,4.1C424.6,354.4,406.8,325.1,395.2,307.3z"/>
	<g class="st1">
		<defs>
			<filter id="Adobe_OpacityMaskFilter" filterUnits="userSpaceOnUse" x="76.5" y="310.4" width="351.9" height="56.8">
				<feFlood  style="flood-color:white;flood-opacity:1" result="back"/>
				<feBlend  in="SourceGraphic" in2="back" mode="normal"/>
			</filter>
		</defs>
		<mask maskUnits="userSpaceOnUse" x="76.5" y="310.4" width="351.9" height="56.8" id="SVGID_1_">
			<g class="st2">
				
					<image style="overflow:visible;" width="1483" height="254" xlink:href="F1A50298.jpg"  transform="matrix(0.24 0 0 0.24 74.4 308.4)">
				</image>
			</g>
		</mask>
		<g class="st3">
			<path class="st4" d="M403.9,327.3c-23.7-11.8-58.1-16.7-84.7-16.8c-20.6-0.1-50,1.7-67.8,11.9c-17.8-10.1-44.4-11.9-65.1-11.9
				c-26.6,0.1-61,5.1-84.7,16.8c-8.1,12-15.2,25.1-25.3,40c48.2-21.7,109.8-27.4,158.1-9.7c2.4,0.9,4.6,2,6.7,3.4
				c0.3,0.2,0.6,0.4,0.9,0.5c6.5,3.9,14.7,3.9,21.2,0c0.3-0.2,0.6-0.3,0.8-0.5c2.1-1.4,4.4-2.5,6.8-3.4
				c48.3-17.8,109.1-13.3,157.3,8.4C418.3,351.1,412,339.3,403.9,327.3z"/>
		</g>
	</g>
	<path class="st5" d="M399.4,313.9L426,357c-93.1-39.7-155-5-155-5c-12.4,11.1-28.8,3.9-28.8,3.9c-84.7-35.2-161.9,2.3-161.9,2.3
		l26.8-43.4L399.4,313.9z"/>
	<g class="st1">
		<defs>
			
				<filter id="Adobe_OpacityMaskFilter_00000031191562674861520020000017720769228143451327_" filterUnits="userSpaceOnUse" x="86.6" y="292" width="333.2" height="56.8">
				<feFlood  style="flood-color:white;flood-opacity:1" result="back"/>
				<feBlend  in="SourceGraphic" in2="back" mode="normal"/>
			</filter>
		</defs>
		
			<mask maskUnits="userSpaceOnUse" x="86.6" y="292" width="333.2" height="56.8" id="SVGID_00000014605706116314687380000005094617492080591533_">
			<g style="filter:url(#Adobe_OpacityMaskFilter_00000031191562674861520020000017720769228143451327_);">
				
					<image style="overflow:visible;" width="1406" height="254" xlink:href="F1A50299.jpg"  transform="matrix(0.24 0 0 0.24 84.48 289.92)">
				</image>
			</g>
		</mask>
		<g style="mask:url(#SVGID_00000014605706116314687380000005094617492080591533_);">
			<path class="st4" d="M396.6,308.9c-22.4-11.8-55-16.7-80.2-16.8c-19.5-0.1-47.3,1.7-64.2,11.9c-16.9-10.1-42.1-11.9-61.6-11.9
				c-25.2,0.1-57.8,5.1-80.2,16.8c-7.7,12-14.4,25.1-23.9,40c45.6-21.7,103.9-27.4,149.7-9.7c2.2,0.9,4.4,2,6.4,3.4
				c0.3,0.2,0.5,0.4,0.8,0.5c6.2,3.9,13.9,3.9,20.1,0c0.3-0.2,0.5-0.3,0.8-0.5c2-1.4,4.2-2.5,6.4-3.4
				c45.8-17.8,103.3-13.3,148.9,8.4C410.2,332.7,404.3,320.8,396.6,308.9z"/>
		</g>
	</g>
	<path class="st8" d="M395.2,307.3c-22.2-11.2-54.4-15.9-79.3-16c-19.3-0.1-46.8,1.7-63.5,11.2c-16.7-9.6-41.6-11.3-61-11.2
		c-24.9,0.1-57.2,4.8-79.3,16c-7.6,11.3-14.2,23.8-23.7,37.9c45.1-20.6,102.8-26,148.2-9.2c2.2,0.8,4.3,1.9,6.3,3.2
		c0.3,0.2,0.5,0.4,0.8,0.5c6.1,3.7,13.8,3.7,19.9,0c0.3-0.2,0.5-0.3,0.8-0.5c2-1.3,4.1-2.4,6.4-3.2c45.3-16.9,102.2-12.6,147.3,8
		C408.6,329.9,402.7,318.6,395.2,307.3z"/>
	
		<linearGradient id="SVGID_00000065757882723994635640000004505058693926955415_" gradientUnits="userSpaceOnUse" x1="271.1928" y1="317.8588" x2="190.8009" y2="318.0876">
		<stop  offset="0" style="stop-color:#9C9E9D"/>
		<stop  offset="0.6103" style="stop-color:#FFFFFF"/>
	</linearGradient>
	<path style="opacity:0.43;fill:url(#SVGID_00000065757882723994635640000004505058693926955415_);" d="M252.3,302.5
		c-16.7-9.6-41.6-11.3-61-11.2c-24.9,0.1-57.2,4.8-79.3,16c-7.6,11.3-14.2,23.8-23.7,37.9c45.1-20.6,102.8-26,148.2-9.2
		c2.2,0.8,4.3,1.9,6.3,3.2c0.3,0.2,3.9,3.6,9.6,3.2l-0.2-39.7V302.5z"/>
	
		<linearGradient id="SVGID_00000056407918910222822770000007921764556695286421_" gradientUnits="userSpaceOnUse" x1="-2467.5042" y1="317.8156" x2="-2549.3916" y2="318.0487" gradientTransform="matrix(-1 0 0 1 -2234.3267 0)">
		<stop  offset="0" style="stop-color:#9C9E9D"/>
		<stop  offset="0.6103" style="stop-color:#FFFFFF"/>
	</linearGradient>
	<path style="opacity:0.43;fill:url(#SVGID_00000056407918910222822770000007921764556695286421_);" d="M252.5,342.4
		c7.3,0.6,12-3.3,12.2-3.4c2-1.3,4.3-2.2,6.5-3c45.3-16.8,103.1-11.4,148.2,9.2c-9.4-14.1-16.1-26.6-23.7-37.9
		c-22.2-11.2-54.4-15.9-79.3-16c-19.3-0.1-47.4,1.7-64.1,11.2L252.5,342.4z"/>
	<line class="st11" x1="252.2" y1="302.5" x2="252.5" y2="338.9"/>
	<path class="st11" d="M86.6,348.9c55.7-24,111-24.3,165.9,0"/>
	<path class="st11" d="M83.5,354.2c55.7-24,114.1-24.3,169,0"/>
	<path class="st11" d="M419.4,348.9c-54.8-24.9-111-24.3-165.9,0"/>
	<path class="st11" d="M422.6,354.2c-57.3-27.6-114.1-24.3-169,0"/>
</g>
<g>
	<rect x="149.6" y="231.8" class="st12" width="205.8" height="87.2"/>
	<polygon class="st13" points="361.4,245.4 145.8,245.4 149.3,211.4 357.9,211.4 	"/>
	<g>
		<g>
			<rect x="158.9" y="258.2" class="st14" width="12.2" height="14.6"/>
			<rect x="164.7" y="258" class="st15" width="0.6" height="14.8"/>
			
				<rect x="164.7" y="259.2" transform="matrix(-1.836970e-16 1 -1 -1.836970e-16 430.2718 100.2978)" class="st15" width="0.6" height="12.2"/>
			<rect x="156.8" y="272.3" class="st16" width="16.3" height="2"/>
		</g>
		<g>
			<rect x="195.7" y="258.2" class="st14" width="12.2" height="14.6"/>
			<rect x="201.4" y="258" class="st15" width="0.6" height="14.8"/>
			
				<rect x="201.4" y="259.2" transform="matrix(-1.836970e-16 1 -1 -1.836970e-16 467.0301 63.5395)" class="st15" width="0.6" height="12.2"/>
			<rect x="193.6" y="272.3" class="st16" width="16.3" height="2"/>
		</g>
		<g>
			<rect x="177.3" y="258.2" class="st14" width="12.2" height="14.6"/>
			<rect x="183" y="258" class="st15" width="0.6" height="14.8"/>
			
				<rect x="183" y="259.2" transform="matrix(-1.836970e-16 1 -1 -1.836970e-16 448.646 81.9236)" class="st15" width="0.6" height="12.2"/>
			<rect x="175.2" y="272.3" class="st16" width="16.3" height="2"/>
		</g>
		<g>
			<rect x="158.9" y="288.8" class="st14" width="12.2" height="14.6"/>
			<rect x="164.7" y="288.7" class="st15" width="0.6" height="14.8"/>
			
				<rect x="164.7" y="289.8" transform="matrix(-1.836970e-16 1 -1 -1.836970e-16 460.912 130.938)" class="st15" width="0.6" height="12.2"/>
			<rect x="156.8" y="303" class="st16" width="16.3" height="2"/>
		</g>
		<g>
			<rect x="195.7" y="288.8" class="st14" width="12.2" height="14.6"/>
			<rect x="201.4" y="288.7" class="st15" width="0.6" height="14.8"/>
			
				<rect x="201.4" y="289.8" transform="matrix(-1.836970e-16 1 -1 -1.836970e-16 497.6703 94.1797)" class="st15" width="0.6" height="12.2"/>
			<rect x="193.6" y="303" class="st16" width="16.3" height="2"/>
		</g>
		<g>
			<rect x="177.3" y="288.8" class="st14" width="12.2" height="14.6"/>
			<rect x="183" y="288.7" class="st15" width="0.6" height="14.8"/>
			
				<rect x="183" y="289.8" transform="matrix(-1.836970e-16 1 -1 -1.836970e-16 479.2862 112.5638)" class="st15" width="0.6" height="12.2"/>
			<rect x="175.2" y="303" class="st16" width="16.3" height="2"/>
		</g>
	</g>
	<g>
		<g>
			<rect x="298.3" y="258.2" class="st14" width="12.2" height="14.6"/>
			<rect x="304.1" y="258" class="st15" width="0.6" height="14.8"/>
			
				<rect x="304.1" y="259.2" transform="matrix(-1.836970e-16 1 -1 -1.836970e-16 569.6847 -39.1152)" class="st15" width="0.6" height="12.2"/>
			<rect x="296.2" y="272.3" class="st16" width="16.3" height="2"/>
		</g>
		<g>
			<rect x="335.1" y="258.2" class="st14" width="12.2" height="14.6"/>
			<rect x="340.8" y="258" class="st15" width="0.6" height="14.8"/>
			
				<rect x="340.8" y="259.2" transform="matrix(-1.836970e-16 1 -1 -1.836970e-16 606.443 -75.8734)" class="st15" width="0.6" height="12.2"/>
			<rect x="333" y="272.3" class="st16" width="16.3" height="2"/>
		</g>
		<g>
			<rect x="316.7" y="258.2" class="st14" width="12.2" height="14.6"/>
			<rect x="322.5" y="258" class="st15" width="0.6" height="14.8"/>
			
				<rect x="322.5" y="259.2" transform="matrix(-1.836970e-16 1 -1 -1.836970e-16 588.0588 -57.4893)" class="st15" width="0.6" height="12.2"/>
			<rect x="314.6" y="272.3" class="st16" width="16.3" height="2"/>
		</g>
		<g>
			<rect x="298.3" y="288.8" class="st14" width="12.2" height="14.6"/>
			<rect x="304.1" y="288.7" class="st15" width="0.6" height="14.8"/>
			
				<rect x="304.1" y="289.8" transform="matrix(-1.836970e-16 1 -1 -1.836970e-16 600.3249 -8.475)" class="st15" width="0.6" height="12.2"/>
			<rect x="296.2" y="303" class="st16" width="16.3" height="2"/>
		</g>
		<g>
			<rect x="335.1" y="288.8" class="st14" width="12.2" height="14.6"/>
			<rect x="340.8" y="288.7" class="st15" width="0.6" height="14.8"/>
			
				<rect x="340.8" y="289.8" transform="matrix(-1.836970e-16 1 -1 -1.836970e-16 637.0832 -45.2332)" class="st15" width="0.6" height="12.2"/>
			<rect x="333" y="303" class="st16" width="16.3" height="2"/>
		</g>
		<g>
			<rect x="316.7" y="288.8" class="st14" width="12.2" height="14.6"/>
			<rect x="322.5" y="288.7" class="st15" width="0.6" height="14.8"/>
			
				<rect x="322.5" y="289.8" transform="matrix(-1.836970e-16 1 -1 -1.836970e-16 618.6991 -26.8491)" class="st15" width="0.6" height="12.2"/>
			<rect x="314.6" y="303" class="st16" width="16.3" height="2"/>
		</g>
	</g>
	<line class="st17" x1="148.9" y1="218.3" x2="358.3" y2="218.3"/>
	<line class="st17" x1="148.1" y1="227.1" x2="359.1" y2="227.1"/>
	<line class="st17" x1="147.2" y1="236.5" x2="360" y2="236.5"/>
	<g class="st18">
		<defs>
			
				<filter id="Adobe_OpacityMaskFilter_00000113321227121674137320000004355998143049776570_" filterUnits="userSpaceOnUse" x="180.1" y="245.4" width="144.7" height="73.6">
				<feFlood  style="flood-color:white;flood-opacity:1" result="back"/>
				<feBlend  in="SourceGraphic" in2="back" mode="normal"/>
			</filter>
		</defs>
		
			<mask maskUnits="userSpaceOnUse" x="180.1" y="245.4" width="144.7" height="73.6" id="SVGID_00000093885329682460739750000015188037464432588675_">
			<g style="filter:url(#Adobe_OpacityMaskFilter_00000113321227121674137320000004355998143049776570_);">
				
					<image style="overflow:visible;" width="620" height="324" xlink:href="F1A5029F.jpg"  transform="matrix(0.24 0 0 0.24 178.08 243.36)">
				</image>
			</g>
		</mask>
		<g style="mask:url(#SVGID_00000093885329682460739750000015188037464432588675_);">
			<rect x="180.1" y="245.4" class="st21" width="144.7" height="73.6"/>
		</g>
	</g>
	<polygon class="st22" points="289.1,319 215.8,319 215.8,185.6 252.5,160.3 289.1,185.6 	"/>
	
		<ellipse transform="matrix(0.1613 -0.9869 0.9869 0.1613 14.3798 416.3568)" class="st23" cx="252.2" cy="199.7" rx="11.6" ry="11.6"/>
	<rect x="231.4" y="270" class="st8" width="42.2" height="49.1"/>
	<rect x="227" y="266.9" class="st24" width="50.7" height="6.9"/>
	<line class="st25" x1="252" y1="273.8" x2="252" y2="319"/>
	<g>
		<line class="st17" x1="252.2" y1="193.8" x2="252.2" y2="201.1"/>
		<line class="st17" x1="255.9" y1="198.3" x2="252.2" y2="201.1"/>
	</g>
	<g>
		<polygon class="st26" points="280.1,171.5 244.5,115.2 313.5,133.3 337.8,195.5 		"/>
		<g>
			<path class="st27" d="M336.7,195.2c-1.1,9,1.7,17.4,7.6,25.4"/>
			<g>
				<path class="st28" d="M345.9,222.8l-2.5,0.3c-0.3,0-0.5-0.2-0.5-0.4l-0.2-1.8c0-0.3,0.2-0.5,0.4-0.5l2.5-0.3
					c0.3,0,0.5,0.2,0.5,0.4l0.2,1.8C346.3,222.6,346.1,222.8,345.9,222.8z"/>
				<path class="st28" d="M346.9,229.4l-3.3,0.3c-0.6,0.1-1.1-0.5-1.1-1.2l0.2-5.5c-0.1-0.7,0.3-1.4,0.9-1.4l1.7-0.2
					c0.6-0.1,1.1,0.5,1.1,1.2l1.3,5.3C347.9,228.7,347.5,229.4,346.9,229.4z"/>
			</g>
		</g>
		<path class="st29" d="M300.3,195.3l-49.2-39.8l12.7-15.7c20.4,7.7,36.7,21.1,49.2,39.8L300.3,195.3z"/>
		<path class="st30" d="M263.8,139.8c20.4,7.7,36.7,21.1,49.2,39.8"/>
		<polyline class="st31" points="244.5,115.2 313.5,133.3 337.8,195.5 		"/>
	</g>
	<g>
		<g>
			<rect x="229.2" y="227.8" class="st32" width="19.2" height="23.4"/>
			<rect x="238.3" y="227.8" class="st24" width="1.1" height="23.5"/>
			
				<rect x="238.1" y="229.9" transform="matrix(-1.836970e-16 1 -1 -1.836970e-16 478.3381 0.7617)" class="st24" width="1.3" height="19.3"/>
			<rect x="226" y="250.4" class="st16" width="25.5" height="2"/>
		</g>
		<g>
			<rect x="258.8" y="227.8" class="st32" width="19.2" height="23.4"/>
			<rect x="267.9" y="227.8" class="st24" width="1.1" height="23.5"/>
			
				<rect x="267.8" y="229.9" transform="matrix(-1.836970e-16 1 -1 -1.836970e-16 507.957 -28.8572)" class="st24" width="1.3" height="19.3"/>
			<rect x="255.7" y="250.4" class="st16" width="25.5" height="2"/>
		</g>
	</g>
	<g>
		<line class="st33" x1="209.5" y1="194.9" x2="252.5" y2="160.3"/>
		<line class="st33" x1="295.5" y1="194.9" x2="252.5" y2="160.3"/>
	</g>
	<path class="st34" d="M249.7,299.4h-0.9c-0.3,0-0.5-0.2-0.5-0.5v-4.5c0-0.3,0.2-0.5,0.5-0.5h0.9c0.3,0,0.5,0.2,0.5,0.5v4.5
		C250.2,299.2,250,299.4,249.7,299.4z"/>
	<path class="st34" d="M255.3,299.4h-0.9c-0.3,0-0.5-0.2-0.5-0.5v-4.5c0-0.3,0.2-0.5,0.5-0.5h0.9c0.3,0,0.5,0.2,0.5,0.5v4.5
		C255.9,299.2,255.6,299.4,255.3,299.4z"/>
</g>
<g>
	
		<linearGradient id="SVGID_00000158740672585434054920000006554506356772683166_" gradientUnits="userSpaceOnUse" x1="165.5545" y1="320.2043" x2="150.9431" y2="299.8977">
		<stop  offset="0" style="stop-color:#9C9E9D"/>
		<stop  offset="0.6103" style="stop-color:#FFFFFF"/>
	</linearGradient>
	<polygon style="fill:url(#SVGID_00000158740672585434054920000006554506356772683166_);" points="149.4,322.3 168.6,310.5 
		126.1,240.9 106.9,252.7 	"/>
	<g>
		
			<linearGradient id="SVGID_00000154393035610611007970000017671808374414196102_" gradientUnits="userSpaceOnUse" x1="161.7633" y1="165.6063" x2="144.1741" y2="180.921">
			<stop  offset="0.2217" style="stop-color:#FF979B"/>
			<stop  offset="0.2641" style="stop-color:#FFA8A9"/>
			<stop  offset="0.325" style="stop-color:#FFBBB7"/>
			<stop  offset="0.389" style="stop-color:#FFC5BF"/>
			<stop  offset="0.4609" style="stop-color:#FFC9C2"/>
			<stop  offset="0.6712" style="stop-color:#FFC7C0"/>
			<stop  offset="0.7938" style="stop-color:#FFBEBA"/>
			<stop  offset="0.8938" style="stop-color:#FFB0AF"/>
			<stop  offset="0.9812" style="stop-color:#FF9C9F"/>
			<stop  offset="1" style="stop-color:#FF979B"/>
		</linearGradient>
		<path style="fill:url(#SVGID_00000154393035610611007970000017671808374414196102_);" d="M152,164.3c0,0-5.7,3.5-5.6,8.4l-3.5,5.2
			l7.8,7c3.5-5.3,9.8-5.9,9.8-10.3l-1.3-9.4L152,164.3z"/>
		<path class="st37" d="M149,174.8C149,174.8,148.9,174.8,149,174.8c-1.5,0-2.6-1.2-2.6-2.7c0-3.1,1.2-6.3,3.2-8.7l0.4-5.1
			c0.1-1.4,1.4-2.5,2.8-2.4c1.4,0.1,2.5,1.4,2.4,2.8l-0.5,6c-0.1,0.6-0.3,1.2-0.8,1.6c-1.4,1.4-2.3,3.6-2.4,5.8
			C151.6,173.7,150.4,174.8,149,174.8z"/>
		<path class="st37" d="M156.2,170.3c-1.1,0-2-0.8-2.1-1.9c-0.1-1.2,0.7-2.3,1.9-2.4l4.1-0.5c1.2-0.1,2.3,0.7,2.4,1.9
			c0.1,1.2-0.7,2.3-1.9,2.4l-4.1,0.5C156.4,170.3,156.3,170.3,156.2,170.3z"/>
		<path class="st37" d="M156.5,173.8c-1,0-1.9-0.7-2.1-1.8c-0.2-1.2,0.5-2.3,1.7-2.5l4.2-0.8c1.2-0.2,2.3,0.5,2.5,1.7
			c0.2,1.2-0.5,2.3-1.7,2.5l-4.2,0.8C156.7,173.8,156.6,173.8,156.5,173.8z"/>
		<path class="st37" d="M157.7,177.1c-1.1,0-2-0.8-2.1-1.9c-0.2-1.2,0.7-2.3,1.8-2.4l3.2-0.4c1.2-0.2,2.3,0.7,2.4,1.8
			c0.2,1.2-0.7,2.3-1.8,2.4L158,177C157.9,177.1,157.8,177.1,157.7,177.1z"/>
		<path class="st37" d="M155.7,166.8c-1.1,0-2-0.8-2.1-1.9c-0.2-1.2,0.7-2.3,1.8-2.4l4-0.5c1.2-0.2,2.3,0.7,2.4,1.8
			c0.2,1.2-0.7,2.3-1.8,2.4l-4,0.5C155.9,166.8,155.8,166.8,155.7,166.8z"/>
		<path class="st38" d="M155,166.6c1.7-0.5,3.4-0.8,5.1-1"/>
		<path class="st38" d="M155.7,170.2c1.9-0.4,3.7-0.7,5.6-0.8"/>
		<path class="st38" d="M156.8,173.2c1.6-0.2,3.1-0.4,4.7-0.7"/>
		<path class="st38" d="M156,176.8c-0.7-0.1-1.4-0.7-1.6-1.4c-0.2-0.7,0-1.6,0.6-2.1c-0.5-0.4-0.7-0.7-0.7-1s0-0.6,0.1-0.9
			c0.1-0.4,0.3-0.8,0.6-1.3c-0.5-0.3-0.9-0.9-1-1.5c-0.1-0.6,0.2-1.3,0.7-1.6c-0.5-0.5-1-1.2-1.1-1.9c-0.1-0.8,0.3-1.6,1-1.9"/>
	</g>
	
		<linearGradient id="SVGID_00000049937978158963331050000015995855095945800865_" gradientUnits="userSpaceOnUse" x1="49.3438" y1="288.5701" x2="85.3913" y2="283.2238">
		<stop  offset="0" style="stop-color:#9C9E9D"/>
		<stop  offset="0.6103" style="stop-color:#FFFFFF"/>
	</linearGradient>
	<polygon style="fill:url(#SVGID_00000049937978158963331050000015995855095945800865_);" points="95,292.2 91.1,270.8 58.6,276.8 
		62.5,298.2 	"/>
	
		<linearGradient id="SVGID_00000132051137915000819670000014557150135222756486_" gradientUnits="userSpaceOnUse" x1="110.189" y1="277.1736" x2="61.4389" y2="287.7084">
		<stop  offset="0" style="stop-color:#1C2129"/>
		<stop  offset="0.5981" style="stop-color:#2C3135"/>
	</linearGradient>
	<path style="fill:url(#SVGID_00000132051137915000819670000014557150135222756486_);" d="M76.5,296.8c4.6-1,8.1-1.9,12.3-2.8
		c7.8-1.6,15.1-3.1,23.4-5.2c6.4-1.6,10.2-8.2,8.6-14.6c-1.6-6.4-8.2-10.2-14.6-8.6c-7.7,2-14.8,3.4-22.2,4.9
		c-4.3,0.9-7.9,1.8-12.7,2.9L76.5,296.8z"/>
	<g>
		<path class="st41" d="M65.9,275.9c-0.4,10.3,0.6,17.9,3.4,18.3l1.3,0c2.1,0,3.9,1.8,3.9,3.9l0.3,14.1c0.1,3.5-2.5,6.4-6,6.6
			c-3.3,0.1-6.2-2.3-6.8-5.5c0,0,0,0,0-0.1l-6.9-34.5c-0.2-1.1,0.5-2.2,1.6-2.4l6.6-1.1l1.4-0.2C65.4,274.9,65.9,275.3,65.9,275.9z"
			/>
		
			<radialGradient id="SVGID_00000011735927944575287500000005694508429330004906_" cx="65.0596" cy="297.585" r="16.5575" gradientUnits="userSpaceOnUse">
			<stop  offset="0.1237" style="stop-color:#9C9E9D"/>
			<stop  offset="0.4522" style="stop-color:#FFFFFF"/>
			<stop  offset="0.781" style="stop-color:#FFFFFF"/>
		</radialGradient>
		<path style="fill:url(#SVGID_00000011735927944575287500000005694508429330004906_);" d="M56.8,276.4c-1.1,0.2-1.8,1.3-1.6,2.4
			l6.9,34.5c0,0,0,0,0,0.1c0.1,2.2,3.2,6.1,7.5,5.4c6.4-1.1,5.2-6.5,5.1-11.7c0,0-7.5-2.7-12-0.1L56.8,276.4z"/>
		<line class="st17" x1="64.9" y1="316.8" x2="57.1" y2="276.8"/>
	</g>
	<g>
		<path class="st41" d="M146.3,316.9c10.4-3.1,17.5-6.6,17.1-9.5l-0.4-1.3c-0.7-2.1,0.5-4.4,2.6-5.1l13.9-5.1
			c3.4-1.3,7.2,0.3,8.5,3.5c1.2,3.2-0.3,6.8-3.2,8.4c0,0,0,0-0.1,0l-32,18.4c-1,0.6-2.3,0.3-2.9-0.7l-3.3-6l-0.7-1.3
			C145.5,317.7,145.8,317.1,146.3,316.9z"/>
		<path class="st8" d="M149.8,325.5c0.5,1,1.9,1.3,2.9,0.7l32-18.4c0,0,0,0,0.1,0c2.2-0.9,5.1-5.1,2.9-9.1c-3.2-5.8-8.2-2.8-13.3-1
			c0,0-0.3,8.1,3.8,11.6L149.8,325.5z"/>
		<line class="st17" x1="188.1" y1="303.7" x2="149.8" y2="325.5"/>
	</g>
	
		<linearGradient id="SVGID_00000180366392706981729130000014856558782665733823_" gradientUnits="userSpaceOnUse" x1="68.0343" y1="241.1145" x2="87.8348" y2="201.5434">
		<stop  offset="0" style="stop-color:#9C9E9D"/>
		<stop  offset="0.6103" style="stop-color:#FFFFFF"/>
	</linearGradient>
	<path style="fill:url(#SVGID_00000180366392706981729130000014856558782665733823_);" d="M69.8,235.7c-2.4,0.2-4.9-0.6-6.9-2.3
		c-4-3.4-4.5-9.5-1.1-13.5c1.5-1.8,4.1-5.7,6.5-9.1c2.6-3.9,5.1-7.5,7.1-10c1.1-1.4,5.6-5.7,9.6-7.1c4.5-1.5,8.3-2,11.2-1.4
		c5.2,1.1,8.5,6.2,7.4,11.3c-1,4.8-5.4,8-10.2,7.6c-0.4,0.1-1,0.2-1.6,0.4c-0.5,0.4-1.4,1.1-1.7,1.4c-1.4,1.8-3.7,5.2-5.9,8.4
		c-2.9,4.3-5.6,8.3-7.8,10.9C74.6,234.4,72.2,235.5,69.8,235.7z M90.1,212.9C90.1,212.9,90.1,212.9,90.1,212.9
		C90.1,212.9,90.1,212.9,90.1,212.9z M92.1,211.4C92.1,211.4,92.1,211.4,92.1,211.4S92.1,211.4,92.1,211.4z M92.2,211.1
		C92.2,211.1,92.2,211.1,92.2,211.1C92.2,211.1,92.2,211.1,92.2,211.1z"/>
	<path class="st41" d="M162.2,297.9c-5.5-8.8-10.6-16.9-15.5-24.8c-8.2-13.2-16-25.6-24.9-39.3c-3.7-5.6-11.4-7.4-17.3-4
		c-5.9,3.4-7.7,10.8-4.1,16.4c8.8,13.5,16.5,25.9,24.6,39c4.9,7.9,10,16.1,15.6,24.9L162.2,297.9z"/>
	<path class="st8" d="M154.4,187.4c-10.1,6.1-24.8,15.9-36.6,20.9c-1.2,0.5-2.5,0.8-3.8,0.8c-3.7,0-7.2-2.2-8.8-5.8
		c-2.1-4.8,0.1-10.5,5-12.6c11-4.7,24.9-14.1,34.3-19.7L154.4,187.4z"/>
	
		<linearGradient id="SVGID_00000095326256721419197680000002645375378842517930_" gradientUnits="userSpaceOnUse" x1="90.1333" y1="285.3332" x2="103.0246" y2="256.2118">
		<stop  offset="0" style="stop-color:#1C2129"/>
		<stop  offset="0.5981" style="stop-color:#2C3135"/>
	</linearGradient>
	<path style="fill:url(#SVGID_00000095326256721419197680000002645375378842517930_);" d="M114.5,252c2.2,5.2,3.2,10,4.3,14.6
		c0.5,2.4,1,4.6,1.7,6.9c1.8,6.3-1.7,13-7.8,14.8c-1.1,0.3-2.1,0.5-3.2,0.5c-5,0-9.6-3.4-11-8.6c-0.8-2.9-1.4-5.7-2-8.1
		c-0.5-2.3-2.7-7.4-3.3-9.4c-6-3.5-8.8-8.8-10-12.3c-1.7-4.9-1.6-6.1-0.4-11.6c1.4-6.4,7.6-10.5,13.7-9L114.5,252z"/>
	<g>
		<defs>
			<path id="SVGID_00000065754623379311803830000004708666518875563428_" d="M144.5,171.1c-9.4,5.7-23.3,15-34.3,19.7
				c-1.2,0.5-2.3,1.3-3.2,2.2l0.7-1.4c0.2-0.3,0-0.8-0.4-0.7L91,191.7c-0.3,0-0.5,0.3-0.4,0.6c-1.7,0.3-3.6,0.7-5.6,1.4
				c-4,1.4-8.5,5.7-9.6,7.1c-2,2.4-4.5,6.1-7.1,10c-2.3,3.4-4.9,7.3-6.4,9.1c-0.2,0.3-0.4,0.5-0.6,0.8c-0.1,0.1-0.1,0.2-0.2,0.2
				c-0.1,0.2-0.2,0.4-0.3,0.5c-0.1,0.2-0.2,0.4-0.3,0.6c0,0.1-0.1,0.2-0.1,0.3c-0.4,0.9-0.6,1.8-0.7,2.8c0,0.2,0,0.4,0,0.7
				c0,0.1,0,0.2,0,0.3c0,0.2,0,0.5,0,0.7c0,0.1,0,0.1,0,0.2c0,0.2,0.1,0.4,0.1,0.6c0,0.1,0,0.2,0,0.3c0,0.2,0.1,0.3,0.1,0.5
				c0,0.1,0.1,0.3,0.1,0.4c0,0.1,0.1,0.3,0.1,0.4c0.1,0.2,0.1,0.3,0.2,0.5c0,0.1,0.1,0.2,0.1,0.3c0.1,0.2,0.2,0.4,0.3,0.6
				c0,0.1,0.1,0.1,0.1,0.2c0.1,0.2,0.2,0.4,0.4,0.6c0,0.1,0.1,0.1,0.1,0.2c0.1,0.2,0.2,0.4,0.4,0.5c0.6,0.7,1.3,1.4,2.1,2
				c0.1,0.1,0.2,0.1,0.2,0.2c0.2,0.1,0.4,0.2,0.5,0.3c0.2,0.1,0.4,0.2,0.7,0.3c0.1,0,0.1,0.1,0.2,0.1c0.3,0.1,0.6,0.3,1,0.4
				c2.4,0.8,4.9,1.7,7.7,2.7c4.6,1.7,15.9,4.9,20.6,6.2l5-18.5c-3-0.8-10.1-2.8-15.2-4.4c2.1-3.2,4.3-6.4,5.7-8.2
				c0.4-0.4,1.2-1.1,1.7-1.4c0.6-0.2,1.2-0.3,1.6-0.4c4.8,0.4,9.2-2.8,10.2-7.6c0.2-1.2,0.3-2.3,0.1-3.4l1-2c-0.2,1.7,0,3.5,0.7,5.1
				c1.6,3.6,5.1,5.8,8.8,5.8c1.3,0,2.5-0.3,3.8-0.8c11.8-5.1,26.5-14.8,36.6-20.9L144.5,171.1z"/>
		</defs>
		<clipPath id="SVGID_00000097472552804850275940000003197560160381610641_">
			<use xlink:href="#SVGID_00000065754623379311803830000004708666518875563428_"  style="overflow:visible;"/>
		</clipPath>
		<g style="clip-path:url(#SVGID_00000097472552804850275940000003197560160381610641_);">
			<polygon class="st46" points="163.1,247.3 163.6,252.5 54.8,262.9 54.3,257.6 			"/>
			<polygon class="st46" points="162,235.4 162.5,240.6 53.7,251 53.2,245.7 			"/>
			<polygon class="st46" points="160.9,223.5 161.4,228.7 52.6,239.1 52.1,233.8 			"/>
			<polygon class="st46" points="159.8,211.6 160.3,216.8 51.5,227.2 51,221.9 			"/>
			<polygon class="st46" points="158.7,199.7 159.1,204.9 50.4,215.3 49.9,210 			"/>
			<polygon class="st46" points="157.5,187.8 158,193 49.2,203.4 48.7,198.1 			"/>
			<polygon class="st46" points="156.4,175.9 156.9,181.1 48.1,191.5 47.6,186.2 			"/>
			<polygon class="st46" points="155.3,164 155.8,169.2 47,179.5 46.5,174.3 			"/>
			<polygon class="st46" points="154.2,152.1 154.7,157.3 45.9,167.6 45.4,162.4 			"/>
			<polygon class="st46" points="63.3,270.4 59,270.8 48.1,153.8 52.3,153.4 			"/>
			<polygon class="st46" points="79.3,268.9 75.1,269.3 64.1,152.3 68.4,151.9 			"/>
			<polygon class="st46" points="95.4,267.4 91.1,267.8 80.2,150.8 84.4,150.4 			"/>
			<polygon class="st46" points="111.4,265.9 107.2,266.3 96.2,149.3 100.5,148.9 			"/>
			<polygon class="st46" points="127.5,264.4 123.2,264.8 112.3,147.8 116.5,147.4 			"/>
			<polygon class="st46" points="143.5,262.9 139.3,263.3 128.3,146.3 132.6,145.9 			"/>
			<polygon class="st46" points="159.6,261.4 155.3,261.8 144.4,144.8 148.6,144.4 			"/>
		</g>
	</g>
	<path class="st47" d="M79.7,242.6c-1.1,0-2-1-1.8-2.1c2.1-11,5-33.1,6.8-42.8c1-5.6,4.5-5.8,8.5-6.2l17.6-0.6
		c4.6-0.5,8.9,2.4,10.2,6.8c2.8,9.7,5.4,29.9,7.5,41c0.2,1.1-0.6,2-1.6,2.1L79.7,242.6z"/>
	<path class="st8" d="M107.3,190.9L91,191.7c-0.4,0-0.6,0.5-0.4,0.8l9.9,10.9c0.4,0.6,1.3,0.5,1.7-0.1l5.6-11.6
		C108,191.3,107.7,190.9,107.3,190.9z"/>
	<g>
		<path class="st37" d="M109.7,242c0.3-0.4,0.4-0.9,0.2-1.5c-0.2-1.3-1.6-2.3-2.9-2.2c-0.4,0-0.8,0-1.1-0.2
			c-0.8-0.3-1.7-0.3-2.4,0.2c-0.9,0.6-1.9,0.6-2.3,0.3c-1.1-0.9-2.7-0.8-3.5,0.2c-0.8,1-0.5,2.5,0.6,3.3c2.1,1.6,5,1.9,7.4,0.8
			c0.7,0.2,1.5,0.2,2.2,0.2C108.7,243,109.4,242.6,109.7,242z"/>
		<path class="st37" d="M110.9,239.3c0.1-0.2,0.2-0.3,0.2-0.5c0.3-1.2-0.6-2.4-1.9-2.9l-2.1-0.7c-1.3-0.4-2.6,0.2-2.8,1.4
			c-0.3,1.2,0.6,2.4,1.9,2.9l2.1,0.7C109.3,240.4,110.4,240.1,110.9,239.3z"/>
		<path class="st37" d="M112.1,236.5c0.1-0.1,0.1-0.3,0.2-0.4c0.3-1.1-0.5-2.4-1.8-2.8l-2.1-0.8c-1.3-0.5-2.6,0-2.8,1.1
			c-0.3,1.1,0.5,2.4,1.8,2.8l2.1,0.8C110.5,237.6,111.6,237.3,112.1,236.5z"/>
		<path class="st37" d="M109,230.1c0.1-0.3,0.2-0.7,0.1-1.1c-0.2-1.1-1.3-1.9-2.4-1.8c-1.3,0.1-2.6,0.6-3.6,1.5
			c-0.9,0.7-0.9,2-0.2,2.9c0.8,0.9,2.1,1,2.9,0.3c0.4-0.3,0.9-0.6,1.5-0.6C108.1,231.2,108.7,230.7,109,230.1z"/>
		<path class="st37" d="M112.6,233.5c0.1-0.1,0.1-0.3,0.2-0.5c0.3-1.4-0.5-2.1-1.4-2.5c-0.8-0.4-1.8-0.6-3.4-0.9
			c-1.8-1.3-4.2-1.4-6.6-0.3c-0.4,0.2-0.8,0.5-1.1,0.9c-1.8,2.6-3,5.6-3.5,8.7c-0.2,1.4,0.7,2.7,2.1,2.9c1.4,0.2,2.7-0.8,2.9-2.2
			c0.3-2.1,1.1-4.1,2.2-5.9c0.5-0.1,0.8-0.7,1-0.6c0.3,0.3,0.8,0.5,1.2,0.6c1.6,0.3,2.5,0.6,3.3,0.9
			C110.8,235,112,234.5,112.6,233.5z"/>
		
			<linearGradient id="SVGID_00000054257281725335069820000000607383097546789535_" gradientUnits="userSpaceOnUse" x1="-1958.12" y1="1154.4293" x2="-1956.51" y2="1148.2841" gradientTransform="matrix(-0.548 0.8476 0.9573 0.5443 -2077.657 1267.14)">
			<stop  offset="0" style="stop-color:#FFC9C2"/>
			<stop  offset="1" style="stop-color:#FF979B"/>
		</linearGradient>
		<polygon style="fill:url(#SVGID_00000054257281725335069820000000607383097546789535_);" points="105.2,242.8 107.7,232 
			91.8,227.6 89.2,238.4 		"/>
		<path class="st38" d="M103.9,230c1.6-0.4,3.4-0.5,5-0.2"/>
		<path class="st38" d="M111.2,234.2c-1.3-0.3-2.6-0.6-3.9-0.8"/>
		<path class="st38" d="M110.6,237.4c-0.8-0.3-1.7-0.6-2.5-0.8"/>
		<path class="st38" d="M109.7,240.1c-0.9-0.4-1.9-0.7-2.9-1c0,0,0.1,0,0.1,0"/>
	</g>
	<g>
		<defs>
			<path id="SVGID_00000044882396893744152380000017517574879568500126_" d="M107.3,190.9L91,191.7c-0.4,0-0.6,0.5-0.4,0.8l9.9,10.9
				c0.4,0.6,1.3,0.5,1.7-0.1l5.6-11.6C108,191.3,107.7,190.9,107.3,190.9z"/>
		</defs>
		<clipPath id="SVGID_00000005953577918543147910000014774109240262188170_">
			<use xlink:href="#SVGID_00000044882396893744152380000017517574879568500126_"  style="overflow:visible;"/>
		</clipPath>
		<g style="clip-path:url(#SVGID_00000005953577918543147910000014774109240262188170_);">
			<polygon class="st46" points="163.1,247.3 163.6,252.5 54.8,262.9 54.3,257.6 			"/>
			<polygon class="st46" points="162,235.4 162.5,240.6 53.7,251 53.2,245.7 			"/>
			<polygon class="st46" points="160.9,223.5 161.4,228.7 52.6,239.1 52.1,233.8 			"/>
			<polygon class="st46" points="159.8,211.6 160.3,216.8 51.5,227.2 51,221.9 			"/>
			<polygon class="st46" points="158.7,199.7 159.1,204.9 50.4,215.3 49.9,210 			"/>
			<polygon class="st46" points="157.5,187.8 158,193 49.2,203.4 48.7,198.1 			"/>
			<polygon class="st46" points="156.4,175.9 156.9,181.1 48.1,191.5 47.6,186.2 			"/>
			<polygon class="st46" points="155.3,164 155.8,169.2 47,179.5 46.5,174.3 			"/>
			<polygon class="st46" points="154.2,152.1 154.7,157.3 45.9,167.6 45.4,162.4 			"/>
			<polygon class="st46" points="63.3,270.4 59,270.8 48.1,153.8 52.3,153.4 			"/>
			<polygon class="st46" points="79.3,268.9 75.1,269.3 64.1,152.3 68.4,151.9 			"/>
			<polygon class="st46" points="95.4,267.4 91.1,267.8 80.2,150.8 84.4,150.4 			"/>
			<polygon class="st46" points="111.4,265.9 107.2,266.3 96.2,149.3 100.5,148.9 			"/>
			<polygon class="st46" points="127.5,264.4 123.2,264.8 112.3,147.8 116.5,147.4 			"/>
			<polygon class="st46" points="143.5,262.9 139.3,263.3 128.3,146.3 132.6,145.9 			"/>
			<polygon class="st46" points="159.6,261.4 155.3,261.8 144.4,144.8 148.6,144.4 			"/>
		</g>
	</g>
	<path class="st25" d="M93.1,192.7c1.2,1.5,2.5,3,4,4.2c0.2,0.2,0.4,0.4,0.7,0.3c0.2,0,0.4-0.2,0.6-0.4c0.6-0.7,1.1-1.4,1.7-2.1
		c0.8,0.5,1.5,1,2.3,1.5c0.2,0.1,0.5,0.3,0.7,0.2c0.2-0.1,0.3-0.3,0.4-0.5c0.6-1.3,1-2.6,1.4-4"/>
	
		<radialGradient id="SVGID_00000090294668339909668830000010121456501665036179_" cx="97.9463" cy="189.4996" r="10.1139" gradientUnits="userSpaceOnUse">
		<stop  offset="0.2426" style="stop-color:#7388A7;stop-opacity:0.9609"/>
		<stop  offset="0.9405" style="stop-color:#7388A7;stop-opacity:0"/>
	</radialGradient>
	<path style="opacity:0.84;fill:url(#SVGID_00000090294668339909668830000010121456501665036179_);" d="M107.4,189.7
		c-0.5,5.5-5.2,9.5-10.4,9c-5.2-0.5-9-5.3-8.5-10.8c0.5-5.5,5.2-9.5,10.4-9C104.1,179.5,107.9,184.3,107.4,189.7z"/>
	
		<linearGradient id="SVGID_00000032608435616082919820000016307237127435779232_" gradientUnits="userSpaceOnUse" x1="73.3133" y1="197.1701" x2="81.5702" y2="236.2554">
		<stop  offset="0" style="stop-color:#9C9E9D"/>
		<stop  offset="0.6103" style="stop-color:#FFFFFF"/>
	</linearGradient>
	<path style="fill:url(#SVGID_00000032608435616082919820000016307237127435779232_);" d="M99.5,225.7c-4-1.1-14.9-4.2-19.1-5.7
		c-2.9-1-5.7-2-8.3-2.9c-5-1.6-10.4,1.2-12,6.2c-1.6,5,1.2,10.4,6.2,12c2.4,0.8,5,1.7,7.7,2.7c4.6,1.7,15.9,4.9,20.6,6.2L99.5,225.7
		z"/>
	<g>
		<g>
			
				<radialGradient id="SVGID_00000148629813782081858420000018163489909745032628_" cx="97.9668" cy="189.442" r="18.57" fx="80.4287" fy="195.5461" gradientUnits="userSpaceOnUse">
				<stop  offset="0.4165" style="stop-color:#FFC9C2"/>
				<stop  offset="1" style="stop-color:#FF979B"/>
			</radialGradient>
			<path style="fill:url(#SVGID_00000148629813782081858420000018163489909745032628_);" d="M89.1,188.7c1.9,5,7.3,7.6,12,5.8
				c4.8-1.8,7.1-7.3,5.2-12.3c-1.9-5-7.3-7.6-12-5.8C89.6,178.2,87.3,183.7,89.1,188.7z"/>
			<path class="st53" d="M99.6,178.3c0,0-2.8,4.6-9.4,8.8l-1.5,0.4c0,0-2.2-8,5.6-11.2c0,0,6.8-2.9,11.3,4.2
				C105.6,180.6,101.1,180.2,99.6,178.3z"/>
			<path class="st54" d="M91.8,189c0.6,1.5,0,3-1.1,3.5c-1.2,0.4-2.6-0.4-3.1-1.9c-0.6-1.5,0-3,1.1-3.5
				C89.9,186.6,91.3,187.5,91.8,189z"/>
		</g>
		<g>
			<g>
				<g>
					<path class="st55" d="M102,186.5c0.3-0.1,0.6,0.1,0.6,0.4c0.1,0.5,0,1.1-0.2,1.7c-0.1,0.4-0.4,0.8-0.7,1.2
						c-0.4,0.4-1,0.6-1.5,0.6c-0.5,0-0.9-0.2-1.2-0.5c-0.6-0.4-1-1-1.2-1.6c-0.1-0.3,0-0.6,0.3-0.7L102,186.5z"/>
					<g>
						<defs>
							<path id="SVGID_00000122694079506070371570000002999531878663540875_" d="M102,186.5c0.3-0.1,0.6,0.1,0.6,0.4
								c0.1,0.5,0,1.1-0.2,1.7c-0.1,0.4-0.4,0.8-0.7,1.2c-0.4,0.4-1,0.6-1.5,0.6c-0.5,0-0.9-0.2-1.2-0.5c-0.6-0.4-1-1-1.2-1.6
								c-0.1-0.3,0-0.6,0.3-0.7L102,186.5z"/>
						</defs>
						<clipPath id="SVGID_00000109009189480284967310000014963537106874529161_">
							<use xlink:href="#SVGID_00000122694079506070371570000002999531878663540875_"  style="overflow:visible;"/>
						</clipPath>
						<path style="clip-path:url(#SVGID_00000109009189480284967310000014963537106874529161_);fill:#E34B5D;" d="M102.5,188.6
							c0,0-2.1-0.6-4.4,0.4l1.1,1.8l2.5-0.6L102.5,188.6z"/>
					</g>
				</g>
				<path class="st57" d="M100.1,186c1.2-0.6,0.5-1.2,0.5-1.2l-1.2-1.3c-0.2-0.3-0.4-0.6-0.3-1l0-0.5"/>
				<path class="st58" d="M93.1,188.9c0.3,1.1,1.4,1.8,2.6,1.5c1.1-0.3,1.8-1.4,1.5-2.6c-0.3-1.1-1.4-1.8-2.6-1.5
					C93.4,186.6,92.8,187.7,93.1,188.9z"/>
				<path class="st58" d="M102.1,185.5c0.3,1.1,1.4,1.8,2.6,1.5c1.1-0.3,1.8-1.4,1.5-2.6c-0.3-1.1-1.4-1.8-2.6-1.5
					C102.4,183.2,101.8,184.4,102.1,185.5z"/>
				<path class="st59" d="M100.8,183.1c0.2,0.3,0.6,0.5,0.9,0.3c0.3-0.2,0.5-0.6,0.3-0.9c-0.2-0.3-0.6-0.5-0.9-0.3
					C100.8,182.3,100.6,182.7,100.8,183.1z"/>
				<path class="st59" d="M95.2,184.7c0.2,0.3,0.6,0.5,0.9,0.3c0.3-0.2,0.5-0.6,0.3-0.9c-0.2-0.3-0.6-0.5-0.9-0.3
					C95.2,184,95,184.4,95.2,184.7z"/>
			</g>
		</g>
		<path class="st60" d="M88.7,189.3c0.7-0.1,1.4,0.2,1.8,0.8"/>
	</g>
	<g>
		<defs>
			<path id="SVGID_00000153664570754028540020000010668265207585735581_" d="M99.5,225.7c-4-1.1-14.9-4.2-19.1-5.7
				c-2.9-1-5.7-2-8.3-2.9c-5-1.6-10.4,1.2-12,6.2c-1.6,5,1.2,10.4,6.2,12c2.4,0.8,5,1.7,7.7,2.7c4.6,1.7,15.9,4.9,20.6,6.2
				L99.5,225.7z"/>
		</defs>
		<clipPath id="SVGID_00000121236906202945580990000016620648580849610412_">
			<use xlink:href="#SVGID_00000153664570754028540020000010668265207585735581_"  style="overflow:visible;"/>
		</clipPath>
		<g style="clip-path:url(#SVGID_00000121236906202945580990000016620648580849610412_);">
			<polygon class="st46" points="163.1,247.3 163.6,252.5 54.8,262.9 54.3,257.6 			"/>
			<polygon class="st46" points="162,235.4 162.5,240.6 53.7,251 53.2,245.7 			"/>
			<polygon class="st46" points="160.9,223.5 161.4,228.7 52.6,239.1 52.1,233.8 			"/>
			<polygon class="st46" points="159.8,211.6 160.3,216.8 51.5,227.2 51,221.9 			"/>
			<polygon class="st46" points="158.7,199.7 159.1,204.9 50.4,215.3 49.9,210 			"/>
			<polygon class="st46" points="157.5,187.8 158,193 49.2,203.4 48.7,198.1 			"/>
			<polygon class="st46" points="156.4,175.9 156.9,181.1 48.1,191.5 47.6,186.2 			"/>
			<polygon class="st46" points="155.3,164 155.8,169.2 47,179.5 46.5,174.3 			"/>
			<polygon class="st46" points="154.2,152.1 154.7,157.3 45.9,167.6 45.4,162.4 			"/>
			<polygon class="st46" points="63.3,270.4 59,270.8 48.1,153.8 52.3,153.4 			"/>
			<polygon class="st46" points="79.3,268.9 75.1,269.3 64.1,152.3 68.4,151.9 			"/>
			<polygon class="st46" points="95.4,267.4 91.1,267.8 80.2,150.8 84.4,150.4 			"/>
			<polygon class="st46" points="111.4,265.9 107.2,266.3 96.2,149.3 100.5,148.9 			"/>
			<polygon class="st46" points="127.5,264.4 123.2,264.8 112.3,147.8 116.5,147.4 			"/>
			<polygon class="st46" points="143.5,262.9 139.3,263.3 128.3,146.3 132.6,145.9 			"/>
			<polygon class="st46" points="159.6,261.4 155.3,261.8 144.4,144.8 148.6,144.4 			"/>
		</g>
	</g>
	<path class="st25" d="M138.7,175.3c3.1,5.3,6.2,10.6,9.2,15.9"/>
	<path class="st25" d="M87,241.7c2.2-5.8,4-11.7,5.3-17.7"/>
	<line class="st62" x1="79" y1="272.5" x2="84.8" y2="294.6"/>
	<line class="st62" x1="137.8" y1="302.8" x2="157" y2="291.8"/>
	
		<radialGradient id="SVGID_00000038407399537362654590000017382246980117100723_" cx="111.6104" cy="258.9221" r="21.0354" gradientUnits="userSpaceOnUse">
		<stop  offset="0" style="stop-color:#7388A7;stop-opacity:0.9609"/>
		<stop  offset="0.9113" style="stop-color:#7388A7;stop-opacity:0"/>
	</radialGradient>
	<path style="opacity:0.6;fill:url(#SVGID_00000038407399537362654590000017382246980117100723_);" d="M121.2,277.5
		c0,0,0.4-3.5-5.3-20.5l1.1-8l14.3,30.7l-4.4,8.5l-5.6-9L121.2,277.5z"/>
	<path class="st62" d="M121.1,278.9c0.5-2.8-0.9-7.4-0.9-7.4l-4.3-14.5l1.4-10.2"/>
</g>
<g>
	
		<linearGradient id="SVGID_00000045613228546169944450000008481837383496660411_" gradientUnits="userSpaceOnUse" x1="87.0613" y1="1220.7046" x2="122.5402" y2="1215.4425" gradientTransform="matrix(0.6492 -0.7606 0.7606 0.6492 -634.8598 -407.4006)">
		<stop  offset="0" style="stop-color:#9C9E9D"/>
		<stop  offset="0.6103" style="stop-color:#FFFFFF"/>
	</linearGradient>
	<polygon style="fill:url(#SVGID_00000045613228546169944450000008481837383496660411_);" points="382,287 363.5,276.3 347.2,304.4 
		365.7,315.1 	"/>
	
		<linearGradient id="SVGID_00000140730625777702517470000001444410295071709083_" gradientUnits="userSpaceOnUse" x1="-1616.9349" y1="430.3422" x2="-1581.457" y2="425.0803" gradientTransform="matrix(-0.9622 0.2725 -0.2725 -0.9622 -969.9225 1102.455)">
		<stop  offset="0" style="stop-color:#9C9E9D"/>
		<stop  offset="0.6103" style="stop-color:#FFFFFF"/>
	</linearGradient>
	<polygon style="fill:url(#SVGID_00000140730625777702517470000001444410295071709083_);" points="424.4,256.6 433.9,275.8 
		463,261.4 453.6,242.2 	"/>
	<g>
		
			<linearGradient id="SVGID_00000012463800444416320860000015088997608443283616_" gradientUnits="userSpaceOnUse" x1="451.2142" y1="128.0587" x2="440.3303" y2="150.9321">
			<stop  offset="0.2264" style="stop-color:#FF979B"/>
			<stop  offset="0.4609" style="stop-color:#FFC9C2"/>
			<stop  offset="0.6674" style="stop-color:#FFC7C0"/>
			<stop  offset="0.7878" style="stop-color:#FFBEBA"/>
			<stop  offset="0.886" style="stop-color:#FFB0AF"/>
			<stop  offset="0.9718" style="stop-color:#FF9C9F"/>
			<stop  offset="0.9903" style="stop-color:#FF979B"/>
		</linearGradient>
		<path style="fill:url(#SVGID_00000012463800444416320860000015088997608443283616_);" d="M444.9,153.1c-0.4,0-0.7-0.1-1.1-0.2
			l-5.6-2.4c-1.2-0.5-1.9-1.9-1.5-3.2l1.1-3.7c-0.6-2.2-1.7-7.6,0.4-10.7c0.9-1.4,2.3-2.2,3.9-2.4c0.4,0,0.8,0,1.2,0.1l11,3.8
			c1.2,0.4,1.9,1.6,1.8,2.8c-0.2,1.6-0.4,3.4-1,5.1c-0.8,2.1-2,3.8-3.7,4.9c-0.7,0.4-1.3,0.7-1.9,1c-0.2,0.1-0.3,0.1-0.4,0.2
			c-0.4,0.8-1.2,2.2-1.9,3.4C446.7,152.7,445.8,153.1,444.9,153.1z"/>
		<path class="st37" d="M437.8,142.9c-0.1-0.1-0.2-0.4-0.3-0.6c-0.2-0.3-0.4-0.7-0.6-1.2c-0.7-1.6-0.8-3.7-0.4-5.7
			c0-0.1,0.1-0.3,0.1-0.4c0.1-0.6,0.3-1.5,0.8-2.3c0.4-0.6,0.8-1.1,1.4-1.6c3-2.2,6.2-0.5,7.6,0.3c1.3,0.7,1.8,2.3,1.1,3.6
			c-0.7,1.3-2.3,1.8-3.6,1.1c-1.2-0.7-1.2-0.5-1.2-0.5c0,0,0,0,0,0.1c0.1,0.2,3.7,2.1,3.4,5.8"/>
		<path class="st37" d="M446.9,138.1c-0.3,0-0.5,0-0.8-0.1c-1.4-0.4-2.2-1.9-1.8-3.3c0-0.1,0.1-0.3,0.1-0.4
			c-0.8,0.1-1.6-0.2-2.2-0.8c-1-1-1-2.7,0-3.8c0.9-0.9,2.6-2.3,4.6-1.9c1.2,0.2,2.2,0.9,2.7,2.1c0.6,1.1,0.5,2.3,0.4,3
			c-0.1,1.2-0.3,2.3-0.7,3.5C449.1,137.3,448,138.1,446.9,138.1z"/>
		<path class="st37" d="M449.6,138.2c-0.5,0-1-0.1-1.4-0.4c-1.3-0.8-1.6-2.4-0.8-3.7c0.4-0.6,0.4-1.5,0.1-2.2
			c-0.7-1.3-0.1-2.9,1.2-3.6c1.3-0.7,2.9-0.1,3.6,1.2c1.1,2.3,1,5.2-0.4,7.4C451.3,137.8,450.5,138.2,449.6,138.2z"/>
		<path class="st37" d="M452,139c-0.5,0-0.9-0.1-1.4-0.4c-1.3-0.7-1.7-2.4-1-3.7c0.4-0.6,0.5-1.5,0.2-2.2c-0.5-1.4,0.2-2.9,1.6-3.4
			c1.4-0.5,2.9,0.2,3.4,1.6c0.8,2.2,0.6,4.7-0.6,6.7C453.9,138.6,453,139,452,139z"/>
		<path class="st37" d="M453.9,140.7c-0.6,0-1.2-0.2-1.7-0.6c-1.1-0.9-1.3-2.6-0.4-3.8c0.4-0.5,0.5-1.3,0.3-1.9
			c-0.6-1.3,0-2.9,1.3-3.5c1.3-0.6,2.9,0,3.5,1.3c1.1,2.5,0.7,5.5-1,7.6C455.5,140.4,454.7,140.7,453.9,140.7z"/>
		<path class="st38" d="M442.2,130.3c1.8,0.6,3.6,1.3,5.3,2.3c0.5,0.3,1.1,0.7,1.5,1.2c0.4,0.5,0.6,1.2,0.4,1.8
			c-0.2,0.8-1,1.3-1.8,1.5s-1.7-0.1-2.4-0.4c-0.8-0.3-1.6-0.6-2.4-0.7c1,0.4,1.8,1.1,2.4,1.9c0.6,0.9,0.9,1.9,0.8,3"/>
		<path class="st38" d="M448.3,129.2c-0.1,0.9-0.2,1.7-0.2,2.6"/>
		<path class="st38" d="M451.7,130c0.2,2.4-0.4,4.9-1.6,7"/>
		<path class="st38" d="M454.6,131.5c0,2.3-0.8,4.6-2.1,6.5"/>
		<path class="st38" d="M445.8,137.7c0.8,0.4,1.7,0.5,2.6,0.3c0.5,0.6,1.4,0.8,2.1,0.4c0.3,0.5,1,0.9,1.8,1c0.1,0.6,0.6,1.2,1.2,1.4
			c0.6,0.2,1.3,0,1.8-0.5"/>
	</g>
	<g>
		
			<linearGradient id="SVGID_00000149373035885430821420000010657796328593690772_" gradientUnits="userSpaceOnUse" x1="-1466.5846" y1="127.9787" x2="-1477.4684" y2="150.852" gradientTransform="matrix(-1 0 0 1 -1102.7548 0)">
			<stop  offset="0.2264" style="stop-color:#FF979B"/>
			<stop  offset="0.4609" style="stop-color:#FFC9C2"/>
			<stop  offset="0.6674" style="stop-color:#FFC7C0"/>
			<stop  offset="0.7878" style="stop-color:#FFBEBA"/>
			<stop  offset="0.886" style="stop-color:#FFB0AF"/>
			<stop  offset="0.9718" style="stop-color:#FF9C9F"/>
			<stop  offset="0.9903" style="stop-color:#FF979B"/>
		</linearGradient>
		<path style="fill:url(#SVGID_00000149373035885430821420000010657796328593690772_);" d="M367.9,151.8c-0.7-1.2-1.5-2.5-1.9-3.4
			c-0.1-0.1-0.3-0.1-0.4-0.2c-0.6-0.3-1.3-0.6-1.9-1c-1.6-1.1-2.9-2.8-3.7-4.9c-0.6-1.7-0.8-3.5-1-5.1c-0.1-1.2,0.6-2.4,1.8-2.8
			l11-3.8c0.4-0.1,0.8-0.2,1.2-0.1c1.7,0.2,3,1,3.9,2.4c2.1,3.1,1,8.5,0.4,10.7l1.1,3.7c0.4,1.3-0.3,2.7-1.5,3.2l-5.6,2.4
			c-0.3,0.2-0.7,0.2-1.1,0.2C369.3,153,368.4,152.6,367.9,151.8z"/>
		<path class="st37" d="M377.2,142.8c0.1-0.1,0.2-0.4,0.3-0.6c0.2-0.3,0.4-0.7,0.6-1.2c0.7-1.6,0.8-3.7,0.4-5.7
			c0-0.1-0.1-0.3-0.1-0.4c-0.1-0.6-0.3-1.5-0.8-2.3c-0.4-0.6-0.8-1.1-1.4-1.6c-3-2.2-6.2-0.5-7.6,0.3c-1.3,0.7-1.8,2.3-1.1,3.6
			c0.7,1.3,2.3,1.8,3.6,1.1c1.2-0.7,1.2-0.5,1.2-0.5c0,0,0,0,0,0.1c-0.1,0.2-3.7,2.1-3.4,5.8"/>
		<path class="st37" d="M368.2,138c0.3,0,0.5,0,0.8-0.1c1.4-0.4,2.2-1.9,1.8-3.3c0-0.1-0.1-0.3-0.1-0.4c0.8,0.1,1.6-0.2,2.2-0.8
			c1-1,1-2.7,0-3.8c-0.9-0.9-2.6-2.3-4.6-1.9c-1.2,0.2-2.2,0.9-2.7,2.1c-0.6,1.1-0.5,2.3-0.4,3c0.1,1.2,0.3,2.3,0.7,3.5
			C366,137.3,367,138,368.2,138z"/>
		<path class="st37" d="M365.5,138.1c0.5,0,1-0.1,1.4-0.4c1.3-0.8,1.6-2.4,0.8-3.7c-0.4-0.6-0.4-1.5-0.1-2.2
			c0.7-1.3,0.1-2.9-1.2-3.6c-1.3-0.7-2.9-0.1-3.6,1.2c-1.1,2.3-1,5.2,0.4,7.4C363.7,137.7,364.6,138.1,365.5,138.1z"/>
		<path class="st37" d="M363,139c0.5,0,0.9-0.1,1.4-0.4c1.3-0.7,1.7-2.4,1-3.7c-0.4-0.6-0.5-1.5-0.2-2.2c0.5-1.4-0.2-2.9-1.6-3.4
			c-1.4-0.5-2.9,0.2-3.4,1.6c-0.8,2.2-0.6,4.7,0.6,6.7C361.2,138.5,362.1,139,363,139z"/>
		<path class="st37" d="M361.1,140.6c0.6,0,1.2-0.2,1.7-0.6c1.1-0.9,1.3-2.6,0.4-3.8c-0.4-0.5-0.5-1.3-0.3-1.9
			c0.6-1.3,0-2.9-1.3-3.5c-1.3-0.6-2.9,0-3.5,1.3c-1.1,2.5-0.7,5.5,1,7.6C359.6,140.3,360.3,140.6,361.1,140.6z"/>
		<path class="st38" d="M372.8,130.2c-1.8,0.6-3.6,1.3-5.3,2.3c-0.5,0.3-1.1,0.7-1.5,1.2c-0.4,0.5-0.6,1.2-0.4,1.8
			c0.2,0.8,1,1.3,1.8,1.5c0.8,0.1,1.7-0.1,2.4-0.4c0.8-0.3,1.6-0.6,2.4-0.7c-1,0.4-1.8,1.1-2.4,1.9c-0.6,0.9-0.9,1.9-0.8,3"/>
		<path class="st38" d="M366.7,129.1c0.1,0.9,0.2,1.7,0.2,2.6"/>
		<path class="st38" d="M363.3,130c-0.2,2.4,0.4,4.9,1.6,7"/>
		<path class="st38" d="M360.4,131.4c0,2.3,0.8,4.6,2.1,6.5"/>
		<path class="st38" d="M369.2,137.6c-0.8,0.4-1.7,0.5-2.6,0.3c-0.5,0.6-1.4,0.8-2.1,0.4c-0.3,0.5-1,0.9-1.8,1
			c-0.1,0.6-0.6,1.2-1.2,1.4c-0.6,0.2-1.3,0-1.8-0.5"/>
	</g>
	<g>
		<path class="st47" d="M372.8,308.1l37.4-69.2c3.1-5.8,1.9-12.9-8.4-17.3c-6.2-2.6-11.8-3.1-14.9,2.7l-39,71.4L372.8,308.1z"/>
		<path class="st47" d="M449.3,269.6c-5.8,3.8-15.7,8.5-22.1,11.4c-2.1,0.9-4.3,1.3-6.4,1c-4-0.4-7.6-2.7-9.6-6.3
			c-4.8-8.8-11.9-19.1-13.8-26.8c-0.8-3.2-2.2-12.4-1.8-15.5c-0.5-4.7-0.5-8.3,2.5-8.4c5.1-0.2,18.4-1.7,24,2
			c3.6,2.4,6.1,12.9,4.4,19.9c0.4,1.4,1.5,5.2,1.9,6.5c1.1-0.7,12-5.6,13.2-6.3"/>
		
			<rect x="387.2" y="217.9" transform="matrix(0.9949 0.1012 -0.1012 0.9949 24.5462 -39.8662)" class="st47" width="36.2" height="8.3"/>
	</g>
	<g>
		<path class="st68" d="M360.7,305c0.6-2.2,0.2-4.6-1.1-6.6c-0.7-1.2-1.8-2.3-3-3.1c-1.3-0.9-3.1-0.8-4.4,0.1
			c-1.7,1.3-3.3,2.3-5,3.1c-3.7,0.5-7.5-0.3-11.3-1c-3.7-0.7-7.6-1.3-11.3-0.6c-3.1,0.6-6.1,2.3-7.3,5c-0.5,1-0.2,2.1,0.6,2.9
			c3.8,3.6,9.1,5.8,14.2,7.7c5.7,2,11.7,3.8,16.5,7.2c2.3,1.6,4.5,3.6,7.3,4.1c3.6,0.6,7.3-1.5,9.2-4.4c1.5-2.3,2.2-4.9,2.7-7.5
			c0.2-1.2-0.4-2.5-1.6-3.2C364.5,307.7,361.8,306,360.7,305z"/>
		
			<radialGradient id="SVGID_00000093175516270812556860000012201919551751020176_" cx="344.4008" cy="330.7003" r="34.8325" gradientUnits="userSpaceOnUse">
			<stop  offset="0" style="stop-color:#9C9E9D"/>
			<stop  offset="0.6603" style="stop-color:#FFFFFF"/>
		</radialGradient>
		<path style="fill:url(#SVGID_00000093175516270812556860000012201919551751020176_);" d="M365.3,319.5c0,0-3.3,5.3-9.2,4.4
			c-2.8-0.4-5-2.5-7.3-4.1c-4.9-3.4-10.8-5.2-16.5-7.2c-5.2-1.8-10.4-4-14.2-7.7c-0.8-0.8-1.1-1.9-0.6-2.9c1.3-2.7,4.3-4.4,7.3-5
			c3.7-0.7,7.5-0.1,11.3,0.6c0,0,6.6,1.4,6.5,10.9C342.5,308.5,362.4,320.6,365.3,319.5z"/>
		<path class="st17" d="M317.2,303.4c0,0,3.7-5,20,5.9c0,0,17.7,12.3,24.9,12.9"/>
	</g>
	<path class="st70" d="M382,143.4c5,11.1,11.7,23.1,19.1,32.8c3.4,4.5,2.5,10.9-2.1,14.2c-2,1.4-4.2,2.1-6.5,2c-3.1-0.1-6-1.5-8-4.1
		c-8.3-11-15.8-24.2-21.4-36.8L382,143.4z"/>
	<path class="st70" d="M454.5,153.7c-4.8,9.7-17.4,27.8-25.5,35c-2,1.8-4.5,2.7-7,2.7c-2.8,0-5.6-1.1-7.7-3.3
		c-3.9-4.2-3.6-10.6,0.7-14.4c6.2-5.5,17.2-21.5,20.8-28.8L454.5,153.7z"/>
	<path class="st70" d="M381.6,223.5c-0.4,0-0.8-0.4-0.7-0.9c1.1-11.5,2.8-31,4.7-40.5c1-5,5.2-8.6,10-8.4l27.5,0.9
		c5.2,0.2,9.4,4.7,9.5,10.2l0,41.2c0,0.5-0.4,0.8-0.8,0.8L381.6,223.5z"/>
	<polygon class="st8" points="415.8,173.4 399.3,173.6 403.9,197.3 	"/>
	<path class="st25" d="M412.8,178.1c-1.2,1.6-2.6,3-4.1,4.3c-0.2,0.2-0.4,0.4-0.7,0.3c-0.3,0-0.4-0.2-0.6-0.4
		c-0.6-0.7-1.2-1.4-1.7-2.1c-0.8,0.5-1.6,1-2.3,1.5c-0.2,0.1-0.5,0.3-0.7,0.2c-0.2-0.1-0.3-0.3-0.4-0.5c-0.6-1.3-1.1-2.7-1.5-4"/>
	<path class="st71" d="M403.5,197.9c4.1-7.4,8.1-15.9,12-24c2.1,2,2.9,3.2,4.2,5.5c-2.2,2.4-4.3,5.1-7.3,7.7
		c1.1,1.2,2.3,2.5,3.1,3.9L403.5,197.9z"/>
	<path class="st71" d="M403.5,197.1c-1.3-7.5-2.6-15.1-4.1-22.7c-1.3,1-2.4,2.4-3.4,4.1c1.3,1.5,2.5,3.1,3.7,4.7
		c-1.1,1.6-2.2,3.1-3.1,4.8C398.8,191,403.5,197.1,403.5,197.1z"/>
	<path class="st72" d="M403.5,197.9c-0.9,8.9-1.4,17.2-1.4,26.3"/>
	<g>
		<path class="st68" d="M448.6,266.9l4.9,1.5c1,0.3,1.8,0.9,2.4,1.8l9.2,14.7c1.3,2.1,3.7,3.4,6.3,3.4h0c3.7-0.1,6.3-3.8,5-7.3
			l-14.1-37.4c-1.3-3.4-5.5-4.7-8.5-2.6l-6.6,4.5l3.6,6.2c0.8,1.3,0.8,2.9,0,4.1c-1.4,2.5-3.5,6.6-3.3,9.7
			C447.5,266.1,447.9,266.7,448.6,266.9z"/>
		
			<radialGradient id="SVGID_00000083800132292259967330000015532505976419368880_" cx="475.4735" cy="308.6008" r="28.3626" gradientTransform="matrix(0.9973 -7.320000e-02 7.320000e-02 0.9973 -32.1613 -39.9335)" gradientUnits="userSpaceOnUse">
			<stop  offset="0" style="stop-color:#9C9E9D"/>
			<stop  offset="0.6603" style="stop-color:#FFFFFF"/>
		</radialGradient>
		<path style="fill:url(#SVGID_00000083800132292259967330000015532505976419368880_);" d="M455.6,240.1c2.7-0.6,5.5,0.8,6.6,3.5
			l14.1,37.4c1.3,3.5-1.2,7.2-5,7.3h0c-5.4-0.2-6.3-3.4-9.3-8.1c0,0,2-2.5,7.5-5.1L455.6,240.1z"/>
		<line class="st17" x1="474" y1="286.4" x2="455.8" y2="240.7"/>
	</g>
	
		<radialGradient id="SVGID_00000101098984302542635170000017236573547483696562_" cx="406.8333" cy="175.4366" r="9.972" gradientUnits="userSpaceOnUse">
		<stop  offset="0.2426" style="stop-color:#7388A7;stop-opacity:0.9609"/>
		<stop  offset="0.9405" style="stop-color:#7388A7;stop-opacity:0"/>
	</radialGradient>
	<path style="opacity:0.84;fill:url(#SVGID_00000101098984302542635170000017236573547483696562_);" d="M416.1,175.7
		c-0.5,5.4-5.1,9.4-10.2,8.9c-5.1-0.5-8.9-5.2-8.4-10.6c0.5-5.4,5.1-9.4,10.2-8.9C412.9,165.5,416.6,170.3,416.1,175.7z"/>
	
		<radialGradient id="SVGID_00000054256306259043822030000001064759984635058870_" cx="398.66" cy="247.3867" r="10.6461" fx="394.3765" fy="246.5202" gradientUnits="userSpaceOnUse">
		<stop  offset="0.2426" style="stop-color:#7388A7;stop-opacity:0.9609"/>
		<stop  offset="0.9405" style="stop-color:#7388A7;stop-opacity:0"/>
	</radialGradient>
	<polygon style="opacity:0.62;fill:url(#SVGID_00000054256306259043822030000001064759984635058870_);" points="394.8,238.6 
		400.7,256.6 394.2,268.5 	"/>
	<g>
		
			<radialGradient id="SVGID_00000164499562409981090010000016053318537840662972_" cx="407.192" cy="171.5295" r="15.9547" fx="400.4556" fy="172.7872" gradientUnits="userSpaceOnUse">
			<stop  offset="0.4165" style="stop-color:#FFC9C2"/>
			<stop  offset="1" style="stop-color:#FF979B"/>
		</radialGradient>
		<path style="fill:url(#SVGID_00000164499562409981090010000016053318537840662972_);" d="M416.3,171.8c-0.5,5.3-5,9.2-10.1,8.7
			s-8.7-5.2-8.2-10.4c0.5-5.3,5-9.2,10.1-8.7C413.1,161.8,416.8,166.5,416.3,171.8z"/>
		<path class="st53" d="M401.6,163.2c3.5-2.8,6.5-1.9,6.5-1.9l0,0c2.3,0,6.9,1.7,8.1,7.4l-1.7,2.5c-0.2-1.4-3.4-6.2-3.4-6.2
			s-3.4,1.2-6,1.9c-0.1,0-0.2-0.1-0.1-0.2l0.5-1.1c0,0-3.6,1.9-6.9,2.1c0.4-1.8,1.3-2.8,1.6-3.1c0,0,0.1-0.1,0.1-0.1
			c-0.7,0-1.7-0.4-2.1-0.6c0,0,0-0.1,0-0.1C399.2,164,401.5,163.2,401.6,163.2L401.6,163.2z"/>
		<path class="st77" d="M414.4,171.2c-0.1,1.6,0.7,2.9,2,3s2.4-1.1,2.5-2.6c0.1-1.6-0.7-2.9-2-3
			C415.7,168.5,414.6,169.7,414.4,171.2z"/>
		<g>
			<path class="st8" d="M404.3,174c-0.3,0-0.6,0.3-0.5,0.5c0.4,0.7,0.5,0.8,1.1,1.2c0.8,0.5,1.8,0.5,2.6,0.1c0.6-0.3,1.1-0.5,1.5-1
				c0.2-0.2-0.1-0.6-0.4-0.6L404.3,174z"/>
			<path class="st78" d="M403.3,168.3c0.3,0.3,0.7,0.6,1,0.8c0.1,0,0.1,0.1,0.1,0.2c0,0.1-0.1,0.1-0.1,0.2c-0.4,0.2-0.9,0.4-1.3,0.6
				"/>
			<path class="st78" d="M409.6,168.9c-0.4,0.2-0.8,0.4-1.1,0.7c-0.1,0-0.1,0.1-0.1,0.1c0,0.1,0.1,0.1,0.1,0.2
				c0.4,0.3,0.8,0.6,1.2,0.8"/>
			<path class="st78" d="M406,172.9c-1.4-0.3-0.9-1.1-0.9-1.1l0.9-1.7c0.2-0.3,0.2-0.7,0.1-1.1l-0.2-0.5"/>
			<path class="st58" d="M413.8,173.5c0,1.2-1,2.2-2.2,2.3c-1.2,0-2.2-1-2.3-2.2c0-1.2,1-2.2,2.2-2.3
				C412.8,171.3,413.8,172.3,413.8,173.5z"/>
			<path class="st58" d="M403.8,172.6c0,1.2-1,2.2-2.2,2.3c-1.2,0-2.2-1-2.3-2.2c0-1.2,1-2.2,2.2-2.3
				C402.8,170.4,403.8,171.4,403.8,172.6z"/>
		</g>
	</g>
	<path class="st62" d="M394.8,236.9c0.9,6.9,4.3,14.6,6.1,20.2"/>
	<path class="st62" d="M436,250.7c3.3,6.8,6,13.9,7.8,21.3"/>
	
		<radialGradient id="SVGID_00000040532470671718434110000012270030148262738597_" cx="426.7494" cy="254.6213" r="9.1733" fx="421.2843" fy="256.6314" gradientUnits="userSpaceOnUse">
		<stop  offset="0" style="stop-color:#7388A7;stop-opacity:0.9609"/>
		<stop  offset="0.9113" style="stop-color:#7388A7;stop-opacity:0"/>
	</radialGradient>
	<polygon style="opacity:0.6;fill:url(#SVGID_00000040532470671718434110000012270030148262738597_);" points="428.3,253.4 
		430.1,261.6 434.1,250.7 	"/>
	<path class="st62" d="M428.2,253.7c1.6,5.3,2.6,10.8,3,16.3"/>
	<line class="st62" x1="352.8" y1="288.3" x2="375.1" y2="298.9"/>
	
		<radialGradient id="SVGID_00000105393224458103357690000010998383336432207019_" cx="431.7395" cy="186.1745" r="6.5511" gradientUnits="userSpaceOnUse">
		<stop  offset="8.111910e-02" style="stop-color:#7388A7;stop-opacity:0.9609"/>
		<stop  offset="0.9405" style="stop-color:#7388A7;stop-opacity:0"/>
	</radialGradient>
	<polygon style="opacity:0.35;fill:url(#SVGID_00000105393224458103357690000010998383336432207019_);" points="432.5,184.8 
		429,188.7 432.5,202.9 	"/>
	
		<radialGradient id="SVGID_00000010305058890049071590000003153298492269237380_" cx="-1511.2744" cy="189.4804" r="5.1955" gradientTransform="matrix(-1 0 0 1 -1127.1718 0)" gradientUnits="userSpaceOnUse">
		<stop  offset="8.111910e-02" style="stop-color:#7388A7;stop-opacity:0.9609"/>
		<stop  offset="0.9405" style="stop-color:#7388A7;stop-opacity:0"/>
	</radialGradient>
	<polygon style="opacity:0.35;fill:url(#SVGID_00000010305058890049071590000003153298492269237380_);" points="384.5,188.4 
		388.7,192.4 382.8,202.7 	"/>
	<line class="st62" x1="396.1" y1="225.3" x2="395.3" y2="234.9"/>
	<line class="st62" x1="398.9" y1="226.2" x2="398.7" y2="234.6"/>
	<line class="st62" x1="398.7" y1="234.6" x2="395.3" y2="234.9"/>
</g>
</svg>
