<?xml version="1.0" encoding="utf-8"?>
<!-- Generator: Adobe Illustrator 27.7.0, SVG Export Plug-In . SVG Version: 6.00 Build 0)  -->
<svg version="1.1" id="레이어_1" xmlns="http://www.w3.org/2000/svg" xmlns:xlink="http://www.w3.org/1999/xlink" x="0px"
	 y="0px" viewBox="0 0 500 500" style="enable-background:new 0 0 500 500;" xml:space="preserve">
<style type="text/css">
	.st0{fill:#FFFFFF;}
</style>
<g>
	<path class="st0" d="M33.5,281.2c6.7-0.8,9.4-3.2,10.9-9.8c0.3-1.1,1.9-1.1,2.1,0.1c0.8,6.7,3.2,9.4,9.8,10.9
		c1.1,0.3,1.1,1.9-0.1,2.1c-6.7,0.8-9.4,3.2-10.9,9.8c-0.3,1.1-1.9,1.1-2.1-0.1c-0.8-6.7-3.2-9.4-9.8-10.9
		C32.2,283,32.3,281.4,33.5,281.2z"/>
	<path class="st0" d="M636,281c4.7-0.5,6.6-2.2,7.6-6.8c0.2-0.8,1.3-0.7,1.4,0.1c0.5,4.7,2.2,6.6,6.8,7.6c0.8,0.2,0.7,1.3-0.1,1.4
		c-4.7,0.5-6.6,2.2-7.6,6.8c-0.2,0.8-1.3,0.7-1.4-0.1c-0.5-4.7-2.2-6.6-6.8-7.6C635.1,282.2,635.1,281.1,636,281z"/>
	<path class="st0" d="M729.5,614.4c4.7-0.5,6.6-2.2,7.6-6.8c0.2-0.8,1.3-0.7,1.4,0.1c0.5,4.7,2.2,6.6,6.8,7.6
		c0.8,0.2,0.7,1.3-0.1,1.4c-4.7,0.5-6.6,2.2-7.6,6.8c-0.2,0.8-1.3,0.7-1.4-0.1c-0.5-4.7-2.2-6.6-6.8-7.6
		C728.6,615.7,728.7,614.5,729.5,614.4z"/>
	<path class="st0" d="M-204.6,571.7c10.1-1.2,14.2-4.9,16.5-14.8c0.4-1.7,2.9-1.6,3.1,0.2c1.2,10.1,4.9,14.2,14.8,16.5
		c1.7,0.4,1.6,2.9-0.2,3.1c-10.1,1.2-14.2,4.9-16.5,14.8c-0.4,1.7-2.9,1.6-3.1-0.2c-1.2-10.1-4.9-14.2-14.8-16.5
		C-206.5,574.4-206.4,571.9-204.6,571.7z"/>
	<path class="st0" d="M389.8,175.4c16.6-1.9,23.3-7.9,26.9-24.2c0.6-2.8,4.7-2.6,5.1,0.3c1.9,16.6,7.9,23.3,24.2,26.9
		c2.8,0.6,2.6,4.7-0.3,5.1c-16.6,1.9-23.3,7.9-26.9,24.2c-0.6,2.8-4.7,2.6-5.1-0.3c-1.9-16.6-7.9-23.3-24.2-26.9
		C386.7,179.8,386.9,175.7,389.8,175.4z"/>
</g>
</svg>
