<?xml version="1.0" encoding="utf-8"?>
<!-- Generator: Adobe Illustrator 27.7.0, SVG Export Plug-In . SVG Version: 6.00 Build 0)  -->
<svg version="1.1" id="레이어_1" xmlns="http://www.w3.org/2000/svg" xmlns:xlink="http://www.w3.org/1999/xlink" x="0px"
	 y="0px" viewBox="0 0 500 500" style="enable-background:new 0 0 500 500;" xml:space="preserve">
<style type="text/css">
	.st0{fill:#FFFFFF;}
</style>
<g>
	<path class="st0" d="M948.5,82.2c4.7-0.5,6.6-2.2,7.6-6.8c0.2-0.8,1.3-0.7,1.4,0.1c0.5,4.7,2.2,6.6,6.8,7.6
		c0.8,0.2,0.7,1.3-0.1,1.4c-4.7,0.5-6.6,2.2-7.6,6.8c-0.2,0.8-1.3,0.7-1.4-0.1c-0.5-4.7-2.2-6.6-6.8-7.6
		C947.7,83.4,947.7,82.3,948.5,82.2z"/>
	<path class="st0" d="M1042,415.6c4.7-0.5,6.6-2.2,7.6-6.8c0.2-0.8,1.3-0.7,1.4,0.1c0.5,4.7,2.2,6.6,6.8,7.6
		c0.8,0.2,0.7,1.3-0.1,1.4c-4.7,0.5-6.6,2.2-7.6,6.8c-0.2,0.8-1.3,0.7-1.4-0.1c-0.5-4.7-2.2-6.6-6.8-7.6
		C1041.2,416.8,1041.2,415.7,1042,415.6z"/>
	<path class="st0" d="M103.5,220.5c92.1-10.8,129.3-44.1,149.8-134.6c3.6-15.7,26.3-14.5,28.1,1.5c10.8,92.1,44.1,129.3,134.6,149.8
		c15.7,3.6,14.5,26.3-1.5,28.1c-92.1,10.8-129.3,44.1-149.8,134.6c-3.6,15.7-26.3,14.5-28.1-1.5c-10.8-92.1-44.1-129.3-134.6-149.8
		C86.3,245.1,87.5,222.4,103.5,220.5z"/>
</g>
</svg>
