<?xml version="1.0" encoding="utf-8"?>
<!-- Generator: Adobe Illustrator 27.7.0, SVG Export Plug-In . SVG Version: 6.00 Build 0)  -->
<svg version="1.1" id="레이어_1" xmlns="http://www.w3.org/2000/svg" xmlns:xlink="http://www.w3.org/1999/xlink" x="0px"
	 y="0px" viewBox="0 0 500 500" style="enable-background:new 0 0 500 500;" xml:space="preserve">
<style type="text/css">
	.st0{fill:#FFFFFF;}
</style>
<g>
	<path class="st0" d="M114.6,86.7c11-1.3,15.5-5.3,18-16.1c0.4-1.9,3.2-1.7,3.4,0.2c1.3,11,5.3,15.5,16.1,18
		c1.9,0.4,1.7,3.2-0.2,3.4c-11,1.3-15.5,5.3-18,16.1c-0.4,1.9-3.2,1.7-3.4-0.2c-1.3-11-5.3-15.5-16.1-18
		C112.6,89.6,112.7,86.9,114.6,86.7z"/>
	<path class="st0" d="M336,383.8c11-1.3,15.5-5.3,18-16.1c0.4-1.9,3.2-1.7,3.4,0.2c1.3,11,5.3,15.5,16.1,18c1.9,0.4,1.7,3.2-0.2,3.4
		c-11,1.3-15.5,5.3-18,16.1c-0.4,1.9-3.2,1.7-3.4-0.2c-1.3-11-5.3-15.5-16.1-18C333.9,386.7,334.1,384,336,383.8z"/>
</g>
</svg>
