<?xml version="1.0" encoding="utf-8"?>
<!-- Generator: Adobe Illustrator 27.7.0, SVG Export Plug-In . SVG Version: 6.00 Build 0)  -->
<svg version="1.1" id="레이어_1" xmlns="http://www.w3.org/2000/svg" xmlns:xlink="http://www.w3.org/1999/xlink" x="0px"
	 y="0px" viewBox="0 0 500 500" style="enable-background:new 0 0 500 500;" xml:space="preserve">
<style type="text/css">
	.st0{fill:none;stroke:#FFFFFF;stroke-width:2.5195;stroke-linecap:round;stroke-linejoin:round;stroke-miterlimit:10;}
	.st1{fill:#76B0E3;}
	.st2{fill:#A0D6F0;}
</style>
<g>
	<g>
		<g>
			<path class="st0" d="M228.3,203.2c43.2,67.9-12.8,172.7,59.3,246.9"/>
		</g>
		<path class="st1" d="M279.4,127.4c6.6,35.8-15.5,69.9-49.4,76.1s-66.6-17.8-73.2-53.5c-6.6-35.8,15.5-69.9,49.4-76.1
			C240.1,67.6,272.9,91.6,279.4,127.4z"/>
		<path class="st1" d="M245.2,207.6l-13.8-11.7c-1.7-1.4-4.2-0.9-5.2,1l-8.7,15.9c-1.4,2.5,0.8,5.6,3.6,5l22.5-4.1
			C246.4,213.1,247.4,209.5,245.2,207.6z"/>
		<path class="st2" d="M168,143c-0.3,0.1-0.6,0.1-0.8,0.1c-2.5,0-4.4-2-4.4-4.5c0.2-28.7,13-47,38.2-54.4c2.4-0.7,4.8,0.7,5.5,3
			c0.7,2.4-0.7,4.8-3,5.5c-21.2,6.3-31.7,21.3-31.8,45.9C171.6,140.8,170,142.6,168,143z"/>
	</g>
</g>
</svg>
