<?xml version="1.0" encoding="utf-8"?>
<!-- Generator: Adobe Illustrator 27.7.0, SVG Export Plug-In . SVG Version: 6.00 Build 0)  -->
<svg version="1.1" id="레이어_1" xmlns="http://www.w3.org/2000/svg" xmlns:xlink="http://www.w3.org/1999/xlink" x="0px"
	 y="0px" viewBox="0 0 500 500" style="enable-background:new 0 0 500 500;" xml:space="preserve">
<style type="text/css">
	.st0{fill:none;stroke:#FFFFFF;stroke-width:3.4304;stroke-linecap:round;stroke-linejoin:round;stroke-miterlimit:10;}
	.st1{fill:#989AE3;}
	.st2{fill:#ACB3F1;}
</style>
<g>
	<g>
		<g>
			<path class="st0" d="M224.7,214.3c33.9,71.5-33.5,166.8,27.7,247.9"/>
		</g>
		<path class="st1" d="M283.8,146.6c2.1,35.7-23.7,66.2-57.4,68.2c-33.8,1.9-62.8-25.4-64.9-61.1s23.7-66.2,57.4-68.2
			C252.7,83.6,281.7,110.9,283.8,146.6z"/>
		<path class="st1" d="M240.6,220.7l-12-13.1c-1.4-1.6-4-1.4-5.2,0.3l-10.4,14.4c-1.7,2.3,0.1,5.5,2.9,5.4l22.5-1.3
			C241.1,226.2,242.5,222.8,240.6,220.7z"/>
		<path class="st2" d="M173.2,148.3c-0.3,0-0.5,0-0.8,0c-2.4-0.3-4.1-2.5-3.8-4.9c3.7-27.9,18.4-44.2,43.9-48.4
			c2.4-0.4,4.6,1.2,5,3.6c0.4,2.4-1.2,4.6-3.6,5c-21.5,3.5-33.4,16.9-36.6,40.9C177,146.6,175.3,148.2,173.2,148.3z"/>
	</g>
</g>
</svg>
