<?xml version="1.0" encoding="utf-8"?>
<!-- Generator: Adobe Illustrator 27.7.0, SVG Export Plug-In . SVG Version: 6.00 Build 0)  -->
<svg version="1.1" id="레이어_1" xmlns="http://www.w3.org/2000/svg" xmlns:xlink="http://www.w3.org/1999/xlink" x="0px"
	 y="0px" viewBox="0 0 500 500" style="enable-background:new 0 0 500 500;" xml:space="preserve">
<style type="text/css">
	.st0{fill:none;stroke:#FFFFFF;stroke-width:3.0677;stroke-linecap:round;stroke-linejoin:round;stroke-miterlimit:10;}
	.st1{fill:#FFDF46;}
	.st2{fill:#F6F495;}
</style>
<g>
	<g>
		<g>
			<path class="st0" d="M317,197c7,91.7-99.6,167.7-68.2,281.2"/>
		</g>
		
			<ellipse transform="matrix(0.1549 -0.9879 0.9879 0.1549 162.4323 442.5735)" class="st1" cx="339.9" cy="126.3" rx="75.1" ry="67.7"/>
		<path class="st1" d="M330.9,210.5l-7.3-19.2c-0.9-2.3-3.5-3.2-5.5-1.8l-16.4,11.4c-2.6,1.8-2.1,6,0.9,7l23.7,7.8
			C329.3,216.7,332.1,213.6,330.9,210.5z"/>
		<g>
			<path class="st2" d="M289.6,104c-0.3-0.1-0.6-0.2-0.8-0.4c-2.3-1.3-3.2-4.4-2-6.9c14.7-28.9,36.3-40.5,64.2-34.6
				c2.6,0.6,4.3,3.2,3.8,6c-0.5,2.8-3.1,4.5-5.7,4c-23.5-5-41.1,4.6-53.7,29.4C294.2,103.7,291.8,104.7,289.6,104z"/>
		</g>
	</g>
</g>
</svg>
