<?xml version="1.0" encoding="utf-8"?>
<!-- Generator: Adobe Illustrator 27.7.0, SVG Export Plug-In . SVG Version: 6.00 Build 0)  -->
<svg version="1.1" id="레이어_1" xmlns="http://www.w3.org/2000/svg" xmlns:xlink="http://www.w3.org/1999/xlink" x="0px"
	 y="0px" viewBox="0 0 500 500" style="enable-background:new 0 0 500 500;" xml:space="preserve">
<style type="text/css">
	.st0{fill:#FF8087;}
	.st1{fill:#BCF4FF;}
	.st2{fill:#FFDC00;}
	.st3{fill:none;}
	.st4{fill:#FFFFFF;}
</style>
<g>
	<g>
		<polygon class="st0" points="901.9,402.8 906.6,402.8 904.7,407.2 900.1,407.2 		"/>
		<polygon class="st0" points="901.9,402.8 906.6,402.8 904.7,407.2 900.1,407.2 		"/>
	</g>
	<g>
		<polygon class="st1" points="226.8,300 221,300 225.9,294.4 231.7,294.4 		"/>
		<polygon class="st1" points="226.8,300 221,300 225.9,294.4 231.7,294.4 		"/>
	</g>
	<g>
		<polygon class="st2" points="909.9,198.4 909.7,203 905.4,199 905.6,194.3 		"/>
		<polygon class="st3" points="909.9,198.4 909.7,203 905.4,199 905.6,194.3 		"/>
	</g>
	<g>
		<polygon class="st0" points="190.9,288.1 185.1,288.1 187.4,282.5 193.2,282.5 		"/>
		<polygon class="st0" points="190.9,288.1 185.1,288.1 187.4,282.5 193.2,282.5 		"/>
	</g>
	<g>
		<polygon class="st2" points="200.1,107.9 200,113.7 194.5,108.6 194.7,102.8 		"/>
		<polygon class="st3" points="200.1,107.9 200,113.7 194.5,108.6 194.7,102.8 		"/>
	</g>
	<g>
		<polygon class="st4" points="247.2,222.3 247,228.1 241.5,223 241.7,217.2 		"/>
		<polygon class="st3" points="247.2,222.3 247,228.1 241.5,223 241.7,217.2 		"/>
	</g>
	<g>
		<polygon class="st0" points="316.4,81.8 310.6,81.8 312.9,76.2 318.8,76.2 		"/>
		<polygon class="st0" points="316.4,81.8 310.6,81.8 312.9,76.2 318.8,76.2 		"/>
	</g>
	<g>
		<polygon class="st1" points="789.9,136.4 785.2,136.4 789.1,131.9 793.8,131.9 		"/>
		<polygon class="st1" points="789.9,136.4 785.2,136.4 789.1,131.9 793.8,131.9 		"/>
	</g>
	<g>
		<polygon class="st2" points="736.9,74 736.7,78.7 732.4,74.6 732.5,70 		"/>
		<polygon class="st3" points="736.9,74 736.7,78.7 732.4,74.6 732.5,70 		"/>
	</g>
	<g>
		<polygon class="st0" points="187.1,43.9 181.2,43.9 183.6,38.3 189.4,38.3 		"/>
		<polygon class="st0" points="187.1,43.9 181.2,43.9 183.6,38.3 189.4,38.3 		"/>
	</g>
	<g>
		<polygon class="st0" points="871,225.6 866.4,225.6 868.2,221.2 872.9,221.2 		"/>
		<polygon class="st0" points="871,225.6 866.4,225.6 868.2,221.2 872.9,221.2 		"/>
	</g>
	<g>
		<polygon class="st1" points="278,52 272.2,52 277.1,46.4 282.9,46.4 		"/>
		<polygon class="st1" points="278,52 272.2,52 277.1,46.4 282.9,46.4 		"/>
	</g>
	<g>
		<polygon class="st2" points="282.5,252.6 282.3,258.4 276.8,253.4 277,247.5 		"/>
		<polygon class="st3" points="282.5,252.6 282.3,258.4 276.8,253.4 277,247.5 		"/>
	</g>
	<g>
		<polygon class="st1" points="947.6,211.4 952.3,211.4 948.4,215.9 943.7,215.9 		"/>
		<polygon class="st1" points="947.6,211.4 952.3,211.4 948.4,215.9 943.7,215.9 		"/>
	</g>
	<g>
		<polygon class="st2" points="218.5,389 218.7,383.2 224.1,388.2 223.9,394.1 		"/>
		<polygon class="st3" points="218.5,389 218.7,383.2 224.1,388.2 223.9,394.1 		"/>
	</g>
	<g>
		<polygon class="st4" points="947.1,360.5 947.3,355.8 951.6,359.9 951.5,364.5 		"/>
		<polygon class="st3" points="947.1,360.5 947.3,355.8 951.6,359.9 951.5,364.5 		"/>
	</g>
	<g>
		<polygon class="st0" points="883,65.3 887.6,65.3 885.7,69.7 881.1,69.7 		"/>
		<polygon class="st0" points="883,65.3 887.6,65.3 885.7,69.7 881.1,69.7 		"/>
	</g>
	<g>
		<polygon class="st2" points="684.9,227.9 685,223.3 689.4,227.3 689.2,232 		"/>
		<polygon class="st3" points="684.9,227.9 685,223.3 689.4,227.3 689.2,232 		"/>
	</g>
	<g>
		<polygon class="st4" points="842.3,70 842.4,65.4 846.8,69.5 846.6,74.1 		"/>
		<polygon class="st3" points="842.3,70 842.4,65.4 846.8,69.5 846.6,74.1 		"/>
	</g>
	<g>
		<polygon class="st2" points="931.9,301.1 932,296.4 936.4,300.5 936.2,305.1 		"/>
		<polygon class="st3" points="931.9,301.1 932,296.4 936.4,300.5 936.2,305.1 		"/>
	</g>
	<g>
		<polygon class="st0" points="191.5,456.1 197.3,456.1 195,461.7 189.2,461.7 		"/>
		<polygon class="st0" points="191.5,456.1 197.3,456.1 195,461.7 189.2,461.7 		"/>
	</g>
</g>
</svg>
