<?xml version="1.0" encoding="utf-8"?>
<!-- Generator: Adobe Illustrator 27.7.0, SVG Export Plug-In . SVG Version: 6.00 Build 0)  -->
<svg version="1.1" id="레이어_1" xmlns="http://www.w3.org/2000/svg" xmlns:xlink="http://www.w3.org/1999/xlink" x="0px"
	 y="0px" viewBox="0 0 500 500" style="enable-background:new 0 0 500 500;" xml:space="preserve">
<style type="text/css">
	.st0{fill:#FF8087;}
	.st1{fill:#FFDC00;}
	.st2{fill:none;}
	.st3{fill:#BCF4FF;}
	.st4{fill:#FFFFFF;}
</style>
<g>
	<g>
		<polygon class="st0" points="320.2,398.5 324.9,398.5 323,403 318.4,403 		"/>
		<polygon class="st0" points="320.2,398.5 324.9,398.5 323,403 318.4,403 		"/>
	</g>
	<g>
		<polygon class="st1" points="328.2,194.1 328.1,198.8 323.7,194.7 323.9,190.1 		"/>
		<polygon class="st2" points="328.2,194.1 328.1,198.8 323.7,194.7 323.9,190.1 		"/>
	</g>
	<g>
		<polygon class="st3" points="208.2,132.1 203.6,132.1 207.5,127.7 212.1,127.7 		"/>
		<polygon class="st3" points="208.2,132.1 203.6,132.1 207.5,127.7 212.1,127.7 		"/>
	</g>
	<g>
		<polygon class="st1" points="155.2,69.8 155,74.4 150.7,70.4 150.8,65.7 		"/>
		<polygon class="st2" points="155.2,69.8 155,74.4 150.7,70.4 150.8,65.7 		"/>
	</g>
	<g>
		<polygon class="st0" points="289.3,221.4 284.7,221.4 286.5,216.9 291.2,216.9 		"/>
		<polygon class="st0" points="289.3,221.4 284.7,221.4 286.5,216.9 291.2,216.9 		"/>
	</g>
	<g>
		<polygon class="st3" points="365.9,207.2 370.6,207.2 366.7,211.6 362,211.6 		"/>
		<polygon class="st3" points="365.9,207.2 370.6,207.2 366.7,211.6 362,211.6 		"/>
	</g>
	<g>
		<polygon class="st4" points="365.4,356.2 365.6,351.6 369.9,355.6 369.8,360.3 		"/>
		<polygon class="st2" points="365.4,356.2 365.6,351.6 369.9,355.6 369.8,360.3 		"/>
	</g>
	<g>
		<polygon class="st0" points="301.3,61 305.9,61 304.1,65.5 299.4,65.5 		"/>
		<polygon class="st0" points="301.3,61 305.9,61 304.1,65.5 299.4,65.5 		"/>
	</g>
	<g>
		<polygon class="st1" points="103.2,223.7 103.3,219 107.7,223.1 107.5,227.7 		"/>
		<polygon class="st2" points="103.2,223.7 103.3,219 107.7,223.1 107.5,227.7 		"/>
	</g>
	<g>
		<polygon class="st4" points="260.6,65.8 260.7,61.1 265.1,65.2 264.9,69.8 		"/>
		<polygon class="st2" points="260.6,65.8 260.7,61.1 265.1,65.2 264.9,69.8 		"/>
	</g>
	<g>
		<polygon class="st1" points="350.2,296.8 350.3,292.2 354.7,296.2 354.5,300.9 		"/>
		<polygon class="st2" points="350.2,296.8 350.3,292.2 354.7,296.2 354.5,300.9 		"/>
	</g>
</g>
</svg>
