<?xml version="1.0" encoding="utf-8"?>
<!-- Generator: Adobe Illustrator 27.7.0, SVG Export Plug-In . SVG Version: 6.00 Build 0)  -->
<svg version="1.1" id="레이어_1" xmlns="http://www.w3.org/2000/svg" xmlns:xlink="http://www.w3.org/1999/xlink" x="0px"
	 y="0px" viewBox="0 0 500 500" style="enable-background:new 0 0 500 500;" xml:space="preserve">
<style type="text/css">
	.st0{fill:#303030;}
	.st1{fill:#E5564E;}
	.st2{fill:#FFB2A8;}
	.st3{fill:#FF9F92;}
	.st4{fill:#303030;stroke:#303030;stroke-width:0.4208;stroke-miterlimit:10;}
	.st5{fill:none;stroke:#303030;stroke-width:0.4208;stroke-linecap:round;stroke-linejoin:round;stroke-miterlimit:10;}
	.st6{fill:#FF8678;}
	.st7{fill:#00184C;}
	.st8{fill:#323D53;}
	.st9{fill:#29292B;}
	.st10{fill:#FFFFFF;}
	.st11{fill:#FF4D47;}
	.st12{fill:#E6E6E7;}
	.st13{fill:#3D61BA;}
	.st14{fill:none;stroke:#FFFFFF;stroke-width:0.4208;stroke-miterlimit:10;}
	.st15{fill:#F0F0F1;}
	.st16{fill:none;stroke:#FFFFFF;stroke-width:0.4208;stroke-linecap:round;stroke-linejoin:round;stroke-miterlimit:10;}
	.st17{fill:none;stroke:#00184C;stroke-width:0.4208;stroke-linecap:round;stroke-linejoin:round;stroke-miterlimit:10;}
	.st18{fill:#929496;}
	.st19{fill:none;stroke:#303030;stroke-width:0.4208;stroke-miterlimit:10;}
	.st20{fill:none;stroke:#F0F0F1;stroke-width:0.4208;stroke-miterlimit:10;}
	.st21{fill:#263348;}
	.st22{clip-path:url(#SVGID_00000181800065031635392260000016001909498364051601_);}
	.st23{fill:none;stroke:#A8AAAC;stroke-width:0.4208;stroke-miterlimit:10;}
</style>
<g>
	<path class="st0" d="M246.3,160.5c0,0,1.4-2.1-0.4-4.5c-1.7-2.3-6.1-3.4-10.7-2.3c-4.7,1.1-3.6,4.3-2.6,8.9L246.3,160.5z"/>
	<path class="st1" d="M170,158.6c0,0-3.5-1.6-7.1,2.9c-3.6,4.5-0.3,10-3.5,12.1s-10.5,1.6-11.2,8.5c-0.7,6.9,29.3,11,29.3,11
		s6.8-6.9,3.4-12c-3.4-5.2-3-7.5-1.8-10.4C180.1,167.8,179.4,159.1,170,158.6z"/>
	<g>
		<polygon class="st2" points="172,178.8 171.5,183.5 166.9,186.6 162.7,180 166.4,165.5 174.9,167.6 		"/>
		<polygon class="st3" points="168.4,172.6 171.5,181.5 172,178.8 173,174.8 		"/>
		<path class="st2" d="M165.5,168.5c0.2,3.8,2.6,6.8,6.4,6.6c3.8-0.2,6-3.4,5.8-7.2c-0.2-3.8-2.6-6.8-6.5-6.6
			C167.4,161.4,165.3,164.6,165.5,168.5z"/>
		<g>
			<path class="st4" d="M175.1,166.2c0,0.2,0.2,0.4,0.4,0.4c0.2,0,0.4-0.2,0.4-0.5s-0.2-0.4-0.4-0.4
				C175.3,165.8,175.1,166,175.1,166.2z"/>
			<path class="st4" d="M170.7,166.4c0,0.2,0.2,0.4,0.4,0.4s0.4-0.2,0.4-0.5c0-0.2-0.2-0.4-0.4-0.4S170.7,166.1,170.7,166.4z"/>
			<path class="st5" d="M173.7,166.7c0,0-0.1,0.4,0.1,0.6s0.6,0.7-0.3,1"/>
			<path class="st6" d="M168.6,167.9c0,0.4,0.5,0.7,1.1,0.7c0.6,0,1.1-0.4,1.1-0.8c0-0.4-0.5-0.7-1.1-0.7
				C169.1,167.1,168.6,167.5,168.6,167.9z"/>
			<path class="st6" d="M175.3,167.9c0,0.4,0.5,0.7,1.1,0.7c0.6,0,1.1-0.4,1.1-0.8c0-0.4-0.5-0.7-1.1-0.7
				C175.8,167.1,175.3,167.5,175.3,167.9z"/>
			<path class="st5" d="M171.4,164.5c0,0-0.5-0.1-0.9,0.1"/>
			<path class="st5" d="M174.8,164.4c0,0,0.5-0.2,0.9,0"/>
			<path class="st5" d="M171,169.1c0,0,0,1.9,2.6,1.5"/>
		</g>
		<path class="st2" d="M166.5,167.7c-0.2-0.8-0.9-1.3-1.8-1.3c-1,0-1.7,0.9-1.6,1.8c0,1,0.9,1.7,1.8,1.6c0.2,0,0.5-0.1,0.7-0.2"/>
		<path class="st5" d="M164.3,167.8c0,0,0.9,0.1,1.2,0.7"/>
		<path class="st1" d="M165.6,164.3c0,0,5.5-1.1,6.6-3.6c0,0,0.9,2.7,4.7,2.8l-2.4-2.9l-3.2-1.2l-3.1,0.6l-1.9,0.8L165.6,164.3z"/>
	</g>
	<g>
		<path class="st2" d="M446.8,136.9c0-0.5-0.1-1-0.4-1.3c-0.6-0.9-1.9-0.8-2.4,0.1l-0.8,1.4c1.4-3.7,1.4-4.4,1.4-4.4
			c0-0.5-0.2-1-0.4-1.3c-0.7-0.8-2-0.7-2.4,0.3l-1.9,4.1c1.2-4.7,1.4-6.1,1.4-6.1c-0.1-0.5-0.3-0.9-0.6-1.2c-0.7-0.8-2-0.5-2.4,0.6
			l-1.7,5.2c0.7-4.6,0.6-5.4,0.6-5.4c-0.2-0.5-0.4-0.9-0.7-1.1c-0.8-0.7-2.1-0.3-2.3,0.8l-1.9,8l-0.1-0.2c0,0,0,0,0,0
			c-0.1-0.1-1.4-2.5-2.5-2.5c-1.2-0.1-2.1,0.7-1.7,2.1c0.5,1.4,1.2,6.8,0.9,7.7c-0.3,0.9-1.4,3.8-1.4,3.8l4.5,3.7l6.9,2.4
			c2.9-4.4,4.9-9.2,4.9-9.2C446.8,137.9,446.8,136.9,446.8,136.9z"/>
		<path class="st5" d="M433,137.9c0,0,4.1,2.7,3.4,6.7"/>
	</g>
	<path class="st7" d="M178.4,181.1c0,0,10.1,2.4,17.8,8.5L186,204.4l-8.1-2.3L178.4,181.1z"/>
	<path class="st8" d="M323.9,177.7c0,0,28.9,6.4,32.7,29.2v7l-13.2-2l-16.2-9.7l-8.1-11.9L323.9,177.7z"/>
	<g>
		<g>
			<path class="st9" d="M381.2,185.5c-0.9-0.1-8.2-0.5-8.9-1c-1.3-0.9-3.6-1.9-3.6-4.8c0-2.9,8.8-16.7,11.8-19.5
				c1.3-1.3,3.2-2.7,5.1-2.8c1.8-0.2,4.4-0.1,5.7,1.2c0.6,0.6,3.4-0.2,4.5,4.3c0.6,2.4-4.7,13.3-4.8,20
				C391,187.6,381.2,185.5,381.2,185.5z"/>
			<polygon class="st2" points="389.4,177.1 388.9,181.6 384.5,184.5 380.5,178.3 384.1,164.4 392.1,166.5 			"/>
			<polygon class="st3" points="386,171.2 388.9,179.7 389.4,177.1 390.4,173.3 			"/>
			<path class="st2" d="M382.4,167.3c0.2,3.7,3.3,6.5,6.9,6.3c3.7-0.2,5.7-3.2,5.5-6.9c-0.2-3.7-2.5-6.5-6.2-6.3
				S382.2,163.7,382.4,167.3z"/>
			<g>
				<path class="st4" d="M392.4,165.1c0,0.2,0.2,0.4,0.4,0.4c0.2,0,0.4-0.2,0.4-0.4c0-0.2-0.2-0.4-0.4-0.4
					C392.6,164.7,392.4,164.9,392.4,165.1z"/>
				<path class="st4" d="M388.2,165.3c0,0.2,0.2,0.4,0.4,0.4c0.2,0,0.4-0.2,0.4-0.4c0-0.2-0.2-0.4-0.4-0.4
					C388.3,164.8,388.1,165,388.2,165.3z"/>
				<path class="st5" d="M391,165.6c0,0-0.1,0.4,0.1,0.6c0.2,0.2,0.5,0.7-0.3,0.9"/>
				<path class="st6" d="M386.6,167c0,0.4,0.5,0.7,1.1,0.7c0.6,0,1-0.4,1-0.8c0-0.4-0.5-0.7-1.1-0.7
					C387,166.2,386.5,166.6,386.6,167z"/>
				<path class="st6" d="M392.2,166.7c0,0.4,0.5,0.7,1.1,0.7c0.6,0,1-0.4,1-0.8c0-0.4-0.5-0.7-1.1-0.7
					C392.6,166,392.1,166.3,392.2,166.7z"/>
				<path class="st10" d="M389.3,168.1c1.4,0.2,2.3,0.4,2.3,0.4s-0.5,1.8-2,1.4C388.8,169.7,389.3,168.1,389.3,168.1z"/>
				<path class="st5" d="M388.9,163.5c0,0-0.5-0.1-0.9,0.1"/>
				<path class="st5" d="M392.1,163.4c0,0,0.4-0.2,0.9,0"/>
			</g>
			<path class="st2" d="M384.1,166.5c-0.2-0.7-0.9-1.3-1.7-1.2c-0.9,0-1.6,0.8-1.6,1.7c0,0.9,0.8,1.6,1.7,1.6c0.2,0,0.5-0.1,0.7-0.2
				"/>
			<path class="st5" d="M382,166.6c0,0,0.8,0.1,1.1,0.6"/>
			<path class="st9" d="M382.8,165.4c1,0.3,2.1,0,2.8-0.6c1.1-0.9,2.7-2.3,4.9-4c2.1-1.7,0.3-0.9,0.3-0.9l-5.5-0.8l-2.5,1.5
				l-0.3,4.8L382.8,165.4z"/>
		</g>
		<polygon class="st10" points="370.8,179.2 370.8,199.4 356.8,200.1 356,188.8 370.3,179.2 		"/>
		<polygon class="st10" points="377.1,178.9 384.2,182.2 391.7,180.4 393.3,187.8 382.8,196.9 375.1,194 		"/>
		<polygon class="st11" points="384.2,182.2 381.9,184.2 382.7,186.3 379.5,195.4 386,195.4 384.7,186.3 385.7,184.7 		"/>
		<polygon class="st12" points="377.1,178.9 380.3,177.6 384.2,182.2 380.4,185.6 		"/>
		<polygon class="st12" points="384.2,182.2 386.7,186.3 391.7,180.4 389.4,178.1 		"/>
		<path class="st7" d="M298.1,273.8c0,0-1.4-1.9-4.7-3.5c-3.3-1.6-7-2.6-7-2.6s-2.4-0.3-6.3,11.6c-3.9,12-10.7,28.6-8.9,29.6
			c5.5,3.1,23.2-11.1,23.2-11.1L298.1,273.8z"/>
		<path class="st2" d="M356.2,287.6c0,0-21.8-11.5-51.4-11.7l-6.6-2.1c0,0-8.2,3.7-7,11.6c1.2,7.9,3.3,12.4,3.3,12.4s20,2.1,45.6,12
			c1.7,0.6,3.4,1.3,5.2,1.9c5.9,2,12.3-0.6,15.1-6.2l2.3-5C361.7,300.2,356.2,287.6,356.2,287.6z"/>
		<path class="st2" d="M376.1,255.8c0,0-1.9,8.7-5.4,20.5c-1.8,6.2-4,13.2-6.6,20.3c-0.5,1.3-1,2.6-1.4,3.8l-22.5-13.9
			c1.1-2.5,1.1-4.3,1.1-4.3c0-0.3,0-0.6,0-0.9c0,0,0,0,0,0c0.2-3.6,1.7-11,3.3-18.1c2-8.6,4.1-16.7,4.1-16.7L376.1,255.8z"/>
		<path class="st7" d="M420.7,362.4c0,0-0.8,2.3-0.1,5.9c0.7,3.6,1.9,7.2,1.9,7.2s1.1,2.1,13.1-1.7c12-3.8,29.4-8,29.2-10.1
			c-0.7-6.3-22.6-12.3-22.6-12.3L420.7,362.4z"/>
		<path class="st2" d="M442.3,351.3c0,0-2.5,4.3-8.1,9.9c-5.7,5.6-13.5,1.1-13.5,1.1l-2.2-6.6c-17.1-24.2-23-51.2-23.6-56
			c-0.7-4.7-2.8-7.3-2.8-7.3c-0.6-0.6-1.2-1.5-2-2.8c-2.7-4.1-6.6-11.2-9.8-17.3c-3.4-6.4-6.1-11.8-6.1-11.8l26.8-11
			c0,0,2.2,4.1,5.4,10.6c2.7,5.5,6,12.6,9.3,20.4c3.6,8.7,7.1,18.2,9.5,27.1C432.1,334.3,442.3,351.3,442.3,351.3z"/>
		<polygon class="st7" points="394.8,227.8 394.8,221.2 356,218.1 355.6,224.8 		"/>
		<path class="st3" d="M415.7,280.6c0,0-16.7-2.4-25.6,9.1c-2.7-4.1-6.6-11.2-9.8-17.3l9.4-9.8l16.7-2.4
			C409.1,265.7,412.4,272.8,415.7,280.6z"/>
		<path class="st3" d="M370.7,276.3c-1.8,6.2-4,13.2-6.6,20.3c-12.9-1-22.6-15-22.8-15.3c0,0,0,0,0,0c0.2-3.6,1.7-11,3.3-18.1
			l8.2-0.3l17.3,12.1C370.1,275,370.4,275.5,370.7,276.3z"/>
		<path class="st7" d="M377.1,178.9l-6.8,0.3c0,0-2.9,14.5-13.5,20.9l-0.8,18.1l38.8,3.1l3.8-15.6c0,0-3.1-16.6-3.2-24.5l-3.7-0.8
			C387.9,188,380.6,208.6,377.1,178.9z"/>
		<path class="st13" d="M414.7,278.4c-4.5-1.6-9.7-2.1-15.1-1.8c-2.3,0.1-4.5,0.5-6.6,1.4c-5.7,2.4-4.8,5.4-12.8,10.4
			c-9.5,5.9-22.1-0.7-22.1-0.7c-16.8-7.4-31.3-19.7-31.3-19.7l28-38.1l0.8-5.1l39.2,3l0.2,5.4l4.1,7.7c0,0,0,0,0,0
			C405,253.9,414.7,278.4,414.7,278.4z"/>
		<path class="st14" d="M375.1,179.2c0,0,0.2,17.7,7.7,17.7c5.7,0,10.5-16.2,10.5-16.2"/>
		<path class="st10" d="M370.3,179.2c0,0-41.6,3.4-39.7,33.7c1,16.2,35.2,14.9,35.2,14.9l1.8-14.3c0,0-9.9-2.6-18-6.3l7.2-7.2
			L370.3,179.2z"/>
		<path class="st15" d="M395.4,181.1c0,0,13.7-4,20.7-13.6c7-9.6,11.5-22,11.5-22l14.6,6.8c0,0-4.4,37.3-43.6,53.4
			C398.6,205.7,394.8,190.5,395.4,181.1z"/>
		<g>
			<path class="st2" d="M384.7,218.6c0.2-0.3,0.3-0.7,0.2-1l0,0c-0.1-1.2-1.5-2-3-1.6l-0.3,0.1c-2,0.4-3.7,0.5-5.1,0.4
				c1.5-1.2,2-1.6,2.6-2.5c0.6-0.8,0.5-1.9-0.2-2.6v0c-0.9-0.9-2.3-0.8-3,0.2l-0.2,0.2c-2,2.3-8.1,1.9-8.1,1.9l-1.8,14.3
				c4.5,1.1,10.3,1,13,0.4c1.2-0.3,2-1.1,1.9-2.1c0-0.3-0.1-0.5-0.2-0.7c0.5-0.1,1-0.2,1.4-0.3c1.2-0.3,2.1-1.2,2-2.2
				c0-0.2-0.1-0.4-0.1-0.6c0,0,0,0,0.1,0c1.2-0.3,2.1-1.2,2-2.2C386,219.5,385.4,218.9,384.7,218.6z"/>
			<path class="st5" d="M380.5,225.5c0,0-1.9,0.4-4.6,0.2"/>
			<path class="st5" d="M383.9,222.4c0,0-4.6,0.8-7.4,0.5"/>
			<path class="st5" d="M384.7,218.6c0,0-5.3,1.1-8.1,1.1"/>
		</g>
		<path class="st16" d="M463.4,362.4c0,0-28.8,11.6-40.4,11.2"/>
		<polyline class="st5" points="387.9,244.3 393.3,260.9 394.8,273.8 		"/>
		<line class="st5" x1="399.5" y1="273.5" x2="393.3" y2="260.9"/>
		<polyline class="st5" points="376.7,245.4 378.1,262.8 376.7,275.7 		"/>
		<line class="st5" x1="381.3" y1="276.4" x2="378.1" y2="262.8"/>
		<polyline class="st5" points="364.7,244.5 362.5,261.8 358.4,274.2 		"/>
		<line class="st5" x1="362.7" y1="275.8" x2="362.5" y2="261.8"/>
		<polyline class="st5" points="355.7,241.7 348,257.4 340.1,267.7 		"/>
		<line class="st5" x1="343.7" y1="270.7" x2="348" y2="257.4"/>
	</g>
	<g>
		<path class="st7" d="M226.5,273.8c0,0-1.4-1.9-4.7-3.5c-3.3-1.6-7-2.6-7-2.6s-2.4-0.3-6.3,11.6c-3.9,12-10.7,28.6-8.9,29.6
			c5.5,3.1,23.2-11.1,23.2-11.1L226.5,273.8z"/>
		<path class="st10" d="M284.6,287.6c0,0-21.8-11.5-51.4-11.7l-6.6-2.1c0,0-8.2,3.7-7,11.6s3.3,12.4,3.3,12.4s21.1-0.8,46.8,9.1
			c1.7,0.6,3.4,1.3,5.2,1.9c5.9,2,12.3-0.6,15.1-6.2l2.3-5C291.2,297.2,284.6,287.6,284.6,287.6z"/>
		<path class="st2" d="M277.1,246.5c0,0-7.6,29.4-7.4,35.8c0,0-0.1,1.8-1.1,4.3l22.5,13.9c8.4-21.8,13.5-44.6,13.5-44.6L277.1,246.5
			z"/>
		<path class="st7" d="M349.1,362.4c0,0-0.8,2.3-0.1,5.9c0.7,3.6,1.9,7.2,1.9,7.2s1.1,2.1,13.1-1.7c12-3.8,29.4-8,29.2-10.1
			c-0.7-6.3-22.6-12.3-22.6-12.3L349.1,362.4z"/>
		<path class="st10" d="M302.6,260.6c0,0,13.6,27.2,17.9,31.8c0,0,2.1,2.6,2.8,7.3c0.7,4.7,6.6,31.8,23.6,56l2.2,6.6
			c0,0,7.8,4.5,13.5-1.1c5.7-5.6,8.1-9.9,8.1-9.9s-10.1-17-17.1-43.5c-7-26.6-24.1-58.1-24.1-58.1L302.6,260.6z"/>
		<path class="st17" d="M269.7,282.3c0,0,0,4.6,2.5,7.7"/>
		<path class="st18" d="M323.2,224.4l1.6,9.4c0,0,18.4,37.2,23.9,52.3c5.5,15,18.7,59,18.7,59s-1.4,7.2-25.6,9.7
			c0,0-19.6-44.8-21.4-57.9l-17.8-33.2v-40.9L323.2,224.4z"/>
		<path class="st18" d="M284,221.4c-4.3,5.4-7.4,18.4-9.1,33.9l-6.3,22.5c0,0-18.1-4.1-33.4-4c0,0-6.3,22.5-1.7,29.7
			c0,0,40.5,11.8,54.9,7.2c14.4-4.6,16.2-46.3,16.2-46.3l1-41.4L284,221.4z"/>
	</g>
	<path class="st8" d="M349.6,207.3c0,0-4.9,4.2-19.1,10l7.2,15.2c0,0,21.7-7.5,25.7-15.9c3.9-8.4-5-17.5-5-17.5l-1.5,1L349.6,207.3z
		"/>
	<g>
		<g>
			<path class="st0" d="M311.4,162.3c0,0-2.4-7.7-0.3-8.3c1.6-0.5,2,0,3.3-1.5c1.3-1.5,3.1-1.6,5.9-0.4c2.9,1.1,2.5,0.8,4.4,0
				c1.9-0.9,2.7,2.3,2.4,4.1c-0.2,1.8-1.4,6.5-1.4,6.5L311.4,162.3z"/>
			<polygon class="st2" points="320.2,173.6 319.7,178.4 315.1,181.4 310.9,174.8 314.7,160.3 323.1,162.5 			"/>
			<polygon class="st3" points="316.6,167.4 319.7,176.3 320.2,173.6 321.3,169.6 			"/>
			<path class="st2" d="M313.7,163.3c0.2,3.8,2.6,6.8,6.4,6.6c3.8-0.2,6-3.4,5.8-7.2s-2.6-6.8-6.5-6.6
				C315.7,156.3,313.6,159.5,313.7,163.3z"/>
			<g>
				<path class="st4" d="M323.4,161.1c0,0.2,0.2,0.4,0.4,0.4c0.2,0,0.4-0.2,0.4-0.5c0-0.2-0.2-0.4-0.4-0.4
					C323.5,160.6,323.4,160.8,323.4,161.1z"/>
				<path class="st4" d="M318.9,161.2c0,0.2,0.2,0.4,0.4,0.4c0.2,0,0.4-0.2,0.4-0.5c0-0.2-0.2-0.4-0.4-0.4
					C319.1,160.8,318.9,161,318.9,161.2z"/>
				<path class="st5" d="M321.9,161.6c0,0-0.1,0.4,0.1,0.6c0.2,0.2,0.6,0.7-0.3,1"/>
				<path class="st6" d="M316.9,162.7c0,0.4,0.5,0.7,1.1,0.7c0.6,0,1.1-0.4,1.1-0.8c0-0.4-0.5-0.7-1.1-0.7S316.9,162.3,316.9,162.7z
					"/>
				<path class="st6" d="M323.6,162.7c0,0.4,0.5,0.7,1.1,0.7c0.6,0,1.1-0.4,1.1-0.8c0-0.4-0.5-0.7-1.1-0.7
					C324,161.9,323.6,162.3,323.6,162.7z"/>
				<path class="st5" d="M319.7,159.3c0,0-0.5-0.1-0.9,0.1"/>
				<path class="st5" d="M323,159.2c0,0,0.5-0.2,0.9,0"/>
				<path class="st5" d="M319.2,163.9c0,0,0,1.9,2.6,1.5"/>
			</g>
			<path class="st2" d="M314.7,162.5c-0.2-0.8-0.9-1.3-1.8-1.3c-1,0-1.7,0.9-1.6,1.8c0,1,0.9,1.7,1.8,1.6c0.2,0,0.5-0.1,0.7-0.2"/>
			<path class="st5" d="M312.5,162.6c0,0,0.9,0.1,1.2,0.7"/>
		</g>
		<path class="st8" d="M307.3,175.1l-8.1-0.2c0,0-4.7,18.7-15.2,25v21.5l16.3,1.3l0,0L307.3,175.1z"/>
		<path class="st8" d="M327,202.2c0,0-3.1-16.6-3.2-24.5l-8.8,46.1l8.2,0.6L327,202.2z"/>
		<polygon class="st8" points="315,223.8 315,223.8 300.3,222.6 		"/>
		<path class="st10" d="M315,178.4c-4.1,1.7-5.1,1.9-7.4-3.2l-0.3-0.1l-7,47.6l0,0l14.7,1.1l8.8-46.1L315,178.4z"/>
		<path class="st12" d="M307.3,175.1l4.2-2.4c0.4,1.9,1.7,3.8,3.5,5.7l-4.1,3.8L307.3,175.1z"/>
		<path class="st12" d="M315,178.4l3.1,3.8l5.7-4.5l-3.6-4.1C319.1,175.7,317.2,177.2,315,178.4z"/>
		<polygon class="st11" points="315,178.4 312.4,180.8 313.4,183.3 305.3,209.1 308.4,216 314.7,211.1 315.5,183.6 317.2,181 		"/>
	</g>
	<g>
		<path class="st7" d="M147.3,273.8c0,0-1.4-1.9-4.7-3.5c-3.3-1.6-7-2.6-7-2.6s-2.4-0.3-6.3,11.6c-3.9,12-10.7,28.6-8.9,29.6
			c5.5,3.1,23.2-11.1,23.2-11.1L147.3,273.8z"/>
		<path class="st10" d="M205.4,287.6c0,0-21.8-11.5-51.4-11.7l-6.6-2.1c0,0-8.2,3.7-7,11.6c1.2,7.9,3.3,12.4,3.3,12.4
			s21.1-0.8,46.8,9.1c1.7,0.6,3.4,1.3,5.2,1.9c5.9,2,12.3-0.6,15.1-6.2l2.3-5C212,297.2,205.4,287.6,205.4,287.6z"/>
		<path class="st2" d="M197.8,246.5c0,0-7.6,29.4-7.4,35.8c0,0-0.1,1.8-1.1,4.3l22.5,13.9c8.4-21.8,13.5-44.6,13.5-44.6L197.8,246.5
			z"/>
		<path class="st7" d="M269.8,362.4c0,0-0.8,2.3-0.1,5.9c0.7,3.6,1.9,7.2,1.9,7.2s1.1,2.1,13.1-1.7c12-3.8,29.4-8,29.2-10.1
			c-0.7-6.3-22.6-12.3-22.6-12.3L269.8,362.4z"/>
		<path class="st16" d="M311.9,362.4c0,0-28.8,11.6-40.4,11.2"/>
		<path class="st10" d="M223.3,260.6c0,0,13.6,27.2,17.9,31.8c0,0,2.1,2.6,2.8,7.3c0.7,4.7,6.6,31.8,23.6,56l2.2,6.6
			c0,0,7.8,4.5,13.5-1.1c5.7-5.6,8.1-9.9,8.1-9.9s-10.1-17-17.1-43.5c-7-26.6-24.1-58.1-24.1-58.1L223.3,260.6z"/>
		<path class="st17" d="M190.4,282.3c0,0,0,4.6,2.5,7.7"/>
		<path class="st13" d="M243.9,224.4l1.6,9.4c0,0,18.4,37.2,23.9,52.3s18.7,59,18.7,59s-1.4,7.2-25.6,9.7c0,0-19.6-44.8-21.4-57.9
			l-17.8-33.2v-40.9L243.9,224.4z"/>
		<path class="st13" d="M204.7,221.4c-4.3,5.4-7.4,18.4-9.1,33.9l-6.3,22.5c0,0-18.1-4.1-33.4-4c0,0-6.3,22.5-1.7,29.7
			c0,0,40.5,11.8,54.9,7.2c14.4-4.6,16.2-46.3,16.2-46.3l1-41.4L204.7,221.4z"/>
		<path class="st7" d="M283.3,361.2c0,0,1.7-1,0.3-2.6c-1.4-1.6-3-4.6,2.3-7.9c5.3-3.4,8.2-3.2,9.6-1.3c1.5,1.9,1.7,3.8,1.7,3.8
			l-5.1,8.1H283.3z"/>
	</g>
	<g>
		<g>
			<polygon class="st2" points="240.9,173.6 240.4,178.4 235.8,181.4 231.6,174.8 235.4,160.3 243.8,162.5 			"/>
			<polygon class="st3" points="237.3,167.4 240.4,176.3 240.9,173.6 242,169.6 			"/>
			<path class="st2" d="M234.4,163.3c0.2,3.8,2.6,6.8,6.4,6.6c3.8-0.2,6-3.4,5.8-7.2c-0.2-3.8-2.6-6.8-6.5-6.6
				C236.4,156.3,234.3,159.5,234.4,163.3z"/>
			<g>
				<path class="st4" d="M244.4,161c0,0.2,0.2,0.4,0.4,0.4c0.2,0,0.4-0.2,0.4-0.5c0-0.2-0.2-0.4-0.4-0.4
					C244.6,160.6,244.4,160.8,244.4,161z"/>
				<path class="st4" d="M239.6,161.2c0,0.2,0.2,0.4,0.4,0.4c0.2,0,0.4-0.2,0.4-0.5c0-0.2-0.2-0.4-0.4-0.4
					C239.8,160.8,239.6,161,239.6,161.2z"/>
				<path class="st5" d="M242.6,161.6c0,0-0.1,0.4,0.1,0.6c0.2,0.2,0.6,0.7-0.3,1"/>
				<path class="st6" d="M237.6,162.7c0,0.4,0.5,0.7,1.1,0.7c0.6,0,1.1-0.4,1.1-0.8c0-0.4-0.5-0.7-1.1-0.7
					C238,161.9,237.6,162.3,237.6,162.7z"/>
				<path class="st6" d="M244.3,162.7c0,0.4,0.5,0.7,1.1,0.7c0.6,0,1.1-0.4,1.1-0.8c0-0.4-0.5-0.7-1.1-0.7
					C244.7,161.9,244.3,162.3,244.3,162.7z"/>
				<path class="st5" d="M239.9,163.9c0,0,0,1.9,2.6,1.5"/>
			</g>
			<path class="st2" d="M235.4,162.5c-0.2-0.8-0.9-1.3-1.8-1.3c-1,0-1.7,0.9-1.6,1.8c0,1,0.9,1.7,1.8,1.6c0.2,0,0.5-0.1,0.7-0.2"/>
			<path class="st5" d="M233.2,162.6c0,0,0.9,0.1,1.2,0.7"/>
			<path class="st19" d="M247.4,161c0,1.1-0.9,2.1-2.1,2.1c-1.1,0-2.1-0.9-2.1-2.1c0-1.1,0.9-2.1,2.1-2.1
				C246.4,159,247.4,159.9,247.4,161z"/>
			<path class="st19" d="M241.8,161c0,1.1-0.9,2.1-2.1,2.1c-1.1,0-2.1-0.9-2.1-2.1c0-1.1,0.9-2.1,2.1-2.1
				C240.9,159,241.8,159.9,241.8,161z"/>
		</g>
		<path class="st8" d="M228,175.1l-8.1-0.2c0,0-4.7,18.7-15.2,25v21.5l16.3,1.3l0,0L228,175.1z"/>
		<polygon class="st8" points="247.8,202.2 247.7,177.8 244.2,177.1 235.7,223.8 243.9,224.4 		"/>
		<path class="st8" d="M235.7,178.4c-4.1,1.7-5.1,1.9-7.4-3.2l-0.3-0.1l-7,47.6l0,0l14.7,1.1l8.4-46.7L235.7,178.4z"/>
		<path class="st10" d="M244.2,177.1c0,0-3.3,9.5-6.7,14.5c-1.4,2-2.8,3.3-4.1,2.8c-0.9-0.3-1.7-1.4-2.4-2.9c-2.4-5.5-3-16.4-3-16.4
			l7.7,3.3L244.2,177.1z"/>
		<path class="st11" d="M236.7,183.9l0.8,7.7c-1.4,2-2.8,3.3-4.1,2.8c-0.9-0.3-1.7-1.4-2.4-2.9l3.3-7.8l-1.5-2.5l2.9-2.7l2.5,3.5
			L236.7,183.9z"/>
		<polygon class="st8" points="235.7,223.8 235.7,223.8 221,222.6 		"/>
		<polygon class="st12" points="228,175.1 231.6,172.7 235.7,178.4 231.7,182.2 		"/>
		<polygon class="st12" points="235.7,178.4 239.1,183 244.2,177.1 241.4,173.7 		"/>
		<path class="st20" d="M226.2,175.1c0,0-0.2,20.3,7,21.3c7.2,1,12.6-18.9,12.6-18.9"/>
		<line class="st4" x1="241.6" y1="160.1" x2="243.5" y2="160.1"/>
		<line class="st4" x1="237.7" y1="160.2" x2="234.4" y2="159.2"/>
	</g>
	<path class="st8" d="M302.9,203.6c-2,15.2-4.1,30.3-8.3,35.9c-1.1,1.5-3.1,2-4.7,1.3l-13.3-5.5l-4.4-1.8l4-11.3l7.9-22.3
		L302.9,203.6z"/>
	<path class="st21" d="M288.9,225.4c-4.4,4.1-9.4,7.9-12.3,10l-4.4-1.8l4-11.3l0.2-0.4C282.6,224.4,288.9,225.4,288.9,225.4z"/>
	<path class="st8" d="M318.3,206.8c0,0-7.8,33.7-4.1,37.2c3.7,3.5,16.4-3.9,16.4-3.9l0.7-35.4l-4.2-2.5L318.3,206.8z"/>
	<path class="st10" d="M247.7,177.8c0,0,18,2.3,30.8,10.9l-12.7,14.8l-18-1.3C247.8,202.2,247.3,185.6,247.7,177.8z"/>
	<g>
		<path class="st2" d="M315.9,227.4c-0.3-0.2-0.5-0.6-0.5-0.9v0c-0.3-1.2,0.8-2.4,2.4-2.5l0.3,0c2-0.3,3.7-0.7,4.9-1.2
			c-1.8-0.6-2.4-0.9-3.3-1.6c-0.8-0.6-1-1.7-0.6-2.5v0c0.6-1.1,1.9-1.4,2.9-0.8l0.2,0.1c2.6,1.6,8.3-0.7,8.3-0.7l6.1,13.1
			c-4,2.4-9.5,4.1-12.2,4.4c-1.2,0.1-2.2-0.5-2.5-1.4c-0.1-0.2-0.1-0.5,0-0.7c-0.5,0.1-1,0.1-1.4,0.2c-1.2,0.1-2.3-0.5-2.6-1.4
			c-0.1-0.2-0.1-0.4-0.1-0.6c0,0,0,0-0.1,0c-1.2,0.1-2.3-0.5-2.6-1.4C314.9,228.7,315.2,228,315.9,227.4z"/>
		<path class="st5" d="M321.9,232.7c0,0,1.9-0.2,4.5-1.2"/>
		<path class="st5" d="M317.8,230.9c0,0,4.6-0.6,7.2-1.8"/>
		<path class="st5" d="M315.9,227.4c0,0,5.4-0.5,8-1.5"/>
	</g>
	<g>
		<path class="st2" d="M243,221c-0.3-0.2-0.5-0.6-0.5-0.9l0,0c-0.3-1.2,0.8-2.4,2.4-2.5l0.3,0c2-0.3,3.7-0.7,4.9-1.2
			c-1.8-0.6-2.4-0.9-3.3-1.6c-0.8-0.6-1-1.7-0.6-2.5l0,0c0.6-1.1,1.9-1.4,2.9-0.8l0.2,0.1c2.6,1.6,8.3-0.7,8.3-0.7l6.1,13.1
			c-4,2.4-9.5,4.1-12.2,4.4c-1.2,0.1-2.2-0.5-2.5-1.4c-0.1-0.2-0.1-0.5,0-0.7c-0.5,0.1-1,0.1-1.4,0.2c-1.2,0.1-2.3-0.5-2.6-1.4
			c-0.1-0.2-0.1-0.4-0.1-0.6c0,0,0,0-0.1,0c-1.2,0.1-2.3-0.5-2.6-1.4C242,222.3,242.3,221.5,243,221z"/>
		<path class="st5" d="M249,226.3c0,0,1.9-0.2,4.5-1.2"/>
		<path class="st5" d="M244.9,224.4c0,0,4.6-0.6,7.2-1.8"/>
		<path class="st5" d="M243,221c0,0,5.4-0.5,8-1.5"/>
	</g>
	<g>
		<path class="st2" d="M232.7,220c0.3-0.2,0.5-0.6,0.5-0.9v0c0.3-1.2-0.8-2.4-2.4-2.5l-0.3,0c-2-0.3-3.7-0.7-4.9-1.2
			c1.8-0.6,2.4-0.9,3.3-1.6c0.8-0.6,1-1.7,0.6-2.5v0c-0.6-1.1-1.9-1.4-2.9-0.8l-0.2,0.1c-2.6,1.6-8.3-0.7-8.3-0.7l-6.1,13.1
			c4,2.4,9.5,4.1,12.2,4.4c1.2,0.1,2.2-0.5,2.5-1.4c0.1-0.2,0.1-0.5,0-0.7c0.5,0.1,1,0.1,1.4,0.2c1.2,0.1,2.3-0.5,2.6-1.4
			c0.1-0.2,0.1-0.4,0.1-0.6c0,0,0,0,0.1,0c1.2,0.1,2.3-0.5,2.6-1.4C233.7,221.3,233.3,220.5,232.7,220z"/>
		<path class="st5" d="M226.7,225.3c0,0-1.9-0.2-4.5-1.2"/>
		<path class="st5" d="M230.8,223.5c0,0-4.6-0.6-7.2-1.8"/>
		<path class="st5" d="M232.7,220c0,0-5.4-0.5-8-1.5"/>
	</g>
	<path class="st8" d="M299.2,174.9c0,0-38,0.2-41.4,28.2c-1.9,16.1,31.1,22.3,31.1,22.3l4.9-13.6c0,0-9.1-4.7-16.2-10l9.9-3
		C293,191.3,299.2,183.5,299.2,174.9z"/>
	<path class="st10" d="M274.6,203.5c0,0-2.9,1.7-17,7.5l7.2,15.2c0,0,21.7-7.5,25.7-15.9c3.9-8.4-2.6-13.4-2.6-13.4L274.6,203.5z"/>
	<g>
		<path class="st2" d="M309.3,220.5c0.2-0.3,0.4-0.6,0.5-0.9v0c0.2-1.2-1-2.3-2.6-2.3l-0.3,0c-2-0.1-3.7-0.4-5-0.7
			c1.7-0.8,2.3-1.1,3.1-1.9c0.7-0.7,0.9-1.7,0.3-2.6v0c-0.6-1-2.1-1.3-3-0.5l-0.2,0.2c-2.5,1.8-8.3,0.1-8.3,0.1l-4.9,13.6
			c4.2,2.1,9.9,3.2,12.6,3.2c1.2,0,2.2-0.7,2.4-1.6c0.1-0.3,0-0.5,0-0.7c0.5,0,1,0.1,1.4,0.1c1.2,0,2.3-0.7,2.5-1.7
			c0-0.2,0-0.4,0-0.6c0,0,0,0,0.1,0c1.2,0,2.3-0.7,2.5-1.7C310.4,221.6,310,220.9,309.3,220.5z"/>
		<path class="st5" d="M303.8,226.3c0,0-1.9,0-4.6-0.8"/>
		<path class="st5" d="M307.7,224c0,0-4.7-0.2-7.4-1.2"/>
		<path class="st5" d="M309.3,220.5c0,0-5.4-0.1-8.1-0.7"/>
	</g>
	<g>
		<g>
			<path class="st2" d="M122.7,119.4c0.3-0.4,0.6-0.7,0.9-0.9c0.9-0.4,2,0.3,1.9,1.3l-0.1,1.5c0.7-3.7,1-4.2,1-4.2
				c0.3-0.4,0.6-0.7,1-0.8c0.9-0.4,1.9,0.4,1.8,1.4l-0.5,4.2c1.3-4.4,1.9-5.6,1.9-5.6c0.3-0.4,0.7-0.6,1.1-0.7
				c1-0.3,1.9,0.6,1.6,1.6l-1.2,5.1c1.7-4.1,2.2-4.6,2.2-4.6c0.4-0.4,0.8-0.5,1.1-0.6c1-0.2,1.8,0.8,1.5,1.8l-2.4,7.4l0.2-0.1
				c0,0,0,0,0,0c0.1-0.1,2.3-1.3,3.3-0.8c1,0.5,1.4,1.6,0.3,2.5c-1,0.9-4.3,4.9-4.5,5.8c-0.2,0.9-0.7,3.7-0.7,3.7l-5.5,0.7l-6.7-1.4
				c-0.2-5,0.6-9.8,0.6-9.8C122.2,120.3,122.7,119.4,122.7,119.4z"/>
			<path class="st5" d="M133.3,127c0,0-4.7,0.1-6,3.8"/>
		</g>
		<polygon class="st7" points="153.7,179.2 153.7,199.4 139.8,200.1 138.9,188.8 153.3,179.2 		"/>
		<polygon class="st15" points="160,178.9 167.1,182.2 174.6,180.4 176.2,187.8 165.7,196.9 158.1,194 		"/>
		<polygon class="st11" points="167.1,182.2 164.8,184.2 165.6,186.3 162.4,195.4 168.9,195.4 167.6,186.3 168.6,184.7 		"/>
		<polygon class="st10" points="160,178.9 163.2,177.6 167.1,182.2 163.3,185.6 		"/>
		<polygon class="st10" points="167.1,182.2 169.6,186.3 174.6,180.4 172.3,178.1 		"/>
		<path class="st7" d="M81,273.8c0,0-1.4-1.9-4.7-3.5s-7-2.6-7-2.6s-2.4-0.3-6.3,11.6c-3.9,12-10.7,28.6-8.9,29.6
			c5.5,3.1,23.2-11.1,23.2-11.1L81,273.8z"/>
		<path class="st2" d="M139.1,287.6c0,0-21.8-11.5-51.4-11.7l-6.6-2.1c0,0-8.2,3.7-7,11.6c1.2,7.9,3.3,12.4,3.3,12.4s20,2.1,45.6,12
			c1.7,0.6,3.4,1.3,5.2,1.9c5.9,2,12.3-0.6,15.1-6.2l2.3-5C144.6,300.2,139.1,287.6,139.1,287.6z"/>
		<path class="st2" d="M131.6,246.5c0,0-7.6,29.4-7.4,35.8c0,0-0.1,1.8-1.1,4.3l22.5,13.9c8.4-21.8,13.5-44.6,13.5-44.6L131.6,246.5
			z"/>
		<path class="st7" d="M203.6,362.4c0,0-0.8,2.3-0.1,5.9c0.7,3.6,1.9,7.2,1.9,7.2s1.1,2.1,13.1-1.7c12-3.8,29.4-8,29.2-10.1
			c-0.7-6.3-22.6-12.3-22.6-12.3L203.6,362.4z"/>
		<path class="st2" d="M157.1,260.6c0,0,13.6,27.2,17.9,31.8c0,0,2.1,2.6,2.8,7.3c0.7,4.7,6.6,31.8,23.6,56l2.2,6.6
			c0,0,7.8,4.5,13.5-1.1c5.7-5.6,8.1-9.9,8.1-9.9s-10.1-17-17.1-43.5c-7-26.6-24.1-58.1-24.1-58.1L157.1,260.6z"/>
		<polygon class="st7" points="177.7,227.8 177.7,221.2 138.9,218.1 138.5,224.8 		"/>
		<path class="st17" d="M124.2,282.3c0,0,0,4.6,2.5,7.7"/>
		<path class="st3" d="M198.6,280.6c0,0-16.7-2.4-25.6,9.1c-2.7-4.1-6.6-11.2-9.8-17.3l9.4-9.8l16.7-2.4
			C192,265.7,195.3,272.8,198.6,280.6z"/>
		<path class="st3" d="M153.6,276.3c-1.8,6.2-4,13.2-6.6,20.3c-12.9-1-22.6-15-22.8-15.3c0,0,0,0,0,0c0.2-3.6,1.7-11,3.3-18.1
			l8.2-0.3L153,275C153,275,153.3,275.5,153.6,276.3z"/>
		<path class="st7" d="M160,178.9l-6.8,0.3c0,0-2.9,14.5-13.5,20.9l-0.8,18.1l38.8,3.1l3.8-15.6c0,0-3.1-16.6-3.2-24.5l-3.7-0.8
			C170.8,188,163.5,208.6,160,178.9z"/>
		<path class="st18" d="M197.6,278.4c-5.3-1.9-11.6-2.2-18-1.6c-9.9,2.6-7.1,5.7-16.5,11.6c-9.5,5.9-22.1-0.7-22.1-0.7
			c-16.8-7.4-31.3-19.7-31.3-19.7l28-38.1l0.8-5.1l39.2,3l0.2,5.4l4.1,7.7c0,0,0,0,0,0C187.9,253.9,197.6,278.4,197.6,278.4z"/>
		<g>
			<defs>
				<path id="SVGID_1_" d="M197.6,278.4c-5.3-1.9-11.6-2.2-18-1.6c-9.9,2.6-7.1,5.7-16.5,11.6c-9.5,5.9-22.1-0.7-22.1-0.7
					c-16.8-7.4-31.3-19.7-31.3-19.7l28-38.1l0.8-5.1l39.2,3l0.2,5.4l4.1,7.7c0,0,0,0,0,0C187.9,253.9,197.6,278.4,197.6,278.4z"/>
			</defs>
			<clipPath id="SVGID_00000093177578839098965550000012142306805394271920_">
				<use xlink:href="#SVGID_1_"  style="overflow:visible;"/>
			</clipPath>
			<g style="clip-path:url(#SVGID_00000093177578839098965550000012142306805394271920_);">
				<path class="st23" d="M141.7,214.1c0,0,4.6,30.9-40.5,73.1"/>
				<path class="st23" d="M147.2,218.1c0,0-10.7,50.9-24.2,76"/>
				<path class="st23" d="M153.1,219.2c0,0-9.7,59.7-14.5,83.4"/>
				<path class="st23" d="M158.8,219.2c0,0-4,62.5-5.7,79.7"/>
				<path class="st23" d="M165.2,221.2c0,0-0.7,60.2,1.9,71.9"/>
				<path class="st23" d="M169.4,224.2c0,0,1,38.6,10.2,61.9"/>
				<path class="st23" d="M108.3,256.1c0,0,27.7,30.2,41.7,25s12.3-17.4,44.5-13.3"/>
				<path class="st23" d="M114.5,250.7c0,0,11.1,19.9,31.4,19.9c12.9,0,23.8-14.7,49.8-10.4"/>
				<path class="st23" d="M119.2,246.5c0,0,13.7,16.2,32.2,12.6c18.5-3.6,26.6-9.2,46.2-6"/>
				<path class="st23" d="M121,238.8c0,0,9.9,13.3,28.4,11.7c18.5-1.5,24.3-5.8,41.6-1.8"/>
				<path class="st23" d="M127.3,233.4c0,0,13.5,14.8,57.1,5.4"/>
				<path class="st23" d="M127.3,226.7c0,0,26.3,12.1,57.1,4.9"/>
				<path class="st23" d="M173.7,221.6c0,0-0.7,11,0.8,15.3c1.5,4.3,14.7,46.9,14.7,46.9"/>
			</g>
		</g>
		<path class="st14" d="M158.1,179.2c0,0,0.2,17.7,7.7,17.7c5.7,0,10.5-16.2,10.5-16.2"/>
		<path class="st7" d="M153.7,178.9c0,0-11.6-8.2-15.1-19.6c-3.5-11.3-3.7-24.6-3.7-24.6l-16,1.6c0,0-8.1,36.7,23.8,64.7
			C142.7,201,151.2,188,153.7,178.9z"/>
	</g>
	<path class="st10" d="M220,174.9c0,0-37.1,6.9-40.2,32c-0.4,3.7,0.4,4.5,3.1,7c4.5,4,14.6,9.1,31.2,12.8l4.7-16.5l-18.4-6.3
		l8.1-4.9C208.4,199,216.5,190,220,174.9z"/>
	<g>
		<path class="st2" d="M163.2,224.2c-0.3-0.2-0.5-0.6-0.5-0.9l0,0c-0.3-1.2,0.8-2.4,2.4-2.5l0.3,0c2-0.3,3.7-0.7,4.9-1.2
			c-1.8-0.6-2.4-0.9-3.3-1.6c-0.8-0.6-1-1.7-0.6-2.5l0,0c0.6-1.1,1.9-1.4,2.9-0.8l0.2,0.1c2.6,1.6,8.3-0.7,8.3-0.7l6.1,13.1
			c-4,2.4-9.5,4.1-12.2,4.4c-1.2,0.1-2.2-0.5-2.5-1.4c-0.1-0.2-0.1-0.5,0-0.7c-0.5,0.1-1,0.1-1.4,0.2c-1.2,0.1-2.3-0.5-2.6-1.4
			c-0.1-0.2-0.1-0.4-0.1-0.6c0,0,0,0-0.1,0c-1.2,0.1-2.3-0.5-2.6-1.4C162.3,225.5,162.6,224.7,163.2,224.2z"/>
		<path class="st5" d="M169.3,229.5c0,0,1.9-0.2,4.5-1.2"/>
		<path class="st5" d="M165.2,227.6c0,0,4.6-0.6,7.2-1.8"/>
		<path class="st5" d="M163.2,224.2c0,0,5.4-0.5,8-1.5"/>
	</g>
	<path class="st7" d="M195,206.5c0,0-2.9,1.7-17,7.5l7.2,15.2c0,0,21.7-7.5,25.7-15.9c3.9-8.4-2.6-13.4-2.6-13.4L195,206.5z"/>
	<path class="st10" d="M395.4,181.1c0,0,13.7-4,20.7-13.6c7-9.6,11.5-22,11.5-22l14.6,6.8c0,0-4.4,37.3-43.6,53.4
		C398.6,205.7,394.8,190.5,395.4,181.1z"/>
	<path class="st16" d="M454.4,355.6c0,0-2.1,0.9-3.7,4.1"/>
	<path class="st16" d="M450.6,354c0,0-2.1,0.9-3.7,4.1"/>
	<path class="st16" d="M377.6,355.9c0,0-2.6,7.8,1.4,8.2C383,364.4,377.6,355.9,377.6,355.9z"/>
	<path class="st16" d="M377.7,355.7c0,0,7.6,3.2,8.3-0.8S377.7,355.7,377.7,355.7z"/>
	<path class="st5" d="M304.5,267.2c0,0,0.9-7.9,2-17.6"/>
	<path class="st5" d="M225.5,267.7c0,0,2.3-12.8,2.6-19.9"/>
	<path class="st16" d="M232.5,353.7c0,0-0.9,2.5,0.2,6.4"/>
	<path class="st16" d="M234.5,354.4c0,0-3.7,1.5-6.2,4"/>
	<path class="st16" d="M70.5,302.6c0,0-1.5-2.2-5.3-3.7"/>
	<path class="st16" d="M68.7,303.7c0,0,1-3.8,0.6-7.3"/>
	<path class="st5" d="M320.4,155.7c0,0,0.2,1.6-1.6,1.9"/>
	<path class="st5" d="M320.4,155.4c0,0,1.4,0.9,0.4,2.5"/>
	<path class="st0" d="M237,157.2c0,0,1-0.6,2.4-0.2c1.8,0.5,3.3,0.2,3.8,0c0.8-0.3,1.7,0.9,1.7,0.9l-0.5-1.9l-3.6-1.1H238l-1.3,0.5
		v1.6L237,157.2z"/>
</g>
</svg>
