<?xml version="1.0" encoding="utf-8"?>
<!-- Generator: Adobe Illustrator 27.8.1, SVG Export Plug-In . SVG Version: 6.00 Build 0)  -->
<svg version="1.1" id="레이어_1" xmlns="http://www.w3.org/2000/svg" xmlns:xlink="http://www.w3.org/1999/xlink" x="0px"
	 y="0px" viewBox="0 0 800 534.4" style="enable-background:new 0 0 800 534.4;" xml:space="preserve">
<style type="text/css">
	.st0{fill:none;stroke:#09316A;stroke-miterlimit:10;}
	.st1{fill:#09316A;}
	.st2{fill:#096820;}
	.st3{fill:none;stroke:#096820;stroke-miterlimit:10;}
	.st4{fill:#FFFFFF;}
	.st5{font-family:'GmarketSansBold-KSCpc-EUC-H';}
	.st6{font-size:26px;}
	.st7{letter-spacing:2;}
	.st8{fill:#231815;}
	.st9{font-family:'GmarketSansLight-KSCpc-EUC-H';}
	.st10{font-size:20px;}
</style>
<path class="st0" d="M767.2,499.2h-562c-5.5,0-10-4.5-10-10V321.4c0-5.5,4.5-10,10-10h562c5.5,0,10,4.5,10,10v167.8
	C777.2,494.7,772.7,499.2,767.2,499.2z"/>
<path class="st1" d="M767.2,360.6h-562c-5.5,0-10-4.5-10-10v-29.1c0-5.5,4.5-10,10-10h562c5.5,0,10,4.5,10,10v29.1
	C777.2,356.1,772.7,360.6,767.2,360.6z"/>
<rect x="-122.5" y="130.3" class="st1" width="90.3" height="90.3"/>
<path class="st2" d="M385.3,204.6H241.1c-5.5,0-10-4.5-10-10V26.8c0-5.5,4.5-10,10-10h144.1c5.5,0,10,4.5,10,10v167.8
	C395.3,200.1,390.8,204.6,385.3,204.6z"/>
<path class="st2" d="M563.5,62.2H409.1c-2.7,0-4.9-2.2-4.9-4.9V21.7c0-2.7,2.2-4.9,4.9-4.9h154.3c2.7,0,4.9,2.2,4.9,4.9v35.5
	C568.4,60,566.2,62.2,563.5,62.2z"/>
<path class="st3" d="M558.4,204.6H414.2c-5.5,0-10-4.5-10-10V75.3c0-5.5,4.5-10,10-10h144.1c5.5,0,10,4.5,10,10v119.3
	C568.4,200.1,563.9,204.6,558.4,204.6z"/>
<text transform="matrix(1 0 0 1 257.9777 116.5764)" class="st4 st5 st6 st7">미취학부</text>
<g>
	<text transform="matrix(1 0 0 1 444.8809 48.9303)" class="st4 st5 st6 st7">부서명</text>
</g>
<g>
	<text transform="matrix(1 0 0 1 434.6572 90.4933)"><tspan x="0" y="0" class="st8 st9 st10 st7">영아부 1부</tspan><tspan x="-2.1" y="30" class="st8 st9 st10 st7">영아부 2부</tspan></text>
</g>
<g>
	<text transform="matrix(1 0 0 1 454.4169 154.1588)" class="st8 st9 st10 st7">유아부</text>
</g>
<g>
	<text transform="matrix(1 0 0 1 454.4169 192.304)" class="st8 st9 st10 st7">유치부</text>
</g>
<line class="st3" x1="404.2" y1="130.1" x2="568.4" y2="130.1"/>
<line class="st3" x1="404.2" y1="165.4" x2="568.4" y2="165.4"/>
<path class="st1" d="M176.2,499.2H32.1c-5.5,0-10-4.5-10-10V321.4c0-5.5,4.5-10,10-10h144.1c5.5,0,10,4.5,10,10v167.8
	C186.2,494.7,181.8,499.2,176.2,499.2z"/>
<g>
	<text transform="matrix(1 0 0 1 62.5613 394.178)"><tspan x="0" y="0" class="st4 st5 st6 st7">시푸나</tspan><tspan x="13.8" y="31.2" class="st4 st5 st6 st7">키즈</tspan></text>
</g>
<g>
	<text transform="matrix(1 0 0 1 235.666 343.5334)" class="st4 st5 st6 st7">부서명</text>
</g>
<g>
	<text transform="matrix(1 0 0 1 220.1844 391.4474)" class="st8 st9 st10 st7">키즈 영아부</text>
</g>
<g>
	<text transform="matrix(1 0 0 1 220.1844 438.2352)" class="st8 st9 st10 st7">키즈 유아부</text>
</g>
<g>
	<text transform="matrix(1 0 0 1 220.1844 484.907)" class="st8 st9 st10 st7">키즈 유치부</text>
</g>
<g>
	<text transform="matrix(1 0 0 1 481.3263 391.4474)" class="st8 st9 st10 st7">9시 30분</text>
</g>
<g>
	<text transform="matrix(1 0 0 1 478.0665 438.2352)" class="st8 st9 st10 st7">11시 30분</text>
</g>
<g>
	<text transform="matrix(1 0 0 1 478.0665 484.907)" class="st8 st9 st10 st7">11시 30분</text>
</g>
<g>
	<text transform="matrix(1 0 0 1 371.7824 343.5334)" class="st4 st5 st6 st7">나 이</text>
</g>
<g>
	<text transform="matrix(1 0 0 1 473.8926 343.5334)" class="st4 st5 st6 st7">예배시간</text>
</g>
<g>
	<text transform="matrix(1 0 0 1 609.125 391.4474)" class="st8 st9 st10 st7">베들레헴 예배실</text>
</g>
<g>
	<text transform="matrix(1 0 0 1 612.2749 438.2352)" class="st8 st9 st10 st7">작은도서관 2층</text>
</g>
<g>
	<text transform="matrix(1 0 0 1 609.125 484.907)" class="st8 st9 st10 st7">베들레헴 예배실</text>
</g>
<g>
	<text transform="matrix(1 0 0 1 632.041 343.5334)" class="st4 st5 st6 st7">예배장소</text>
</g>
<g>
	<text transform="matrix(1 0 0 1 371.7147 391.4474)" class="st8 st9 st10 st7">0~3세</text>
</g>
<g>
	<text transform="matrix(1 0 0 1 371.8348 438.2352)" class="st8 st9 st10 st7">4~5세</text>
</g>
<g>
	<text transform="matrix(1 0 0 1 372.5646 484.907)" class="st8 st9 st10 st7">6~7세</text>
</g>
<g>
	<polygon class="st2" points="424.5,254.2 446.7,232 440.5,225.8 418.3,248.1 396,225.8 389.8,232 418.3,260.4 	"/>
	<polygon class="st2" points="424.5,280.9 446.7,258.7 440.5,252.5 418.3,274.7 396,252.5 389.8,258.7 418.3,287.1 	"/>
</g>
<line class="st0" x1="195.2" y1="407" x2="777.2" y2="407"/>
<line class="st0" x1="195.2" y1="453.4" x2="777.2" y2="453.4"/>
<line class="st0" x1="351.5" y1="346.5" x2="351.5" y2="499.2"/>
<line class="st0" x1="460" y1="346.5" x2="460" y2="499.2"/>
<line class="st0" x1="596.9" y1="346.5" x2="596.9" y2="499.2"/>
</svg>
