<?xml version="1.0" encoding="utf-8"?>
<!-- Generator: Adobe Illustrator 27.8.1, SVG Export Plug-In . SVG Version: 6.00 Build 0)  -->
<svg version="1.1" id="레이어_1" xmlns="http://www.w3.org/2000/svg" xmlns:xlink="http://www.w3.org/1999/xlink" x="0px"
	 y="0px" viewBox="0 0 800 534.4" style="enable-background:new 0 0 800 534.4;" xml:space="preserve">
<style type="text/css">
	.st0{fill:none;stroke:#09316A;stroke-miterlimit:10;}
	.st1{fill:#09316A;}
	.st2{fill:#096820;}
	.st3{fill:none;stroke:#096820;stroke-miterlimit:10;}
	.st4{fill:#FFFFFF;}
	.st5{font-family:'GmarketSansBold-KSCpc-EUC-H';}
	.st6{font-size:26px;}
	.st7{letter-spacing:2;}
	.st8{fill:#231815;}
	.st9{font-family:'GmarketSansLight-KSCpc-EUC-H';}
	.st10{font-size:20px;}
</style>
<path class="st0" d="M767.2,460.7h-562c-5.5,0-10-4.5-10-10V321.4c0-5.5,4.5-10,10-10h562c5.5,0,10,4.5,10,10v129.3
	C777.2,456.3,772.7,460.7,767.2,460.7z"/>
<path class="st1" d="M767.2,360.6h-562c-5.5,0-10-4.5-10-10v-29.1c0-5.5,4.5-10,10-10h562c5.5,0,10,4.5,10,10v29.1
	C777.2,356.1,772.7,360.6,767.2,360.6z"/>
<path class="st2" d="M385.3,204.6H241.1c-5.5,0-10-4.5-10-10V26.8c0-5.5,4.5-10,10-10h144.1c5.5,0,10,4.5,10,10v167.8
	C395.3,200.1,390.8,204.6,385.3,204.6z"/>
<path class="st2" d="M563.5,62.2H409.1c-2.7,0-4.9-2.2-4.9-4.9V21.7c0-2.7,2.2-4.9,4.9-4.9h154.3c2.7,0,4.9,2.2,4.9,4.9v35.5
	C568.4,60,566.2,62.2,563.5,62.2z"/>
<path class="st3" d="M558.4,204.6H414.2c-5.5,0-10-4.5-10-10V75.3c0-5.5,4.5-10,10-10h144.1c5.5,0,10,4.5,10,10v119.3
	C568.4,200.1,563.9,204.6,558.4,204.6z"/>
<text transform="matrix(1 0 0 1 271.7838 116.5764)" class="st4 st5 st6 st7">취학부</text>
<g>
	<text transform="matrix(1 0 0 1 444.8809 48.9303)" class="st4 st5 st6 st7">부서명</text>
</g>
<g>
	<text transform="matrix(1 0 0 1 454.4169 106.8354)" class="st8 st9 st10 st7">중등부</text>
</g>
<g>
	<text transform="matrix(1 0 0 1 454.4169 174.1574)" class="st8 st9 st10 st7">고등부</text>
</g>
<line class="st3" x1="404.2" y1="132.9" x2="568.4" y2="132.9"/>
<path class="st1" d="M176.2,460.7H32.1c-5.5,0-10-4.5-10-10V321.4c0-5.5,4.5-10,10-10h144.1c5.5,0,10,4.5,10,10v129.3
	C186.2,456.3,181.8,460.7,176.2,460.7z"/>
<g>
	<text transform="matrix(1 0 0 1 62.5613 376.3606)"><tspan x="0" y="0" class="st4 st5 st6 st7">시푸나</tspan><tspan x="0" y="31.2" class="st4 st5 st6 st7">플러스</tspan></text>
</g>
<g>
	<text transform="matrix(1 0 0 1 235.666 343.5334)" class="st4 st5 st6 st7">부서명</text>
</g>
<g>
	<text transform="matrix(1 0 0 1 245.2239 412.2603)" class="st8 st9 st10 st7">플러스</text>
</g>
<g>
	<text transform="matrix(1 0 0 1 475.0665 412.2603)" class="st8 st9 st10 st7">11시 30분</text>
</g>
<g>
	<text transform="matrix(1 0 0 1 371.7824 343.5334)" class="st4 st5 st6 st7">나 이</text>
</g>
<g>
	<text transform="matrix(1 0 0 1 472.8926 343.5334)" class="st4 st5 st6 st7">예배시간</text>
</g>
<g>
	<text transform="matrix(1 0 0 1 654.4043 412.26)" class="st8 st9 st10 st7">비전홀</text>
</g>
<g>
	<text transform="matrix(1 0 0 1 632.041 343.5334)" class="st4 st5 st6 st7">예배장소</text>
</g>
<g>
	<text transform="matrix(1 0 0 1 361.225 412.2603)" class="st8 st9 st10 st7">14~19세</text>
</g>
<g>
	<polygon class="st2" points="424.5,254.2 446.7,232 440.5,225.8 418.3,248.1 396,225.8 389.8,232 418.3,260.4 	"/>
	<polygon class="st2" points="424.5,280.9 446.7,258.7 440.5,252.5 418.3,274.7 396,252.5 389.8,258.7 418.3,287.1 	"/>
</g>
<path class="st0" d="M596.4,429.4"/>
<path class="st0" d="M195.2,429.4"/>
<line class="st0" x1="351.5" y1="346.5" x2="351.5" y2="460.7"/>
<line class="st0" x1="455.6" y1="346.5" x2="455.6" y2="460.7"/>
<line class="st0" x1="596.9" y1="346.5" x2="596.9" y2="460.7"/>
</svg>
