<?xml version="1.0" encoding="utf-8"?>
<!-- Generator: Adobe Illustrator 27.8.1, SVG Export Plug-In . SVG Version: 6.00 Build 0)  -->
<svg version="1.1" id="Layer_1" xmlns="http://www.w3.org/2000/svg" xmlns:xlink="http://www.w3.org/1999/xlink" x="0px" y="0px"
	 viewBox="0 0 800 800" style="enable-background:new 0 0 800 800;" xml:space="preserve">
<g>
	<path d="M102.6,732.4c-19.4-2.6-44-6.5-55.6-7.8c3.9,1.3,7.8,2.6,10.3,3.9c16.8,5.2,18.1,6.5,19.4,7.8v1.3c0,1.3-1.3,1.3-2.6,1.3
		c0,0-1.3,0-1.3-1.3c-1.3-1.3-10.3-3.9-16.8-6.5c-16.8-5.2-18.1-5.2-19.4-7.8c0,0,0,0,0-1.3c1.3-2.6,7.8-2.6,65.9,6.5
		c22,3.9,47.8,7.8,58.2,7.8c-9.1-3.9-29.7-10.3-47.8-16.8c-41.4-12.9-53-18.1-54.3-20.7c0-1.3,0-1.3,0-2.6
		c1.3-3.9,12.9-1.3,95.7,19.4c33.6,9.1,75,19.4,87.9,20.7c-10.3-6.5-47.8-18.1-78.9-28.4c-55.6-19.4-80.2-28.4-82.8-32.3
		c0-1.3,0-1.3,0-2.6c1.3-1.3,3.9-2.6,12.9,0c6.5,1.3,15.5,3.9,27.2,6.5c20.7,6.5,50.4,15.5,77.6,24.6c44,14.2,98.3,31,111.2,32.3
		c-10.3-6.5-63.4-23.3-106-38.8c-72.4-24.6-107.3-36.2-108.6-41.4c-1.3-1.3-1.3-1.3-1.3-2.6c1.3-2.6,2.6-3.9,40.1,5.2
		c22,6.5,51.7,14.2,80.2,23.3c45.3,12.9,99.6,28.4,112.5,29.7c-10.3-6.5-64.6-25.9-108.6-40.1c-75-25.9-111.2-38.8-113.8-44
		c0,0,0-1.3,0-2.6c1.3-1.3,1.3-3.9,40.1,5.2c22,6.5,50.4,14.2,78.9,22c45.3,12.9,99.6,28.4,112.5,28.4
		c-10.3-6.5-62.1-23.3-103.4-37.5c-71.1-24.6-104.7-36.2-107.3-41.4c0-1.3,0-1.3,0-2.6c0-2.6,3.9-2.6,12.9,0
		c5.2,1.3,14.2,2.6,25.9,6.5c20.7,6.5,49.1,15.5,76.3,23.3c44,14.2,95.7,31,109.9,32.3c-11.6-6.5-60.8-23.3-102.1-37.5
		c-69.8-23.3-102.1-34.9-104.7-40.1c0-1.3,0-1.3,0-2.6c0-2.6,3.9-2.6,11.6,0c6.5,0,14.2,2.6,25.9,6.5c20.7,5.2,49.1,14.2,76.3,22
		c42.7,12.9,94.4,28.4,107.3,29.7c-11.6-6.5-62.1-23.3-103.4-37.5c-72.4-24.6-106-36.2-108.6-41.4c0-1.3,0-1.3,0-2.6
		c1.3-2.6,3.9-2.6,12.9-1.3c6.5,1.3,14.2,3.9,25.9,6.5c20.7,5.2,49.1,14.2,77.6,22c42.7,12.9,95.7,28.4,108.6,29.7
		c-10.3-7.8-63.4-24.6-104.7-38.8c-72.4-24.6-107.3-37.5-109.9-42.7c0,0,0-1.3,0-2.6c1.3-1.3,3.9-1.3,12.9,0
		c5.2,1.3,14.2,3.9,25.9,6.5c20.7,6.5,47.8,15.5,75,24.6c42.7,14.2,94.4,31,108.6,32.3c-11.6-6.5-60.8-23.3-100.9-36.2
		c-69.8-24.6-102.1-36.2-104.7-41.4v-1.3c1.3-2.6,3.9-2.6,11.6-1.3c6.5,1.3,14.2,3.9,24.6,6.5c19.4,5.2,45.3,14.2,69.8,22
		c38.8,11.6,86.6,27.2,99.6,28.4c-11.6-6.5-58.2-22-95.7-34.9c-68.5-23.3-98.3-33.6-100.9-38.8c0-1.3,0-1.3,0-2.6
		c1.3-3.9,9.1-6.5,85.3,19.4c49.1,16.8,113.8,40.1,177.1,62.1c62.1,23.3,125.4,45.3,173.3,62.1c67.2,22,81.5,23.3,85.3,22
		c-2.6-2.6-15.5-10.3-78.9-34.9c-47.8-16.8-111.2-38.8-172-59.5c-153.9-51.7-247-84-252.1-95.7c-1.3-1.3-1.3-2.6,0-2.6
		c1.3-3.9,7.8-6.5,77.6,16.8c44,14.2,103.4,36.2,160.3,56.9c55.6,19.4,113.8,41.4,156.5,55.6c59.5,19.4,73.7,20.7,77.6,20.7
		c-2.6-2.6-14.2-10.3-71.1-31c-41.4-15.5-97-34.9-151.3-53c-137.1-45.3-219.8-75-225-85.3c-1.3-1.3-1.3-2.6,0-2.6
		c1.3-3.9,7.8-6.5,71.1,15.5c40.1,14.2,93.1,34.9,146.1,54.3c50.4,19.4,102.1,38.8,142.2,53c51.7,18.1,65.9,19.4,69.8,19.4
		c-2.6-2.6-14.2-10.3-65.9-28.4c-38.8-14.2-91.8-32.3-142.2-49.1c-126.7-42.7-204.3-69.8-209.5-80.2c-1.3-1.3,0-2.6,0-2.6
		c1.3-3.9,7.8-5.2,65.9,14.2c38.8,11.6,87.9,29.7,137.1,46.5c47.8,16.8,95.7,33.6,133.2,46.5c47.8,15.5,62.1,16.8,64.7,16.8
		c-2.6-2.6-14.2-9.1-60.8-25.9c-36.2-14.2-85.3-29.7-131.9-46.5c-119-40.1-192.7-65.9-196.5-75c0-1.3,0-1.3,0-2.6
		c1.3-2.6,6.5-5.2,59.5,12.9c33.6,10.3,78.9,27.2,122.8,42.7c41.4,14.2,85.3,29.7,119,41.4c41.4,12.9,54.3,15.5,58.2,15.5
		c-2.6-2.6-14.2-9.1-58.2-24.6c-33.6-12.9-78.9-28.4-122.8-42.7c-111.2-37.5-179.7-62.1-183.6-69.8c0-1.3,0-2.6,0-2.6
		c1.3-2.6,3.9-3.9,18.1,0c9.1,1.3,22,5.2,38.8,11.6c32.3,10.3,75,25.9,117.7,40.1c40.1,14.2,81.5,29.7,112.5,40.1
		c40.1,12.9,51.7,15.5,55.6,14.2c-2.6-1.3-14.2-7.8-55.6-23.3c-33.6-11.6-77.6-27.2-120.2-41.4c-108.6-36.2-174.6-59.5-178.4-68.5
		c0-1.3,0-1.3,0-2.6c1.3-2.6,3.9-2.6,16.8,0c9.1,1.3,20.7,5.2,37.5,9.1c29.7,9.1,71.1,22,109.9,34.9c37.5,11.6,77.6,24.6,107.3,33.6
		c37.5,10.3,49.1,12.9,51.7,11.6c-2.6-2.6-14.2-7.8-55.6-23.3c-33.6-12.9-78.9-27.2-121.5-42.7c-109.9-36.2-175.8-59.5-179.7-68.5
		c-1.3-1.3-1.3-1.3-1.3-2.6c1.3-2.6,5.2-2.6,18.1,0c9.1,2.6,22,5.2,40.1,11.6c31,9.1,73.7,23.3,115.1,37.5
		c40.1,14.2,81.5,28.4,113.8,37.5c38.8,12.9,51.7,14.2,54.3,14.2c-2.6-2.6-14.2-9.1-58.2-24.6c-33.6-12.9-80.2-28.4-124.1-44
		c-112.5-37.5-181-62.1-184.9-69.8c-1.3-1.3-1.3-2.6-1.3-2.6c1.3-3.9,7.8-5.2,62.1,11.6c34.9,11.6,81.5,27.2,125.4,42.7
		c44,15.5,87.9,31,122.8,42.7c44,12.9,55.6,15.5,59.5,15.5c-2.6-2.6-14.2-10.3-62.1-27.2c-36.2-12.9-85.3-29.7-133.2-46.5
		c-120.2-40.1-193.9-65.9-197.8-75c-1.3-1.3-1.3-2.6,0-2.6c1.3-3.9,6.5-5.2,67.2,14.2c37.5,11.6,87.9,31,137.1,47.8
		c46.5,16.8,95.7,34.9,133.2,46.5c49.1,16.8,62.1,19.4,65.9,18.1c-2.6-2.6-15.5-10.3-68.5-29.7c-40.1-14.2-94.4-32.3-146.1-50.4
		c-131.9-45.3-212.1-72.4-217.2-82.8c-1.3-1.3,0-2.6,0-2.6c1.3-3.9,7.8-6.5,75,16.8c41.4,14.2,98.3,34.9,153.9,55.6
		c53,20.7,107.3,40.1,150,54.3c55.6,19.4,69.8,22,73.7,20.7c-2.6-2.6-15.5-10.3-75-32.3c-45.3-16.8-104.7-36.2-162.9-55.6
		C193.1,188,105.2,158.3,98.7,146.7c0-1.3,0-2.6,0-2.6c1.3-2.6,3.9-3.9,16.8,0c7.8,1.3,19.4,3.9,33.6,9.1
		c28.4,7.8,65.9,20.7,102.1,32.3c59.5,19.4,133.2,44,144.8,44c-2.6-2.6-12.9-7.8-49.1-22c-29.7-10.3-69.8-23.3-107.3-36.2
		C141.4,137.6,81.9,116.9,78,109.2c0-1.3,0-1.3,0-2.6c1.3-2.6,3.9-2.6,16.8,0c9.1,1.3,20.7,5.2,36.2,9.1
		c29.7,9.1,69.8,22,107.3,33.6c63.4,20.7,142.2,45.3,155.2,45.3c-10.3-7.8-78.9-31-135.8-50.4C166,113,122,97.5,119.4,91.1
		c0-1.3,0-2.6,0-2.6c1.3-2.6,3.9-2.6,14.2,0c6.5,1.3,16.8,3.9,29.7,7.8c23.3,7.8,55.6,18.1,86.6,28.4
		c50.4,16.8,111.2,36.2,125.4,37.5c-10.3-6.5-64.6-24.6-109.9-40.1c-75-25.9-109.9-38.8-112.5-44c-1.3,0-1.3-1.3,0-1.3
		c0-2.6,1.3-5.2,34.9,2.6c19.4,5.2,45.3,11.6,69.8,18.1c37.5,9.1,84,20.7,97,22c-10.3-5.2-41.4-15.5-67.2-24.6
		c-54.3-18.1-71.1-24.6-72.4-27.2c0-1.3,0-1.3,0-2.6c1.3-2.6,6.5-2.6,60.8,9.1c16.8,3.9,38.8,7.8,49.1,9.1
		c-6.5-2.6-18.1-6.5-27.2-9.1c-28.4-10.3-34.9-12.9-36.2-14.2c0-1.3,0-1.3,0-2.6c1.3-1.3,1.3-1.3,25.9-6.5
		c6.5-1.3,15.5-2.6,20.7-3.9c0,0,0,0,0-1.3c0,0,1.3-1.3,2.6,0c0,0,0,0,1.3,0s1.3,1.3,2.6,1.3c0,1.3,0,1.3,0,1.3
		c-1.3,2.6-2.6,2.6-25.9,6.5c-7.8,1.3-15.5,3.9-20.7,3.9c6.5,2.6,20.7,7.8,31,11.6c28.4,9.1,34.9,11.6,36.2,14.2v1.3
		c-1.3,3.9-6.5,2.6-60.8-7.8c-19.4-3.9-42.7-9.1-51.7-10.3c10.3,5.2,41.4,15.5,65.9,24.6c54.3,18.1,71.1,24.6,72.4,27.2
		c0,1.3,0,1.3,0,2.6s-1.3,3.9-34.9-3.9c-19.4-3.9-45.3-10.3-69.8-16.8c-38.8-10.3-86.6-23.3-98.3-23.3
		c10.3,6.5,64.6,25.9,108.6,40.1c76.3,25.9,111.2,38.8,113.8,44v1.3c-1.3,2.6-3.9,2.6-14.2,1.3c-6.5-1.3-16.8-3.9-29.7-7.8
		c-23.3-7.8-55.6-18.1-86.6-28.4c-51.7-16.8-113.8-37.5-125.4-38.8c10.3,7.8,78.9,31,134.5,50.4c91.8,31,135.8,46.5,138.4,53
		c1.3,1.3,0,1.3,0,2.6c0,2.6-3.9,2.6-16.8,0c-7.8-1.3-19.4-5.2-36.2-9.1c-29.7-9.1-68.5-22-107.3-33.6
		c-63.4-20.7-142.2-45.3-153.9-45.3c2.6,2.6,12.9,9.1,49.1,22c29.7,10.3,69.8,24.6,108.6,37.5c97,32.3,156.5,53,160.3,60.8
		c0,1.3,0,2.6,0,2.6c-1.3,2.6-3.9,2.6-16.8,0c-7.8-1.3-18.1-3.9-33.6-9.1c-27.2-7.8-64.6-20.7-100.9-32.3
		c-60.8-20.7-135.8-45.3-146.1-44c1.3,3.9,15.5,11.6,73.7,32.3c45.3,16.8,104.7,37.5,161.6,56.9c146.1,49.1,234,80.2,239.2,90.5
		c1.3,1.3,1.3,2.6,1.3,2.6c-2.6,3.9-9.1,6.5-76.3-16.8c-41.4-14.2-98.3-34.9-152.6-55.6c-54.3-19.4-108.6-40.1-150-54.3
		c-56.9-19.4-71.1-22-73.7-20.7c1.3,2.6,14.2,10.3,67.2,29.7c41.4,14.2,94.4,32.3,147.4,50.4c131.9,45.3,212.1,72.4,217.2,82.8
		c0,1.3,0,2.6,0,2.6c-1.3,3.9-7.8,5.2-67.2-14.2c-37.5-11.6-89.2-29.7-137.1-47.8c-47.8-16.8-97-34.9-134.5-46.5
		c-47.8-16.8-62.1-18.1-64.6-18.1c2.6,2.6,14.2,9.1,62.1,27.2c36.2,12.9,85.3,29.7,133.2,45.3c120.2,41.4,193.9,67.2,197.8,76.3
		c1.3,1.3,0,2.6,0,2.6c-1.3,3.9-6.5,5.2-60.8-12.9c-34.9-10.3-81.5-27.2-126.7-42.7c-42.7-14.2-87.9-31-121.5-41.4
		c-44-14.2-56.9-15.5-59.5-15.5c2.6,2.6,14.2,9.1,58.2,24.6c33.6,12.9,80.2,28.4,124.1,44c112.5,37.5,181,62.1,186.2,69.8
		c0,1.3,0,2.6,0,2.6c-1.3,2.6-5.2,3.9-18.1,0c-9.1-1.3-22-5.2-40.1-10.3c-31-10.3-73.7-24.6-115.1-38.8
		c-40.1-12.9-81.5-27.2-113.8-37.5c-38.8-11.6-51.7-14.2-54.3-14.2c2.6,2.6,14.2,9.1,55.6,24.6c33.6,12.9,78.9,27.2,121.5,42.7
		c109.9,36.2,175.8,59.5,179.7,68.5c1.3,1.3,1.3,1.3,1.3,2.6c-1.3,2.6-5.2,2.6-18.1,0c-7.8-1.3-20.7-5.2-36.2-9.1
		c-31-9.1-71.1-22-111.2-34.9c-37.5-11.6-76.3-24.6-106-33.6c-37.5-10.3-49.1-12.9-53-12.9c2.6,2.6,14.2,9.1,55.6,24.6
		c33.6,11.6,77.6,27.2,120.2,41.4c108.6,36.2,174.6,59.5,178.4,68.5c1.3,1.3,0,1.3,0,2.6c0,2.6-3.9,2.6-18.1,0
		c-9.1-2.6-22-6.5-38.8-11.6c-32.3-11.6-75-25.9-116.4-41.4c-40.1-14.2-81.5-28.4-113.8-38.8c-38.8-14.2-51.7-15.5-55.6-15.5
		c2.6,2.6,15.5,9.1,58.2,24.6c33.6,12.9,78.9,27.2,122.8,42.7c111.2,37.5,179.7,60.8,183.6,69.8c0,1.3,0,2.6,0,2.6
		c-1.3,3.9-6.5,5.2-60.8-12.9c-33.6-10.3-77.6-25.9-121.5-41.4c-42.7-15.5-85.3-31-119-41.4c-41.4-14.2-54.3-16.8-58.2-15.5
		c2.6,2.6,15.5,9.1,62.1,25.9c36.2,12.9,84,29.7,131.9,45.3c119,41.4,191.4,65.9,195.2,75c1.3,1.3,1.3,2.6,0,2.6
		c-1.3,3.9-6.5,5.2-65.9-14.2c-37.5-11.6-87.9-29.7-137.1-46.5c-46.5-16.8-95.7-33.6-133.2-46.5c-47.8-15.5-62.1-16.8-64.7-16.8
		c2.6,2.6,14.2,10.3,65.9,28.4c38.8,14.2,90.5,32.3,140.9,49.1c128,42.7,205.6,69.8,210.8,80.2c0,1.3,0,2.6,0,2.6
		c-1.3,3.9-9.1,5.2-72.4-16.8c-40.1-12.9-93.1-33.6-144.8-53c-50.4-19.4-103.4-38.8-142.2-53c-53-18.1-67.2-20.7-69.8-19.4
		c1.3,2.6,14.2,10.3,69.8,31c41.4,15.5,98.3,33.6,152.6,51.7c135.8,46.5,219.8,75,225,86.6c0,1.3,0,1.3,0,2.6
		c-2.6,3.9-9.1,5.2-78.9-16.8c-44-15.5-103.4-36.2-160.3-56.9c-55.6-20.7-112.5-41.4-156.5-55.6c-59.5-20.7-73.7-22-76.3-20.7
		c1.3,2.6,14.2,11.6,78.9,34.9c46.5,16.8,109.9,38.8,170.7,59.5c153.9,51.7,247,84,253.4,95.7c0,1.3,0,2.6,0,2.6
		c-2.6,5.2-10.3,6.5-86.6-18.1c-49.1-16.8-113.8-40.1-177.1-63.4c-60.8-22-125.4-45.3-173.3-60.8c-62.1-20.7-78.9-23.3-84-23.3
		c9.1,6.5,58.2,23.3,98.3,36.2c67.2,23.3,98.3,33.6,99.6,38.8c1.3,1.3,1.3,1.3,0,2.6c0,1.3-2.6,1.3-11.6,0
		c-5.2-1.3-12.9-2.6-23.3-6.5c-19.4-5.2-45.3-12.9-71.1-20.7c-38.8-12.9-85.3-27.2-98.3-28.4c11.6,6.5,59.5,22,99.6,36.2
		c69.8,23.3,102.1,34.9,104.7,40.1c0,0,0,1.3,0,2.6c-1.3,1.3-3.9,1.3-12.9,0c-5.2-1.3-14.2-3.9-25.9-6.5
		c-20.7-6.5-47.8-15.5-75-24.6c-42.7-14.2-94.4-31-108.6-32.3c12.9,6.5,63.4,24.6,106,38.8c72.4,24.6,107.3,36.2,108.6,41.4
		c1.3,1.3,1.3,2.6,1.3,2.6c-1.3,2.6-5.2,2.6-12.9,1.3c-6.5-1.3-15.5-3.9-25.9-6.5c-22-5.2-50.4-14.2-77.6-22
		c-44-12.9-97-28.4-109.9-29.7c11.6,7.8,62.1,24.6,104.7,38.8c71.1,24.6,104.7,36.2,107.3,41.4c0,1.3,0,1.3,0,2.6s-3.9,2.6-12.9,0
		c-5.2-1.3-14.2-2.6-24.6-6.5c-20.7-5.2-49.1-14.2-76.3-22c-42.7-12.9-94.4-28.4-107.3-29.7c10.3,6.5,60.8,23.3,100.9,36.2
		c69.8,24.6,103.4,36.2,106,41.4v1.3c-1.3,2.6-3.9,2.6-12.9,1.3c-6.5-1.3-14.2-3.9-25.9-6.5c-20.7-6.5-49.1-15.5-77.6-24.6
		c-42.7-12.9-95.7-29.7-108.6-31c11.6,6.5,62.1,23.3,103.4,37.5c71.1,24.6,104.7,36.2,107.3,41.4c1.3,1.3,1.3,1.3,0,2.6
		c0,1.3-1.3,3.9-38.8-5.2c-22-5.2-51.7-14.2-80.2-22c-44-12.9-99.6-28.4-112.5-28.4c11.6,6.5,64.6,24.6,109.9,40.1
		c75,25.9,109.9,38.8,112.5,44c1.3,0,1.3,1.3,0,1.3c0,2.6-1.3,5.2-38.8-5.2c-22-5.2-51.7-14.2-80.2-22
		c-45.3-12.9-100.9-29.7-112.5-29.7c10.3,6.5,62.1,23.3,104.7,38.8c73.7,24.6,107.3,36.2,109.9,41.4c1.3,1.3,1.3,1.3,0,2.6
		c0,2.6-3.9,2.6-12.9,0c-5.2-1.3-14.2-2.6-25.9-6.5c-22-6.5-50.4-15.5-78.9-24.6c-42.7-14.2-95.7-31-109.9-32.3
		c10.3,5.2,47.8,18.1,77.6,28.4c56.9,18.1,81.5,27.2,84,32.3v1.3c-2.6,3.9-12.9,2.6-95.7-18.1c-33.6-9.1-72.4-19.4-86.6-20.7
		c9.1,3.9,29.7,11.6,47.8,16.8c40.1,14.2,53,18.1,54.3,22v1.3c0,1.3-1.3,1.3-5.2,1.3C155.6,740.1,140.1,738.9,102.6,732.4z
		 M310.8,48.4c1.3-1.3,1.3-1.3,0-2.6C312.1,47.1,312.1,47.1,310.8,48.4z M698.7,742.7c-6.5-2.6-18.1-5.2-31-10.3
		c-27.2-7.8-62.1-19.4-95.7-31C517.7,682,450.4,660,436.2,658.7c11.6,6.5,62.1,23.3,103.4,37.5c71.1,24.6,104.7,36.2,107.3,41.4v1.3
		c-1.3,2.6-2.6,3.9-32.3-1.3c-16.8-3.9-40.1-9.1-62.1-14.2c-32.3-7.8-71.1-16.8-84-18.1c7.8,2.6,24.6,9.1,38.8,12.9
		c33.6,11.6,44,15.5,45.3,18.1c0,1.3,0,1.3,0,1.3c0,2.6-2.6,3.9-41.4,0c-10.3,0-22-1.3-29.7-1.3c0,0,0,0,1.3,0c0,1.3,0,1.3,0,1.3
		c-1.3,1.3-2.6,2.6-2.6,1.3c-1.3,0-1.3,0-1.3,0l-2.6-1.3c-5.2-1.3-5.2-1.3-6.5-2.6v-1.3c1.3-2.6,2.6-2.6,41.4,0
		c12.9,1.3,27.2,2.6,33.6,2.6c-7.8-3.9-24.6-9.1-38.8-14.2c-33.6-11.6-44-15.5-45.3-18.1c0,0-1.3-1.3,0-1.3c0-2.6,1.3-3.9,31,2.6
		c16.8,3.9,40.1,9.1,62.1,14.2c33.6,7.8,75,18.1,86.6,18.1c-10.3-6.5-60.8-23.3-102.1-37.5c-71.1-24.6-104.7-36.2-107.3-41.4v-1.3
		c1.3-2.6,3.9-3.9,15.5-1.3c7.8,2.6,18.1,5.2,32.3,9.1c25.9,9.1,60.8,20.7,94.4,32.3c55.6,19.4,122.8,42.7,135.8,42.7
		c-10.3-7.8-81.5-32.3-139.6-51.7c-95.7-32.3-140.9-49.1-144.8-55.6c0-1.3,0-1.3,0-2.6c1.3-2.6,3.9-2.6,18.1,0
		c9.1,2.6,22,6.5,38.8,11.6c31,10.3,72.4,24.6,113.8,38.8c38.8,12.9,78.9,27.2,109.9,37.5c37.5,12.9,50.4,14.2,53,14.2
		c-2.6-2.6-14.2-9.1-55.6-23.3c-32.3-12.9-76.3-27.2-119-41.4C475,630.2,409.1,607,405.2,599.2c0-1.3,0-2.6,0-2.6
		c1.3-3.9,6.5-5.2,54.3,9.1c29.7,9.1,69.8,23.3,109.9,36.2c37.5,11.6,76.3,24.6,106,33.6c36.2,10.3,47.8,12.9,51.7,12.9
		c-2.6-2.6-14.2-9.1-51.7-22c-31-11.6-71.1-25.9-111.2-38.8c-100.9-34.9-162.9-55.6-166.8-63.4c0-1.3,0-2.6,0-2.6
		c0-1.3,1.3-1.3,2.6-1.3s1.3,1.3,1.3,2.6c1.3,1.3,10.3,6.5,53,22c29.7,11.6,71.1,25.9,111.2,38.8c100.9,34.9,162.9,55.6,165.5,63.4
		c1.3,1.3,1.3,2.6,1.3,2.6c-1.3,3.9-6.5,5.2-54.3-9.1c-31-9.1-71.1-23.3-109.9-36.2c-37.5-11.6-77.6-24.6-107.3-33.6
		c-36.2-10.3-47.8-12.9-51.7-12.9c3.9,2.6,15.5,9.1,55.6,24.6c33.6,11.6,77.6,27.2,120.2,41.4c108.6,36.2,174.6,59.5,178.4,68.5v1.3
		c-1.3,2.6-3.9,3.9-18.1,0c-9.1-1.3-20.7-5.2-37.5-10.3C675.4,713,634,698.8,594,684.5c-40.1-14.2-80.2-28.4-111.2-37.5
		c-36.2-12.9-49.1-14.2-53-14.2c10.3,7.8,81.5,32.3,140.9,51.7c94.4,32.3,140.9,47.8,143.5,55.6v1.3c0,1.3-1.3,2.6-3.9,2.6
		C707.7,744,703.9,742.7,698.7,742.7z M581,305.7c-3.9-3.9-50.4-20.7-87.9-32.3c-60.8-20.7-87.9-31-90.5-34.9c0-1.3,0-1.3,0-2.6
		c1.3-1.3,3.9-2.6,11.6,0c5.2,0,11.6,2.6,22,5.2c16.8,3.9,40.1,11.6,63.4,18.1c34.9,10.3,76.3,23.3,89.2,24.6
		c-11.6-6.5-54.3-20.7-90.5-32.3c-63.4-22-91.8-32.3-94.4-36.2c0-1.3,0-2.6,0-2.6c1.3-2.6,1.3-3.9,34.9,3.9
		c19.4,5.2,46.5,12.9,71.1,19.4c38.8,10.3,86.6,24.6,99.6,24.6c-11.6-5.2-56.9-20.7-94.4-33.6c-65.9-23.3-95.7-33.6-97-37.5
		c-1.3-1.3-1.3-1.3,0-2.6c0-2.6,2.6-2.6,11.6,0c5.2,0,11.6,2.6,22,5.2c19.4,5.2,44,12.9,68.5,20.7c37.5,11.6,82.8,25.9,95.7,28.4
		c-11.6-6.5-56.9-22-93.1-34.9c-64.7-20.7-95.7-32.3-98.3-37.5v-1.3c1.3-2.6,3.9-2.6,11.6-1.3c6.5,1.3,14.2,3.9,24.6,6.5
		c19.4,5.2,45.3,12.9,71.1,20.7c38.8,12.9,86.6,27.2,99.6,28.4c-11.6-6.5-59.5-23.3-99.6-36.2c-69.8-23.3-102.1-34.9-104.7-40.1
		c0-1.3,0-1.3,0-2.6c1.3-1.3,3.9-2.6,12.9,0c5.2,1.3,12.9,2.6,24.6,6.5c19.4,6.5,46.5,14.2,73.7,23.3c40.1,12.9,89.2,28.4,103.4,31
		c-11.6-6.5-60.8-23.3-100.9-37.5c-69.8-23.3-103.4-34.9-106-40.1c0-1.3,0-1.3,0-2.6c1.3-2.6,5.2-2.6,12.9,0
		c6.5,1.3,15.5,2.6,27.2,6.5c22,6.5,50.4,15.5,78.9,23.3c44,14.2,97,31,109.9,32.3c-10.3-6.5-62.1-24.6-103.4-38.8
		c-72.4-24.6-107.3-36.2-109.9-41.4c0-1.3,0-1.3,0-2.6c1.3-2.6,3.9-2.6,12.9-1.3c6.5,1.3,14.2,3.9,25.9,6.5
		c20.7,6.5,49.1,15.5,75,23.3c42.7,12.9,94.4,28.4,107.3,29.7c-11.6-6.5-62.1-23.3-103.4-37.5c-72.4-24.6-106-36.2-108.6-41.4
		c0-1.3,0-2.6,0-2.6c1.3-2.6,3.9-2.6,12.9-1.3c6.5,1.3,14.2,3.9,25.9,6.5c22,6.5,50.4,14.2,77.6,23.3
		c42.7,11.6,95.7,28.4,109.9,29.7c-11.6-6.5-51.7-19.4-85.3-31c-60.8-20.7-86.6-29.7-89.2-34.9v-1.3c1.3-2.6,3.9-2.6,11.6-1.3
		c5.2,0,11.6,2.6,22,3.9c18.1,5.2,42.7,10.3,65.9,16.8c34.9,9.1,77.6,20.7,91.8,22c-9.1-3.9-29.7-10.3-46.5-16.8
		c-38.8-12.9-50.4-16.8-53-19.4c0-1.3,0-1.3,0-2.6c1.3-2.6,6.5-2.6,58.2,7.8c16.8,3.9,36.2,7.8,46.5,9.1c-3.9-1.3-10.3-2.6-15.5-5.2
		c-20.7-6.5-24.6-7.8-25.9-10.3V73c1.3-2.6,2.6-2.6,36.2-1.3c10.3,0,22,1.3,28.4,0c1.3-1.3,2.6-1.3,2.6-1.3h1.3
		c2.6,1.3,2.6,1.3,2.6,2.6c1.3,0,1.3,0,0,1.3c0,1.3-1.3,2.6-34.9,1.3c-9.1,0-20.7-1.3-27.2-1.3c3.9,2.6,11.6,5.2,18.1,6.5
		c20.7,7.8,24.6,9.1,25.9,10.3c0,1.3,0,1.3,0,2.6c-1.3,2.6-6.5,2.6-58.2-9.1c-18.1-2.6-38.8-7.8-49.1-9.1
		c9.1,3.9,28.4,10.3,45.3,16.8c38.8,12.9,50.4,16.8,51.7,19.4c1.3,1.3,1.3,1.3,0,2.6c0,1.3-2.6,2.6-10.3,1.3
		c-5.2-1.3-12.9-2.6-22-5.2c-18.1-3.9-42.7-10.3-67.2-16.8c-34.9-9.1-78.9-20.7-91.8-22c10.3,6.5,50.4,19.4,84,31
		c60.8,20.7,86.6,29.7,89.2,34.9v1.3c-1.3,2.6-3.9,2.6-12.9,1.3c-5.2-1.3-14.2-3.9-25.9-6.5c-20.7-6.5-49.1-14.2-77.6-23.3
		c-42.7-12.9-97-28.4-109.9-29.7c11.6,6.5,62.1,24.6,104.7,38.8c71.1,24.6,106,36.2,107.3,41.4c1.3,1.3,1.3,1.3,1.3,2.6
		c-1.3,1.3-5.2,2.6-12.9,0c-6.5-1.3-14.2-2.6-25.9-6.5c-20.7-5.2-49.1-14.2-75-22c-42.7-12.9-94.4-28.4-107.3-29.7
		c11.6,6.5,62.1,23.3,104.7,37.5c71.1,24.6,106,37.5,108.6,42.7v1.3c-1.3,2.6-3.9,2.6-12.9,1.3c-6.5-1.3-15.5-3.9-27.2-6.5
		c-20.7-6.5-50.4-15.5-77.6-24.6c-44-12.9-98.3-29.7-111.2-31c10.3,6.5,60.8,23.3,100.9,36.2c69.8,24.6,102.1,36.2,104.7,41.4v1.3
		c0,2.6-3.9,2.6-11.6,1.3c-6.5-1.3-14.2-3.9-24.6-6.5c-20.7-6.5-47.8-15.5-73.7-23.3c-41.4-12.9-90.5-29.7-103.4-31
		c11.6,6.5,59.5,23.3,99.6,36.2c68.5,23.3,102.1,34.9,104.7,40.1c0,1.3,0,1.3,0,2.6c-1.3,2.6-3.9,2.6-11.6,0
		c-6.5,0-14.2-2.6-24.6-5.2c-19.4-5.2-45.3-14.2-71.1-22c-38.8-11.6-86.6-27.2-99.6-28.4c10.3,6.5,55.6,22,93.1,34.9
		c64.6,22,95.7,32.3,97,37.5c1.3,0,1.3,1.3,0,1.3c0,2.6-2.6,2.6-10.3,1.3c-6.5-1.3-12.9-2.6-23.3-6.5c-19.4-5.2-44-12.9-68.5-20.7
		c-37.5-11.6-82.8-25.9-95.7-27.2c11.6,6.5,56.9,20.7,93.1,33.6c67.2,22,97,32.3,98.3,37.5c1.3,1.3,1.3,1.3,0,2.6
		c0,1.3-1.3,3.9-34.9-3.9c-19.4-5.2-45.3-12.9-71.1-19.4c-38.8-11.6-86.6-24.6-98.3-24.6c10.3,5.2,54.3,20.7,89.2,32.3
		c64.7,22,93.1,32.3,95.7,36.2c0,1.3,0,1.3,0,2.6c-1.3,1.3-3.9,2.6-11.6,0c-5.2,0-11.6-2.6-20.7-5.2c-18.1-3.9-41.4-11.6-64.7-18.1
		c-33.6-10.3-76.3-23.3-89.2-24.6c11.6,6.5,51.7,19.4,85.3,31c60.8,20.7,87.9,29.7,90.5,34.9v1.3c0,1.3-1.3,1.3-2.6,1.3
		S581,305.7,581,305.7z M478.9,737.6c0,0,0,0,0-1.3C478.9,737.6,478.9,737.6,478.9,737.6z"/>
</g>
</svg>
