<?xml version="1.0" encoding="utf-8"?>
<!-- Generator: Adobe Illustrator 27.8.1, SVG Export Plug-In . SVG Version: 6.00 Build 0)  -->
<svg version="1.1" id="Layer_1" xmlns="http://www.w3.org/2000/svg" xmlns:xlink="http://www.w3.org/1999/xlink" x="0px" y="0px"
	 viewBox="0 0 800 800" style="enable-background:new 0 0 800 800;" xml:space="preserve">
<g>
	<path d="M334,493.1c-67.8,63.6-116,129.7-144.5,198.2c-12.2,28.6-25.1,50.3-38.8,65.1c-33.1-1.9-57.5-8.7-73.1-20.3
		C61.8,724.6,54,705.4,54,678.8c0-23.6,10.2-52.8,30.6-87.7s70.9-89.4,151.7-163.7c12.2-11.4,22.5-21.3,30.9-29.7
		C194.4,291.1,158,207.9,158,148c0-62.8,27.6-94.3,82.8-94.3c38.5,0,59,28.2,61.7,84.6c2.3,57.9,23.6,117.9,64,180
		c19.8-17.9,40.9-39,63.4-63.4c6.5-6.8,12.6-13.1,18.3-18.8c48-50.7,82.5-95.6,103.4-134.8c13.7-24.8,25-40.7,34-48
		c9-7.2,22.2-10.9,39.7-10.9c19.4,0,36.2,6.9,50.3,20.6s21.1,30.5,21.1,50.3c0,41.5-88.6,142.2-265.7,302.2
		c60.2,73.9,124.3,129.7,192.5,167.4c8.4,5,16.4,10.9,24,17.7c3,7.2,4.6,15,4.6,23.4c0,19.4-7.8,36.5-23.4,51.1
		c-15.6,14.6-34.7,22-57.1,22C515.2,697.1,436,629.1,334,493.1z"/>
</g>
</svg>
