<?xml version="1.0" encoding="utf-8"?>
<!-- Generator: Adobe Illustrator 28.2.0, SVG Export Plug-In . SVG Version: 6.00 Build 0)  -->
<svg version="1.1" id="Layer_1" xmlns="http://www.w3.org/2000/svg" xmlns:xlink="http://www.w3.org/1999/xlink" x="0px" y="0px"
	 viewBox="0 0 500 500" style="enable-background:new 0 0 500 500;" xml:space="preserve">
<style type="text/css">
	.st0{fill-rule:evenodd;clip-rule:evenodd;fill:#1B260B;}
</style>
<path class="st0" d="M255,482.3c-125.1,0-226.6-101.5-226.6-226.6C28.4,130.6,129.8,29.1,255,29.1c125.1,0,226.6,101.4,226.6,226.6
	C481.6,380.8,380.1,482.3,255,482.3L255,482.3z M255,453c14.7,0,29.1-1.6,42.9-4.7l4.6-21.1c10.1-13.5-12.7-37.2-25.2-24.2
	c1.7-41.1,10.1-13.9,14.3-45c2.9-1.5,5.9-2.9,8.8-4.4c11.3-18.1,52.7-10.1,52.7-1.1c16.7,0,24.9-5,31.8,8.8
	c10.9-3.6,19-4.2,21.9-1.1c-20.2,3.5-11,6.6-16.5,9.9c-2.5,5.7,0.8,9.9,9.9,9.9c-2,4.3,0.1,5.7,1.6,7.6
	c31.4-34.9,50.6-81.2,50.6-131.9c0-20.8-3.2-40.8-9.1-59.5l-4.6,15.4c-4.5-11.7-3.4-20.7-13.2-15.4c-4.6-14.5-1.4-20.9-13.7-21.9
	c-1.8-9.9-3.7-19.8-5.5-29.6c-19.4-4.3-14.7-2.7-19.2-23c-23.3-5.5-18.1-3.6-31.8-23.6c-14.4,4.2-15.6-2.9-27.4-13.7
	c-20.3-3.3-16.2-0.1-22.5-19.4c-16.1-4.2-32.9-6.5-50.3-6.5c-31.8,0-61.8,7.5-88.4,20.9c-7.8,11.3-1.3,20.1-23.6,34.9
	c1.8-17-2.2-18.4-6.8-16c-49.4,37.3-78.5,95.4-78.5,157.5C57.6,364.7,146,453,255,453L255,453z M278.3,126
	c3.5-5.9,5.2-13.2,11.5-13.2c4.4-13.1,19.9-2.1,26.3,2.7c12.6,0.7,10.3-1.3,11,11.5c13.5,0.7,10.8-1.2,12.1,12.6
	c-11.7,4.2-7.5,8.2-7.1,21.9c-2.7,1.5-6.5-2.4-8.2,4.4c-4.4-5.6-2.9-4.8-9.9-6c0-8.9,1-7.1-8.2-7.7c-1.2-11.6,1.2-10.3-9.9-11
	C295.1,128.4,291.5,131.1,278.3,126L278.3,126z M265.5,360.9c-9.2-18.1,6.1-27.5-15.7-27.5c0-7.4,0-6.6,3.3-13.2
	c-10.7,0-11.2-2.7-14.3,6.6c-13.6,1-28.5-30.6-8.4-41.6c7.4-4,21.1,2.1,34.8,2.1c4.2,10.5,2.9,16.1,13.4,16.1
	c-8.3-9.3-6.5-18.7,3-33.7c12.1-6,8.9-5.5,9.9-19.8c17-1.6,12.1-2.9,12.1-22c10-5,6.6-8.7,6.6-20.8c5.5,1.1,9.8-7.6,16.5,3.3
	c0-17-7.6-17-19.8-17.6c0-11.7-4.3-7.7-17.6-7.7c0-10.3,7.1-15.4,13.9-14.6c-3.1-7-9.3-5.3-9.7-9.7c-13.4,0-15.2,1.1-15.2-10.8
	c-14.6,7.3-3.7,49.1-0.9,69.7c-9.5,2.2-12.7-2.7-11.2-6c-5.1-15.3-12-10.2-29.6-11c2.7-27.2,5.3-15.9,12.1-34
	c15.9-1.3,13.8,1.3,9.9-14.3c9.8-5.6,8.3-3.5,1.1-13.2c0-3.7,0-7.3,0-11c3.8-6.5,6.6-4.8,9.9-1.1c-3.5-14-26.7-17-23,3.3
	c4.8-7.5,4.4,0,6.6,0c-2.6,8.9-4.3,13.5-5,20.2c-1.6,14.8-21.2,15.7-23.7-0.1c-1-6.3-2.2-6.3-9.8-6c-10.5,0.4-8.3,1.2-11.9-8.6
	c-11.1,26.2-4.6,16.6-28.5,7.7c-5.3-39.6-32.9-21.1-48.3,5.5c25.6,2.7,19.5-2.4,26.3,19.8c17.6,3.5,13.5,7.1,7.1,19
	c8.3,20.1-1.3,18-0.5,32.6c-20,5-9.6,32.4,4.4,40.6c4,5.5,8,11,12.1,16.5c3.9,24.4,0.1,19.2,22,30.7c2.8,13.8-0.6,16,12.1,17.6
	c3.5,12.1,10.2,7.7,24.1,7.7c0,10.6,6.8,6.6,18.7,6.6C254.3,357.3,255,358.5,265.5,360.9L265.5,360.9z"/>
</svg>
