<?xml version="1.0" encoding="UTF-8"?>
<svg id="Layer_1" data-name="Layer 1" xmlns="http://www.w3.org/2000/svg" version="1.1" viewBox="0 0 500 500">
  <defs>
    <style>
      .cls-1 {
        fill: #1b260b;
        stroke-width: 0px;
      }
    </style>
  </defs>
  <path class="cls-1" d="M238.9,240L135.9,34.4,32.2,241.4v226.4h320.8l-93.5-186.7h-20.6v-41.1ZM91.6,282.7c-15.3,0-25.1-8.1-25.1-21.7h17.7c0,4.5,3.4,6.6,7.4,6.6s7-1.9,7-5.3-4.9-5-10.8-6.5c-9-2.2-20.5-5-20.5-19.2s9-19.3,23.7-19.3,23.5,7.7,23.5,20.4h-17.2c0-3.9-2.9-5.8-6.5-5.8s-6,1.3-6,4.2,4.7,4.7,10.6,6.2c9.2,2.4,21.2,5.4,21.2,19.7s-10.5,20.7-24.9,20.7ZM171,234.3h-16.9v46.9h-17.2v-46.9h-16.9v-15.5h51.1v15.5ZM212.2,281.1l-10.1-19.1h-6.2v19.1h-17.2v-62.3h27c13.4,0,23.2,9,23.2,22.1s-3.7,13.9-9.9,17.6l12.4,22.7h-19.2Z"/>
  <path class="cls-1" d="M203.7,234.1h-7.8v13.5h7.8c4.8,0,7.6-2.9,7.6-6.8s-2.8-6.7-7.6-6.7Z"/>
  <path class="cls-1" d="M373.7,245.3l-4.7,35.9h-17l9.2-62.3h16.7l13,29.8V32.2h-252.3l100.1,199.9v-13.3h39.9v14.8h-22.8v9.2h20.5v14.1h-20.5v9.3h0c0,0,23.5,0,23.5,0v14.9h-16.1l93.5,186.7h34v-186.6l-17.3-35.9ZM330.7,281.1l-3.4-10.1h-22.1l-3.5,10.1h-18.4l24.5-62.3h16.8l25,62.3h-18.9Z"/>
  <polygon class="cls-1" points="394.6 248.7 407.6 218.8 424.3 218.8 433.5 281.1 416.5 281.1 411.9 245.3 394.6 281.2 394.6 467.8 467.8 467.8 467.8 32.2 394.6 32.2 394.6 248.7"/>
  <polygon class="cls-1" points="309.4 257.6 323.1 257.6 316.2 238.3 309.4 257.6"/>
  <polygon class="cls-1" points="32.2 32.2 32.2 233.4 133 32.2 32.2 32.2"/>
</svg>