<?xml version="1.0" encoding="UTF-8"?>
<svg id="Layer_1" data-name="Layer 1" xmlns="http://www.w3.org/2000/svg" version="1.1" viewBox="0 0 500 500">
  <defs>
    <style>
      .cls-1 {
        fill: #1b260b;
        stroke-width: 0px;
      }
    </style>
  </defs>
  <path class="cls-1" d="M405.5,239.3h-9.1c-2-1.3-4.1-4.2-4.1-10.3v-4.1c14.4-5.8,24.5-19.8,24.5-36.2s-17.5-39-39-39-39,17.5-39,39,10.4,30.8,25.1,36.4v2.9c0,9.1-4.9,11-7.1,11.4h-6.6c-14,0-26.6,6.1-35.3,15.8,24.2,5.8,42.2,27.6,42.2,53.7v2.9h95.8v-25c0-26.1-21.2-47.3-47.3-47.3Z"/>
  <path class="cls-1" d="M186,257.2c-8.7-9.7-21.4-15.8-35.5-15.8h-11.4c-1.5-1.6-2.8-4.4-2.8-9.2v-4.8c15-5.5,25.6-19.8,25.6-36.6s-17.6-39-39.2-39-39.2,17.5-39.2,39,10.1,30.3,24.4,36.1v4.2c0,6.1-2.2,9-4.4,10.3h-8.7c-26.3,0-47.6,21.2-47.6,47.3v25h96.3v-2.9c0-26,18.1-47.8,42.4-53.7Z"/>
  <path class="cls-1" d="M285,261.2h-.6c-3.4-2.2-7.1-7.1-7.1-17.7v-3.8c20.1-9.8,33.9-30.4,33.9-54.3s-27-60.4-60.4-60.4-60.4,27-60.4,60.4,16,47.5,38.5,56.3h0c0,18-11.3,19.4-13.7,19.5-.1,0-.2,0-.3,0h-.1c-31.3,1-56.4,26.7-56.4,58.3v30.9s75.5,55.1,184.9,0v-30.9c0-32.2-26.1-58.3-58.3-58.3Z"/>
</svg>