<?xml version="1.0" encoding="UTF-8"?>
<svg id="Layer_1" data-name="Layer 1" xmlns="http://www.w3.org/2000/svg" version="1.1" viewBox="0 0 500 500">
  <defs>
    <style>
      .cls-1 {
        fill: #1b260b;
        stroke-width: 0px;
      }
    </style>
  </defs>
  <path class="cls-1" d="M402.9,329.9H98.9V96.6h304.1v233.2ZM113.5,315.2h274.7V111.3H113.5v203.9Z"/>
  <path class="cls-1" d="M206.7,267.6v-108.8l95.9,54.4-95.9,54.4ZM221.4,184v58.4l51.4-29.2-51.4-29.2Z"/>
  <path class="cls-1" d="M216.1,403.3c-15.2,1.2-27.9-11.5-26.7-26.7,1-12,10.7-21.7,22.6-22.6,15.2-1.2,27.9,11.5,26.7,26.7-1,12-10.7,21.7-22.6,22.6ZM215.8,368.7c-6.9-1.1-12.8,4.8-11.6,11.6.7,4.2,4,7.5,8.2,8.2,6.9,1.1,12.7-4.8,11.6-11.6-.7-4.2-4-7.5-8.2-8.2Z"/>
  <rect class="cls-1" x="97.1" y="371.3" width="75.7" height="14.7"/>
  <rect class="cls-1" x="255.3" y="371.3" width="147.6" height="14.7"/>
</svg>