<?xml version="1.0" encoding="UTF-8"?>
<svg id="Layer_1" data-name="Layer 1" xmlns="http://www.w3.org/2000/svg" version="1.1" viewBox="0 0 500 500">
  <defs>
    <style>
      .cls-1 {
        fill: #1b260b;
        stroke-width: 0px;
      }
    </style>
  </defs>
  <path class="cls-1" d="M465,374.4c-5.4,0-9.7-4.3-9.7-9.7,0-53.9-43.9-97.8-97.8-97.8s-97.8,43.9-97.8,97.8-4.3,9.7-9.7,9.7-9.7-4.3-9.7-9.7c0-64.6,52.6-117.2,117.2-117.2s117.2,52.6,117.2,117.2-4.3,9.7-9.7,9.7h0Z"/>
  <path class="cls-1" d="M357.5,237.7c-30.9,0-56.1-25.1-56.1-56.1s25.1-56.1,56.1-56.1,56.1,25.1,56.1,56.1-25.1,56.1-56.1,56.1h0ZM357.5,145c-20.2,0-36.7,16.5-36.7,36.7s16.4,36.7,36.7,36.7,36.7-16.5,36.7-36.7-16.5-36.7-36.7-36.7Z"/>
  <path class="cls-1" d="M250,374.4c-5.4,0-9.7-4.3-9.7-9.7,0-53.9-43.9-97.8-97.8-97.8s-97.8,43.9-97.8,97.8-4.3,9.7-9.7,9.7-9.7-4.3-9.7-9.7c0-64.6,52.6-117.2,117.2-117.2s117.2,52.6,117.2,117.2-4.3,9.7-9.7,9.7h0Z"/>
  <path class="cls-1" d="M142.5,237.7c-30.9,0-56.1-25.1-56.1-56.1s25.1-56.1,56.1-56.1,56.1,25.1,56.1,56.1-25.1,56.1-56.1,56.1h0ZM142.5,145c-20.2,0-36.7,16.5-36.7,36.7s16.5,36.7,36.7,36.7,36.7-16.5,36.7-36.7-16.5-36.7-36.7-36.7Z"/>
</svg>