<?xml version="1.0" encoding="utf-8"?>
<!-- Generator: Adobe Illustrator 27.2.0, SVG Export Plug-In . SVG Version: 6.00 Build 0)  -->
<svg version="1.1" id="레이어_1" xmlns="http://www.w3.org/2000/svg" xmlns:xlink="http://www.w3.org/1999/xlink" x="0px"
	 y="0px" viewBox="0 0 1091.1 435.1" style="enable-background:new 0 0 1091.1 435.1;" xml:space="preserve">
<style type="text/css">
	.st0{fill:#32AE9B;}
	.st1{fill:#ED7668;}
	.st2{fill:#2558A7;}
	.st3{fill:#272828;}
	.st4{fill:none;stroke:#272828;stroke-width:12.4085;stroke-linecap:round;stroke-miterlimit:10;}
	.st5{fill:#FFFFFF;}
	.st6{fill:none;stroke:#FFFFFF;stroke-width:12.4085;stroke-linecap:round;stroke-miterlimit:10;}
	.st7{fill:#E0D4C8;}
	.st8{fill:none;stroke:#E0D4C8;stroke-width:12.4085;stroke-linecap:round;stroke-miterlimit:10;}
	.st9{fill:#144242;}
	.st10{fill:none;stroke:#144242;stroke-width:12.4085;stroke-linecap:round;stroke-miterlimit:10;}
	.st11{fill:#E17265;}
	.st12{fill:none;stroke:#E0D4C8;stroke-width:12.0421;stroke-linecap:round;stroke-miterlimit:10;}
	.st13{fill:none;stroke:#144242;stroke-width:12.0421;stroke-linecap:round;stroke-miterlimit:10;}
	.st14{fill:none;stroke:#E0D4C8;stroke-width:2.9098;stroke-linecap:round;stroke-miterlimit:10;}
	.st15{fill:none;stroke:#144242;stroke-width:2.044;stroke-linecap:round;stroke-miterlimit:10;}
	.st16{fill:#144242;stroke:#144242;stroke-width:2.5654;stroke-linecap:round;stroke-miterlimit:10;}
	.st17{fill:none;stroke:#144242;stroke-width:2.5654;stroke-linecap:round;stroke-miterlimit:10;}
	.st18{fill:#187377;}
	.st19{fill:#0A5958;}
	.st20{fill:#E9A1A2;}
	.st21{fill:none;stroke:#144242;stroke-width:11.9519;stroke-linecap:round;stroke-miterlimit:10;}
	.st22{fill:none;stroke:#E17265;stroke-width:1.9359;stroke-linecap:round;stroke-miterlimit:10;}
	.st23{fill:none;stroke:#144242;stroke-width:2.045;stroke-linecap:round;stroke-miterlimit:10;}
	.st24{fill:none;stroke:#9FA0A0;stroke-width:0.5;stroke-miterlimit:10;}
</style>
<g>
	<g>
		<path class="st0" d="M-4012.4-48.4c0.5-8.7,1.5-27.8,1.2-30.7c-5.9-1.3-16.7-4.3-21.2-6.6c-11.7-6-18.7-14.2-22.4-26.8
			c-2-6.7-1.4-15.2,4.3-19.2c15.6-10.8,31.9,12.3,39,13.5c-1.8-7.2-8.2-12.3-11.6-19c-5.7-11.1-5-26.2,5.9-32.3
			c5.6-3.1,13.7,0,17.6,5.1c7.3,9.8,4.2,20.5,9.1,25c2.4-4.1,1.2-32.5,27.9-29.2c9.7,1.2,17.9,10.6,18,20.6
			c0.1,9.9-7.7,19.4-17.5,21c3.7-3.3,7.7-6.7,12.5-8c4.8-1.3,10.8,0.3,12.9,4.9c0.9,1.9,1,4.2,0.7,6.3
			c-1.5,12.1-14.7,21.3-26.6,18.4c9.2-4.4,21.4,5.8,18.6,15.6c-2.4,8.6-12.3,12.4-21.1,14.1c-8.4,1.6-17,2.4-25.6,2.3
			c0.7,11.2,0.7,11.2,1.3,22.4c0,0-2.6,2.9-10.6,3.2C-4010.1-47.2-4012.4-48.4-4012.4-48.4z"/>
	</g>
	<text transform="matrix(1 0 0 1 -4114.3071 37.4936)" style="font-family:'Cafe24Ssurroundair'; font-size:34px;">시냇가 푸른 청년교회</text>
	<path class="st1" d="M-3885-132.5c0,11-8.9,19.9-19.9,19.9c-11,0-19.9-8.9-19.9-19.9c0-11,8.9-19.9,19.9-19.9
		C-3893.9-152.3-3885-143.5-3885-132.5z"/>
	<g>
		<path class="st2" d="M-3948.5-63.6c11.7-7,25.2-12.4,38.6-10.5c13.5,1.9,25.2,13.6,24.9,27.3c-1.2,64.2-129.2,32.9-143.8,4.6
			C-4007.7-39.4-3989.3-39-3948.5-63.6z"/>
	</g>
</g>
<g>
	<path class="st3" d="M366.2,692.2c4.2-1.2,8.1-3.3,11.6-6.1c3.6-2.9,6.7-6.4,9.3-10.6c2.6-4.2,4.6-8.9,6.1-14
		c1.4-5.2,2.2-10.7,2.2-16.5v-36.8h17V645c0,5.2,0.6,10.3,1.9,15.2c1.3,4.9,3.1,9.4,5.5,13.6c2.4,4.1,5.3,7.8,8.8,10.9
		c3.5,3.1,7.4,5.5,11.7,7.2v14.8c-3.6-1-7.2-2.5-10.8-4.5c-3.6-2-7.1-4.4-10.3-7.1c-3.3-2.7-6.2-5.6-8.8-8.9
		c-2.6-3.2-4.7-6.5-6.2-9.8c-1.8,3.9-4.1,7.4-6.8,10.7c-2.7,3.3-5.6,6.3-8.9,8.9c-3.3,2.7-6.8,4.9-10.6,6.8
		c-3.8,1.8-7.7,3.3-11.7,4.2V692.2z M452.9,606.4h16.4V714h-16.4V606.4z"/>
	<path class="st3" d="M488.5,607.6h15.9V650H536v13h-47.5V607.6z M494.6,701.6c5.4-0.2,10.4-1.1,15-2.7c4.6-1.5,8.6-3.5,12.1-5.9
		c3.4-2.4,6.1-5.2,8-8.4c1.9-3.2,2.9-6.6,2.9-10.2v-4.2h16.9v4.2c0,3.6,1,7,2.9,10.2c1.9,3.2,4.6,6,8,8.4c3.4,2.4,7.4,4.4,12.1,5.9
		c4.6,1.5,9.6,2.4,15,2.7v13.1c-9.6-0.5-18.3-2.3-26.3-5.5c-8-3.2-14.7-7.6-20.1-13.3c-5.5,5.6-12.2,10-20.1,13.3
		c-8,3.2-16.7,5.1-26.3,5.5V701.6z M542.1,607h15.4v22.2h13.3v-22.8h15.4V678h-15.4v-34.1h-13.3v23.3h-15.4V607z"/>
	<path class="st3" d="M600,691c6.6-1.4,12.7-4.2,18.2-8.2c5.5-4,10.3-9,14.3-15c4-6,7.2-12.8,9.5-20.3c2.3-7.6,3.4-15.6,3.4-24.1
		h-44.8v-14h61.5v11.1c0,10.9-1.5,21.2-4.6,30.9c-3.1,9.7-7.3,18.3-12.8,25.9c-5.5,7.6-12.1,13.8-19.6,18.8c-7.6,5-15.9,8.2-25,9.8
		V691z M678.3,606.4h16.4v38.5h14.5v14.7h-14.5V714h-16.4V606.4z"/>
	<path class="st3" d="M369.8,816.2h107.3v13.9H432v28.6h-17.1v-28.6h-45.1V816.2z M375.8,792.1h15.7v-25.1H377v-13.7h92.8v13.7
		h-14.5v25.1h15.7v13.7h-95.2V792.1z M439,792.1v-25.1h-31.1v25.1H439z"/>
	<path class="st3" d="M484.3,813.1h107.3V826H484.3V813.1z M492.1,772.1h75v-7.7h-75v-12.9h91.6v33h-75v8.3h77.4v12.9h-94V772.1z
		 M492.1,830.5h16.4v14.2H585v13.5h-92.8V830.5z"/>
	<path class="st3" d="M599.4,797.8c3.8-0.6,7.3-1.6,10.5-3.2c3.3-1.6,6.1-3.5,8.4-5.7c2.4-2.2,4.2-4.8,5.5-7.6c1.3-2.8,2-5.8,2-8.9
		v-1.9h-25.3v-13h25.2v-9.6h17.2v9.6h23.9v13h-24v1.9c0,6.1,2.2,11.3,6.6,15.6c4.4,4.3,10.4,7.3,18,8.9V810
		c-6.7-1.2-13-3.3-18.7-6.3c-5.7-3-10.5-6.6-14.4-10.8c-4,4.8-9,8.7-15,11.7c-6,3-12.6,5.1-19.9,6.4V797.8z M634.4,858.7
		c-4.3,0-8.1-0.5-11.5-1.5c-3.4-1-6.3-2.5-8.7-4.4c-2.4-1.9-4.3-4.2-5.5-6.9c-1.3-2.7-1.9-5.7-1.9-9.1s0.6-6.4,1.9-9.1
		c1.3-2.7,3.1-5,5.5-6.9c2.4-1.9,5.3-3.4,8.7-4.4c3.4-1,7.3-1.5,11.5-1.5H673c4.3,0,8.1,0.5,11.5,1.5c3.4,1,6.3,2.5,8.7,4.4
		c2.4,1.9,4.3,4.2,5.5,6.9c1.3,2.7,1.9,5.7,1.9,9.1s-0.6,6.4-1.9,9.1c-1.3,2.7-3.1,5-5.5,6.9c-2.4,1.9-5.3,3.4-8.7,4.4
		c-3.4,1-7.3,1.5-11.5,1.5H634.4z M672,845.7c3.7,0,6.7-0.8,8.9-2.4c2.2-1.6,3.4-3.8,3.4-6.6c0-2.8-1.1-5-3.4-6.6
		c-2.3-1.6-5.2-2.4-8.9-2.4h-36.6c-3.7,0-6.7,0.8-8.9,2.4c-2.3,1.6-3.4,3.8-3.4,6.6c0,2.8,1.1,5,3.4,6.6c2.2,1.6,5.2,2.4,8.9,2.4
		H672z M681.9,789.4h-19.8v-13.7h19.8V751h16.4v61.4h-16.4V789.4z"/>
	<path class="st3" d="M718.2,752.2h16.4v46.6h52.2v13h-68.6V752.2z M723.6,820.8H740v23.9h75.2v13.5h-91.6V820.8z M796.4,792.9h-33
		v-12.5h33v-8h-33v-12.5h33V751h16.4v78.8h-16.4V792.9z"/>
	<path class="st3" d="M827.9,839.5h21.6V798h17.1v41.5h15.1V798h17.1v41.5h36.4v13.9H827.9V839.5z M835.7,753.9h90.4v69.4h-16.4
		v-55.4h-74V753.9z"/>
	<path class="st3" d="M942.4,839.5h28.2v-12.3c-3.6-0.3-6.9-1.1-9.9-2.2c-3-1.2-5.6-2.8-7.8-4.8c-2.2-2-3.9-4.4-5.1-7.3
		c-1.2-2.9-1.8-6.2-1.8-9.9c0-4.1,0.7-7.7,2.2-10.7c1.4-3,3.4-5.5,6-7.6c2.5-2,5.6-3.6,9.1-4.6c3.5-1,7.4-1.5,11.6-1.5h8.7
		c4.2,0,8,0.5,11.6,1.5c3.5,1,6.6,2.5,9.1,4.6c2.5,2,4.5,4.6,6,7.6c1.4,3,2.2,6.6,2.2,10.7c0,3.8-0.6,7.1-1.8,9.9
		c-1.2,2.9-2.9,5.3-5.1,7.3c-2.2,2-4.8,3.6-7.8,4.8c-3,1.2-6.3,1.9-9.9,2.2v12.3h32.9v13.9h-78.2V839.5z M943.6,760.1h26.9V749h17.4
		v11.1h26.9v13.7h-71.1V760.1z M982.4,813.6c4.3,0,7.7-0.9,10-2.8c2.3-1.8,3.5-4.5,3.5-7.8s-1.2-6-3.5-7.8c-2.3-1.8-5.7-2.8-10-2.8
		h-6.5c-4.2,0-7.5,0.9-9.9,2.8c-2.4,1.8-3.6,4.5-3.6,7.8s1.2,6,3.6,7.8c2.4,1.8,5.7,2.8,9.9,2.8H982.4z M1025.4,751h16.4v107.6
		h-16.4V751z"/>
</g>
<path class="st1" d="M325.6,664.3c0,16.5-13.3,29.8-29.8,29.8c-16.5,0-29.8-13.3-29.8-29.8c0-16.5,13.3-29.8,29.8-29.8
	C312.2,634.5,325.6,647.9,325.6,664.3z"/>
<path class="st4" d="M167.8,725.9c0-39.5,31.7-87.1,70.9-87.1c39.2,0,70.9,47.5,70.9,87.1c0,39.5-31.7,58.6-70.9,58.6
	C199.5,784.5,167.8,765.4,167.8,725.9z"/>
<g>
	<g>
		<line class="st4" x1="238.7" y1="710.6" x2="238.7" y2="818.3"/>
		<line class="st4" x1="212.2" y1="718.4" x2="238.7" y2="751.6"/>
		<line class="st4" x1="238.7" y1="769.6" x2="261.3" y2="740.3"/>
	</g>
</g>
<g>
	<g>
		<line class="st4" x1="124.2" y1="684.5" x2="124.2" y2="818.3"/>
		<line class="st4" x1="91.3" y1="694.1" x2="124.2" y2="735.4"/>
		<line class="st4" x1="124.2" y1="757.7" x2="152.3" y2="721.3"/>
	</g>
</g>
<path class="st4" d="M195,688.2c0,48.7-20.2,88.1-71.8,88.1c-46.7,0-71.8-39.4-71.8-88.1c0-48.7,32.1-120.4,71.8-120.4
	S195,639.5,195,688.2z"/>
<line class="st4" x1="37.8" y1="824.4" x2="323.4" y2="824.4"/>
<line class="st4" x1="65.5" y1="852" x2="295.8" y2="852"/>
<g>
	<path class="st5" d="M366.2,195.9c4.2-1.2,8.1-3.3,11.6-6.1c3.6-2.9,6.7-6.4,9.3-10.6c2.6-4.2,4.6-8.9,6.1-14
		c1.4-5.2,2.2-10.7,2.2-16.5v-36.8h17v36.8c0,5.2,0.6,10.3,1.9,15.2c1.3,4.9,3.1,9.4,5.5,13.6c2.4,4.1,5.3,7.8,8.8,10.9
		c3.5,3.1,7.4,5.5,11.7,7.2v14.8c-3.6-1-7.2-2.5-10.8-4.5c-3.6-2-7.1-4.4-10.3-7.1c-3.3-2.7-6.2-5.6-8.8-8.9
		c-2.6-3.2-4.7-6.5-6.2-9.8c-1.8,3.9-4.1,7.4-6.8,10.7c-2.7,3.3-5.6,6.3-8.9,8.9c-3.3,2.7-6.8,4.9-10.6,6.8
		c-3.8,1.8-7.7,3.3-11.7,4.2V195.9z M452.9,110h16.4v107.6h-16.4V110z"/>
	<path class="st5" d="M488.5,111.2h15.9v42.4H536v13h-47.5V111.2z M494.6,205.3c5.4-0.2,10.4-1.1,15-2.7c4.6-1.5,8.6-3.5,12.1-5.9
		c3.4-2.4,6.1-5.2,8-8.4c1.9-3.2,2.9-6.6,2.9-10.2v-4.2h16.9v4.2c0,3.6,1,7,2.9,10.2c1.9,3.2,4.6,6,8,8.4c3.4,2.4,7.4,4.4,12.1,5.9
		c4.6,1.5,9.6,2.4,15,2.7v13.1c-9.6-0.5-18.3-2.3-26.3-5.5c-8-3.2-14.7-7.6-20.1-13.3c-5.5,5.6-12.2,10-20.1,13.3
		c-8,3.2-16.7,5.1-26.3,5.5V205.3z M542.1,110.6h15.4v22.2h13.3V110h15.4v71.6h-15.4v-34.1h-13.3v23.3h-15.4V110.6z"/>
	<path class="st5" d="M600,194.7c6.6-1.4,12.7-4.2,18.2-8.2c5.5-4,10.3-9,14.3-15c4-6,7.2-12.8,9.5-20.3c2.3-7.6,3.4-15.6,3.4-24.1
		h-44.8v-14h61.5v11.1c0,10.9-1.5,21.2-4.6,30.9c-3.1,9.7-7.3,18.3-12.8,25.9c-5.5,7.6-12.1,13.8-19.6,18.8c-7.6,5-15.9,8.2-25,9.8
		V194.7z M678.3,110h16.4v38.5h14.5v14.7h-14.5v54.5h-16.4V110z"/>
	<path class="st5" d="M369.8,319.9h107.3v13.9H432v28.6h-17.1v-28.6h-45.1V319.9z M375.8,295.8h15.7v-25.1H377V257h92.8v13.7h-14.5
		v25.1h15.7v13.7h-95.2V295.8z M439,295.8v-25.1h-31.1v25.1H439z"/>
	<path class="st5" d="M484.3,316.8h107.3v12.9H484.3V316.8z M492.1,275.8h75v-7.7h-75v-12.9h91.6v33h-75v8.3h77.4v12.9h-94V275.8z
		 M492.1,334.1h16.4v14.2H585v13.5h-92.8V334.1z"/>
	<path class="st5" d="M599.4,301.5c3.8-0.6,7.3-1.6,10.5-3.2c3.3-1.6,6.1-3.5,8.4-5.7c2.4-2.2,4.2-4.8,5.5-7.6c1.3-2.8,2-5.8,2-8.9
		v-1.9h-25.3v-13h25.2v-9.6h17.2v9.6h23.9v13h-24v1.9c0,6.1,2.2,11.3,6.6,15.6c4.4,4.3,10.4,7.3,18,8.9v13.1
		c-6.7-1.2-13-3.3-18.7-6.3c-5.7-3-10.5-6.6-14.4-10.8c-4,4.8-9,8.7-15,11.7c-6,3-12.6,5.1-19.9,6.4V301.5z M634.4,362.3
		c-4.3,0-8.1-0.5-11.5-1.5c-3.4-1-6.3-2.5-8.7-4.4c-2.4-1.9-4.3-4.2-5.5-6.9c-1.3-2.7-1.9-5.7-1.9-9.1c0-3.4,0.6-6.4,1.9-9.1
		c1.3-2.7,3.1-5,5.5-6.9c2.4-1.9,5.3-3.4,8.7-4.4c3.4-1,7.3-1.5,11.5-1.5H673c4.3,0,8.1,0.5,11.5,1.5c3.4,1,6.3,2.5,8.7,4.4
		c2.4,1.9,4.3,4.2,5.5,6.9c1.3,2.7,1.9,5.7,1.9,9.1c0,3.4-0.6,6.4-1.9,9.1c-1.3,2.7-3.1,5-5.5,6.9c-2.4,1.9-5.3,3.4-8.7,4.4
		c-3.4,1-7.3,1.5-11.5,1.5H634.4z M672,349.3c3.7,0,6.7-0.8,8.9-2.4c2.2-1.6,3.4-3.8,3.4-6.6c0-2.8-1.1-5-3.4-6.6
		c-2.3-1.6-5.2-2.4-8.9-2.4h-36.6c-3.7,0-6.7,0.8-8.9,2.4c-2.3,1.6-3.4,3.8-3.4,6.6c0,2.8,1.1,5,3.4,6.6c2.2,1.6,5.2,2.4,8.9,2.4
		H672z M681.9,293h-19.8v-13.7h19.8v-24.6h16.4V316h-16.4V293z"/>
	<path class="st5" d="M718.2,255.9h16.4v46.6h52.2v13h-68.6V255.9z M723.6,324.5H740v23.9h75.2v13.5h-91.6V324.5z M796.4,296.5h-33
		V284h33v-8h-33v-12.5h33v-8.8h16.4v78.8h-16.4V296.5z"/>
	<path class="st5" d="M827.9,343.2h21.6v-41.5h17.1v41.5h15.1v-41.5h17.1v41.5h36.4V357H827.9V343.2z M835.7,257.6h90.4V327h-16.4
		v-55.4h-74V257.6z"/>
	<path class="st5" d="M942.4,343.2h28.2v-12.3c-3.6-0.3-6.9-1.1-9.9-2.2c-3-1.2-5.6-2.8-7.8-4.8c-2.2-2-3.9-4.4-5.1-7.3
		c-1.2-2.9-1.8-6.2-1.8-9.9c0-4.1,0.7-7.7,2.2-10.7c1.4-3,3.4-5.5,6-7.6c2.5-2,5.6-3.6,9.1-4.6c3.5-1,7.4-1.5,11.6-1.5h8.7
		c4.2,0,8,0.5,11.6,1.5c3.5,1,6.6,2.5,9.1,4.6c2.5,2,4.5,4.6,6,7.6c1.4,3,2.2,6.6,2.2,10.7c0,3.8-0.6,7.1-1.8,9.9
		c-1.2,2.9-2.9,5.3-5.1,7.3c-2.2,2-4.8,3.6-7.8,4.8c-3,1.2-6.3,1.9-9.9,2.2v12.3h32.9V357h-78.2V343.2z M943.6,263.7h26.9v-11.1
		h17.4v11.1h26.9v13.7h-71.1V263.7z M982.4,317.2c4.3,0,7.7-0.9,10-2.8c2.3-1.8,3.5-4.5,3.5-7.8s-1.2-6-3.5-7.8
		c-2.3-1.8-5.7-2.8-10-2.8h-6.5c-4.2,0-7.5,0.9-9.9,2.8c-2.4,1.8-3.6,4.5-3.6,7.8s1.2,6,3.6,7.8c2.4,1.8,5.7,2.8,9.9,2.8H982.4z
		 M1025.4,254.7h16.4v107.6h-16.4V254.7z"/>
</g>
<circle class="st1" cx="295.8" cy="168" r="29.8"/>
<path class="st6" d="M167.8,229.6c0-39.5,31.7-87.1,70.9-87.1c39.2,0,70.9,47.5,70.9,87.1s-31.7,58.6-70.9,58.6
	C199.5,288.2,167.8,269.1,167.8,229.6z"/>
<g>
	<g>
		<line class="st6" x1="238.7" y1="214.3" x2="238.7" y2="321.9"/>
		<line class="st6" x1="212.2" y1="222" x2="238.7" y2="255.2"/>
		<line class="st6" x1="238.7" y1="273.2" x2="261.3" y2="243.9"/>
	</g>
</g>
<g>
	<g>
		<line class="st6" x1="124.2" y1="188.1" x2="124.2" y2="321.9"/>
		<line class="st6" x1="91.3" y1="197.8" x2="124.2" y2="239"/>
		<line class="st6" x1="124.2" y1="261.4" x2="152.3" y2="225"/>
	</g>
</g>
<path class="st6" d="M195,191.9c0,48.7-20.2,88.1-71.8,88.1c-46.7,0-71.8-39.5-71.8-88.1c0-48.7,32.1-120.4,71.8-120.4
	S195,143.2,195,191.9z"/>
<line class="st6" x1="37.8" y1="328.1" x2="323.4" y2="328.1"/>
<line class="st6" x1="65.5" y1="355.7" x2="295.8" y2="355.7"/>
<g>
	<path class="st7" d="M366.2-304.6c4.2-1.2,8.1-3.3,11.6-6.1c3.6-2.9,6.7-6.4,9.3-10.6c2.6-4.2,4.6-8.9,6.1-14
		c1.4-5.2,2.2-10.7,2.2-16.5v-36.8h17v36.8c0,5.2,0.6,10.3,1.9,15.2c1.3,4.9,3.1,9.4,5.5,13.6c2.4,4.1,5.3,7.8,8.8,10.9
		c3.5,3.1,7.4,5.5,11.7,7.2v14.8c-3.6-1-7.2-2.5-10.8-4.5c-3.6-2-7.1-4.4-10.3-7.1c-3.3-2.7-6.2-5.6-8.8-8.9
		c-2.6-3.2-4.7-6.5-6.2-9.8c-1.8,3.9-4.1,7.4-6.8,10.7c-2.7,3.3-5.6,6.3-8.9,8.9c-3.3,2.7-6.8,4.9-10.6,6.8
		c-3.8,1.8-7.7,3.3-11.7,4.2V-304.6z M452.9-390.4h16.4v107.6h-16.4V-390.4z"/>
	<path class="st7" d="M488.5-389.2h15.9v42.4H536v13h-47.5V-389.2z M494.6-295.2c5.4-0.2,10.4-1.1,15-2.7c4.6-1.5,8.6-3.5,12.1-5.9
		c3.4-2.4,6.1-5.2,8-8.4c1.9-3.2,2.9-6.6,2.9-10.2v-4.2h16.9v4.2c0,3.6,1,7,2.9,10.2c1.9,3.2,4.6,6,8,8.4c3.4,2.4,7.4,4.4,12.1,5.9
		c4.6,1.5,9.6,2.4,15,2.7v13.1c-9.6-0.5-18.3-2.3-26.3-5.5c-8-3.2-14.7-7.6-20.1-13.3c-5.5,5.6-12.2,10-20.1,13.3
		c-8,3.2-16.7,5.1-26.3,5.5V-295.2z M542.1-389.8h15.4v22.2h13.3v-22.8h15.4v71.6h-15.4v-34.1h-13.3v23.3h-15.4V-389.8z"/>
	<path class="st7" d="M600-305.8c6.6-1.4,12.7-4.2,18.2-8.2c5.5-4,10.3-9,14.3-15c4-6,7.2-12.8,9.5-20.3c2.3-7.6,3.4-15.6,3.4-24.1
		h-44.8v-14h61.5v11.1c0,10.9-1.5,21.2-4.6,30.9c-3.1,9.7-7.3,18.3-12.8,25.9c-5.5,7.6-12.1,13.8-19.6,18.8c-7.6,5-15.9,8.2-25,9.8
		V-305.8z M678.3-390.4h16.4v38.5h14.5v14.7h-14.5v54.5h-16.4V-390.4z"/>
	<path class="st7" d="M369.8-180.5h107.3v13.9H432v28.6h-17.1v-28.6h-45.1V-180.5z M375.8-204.6h15.7v-25.1H377v-13.7h92.8v13.7
		h-14.5v25.1h15.7v13.7h-95.2V-204.6z M439-204.6v-25.1h-31.1v25.1H439z"/>
	<path class="st7" d="M484.3-183.7h107.3v12.9H484.3V-183.7z M492.1-224.6h75v-7.7h-75v-12.9h91.6v33h-75v8.3h77.4v12.9h-94V-224.6z
		 M492.1-166.3h16.4v14.2H585v13.5h-92.8V-166.3z"/>
	<path class="st7" d="M599.4-199c3.8-0.6,7.3-1.6,10.5-3.2c3.3-1.6,6.1-3.5,8.4-5.7c2.4-2.2,4.2-4.8,5.5-7.6c1.3-2.8,2-5.8,2-8.9
		v-1.9h-25.3v-13h25.2v-9.6h17.2v9.6h23.9v13h-24v1.9c0,6.1,2.2,11.3,6.6,15.6c4.4,4.3,10.4,7.3,18,8.9v13.1
		c-6.7-1.2-13-3.3-18.7-6.3c-5.7-3-10.5-6.6-14.4-10.8c-4,4.8-9,8.7-15,11.7c-6,3-12.6,5.1-19.9,6.4V-199z M634.4-138.1
		c-4.3,0-8.1-0.5-11.5-1.5c-3.4-1-6.3-2.5-8.7-4.4c-2.4-1.9-4.3-4.2-5.5-6.9c-1.3-2.7-1.9-5.7-1.9-9.1c0-3.4,0.6-6.4,1.9-9.1
		c1.3-2.7,3.1-5,5.5-6.9c2.4-1.9,5.3-3.4,8.7-4.4c3.4-1,7.3-1.5,11.5-1.5H673c4.3,0,8.1,0.5,11.5,1.5c3.4,1,6.3,2.5,8.7,4.4
		c2.4,1.9,4.3,4.2,5.5,6.9c1.3,2.7,1.9,5.7,1.9,9.1c0,3.4-0.6,6.4-1.9,9.1c-1.3,2.7-3.1,5-5.5,6.9c-2.4,1.9-5.3,3.4-8.7,4.4
		c-3.4,1-7.3,1.5-11.5,1.5H634.4z M672-151.1c3.7,0,6.7-0.8,8.9-2.4c2.2-1.6,3.4-3.8,3.4-6.6c0-2.8-1.1-5-3.4-6.6
		c-2.3-1.6-5.2-2.4-8.9-2.4h-36.6c-3.7,0-6.7,0.8-8.9,2.4c-2.3,1.6-3.4,3.8-3.4,6.6c0,2.8,1.1,5,3.4,6.6c2.2,1.6,5.2,2.4,8.9,2.4
		H672z M681.9-207.4h-19.8v-13.7h19.8v-24.6h16.4v61.4h-16.4V-207.4z"/>
	<path class="st7" d="M718.2-244.5h16.4v46.6h52.2v13h-68.6V-244.5z M723.6-175.9H740v23.9h75.2v13.5h-91.6V-175.9z M796.4-203.9
		h-33v-12.5h33v-8h-33v-12.5h33v-8.8h16.4v78.8h-16.4V-203.9z"/>
	<path class="st7" d="M827.9-157.3h21.6v-41.5h17.1v41.5h15.1v-41.5h17.1v41.5h36.4v13.9H827.9V-157.3z M835.7-242.8h90.4v69.4
		h-16.4v-55.4h-74V-242.8z"/>
	<path class="st7" d="M942.4-157.3h28.2v-12.3c-3.6-0.3-6.9-1.1-9.9-2.2c-3-1.2-5.6-2.8-7.8-4.8c-2.2-2-3.9-4.4-5.1-7.3
		c-1.2-2.9-1.8-6.2-1.8-9.9c0-4.1,0.7-7.7,2.2-10.7c1.4-3,3.4-5.5,6-7.6c2.5-2,5.6-3.6,9.1-4.6c3.5-1,7.4-1.5,11.6-1.5h8.7
		c4.2,0,8,0.5,11.6,1.5c3.5,1,6.6,2.5,9.1,4.6c2.5,2,4.5,4.6,6,7.6c1.4,3,2.2,6.6,2.2,10.7c0,3.8-0.6,7.1-1.8,9.9
		c-1.2,2.9-2.9,5.3-5.1,7.3c-2.2,2-4.8,3.6-7.8,4.8c-3,1.2-6.3,1.9-9.9,2.2v12.3h32.9v13.9h-78.2V-157.3z M943.6-236.7h26.9v-11.1
		h17.4v11.1h26.9v13.7h-71.1V-236.7z M982.4-183.2c4.3,0,7.7-0.9,10-2.8c2.3-1.8,3.5-4.5,3.5-7.8s-1.2-6-3.5-7.8
		c-2.3-1.8-5.7-2.8-10-2.8h-6.5c-4.2,0-7.5,0.9-9.9,2.8c-2.4,1.8-3.6,4.5-3.6,7.8s1.2,6,3.6,7.8c2.4,1.8,5.7,2.8,9.9,2.8H982.4z
		 M1025.4-245.7h16.4v107.6h-16.4V-245.7z"/>
</g>
<ellipse transform="matrix(0.1602 -0.9871 0.9871 0.1602 576.5397 12.7781)" class="st1" cx="295.8" cy="-332.4" rx="29.8" ry="29.8"/>
<path class="st8" d="M167.8-270.9c0-39.5,31.7-87.1,70.9-87.1c39.2,0,70.9,47.5,70.9,87.1c0,39.5-31.7,58.6-70.9,58.6
	C199.5-212.3,167.8-231.3,167.8-270.9z"/>
<g>
	<g>
		<line class="st8" x1="238.7" y1="-286.2" x2="238.7" y2="-178.5"/>
		<line class="st8" x1="212.2" y1="-278.4" x2="238.7" y2="-245.2"/>
		<line class="st8" x1="238.7" y1="-227.2" x2="261.3" y2="-256.5"/>
	</g>
</g>
<g>
	<g>
		<line class="st8" x1="124.2" y1="-312.3" x2="124.2" y2="-178.5"/>
		<line class="st8" x1="91.3" y1="-302.6" x2="124.2" y2="-261.4"/>
		<line class="st8" x1="124.2" y1="-239" x2="152.3" y2="-275.4"/>
	</g>
</g>
<path class="st8" d="M195-308.6c0,48.7-20.2,88.1-71.8,88.1c-46.7,0-71.8-39.4-71.8-88.1c0-48.7,32.1-120.4,71.8-120.4
	S195-357.2,195-308.6z"/>
<line class="st8" x1="37.8" y1="-172.3" x2="323.4" y2="-172.3"/>
<line class="st8" x1="65.5" y1="-144.8" x2="295.8" y2="-144.8"/>
<g>
	<path class="st9" d="M366.2-800.9c4.2-1.2,8.1-3.3,11.6-6.1c3.6-2.9,6.7-6.4,9.3-10.6c2.6-4.2,4.6-8.9,6.1-14
		c1.4-5.2,2.2-10.7,2.2-16.5v-36.8h17v36.8c0,5.2,0.6,10.3,1.9,15.2c1.3,4.9,3.1,9.4,5.5,13.6c2.4,4.1,5.3,7.8,8.8,10.9
		c3.5,3.1,7.4,5.5,11.7,7.2v14.8c-3.6-1-7.2-2.5-10.8-4.5c-3.6-2-7.1-4.4-10.3-7.1c-3.3-2.7-6.2-5.6-8.8-8.9
		c-2.6-3.2-4.7-6.5-6.2-9.8c-1.8,3.9-4.1,7.4-6.8,10.7c-2.7,3.3-5.6,6.3-8.9,8.9c-3.3,2.7-6.8,4.9-10.6,6.8
		c-3.8,1.8-7.7,3.3-11.7,4.2V-800.9z M452.9-886.7h16.4v107.6h-16.4V-886.7z"/>
	<path class="st9" d="M488.5-885.5h15.9v42.4H536v13h-47.5V-885.5z M494.6-791.5c5.4-0.2,10.4-1.1,15-2.7c4.6-1.5,8.6-3.5,12.1-5.9
		c3.4-2.4,6.1-5.2,8-8.4c1.9-3.2,2.9-6.6,2.9-10.2v-4.2h16.9v4.2c0,3.6,1,7,2.9,10.2c1.9,3.2,4.6,6,8,8.4c3.4,2.4,7.4,4.4,12.1,5.9
		c4.6,1.5,9.6,2.4,15,2.7v13.1c-9.6-0.5-18.3-2.3-26.3-5.5c-8-3.2-14.7-7.6-20.1-13.3c-5.5,5.6-12.2,10-20.1,13.3
		c-8,3.2-16.7,5.1-26.3,5.5V-791.5z M542.1-886.1h15.4v22.2h13.3v-22.8h15.4v71.6h-15.4v-34.1h-13.3v23.3h-15.4V-886.1z"/>
	<path class="st9" d="M600-802.1c6.6-1.4,12.7-4.2,18.2-8.2c5.5-4,10.3-9,14.3-15c4-6,7.2-12.8,9.5-20.3c2.3-7.6,3.4-15.6,3.4-24.1
		h-44.8v-14h61.5v11.1c0,10.9-1.5,21.2-4.6,30.9c-3.1,9.7-7.3,18.3-12.8,25.9c-5.5,7.6-12.1,13.8-19.6,18.8c-7.6,5-15.9,8.2-25,9.8
		V-802.1z M678.3-886.7h16.4v38.5h14.5v14.7h-14.5v54.5h-16.4V-886.7z"/>
	<path class="st9" d="M369.8-676.9h107.3v13.9H432v28.6h-17.1V-663h-45.1V-676.9z M375.8-701h15.7V-726H377v-13.7h92.8v13.7h-14.5
		v25.1h15.7v13.7h-95.2V-701z M439-701V-726h-31.1v25.1H439z"/>
	<path class="st9" d="M484.3-680h107.3v12.9H484.3V-680z M492.1-721h75v-7.7h-75v-12.9h91.6v33h-75v8.3h77.4v12.9h-94V-721z
		 M492.1-662.6h16.4v14.2H585v13.5h-92.8V-662.6z"/>
	<path class="st9" d="M599.4-695.3c3.8-0.6,7.3-1.6,10.5-3.2c3.3-1.6,6.1-3.5,8.4-5.7c2.4-2.2,4.2-4.8,5.5-7.6c1.3-2.8,2-5.8,2-8.9
		v-1.9h-25.3v-13h25.2v-9.6h17.2v9.6h23.9v13h-24v1.9c0,6.1,2.2,11.3,6.6,15.6c4.4,4.3,10.4,7.3,18,8.9v13.1
		c-6.7-1.2-13-3.3-18.7-6.3c-5.7-3-10.5-6.6-14.4-10.8c-4,4.8-9,8.7-15,11.7c-6,3-12.6,5.1-19.9,6.4V-695.3z M634.4-634.4
		c-4.3,0-8.1-0.5-11.5-1.5c-3.4-1-6.3-2.5-8.7-4.4c-2.4-1.9-4.3-4.2-5.5-6.9c-1.3-2.7-1.9-5.7-1.9-9.1c0-3.4,0.6-6.4,1.9-9.1
		c1.3-2.7,3.1-5,5.5-6.9c2.4-1.9,5.3-3.4,8.7-4.4c3.4-1,7.3-1.5,11.5-1.5H673c4.3,0,8.1,0.5,11.5,1.5c3.4,1,6.3,2.5,8.7,4.4
		c2.4,1.9,4.3,4.2,5.5,6.9c1.3,2.7,1.9,5.7,1.9,9.1c0,3.4-0.6,6.4-1.9,9.1c-1.3,2.7-3.1,5-5.5,6.9c-2.4,1.9-5.3,3.4-8.7,4.4
		c-3.4,1-7.3,1.5-11.5,1.5H634.4z M672-647.5c3.7,0,6.7-0.8,8.9-2.4c2.2-1.6,3.4-3.8,3.4-6.6c0-2.8-1.1-5-3.4-6.6
		c-2.3-1.6-5.2-2.4-8.9-2.4h-36.6c-3.7,0-6.7,0.8-8.9,2.4c-2.3,1.6-3.4,3.8-3.4,6.6c0,2.8,1.1,5,3.4,6.6c2.2,1.6,5.2,2.4,8.9,2.4
		H672z M681.9-703.7h-19.8v-13.7h19.8v-24.6h16.4v61.4h-16.4V-703.7z"/>
	<path class="st9" d="M718.2-740.9h16.4v46.6h52.2v13h-68.6V-740.9z M723.6-672.3H740v23.9h75.2v13.5h-91.6V-672.3z M796.4-700.2
		h-33v-12.5h33v-8h-33v-12.5h33v-8.8h16.4v78.8h-16.4V-700.2z"/>
	<path class="st9" d="M827.9-653.6h21.6v-41.5h17.1v41.5h15.1v-41.5h17.1v41.5h36.4v13.9H827.9V-653.6z M835.7-739.2h90.4v69.4
		h-16.4v-55.4h-74V-739.2z"/>
	<path class="st9" d="M942.4-653.6h28.2v-12.3c-3.6-0.3-6.9-1.1-9.9-2.2c-3-1.2-5.6-2.8-7.8-4.8c-2.2-2-3.9-4.4-5.1-7.3
		c-1.2-2.9-1.8-6.2-1.8-9.9c0-4.1,0.7-7.7,2.2-10.7c1.4-3,3.4-5.5,6-7.6c2.5-2,5.6-3.6,9.1-4.6c3.5-1,7.4-1.5,11.6-1.5h8.7
		c4.2,0,8,0.5,11.6,1.5c3.5,1,6.6,2.5,9.1,4.6c2.5,2,4.5,4.6,6,7.6c1.4,3,2.2,6.6,2.2,10.7c0,3.8-0.6,7.1-1.8,9.9
		c-1.2,2.9-2.9,5.3-5.1,7.3c-2.2,2-4.8,3.6-7.8,4.8c-3,1.2-6.3,1.9-9.9,2.2v12.3h32.9v13.9h-78.2V-653.6z M943.6-733h26.9v-11.1
		h17.4v11.1h26.9v13.7h-71.1V-733z M982.4-679.5c4.3,0,7.7-0.9,10-2.8c2.3-1.8,3.5-4.5,3.5-7.8s-1.2-6-3.5-7.8
		c-2.3-1.8-5.7-2.8-10-2.8h-6.5c-4.2,0-7.5,0.9-9.9,2.8c-2.4,1.8-3.6,4.5-3.6,7.8s1.2,6,3.6,7.8c2.4,1.8,5.7,2.8,9.9,2.8H982.4z
		 M1025.4-742.1h16.4v107.6h-16.4V-742.1z"/>
</g>
<circle class="st1" cx="295.8" cy="-828.8" r="29.8"/>
<path class="st10" d="M167.8-767.2c0-39.5,31.7-87.1,70.9-87.1c39.2,0,70.9,47.5,70.9,87.1c0,39.5-31.7,58.6-70.9,58.6
	C199.5-708.6,167.8-727.7,167.8-767.2z"/>
<g>
	<line class="st10" x1="238.7" y1="-782.5" x2="238.7" y2="-674.8"/>
	<line class="st10" x1="212.2" y1="-774.7" x2="238.7" y2="-741.5"/>
	<line class="st10" x1="238.7" y1="-723.5" x2="261.3" y2="-752.8"/>
</g>
<g>
	<line class="st10" x1="124.2" y1="-808.6" x2="124.2" y2="-674.8"/>
	<line class="st10" x1="91.3" y1="-799" x2="124.2" y2="-757.7"/>
	<line class="st10" x1="124.2" y1="-735.4" x2="152.3" y2="-771.8"/>
</g>
<path class="st10" d="M195-804.9c0,48.7-20.2,88.1-71.8,88.1c-46.7,0-71.8-39.4-71.8-88.1c0-48.7,32.1-120.4,71.8-120.4
	S195-853.6,195-804.9z"/>
<line class="st10" x1="37.8" y1="-668.7" x2="323.4" y2="-668.7"/>
<line class="st10" x1="65.5" y1="-641.1" x2="295.8" y2="-641.1"/>
<path class="st11" d="M1659.2-1411c0,16.1-13.1,29.2-29.2,29.2s-29.2-13.1-29.2-29.2c0-16.1,13.1-29.2,29.2-29.2
	S1659.2-1427.1,1659.2-1411z"/>
<g>
	<path class="st12" d="M1504.6-1350.6c0-38.7,31.1-85.3,69.5-85.3c38.4,0,69.5,46.6,69.5,85.3s-31.1,57.4-69.5,57.4
		C1535.7-1293.2,1504.6-1311.9,1504.6-1350.6z"/>
	<g>
		<line class="st12" x1="1574" y1="-1365.6" x2="1574" y2="-1260.1"/>
		<line class="st12" x1="1548.1" y1="-1358" x2="1574" y2="-1325.5"/>
		<line class="st12" x1="1574" y1="-1307.9" x2="1596.2" y2="-1336.6"/>
	</g>
	<g>
		<line class="st12" x1="1461.8" y1="-1391.2" x2="1461.8" y2="-1260.1"/>
		<line class="st12" x1="1429.6" y1="-1381.8" x2="1461.8" y2="-1341.4"/>
		<line class="st12" x1="1461.8" y1="-1319.4" x2="1489.4" y2="-1355.1"/>
	</g>
	<path class="st12" d="M1531.3-1387.6c0,47.7-19.8,86.3-70.3,86.3c-45.7,0-70.3-38.7-70.3-86.3s31.5-118,70.3-118
		C1499.8-1505.6,1531.3-1435.3,1531.3-1387.6z"/>
	<line class="st12" x1="1377.2" y1="-1254.1" x2="1657" y2="-1254.1"/>
	<line class="st12" x1="1404.3" y1="-1227.1" x2="1630" y2="-1227.1"/>
</g>
<path class="st11" d="M2282.1-1411c0,16.1-13.1,29.2-29.2,29.2s-29.2-13.1-29.2-29.2c0-16.1,13.1-29.2,29.2-29.2
	S2282.1-1427.1,2282.1-1411z"/>
<g>
	<path class="st13" d="M2127.5-1350.6c0-38.7,31.1-85.3,69.5-85.3c38.4,0,69.5,46.6,69.5,85.3s-31.1,57.4-69.5,57.4
		C2158.6-1293.2,2127.5-1311.9,2127.5-1350.6z"/>
	<g>
		<line class="st13" x1="2197" y1="-1365.6" x2="2197" y2="-1260.1"/>
		<line class="st13" x1="2171.1" y1="-1358" x2="2197" y2="-1325.5"/>
		<line class="st13" x1="2197" y1="-1307.9" x2="2219.1" y2="-1336.6"/>
	</g>
	<g>
		<line class="st13" x1="2084.8" y1="-1391.2" x2="2084.8" y2="-1260.1"/>
		<line class="st13" x1="2052.6" y1="-1381.8" x2="2084.8" y2="-1341.4"/>
		<line class="st13" x1="2084.8" y1="-1319.4" x2="2112.3" y2="-1355.1"/>
	</g>
	<path class="st13" d="M2154.2-1387.6c0,47.7-19.8,86.3-70.3,86.3c-45.7,0-70.3-38.7-70.3-86.3s31.5-118,70.3-118
		C2122.8-1505.6,2154.2-1435.3,2154.2-1387.6z"/>
	<line class="st13" x1="2000.2" y1="-1254.1" x2="2280" y2="-1254.1"/>
	<line class="st13" x1="2027.3" y1="-1227.1" x2="2252.9" y2="-1227.1"/>
</g>
<rect y="-1624.3" class="st9" width="566.9" height="566.9"/>
<path class="st11" d="M424.4-1411c0,16.1-13.1,29.2-29.2,29.2c-16.1,0-29.2-13.1-29.2-29.2c0-16.1,13.1-29.2,29.2-29.2
	C411.4-1440.1,424.4-1427.1,424.4-1411z"/>
<g>
	<path class="st12" d="M269.8-1350.6c0-38.7,31.1-85.3,69.5-85.3c38.4,0,69.5,46.6,69.5,85.3s-31.1,57.4-69.5,57.4
		C300.9-1293.2,269.8-1311.9,269.8-1350.6z"/>
	<g>
		<line class="st12" x1="339.3" y1="-1365.6" x2="339.3" y2="-1260.1"/>
		<line class="st12" x1="313.4" y1="-1358" x2="339.3" y2="-1325.5"/>
		<line class="st12" x1="339.3" y1="-1307.9" x2="361.4" y2="-1336.6"/>
	</g>
	<g>
		<line class="st12" x1="227.1" y1="-1391.2" x2="227.1" y2="-1260.1"/>
		<line class="st12" x1="194.9" y1="-1381.8" x2="227.1" y2="-1341.4"/>
		<line class="st12" x1="227.1" y1="-1319.4" x2="254.6" y2="-1355.1"/>
	</g>
	<path class="st12" d="M296.5-1387.6c0,47.7-19.8,86.3-70.3,86.3c-45.7,0-70.3-38.7-70.3-86.3s31.5-118,70.3-118
		C265.1-1505.6,296.5-1435.3,296.5-1387.6z"/>
	<line class="st12" x1="142.5" y1="-1254.1" x2="422.3" y2="-1254.1"/>
	<line class="st12" x1="169.6" y1="-1227.1" x2="395.2" y2="-1227.1"/>
</g>
<rect x="623" y="-1624.3" class="st7" width="566.9" height="566.9"/>
<path class="st11" d="M1047.4-1411c0,16.1-13.1,29.2-29.2,29.2c-16.1,0-29.2-13.1-29.2-29.2c0-16.1,13.1-29.2,29.2-29.2
	C1034.3-1440.1,1047.4-1427.1,1047.4-1411z"/>
<g>
	<path class="st13" d="M892.8-1350.6c0-38.7,31.1-85.3,69.5-85.3s69.5,46.6,69.5,85.3s-31.1,57.4-69.5,57.4
		S892.8-1311.9,892.8-1350.6z"/>
	<g>
		<line class="st13" x1="962.3" y1="-1365.6" x2="962.3" y2="-1260.1"/>
		<line class="st13" x1="936.3" y1="-1358" x2="962.3" y2="-1325.5"/>
		<line class="st13" x1="962.3" y1="-1307.9" x2="984.4" y2="-1336.6"/>
	</g>
	<g>
		<line class="st13" x1="850.1" y1="-1391.2" x2="850.1" y2="-1260.1"/>
		<line class="st13" x1="817.9" y1="-1381.8" x2="850.1" y2="-1341.4"/>
		<line class="st13" x1="850.1" y1="-1319.4" x2="877.6" y2="-1355.1"/>
	</g>
	<path class="st13" d="M919.5-1387.6c0,47.7-19.8,86.3-70.3,86.3c-45.7,0-70.3-38.7-70.3-86.3s31.5-118,70.3-118
		C888-1505.6,919.5-1435.3,919.5-1387.6z"/>
	<line class="st13" x1="765.5" y1="-1254.1" x2="1045.3" y2="-1254.1"/>
	<line class="st13" x1="792.6" y1="-1227.1" x2="1018.2" y2="-1227.1"/>
</g>
<g>
	<path class="st9" d="M2150.1,38.4c0,39.1-31.7,70.9-70.9,70.9s-70.9-31.7-70.9-70.9c0-39.1,31.7-70.9,70.9-70.9
		S2150.1-0.8,2150.1,38.4z"/>
	<path class="st11" d="M2113.3,22.2c0,3.9-3.2,7.1-7.1,7.1s-7.1-3.2-7.1-7.1c0-3.9,3.2-7.1,7.1-7.1S2113.3,18.3,2113.3,22.2z"/>
	<g>
		<path class="st14" d="M2076,36.7c0-9.4,7.5-20.6,16.8-20.6c9.3,0,16.8,11.3,16.8,20.6c0,9.4-7.5,13.9-16.8,13.9
			C2083.5,50.6,2076,46.1,2076,36.7z"/>
		<g>
			<line class="st14" x1="2092.7" y1="33.1" x2="2092.7" y2="58.6"/>
			<line class="st14" x1="2086.5" y1="35" x2="2092.7" y2="42.8"/>
			<line class="st14" x1="2092.7" y1="47.1" x2="2098.1" y2="40.1"/>
		</g>
		<g>
			<line class="st14" x1="2065.6" y1="26.9" x2="2065.6" y2="58.6"/>
			<line class="st14" x1="2057.9" y1="29.2" x2="2065.6" y2="39"/>
			<line class="st14" x1="2065.6" y1="44.3" x2="2072.3" y2="35.7"/>
		</g>
		<path class="st14" d="M2082.4,27.8c0,11.5-4.8,20.9-17,20.9c-11.1,0-17-9.3-17-20.9c0-11.5,7.6-28.5,17-28.5
			C2074.8-0.7,2082.4,16.3,2082.4,27.8z"/>
		<line class="st14" x1="2045.2" y1="60.1" x2="2112.8" y2="60.1"/>
		<line class="st14" x1="2051.7" y1="66.6" x2="2106.3" y2="66.6"/>
	</g>
	<g>
		<path class="st7" d="M2055.5,72.8l1,1.8l1-1.8h1.5l-1.9,3.1v2.2h-1.4v-2.2l-1.9-3.1H2055.5z"/>
		<path class="st7" d="M2059,78.2v-1.3h1.4v1.3H2059z"/>
		<path class="st7" d="M2060.8,78.2l1.8-5.3h1.7l1.8,5.3h-1.4l-0.5-1.5l-1.7,0.5l-0.3,1H2060.8z M2062.9,75.9l0.9-0.3l-0.4-1.2
			L2062.9,75.9z"/>
		<path class="st7" d="M2066.6,78.2v-1.3h1.4v1.3H2066.6z"/>
		<path class="st7" d="M2070.5,75.5c0-0.4,0.1-0.8,0.2-1.1c0.2-0.3,0.4-0.6,0.6-0.9c0.3-0.2,0.6-0.4,0.9-0.6
			c0.4-0.1,0.7-0.2,1.1-0.2c0.6,0,1,0.1,1.4,0.3c0.4,0.2,0.8,0.6,1.1,1l-0.9,0.8c-0.2-0.3-0.4-0.5-0.6-0.7c-0.3-0.2-0.6-0.3-0.9-0.3
			c-0.2,0-0.4,0-0.6,0.1c-0.2,0.1-0.4,0.2-0.5,0.4c-0.1,0.1-0.2,0.3-0.3,0.5c-0.1,0.2-0.1,0.4-0.1,0.7c0,0.2,0,0.4,0.1,0.6
			c0.1,0.2,0.2,0.4,0.3,0.5c0.1,0.1,0.3,0.3,0.5,0.3c0.2,0.1,0.4,0.1,0.6,0.1c0.2,0,0.4,0,0.5-0.1c0.2,0,0.3-0.1,0.4-0.2
			c0.1-0.1,0.2-0.2,0.3-0.3c0.1-0.1,0.2-0.3,0.3-0.4l0.9,0.8c-0.3,0.4-0.7,0.7-1.1,1c-0.4,0.2-0.9,0.3-1.5,0.3
			c-0.4,0-0.8-0.1-1.1-0.2c-0.4-0.1-0.7-0.3-0.9-0.6c-0.3-0.2-0.5-0.5-0.6-0.9C2070.6,76.3,2070.5,75.9,2070.5,75.5z"/>
		<path class="st7" d="M2080,78.2v-2.5l-2,0.5v1.9h-1.4v-5.3h1.4v2.2l2-0.6v-1.7h1.4v5.3H2080z"/>
		<path class="st7" d="M2084.7,78.3c-0.3,0-0.6-0.1-0.9-0.2c-0.3-0.1-0.5-0.2-0.8-0.4c-0.2-0.2-0.4-0.4-0.5-0.7
			c-0.1-0.3-0.2-0.6-0.2-0.9v-3.3h1.4v3.2c0,0.1,0,0.3,0.1,0.4c0,0.1,0.1,0.2,0.2,0.3c0.1,0.1,0.2,0.2,0.3,0.2
			c0.1,0.1,0.3,0.1,0.4,0.1c0.2,0,0.3,0,0.4-0.1c0.1-0.1,0.2-0.1,0.3-0.2c0.1-0.1,0.2-0.2,0.2-0.3c0-0.1,0.1-0.3,0.1-0.4v-3.2h1.4
			v3.3c0,0.3-0.1,0.6-0.2,0.9c-0.1,0.3-0.3,0.5-0.5,0.7c-0.2,0.2-0.5,0.3-0.8,0.4C2085.3,78.2,2085,78.3,2084.7,78.3z"/>
		<path class="st7" d="M2088,72.8h3c0.2,0,0.4,0,0.7,0.1c0.2,0.1,0.4,0.2,0.5,0.3c0.1,0.1,0.3,0.3,0.3,0.5c0.1,0.2,0.1,0.4,0.1,0.7
			c0,0.4-0.1,0.6-0.2,0.9c-0.1,0.2-0.3,0.4-0.5,0.5l1,2.3h-1.4l-0.8-1.9l-1.3,0.3v1.7h-1.4V72.8z M2091.2,74.4c0-0.1,0-0.2-0.1-0.3
			c-0.1-0.1-0.2-0.1-0.3-0.1h-1.4v1.3l1.3-0.2c0.2,0,0.4-0.1,0.5-0.2C2091.2,74.7,2091.2,74.6,2091.2,74.4z"/>
		<path class="st7" d="M2093.4,75.5c0-0.4,0.1-0.8,0.2-1.1c0.1-0.3,0.4-0.6,0.6-0.9c0.3-0.2,0.6-0.4,0.9-0.6
			c0.4-0.1,0.7-0.2,1.1-0.2c0.6,0,1,0.1,1.4,0.3c0.4,0.2,0.8,0.6,1.1,1l-0.9,0.8c-0.2-0.3-0.4-0.5-0.6-0.7c-0.2-0.2-0.6-0.3-0.9-0.3
			c-0.2,0-0.4,0-0.6,0.1c-0.2,0.1-0.4,0.2-0.5,0.4c-0.1,0.1-0.2,0.3-0.3,0.5c-0.1,0.2-0.1,0.4-0.1,0.7c0,0.2,0,0.4,0.1,0.6
			c0.1,0.2,0.2,0.4,0.3,0.5c0.1,0.1,0.3,0.3,0.5,0.3c0.2,0.1,0.4,0.1,0.6,0.1c0.2,0,0.4,0,0.5-0.1c0.2,0,0.3-0.1,0.4-0.2
			c0.1-0.1,0.2-0.2,0.3-0.3c0.1-0.1,0.2-0.3,0.3-0.4l0.9,0.8c-0.3,0.4-0.7,0.7-1.1,1c-0.4,0.2-0.9,0.3-1.5,0.3
			c-0.4,0-0.8-0.1-1.1-0.2c-0.4-0.1-0.7-0.3-0.9-0.6s-0.5-0.5-0.6-0.9C2093.5,76.3,2093.4,75.9,2093.4,75.5z"/>
		<path class="st7" d="M2102.8,78.2v-2.5l-2,0.5v1.9h-1.4v-5.3h1.4v2.2l2-0.6v-1.7h1.4v5.3H2102.8z"/>
	</g>
</g>
<g>
	<path class="st7" d="M1987.6-128.3c0,39.1-31.7,70.9-70.9,70.9c-39.1,0-70.9-31.7-70.9-70.9c0-39.1,31.7-70.9,70.9-70.9
		C1955.9-199.2,1987.6-167.5,1987.6-128.3z"/>
	<g>
		<g>
			<path class="st11" d="M1965.4-161.3c0,2.7-2.2,5-5,5c-2.7,0-5-2.2-5-5c0-2.7,2.2-5,5-5C1963.1-166.3,1965.4-164,1965.4-161.3z"/>
			<path class="st15" d="M1939.1-151.1c0-6.6,5.3-14.5,11.8-14.5c6.5,0,11.8,7.9,11.8,14.5c0,6.6-5.3,9.7-11.8,9.7
				C1944.4-141.3,1939.1-144.5,1939.1-151.1z"/>
			<g>
				<line class="st15" x1="1950.9" y1="-153.6" x2="1950.9" y2="-135.7"/>
				<line class="st15" x1="1946.5" y1="-152.3" x2="1950.9" y2="-146.8"/>
				<line class="st15" x1="1950.9" y1="-143.8" x2="1954.7" y2="-148.7"/>
			</g>
			<g>
				<line class="st15" x1="1931.9" y1="-158" x2="1931.9" y2="-135.7"/>
				<line class="st15" x1="1926.4" y1="-156.3" x2="1931.9" y2="-149.5"/>
				<line class="st15" x1="1931.9" y1="-145.8" x2="1936.5" y2="-151.8"/>
			</g>
			<path class="st15" d="M1943.6-157.3c0,8.1-3.4,14.7-11.9,14.7c-7.8,0-11.9-6.6-11.9-14.7c0-8.1,5.3-20,11.9-20
				C1938.3-177.4,1943.6-165.4,1943.6-157.3z"/>
		</g>
		<line class="st15" x1="1917.5" y1="-134.7" x2="1965" y2="-134.7"/>
		<line class="st15" x1="1922.1" y1="-130.1" x2="1960.4" y2="-130.1"/>
	</g>
	<g>
		<path class="st9" d="M1867-106.6l3.3-9.7h3.2l3.3,9.7h-2.5l-0.9-2.7l-3.1,0.9l-0.6,1.9H1867z M1870.9-110.8l1.7-0.5l-0.8-2.3
			L1870.9-110.8z"/>
		<path class="st9" d="M1881-109.8c0.4,0.4,0.9,0.7,1.5,0.9c0.6,0.2,1.2,0.3,1.8,0.3c0.4,0,0.7-0.1,0.9-0.2c0.2-0.1,0.3-0.3,0.3-0.5
			c0-0.3-0.1-0.5-0.3-0.6c-0.2-0.2-0.6-0.3-1.1-0.5c-0.4-0.1-0.9-0.3-1.3-0.4s-0.9-0.3-1.2-0.6c-0.4-0.2-0.7-0.5-0.9-0.9
			c-0.2-0.4-0.4-0.8-0.4-1.4c0-0.5,0.1-1,0.3-1.3c0.2-0.4,0.5-0.7,0.8-0.9c0.3-0.2,0.7-0.4,1.2-0.5c0.5-0.1,0.9-0.2,1.5-0.2
			c0.4,0,0.7,0,1,0.1s0.6,0.1,1,0.2c0.3,0.1,0.6,0.2,0.9,0.4c0.3,0.2,0.6,0.3,0.9,0.6l-1,2c-0.4-0.3-0.8-0.5-1.3-0.7
			c-0.5-0.2-1-0.3-1.5-0.3c-0.2,0-0.3,0-0.5,0c-0.2,0-0.3,0.1-0.4,0.1c-0.1,0.1-0.2,0.1-0.3,0.2c-0.1,0.1-0.1,0.2-0.1,0.3
			c0,0.1,0,0.2,0.1,0.3c0,0.1,0.1,0.2,0.2,0.3c0.1,0.1,0.3,0.2,0.5,0.2c0.2,0.1,0.5,0.2,0.8,0.3c0.5,0.1,1,0.3,1.5,0.5
			c0.5,0.2,0.9,0.4,1.2,0.6c0.3,0.2,0.6,0.5,0.8,0.9c0.2,0.4,0.3,0.8,0.3,1.4c0,0.5-0.1,0.9-0.3,1.3c-0.2,0.4-0.5,0.7-0.8,0.9
			c-0.3,0.2-0.8,0.4-1.2,0.5c-0.5,0.1-1,0.2-1.6,0.2c-0.8,0-1.6-0.1-2.3-0.4c-0.7-0.2-1.4-0.6-2-1L1881-109.8z"/>
		<path class="st9" d="M1894.2-114.2v7.6h-2.5v-7.6h-3.1v-2.1h8.7v2.1H1894.2z"/>
		<path class="st9" d="M1898.1-116.3h5.5c0.4,0,0.8,0.1,1.2,0.2c0.4,0.1,0.7,0.3,1,0.5c0.3,0.2,0.5,0.5,0.6,0.9
			c0.2,0.4,0.2,0.8,0.2,1.3c0,0.7-0.1,1.2-0.3,1.6c-0.2,0.4-0.5,0.7-1,1l1.9,4.3h-2.6l-1.5-3.6l-2.3,0.5v3h-2.5V-116.3z M1904-113.4
			c0-0.2-0.1-0.4-0.2-0.6c-0.2-0.2-0.4-0.2-0.6-0.2h-2.6v2.4l2.3-0.4c0.4-0.1,0.7-0.2,0.9-0.4S1904-113.1,1904-113.4z"/>
		<path class="st9" d="M1915-112.6v2.1h-4.8v1.8h5.1v2.1h-7.7v-9.7h7.6v2.1h-5v1.6H1915z"/>
		<path class="st9" d="M1915.7-106.6l3.3-9.7h3.2l3.3,9.7h-2.5l-0.9-2.7l-3.1,0.9l-0.6,1.9H1915.7z M1919.7-110.8l1.7-0.5l-0.8-2.3
			L1919.7-110.8z"/>
		<path class="st9" d="M1934.4-116.3h2.6v9.7h-2.5v-4.9l-2,4.9h-1.8l-2-4.9v4.9h-2.5v-9.7h2.6l2.8,6.9L1934.4-116.3z"/>
	</g>
	<g>
		<path class="st9" d="M1868.2-102.4l0.9,1.6l0.9-1.6h1.4l-1.7,2.8v2h-1.2v-2l-1.7-2.7H1868.2z"/>
		<path class="st9" d="M1871.6-100.1c0-0.4,0.1-0.7,0.2-1c0.1-0.3,0.3-0.6,0.5-0.8c0.2-0.2,0.5-0.4,0.8-0.5c0.3-0.1,0.7-0.2,1-0.2
			c0.4,0,0.7,0.1,1,0.2c0.3,0.1,0.6,0.3,0.8,0.5c0.2,0.2,0.4,0.5,0.5,0.8c0.1,0.3,0.2,0.6,0.2,1c0,0.4-0.1,0.7-0.2,1
			c-0.1,0.3-0.3,0.6-0.5,0.8c-0.2,0.2-0.5,0.4-0.8,0.5c-0.3,0.1-0.7,0.2-1,0.2c-0.4,0-0.7-0.1-1-0.2c-0.3-0.1-0.6-0.3-0.8-0.5
			c-0.2-0.2-0.4-0.5-0.5-0.8C1871.6-99.4,1871.6-99.7,1871.6-100.1z M1872.8-100.1c0,0.2,0,0.4,0.1,0.6c0.1,0.2,0.2,0.3,0.3,0.5
			c0.1,0.1,0.3,0.2,0.4,0.3c0.2,0.1,0.4,0.1,0.6,0.1s0.4,0,0.6-0.1c0.2-0.1,0.3-0.2,0.4-0.3c0.1-0.1,0.2-0.3,0.3-0.5
			c0.1-0.2,0.1-0.4,0.1-0.6c0-0.2,0-0.4-0.1-0.6c-0.1-0.2-0.2-0.3-0.3-0.5c-0.1-0.1-0.3-0.2-0.4-0.3c-0.2-0.1-0.4-0.1-0.6-0.1
			s-0.4,0-0.6,0.1c-0.2,0.1-0.3,0.2-0.4,0.3c-0.1,0.1-0.2,0.3-0.3,0.5C1872.8-100.5,1872.8-100.3,1872.8-100.1z"/>
		<path class="st9" d="M1879.6-97.6c-0.3,0-0.6,0-0.8-0.1c-0.3-0.1-0.5-0.2-0.7-0.4c-0.2-0.2-0.3-0.4-0.5-0.6
			c-0.1-0.2-0.2-0.5-0.2-0.8v-2.9h1.2v2.9c0,0.1,0,0.2,0.1,0.4c0,0.1,0.1,0.2,0.2,0.3c0.1,0.1,0.2,0.2,0.3,0.2
			c0.1,0,0.2,0.1,0.4,0.1c0.1,0,0.3,0,0.4-0.1c0.1,0,0.2-0.1,0.3-0.2c0.1-0.1,0.1-0.2,0.2-0.3c0-0.1,0.1-0.2,0.1-0.4v-2.9h1.2v2.9
			c0,0.3-0.1,0.6-0.2,0.8c-0.1,0.2-0.3,0.4-0.5,0.6c-0.2,0.2-0.4,0.3-0.7,0.4C1880.2-97.6,1879.9-97.6,1879.6-97.6z"/>
		<path class="st9" d="M1882.6-102.4h1.2l1.8,2.9v-2.9h1.2v4.8h-1.2l-1.8-2.9v2.9h-1.2V-102.4z"/>
		<path class="st9" d="M1889.9-98.6c0.3,0,0.6-0.1,0.8-0.2c0.2-0.1,0.3-0.4,0.4-0.6h-1.3v-1h2.5v0.7c0,0.4-0.1,0.7-0.2,1
			c-0.1,0.3-0.3,0.5-0.5,0.7c-0.2,0.2-0.5,0.3-0.8,0.4c-0.3,0.1-0.6,0.1-0.9,0.1c-0.4,0-0.7-0.1-1-0.2c-0.3-0.1-0.6-0.3-0.8-0.5
			c-0.2-0.2-0.4-0.5-0.5-0.8c-0.1-0.3-0.2-0.6-0.2-1c0-0.4,0.1-0.7,0.2-1c0.1-0.3,0.3-0.6,0.5-0.8c0.2-0.2,0.5-0.4,0.8-0.5
			c0.3-0.1,0.7-0.2,1-0.2c0.5,0,0.9,0.1,1.3,0.3c0.4,0.2,0.7,0.5,1,0.9l-0.8,0.7c-0.1-0.3-0.3-0.5-0.6-0.6c-0.2-0.2-0.5-0.2-0.9-0.2
			c-0.2,0-0.3,0-0.5,0.1c-0.2,0.1-0.3,0.2-0.4,0.3c-0.1,0.1-0.2,0.3-0.3,0.5c-0.1,0.2-0.1,0.4-0.1,0.6c0,0.2,0,0.4,0.1,0.6
			c0.1,0.2,0.2,0.3,0.3,0.5c0.1,0.1,0.3,0.2,0.4,0.3C1889.6-98.6,1889.8-98.6,1889.9-98.6z"/>
		<path class="st9" d="M1894.4-97.7l1.6-4.8h1.6l1.6,4.8h-1.2l-0.5-1.3l-1.5,0.4l-0.3,0.9H1894.4z M1896.3-99.7l0.8-0.2l-0.4-1.1
			L1896.3-99.7z"/>
		<path class="st9" d="M1899.7-102.4h2.3c0.3,0,0.6,0.1,0.9,0.2c0.3,0.1,0.5,0.3,0.7,0.5c0.2,0.2,0.3,0.5,0.4,0.7
			c0.1,0.3,0.1,0.6,0.1,0.9c0,0.3-0.1,0.7-0.2,1c-0.1,0.3-0.2,0.5-0.4,0.8c-0.2,0.2-0.4,0.4-0.7,0.5c-0.3,0.1-0.6,0.2-1,0.2h-2
			V-102.4z M1901-98.7h0.7c0.2,0,0.4,0,0.5-0.1c0.1-0.1,0.3-0.2,0.4-0.3c0.1-0.1,0.2-0.3,0.2-0.4c0-0.2,0.1-0.3,0.1-0.5
			c0-0.2,0-0.4-0.1-0.5c-0.1-0.2-0.1-0.3-0.2-0.4c-0.1-0.1-0.2-0.2-0.4-0.3c-0.2-0.1-0.3-0.1-0.5-0.1h-0.6V-98.7z"/>
		<path class="st9" d="M1906.9-97.6c-0.3,0-0.6,0-0.8-0.1c-0.3-0.1-0.5-0.2-0.7-0.4c-0.2-0.2-0.3-0.4-0.5-0.6
			c-0.1-0.2-0.2-0.5-0.2-0.8v-2.9h1.2v2.9c0,0.1,0,0.2,0.1,0.4c0,0.1,0.1,0.2,0.2,0.3c0.1,0.1,0.2,0.2,0.3,0.2
			c0.1,0,0.2,0.1,0.4,0.1c0.1,0,0.3,0,0.4-0.1c0.1,0,0.2-0.1,0.3-0.2c0.1-0.1,0.1-0.2,0.2-0.3c0-0.1,0.1-0.2,0.1-0.4v-2.9h1.2v2.9
			c0,0.3-0.1,0.6-0.2,0.8c-0.1,0.2-0.3,0.4-0.5,0.6c-0.2,0.2-0.4,0.3-0.7,0.4C1907.5-97.6,1907.2-97.6,1906.9-97.6z"/>
		<path class="st9" d="M1909.9-102.4h1.2v3.7h2.3v1h-3.5V-102.4z"/>
		<path class="st9" d="M1916.3-101.4v3.7h-1.2v-3.7h-1.5v-1h4.3v1H1916.3z"/>
		<path class="st9" d="M1918.8-99.2c0.2,0.2,0.5,0.3,0.7,0.4c0.3,0.1,0.6,0.2,0.9,0.2c0.2,0,0.3,0,0.4-0.1c0.1-0.1,0.1-0.1,0.1-0.2
			c0-0.1-0.1-0.2-0.2-0.3c-0.1-0.1-0.3-0.2-0.5-0.2c-0.2-0.1-0.4-0.1-0.7-0.2c-0.2-0.1-0.4-0.2-0.6-0.3c-0.2-0.1-0.3-0.3-0.4-0.4
			c-0.1-0.2-0.2-0.4-0.2-0.7c0-0.2,0-0.5,0.1-0.6c0.1-0.2,0.2-0.3,0.4-0.4c0.2-0.1,0.4-0.2,0.6-0.3c0.2-0.1,0.5-0.1,0.7-0.1
			c0.2,0,0.3,0,0.5,0c0.2,0,0.3,0.1,0.5,0.1c0.2,0.1,0.3,0.1,0.5,0.2c0.2,0.1,0.3,0.2,0.5,0.3l-0.5,1c-0.2-0.1-0.4-0.3-0.6-0.3
			c-0.2-0.1-0.5-0.1-0.7-0.1c-0.1,0-0.2,0-0.2,0c-0.1,0-0.1,0-0.2,0.1c-0.1,0-0.1,0.1-0.1,0.1c0,0,0,0.1,0,0.1c0,0.1,0,0.1,0,0.2
			c0,0,0.1,0.1,0.1,0.1c0.1,0,0.1,0.1,0.2,0.1c0.1,0,0.2,0.1,0.4,0.1c0.3,0.1,0.5,0.1,0.7,0.2c0.2,0.1,0.4,0.2,0.6,0.3
			c0.2,0.1,0.3,0.3,0.4,0.4c0.1,0.2,0.1,0.4,0.1,0.7c0,0.2,0,0.5-0.1,0.6c-0.1,0.2-0.2,0.3-0.4,0.5c-0.2,0.1-0.4,0.2-0.6,0.3
			c-0.2,0.1-0.5,0.1-0.8,0.1c-0.4,0-0.8-0.1-1.1-0.2c-0.3-0.1-0.7-0.3-1-0.5L1918.8-99.2z"/>
		<path class="st9" d="M1867-92.1c0-0.4,0.1-0.7,0.2-1c0.1-0.3,0.3-0.6,0.5-0.8c0.2-0.2,0.5-0.4,0.8-0.5c0.3-0.1,0.7-0.2,1-0.2
			c0.5,0,0.9,0.1,1.3,0.3c0.4,0.2,0.7,0.5,1,0.9l-0.8,0.7c-0.1-0.3-0.3-0.5-0.6-0.6c-0.2-0.2-0.5-0.2-0.8-0.2c-0.2,0-0.4,0-0.6,0.1
			c-0.2,0.1-0.3,0.2-0.4,0.3c-0.1,0.1-0.2,0.3-0.3,0.5c-0.1,0.2-0.1,0.4-0.1,0.6c0,0.2,0,0.4,0.1,0.6c0.1,0.2,0.2,0.3,0.3,0.5
			c0.1,0.1,0.3,0.2,0.4,0.3c0.2,0.1,0.4,0.1,0.6,0.1c0.2,0,0.3,0,0.5-0.1c0.1,0,0.3-0.1,0.4-0.2c0.1-0.1,0.2-0.2,0.3-0.3
			c0.1-0.1,0.2-0.2,0.3-0.4l0.8,0.7c-0.3,0.4-0.6,0.7-0.9,0.9c-0.4,0.2-0.8,0.3-1.3,0.3c-0.4,0-0.7-0.1-1-0.2
			c-0.3-0.1-0.6-0.3-0.8-0.5c-0.2-0.2-0.4-0.5-0.5-0.8C1867.1-91.4,1867-91.7,1867-92.1z"/>
		<path class="st9" d="M1875.5-89.7v-2.2l-1.8,0.5v1.7h-1.2v-4.8h1.2v2l1.8-0.5v-1.5h1.2v4.8H1875.5z"/>
		<path class="st9" d="M1879.7-89.6c-0.3,0-0.6,0-0.8-0.1c-0.3-0.1-0.5-0.2-0.7-0.4c-0.2-0.2-0.3-0.4-0.5-0.6
			c-0.1-0.2-0.2-0.5-0.2-0.8v-2.9h1.2v2.9c0,0.1,0,0.2,0.1,0.4c0,0.1,0.1,0.2,0.2,0.3c0.1,0.1,0.2,0.2,0.3,0.2
			c0.1,0,0.2,0.1,0.4,0.1c0.1,0,0.3,0,0.4-0.1c0.1,0,0.2-0.1,0.3-0.2c0.1-0.1,0.1-0.2,0.2-0.3c0-0.1,0.1-0.2,0.1-0.4v-2.9h1.2v2.9
			c0,0.3-0.1,0.6-0.2,0.8c-0.1,0.2-0.3,0.4-0.5,0.6c-0.2,0.2-0.4,0.3-0.7,0.4C1880.2-89.6,1879.9-89.6,1879.7-89.6z"/>
		<path class="st9" d="M1882.6-94.4h2.7c0.2,0,0.4,0,0.6,0.1c0.2,0.1,0.3,0.1,0.5,0.3c0.1,0.1,0.2,0.3,0.3,0.4
			c0.1,0.2,0.1,0.4,0.1,0.6c0,0.3-0.1,0.6-0.2,0.8c-0.1,0.2-0.3,0.4-0.5,0.5l0.9,2.1h-1.3l-0.7-1.7l-1.1,0.2v1.5h-1.2V-94.4z
			 M1885.5-93c0-0.1,0-0.2-0.1-0.3c-0.1-0.1-0.2-0.1-0.3-0.1h-1.3v1.2l1.1-0.2c0.2,0,0.3-0.1,0.4-0.2
			C1885.5-92.8,1885.5-92.9,1885.5-93z"/>
		<path class="st9" d="M1887.4-92.1c0-0.4,0.1-0.7,0.2-1c0.1-0.3,0.3-0.6,0.5-0.8c0.2-0.2,0.5-0.4,0.8-0.5c0.3-0.1,0.7-0.2,1-0.2
			c0.5,0,0.9,0.1,1.3,0.3c0.4,0.2,0.7,0.5,1,0.9l-0.8,0.7c-0.1-0.3-0.3-0.5-0.6-0.6c-0.2-0.2-0.5-0.2-0.8-0.2c-0.2,0-0.4,0-0.6,0.1
			c-0.2,0.1-0.3,0.2-0.4,0.3c-0.1,0.1-0.2,0.3-0.3,0.5c-0.1,0.2-0.1,0.4-0.1,0.6c0,0.2,0,0.4,0.1,0.6c0.1,0.2,0.2,0.3,0.3,0.5
			c0.1,0.1,0.3,0.2,0.4,0.3c0.2,0.1,0.4,0.1,0.6,0.1c0.2,0,0.3,0,0.5-0.1c0.1,0,0.3-0.1,0.4-0.2c0.1-0.1,0.2-0.2,0.3-0.3
			c0.1-0.1,0.2-0.2,0.3-0.4l0.8,0.7c-0.3,0.4-0.6,0.7-0.9,0.9c-0.4,0.2-0.8,0.3-1.3,0.3c-0.4,0-0.7-0.1-1-0.2
			c-0.3-0.1-0.6-0.3-0.8-0.5c-0.2-0.2-0.4-0.5-0.5-0.8C1887.5-91.4,1887.4-91.7,1887.4-92.1z"/>
		<path class="st9" d="M1895.9-89.7v-2.2l-1.8,0.5v1.7h-1.2v-4.8h1.2v2l1.8-0.5v-1.5h1.2v4.8H1895.9z"/>
	</g>
</g>
<g>
	<path class="st9" d="M2150.1-128.3c0,39.1-31.7,70.9-70.9,70.9s-70.9-31.7-70.9-70.9c0-39.1,31.7-70.9,70.9-70.9
		S2150.1-167.5,2150.1-128.3z"/>
	<path class="st11" d="M2113.3-144.5c0,3.9-3.2,7.1-7.1,7.1s-7.1-3.2-7.1-7.1c0-3.9,3.2-7.1,7.1-7.1S2113.3-148.4,2113.3-144.5z"/>
	<path class="st14" d="M2076-129.9c0-9.4,7.5-20.6,16.8-20.6c9.3,0,16.8,11.3,16.8,20.6c0,9.4-7.5,13.9-16.8,13.9
		C2083.5-116.1,2076-120.6,2076-129.9z"/>
	<g>
		<line class="st14" x1="2092.7" y1="-133.6" x2="2092.7" y2="-108.1"/>
		<line class="st14" x1="2086.5" y1="-131.7" x2="2092.7" y2="-123.9"/>
		<line class="st14" x1="2092.7" y1="-119.6" x2="2098.1" y2="-126.6"/>
	</g>
	<g>
		<line class="st14" x1="2065.6" y1="-139.8" x2="2065.6" y2="-108.1"/>
		<line class="st14" x1="2057.9" y1="-137.5" x2="2065.6" y2="-127.7"/>
		<line class="st14" x1="2065.6" y1="-122.4" x2="2072.3" y2="-131"/>
	</g>
	<path class="st14" d="M2082.4-138.9c0,11.5-4.8,20.9-17,20.9c-11.1,0-17-9.3-17-20.9c0-11.5,7.6-28.5,17-28.5
		C2074.8-167.4,2082.4-150.4,2082.4-138.9z"/>
	<line class="st14" x1="2045.2" y1="-106.6" x2="2112.8" y2="-106.6"/>
	<line class="st14" x1="2051.7" y1="-100.1" x2="2079.7" y2="-100.1"/>
	<g>
		<path class="st7" d="M2085.3-102.7h1.1v1.1h-1.1v0c0,0,0,0.1,0,0.1c0,0,0,0.1,0,0.1l1.3,0.6l-0.7,1l-1.1-0.6
			c-0.2,0.2-0.4,0.3-0.7,0.4c-0.3,0.1-0.6,0.2-0.9,0.2l-0.6-1c0.4-0.1,0.7-0.2,1-0.3c0.2-0.1,0.3-0.3,0.3-0.5v0h-1v-1.1h1v-0.5h1.4
			V-102.7z M2085.9-97.1c-0.4,0-0.8,0-1.2-0.1c-0.3,0-0.6-0.1-0.9-0.2c-0.2-0.1-0.4-0.2-0.5-0.4c-0.1-0.2-0.2-0.3-0.2-0.6
			c0-0.2,0.1-0.4,0.2-0.6c0.1-0.2,0.3-0.3,0.5-0.4c0.2-0.1,0.5-0.2,0.9-0.2c0.3,0,0.7-0.1,1.2-0.1s0.8,0,1.2,0.1
			c0.3,0,0.6,0.1,0.9,0.2c0.2,0.1,0.4,0.2,0.5,0.4c0.1,0.2,0.2,0.3,0.2,0.6c0,0.2-0.1,0.4-0.2,0.6c-0.1,0.2-0.3,0.3-0.5,0.4
			c-0.2,0.1-0.5,0.2-0.9,0.2C2086.8-97.1,2086.4-97.1,2085.9-97.1z M2085.9-98c0.4,0,0.8,0,1-0.1c0.2,0,0.4-0.1,0.4-0.2
			c0-0.1-0.1-0.2-0.4-0.2c-0.2,0-0.6-0.1-1-0.1c-0.4,0-0.8,0-1,0.1c-0.2,0-0.4,0.1-0.4,0.2c0,0.1,0.1,0.2,0.4,0.2
			C2085.2-98.1,2085.5-98,2085.9-98z M2088.6-103v3.3h-1.4v-1.4l-0.7,0.1v-1.3l0.7-0.1v-0.6H2088.6z"/>
		<path class="st7" d="M2092.3-101.6v-0.9l1.3-0.1v-0.3h1.4v4h-1.4v-1.5l-0.8,0.1v0.8h-3.4v-3.3h1.4v2.3h1.5v-0.6l1.3-0.1v-0.3
			L2092.3-101.6z M2091.1-99.2v0.8h4v1.1h-5.3v-2H2091.1z"/>
		<path class="st7" d="M2095.7-98.5h0.6v-2.1h1.3v2.1h0.4v-2.1h1.3v2.1h2.1v1.1h-5.8V-98.5z M2099.8-101.7h-3.7v-1.1h5.1v3.8h-1.4
			V-101.7z"/>
		<path class="st7" d="M2103.3-98.6v-0.4c-0.4-0.1-0.6-0.2-0.9-0.4c-0.2-0.2-0.3-0.5-0.3-0.8c0-0.2,0-0.4,0.1-0.6
			c0.1-0.2,0.2-0.3,0.4-0.4c0.2-0.1,0.4-0.2,0.6-0.2c0.2,0,0.5-0.1,0.8-0.1s0.6,0,0.8,0.1c0.2,0,0.4,0.1,0.6,0.2
			c0.2,0.1,0.3,0.2,0.4,0.4c0.1,0.2,0.1,0.4,0.1,0.6c0,0.4-0.1,0.6-0.3,0.8c-0.2,0.2-0.5,0.3-0.9,0.4v0.4h1.4v1.1h-4.2v-1.1H2103.3z
			 M2104.7-102.7h1.4v1h-4.1v-1h1.4v-0.5h1.4V-102.7z M2104.1-100c0.2,0,0.3,0,0.5-0.1c0.1,0,0.2-0.1,0.2-0.2c0-0.1-0.1-0.2-0.2-0.2
			c-0.1,0-0.3-0.1-0.5-0.1c-0.4,0-0.6,0.1-0.6,0.3C2103.5-100.1,2103.7-100,2104.1-100z M2107.8-97.4h-1.4v-5.6h1.4V-97.4z"/>
	</g>
</g>
<g>
	<text transform="matrix(1 0 0 1 2227.939 -264.7656)" class="st9" style="font-family:'SBAggroB'; font-size:12.1983px;">WELCOME!</text>
</g>
<path class="st7" d="M2312-128.3c0,39.1-31.7,70.9-70.9,70.9c-39.1,0-70.9-31.7-70.9-70.9c0-39.1,31.7-70.9,70.9-70.9
	C2280.2-199.2,2312-167.5,2312-128.3z"/>
<g>
	<path class="st11" d="M2192.2-155.5l-4.7-5.9l1.3-2l7.3,1.8l-1,1.6l-2.1-0.5l-0.7,2.3l0.9,1.1L2192.2-155.5z M2191.2-159.6l0.4-1.2
		l-1.7-0.4L2191.2-159.6z"/>
	<path class="st11" d="M2196.4-165.5c0.4-0.1,0.8-0.2,1.2-0.4c0.4-0.2,0.8-0.5,1.1-0.8c0.2-0.2,0.3-0.4,0.3-0.6c0-0.2,0-0.3-0.1-0.4
		c-0.1-0.1-0.3-0.2-0.5-0.1c-0.2,0-0.5,0.2-0.8,0.4c-0.3,0.2-0.6,0.4-0.9,0.5c-0.3,0.2-0.6,0.3-0.9,0.4c-0.3,0.1-0.6,0.1-0.9,0.1
		c-0.3,0-0.6-0.2-1-0.5c-0.3-0.3-0.5-0.5-0.6-0.8c-0.1-0.3-0.1-0.6-0.1-0.9c0-0.3,0.1-0.6,0.3-0.9c0.2-0.3,0.4-0.6,0.6-0.9
		c0.2-0.2,0.4-0.4,0.5-0.5c0.2-0.2,0.4-0.3,0.6-0.4c0.2-0.1,0.4-0.2,0.7-0.3c0.2-0.1,0.5-0.2,0.8-0.2l0.6,1.5
		c-0.4,0.1-0.7,0.2-1,0.4c-0.3,0.2-0.6,0.4-0.9,0.7c-0.1,0.1-0.2,0.2-0.2,0.3c-0.1,0.1-0.1,0.2-0.1,0.3c0,0.1,0,0.2,0,0.2
		c0,0.1,0,0.1,0.1,0.2c0.1,0.1,0.1,0.1,0.2,0.1c0.1,0,0.2,0,0.2,0c0.1,0,0.2-0.1,0.4-0.1c0.1-0.1,0.3-0.2,0.5-0.3
		c0.3-0.2,0.7-0.4,1-0.6c0.3-0.2,0.6-0.3,0.9-0.4c0.3-0.1,0.6-0.1,0.9,0c0.3,0.1,0.6,0.2,0.9,0.5c0.3,0.2,0.5,0.5,0.6,0.8
		s0.1,0.6,0.1,0.9s-0.1,0.6-0.3,1c-0.2,0.3-0.4,0.6-0.7,1c-0.4,0.4-0.8,0.8-1.3,1.1c-0.5,0.3-1,0.5-1.5,0.6L2196.4-165.5z"/>
	<path class="st11" d="M2201.2-175l3.7,4.2l-1.4,1.2l-3.7-4.2l-1.7,1.5l-1-1.2l4.8-4.2l1,1.2L2201.2-175z"/>
	<path class="st11" d="M2202.9-178.5l3.3-2.3c0.3-0.2,0.5-0.3,0.8-0.4c0.3-0.1,0.5-0.1,0.8-0.1s0.5,0.1,0.8,0.3
		c0.2,0.2,0.5,0.4,0.7,0.7c0.3,0.4,0.4,0.8,0.5,1.1c0,0.3,0,0.7-0.2,1l2.9,1.8l-1.6,1.1l-2.4-1.5l-1.2,1.3l1.3,1.9l-1.5,1.1
		L2202.9-178.5z M2207.7-179.2c-0.1-0.1-0.2-0.2-0.4-0.3c-0.2,0-0.3,0-0.5,0.1l-1.6,1.1l1,1.4l1.2-1.2c0.2-0.2,0.3-0.4,0.4-0.6
		C2207.9-178.8,2207.9-179,2207.7-179.2z"/>
	<path class="st11" d="M2215.5-182.9l0.7,1.4l-3.1,1.6l0.6,1.2l3.4-1.8l0.7,1.4l-5,2.6l-3.3-6.3l4.9-2.6l0.7,1.4l-3.3,1.7l0.6,1.1
		L2215.5-182.9z"/>
	<path class="st11" d="M2217.9-179.2l-0.3-7.6l2.2-0.8l4.8,5.8l-1.8,0.7l-1.4-1.6l-1.9,1.4l0,1.4L2217.9-179.2z M2219.5-183.1
		l1.1-0.8l-1.1-1.4L2219.5-183.1z"/>
	<path class="st11" d="M2229.3-190.2l1.9-0.4l1.6,7l-1.8,0.4l-0.8-3.5l-0.6,3.8l-1.3,0.3l-2.2-3.2l0.8,3.5l-1.8,0.4l-1.6-7l1.9-0.4
		l3.2,4.5L2229.3-190.2z"/>
	<path class="st11" d="M2237-191.2l1.5,2.3l1.3-2.4l2.1-0.1l-2.4,4.3l0.1,3l-1.9,0.1l-0.1-3l-2.7-4L2237-191.2z"/>
	<path class="st11" d="M2241.6-184l0-1.7l1.8,0l0,1.7L2241.6-184z"/>
	<path class="st11" d="M2243.7-184.2l3.2-6.9l2.3,0.3l1.6,7.4l-1.9-0.2l-0.5-2.1l-2.4,0.4l-0.6,1.3L2243.7-184.2z M2247-186.9
		l1.3-0.2l-0.4-1.7L2247-186.9z"/>
	<path class="st11" d="M2251.1-183.1l0.3-1.7l1.8,0.4l-0.3,1.7L2251.1-183.1z"/>
	<path class="st11" d="M2256.8-185.7c0.2-0.5,0.4-1,0.8-1.3c0.3-0.4,0.7-0.7,1.2-0.9c0.4-0.2,0.9-0.3,1.4-0.3c0.5,0,1,0.1,1.6,0.2
		c0.7,0.2,1.3,0.6,1.7,1c0.4,0.5,0.7,1,0.9,1.7l-1.5,0.6c-0.1-0.4-0.2-0.8-0.5-1.2c-0.2-0.3-0.6-0.6-1.1-0.7
		c-0.3-0.1-0.6-0.1-0.9-0.1c-0.3,0-0.5,0.1-0.8,0.2s-0.4,0.3-0.6,0.5c-0.2,0.2-0.3,0.5-0.4,0.8c-0.1,0.3-0.1,0.6-0.1,0.9
		c0,0.3,0.1,0.6,0.2,0.8s0.3,0.5,0.5,0.7c0.2,0.2,0.5,0.3,0.8,0.4c0.2,0.1,0.5,0.1,0.7,0.1c0.2,0,0.4,0,0.6-0.1
		c0.2-0.1,0.4-0.1,0.6-0.2c0.2-0.1,0.4-0.2,0.5-0.4l0.8,1.4c-0.6,0.4-1.2,0.7-1.8,0.8c-0.6,0.1-1.3,0.1-2-0.2
		c-0.5-0.2-1-0.4-1.4-0.8c-0.4-0.3-0.7-0.7-0.9-1.1c-0.2-0.4-0.4-0.9-0.4-1.4C2256.6-184.7,2256.6-185.2,2256.8-185.7z"/>
	<path class="st11" d="M2267-177.7l1.5-3l-2.7-0.5l-1.2,2.3l-1.7-0.8l3.2-6.4l1.7,0.8l-1.3,2.7l2.7,0.5l1-2l1.7,0.8l-3.2,6.4
		L2267-177.7z"/>
	<path class="st11" d="M2271.9-174.6c-0.4-0.2-0.7-0.5-0.9-0.9c-0.2-0.3-0.4-0.7-0.5-1.1c-0.1-0.4-0.1-0.8-0.1-1.1
		c0.1-0.4,0.2-0.8,0.5-1.1l2.5-3.7l1.6,1l-2.4,3.6c-0.1,0.2-0.2,0.3-0.2,0.5c0,0.2-0.1,0.3,0,0.5c0,0.2,0.1,0.3,0.2,0.5
		c0.1,0.2,0.2,0.3,0.4,0.4c0.2,0.1,0.4,0.2,0.5,0.2c0.2,0,0.4,0,0.5,0c0.2,0,0.3-0.1,0.5-0.2c0.1-0.1,0.3-0.2,0.4-0.4l2.4-3.6l1.6,1
		l-2.5,3.7c-0.2,0.4-0.5,0.7-0.9,0.9c-0.3,0.2-0.7,0.3-1.1,0.4c-0.4,0-0.8,0-1.2-0.1C2272.7-174.2,2272.3-174.4,2271.9-174.6z"/>
	<path class="st11" d="M2280-177.9l3,2.6c0.2,0.2,0.4,0.4,0.6,0.7c0.2,0.2,0.2,0.5,0.3,0.8c0,0.3,0,0.5-0.1,0.8
		c-0.1,0.3-0.3,0.6-0.5,0.8c-0.3,0.4-0.6,0.6-0.9,0.7c-0.3,0.1-0.7,0.1-1,0.1l-1,3.3l-1.5-1.3l0.9-2.7l-1.5-0.8l-1.5,1.7l-1.4-1.2
		L2280-177.9z M2281.9-173.4c0.1-0.1,0.2-0.3,0.2-0.4c0-0.2-0.1-0.3-0.2-0.4l-1.4-1.2l-1.1,1.3l1.5,0.9c0.3,0.2,0.5,0.2,0.7,0.2
		C2281.6-173.1,2281.8-173.2,2281.9-173.4z"/>
	<path class="st11" d="M2283.1-170.4c0.4-0.4,0.9-0.6,1.3-0.8c0.5-0.2,1-0.2,1.4-0.2c0.5,0,1,0.2,1.4,0.4c0.5,0.2,0.9,0.6,1.2,1
		c0.5,0.6,0.8,1.1,0.9,1.7c0.1,0.6,0.1,1.3,0,2l-1.6-0.2c0.1-0.4,0.2-0.8,0.1-1.3c-0.1-0.4-0.2-0.8-0.6-1.2
		c-0.2-0.2-0.4-0.4-0.7-0.5c-0.3-0.1-0.5-0.2-0.8-0.2c-0.3,0-0.5,0-0.8,0.2c-0.3,0.1-0.5,0.3-0.8,0.5c-0.2,0.2-0.4,0.4-0.6,0.7
		c-0.1,0.3-0.2,0.5-0.2,0.8c0,0.3,0,0.5,0.1,0.8c0.1,0.3,0.2,0.5,0.4,0.8c0.2,0.2,0.3,0.3,0.5,0.5c0.2,0.1,0.4,0.2,0.6,0.2
		c0.2,0.1,0.4,0.1,0.6,0.1c0.2,0,0.4,0,0.7-0.1l0,1.6c-0.7,0.1-1.3,0-1.9-0.2c-0.6-0.2-1.1-0.6-1.7-1.2c-0.4-0.4-0.6-0.9-0.8-1.3
		c-0.2-0.5-0.3-1-0.2-1.4c0-0.5,0.1-1,0.3-1.4C2282.4-169.6,2282.7-170,2283.1-170.4z"/>
	<path class="st11" d="M2288-158.5l2.8-1.9l-2.1-1.8l-2.2,1.5l-1.1-1.6l5.9-4l1.1,1.5l-2.5,1.7l2.1,1.8l1.9-1.3l1.1,1.5l-5.9,4
		L2288-158.5z"/>
</g>
<g>
	<g>
		<path class="st9" d="M2209.9-99.2l1.1,5.1l1.1-5.1h2.2l1,5.2l1.2-5.2h2.3l-2.2,8.8h-2.3l-1.1-5.6l-1.1,5.6h-2.3l-2.2-8.8H2209.9z"
			/>
		<path class="st9" d="M2226.1-95.9v1.9h-4.3v1.7h4.7v1.9h-7v-8.8h6.9v1.9h-4.6v1.5H2226.1z"/>
		<path class="st9" d="M2227.3-99.2h2.3v6.9h4.2v1.9h-6.5V-99.2z"/>
		<path class="st9" d="M2233.8-94.8c0-0.7,0.1-1.3,0.4-1.9c0.2-0.6,0.6-1.1,1-1.5c0.4-0.4,0.9-0.7,1.5-1c0.6-0.2,1.2-0.3,1.9-0.3
			c0.9,0,1.7,0.2,2.4,0.6c0.7,0.4,1.3,0.9,1.8,1.7l-1.5,1.3c-0.3-0.5-0.6-0.9-1-1.2c-0.4-0.3-0.9-0.4-1.6-0.4
			c-0.4,0-0.7,0.1-1.1,0.2c-0.3,0.1-0.6,0.3-0.8,0.6c-0.2,0.2-0.4,0.5-0.5,0.9s-0.2,0.7-0.2,1.1c0,0.4,0.1,0.7,0.2,1.1
			c0.1,0.3,0.3,0.6,0.5,0.9c0.2,0.2,0.5,0.4,0.8,0.6c0.3,0.1,0.7,0.2,1.1,0.2c0.3,0,0.6,0,0.9-0.1c0.3-0.1,0.5-0.2,0.7-0.3
			c0.2-0.1,0.4-0.3,0.6-0.5c0.2-0.2,0.3-0.4,0.5-0.7l1.5,1.3c-0.5,0.7-1.1,1.2-1.8,1.6c-0.7,0.4-1.5,0.6-2.4,0.6
			c-0.7,0-1.3-0.1-1.9-0.3s-1.1-0.5-1.5-1c-0.4-0.4-0.8-0.9-1-1.5C2233.9-93.5,2233.8-94.1,2233.8-94.8z"/>
		<path class="st9" d="M2242.8-94.8c0-0.7,0.1-1.3,0.4-1.9c0.2-0.6,0.6-1.1,1-1.5c0.4-0.4,0.9-0.7,1.5-1c0.6-0.2,1.2-0.3,1.9-0.3
			c0.7,0,1.3,0.1,1.9,0.3c0.6,0.2,1.1,0.5,1.5,1c0.4,0.4,0.8,0.9,1,1.5c0.2,0.6,0.4,1.2,0.4,1.9c0,0.7-0.1,1.3-0.4,1.9
			c-0.2,0.6-0.6,1.1-1,1.5c-0.4,0.4-0.9,0.7-1.5,1c-0.6,0.2-1.2,0.3-1.9,0.3c-0.7,0-1.3-0.1-1.9-0.3s-1.1-0.5-1.5-1
			c-0.4-0.4-0.8-0.9-1-1.5C2242.9-93.5,2242.8-94.2,2242.8-94.8z M2245.1-94.8c0,0.4,0.1,0.8,0.2,1.1c0.1,0.3,0.3,0.6,0.5,0.9
			c0.2,0.2,0.5,0.4,0.8,0.6c0.3,0.1,0.7,0.2,1,0.2c0.4,0,0.7-0.1,1-0.2c0.3-0.1,0.6-0.3,0.8-0.6c0.2-0.2,0.4-0.5,0.5-0.9
			c0.1-0.3,0.2-0.7,0.2-1.1c0-0.4-0.1-0.8-0.2-1.1c-0.1-0.3-0.3-0.6-0.5-0.9c-0.2-0.2-0.5-0.4-0.8-0.6c-0.3-0.1-0.7-0.2-1-0.2
			c-0.4,0-0.7,0.1-1,0.2c-0.3,0.1-0.6,0.3-0.8,0.6c-0.2,0.2-0.4,0.5-0.5,0.9C2245.2-95.6,2245.1-95.2,2245.1-94.8z"/>
		<path class="st9" d="M2260.9-99.2h2.4v8.8h-2.3v-4.4l-1.8,4.4h-1.6l-1.8-4.4v4.4h-2.3v-8.8h2.4l2.6,6.3L2260.9-99.2z"/>
		<path class="st9" d="M2271-95.9v1.9h-4.3v1.7h4.7v1.9h-7v-8.8h6.9v1.9h-4.6v1.5H2271z"/>
		<path class="st9" d="M2272.2-93v-6.7h2.3v6.7H2272.2z M2272.2-90.2v-2.2h2.3v2.2H2272.2z"/>
	</g>
</g>
<g>
	<path class="st16" d="M2238.2-132.7c0-8.3,6.6-18.2,14.8-18.2c8.2,0,14.8,9.9,14.8,18.2s-6.6,12.2-14.8,12.2
		C2244.8-120.5,2238.2-124.4,2238.2-132.7z"/>
	<g>
		<line class="st17" x1="2253" y1="-135.9" x2="2253" y2="-113.4"/>
		<line class="st17" x1="2247.5" y1="-134.3" x2="2253" y2="-127.3"/>
		<line class="st17" x1="2253" y1="-123.6" x2="2257.7" y2="-129.7"/>
	</g>
	<g>
		<line class="st17" x1="2229.1" y1="-141.3" x2="2229.1" y2="-113.4"/>
		<line class="st17" x1="2222.2" y1="-139.3" x2="2229.1" y2="-130.7"/>
		<line class="st17" x1="2229.1" y1="-126" x2="2234.9" y2="-133.6"/>
	</g>
	<path class="st16" d="M2243.9-140.6c0,10.2-4.2,18.4-15,18.4c-9.7,0-15-8.2-15-18.4c0-10.2,6.7-25.1,15-25.1
		C2237.2-165.7,2243.9-150.7,2243.9-140.6z"/>
	<line class="st17" x1="2211.1" y1="-112.1" x2="2270.7" y2="-112.1"/>
	<line class="st17" x1="2216.8" y1="-106.4" x2="2264.9" y2="-106.4"/>
	<path class="st11" d="M2271.1-145.5c0,3.4-2.8,6.2-6.2,6.2c-3.4,0-6.2-2.8-6.2-6.2c0-3.4,2.8-6.2,6.2-6.2
		C2268.3-151.8,2271.1-149,2271.1-145.5z"/>
</g>
<g>
	<g>
		<path class="st18" d="M2883.1-1382.1c0-7.4,2.8-14.2,7.4-19.3c-10.2-7.1-21.7-11.5-33.9-11.5c-15.4,0-29.6,6.8-41.5,17.4
			c3.2,12.7,5,25.3,5,36.5c0,33.5-9.2,58.7-26.1,74.1c12.7,16.1,34.6,25.5,62.6,25.5c45.5,0,74.9-24.7,74.9-63
			c0-11-2.4-22.7-6.8-33.8c-3.8,1.9-8.1,2.9-12.7,2.9C2896.1-1353.2,2883.1-1366.1,2883.1-1382.1z"/>
		<path class="st18" d="M2815.1-1395.5c-10.7-42.4-37.5-86.5-70.8-86.5c-43.2,0-75.8,74.7-75.8,123.1c0,54.8,30.5,91.7,75.8,91.7
			c20.5,0,37.2-6.1,49.7-17.5c-8-10.1-12.3-22.8-12.3-37.5C2781.7-1348.1,2794.9-1377.4,2815.1-1395.5z"/>
		<path class="st19" d="M2820.1-1358.9c0-11.2-1.8-23.8-5-36.5c-20.2,18.1-33.5,47.3-33.5,73.2c0,14.7,4.4,27.4,12.3,37.5
			C2810.9-1300.2,2820.1-1325.4,2820.1-1358.9z"/>
		<path class="st20" d="M2941.1-1382.1c0-16-13-29-29-29c-8.6,0-16.2,3.7-21.5,9.7c15.1,10.5,27.2,27.3,34.2,45.3
			C2934.4-1360.8,2941.1-1370.7,2941.1-1382.1z"/>
		<path class="st11" d="M2890.5-1401.4c-4.6,5.1-7.4,11.9-7.4,19.3c0,16,13,29,28.9,29c4.5,0,8.8-1.1,12.7-2.9
			C2917.7-1374.2,2905.6-1390.9,2890.5-1401.4z"/>
	</g>
	<g>
		<line class="st21" x1="2856.6" y1="-1337.1" x2="2856.6" y2="-1232.4"/>
		<line class="st21" x1="2830.8" y1="-1329.6" x2="2856.6" y2="-1297.3"/>
		<line class="st21" x1="2856.6" y1="-1279.8" x2="2878.6" y2="-1308.3"/>
	</g>
	<g>
		<line class="st21" x1="2745.2" y1="-1362.6" x2="2745.2" y2="-1232.4"/>
		<line class="st21" x1="2713.3" y1="-1353.2" x2="2745.2" y2="-1313.1"/>
		<line class="st21" x1="2745.2" y1="-1291.3" x2="2772.5" y2="-1326.7"/>
	</g>
	<line class="st21" x1="2661.3" y1="-1226.5" x2="2939" y2="-1226.5"/>
	<line class="st21" x1="2688.1" y1="-1199.7" x2="2912.1" y2="-1199.7"/>
</g>
<path class="st22" d="M2295.1-157c4.5,8.5,7.1,18.3,7.1,28.6c0,33.7-27.3,61.1-61.1,61.1c-33.7,0-61.1-27.4-61.1-61.1
	c0-10.4,2.6-20.1,7.1-28.6"/>
<g>
	<g>
		<path class="st11" d="M1963.5,92.2c0,2.7-2.2,5-5,5c-2.7,0-5-2.2-5-5c0-2.7,2.2-5,5-5C1961.2,87.2,1963.5,89.4,1963.5,92.2z"/>
		<g>
			<path class="st23" d="M1937.2,102.4c0-6.6,5.3-14.5,11.8-14.5c6.5,0,11.8,7.9,11.8,14.5c0,6.6-5.3,9.8-11.8,9.8
				C1942.5,112.2,1937.2,109,1937.2,102.4z"/>
			<g>
				<line class="st23" x1="1949" y1="99.9" x2="1949" y2="117.8"/>
				<line class="st23" x1="1944.6" y1="101.2" x2="1949" y2="106.7"/>
				<line class="st23" x1="1949" y1="109.7" x2="1952.8" y2="104.8"/>
			</g>
			<g>
				<line class="st23" x1="1929.9" y1="95.5" x2="1929.9" y2="117.8"/>
				<line class="st23" x1="1924.5" y1="97.1" x2="1929.9" y2="104"/>
				<line class="st23" x1="1929.9" y1="107.7" x2="1934.6" y2="101.6"/>
			</g>
			<path class="st23" d="M1941.7,96.1c0,8.1-3.4,14.7-11.9,14.7c-7.8,0-11.9-6.6-11.9-14.7c0-8.1,5.3-20,11.9-20
				S1941.7,88,1941.7,96.1z"/>
			<line class="st23" x1="1915.6" y1="118.8" x2="1963.1" y2="118.8"/>
			<line class="st23" x1="1920.2" y1="123.4" x2="1958.5" y2="123.4"/>
		</g>
	</g>
	<g>
		<path class="st9" d="M1870.6-2.5l3.3-9.7h3.2l3.3,9.7h-2.5l-0.9-2.7l-3.1,0.9l-0.6,1.9H1870.6z M1874.6-6.6l1.7-0.5l-0.8-2.3
			L1874.6-6.6z"/>
		<path class="st9" d="M1884.7-5.6c0.4,0.4,0.9,0.7,1.5,0.9c0.6,0.2,1.2,0.3,1.8,0.3c0.4,0,0.7-0.1,0.9-0.2c0.2-0.1,0.3-0.3,0.3-0.5
			c0-0.3-0.1-0.5-0.3-0.6c-0.2-0.2-0.6-0.3-1.1-0.5c-0.4-0.1-0.9-0.3-1.3-0.4c-0.5-0.1-0.9-0.3-1.2-0.6c-0.4-0.2-0.7-0.5-0.9-0.9
			c-0.2-0.4-0.4-0.8-0.4-1.4c0-0.5,0.1-1,0.3-1.3c0.2-0.4,0.5-0.7,0.8-0.9c0.3-0.2,0.7-0.4,1.2-0.5c0.5-0.1,0.9-0.2,1.5-0.2
			c0.4,0,0.7,0,1,0.1c0.3,0,0.6,0.1,1,0.2c0.3,0.1,0.6,0.2,0.9,0.4c0.3,0.2,0.6,0.3,0.9,0.6l-1,2c-0.4-0.3-0.8-0.5-1.3-0.7
			c-0.5-0.2-1-0.3-1.5-0.3c-0.2,0-0.3,0-0.5,0c-0.2,0-0.3,0.1-0.4,0.1s-0.2,0.1-0.3,0.2c-0.1,0.1-0.1,0.2-0.1,0.3
			c0,0.1,0,0.2,0.1,0.3c0,0.1,0.1,0.2,0.2,0.3s0.3,0.2,0.5,0.2c0.2,0.1,0.5,0.2,0.8,0.3c0.5,0.1,1,0.3,1.5,0.5
			c0.5,0.2,0.9,0.4,1.2,0.6c0.3,0.2,0.6,0.5,0.8,0.9c0.2,0.4,0.3,0.8,0.3,1.4c0,0.5-0.1,0.9-0.3,1.3c-0.2,0.4-0.5,0.7-0.8,0.9
			c-0.3,0.2-0.8,0.4-1.2,0.5c-0.5,0.1-1,0.2-1.6,0.2c-0.8,0-1.6-0.1-2.3-0.4c-0.7-0.2-1.4-0.6-2-1L1884.7-5.6z"/>
		<path class="st9" d="M1897.9-10.1v7.6h-2.5v-7.6h-3.1v-2.1h8.7v2.1H1897.9z"/>
		<path class="st9" d="M1901.7-12.2h5.5c0.4,0,0.8,0.1,1.2,0.2c0.4,0.1,0.7,0.3,1,0.5c0.3,0.2,0.5,0.5,0.6,0.9
			c0.2,0.4,0.2,0.8,0.2,1.3c0,0.7-0.1,1.2-0.3,1.6c-0.2,0.4-0.5,0.7-1,1l1.9,4.3h-2.6l-1.5-3.6l-2.3,0.5v3.1h-2.5V-12.2z
			 M1907.6-9.2c0-0.2-0.1-0.4-0.2-0.6c-0.2-0.2-0.4-0.2-0.6-0.2h-2.6v2.4l2.3-0.4c0.4-0.1,0.7-0.2,0.9-0.4
			C1907.6-8.7,1907.6-9,1907.6-9.2z"/>
		<path class="st9" d="M1918.7-8.5v2.1h-4.8v1.8h5.1v2.1h-7.7v-9.7h7.6v2.1h-5v1.6H1918.7z"/>
		<path class="st9" d="M1919.4-2.5l3.3-9.7h3.2l3.3,9.7h-2.5l-0.9-2.7l-3.1,0.9l-0.6,1.9H1919.4z M1923.3-6.6l1.7-0.5l-0.8-2.3
			L1923.3-6.6z"/>
		<path class="st9" d="M1938-12.2h2.6v9.7h-2.5v-4.9l-2,4.9h-1.8l-2-4.9v4.9h-2.5v-9.7h2.6l2.8,6.9L1938-12.2z"/>
	</g>
	<g>
		<path class="st9" d="M1871.9,1.7l0.9,1.6l0.9-1.6h1.4l-1.7,2.8v2h-1.2v-2l-1.7-2.7H1871.9z"/>
		<path class="st9" d="M1875.2,4.1c0-0.4,0.1-0.7,0.2-1c0.1-0.3,0.3-0.6,0.5-0.8c0.2-0.2,0.5-0.4,0.8-0.5c0.3-0.1,0.7-0.2,1-0.2
			c0.4,0,0.7,0.1,1,0.2c0.3,0.1,0.6,0.3,0.8,0.5c0.2,0.2,0.4,0.5,0.5,0.8c0.1,0.3,0.2,0.6,0.2,1c0,0.4-0.1,0.7-0.2,1
			c-0.1,0.3-0.3,0.6-0.5,0.8c-0.2,0.2-0.5,0.4-0.8,0.5c-0.3,0.1-0.7,0.2-1,0.2c-0.4,0-0.7-0.1-1-0.2c-0.3-0.1-0.6-0.3-0.8-0.5
			c-0.2-0.2-0.4-0.5-0.5-0.8C1875.3,4.8,1875.2,4.4,1875.2,4.1z M1876.4,4.1c0,0.2,0,0.4,0.1,0.6c0.1,0.2,0.2,0.3,0.3,0.5
			c0.1,0.1,0.3,0.2,0.4,0.3c0.2,0.1,0.4,0.1,0.6,0.1s0.4,0,0.6-0.1c0.2-0.1,0.3-0.2,0.4-0.3c0.1-0.1,0.2-0.3,0.3-0.5
			c0.1-0.2,0.1-0.4,0.1-0.6c0-0.2,0-0.4-0.1-0.6c-0.1-0.2-0.2-0.3-0.3-0.5c-0.1-0.1-0.3-0.2-0.4-0.3c-0.2-0.1-0.4-0.1-0.6-0.1
			s-0.4,0-0.6,0.1c-0.2,0.1-0.3,0.2-0.4,0.3c-0.1,0.1-0.2,0.3-0.3,0.5C1876.5,3.7,1876.4,3.9,1876.4,4.1z"/>
		<path class="st9" d="M1883.3,6.6c-0.3,0-0.6,0-0.8-0.1c-0.3-0.1-0.5-0.2-0.7-0.4c-0.2-0.2-0.3-0.4-0.5-0.6
			c-0.1-0.2-0.2-0.5-0.2-0.8V1.7h1.2v2.9c0,0.1,0,0.2,0.1,0.4c0,0.1,0.1,0.2,0.2,0.3c0.1,0.1,0.2,0.2,0.3,0.2c0.1,0,0.2,0.1,0.4,0.1
			c0.1,0,0.3,0,0.4-0.1c0.1-0.1,0.2-0.1,0.3-0.2c0.1-0.1,0.1-0.2,0.2-0.3c0-0.1,0.1-0.2,0.1-0.4V1.7h1.2v2.9c0,0.3-0.1,0.6-0.2,0.8
			c-0.1,0.2-0.3,0.4-0.5,0.6c-0.2,0.2-0.4,0.3-0.7,0.4C1883.8,6.5,1883.5,6.6,1883.3,6.6z"/>
		<path class="st9" d="M1886.2,1.7h1.2l1.8,2.9V1.7h1.2v4.8h-1.2l-1.8-2.9v2.9h-1.2V1.7z"/>
		<path class="st9" d="M1893.6,5.6c0.3,0,0.6-0.1,0.8-0.2c0.2-0.1,0.3-0.4,0.4-0.6h-1.3v-1h2.5v0.7c0,0.4-0.1,0.7-0.2,1
			c-0.1,0.3-0.3,0.5-0.5,0.7c-0.2,0.2-0.5,0.3-0.8,0.4c-0.3,0.1-0.6,0.1-0.9,0.1c-0.4,0-0.7-0.1-1-0.2c-0.3-0.1-0.6-0.3-0.8-0.5
			c-0.2-0.2-0.4-0.5-0.5-0.8c-0.1-0.3-0.2-0.6-0.2-1c0-0.4,0.1-0.7,0.2-1c0.1-0.3,0.3-0.6,0.5-0.8c0.2-0.2,0.5-0.4,0.8-0.5
			c0.3-0.1,0.7-0.2,1-0.2c0.5,0,0.9,0.1,1.3,0.3c0.4,0.2,0.7,0.5,1,0.9l-0.8,0.7c-0.1-0.3-0.3-0.5-0.6-0.6c-0.2-0.2-0.5-0.2-0.9-0.2
			c-0.2,0-0.3,0-0.5,0.1c-0.2,0.1-0.3,0.2-0.4,0.3c-0.1,0.1-0.2,0.3-0.3,0.5c-0.1,0.2-0.1,0.4-0.1,0.6c0,0.2,0,0.4,0.1,0.6
			c0.1,0.2,0.2,0.3,0.3,0.5c0.1,0.1,0.3,0.2,0.4,0.3C1893.2,5.5,1893.4,5.6,1893.6,5.6z"/>
		<path class="st9" d="M1898.1,6.5l1.6-4.8h1.6l1.6,4.8h-1.2l-0.5-1.3l-1.5,0.4l-0.3,0.9H1898.1z M1900,4.4l0.8-0.2l-0.4-1.1
			L1900,4.4z"/>
		<path class="st9" d="M1903.4,1.7h2.3c0.3,0,0.6,0.1,0.9,0.2c0.3,0.1,0.5,0.3,0.7,0.5c0.2,0.2,0.3,0.5,0.4,0.7
			c0.1,0.3,0.1,0.6,0.1,0.9c0,0.3-0.1,0.7-0.2,1c-0.1,0.3-0.2,0.5-0.4,0.8c-0.2,0.2-0.4,0.4-0.7,0.5c-0.3,0.1-0.6,0.2-1,0.2h-2V1.7z
			 M1904.6,5.4h0.7c0.2,0,0.4,0,0.5-0.1c0.1-0.1,0.3-0.2,0.4-0.3c0.1-0.1,0.2-0.3,0.2-0.4c0-0.2,0.1-0.3,0.1-0.5
			c0-0.2,0-0.4-0.1-0.5c-0.1-0.2-0.1-0.3-0.2-0.4c-0.1-0.1-0.2-0.2-0.4-0.3c-0.2-0.1-0.3-0.1-0.5-0.1h-0.6V5.4z"/>
		<path class="st9" d="M1910.6,6.6c-0.3,0-0.6,0-0.8-0.1c-0.3-0.1-0.5-0.2-0.7-0.4c-0.2-0.2-0.3-0.4-0.5-0.6
			c-0.1-0.2-0.2-0.5-0.2-0.8V1.7h1.2v2.9c0,0.1,0,0.2,0.1,0.4c0,0.1,0.1,0.2,0.2,0.3c0.1,0.1,0.2,0.2,0.3,0.2c0.1,0,0.2,0.1,0.4,0.1
			c0.1,0,0.3,0,0.4-0.1c0.1-0.1,0.2-0.1,0.3-0.2c0.1-0.1,0.1-0.2,0.2-0.3c0-0.1,0.1-0.2,0.1-0.4V1.7h1.2v2.9c0,0.3-0.1,0.6-0.2,0.8
			c-0.1,0.2-0.3,0.4-0.5,0.6c-0.2,0.2-0.4,0.3-0.7,0.4C1911.1,6.5,1910.9,6.6,1910.6,6.6z"/>
		<path class="st9" d="M1913.6,1.7h1.2v3.7h2.3v1h-3.5V1.7z"/>
		<path class="st9" d="M1919.9,2.7v3.7h-1.2V2.7h-1.5v-1h4.3v1H1919.9z"/>
		<path class="st9" d="M1922.4,4.9c0.2,0.2,0.5,0.3,0.7,0.4c0.3,0.1,0.6,0.2,0.9,0.2c0.2,0,0.3,0,0.4-0.1c0.1-0.1,0.1-0.1,0.1-0.2
			c0-0.1-0.1-0.2-0.2-0.3s-0.3-0.2-0.5-0.2c-0.2-0.1-0.4-0.1-0.7-0.2c-0.2-0.1-0.4-0.2-0.6-0.3s-0.3-0.3-0.4-0.4
			c-0.1-0.2-0.2-0.4-0.2-0.7c0-0.2,0-0.5,0.1-0.6c0.1-0.2,0.2-0.3,0.4-0.4c0.2-0.1,0.4-0.2,0.6-0.3c0.2-0.1,0.5-0.1,0.7-0.1
			c0.2,0,0.3,0,0.5,0c0.2,0,0.3,0.1,0.5,0.1c0.2,0,0.3,0.1,0.5,0.2c0.2,0.1,0.3,0.2,0.5,0.3l-0.5,1c-0.2-0.1-0.4-0.3-0.6-0.3
			c-0.2-0.1-0.5-0.1-0.7-0.1c-0.1,0-0.2,0-0.2,0c-0.1,0-0.1,0-0.2,0.1c-0.1,0-0.1,0.1-0.1,0.1c0,0,0,0.1,0,0.2c0,0.1,0,0.1,0,0.2
			c0,0,0.1,0.1,0.1,0.1c0.1,0,0.1,0.1,0.2,0.1c0.1,0,0.2,0.1,0.4,0.1c0.3,0.1,0.5,0.1,0.7,0.2c0.2,0.1,0.4,0.2,0.6,0.3
			c0.2,0.1,0.3,0.3,0.4,0.4c0.1,0.2,0.1,0.4,0.1,0.7c0,0.2,0,0.5-0.1,0.6c-0.1,0.2-0.2,0.3-0.4,0.5c-0.2,0.1-0.4,0.2-0.6,0.3
			c-0.2,0.1-0.5,0.1-0.8,0.1c-0.4,0-0.8-0.1-1.1-0.2c-0.3-0.1-0.7-0.3-1-0.5L1922.4,4.9z"/>
		<path class="st9" d="M1870.7,12.1c0-0.4,0.1-0.7,0.2-1c0.1-0.3,0.3-0.6,0.5-0.8c0.2-0.2,0.5-0.4,0.8-0.5c0.3-0.1,0.7-0.2,1-0.2
			c0.5,0,0.9,0.1,1.3,0.3c0.4,0.2,0.7,0.5,1,0.9l-0.8,0.7c-0.1-0.3-0.3-0.5-0.6-0.6c-0.2-0.2-0.5-0.2-0.8-0.2c-0.2,0-0.4,0-0.6,0.1
			c-0.2,0.1-0.3,0.2-0.4,0.3s-0.2,0.3-0.3,0.5c-0.1,0.2-0.1,0.4-0.1,0.6c0,0.2,0,0.4,0.1,0.6c0.1,0.2,0.2,0.3,0.3,0.5
			c0.1,0.1,0.3,0.2,0.4,0.3c0.2,0.1,0.4,0.1,0.6,0.1c0.2,0,0.3,0,0.5-0.1c0.1,0,0.3-0.1,0.4-0.2c0.1-0.1,0.2-0.2,0.3-0.3
			c0.1-0.1,0.2-0.2,0.3-0.4l0.8,0.7c-0.3,0.4-0.6,0.7-0.9,0.9c-0.4,0.2-0.8,0.3-1.3,0.3c-0.4,0-0.7-0.1-1-0.2
			c-0.3-0.1-0.6-0.3-0.8-0.5s-0.4-0.5-0.5-0.8C1870.7,12.8,1870.7,12.5,1870.7,12.1z"/>
		<path class="st9" d="M1879.1,14.5v-2.2l-1.8,0.5v1.7h-1.2V9.7h1.2v2l1.8-0.5V9.7h1.2v4.8H1879.1z"/>
		<path class="st9" d="M1883.3,14.6c-0.3,0-0.6,0-0.8-0.1c-0.3-0.1-0.5-0.2-0.7-0.4c-0.2-0.2-0.3-0.4-0.5-0.6
			c-0.1-0.2-0.2-0.5-0.2-0.8V9.7h1.2v2.9c0,0.1,0,0.2,0.1,0.4c0,0.1,0.1,0.2,0.2,0.3c0.1,0.1,0.2,0.2,0.3,0.2c0.1,0,0.2,0.1,0.4,0.1
			c0.1,0,0.3,0,0.4-0.1c0.1-0.1,0.2-0.1,0.3-0.2c0.1-0.1,0.1-0.2,0.2-0.3c0-0.1,0.1-0.2,0.1-0.4V9.7h1.2v2.9c0,0.3-0.1,0.6-0.2,0.8
			c-0.1,0.2-0.3,0.4-0.5,0.6c-0.2,0.2-0.4,0.3-0.7,0.4C1883.9,14.5,1883.6,14.6,1883.3,14.6z"/>
		<path class="st9" d="M1886.3,9.7h2.7c0.2,0,0.4,0,0.6,0.1c0.2,0.1,0.3,0.1,0.5,0.3c0.1,0.1,0.2,0.3,0.3,0.4
			c0.1,0.2,0.1,0.4,0.1,0.6c0,0.3-0.1,0.6-0.2,0.8c-0.1,0.2-0.3,0.4-0.5,0.5l0.9,2.1h-1.3l-0.7-1.7l-1.1,0.2v1.5h-1.2V9.7z
			 M1889.2,11.2c0-0.1,0-0.2-0.1-0.3c-0.1-0.1-0.2-0.1-0.3-0.1h-1.3v1.2l1.1-0.2c0.2,0,0.3-0.1,0.4-0.2
			C1889.1,11.4,1889.2,11.3,1889.2,11.2z"/>
		<path class="st9" d="M1891.1,12.1c0-0.4,0.1-0.7,0.2-1c0.1-0.3,0.3-0.6,0.5-0.8c0.2-0.2,0.5-0.4,0.8-0.5c0.3-0.1,0.7-0.2,1-0.2
			c0.5,0,0.9,0.1,1.3,0.3c0.4,0.2,0.7,0.5,1,0.9l-0.8,0.7c-0.1-0.3-0.3-0.5-0.6-0.6c-0.2-0.2-0.5-0.2-0.8-0.2c-0.2,0-0.4,0-0.6,0.1
			c-0.2,0.1-0.3,0.2-0.4,0.3s-0.2,0.3-0.3,0.5c-0.1,0.2-0.1,0.4-0.1,0.6c0,0.2,0,0.4,0.1,0.6c0.1,0.2,0.2,0.3,0.3,0.5
			c0.1,0.1,0.3,0.2,0.4,0.3c0.2,0.1,0.4,0.1,0.6,0.1c0.2,0,0.3,0,0.5-0.1c0.1,0,0.3-0.1,0.4-0.2c0.1-0.1,0.2-0.2,0.3-0.3
			c0.1-0.1,0.2-0.2,0.3-0.4l0.8,0.7c-0.3,0.4-0.6,0.7-0.9,0.9c-0.4,0.2-0.8,0.3-1.3,0.3c-0.4,0-0.7-0.1-1-0.2
			c-0.3-0.1-0.6-0.3-0.8-0.5c-0.2-0.2-0.4-0.5-0.5-0.8C1891.1,12.8,1891.1,12.5,1891.1,12.1z"/>
		<path class="st9" d="M1899.5,14.5v-2.2l-1.8,0.5v1.7h-1.2V9.7h1.2v2l1.8-0.5V9.7h1.2v4.8H1899.5z"/>
	</g>
	<rect x="1859.2" y="-27.6" class="st24" width="118" height="167"/>
</g>
</svg>
