<?xml version="1.0" encoding="utf-8"?>
<!-- Generator: Adobe Illustrator 27.2.0, SVG Export Plug-In . SVG Version: 6.00 Build 0)  -->
<svg version="1.1" id="Layer_1" xmlns="http://www.w3.org/2000/svg" xmlns:xlink="http://www.w3.org/1999/xlink" x="0px" y="0px"
	 viewBox="0 0 1000 1000" style="enable-background:new 0 0 1000 1000;" xml:space="preserve">
<style type="text/css">
	.st0{fill:#FFFFFF;}
</style>
<g id="XMLID_173_">
	<path id="XMLID_186_" class="st0" d="M716.2,672.7c-17.2,0-31.3,14-31.3,31.3l0,106.8h62.6V704
		C747.6,686.7,733.5,672.7,716.2,672.7z"/>
	<path id="XMLID_190_" class="st0" d="M544.2,672.7c-17.3,0-31.3,14-31.3,31.3l0,106.8h62.7l0-106.8
		C575.5,686.7,561.4,672.7,544.2,672.7z"/>
	<path id="XMLID_196_" class="st0" d="M953.8,892.9H877V618.7H426.6v274.2h-28.5V424H123.9v468.9H47.1c-7.9,0-14.3,6.4-14.3,14.3
		c0,7.9,6.4,14.3,14.3,14.3h906.7c7.9,0,14.3-6.4,14.3-14.3C968.1,899.2,961.7,892.9,953.8,892.9z M323.3,892.9l0-183
		c0-34.4-28-62.3-62.3-62.3s-62.3,27.9-62.3,62.3l0,183h-28.5v-183c0-50.1,40.8-90.8,90.9-90.8c50.1,0,90.8,40.7,90.8,90.8l0,183
		H323.3z M599.8,835.2c-2.7,2.7-6.3,4.2-10.1,4.2h-91.2c-7.9,0-14.3-6.4-14.3-14.3V704c0-33,26.9-59.8,59.9-59.8
		c33,0,59.8,26.8,59.8,59.8l0,121.1C604,828.9,602.5,832.5,599.8,835.2z M776.1,825.1c0,7.9-6.4,14.3-14.3,14.3h-91.2
		c-7.9,0-14.3-6.4-14.3-14.3V704c0-33,26.9-59.8,59.8-59.8c33,0,59.9,26.8,59.9,59.8V825.1z"/>
	<path id="XMLID_201_" class="st0" d="M140.9,395.5H381L275.2,273.9v-88H341c7.9,0,14.3-6.4,14.3-14.3c0-7.9-6.4-14.3-14.3-14.3
		h-65.8V92.6c0-7.9-6.4-14.3-14.3-14.3c-7.9,0-14.3,6.4-14.3,14.3v64.8H181c-7.9,0-14.3,6.4-14.3,14.3c0,7.9,6.4,14.3,14.3,14.3
		h65.8v88L140.9,395.5z"/>
	<polygon id="XMLID_202_" class="st0" points="743,476.3 426.6,476.3 426.6,590.2 856.8,590.2 	"/>
</g>
</svg>
