<?xml version="1.0" encoding="utf-8"?>
<!-- Generator: Adobe Illustrator 27.2.0, SVG Export Plug-In . SVG Version: 6.00 Build 0)  -->
<svg version="1.1" id="Layer_1" xmlns="http://www.w3.org/2000/svg" xmlns:xlink="http://www.w3.org/1999/xlink" x="0px" y="0px"
	 viewBox="0 0 1000 1000" style="enable-background:new 0 0 1000 1000;" xml:space="preserve">
<style type="text/css">
	.st0{filter:url(#Adobe_OpacityMaskFilter);}
	.st1{fill:url(#SVGID_00000055700296192980299230000014345144501582493587_);}
	.st2{mask:url(#SVGID_1_);}
	.st3{fill:#333333;}
</style>
<defs>
	<filter id="Adobe_OpacityMaskFilter" filterUnits="userSpaceOnUse" x="56.6" y="355.8" width="886.9" height="288.5">
		<feColorMatrix  type="matrix" values="1 0 0 0 0  0 1 0 0 0  0 0 1 0 0  0 0 0 1 0"/>
	</filter>
</defs>
<mask maskUnits="userSpaceOnUse" x="56.6" y="355.8" width="886.9" height="288.5" id="SVGID_1_">
	<g class="st0">
		
			<linearGradient id="SVGID_00000081643919462404906520000014975720224856450207_" gradientUnits="userSpaceOnUse" x1="29.7336" y1="482.4818" x2="1016.4706" y2="482.4818">
			<stop  offset="0" style="stop-color:#FFFFFF"/>
			<stop  offset="0.9098" style="stop-color:#000000;stop-opacity:0"/>
		</linearGradient>
		
			<rect x="-29.4" y="119.3" style="fill:url(#SVGID_00000081643919462404906520000014975720224856450207_);" width="1055" height="726.4"/>
	</g>
</mask>
<g class="st2">
	<g>
		<polygon class="st3" points="519.9,500 450,572.1 380.2,644.2 380.2,592.6 469,500 380.2,407.4 380.2,355.8 450,427.9 		"/>
		<polygon class="st3" points="412,500 342.2,572.1 272.3,644.2 272.3,592.6 361.1,500 272.3,407.4 272.3,355.8 342.2,427.9 		"/>
		<polygon class="st3" points="304.1,500 234.3,572.1 164.4,644.2 164.4,592.6 253.3,500 164.4,407.4 164.4,355.8 234.3,427.9 		"/>
		<polygon class="st3" points="196.3,500 126.4,572.1 56.6,644.2 56.6,592.6 145.4,500 56.6,407.4 56.6,355.8 126.4,427.9 		"/>
	</g>
	<g>
		<polygon class="st3" points="943.4,500 873.6,572.1 803.7,644.2 803.7,592.6 892.6,500 803.7,407.4 803.7,355.8 873.6,427.9 		"/>
		<polygon class="st3" points="835.6,500 765.7,572.1 695.9,644.2 695.9,592.6 784.7,500 695.9,407.4 695.9,355.8 765.7,427.9 		"/>
		<polygon class="st3" points="727.7,500 657.8,572.1 588,644.2 588,592.6 676.8,500 588,407.4 588,355.8 657.8,427.9 		"/>
		<polygon class="st3" points="619.8,500 550,572.1 480.1,644.2 480.1,592.6 568.9,500 480.1,407.4 480.1,355.8 550,427.9 		"/>
	</g>
</g>
</svg>
