<?xml version="1.0" encoding="utf-8"?>
<!-- Generator: Adobe Illustrator 27.2.0, SVG Export Plug-In . SVG Version: 6.00 Build 0)  -->
<svg version="1.1" id="Layer_1" xmlns="http://www.w3.org/2000/svg" xmlns:xlink="http://www.w3.org/1999/xlink" x="0px" y="0px"
	 viewBox="0 0 1000 1000" style="enable-background:new 0 0 1000 1000;" xml:space="preserve">
<style type="text/css">
	.st0{fill:#FFFFFF;}
</style>
<g>
	<g>
		<path class="st0" d="M269.7,367.1c54.9-31.6,127.4-21.4,182.7,1.8c20.9,8.7,30-25.3,9.4-34c-64.1-26.8-147.1-34.4-209.8,1.8
			C232.3,348,250,378.5,269.7,367.1z"/>
		<path class="st0" d="M451.4,407.1c-56.2-18.9-123.9-24-179.2,1.8c-20.5,9.6-2.7,39.9,17.8,30.4c40.6-18.9,105.2-14,152.1,1.8
			C463.6,448.3,472.8,414.3,451.4,407.1z"/>
		<path class="st0" d="M444.1,484.3c-48.9-15.2-105.7-19-153.8,1.8c-20.8,8.9-2.8,39.3,17.8,30.4c-7.9,3.4,5.9-1.8,8.1-2.5
			c8.4-2.5,16.9-4.3,25.6-5.4c31.6-4.2,62.8,0.2,93,9.6C456.4,525,465.7,491,444.1,484.3z"/>
		<path class="st0" d="M439,559.7c-41.8-11.5-91.1-15.8-132.6,0c-21,8-11.9,42.1,9.4,34c36-13.7,77.7-10,113.9,0
			C451.6,599.8,460.9,565.8,439,559.7z"/>
		<path class="st0" d="M884.2,366.8c-8.6-17-28.4-30.5-47.4-36.2c1.7-13.7,3.4-27.4,5.1-41.2c0.7-6-3.9-12.3-8.7-15.2
			c-98-58.5-226.1-54.1-326.1-4.4c-100-49.6-228.1-54.1-326.1,4.4c-4.8,2.9-9.5,9.2-8.7,15.2c1.7,13.7,3.4,27.5,5.1,41.2
			c-23.8,7.1-50.8,26.9-49.3,51.6c1.6,26.4,5.9,53,8.8,79.3c9.3,83.7,18.7,167.4,28,251.1c2.4,21.9,4.9,43.8,7.3,65.7
			c1.7,14.9,18.1,23.5,30.1,12.5c77.5-71.7,196-100.3,298.4-70.7c1.6,0.7,3.3,1,5.1,1.1c0.4,0,0.8,0,1.2,0c0.4,0,0.9,0,1.3,0
			c1.8-0.1,3.5-0.4,5.1-1.1c102.4-29.6,220.9-1,298.4,70.7c12,11.1,28.4,2.5,30.1-12.5c14.5-129.9,29-259.7,43.4-389.6
			C886.2,381,888,374.3,884.2,366.8z M203.7,744.2c-6.9-61.5-13.7-123-20.6-184.4c-5.2-46.5-10.4-92.9-15.5-139.4
			c-1.4-12.2-1.1-26.2-4.2-38.1c0-0.1,0-0.3-0.1-0.7c1.4-1.6,2.8-3.2,4.3-4.6c4.1-4,8.8-8.4,14.2-11.1
			C195.3,474.6,209,583.3,222.6,692c1.9,15.1,17.8,23.3,30.1,12.5c41.9-37.1,98.9-41.6,153-30.8
			C333.3,676.2,261.3,701.1,203.7,744.2z M489.3,663.9c-73.6-32.4-165.1-45.4-235.4-3.4c-15.1-120.5-30.3-240.9-45.2-361.4
			c85.7-46,194.9-41,280.6,1.1C489.3,421.5,489.3,542.7,489.3,663.9z M524.9,663.9c0-121.2,0-242.4,0-363.7
			c85.6-42.1,194.9-47.2,280.6-1.1c-14.8,120.5-30,240.9-45.2,361.4C690,618.5,598.5,631.5,524.9,663.9z M850.9,382.3
			c-3.2,11.9-2.9,25.9-4.3,38.1c-5.2,46.5-10.4,92.9-15.5,139.4c-6.9,61.5-13.7,123-20.6,184.4c-57.6-43.1-129.5-68-202-70.6
			c54.1-10.8,111.1-6.3,153,30.8c12.3,10.9,28.2,2.6,30.1-12.5c13.6-108.7,27.3-217.4,40.8-326.1c5.4,2.7,10.1,7.2,14.2,11.1
			c1.5,1.5,2.9,3.1,4.3,4.6C850.9,382,850.9,382.3,850.9,382.3z"/>
		<path class="st0" d="M561.9,368.9c55.3-23.2,127.8-33.4,182.6-1.8c19.7,11.3,37.4-19.1,17.8-30.4c-62.7-36.2-145.7-28.6-209.8-1.8
			C532,343.5,541,377.6,561.9,368.9z"/>
		<path class="st0" d="M572.2,441c46.9-15.8,111.4-20.7,152.1-1.8c20.4,9.5,38.3-20.8,17.8-30.4c-55.3-25.8-123-20.7-179.2-1.8
			C541.5,414.3,550.6,448.3,572.2,441z"/>
		<path class="st0" d="M579.5,518.2c30.2-9.4,61.5-13.8,93-9.6c8.6,1.2,17.2,2.9,25.6,5.4c2.6,0.8,15.2,5.5,8.1,2.5
			c20.6,8.9,38.6-21.5,17.8-30.4c-48.1-20.7-104.9-16.9-153.8-1.8C548.6,491,557.8,525,579.5,518.2z"/>
		<path class="st0" d="M707.8,559.7c-41.5-15.8-90.9-11.5-132.6,0c-21.8,6-12.6,40,9.4,34c36.2-10,77.9-13.7,113.9,0
			C719.7,601.8,728.8,567.7,707.8,559.7z"/>
	</g>
</g>
</svg>
