<?xml version="1.0" encoding="utf-8"?>
<!-- Generator: Adobe Illustrator 28.2.0, SVG Export Plug-In . SVG Version: 6.00 Build 0)  -->
<svg version="1.1" id="_x32_4._로고_x28_흰색_x29__xA0_Image_00000085227118819397193890000002852346102417983626_"
	 xmlns="http://www.w3.org/2000/svg" xmlns:xlink="http://www.w3.org/1999/xlink" x="0px" y="0px" viewBox="0 0 360 96"
	 style="enable-background:new 0 0 360 96;" xml:space="preserve">
<style type="text/css">
	.st0{fill:#FFFFFF;}
	.st1{fill:#0072BC;}
	.st2{fill:#0095DA;}
	.st3{fill:#44C8F5;}
	.st4{fill:#BFD730;}
	.st5{fill:#72BF44;}
	.st6{fill:#00AB4E;}
	.st7{fill-rule:evenodd;clip-rule:evenodd;fill:#FFFFFF;}
</style>
<g>
	<g>
		<path class="st0" d="M18.6,2c0,0-3.6,13.2-7.5,26.4c-3.9,13-3,18.6-1.7,22.9c1.3,4.2,5.2,12.8,13.1,7.6c7.9-5.2,5.3-21,4.5-27.4
			c-1.5-11.7-8.5-28.8-8.5-28.8C18.5,2.4,18.6,2,18.6,2z"/>
		<path class="st0" d="M37.6,24.4c0,0-4.1-9.2-4.3-10.6c0,0-3.5,10.2-4.9,15.7C27,34.9,19.9,54.3,29.9,60c8.5,4.9,12.9-4.8,13.5-8.4
			C44.2,47.2,44.8,40,37.6,24.4z"/>
		<path class="st0" d="M48.7,28.1c0,0,4,10.4,4.4,11.6c0.4,1.3,3.8,11.1,0.1,19.6c-2.7,6.2-8.1,2.4-9.2,0c-1.9-4-1.8-6.7-0.4-12.7
			c1.7-7,5-17.4,5-19"/>
		<g>
			<path class="st1" d="M7.4,72.9v4.3c0,0,6.4-1.4,8.7-0.4c2.3,1,7.1,1.7,9.5,1.3c2.4-0.4,3.2-1.4,5.3-1.7c2-0.3,3.4-0.8,4.8-0.3
				c1.4,0.5,1.8,1.5,3.4,1c1.5-0.5,1.4-1.9,4.4-1c2.9,0.9,7,1,9.5,0.9c2.5-0.1,10.6-0.5,10.6-0.5v-4.4c0,0-15.6,0.2-16.8-0.2
				c-1.1-0.4-3.6-1.1-6.1,0c-2.5,1.1-2.9-1.1-5.4-0.7c-2.4,0.4-6.3,2.1-9.3,2.3c-3,0.2-7.3-1.1-10.2-1.5C13,71.6,7.4,72.9,7.4,72.9z
				"/>
			<path class="st2" d="M7.2,80.7v4.7c0,0,3.8-1.2,5.7-0.4c1.9,0.8,4.6,0.3,6.5-0.1c1.9-0.4,6.7-2.2,9.4-1.8
				c2.7,0.4,5.4,1.7,7.4,1.7c2,0,10.4-0.5,13.5-0.8c3.1-0.3,13.3-1.6,13.8-0.8v-4.9c0,0-7.4,0.2-10.6,0.6
				c-3.2,0.4-12.5,1.6-16.3,0.9c-3.8-0.7-6-1.7-9-1.3c-3,0.4-8.6,2-11,2c-2.3,0-4.1-0.5-5.1-0.6C10.6,79.8,7.2,80.7,7.2,80.7z"/>
			<path class="st3" d="M7.3,86.6v4.7c0,0,6.9,0.2,9.9,0.4c2.9,0.2,9.9,0.7,13.3,1.3c3.5,0.6,12.7,0.4,15.8,0.5
				c3.1,0.1,15.2-0.1,17.4-1v-4.8c0,0-8.7,1.2-20.8,0.9c0,0-11.7-0.2-22.1-1.5L7.3,86.6z"/>
		</g>
		<path class="st4" d="M50,28.6c0,0,4,10.4,4.4,11.6c0.4,1.3,3.8,11.1,0.1,19.6c-2.7,6.2-8.1,2.4-9.2,0c-1.9-4-1.8-6.7-0.4-12.7
			c1.7-7,5-17.4,5-19"/>
		<path d="M48.7,26.7c0,0-3.2,11.9-4.2,14.8c-0.9,2.7-6.1,15.9,1.6,21.1c6.9,4.6,9.2-7.6,9.4-10.4c0.2-3.5-0.9-13.6-6.8-24.1
			c0,0,3.9,10.4,4.2,11.6c0.3,1.3,3.7,11.1,0.1,19.6c-2.6,6.2-7.7,2.4-8.8,0c-1.8-4-1.7-6.7-0.3-12.7C45.4,39.6,48.8,28.4,48.7,26.7
			z"/>
		<path class="st5" d="M39.1,25.6c0,0-4.1-9.2-4.3-10.6c0,0-3.5,10.2-4.9,15.7c-1.4,5.4-8.4,24.8,1.5,30.5
			c8.5,4.9,12.9-4.8,13.5-8.4C45.7,48.4,46.2,41.2,39.1,25.6z"/>
		<path d="M37.8,24.2c0,0-4.3-9.5-4.6-11c0,0-3.6,10.7-5,16.4c-1.4,5.7-8.6,25.9,1.8,31.7c8.9,5,13.4-5.1,14-8.8
			C44.8,47.8,45.3,40.4,37.8,24.2z M40.1,59.3c-2.3,2.5-5.1,3.7-10,1c-4.3-2.3-5.4-10.9-4.8-14.5c2-13.1,8-32,8-32
			c0.7,2.2,1.4,4.5,3.4,9.4c2.2,5.4,5.5,12.5,6.6,21C44.3,51.7,42.4,56.8,40.1,59.3z"/>
		<path d="M34.2,62.8c0,0,1.6-0.7,0.1,6.6C34.4,69.4,33.7,64.3,34.2,62.8z"/>
		<path d="M48.9,64c0,0-1.4-0.5,0,5.3C48.9,69.3,49.8,64.6,48.9,64z"/>
		<path class="st6" d="M20.5,3c0,0-3.6,13.2-7.5,26.4c-3.9,13-3,18.6-1.7,22.9c1.3,4.2,5.2,12.8,13.1,7.6c7.9-5.2,5.3-21,4.5-27.4
			c-1.5-11.7-8.5-28.8-8.5-28.8S20.3,3.4,20.5,3z"/>
		<path d="M18.6,2c0,0-4.9,15.6-9.2,29.1C5.3,44.1,8.2,61.6,18.8,61c10.6-0.6,10.7-15,10.4-20.9C28.9,34.2,25.1,14,18.6,2.7
			c0,0,7,17.1,8.5,28.8c0.8,6.4,3.4,22.2-4.5,27.4c-7.9,5.2-11.9-3.4-13.1-7.6c-1.3-4.2-2.2-9.8,1.7-22.9C15.1,15.2,18.6,2,18.6,2z"
			/>
		<path d="M18.7,61.4c0,0-2.1-0.9,0,8.9C18.7,70.4,19.4,63.4,18.7,61.4z"/>
	</g>
	<g>
		<g>
			<path class="st7" d="M169,32.7c1,0.1,2.1,0,3.1,0.4c0,0,0,0,0,0c0,0-0.1,0-0.1,0c-0.8-0.2-3.9-0.2-4.2-0.4c0,0,0,0,0,0
				c0,0,0.1,0,0.1,0C168.3,32.8,168.6,32.7,169,32.7z"/>
			<path class="st7" d="M167.4,32.8c0.1,0,0.1,0,0.1,0.1c0,0,0,0.1,0,0.1c-1,0.2-2.1,0.4-3.1,0.5c-0.5,0.1-1.1,0.4-1.8,0.4
				c0,0,0.1-0.1,0.1-0.1C163.5,33.6,167.1,33,167.4,32.8z"/>
			<g>
				<path class="st7" d="M148.6,25.2c0.8,0.1,0.3,1.3,0.8,1.7c0.6,0.5,1.7,0.1,2.1,0.8c0.4,0.6,0.4,1.7,0.4,2.6
					c-0.1,2.1,0.4,5.8-0.5,7.2c0,0.1,0.1,0.3,0.1,0.4c0,0.4-0.1,0.6-0.3,0.8c-0.1,0.2,0.2,0.7,0,1.1c-0.1,0-0.1,0.1-0.2,0.1
					c0.1,0.2,0.2,0.1,0.3,0.4c-0.1,0.1-0.1,0-0.1,0.1c0,0.1,0,0.1,0,0.2c0.7-0.5,1.1-1.2,1.8-1.8c1.2-1.2,2.9-1.8,4.3-2.9
					c0,0,0.1,0,0.1,0.1c-0.1,0.2-0.1,0.4-0.2,0.5c0.1,0,0.1,0,0.1,0.1c0.6,0.2,1.5-0.7,1.8-1.1c1.2,0.2,3-0.7,4-1.1
					c0.2,0,0.4,0,0.6,0c2.2-0.5,5.9-1.7,8.3-1c0-0.1,0-0.2,0-0.3c0.7,0.1,1,0.4,1.5,0.6c0.4,0,0.9,0,1.3,0c0.4,0.2,0.7,0.4,1.3,0.6
					c0,0.1,0.1,0.1,0.1,0.2c-0.4,0.5-0.5,1-1.2,1.2c-0.6,0.1-1.4-0.5-1.6-0.6c-0.8-0.4-5.2,0.1-6.4,0.4c-0.7,0.3-1.4,0.5-2.1,0.8
					c-3.5,1.4-6.9,2.2-9,4.9c0.1,0,0.1,0.1,0.2,0.1c0,0.1-0.1,0.1-0.1,0.2c-0.7-0.2-2.1,2.2-2.5,3c-1,1.7-2,3.6-2.5,5.5
					c-0.2,0.5,0.1,1.5,0.1,1.8c-0.2,1.2-0.3,2.7,0.2,3.7c-0.2,0.3-0.3,0.5-0.5,0.7c-0.6-0.1-1-0.6-1.5-0.7c-0.5-0.1-0.8,0.2-1.3-0.1
					c-0.1-0.2-0.2-0.4-0.2-0.7c-0.2,0-0.4,0.1-0.6,0c-0.2-0.2-0.2-0.4-0.3-0.6c-0.1,0-0.1,0.1-0.2,0.1c0,0.1,0,0.3,0,0.4
					c0,0-0.1,0-0.1,0c-0.6-0.3-0.6-1.6-0.6-2.5c0-0.8,0.3-1.6,0.5-2.3c0-1.1,0.1-2.2,0.1-3.3c0.5-4.7,0.3-9.5,1-14
					c0.2-1.2-0.2-2.3-0.3-3.4c0.1-0.2,0.2-0.4,0.3-0.6c-0.1-0.3-0.2-0.6-0.3-0.9c0-0.4,0.7-0.4,0.8-0.8
					C148.6,26.2,147.8,25.9,148.6,25.2z"/>
				<path class="st7" d="M141.6,33c0.1,0,0.1,0,0.2,0c0,0.1-0.1,0.1-0.1,0.2c-0.3,0-1.6,0.5-1.8,0.1c0,0,0.1,0,0.1,0
					C140.6,33.2,141.1,33.1,141.6,33z"/>
				<path class="st7" d="M162.4,33.9c0.1,0,0.1,0,0.2,0c-0.1,0.3-3.3,1.4-3.7,1.5C159.1,34.9,161.8,34.2,162.4,33.9z"/>
				<path class="st7" d="M141.7,33.4c0.3,0,0.4,0,0.5,0.2c0.2,0.5,0.2,1,0.4,1.4c1,0.2,2.4,0.6,2.8,1.4c-0.4,1.2-1.4,1.3-2,2.3
					c-0.5,0.9-0.6,2-1,3c-0.3,0.4-0.6,0.8-0.8,1.2c0,0.2-0.1,0.5-0.1,0.7c-0.2,0.4-0.6,1-0.8,1.4c0,0.2,0,0.4,0,0.6
					c-0.1,0.4-0.7,0.9-0.8,1.3c0,0.3,0,0.5,0,0.8c-0.1,0.3-0.5,0.6-0.6,0.9c0,0.2,0.1,0.4,0.1,0.5c-0.2,0.7-0.3,1.8-0.6,2.3
					c-0.4-0.1-0.4-0.1-0.6,0.2c-0.2-0.1-0.2-0.1-0.4-0.1c-0.1,0.4-0.5,0.5-0.8,0.7c-0.7-0.3-1.7,0-2.4,0.1c-0.1-0.1-0.1-0.1-0.2-0.2
					c0.1-0.9-0.3-1.5,0-2.4c0.3-0.9,0.4-2.2,0.8-3.2c0.5-1.5,0.9-2.7,1.5-4.1c0.3-0.6,1.3-3.3,1-3.7c-1.1,0.3-2.1,0.6-3.2,1
					c-2.1,1-4.8,4.1-7.5,2.4c-0.2-0.9,0.7-2,1-2.7c0.1-0.5,0.1-1.1,0.2-1.6c0.4-0.8,1.8-1.6,2.8-1.9c0.4-0.1,0.7-0.1,1.1-0.2
					c0.5-0.4,0.8-0.8,1.5-0.7c0.1-0.3,0.1-0.3,0.3-0.5c0,0,0.1,0,0.1,0c0,0.1,0.1,0.2,0.1,0.3C136.6,34.4,139.2,33.9,141.7,33.4z"/>
				<path class="st7" d="M176.1,35.4c0.1,0.2,0.2,0.4,0.4,0.6c0,0,0,0.1-0.1,0.1c-0.2,0-0.3,0-0.4-0.1
					C176.1,35.9,176.1,35.7,176.1,35.4z"/>
				<path class="st7" d="M158.6,36c-0.5,0-0.7,0.4-1.2,0.6c0.2-0.4,0.6-0.5,0.9-0.7c-0.1,0-0.2,0-0.3-0.1c0.1-0.3,0.4-0.3,0.6-0.2
					c-0.1,0.1-0.1,0.1-0.2,0.2C158.6,35.8,158.6,35.7,158.6,36z"/>
				<path class="st7" d="M157.7,35.8c0.2,0.1,0.1,0,0.1,0.2c0,0,0,0-0.1,0c-0.1,0-0.1,0-0.1-0.1c0,0,0,0,0,0
					C157.6,35.9,157.7,35.8,157.7,35.8z"/>
				<path class="st7" d="M155.6,35.9c0.1,0.1,0.1,0,0.1,0.2c-0.1,0-0.2,0-0.2,0C155.5,36,155.6,36,155.6,35.9z"/>
				<path class="st7" d="M131.8,35.4c0.1,0.1,0.1,0,0.1,0.2c-0.1,0-0.1,0-0.2,0c0,0-0.1,0-0.1-0.1c0,0,0,0,0,0c0,0,0,0,0.1,0
					C131.7,35.5,131.7,35.4,131.8,35.4z"/>
				<path class="st7" d="M154,37.4c0,0,0.1,0,0.2,0c0,0.1,0,0.1,0,0.2c-0.1,0-0.1,0-0.2,0C154,37.5,154,37.4,154,37.4z"/>
				<path class="st7" d="M153.6,37.9C153.6,37.9,153.7,37.9,153.6,37.9C153.7,37.9,153.6,37.9,153.6,37.9z"/>
				<path class="st7" d="M152.9,38.5c0.1,0,0.1,0,0.1,0c0,0,0,0,0,0c-0.1,0.1-0.1,0.1-0.2,0.2C152.9,38.7,152.9,38.6,152.9,38.5z"/>
				<path class="st7" d="M152.6,38.9C152.7,38.9,152.7,38.9,152.6,38.9c0.1,0.1,0.1,0.2,0,0.3c0,0-0.1,0-0.1,0
					C152.6,39.1,152.6,39,152.6,38.9z"/>
			</g>
		</g>
		<g>
			<path class="st7" d="M335.2,19c0.1,0,0.1,0.1,0.1,0.1c0,0.1,0,0.1-0.1,0.2c0,0-0.1,0-0.1,0C335.2,19.2,335.2,19.1,335.2,19z"/>
			<path class="st7" d="M337.4,22.5c0,0,0.1,0.1,0.1,0.1c0,0,0,0,0,0C337.3,22.5,337.5,22.6,337.4,22.5z"/>
			<path class="st7" d="M328.9,31c0.1,0,0.2,0,0.3,0.1c0,0.1-0.1,0.2-0.1,0.2c-0.1,0-0.2,0-0.3,0c0-0.1,0-0.1,0-0.1
				C328.8,31.1,328.9,31.1,328.9,31z"/>
			<path class="st7" d="M340.7,34.4c0.3,0.2,0.5,0.7,0.5,1.1c0,0,0,0-0.1,0c0,0-0.1,0-0.1-0.1C341,35.1,340.8,34.8,340.7,34.4z"/>
			<path class="st7" d="M350.1,35.8c-0.9,1.3-2.6,2.4-3.3,3.9c-0.2,0.5,0.1,1.4,0,2c-0.1,2-0.1,4.1-0.2,6.1
				c-0.3,0.2-0.8,0.2-1.3,0.2c0,0,0,0.1-0.1,0.1c0,0,0,0.1,0,0.1c0.3,0,0.5,0,0.8,0c-0.1,0.1-0.1,0.2-0.2,0.3
				c-0.3,0.1-1,0.2-1.3,0.1c0.1,0.1,0.1,0.1,0.2,0.2c0.5,0.2,1.3,0,1.6-0.2c0-0.2,0-0.4-0.1-0.6c0.1,0,0.1,0,0.2,0
				c0.1,0.9,0,1.7-0.1,2.5c-0.3,0.2-1,0.2-1.5,0.2c-0.1-0.1-0.1-0.2-0.2-0.3c0.1-0.1,0.2-0.3,0.3-0.4c0,0,0,0,0-0.1
				c-1.1,0.2-2.3,0.3-3.5,0.6c-1,0.3-2,0.6-3.2,0.7c0,0,0,0,0,0c0,0-0.1-0.1-0.1-0.2c0.3-0.4,0.5-1,1.1-1.1c0-0.1,0-0.1,0-0.2
				c-0.6-0.1-1.5,0.4-2.3,0.5c0,0,0,0,0-0.1c0,0,0-0.1,0-0.1c0.6-0.5,1.5-0.4,2.4-0.7c0.1,0,0.1-0.1,0.2-0.1
				c-0.5-0.4-1.5,0.3-2.2,0.3c0.4-2,2.2-3.6,2.8-5.7c0,0,0-0.1,0-0.1c-0.1,0-0.2,0.1-0.4,0.1c-0.1-0.1-0.1-0.1-0.1-0.3
				c0.5-0.4,1.1-0.8,1.6-1.2c1.5-1.1,2.1-4,1.9-6.1c-0.4-0.4-1.3-0.4-1.7-0.7c-0.4-0.3-0.4-0.9-0.7-1.3c-0.3-0.2-0.6-0.5-0.9-0.7
				c0,0,0-0.1,0-0.2c0.3-0.3,0.7-0.5,1-0.8c0.1-0.3,0-0.5-0.1-0.8c-1-0.5-2.4-0.4-3.4-0.2c-0.1-0.1-0.3-0.1-0.4-0.2
				c0-0.1,0-0.2,0-0.3c0.7-0.6,1.8-0.3,2.3-1.3c0.2-0.4,0.4-1.1,0.4-1.7c-0.2-1.4-2-5.9-2.8-6.9c-0.3-0.1-0.6-0.3-0.9-0.4
				c-0.3-0.2-0.6-1.3-0.6-1.6c0-0.1-0.1-0.2-0.1-0.3c-0.1,0-0.2,0-0.3,0c-0.1,0.4-0.1,0.6,0.1,0.9c-0.1,0.1-0.8,1.2-0.9,1.2
				c-0.2,0.1-0.2,0-0.5,0c-0.2,0.3-0.2,0.8-0.2,1.2c-0.7,0.2-0.8,0.5-0.9,1.3c1.3,1.7,2.2,3.7,3.2,5.6c-0.2,0.2-0.6,0.2-0.9,0.3
				c0,0,0,0,0,0.1c0.3,0,0.6,0,0.9,0c0,0.1,0,0.1,0,0.2c0,0,0,0,0,0c-0.9,0.4-2.1,0.2-3,0.5c-0.9,0.2-1.9,0.4-2.8,0.6
				c-0.4,0.1-0.9,0.1-1.3,0.2c0,0-0.1,0.1-0.1,0.1c0,0.1,0,0.2-0.1,0.3c0,0,0,0,0,0.1c1.1-0.3,2.2-0.6,3.3-0.9
				c1.8-0.3,3.8-0.4,5.5-0.5c0,0,0,0,0,0c-0.4,0.5-0.8,0.9-1.2,1.4c-0.9,0.1-1.8,0.3-2.7,0.4c-1,0.2-2.2,0.4-3.1,0.6
				c-0.6,0-1.1,0-1.7,0c-0.4,0.1-0.7,0.4-1.4,0.4c-0.1,0.3,0,0.4,0.2,0.6c-0.1,0.5-0.3,0.5-0.5,0.8c0.1,0.1,0.1,0.2,0.2,0.3
				c1.8,0.5,3.7,0,5.3-0.3c0,0,0,0,0,0c0,0.1,0,0.2,0,0.3c-0.4,0.8-1.2,1.4-1.7,2.1c-0.6,0.7,0,1.6-0.3,2.2c-0.4,0.5-0.8,1-1.2,1.5
				c-0.2,0.5-0.5,2.5-0.3,2.9c0.7,1.1,1.7,1,3.2,1.5c0.8,0.2,1.9,0.4,2.8,0.3c-0.2,1.6-2,4.6-2.7,5.8c-0.6,0.9-1.3,1.6-1.5,2.8
				c0.4,0.1,2.2,0.6,2.6,0.6c2.2-0.1,4.1-0.8,6-1.3c0.9-0.2,1.7-0.4,2.6-0.5c0.9-0.2,3.4-1,4.1-0.7c0.6,0.4,0.1,5.5,0,6.2
				c1,1.3,4.2,1,4.6-0.5c0.1-0.2,0.3-1.6,0.3-1.8c-0.1-0.1-0.2-0.2-0.3-0.4c0.1-1.4,0.3-2.8,0.4-4.2c0.5-4.4,0.9-8.7,1.4-13
				c-0.1-0.7-0.9-1.1-1.2-1.9c0.6-0.5,0.9,0.5,1.6,0.3c0.1-0.1,0.1-0.1,0.2-0.2C352.6,36.5,350.8,35.8,350.1,35.8z M333.6,41.4
				c-0.3-0.5,1.8-3.2,2.1-3.8c0.2-0.1,0.5-0.1,0.8-0.2c2,0.6,3.1,0.5,2.2,2.8C338,40.7,335.1,41.6,333.6,41.4z"/>
			<path class="st7" d="M346,42.1c0.1,0,0.1,0,0.2,0.1c0,0,0,0.1,0,0.1c-0.1,0.3-0.1,0.2-0.3,0.3c-0.1-0.1-0.2-0.1-0.2-0.2
				c0-0.1,0-0.1,0-0.1C345.8,42.3,345.9,42.2,346,42.1z"/>
			<path class="st7" d="M344,48.5c0.1,0,0.1,0,0.2,0c0,0,0,0,0,0.1C344.1,48.5,344,48.5,344,48.5C344,48.5,344,48.5,344,48.5z"/>
			<path class="st7" d="M342.7,48.7c0.1,0,0.1,0.1,0.1,0.1c0,0,0,0,0,0.1c-0.1,0-0.1,0-0.2,0C342.7,48.8,342.7,48.7,342.7,48.7z"/>
			<path class="st7" d="M342.4,48.7c0.1,0,0.2,0,0.2,0.1c0,0,0,0.1-0.1,0.1c-0.6,0-0.9,0.3-1.5,0.3c0,0,0-0.1,0-0.1
				C341.5,49,342,48.9,342.4,48.7z"/>
			<path class="st7" d="M344.2,48.9c0.2,0,0.2,0,0.2,0.1c0,0,0,0,0,0c-0.1,0-0.2,0-0.2,0C344.2,49,344.2,48.9,344.2,48.9z"/>
			<path class="st7" d="M343.9,48.9c0.1,0,0.2,0,0.3,0.1c0,0.1,0,0.1-0.1,0.1c-0.1,0-0.3,0.1-0.4,0.1c0,0,0.1-0.1,0.1-0.1
				C343.8,49,343.8,49,343.9,48.9z"/>
			<path class="st7" d="M340.7,49.1c0.1,0,0.1,0.1,0.2,0.1c0,0,0,0.1-0.1,0.1c-0.3,0.1-1,0.4-1.3,0.2c0.1-0.1,0.1-0.1,0.2-0.2
				C340.1,49.2,340.4,49.2,340.7,49.1z"/>
			<path class="st7" d="M343,49.3c0,0,0.1,0,0.1,0c0,0,0,0.1,0,0.1c-0.1,0-0.1,0-0.2,0C342.9,49.4,343,49.3,343,49.3z"/>
			<path class="st7" d="M342.5,49.4c0.1,0,0.1,0.1,0.2,0.1c0,0,0,0,0,0c-0.5,0.1-1,0.4-1.5,0.2c0,0,0,0,0-0.1
				C341.6,49.6,342.1,49.5,342.5,49.4z"/>
		</g>
		<g>
			<path class="st7" d="M319.5,25.7c0.1,0,0.3,0,0.4,0.1c0,0,0,0,0,0.1c0,0,0,0.1-0.1,0.1c-0.3,0-0.4,0.1-0.5-0.2
				C319.4,25.7,319.5,25.7,319.5,25.7z"/>
			<path class="st7" d="M319.2,26.3c0.1,0,0.2,0,0.3,0.1c0.3,0.7,0.5,1.5,1.2,1.9c0.7,0.4,1.2,0.2,1.6,0.9c-0.3,1.5-1.1,2.5-1.5,3.9
				c-0.5,2-0.9,4.4-1.5,6.3c-0.4,1.2-0.8,3.9-1.6,4.4c-0.4,0.2-2.7,0.7-3.2,0.1c-0.1-0.1-0.2-0.2-0.3-0.3c0.1-0.8,0.4-1.4,0.6-2
				c0.3-0.9,0.6-2.4,0.9-3.3c0.4-1,0.1-2.1,0.3-3.5c0.2-1.4,0.4-2.2,0-3.4c-1.3,0-2.7,0.8-3.9,1.1c-1.8,0.5-4,0.9-6,1.2
				c-1.1,0.2-2.4,0.8-3.4,0.2c-0.5-1.5,0.1-1.5,0.8-2.6c0.4-0.6,0.6-1,1-1.4c0-0.1-0.1-0.2-0.1-0.3c0.1-0.1,0.3-0.2,0.5-0.2
				c0.3,0.6,1.5,0.2,2.1,0.1c0.8-0.2,2.3-0.5,3.2-0.5c0.7,0,2.4-0.6,3.3-0.7c0,0,0,0,0,0.1c-0.2,0.1-0.3,0.3-0.5,0.4
				c-0.1,0.2,0,0.2,0,0.3c0.1,0.2,0.3,0.2,0.6,0.3c1-0.5,2.2-0.3,3.1-0.6c0.8-0.4,1.6-0.9,2.4-1.3c0.1-0.2,0.1-0.4,0.2-0.6
				c-1.8,0-3,1.3-4.9,1.4C314.7,27.5,318.4,26.7,319.2,26.3z"/>
			<path class="st7" d="M312.2,27.9c0.1,0,0.2,0,0.3,0.1c0,0,0,0.1-0.1,0.1c0,0,0,0,0,0C312.2,28,312.3,28.1,312.2,27.9z"/>
			<path class="st7" d="M311.4,28c0.1,0,0.2,0,0.3,0.1c0,0,0,0,0,0c0,0,0,0.1-0.1,0.1c-0.2,0-0.3,0-0.5,0c0,0,0-0.1,0.1-0.1
				C311.3,28,311.4,28,311.4,28z"/>
			<path class="st7" d="M309.3,28.4c0.2,0,0.5,0.1,0.7,0.1c0,0-0.1,0-0.1,0c-0.4,0.2-2.6,0.6-2.9,0.4c0,0,0.1-0.1,0.1-0.1
				c0,0,0-0.1,0-0.1C307.6,28.8,309,28.7,309.3,28.4z"/>
			<path class="st7" d="M303,38.3c0.1,0,0.3,0,0.4,0.1c-0.3,0.4-0.3,1.2-0.6,1.7c0.4,1.1,1.4,1.2,2.2,1.9c-0.2,1.2-0.6,2.8-0.5,4
				c0.3,2.4,0.5,5.7,0.4,8c-0.1,1.3,0.5,2.7-0.2,4c-0.5,1-2.8,0.7-3.7,0.4c-0.7-1.8-0.1-3.8-0.4-5.8c-0.2-1,0-2.2-0.2-3.2
				c-0.3-1.4-1-4.7-0.4-6.3c0.2-0.2,0.4-0.4,0.6-0.6c0.2-0.3,0.1-0.7,0.2-1C302,41.2,302.4,39.2,303,38.3z"/>
			<path class="st7" d="M309.9,42.4c0.1,0,0.2,0,0.2,0c-0.2,0.7-1,1.3-0.8,2.2c0.8,0.4,1.2,1.1,2,1.4c-0.2,1.5-0.8,3.2-0.6,4.7
				c1.2,0.5,3.3-0.2,4,0.1c0,0,0,0.1-0.1,0.1c-0.1,0.1-0.2,0.1-0.4,0.2c0,0.1,0.1,0.1,0.1,0.2c1.3,0.1,2.6-0.2,3.8-0.4
				c0.2,0,0.5,0.1,0.7,0.1c0.7-0.1,2.8-1,3.5-0.8c0,0.6-0.4,0.8-0.3,1.5c0.4,0.6,0.5,0.2,1.2,0.4c0.5,0.3,1,0.6,1.5,0.8
				c0,0.2,0,0.3,0,0.4c-2.4,1.2-5.7,1.1-9,1.6c-1.5,0.2-3.3,0.5-4.7,0.2c-2.1-0.5-3.7,0.3-5.1-1.1c0.2-2.3,0.1-7.6,1.2-8.9
				c0.3-0.1,0.6-0.2,0.9-0.3C308.4,43.9,309.3,43.1,309.9,42.4z"/>
			<path class="st7" d="M322.7,49.5c0.1,0,0.3,0,0.4,0.1c0,0.1,0,0.2-0.1,0.3c-0.5,0.1-1.5,0.2-2,0.2c0,0,0-0.1,0-0.1
				C321.5,49.9,322.4,49.9,322.7,49.5z"/>
			<path class="st7" d="M319.9,50.1c0.1,0,0.3,0,0.4,0.1c0,0,0,0,0,0c-0.4,0.1-0.8,0.1-1.2,0.2c0,0,0.1-0.1,0.1-0.1
				C319.5,50.2,319.7,50.2,319.9,50.1z"/>
			<path class="st7" d="M318.3,50.4c0.2,0,0.3,0,0.5,0c0,0,0,0.1-0.1,0.1c-0.2,0-0.3,0-0.5,0C318.3,50.5,318.3,50.4,318.3,50.4z"/>
			<path class="st7" d="M317.9,50.5c0,0,0.1,0,0.1,0c0,0,0,0.1-0.1,0.1c-0.1,0-0.1,0-0.2,0C317.9,50.5,317.9,50.5,317.9,50.5z"/>
			<path class="st7" d="M317.4,50.5c0.1,0,0.3,0,0.4,0.1c0,0,0,0.1-0.1,0.1c0,0-0.1,0-0.1,0c-0.2,0.1-0.7,0.1-1,0
				C316.9,50.6,317.1,50.5,317.4,50.5z"/>
			<path class="st7" d="M316.1,50.6c0.1,0,0.3,0,0.4,0.1c0,0-0.1,0-0.1,0c-0.2,0-0.5,0-0.7,0c0,0,0,0,0,0
				C315.8,50.6,316,50.6,316.1,50.6z"/>
		</g>
		<g>
			<path class="st7" d="M261.1,42.4c0-0.3,0.1-0.4,0.2-0.6c0,0-0.1,0-0.1-0.1c-0.4,0.1-0.8,0.1-1.2,0.2c0,0,0-0.1,0.1-0.1
				c0.4-0.1,0.8-0.2,1.2-0.4c0.1-0.4,0-1.2,0.2-1.5c0,0,0,0,0,0c0.3,1.3-0.6,3.4,1.5,3.1c0.1-0.2,0.2-0.4,0.3-0.5
				c0.1,0,0.2,0.1,0.3,0.1c0.1,0.2,0.2,0.4,0.3,0.6c0.4,0,0.4-0.1,0.7,0.1c0.1,0.1,0.1,0.2,0.2,0.3c0.3,0.8-0.8,1.9-1.4,2.1
				c-1.1,0.4-2.4,0.2-3.6,0.7c-2,0.8-4.1,1.4-5.9,2.4c-0.5,2.4,1,5.1,0.5,7.6c-0.3,1.4-0.1,3.4-1,4c-0.1,0-0.2,0.1-0.3,0.1
				c-0.2-0.2-0.6-0.4-0.9-0.6c-0.3,0.1-0.4,0.3-0.9,0.3c-0.3-0.6-0.6-1-1.4-1.2c0-0.1,0-0.2,0-0.3c1-0.7,1.4-3.9,1-4.9
				c0.1,0,0.1-0.1,0.2-0.1c-0.1-0.5-0.5-1.1-0.3-1.6c0.2,0,0.1,0.1,0.2-0.1c-0.3-0.1-0.3-0.4-0.3-0.8c0.2,0,0.1,0.1,0.2,0
				c0,0,0-0.1,0.1-0.1c0-0.1-0.1-0.1-0.1-0.2c0,0,0,0-0.1,0c-0.1,0.2,0,0.1-0.2,0.2c0,0,0-0.1,0-0.1c-0.2-0.4,0-1,0.1-1.1
				c0,0,0-0.1,0-0.2c-0.5-0.4,0.1-4.8-0.1-6.2c0,0,0,0-0.1,0c0,0-0.1,0-0.1,0c-0.6,1-2.6,2.6-3.5,3.4c-1.6,1.5-3,3.3-4.8,4.5
				c-0.5,0.3-0.9,1.2-1.4,1.5c-0.4,0.3-1.1,0.4-1.5,0.7c-0.6,0.5-1.3,1.1-2,1.4c-0.6,0.2-1.3,0.1-1.9,0.4c-0.3-0.1-0.5-0.2-0.7-0.5
				c0-0.5-0.1-1.1-0.1-1.6c-0.1-0.6-0.4-1.3-0.6-1.9c-0.6-1.7-0.3-7.5,0.2-9.3c0.5-1.5,0.1-2.8,0.8-3.9c0.5,0.4,0.7,0.9,1.3,1.2
				c0.7,0.4,1.1-0.1,1.7,0.4c0.1,0.3,0.2,0.3,0.3,0.5c0,0.6,0,1.2,0,1.8c-0.6,1.8-1.2,4.7-0.9,6.6c0.1,0,0.2,0,0.2,0.1
				c0.6-0.5,1.2-0.8,1.8-1.2c0.7-0.5,1.3-1.3,2-1.9c0,0,0.1,0,0.1,0c-0.1,0.2-0.1,0.3-0.1,0.5c0.1,0,0.1,0,0.2,0
				c0.3-0.3,0.9-0.3,1.2-0.5c0.4-0.4,0.9-0.9,1.2-1.4c0,0,0.1,0,0.1,0.1c0,0,0,0.1,0,0.1c0.1,0.4-0.1,0.8,0.2,1.1c0,0,0,0,0,0
				c0.1,0,0.3,0,0.4,0c0.7-0.3,1.9-1.8,2.4-2.4c1.1-1.3,2.6-2.3,3.7-3.7c0.4-0.5,1-1.7,0.7-2.5c-0.1,0.1-0.2,0.1-0.3,0.2
				c-0.2,0.3-0.5,0.7-0.8,0.9c0,0-0.1,0-0.1-0.1c0.1-0.1,0.2-0.3,0.3-0.4c0-0.1-0.1-0.2-0.1-0.4c0.2-0.7,1.2-1,1.6-1.7
				c0.4-0.9,0.2-1.7,0.9-2.3c-0.1,1.9,2,0.8,3,1.4c0,0.6,0,1.2,0,1.7c-0.4,1.4-1.4,2.9-1.4,4.6c0,0.8-0.5,1.6-0.2,2.2c0,0,0,0,0,0
				c1.5-0.1,2.7-1,4.4-1.3c0,0,0,0.1,0,0.1c-0.1,0.1-0.1,0.2-0.2,0.3c0.1,0.1,0.3,0.2,0.4,0.3c-0.1,0.1-0.1,0.3-0.2,0.4
				c0,0.1,0.1,0.2,0.1,0.3c0.8-0.1,1.9-0.2,2.4-0.6c0-0.2,0-0.4,0-0.5C261.1,42.5,261.1,42.5,261.1,42.4c-0.2,0.2-0.4,0.3-0.5,0
				C260.7,42.4,260.9,42.4,261.1,42.4z"/>
			<path class="st7" d="M251.6,35.5c0.1,0.2-0.1,0.3-0.2,0.4c0,0-0.1,0-0.1-0.1c0,0,0-0.1,0.1-0.1C251.4,35.7,251.5,35.6,251.6,35.5
				z"/>
			<path class="st7" d="M251.1,36.1c0,0,0.1,0,0.1,0c0,0.1,0,0.2-0.1,0.2c-0.1,0-0.2,0.1-0.3,0.1C251,36.3,251,36.2,251.1,36.1z"/>
			<path class="st7" d="M250.5,36.7c0.1,0,0.1,0,0.2,0c0,0.1-0.1,0.1-0.1,0.2c0,0-0.1,0-0.1,0c0,0-0.1-0.1-0.1-0.1
				C250.5,36.8,250.5,36.7,250.5,36.7z"/>
			<path class="st7" d="M249.7,37.7c0,0,0,0.1,0,0.1C249.7,37.8,249.7,37.8,249.7,37.7C249.7,37.8,249.7,37.7,249.7,37.7z"/>
			<path class="st7" d="M250.2,37.8c0,0,0.1,0.1,0.1,0.1c-0.1,0-0.1,0-0.1,0C250.1,37.9,250.2,37.9,250.2,37.8z"/>
			<path class="st7" d="M249.9,38.1c0.2,0,0.1,0,0.2,0.2c0,0.1,0.1,0.2,0.1,0.3c-0.6,0.5-3.2,3.6-3.8,3.6c0-0.1,0-0.3,0.1-0.4
				c0,0,0,0.1,0,0.1c-0.1,0.1-0.1,0.1-0.2,0.2c-0.1,0-0.1,0-0.1-0.1c0.2-0.9,1.6-1.8,2.4-2c0-0.1-0.1-0.3-0.1-0.4
				C249,39.1,249.4,38.6,249.9,38.1z"/>
			<path class="st7" d="M249,38.4c0.2,0.1,0,0.1,0,0.2c0,0-0.1,0-0.1,0c0,0,0,0,0,0C248.9,38.5,248.9,38.5,249,38.4z"/>
			<path class="st7" d="M247.8,39.6c0,0,0.1,0,0.1,0c-0.1,0.2,0,0.2-0.2,0.2c0,0,0,0,0,0C247.7,39.7,247.8,39.6,247.8,39.6z"/>
			<path class="st7" d="M247.5,39.9c0,0.2,0,0.2-0.2,0.3c0,0,0,0-0.1,0C247.3,40.1,247.4,40,247.5,39.9z"/>
			<path class="st7" d="M246.9,40.4c0.1,0,0.1,0,0.2,0c-0.1,0.1-0.1,0.1-0.2,0.2c-0.1,0.3-0.6,0.8-1,1c0,0,0.1-0.1,0.1-0.1
				C246.3,41.1,246.6,40.8,246.9,40.4z"/>
			<path class="st7" d="M247.1,41.3C247.1,41.3,247,41.3,247.1,41.3c0,0.1,0,0.1,0,0.2C247.1,41.4,247.1,41.4,247.1,41.3
				C247.1,41.3,247.1,41.3,247.1,41.3z"/>
			<path class="st7" d="M245.7,41.7c0,0,0.1,0.1,0.1,0.1c-0.1,0.1-0.2,0.2-0.3,0.2c0,0-0.1,0-0.1-0.1c0,0,0-0.1,0-0.1
				C245.5,41.8,245.6,41.8,245.7,41.7z"/>
			<path class="st7" d="M260.3,42.5C260.4,42.5,260.4,42.5,260.3,42.5C260.4,42.5,260.4,42.5,260.3,42.5c0.1,0.1,0,0.1,0,0.1
				c-0.2,0-0.3,0-0.4-0.1C260.1,42.5,260.2,42.5,260.3,42.5z"/>
			<path class="st7" d="M246,42c0,0,0.1,0.1,0.1,0.1c-0.2,0.4,0,0.6-0.3,0.8c-0.1,0.2-0.3,0.4-0.6,0.4c0,0-0.1,0-0.1-0.1
				c0.1-0.2,0.1-0.2,0-0.4c0,0,0,0,0,0c0.1,0,0.1,0,0.2,0c0,0.1,0,0.1,0,0.2c0.1,0,0.2-0.1,0.3-0.1c0-0.1-0.1-0.2-0.1-0.3
				C245.7,42.4,245.9,42.2,246,42z"/>
			<path class="st7" d="M245.2,42.1c0.1,0,0.1,0,0.2,0c-0.1,0.2,0,0.1-0.3,0.2C245.1,42.3,245.1,42.2,245.2,42.1z"/>
			<path class="st7" d="M246.2,42.3c0.1,0,0.1,0.1,0.2,0.1c0,0.1-0.1,0.2-0.1,0.2c-0.1,0-0.2,0-0.2-0.1c0-0.1,0-0.1,0-0.1
				C246.1,42.4,246.2,42.3,246.2,42.3z"/>
			<path class="st7" d="M244.7,42.5c0.1,0,0.1,0,0.2,0c-0.1,0.2,0,0.1-0.3,0.2C244.7,42.7,244.7,42.6,244.7,42.5z"/>
			<path class="st7" d="M244.4,42.9c0.1,0,0.1,0,0.2,0c-0.1,0.2-0.2,0.3-0.4,0.4C244.2,43.1,244.3,43,244.4,42.9z"/>
			<path class="st7" d="M245.4,43.1C245.4,43.1,245.4,43.2,245.4,43.1C245.4,43.2,245.4,43.1,245.4,43.1z"/>
			<path class="st7" d="M244.7,43.3c0.1,0,0.2,0,0.2,0c0.1,0.2,0,0.1,0.2,0.3c0,0,0,0,0,0.1c-0.2,0.3-0.4,0.5-0.7,0.6c0,0,0,0,0,0
				c0-0.1,0-0.2,0-0.2c0,0,0.1-0.1,0.2-0.1c-0.2-0.1-0.2,0-0.2-0.2c0,0,0,0,0,0C244.5,43.5,244.6,43.4,244.7,43.3z"/>
			<path class="st7" d="M243.7,43.5c0.1,0,0.1,0.1,0.2,0.1c-0.7,0.6-1.3,1.3-2,1.9c0,0-0.1,0-0.1-0.1c0,0,0,0,0,0
				C242.3,44.6,243.3,44.2,243.7,43.5z"/>
			<path class="st7" d="M244,44.1c0,0.1,0,0.1,0,0.2c-0.2,0.4-0.8,1-1.3,1.2c0,0,0,0,0,0c0-0.1,0-0.1,0-0.2
				C243.1,44.9,243.5,44.5,244,44.1z"/>
			<path class="st7" d="M242.4,45.6c0,0,0.1,0,0.1,0c-0.1,0.2-0.1,0.2-0.2,0.3c0,0,0,0-0.1,0c0-0.1,0-0.1,0-0.2
				C242.3,45.6,242.4,45.6,242.4,45.6z"/>
			<path class="st7" d="M250.7,51.7C250.7,51.7,250.7,51.7,250.7,51.7C250.7,51.7,250.7,51.7,250.7,51.7z"/>
			<path class="st7" d="M250.7,52.5c0,0,0.1,0.1,0.1,0.2c0,0,0-0.1,0.1-0.1C250.8,52.5,250.8,52.5,250.7,52.5z"/>
			<path class="st7" d="M250.7,53.1c0.1,0.1,0,0,0.1,0.2c0,0-0.1,0-0.1,0C250.7,53.2,250.7,53.2,250.7,53.1z"/>
		</g>
		<g>
			<path class="st7" d="M217.5,21.6c0.1,0,0.1,0,0.2,0c-0.1,0.2-0.1,0.2-0.2,0.3c-0.1,0-0.2,0-0.3-0.1c0-0.1,0-0.1,0.1-0.1
				C217.3,21.7,217.4,21.6,217.5,21.6z"/>
			<path class="st7" d="M216.8,21.8C216.8,21.8,216.9,21.8,216.8,21.8c0.1,0.1,0.1,0.1,0,0.2c-0.5,0.1-0.9,0.1-1.4,0.2c0,0,0,0,0,0
				c0,0,0.1-0.1,0.1-0.1C216,22,216.4,21.9,216.8,21.8z"/>
			<path class="st7" d="M215,22.2c0.1,0,0.2,0,0.3,0c0,0,0,0,0,0c0,0-0.1,0.1-0.1,0.1c-1.3,0.1-2.1,0.8-3.5,0.8c0,0,0-0.1,0-0.1
				C212.5,22.9,214.3,22.5,215,22.2z"/>
			<path class="st7" d="M211.1,23.2c0.1,0,0.1,0,0.1,0c0,0,0.1,0.1,0.1,0.1c-0.1,0-0.1,0.1-0.2,0.1c0,0-0.1,0-0.1-0.1
				C211.1,23.3,211.1,23.2,211.1,23.2z"/>
			<path class="st7" d="M224.9,24c0-0.1-2.3-0.9-2.7-0.9c0.2-0.7,0.6-0.9,0.6-1.8c-0.7-0.4-4.3,0-4.8,0.4c0.7,0.5,3.2-0.8,4.2-0.1
				c0.2,0.1,0.1,0.2,0,0.4c-0.1,0.1-0.1,0.1-0.3,0c0.1,0.1,0.1,0.1,0.2,0.2c-0.1,0.2-0.1,0.5-0.2,0.7c-0.6,0.3-1.6-0.2-2.3,0
				c-1.5,0.5-5,1.2-6.4,1.1c-0.6,0-1.5,0.6-2.2,0.4c-0.2-0.1-0.1-0.3-0.2-0.4c0,0-0.5-0.1-0.6-0.2c0,0,0-0.1,0-0.1
				c0.2,0,0.3-0.1,0.5-0.1c-0.1-0.3-0.2-0.3-0.5-0.3c-0.2,0.1-0.3,0.3-0.5,0.4c0,0.1,0.1,0.3,0.1,0.4c-0.3,0.4-0.6,0.8-0.7,1.5
				c-0.3,0.2-0.5,0.5-0.9,0.5c-0.2,0.2-0.7,1.2-0.7,1.6c0.6,0.4,1.1,0.8,1.7,1.2c1-0.7,2.3-0.7,3.6-1.1c2.2-0.6,4.7-1.4,7.4-1.5
				c0,0,0,0,0.1,0c0.4,1-0.7,2.4-0.6,3.4c-0.6,0-1.2,0.5-1.7,0.6c-1.3,0.4-2.4,0.6-3.6,1.1c-0.9,0.5-1.8,1-2.7,1.4
				c-0.1,0.6-0.9,3.6-1.6,3.9c-0.2,0.7,0.1,2,0.2,2.7c0.3,1.5,0.4,3.3,1.4,4c0.8,0.6,2.5-0.2,3.1-0.4c1.5-0.4,2.9-0.7,4.4-1.1
				c0.5,0,1-0.1,1.5-0.1c0.1-0.1,0.1-0.3,0.2-0.4c0.3-0.1,0.6-0.2,0.9-0.3c0.3-0.2,0.3-0.4,0.7-0.5c0.1-0.3,0.2-0.7,0.4-1
				c0,0,0-0.1,0-0.1c-0.7,0.1-1.5,0.2-2.2,0.3c-1.2-0.6,0-2.1,0.6-2.8c-0.1-0.1-0.3-0.1-0.5-0.1c0,0,0,0,0,0c0.2,0,0.3-0.1,0.5-0.1
				c0,0,0.1-0.1,0.1-0.1c-0.2,0-0.4,0-0.5,0c0,0,0-0.1,0-0.2c-1,0.2-2,0.5-3.1,0.7c-0.3-0.5-0.1-0.9-0.1-1.4c0.9-0.9,3-1,4.4-1.5
				c0.8-2.3,1.3-4.9,2.1-7C224.3,26.2,225.4,24.8,224.9,24z"/>
			<path class="st7" d="M210.2,35.3c0,0,0.1,0,0.1,0c0,0,0.1,0.1,0.1,0.1c0,0,0,0.1-0.1,0.1c-0.1,0-0.1,0-0.2,0
				C210.2,35.4,210.2,35.3,210.2,35.3z"/>
			<path class="st7" d="M220.4,36.7C220.4,36.7,220.4,36.8,220.4,36.7C220.4,36.7,220.4,36.8,220.4,36.7z"/>
			<path class="st7" d="M225.1,42.3c0.5,0.1,1,0.2,1.5,0.3c0,0.2,0,0.1-0.1,0.2c-0.5-0.2-1.7,0-2.1-0.3
				C224.7,42.4,224.9,42.4,225.1,42.3z"/>
			<path class="st7" d="M223.4,42.5c0.1,0,0.1,0,0.2,0.1c0,0-0.1,0.1-0.1,0.1c-0.1,0-0.1,0-0.2-0.1c0,0,0,0,0,0
				C223.3,42.6,223.4,42.6,223.4,42.5z"/>
			<path class="st7" d="M222.7,42.6c0.1,0,0.1,0,0.2,0c0,0,0,0,0,0C222.8,42.7,222.8,42.7,222.7,42.6z"/>
			<path class="st7" d="M222.1,42.7C222.1,42.7,222.1,42.7,222.1,42.7C222.2,42.7,222.2,42.8,222.1,42.7c0.1,0.1,0,0.1,0,0.1
				c-0.1,0-0.1-0.1-0.1-0.1C222,42.8,222,42.7,222.1,42.7z"/>
			<path class="st7" d="M222.3,42.7C222.3,42.7,222.3,42.7,222.3,42.7C222.3,42.7,222.3,42.7,222.3,42.7z"/>
			<path class="st7" d="M225.2,43c0.2,0.1,0.1,0,0.1,0.2c0,0-0.1,0-0.1,0C225.2,43.1,225.2,43.1,225.2,43z"/>
			<path class="st7" d="M225.5,43.1c0,0,0,0.1,0,0.1C225.5,43.2,225.5,43.1,225.5,43.1z"/>
			<path class="st7" d="M220.8,43C220.8,43,220.8,43,220.8,43C220.8,43,220.8,43,220.8,43z"/>
			<path class="st7" d="M223.2,43.2c0.1,0,0.1,0,0.2,0c0,0-0.1,0.1-0.1,0.1C223.3,43.2,223.3,43.2,223.2,43.2z"/>
			<path class="st7" d="M219.8,43.2C219.8,43.2,219.9,43.2,219.8,43.2C219.8,43.3,219.9,43.2,219.8,43.2
				C219.8,43.2,219.8,43.2,219.8,43.2z"/>
			<path class="st7" d="M216.1,44c0,0.1,0.1,0.1,0.1,0.2c0,0-0.1,0-0.2,0c0,0,0,0-0.1,0C216,44.2,216.1,44.1,216.1,44z"/>
			<path class="st7" d="M226.7,45.2c0.2,0,0.4,0,0.6,0.1c-0.1,0.5-0.1,0.5,0.2,0.8c0,0,0,0.1,0,0.1c-0.5,0.1-1,0.2-1.5,0.3
				c-0.1,0.2,0,0.5-0.1,0.7c-0.2,0.2-1.1,0.1-1.4,0.1c-1.1,0.1-2.3,0.3-3.4,0.4c-2.4,0.5-4.9,1.1-7.1,1.8c-1.4,0.3-2.7,0.6-4.1,0.8
				c-0.8,0.2-3.8,0.9-4.5,0.5c-0.1-0.5,0.4-2,0.6-2c2.3-0.7,4.7-0.3,7-0.9c3.2-0.8,6.5-1.5,9.6-2.3c1-0.2,2-0.3,3-0.5
				C226,45.2,226.4,45.3,226.7,45.2z"/>
			<path class="st7" d="M212.9,44.9c0.1,0,0.1,0,0.1,0c0,0-0.1,0.1-0.1,0.1C213,45,213,44.9,212.9,44.9z"/>
			<path class="st7" d="M212.5,45c0.1,0,0.2,0,0.2,0.1c0,0,0,0,0,0.1c-0.1,0-0.3,0-0.4,0c0,0,0-0.1,0.1-0.1
				C212.4,45,212.4,45,212.5,45z"/>
			<path class="st7" d="M212.1,45.1c0.1,0,0.1,0,0.2,0c0,0,0,0.1,0,0.1C212.1,45.2,212.2,45.2,212.1,45.1z"/>
			<path class="st7" d="M211.5,45.2c0.1,0.1,0,0,0,0.1c-0.2,0-0.4,0.1-0.6,0.1c0,0,0-0.1,0-0.1C211.1,45.3,211.3,45.2,211.5,45.2z"
				/>
			<path class="st7" d="M210.7,45.4C210.7,45.4,210.8,45.4,210.7,45.4C210.8,45.5,210.7,45.5,210.7,45.4
				C210.7,45.5,210.7,45.5,210.7,45.4z"/>
			<path class="st7" d="M210,45.5c0,0,0.1,0,0.1,0c0,0,0,0.1-0.1,0.1c-1.2,0.2-2.4,0.5-3.6,0.6c-0.1,0-0.2-0.1-0.2-0.1
				c0-0.1,0.1-0.1,0.1-0.2C207.4,45.8,208.9,46,210,45.5z"/>
			<path class="st7" d="M207.6,46.5c0.1,0,0.2,0,0.3,0.1c0,0-0.1,0.1-0.1,0.1c-0.2,0-0.3,0-0.5,0c0,0,0.1-0.1,0.1-0.1
				C207.4,46.6,207.5,46.5,207.6,46.5z"/>
			<path class="st7" d="M206.4,46.7c0.3,0,0.5,0.1,0.8,0.1c-0.1,0.1-0.2,0.2-0.3,0.3c-0.3,0.1-0.6,0.3-0.8,0.2
				c-0.2-0.1-0.1-0.3,0-0.4C206.2,46.7,206.3,46.7,206.4,46.7z"/>
			<path class="st7" d="M205.4,48.4c0.3,0,0.6,0,0.9,0c0,0,0,0.1-0.1,0.1c-0.4,0-0.9,0.2-1-0.1C205.2,48.4,205.3,48.4,205.4,48.4z"
				/>
			<path class="st7" d="M211.6,52.7c0.4,0.2,1,0.4,1.4,0.6c0,0-0.1,0.1-0.1,0.1c-0.5-0.3-0.6-0.2-1.2-0.1c-0.1-0.2-0.2-0.4-0.2-0.6
				C211.5,52.8,211.5,52.8,211.6,52.7z"/>
			<path class="st7" d="M213,53.5c0.3,0.2,0.6,0.4,1,0.6c0,0-0.1,0.1-0.1,0.1c0,0,0,0,0,0C213.5,54.1,213.1,53.9,213,53.5z"/>
			<path class="st7" d="M211.7,53.5c0.4,0.2,1,0.4,1.4,0.7c0.2,0.2,0.4,0.4,0.6,0.7c0.2,0,0.5,0.1,0.7,0.1c0.2,0.2,0.4,0.4,0.7,0.7
				c1.2,0.6,2.6,0.9,3.8,1.2c0,0.2,0.1,0.3,0.1,0.5c1.5,0.5,3.4,0.8,5.1,0.5c0.5-0.1,0.9-0.4,1.6-0.4c0.1,0.1,0.1,0.2,0.2,0.3
				c0.1,0,0.2,0,0.3,0c0-0.1,0-0.1,0-0.2c-0.2-0.1-0.2,0-0.2-0.2c0.1,0,0.1,0,0.2,0c0.3,0.2,0.3,0.2,0.3-0.1c0.8,0.1,1-0.2,1.7-0.3
				c0,0,0,0.1,0,0.1c-0.4,0.8-1.5,1.5-2.2,1.8c0.1,0.2,0.1,0.4,0.2,0.6c0,0,0,0,0,0c0.3,0,0.3-0.1,0.5,0c-0.4,0.6-1.6,0.9-2.3,1.2
				c-0.9,0.3-1.9,0.8-3,1c-3.6,0.8-8.3-0.9-9.9-3.1c0.1-0.3,0-0.7,0.2-0.9c0,0,0,0,0,0c1.1,0.3,0.6-0.9,0.9-1.6
				c0.2-0.4,0.7-0.5,0.8-1.1c0-0.1-0.1-0.1-0.1-0.2c-0.2-0.1-0.3-0.2-0.5-0.4c-0.4-0.2-0.8,0.1-1.1-0.1
				C211.7,54,211.7,53.7,211.7,53.5z"/>
			<path class="st7" d="M227.6,54.5c0,0,0.1,0,0.1,0c0,0,0,0.1,0,0.2c-0.5,0.2-2.7,2-3.3,1.6c0,0,0.1-0.1,0.1-0.1
				C225.7,56,226.8,55.2,227.6,54.5z"/>
			<path class="st7" d="M214.2,54.3c0.1,0.1,0.3,0.2,0.4,0.3c0,0,0,0,0,0c-0.1,0-0.1,0-0.2,0C214.3,54.5,214.3,54.4,214.2,54.3z"/>
			<path class="st7" d="M214.7,54.7c0.4,0.1,1.2,0.3,1.4,0.5c0,0-0.1,0-0.1,0c0,0,0,0-0.1,0C215.5,55.2,214.9,55,214.7,54.7z"/>
			<path class="st7" d="M216.3,55.2c0.2,0.1,0.5,0.2,0.7,0.2c0,0,0,0,0,0c0,0-0.1,0-0.1,0C216.6,55.4,216.4,55.4,216.3,55.2
				C216.2,55.2,216.3,55.2,216.3,55.2z"/>
			<path class="st7" d="M217.1,55.4c0.1,0,0.1,0,0.2,0c-0.1,0-0.1,0.1-0.2,0.1C217.1,55.5,217.1,55.4,217.1,55.4z"/>
			<path class="st7" d="M224,56.3c0.1,0,0.1,0,0.1,0c0,0.1,0.1,0.1,0.1,0.2c-0.1,0-0.2,0-0.2,0c-0.2,0.1-0.2,0.1-0.3-0.1
				C223.8,56.4,223.9,56.3,224,56.3z"/>
			<path class="st7" d="M222.6,56.7c0.1,0,0.1,0.1,0.2,0.1c0,0-0.1,0.1-0.1,0.1c-0.4,0-0.5,0.1-0.6-0.2
				C222.2,56.7,222.4,56.7,222.6,56.7z"/>
			<path class="st7" d="M221.8,56.8c0.1,0,0.1,0.1,0.2,0.1c0,0-0.1,0.1-0.1,0.1c-0.1,0-0.2,0-0.2,0c0,0,0-0.1,0-0.2
				C221.6,56.9,221.7,56.9,221.8,56.8z"/>
			<path class="st7" d="M219.2,56.8c0.3,0,0.6,0,0.8,0c-0.1,0.1-0.1,0.2-0.2,0.3c-0.2,0-0.5-0.1-0.7-0.1
				C219.1,56.9,219.1,56.9,219.2,56.8z"/>
			<path class="st7" d="M220.4,56.9c0.1,0,0.1,0,0.2,0c0,0,0,0,0,0c0,0-0.1,0.1-0.1,0.1C220.5,57,220.4,56.9,220.4,56.9z"/>
			<path class="st7" d="M221,56.9c0.2,0,0.2,0,0.3,0.1c0,0,0,0,0,0C221.1,57,221.1,57,221,56.9z"/>
		</g>
		<g>
			<path class="st7" d="M197.9,11.7c0.4,0,0.8,0,1,0.2c0.1,0.3,0.3,0.3,0.4,0.7c-0.2,0-0.3,0-0.4,0.2c-0.4,0.6,0.2,0.7,0.5,1
				c0,0.2-0.1,0.5-0.1,0.7c-1.7,0.4-3.6,0.8-5.1,1.1c-1,0.1-2.1,0.2-3.1,0.2c-1.4,0.3-2.9,0.6-4.3,1c-0.4,0-0.8,0-1.2,0.1
				c-2.6,0.7-5,1.3-7.7,1.5c-0.5,0.1-0.9,0.2-1.4,0.3c-1.9-0.2-3.8,0.7-5.2,1.1c-0.6,0.2-1.8,0-1.9-0.5c-0.1-0.8,0.6-1.1,0.8-1.5
				c0.2-0.5,0.1-1,0.2-1.4c0.5-1.4,2.6-0.9,4-1.2c0.2-0.1,1-0.2,1.3-0.2c0.3,0,0.6,0.1,0.9,0.1c1.8-0.2,3.7-0.5,5.5-0.7
				c3-0.8,6.4-1.4,9.7-2.1c1.3-0.3,3.1-0.4,4.4-0.7C196.6,11.7,197.2,11.9,197.9,11.7z"/>
			<path class="st7" d="M171.6,15C171.7,15,171.7,15,171.6,15c0.1,0.1,0.1,0.2,0,0.3c-0.3,0-0.5,0-0.6-0.3c0,0,0,0,0.1,0
				C171.3,15.1,171.5,15.1,171.6,15z"/>
			<path class="st7" d="M182.8,18.3c0.1,0,0.1,0,0.2,0c-0.1,0.4-0.4,0.7-0.7,0.9c0,0.9,0.2,0.6,0.4,1c0.1,0.3-0.1,0.5,0.1,0.7
				c0.6,0.1,1.2,0.2,1.8,0.3c0.4,1.3-0.4,3.4-0.4,4.8c0.1,2.3,0.6,5.6,0.2,7.9c-1,0.3-0.8,0.9-1.4,1.6c-0.8-0.3-1.5-0.3-1.9-1.1
				c-0.1-1.1-0.1-2.2-0.2-3.3c-0.3-2-0.5-4.3-0.2-6.1c0.1-0.7-0.1-1.2,0.1-1.8c0.2-0.1,0.4-0.1,0.6-0.2c0-0.4,0.1-0.8,0.1-1.1
				c0.1-0.1,0.2-0.1,0.4-0.2c0.3-0.6-0.1-2.3,0.3-2.9C182.2,18.8,182.6,18.6,182.8,18.3z"/>
			<path class="st7" d="M191.7,19.4c0.1,0,0.2,0,0.3,0.1c-0.4,0.6-0.2,1.9,0.5,2.2c0.5,0.3,0.9-0.1,1.5,0.2c0.2,1.7-0.5,3.6-0.7,5.4
				c0,0,0.1,0,0.1,0c1.3,0.6,2.6-1.1,3.8,0c-0.1,1.1,0,1.1,0.4,1.9c0.9,0.1,1.5,0.1,2,0.5c0,0.9-0.3,1.3-0.5,2.2c0,0-0.1,0-0.1,0
				c-0.2-0.1-0.2-0.2-0.4-0.1c-0.3,0.1-0.2,0.4-0.5,0.6c-0.4,0.2-0.6,0.3-1,0.4c-0.6-0.7-2.2-0.5-3.1-0.2c-1.7,0.5-5.2,2-6.9,0.9
				c0-0.6,0.8-1.5,1-2c0.4-0.9-0.2-1.9,0.2-2.7c0.2-0.4,1.3-1.3,1.7-1.7c-0.2-0.8-0.3-2.2,0.1-3c0.2,0,0.5,0,0.6-0.2
				C191.2,22.5,190.9,20.4,191.7,19.4C191.7,19.4,191.7,19.4,191.7,19.4z"/>
			<path class="st7" d="M200.7,35.9c0.5,0,0.9,0.1,1.4,0.1c0,0,0,0.1,0,0.1c-0.1,0-0.1,0.1-0.2,0.1c-1-0.3-3.5,0.6-4.2,0.1
				c0,0,0,0,0,0C198.3,36.3,200.3,36.2,200.7,35.9z"/>
			<path class="st7" d="M195.8,36.5c0,0.1,0.1,0.1,0.1,0.2c0,0-0.1,0.1-0.1,0.1C195.8,36.6,195.8,36.7,195.8,36.5z"/>
			<path class="st7" d="M197,36.5C197,36.5,197.1,36.5,197,36.5C197,36.6,197.1,36.6,197,36.5z"/>
			<path class="st7" d="M200.9,36.7c0.1,0,0.1,0,0.2,0c0,0.1,0.1,0.1,0.1,0.2c0,0,0,0,0,0c-0.3,0-0.4,0-0.5-0.1
				C200.8,36.8,200.9,36.7,200.9,36.7z"/>
			<path class="st7" d="M196.3,36.5c0.1,0,0.2,0,0.3,0.1c0,0-0.1,0.1-0.1,0.1C196.4,36.7,196.3,36.7,196.3,36.5
				C196.3,36.6,196.3,36.6,196.3,36.5z"/>
			<path class="st7" d="M200.2,36.7c0.2,0.1,0.1,0,0.2,0.2c-0.3,0-0.6,0.2-0.7-0.1c0,0,0.1,0,0.1,0C199.9,36.8,200,36.8,200.2,36.7z
				"/>
			<path class="st7" d="M200.9,37.1c0.2,0,0.4,0.1,0.6,0.1c0,0,0.1,0.1,0.1,0.1c0,0.1,0,0.1,0,0.2c0,0-0.1,0-0.1,0
				c-0.7,0.3-2.1,0.3-2.4-0.1c0,0,0,0,0-0.1C199.8,37.2,200.3,37.1,200.9,37.1z"/>
			<path class="st7" d="M198.4,37.4c0.1,0,0.2,0,0.2,0c-0.1,0.2-0.2,0.3-0.4,0.4c-0.1,0-0.1,0-0.2-0.1c0-0.1,0-0.2,0.1-0.3
				C198.2,37.4,198.3,37.4,198.4,37.4z"/>
			<path class="st7" d="M192.3,37.3c0.1,0,0.1,0.1,0.2,0.1c-0.1,0.1-0.1,0.1-0.2,0.2c0,0,0,0,0,0c-0.2,0-0.2,0-0.2-0.1
				c0,0,0-0.1,0.1-0.1C192.2,37.4,192.3,37.3,192.3,37.3z"/>
			<path class="st7" d="M191.7,37.4c0.2,0.1,0.1,0,0.2,0.2c0,0.1,0,0.2-0.1,0.2c-0.3,0-0.5,0-0.7-0.1c0-0.1,0-0.1,0-0.2
				C191.4,37.5,191.6,37.4,191.7,37.4z"/>
			<path class="st7" d="M190.3,37.7c0.1,0.1,0.1,0,0.1,0.2c-0.1,0-0.1,0-0.2,0c0,0-0.1,0-0.1-0.1c0,0,0,0,0-0.1
				C190.3,37.8,190.3,37.7,190.3,37.7z"/>
			<path class="st7" d="M189.6,37.8c0.3,0,0.3,0,0.4,0.2c-0.1,0-0.2,0-0.2,0C189.7,37.9,189.7,38,189.6,37.8z"/>
			<path class="st7" d="M202.7,38.3c0.2,0,0.4,0,0.5,0.1c0,0,0,0.1,0,0.1c0,0.1-0.1,0.1-0.1,0.2c-0.2,0.1-0.4,0.1-0.6,0.2
				c0.1,0.1,0.2,0.2,0.3,0.3c-0.1,0.1-0.2,0.2-0.3,0.2c0.1,0.2,0.1,0.3,0.2,0.5c-0.5,0.1-0.6,0.1-1-0.1c0,0,0,0.1-0.1,0.1
				c0.1,0.2,0.2,0.4,0.3,0.7c-3.7,0.9-8.4,1.1-12.2,2.3c0,0.3,0,0.7,0,1c0,0,0.1,0,0.1,0.1c0.7-0.4,1.3-0.7,2.2-0.5
				c0.3,1.4-0.2,2.6,0,4.1c0.2,1.9-0.1,4.5,0.1,6.6c0.1,1.1,0.2,4.2-0.1,4.6c-0.1,0.1-0.3,0.1-0.5,0.2c0,0,0,0.1,0,0.1
				c0.1,0,0.1,0,0.2,0c0.1,0,0.2-0.1,0.3-0.1c0,0,0,0.1,0,0.1c0,0.4,0,0.8,0,1.2c0,0,0,0-0.1,0c-0.2-0.2-0.1-0.6-0.2-0.9
				c0,0,0,0.1-0.1,0.1c-0.3,0.5-0.3,1.4-0.4,1.9c-0.1,0-0.1,0-0.2,0c0,0,0,0,0-0.1c0-0.3,0-0.4-0.2-0.6c-0.1,0-0.2,0-0.2,0
				c-0.2,0.1-0.3,0.2-0.5,0.3c0,0.7-0.2,1.1-0.4,1.6c-0.1,0-0.2,0-0.2-0.1c-0.2-1,0.2-5.1-0.3-5.8c-0.1,0.2-0.2,0.3-0.4,0.5
				c-0.1,0-0.1-0.1-0.2-0.1c-0.1-2.8,0.1-5.7,0-8.1c-0.1-1.7-0.2-3.4,0-5c0,0,0.1,0,0.1,0c0.1,0.1,0.3,0.2,0.4,0.3
				c0-0.1,0-0.1,0-0.2c0.1-0.3,0-0.7,0-0.9c-0.1,0-0.3,0-0.4,0c-0.5,0.2-3.4,0.9-3.8,0.7c-2.6,0.7-5.2,1.2-7.9,1.9
				c-1.1,0.3-3.3,0.5-3.8-0.2c0.3-0.3,0.7-0.3,0.7-0.9c-0.1-0.2-0.1-0.5-0.2-0.7c0.3,0,0.5,0,0.6-0.2c0.1-0.3,0.1-0.6,0.4-0.8
				c1-0.3,2.4,0.2,3.5-0.1c5.5-1.5,11.8-2.2,17.6-3.5c1.5-0.3,3-0.4,4.6-0.8C201.1,38.4,202.1,38.7,202.7,38.3z"/>
			<path class="st7" d="M193.8,38.2c0.1,0,0.2,0,0.3,0.1c0,0-0.1,0.1-0.1,0.1c-0.1,0.1-0.1,0.2-0.2,0.2c0,0-0.1,0-0.1-0.1
				c-0.1-0.1-0.1-0.1-0.2-0.2c0,0,0,0,0,0C193.6,38.3,193.7,38.2,193.8,38.2z"/>
			<path class="st7" d="M198.8,38.4c0.1,0.1,0,0,0.1,0.2c0,0-0.1,0-0.1,0C198.7,38.5,198.7,38.5,198.8,38.4z"/>
			<path class="st7" d="M193,38.4c0.2,0,0.2,0,0.3,0.1C193.3,38.4,193.2,38.4,193,38.4z"/>
			<path class="st7" d="M192.2,38.5c0.1,0,0.1,0,0.1,0c0,0,0,0.1-0.1,0.1c-0.2,0.1-0.3,0.1-0.4-0.1C192,38.5,192.1,38.5,192.2,38.5z
				"/>
			<path class="st7" d="M181.8,39.4c0,0,0.1,0.1,0.1,0.1c0,0-0.1,0.1-0.1,0.1C181.8,39.6,181.8,39.6,181.8,39.4
				C181.8,39.5,181.8,39.5,181.8,39.4z"/>
			<path class="st7" d="M182.2,39.4c0.1,0,0.1,0,0.2,0c-0.1,0.2-0.1,0.1-0.2,0.2C182.1,39.6,182.1,39.6,182.2,39.4
				C182.1,39.5,182.2,39.5,182.2,39.4z"/>
			<path class="st7" d="M186.3,39.7c0.1,0,0.2,0.1,0.3,0.1c0,0-0.1,0.1-0.1,0.1c-0.1,0-0.2,0-0.2,0
				C186.3,39.9,186.3,39.8,186.3,39.7z"/>
			<path class="st7" d="M180.6,39.7c0.1,0.1,0.1,0.1,0,0.3c-0.1,0-0.2,0-0.3,0c0,0,0-0.1,0.1-0.1C180.4,39.8,180.5,39.8,180.6,39.7z
				"/>
			<path class="st7" d="M179.9,39.9c0.1,0,0.2,0,0.2,0.1c-0.1,0.1-0.1,0.1-0.2,0.2c0,0,0,0,0,0c-0.1,0-0.2-0.1-0.2-0.1
				C179.8,40,179.8,39.9,179.9,39.9z"/>
			<path class="st7" d="M178.4,40.2c0.1,0.1,0.1,0,0.1,0.2c-0.1,0-0.1,0-0.2,0c0-0.1,0-0.1,0-0.1C178.4,40.2,178.4,40.2,178.4,40.2z
				"/>
			<path class="st7" d="M177.6,40.3c0.1,0,0.3,0,0.4,0.1c-0.1,0.1-0.1,0.2-0.2,0.2c-1.2,0-2.5,0.8-3.6,0.6c0.1-0.1,0.2-0.3,0.3-0.4
				C175.5,40.7,177,40.7,177.6,40.3z"/>
			<path class="st7" d="M181.9,40.6c0.4,0,0.4,0.1,0.6,0.2c0,0,0,0.1-0.1,0.1c0,0,0,0-0.1,0c-0.1-0.1-0.3-0.1-0.4-0.2
				C181.9,40.6,182,40.7,181.9,40.6z"/>
			<path class="st7" d="M180.4,41c0.1,0.2,0.1,0.3-0.1,0.4c-0.4,0.2-0.8,0-1-0.1c0,0,0.1-0.1,0.1-0.1
				C179.7,41.1,180.1,41.1,180.4,41z"/>
			<path class="st7" d="M179,41.3c0.1,0,0.1,0,0.2,0c0,0.1,0,0-0.1,0.1c-0.1,0.2-0.1,0.2-0.3,0.3c-0.3,0-0.2,0-0.4-0.2
				c-1.2,0.5-2.4,0.9-4,1c-0.2-0.2-0.3-0.4-0.2-0.8c0.1,0,0.1-0.1,0.2-0.1C175.2,42.1,178.4,41.6,179,41.3z"/>
			<path class="st7" d="M188.8,57.6c0.1,0,0.2,0.1,0.2,0.1c0,0.1,0,0.2,0,0.3c-0.2-0.1-0.2-0.1-0.3-0.2
				C188.7,57.8,188.7,57.7,188.8,57.6z"/>
		</g>
		<g>
			<path class="st7" d="M90,20.3c0.3,0.2,0.5,1.2,0.6,1.5c0.3,0.1,0.7,0.2,1,0.2c0-0.3,0.1-0.4,0.4-0.5c0,0.6,0.3,0.6,0.4,1.1
				c-0.1,0.8-0.3,1.6-0.4,2.4c-0.2,1.9-0.5,3.8-0.7,5.7c-0.1,0.6-0.3,2.6-0.2,3.2c0,0.6,0.3,1.4,0.1,2.2c-0.2,0.6-0.3,1.2-0.5,1.8
				c0,0.7,0,1.3,0,2c0.1,0.8-0.3,1.6-0.2,2.2c0.1,1,0.1,3.6-0.1,4.5c-0.1,0.6,0.1,1.1,0.2,1.5c-0.1,0.3-0.1,0.6-0.2,0.9
				c0,1.5,0.4,4,0,4.8c-0.1,0.3,0.3,1.4,0.1,1.2c0,0-0.1,2-0.2,2c-0.4,0.2-0.6-0.3-0.9-0.2c-0.1,0-0.1,0.1-0.2,0.1
				c0,0.9,0,1.9,0,2.8c-0.1,0.1-0.1,0.2-0.2,0.3c-0.1,0-0.1-0.1-0.2-0.1c-0.3-1.1-0.3-3.3-1-3.9c0.1-0.7-0.1-1.2,0.2-1.8
				c-0.7-0.4-0.2-1.6-0.5-2.3c-0.2-0.2-0.3-0.4-0.5-0.5c-0.3-0.7,0.1-1.6-0.4-2.2c-0.2-0.3-1.7-1.6-1.8-1.6
				c-1.9-1.7-3.9-3.3-5.9-4.9c-1.8-1.4-3.1-1.4-3.8-3.9c0.5-0.4,0.8-0.3,0.8-1.2c-0.2-0.2-0.4-0.4-0.6-0.6c-0.1,0-0.1,0.1-0.2,0.1
				c-1,1.7-2.1,3.4-3.1,5c-0.5,0.5-1.2,1-1.6,1.6c-0.7,1-1.4,2.9-2.3,3.7c-0.5,0.4-0.6,0.3-1.1,0.5c-0.4,0.5-0.8,1-1.2,1.5
				c-0.5,0-0.6-0.2-0.8-0.4c0.1-0.8,0.2-1,0.2-1.9c0.8-0.3,3.7-4.3,3.4-5.5c0.5,0,2.3-2.7,2.6-3.3c0.2-0.4-0.1-0.6-0.2-0.9
				c0.2-0.2,0.3-0.3,0.5-0.5c0-0.1-0.1-0.2-0.1-0.3c0,0,0,0,0.1-0.1c0.1,0,0.1,0.1,0.2,0.1c0-0.4,1.2-2.3,1.3-2.3
				c0,0.2,0.1,0.3,0.1,0.5c0.1,0,0.1,0,0.2,0c0,0,0-0.1,0-0.1c0-0.3,0-0.7,0-1c0.1-0.1,0.3-0.2,0.4-0.3c0.4-0.5,0.4-1.1,0.7-1.5
				c0.4-0.5,1.4-1.3,1.4-2.1c-0.2-0.2-0.3-0.1-0.3-0.5c0,0,0.1-0.1,0.1-0.2c0.2,0,0.4-0.1,0.6-0.1c0-0.3,0-0.4,0.1-0.5
				c0.1,0.1,0.1,0.2,0.2,0.3c0.1,0,0.3-0.1,0.4-0.1c0-0.9,0.3-1.2,0.7-1.6C78,27,77.9,27.1,78,26.8c0.6-0.3,0.9-0.9,1.3-1.1
				c0.1,0,0.2,0,0.3,0c0.1,0.8-0.1,1.1-0.2,1.9c0.3,0.2,0.6,0.3,0.9,0.4c0.1,0,0.3-0.2,0.5-0.1c0.2,0.1,0.4,0.4,0.4,0.6
				c0.6,1.5-1,2.2-1.6,2.5c-0.1,0.1-0.2,0.2-0.3,0.3c-0.2,0.4-0.1,1.1-0.4,1.5c-0.3,0.5-1,1.3-1.5,1.8c0.1,0.2,0,0.3,0.2,0.5
				c0.1,0.4,2.7,2.1,3.1,2.3c0.1,0.8,1.2,1.2,1.8,1.7c1,0.8,2,1.7,3,2.5c0.7,0.7,1.4,1.5,2.1,2.2c0,0,0.1-0.1,0.1-0.1
				c-0.1-0.7,0.3-3-0.2-3.7c0,0.1-0.1,0.1-0.1,0.2c0,0-0.1,0-0.1-0.1c0-0.2,0-0.3,0-0.5c0,0,0.1,0,0.2,0c0.1,0.2,0,0.1,0.1,0.2
				c0-0.2-0.1-0.4-0.1-0.6c-0.2,0-0.1,0.1-0.2-0.1c0,0,0,0,0-0.1c0,0,0,0,0.1,0c0.3,0.1,0.5,0,0.7-0.3c-0.2-0.8,0.1-1.7-0.3-2.3
				c-0.1,0-0.2,0-0.3,0c0,0,0,0,0-0.1c0.1-0.6,0.4-0.7,0.1-0.9c0.1-3.7,1.1-6.3,0.8-9.7c-0.1-1.1,1.2-1.1,0.6-2.5
				c0.2-0.1,0.3-0.3,0.5-0.5c-0.1-0.5-0.3-1.7-0.1-2C89.7,20.6,89.8,20.4,90,20.3z"/>
			<path class="st7" d="M71.8,35.1c0.1,0,0.1,0,0.2,0c0,0.1,0,0.2,0,0.4c-0.1,0-0.1,0-0.2,0C71.7,35.2,71.7,35.3,71.8,35.1z"/>
			<path class="st7" d="M87.7,36.7c0.1,0,0.1,0,0.2,0c0,0.1,0,0.2-0.1,0.3c-0.1,0-0.1,0-0.2,0C87.7,36.9,87.7,36.8,87.7,36.7z"/>
			<path class="st7" d="M87.6,37.1c0.3,0,0.3,0,0.4,0.3c-0.1,0.1-0.1,0.2-0.2,0.3c-0.1-0.1-0.2-0.2-0.2-0.3
				C87.5,37.3,87.6,37.2,87.6,37.1z"/>
			<path class="st7" d="M87.6,37.7c0.1,0,0.1,0.1,0.2,0.1c0,0.1-0.1,0.1-0.1,0.2c-0.1-0.1-0.1-0.1-0.2-0.2
				C87.6,37.8,87.6,37.8,87.6,37.7z"/>
			<path class="st7" d="M81.5,37.7c0,0,0,0.1,0,0.1C81.5,37.7,81.5,37.7,81.5,37.7z"/>
			<path class="st7" d="M70.6,38.5c0.1,0,0.2,0,0.3,0.1c0,0.1,0,0.2-0.1,0.3c-0.1,0.3-0.3,0.6-0.6,0.7c0-0.1,0-0.2,0-0.3
				C70.4,38.9,70.5,38.7,70.6,38.5z"/>
			<path class="st7" d="M69.8,39.8c0.1,0,0.1,0,0.2,0.1c0,0.2,0,0.2-0.1,0.3C69.8,39.9,69.8,40,69.8,39.8z"/>
			<path class="st7" d="M69.5,40.3c0.1,0,0.1,0,0.2,0c0,0,0,0.1-0.1,0.1c0,0.1,0,0.2,0,0.3c-0.1,0-0.1,0-0.2,0c0,0,0,0,0-0.1
				c0-0.1,0-0.1,0-0.2C69.5,40.4,69.5,40.3,69.5,40.3z"/>
			<path class="st7" d="M69.2,41.2c0,0,0.1,0,0.1,0c0,0,0,0,0,0.1c0,0-0.1,0.1-0.1,0.1c0,0,0,0-0.1,0C69.2,41.3,69.2,41.2,69.2,41.2
				z"/>
			<path class="st7" d="M68.4,42.5c0.1,0,0.1,0.1,0.2,0.1c0,0-0.1,0-0.1,0c-0.1,0-0.1,0-0.2-0.1C68.3,42.6,68.3,42.5,68.4,42.5z"/>
			<path class="st7" d="M67.9,43.2c0.1,0,0.1,0,0.2,0c0,0.1-0.1,0.1-0.1,0.2C68,43.3,68,43.3,67.9,43.2z"/>
			<path class="st7" d="M66.6,44.2c0.1,0,0.1,0.1,0.2,0.1c-0.3,0.9-0.8,1.5-1.3,2.1c-0.3,0.1-0.5,0.1-0.7-0.1
				C65.4,45.6,66.2,45.1,66.6,44.2z"/>
			<path class="st7" d="M67.3,44.4c0,0,0.1,0,0.1,0c0,0-0.1,0.1-0.1,0.1C67.3,44.4,67.3,44.4,67.3,44.4z"/>
			<path class="st7" d="M66.6,45.2c0.1,0,0.1,0,0.2,0c0,0.1,0,0.1,0,0.2C66.7,45.3,66.7,45.4,66.6,45.2z"/>
			<path class="st7" d="M65.1,46.7c0,0.1,0.1,0.2,0.1,0.3c-0.2,0.1-0.1,0.2-0.4,0.1c0-0.1,0-0.1,0.1-0.2
				C65,46.9,65.1,46.8,65.1,46.7z"/>
			<path class="st7" d="M90.6,55.5c0.1,0.1,0.1,0,0,0.2c0,0,0,0-0.1,0C90.6,55.6,90.6,55.6,90.6,55.5z"/>
			<path class="st7" d="M88.1,56.4c0.1,0,0.1,0,0.2,0c0,0.2,0,0.3-0.1,0.5c-0.1,0-0.1,0-0.2-0.1C88,56.6,88,56.5,88.1,56.4z"/>
			<path class="st7" d="M90.7,56.5c0.1,0.1,0,0,0.1,0.2C90.7,56.7,90.7,56.6,90.7,56.5z"/>
		</g>
		<g>
			<path class="st7" d="M289.5,28.4c0-0.1,0-0.2,0-0.3c-0.3-0.2-0.6-0.1-1-0.3c-0.6-0.2-0.9-0.8-1.6-1c-0.8,0.8-3.2,1-4.5,1.2
				c-2,0.4-3.9,0.8-5.9,1.4c-0.6,0.2-1.2,0.5-2,0.6c-0.6,0.1-2.1-1.3-2.3-1.7c-0.2,0-0.4,0-0.6,0c-0.4,0.4-0.1,1-0.4,1.5
				c-0.2,0.2-0.4,0.4-0.6,0.6c0,0.4-0.1,0.8-0.1,1.1c-0.1,0.3-0.5,0.6-0.6,0.9c0,0.5,0,0.9-0.1,1.4c-0.2,0.3-0.3,0.6-0.5,0.9
				c0,0.5,0.3,0.7,0.5,1.1c0.1,0.8,0.2,1.5,0.4,2.3c0.1,1.4-0.5,3.6,0.3,4.7c0.9,0.3,2,0.2,2.9-0.2c0.3-0.1,0.4-0.4,0.8-0.5
				c0,0,0.1,0,0.1,0.1c-0.2,0.4-0.4,0.7-0.8,0.8c0.1,0.6,0,0.8-0.1,1.3c0.3,0.4,1.2,0.6,2,0.4c0.9-0.2,3-1.6,4-2.2
				c0.9-0.5,1.3,0,2.1-1c0.3-0.3,0.1-0.7,0-1.1c-0.1-0.1-0.3-0.1-0.4-0.2c0-0.1-0.1-0.1-0.1-0.2c2.1-2.6,3.7-5.5,5.9-8.1
				C287.5,31,289,29.6,289.5,28.4z M281.3,33.5c-1.1,1.7-2.3,3.4-3.7,4.8c-0.8,0.6-1.7,1.3-2.5,1.9c-0.3-0.1-0.3-0.9-0.2-1.3
				c0.1-0.8,0.4-2.6,0.3-3.6c0-0.5-0.2-1,0-1.4c0.4-1.1,4.4-2.3,5.8-2.7c0.6-0.2,1.1-0.3,1.7-0.5c0.1,0,0.2,0,0.3,0.1
				C282.8,32.1,281.8,32.7,281.3,33.5z"/>
			<path class="st7" d="M293.3,41.9c0.3,0,0.7,0.1,0.9,0.2c-0.3,0.7-0.9,1.5-1.5,1.9c-0.1,0-0.1,0-0.2-0.1c0.1,0,0.1-0.1,0.2-0.1
				c-0.9,0.1-1.7,0.8-2.6,0.6c0,0,0-0.1,0.1-0.1c1.5-0.2,2.9-0.9,3.6-2c-0.1-0.1-0.4-0.1-0.6-0.3c0,0,0-0.1,0.1-0.1
				C293.2,42,293.2,42,293.3,41.9z"/>
			<path class="st7" d="M292.7,43.7c0,0,0,0.1,0,0.1C292.8,43.8,292.8,43.8,292.7,43.7C292.8,43.7,292.8,43.7,292.7,43.7z"/>
			<path class="st7" d="M271,43.2c0.1,0,0.2,0,0.3,0c-0.2,0.7-1.9,2.8-1,3.5c-0.1,0.1-0.1,0.3-0.2,0.4c0.1,0.1,0.1,0.1,0.2,0.2
				c0.2,0,0.5,0,0.7,0c-0.1,0.1-0.1,0.2-0.2,0.2c0,0,0,0.1,0,0.1c0.3,0,0.7,0,1-0.1c-0.1,0.4-0.1,0.9,0.3,1.1c0.4,0.2,3.6-0.8,4.2-1
				c3.8-1.3,8.5-2.3,12.9-2.8c2.1-0.2,3.9-0.1,5.6-0.2c0.9,0,1.5,0.4,1,1.2c-0.8,0.2-1.2,1.2-1.8,1.7c-0.3,0.2-0.6,0.4-0.9,0.6
				c-0.4-0.1-0.2-0.5-0.5-0.7c-0.3-0.2-1.6,0.6-2.3,0.5c0-0.2,0-0.4,0.1-0.5c0.2-0.1,0.2-0.1,0.3-0.2c-0.1-0.1-0.2-0.2-0.3-0.4
				c-0.3,0.1-0.5,0.2-0.5-0.2c0,0,0,0,0,0c-2.2-0.1-5.4,0.8-7,1.3c-0.6,0.2-1.7,0.2-2.1,0.6c0,0,0,0.1,0,0.1
				c0.4,0.2,0.8,0.4,1.2,0.6c-0.3,2.3-0.4,5.2-0.8,7.5c-0.3,1.3,0,2.7-0.2,3.9c-0.1,0.3,0.1,0.5,0.2,0.6c0.1,0.5-0.3,2-0.1,2.7
				c0.1,0.6-0.1,1.1-0.2,1.4c0,0.4,0.1,0.9,0.1,1.3c-0.1,1.3-0.4,3.1-0.8,4.4c0,0.7-0.1,1.3-0.1,2c-0.2,2-0.5,4-0.7,6
				c-0.1,0.5,0.1,1.1-0.1,1.4c-1.4,0.2-1.1,2.9-1.3,4.3c-0.3,2.2-2.2,8.8-3.9,9.5c-0.4-0.3-0.1-0.7-0.4-1.2
				c-0.2-0.1-0.4-0.2-0.5-0.4c0-0.7,0.4-1,0.2-1.6c-0.1-0.2-0.5-0.2-0.6-0.3c0-0.2,0-0.4-0.1-0.6c0.8-1.8,1.6-4.4,2.2-6.4
				c0.1-0.8,0.2-1.6,0.2-2.5c0.3-2.1,0.7-4.2,1-6.4c0.4-1.8,1.7-5.4,1-7.1c0.2,0,0.1,0.1,0.2-0.1c0.2-0.8-0.2-2.3,0.2-3
				c-0.1-0.2-0.2-0.2-0.4-0.3c0-0.2,0-0.4,0-0.5c0,0,0.1,0,0.1,0c0,0.2,0.1,0.3,0.1,0.5c0.1,0,0.1-0.1,0.2-0.1c0,0,0,0,0-0.1
				c0-0.3,0-0.6-0.1-0.9c-0.2-0.1-0.2,0-0.3-0.2c0,0,0.1-0.1,0.1-0.1c0.2,0,0.1,0.1,0.2,0c0-0.1,0-0.1,0.1-0.2c-0.3,0-0.2,0-0.3-0.2
				c0.1,0,0.2,0,0.3,0c-0.4-1.7-0.3-4.5-0.1-6.6c0.1-0.5,0.2-1.1,0.2-1.7c0.1-0.1,0.1-0.3,0.2-0.4c0.2-0.8,0.2-2.3,0-2.9
				c0.4-0.4-0.1-1,0.3-1.4c0.3,0.2,0.1,0.4,0.4,0.6c0,0,0.1,0,0.2,0c0.1-0.2,0.1-0.5,0.2-0.7c-0.1-0.1-0.1-0.1-0.1-0.2
				c-3.1,1.2-10.2,3-13.5,2.1c0-0.1,0-0.1,0-0.2c0.2-0.3,0.3-0.6,0.5-0.8c-0.1-0.3-0.2-0.4-0.3-0.6c0.9-0.5,0.8-1.5,1.3-2.5
				c0.1-0.3,0.4-0.3,0.6-0.5c0.2-0.4,0.4-0.8,0.6-1.2c0.2-0.3,0.6-0.1,0.8-0.2c0.5-0.4,1-0.9,1.5-1.3
				C270.2,43.6,270.6,43.4,271,43.2z"/>
			<path class="st7" d="M292.1,44.2c0,0,0.1,0,0.2,0c0,0.1,0,0.1-0.1,0.2c0,0,0,0-0.1,0C292.2,44.4,292.1,44.3,292.1,44.2z"/>
			<path class="st7" d="M271,46.5C271,46.5,271,46.5,271,46.5C271,46.5,271,46.5,271,46.5z"/>
			<path class="st7" d="M277,62C277,62,277,62,277,62C277,62.1,277.1,62.1,277,62z"/>
			<path class="st7" d="M276.9,63.2c0.1,0.1,0.1,0,0.1,0.2C276.9,63.3,276.9,63.2,276.9,63.2z"/>
			<path class="st7" d="M276.9,64.7c0,0,0,0.1,0,0.1C277,64.7,276.9,64.7,276.9,64.7z"/>
		</g>
		<g>
			<path class="st7" d="M123,22.4c0.2,0.1,0.1,0,0.2,0.2c0,0.3,0.1,0.6,0.1,0.9c0.7,0.2,1.2-0.1,1.8-0.1c1.4,1.3-0.3,4.7-0.7,6
				c-0.9,2.7-1.6,5.5-2.4,8.4c-0.4,1.5-0.6,2.8-1.1,4.1c-0.4,0.9-0.1,1.9-0.5,2.7c-0.2,0.1-0.3,0.3-0.5,0.4c-0.2,0.4,0,1-0.2,1.4
				l-2.4,1.9c0,0-0.1-0.1-0.1-0.1c0.1-0.9,0.6-1.8,0.9-2.6c0.6-1.8,0.7-3.2,1.2-5c0.3-1.2,0.6-2.2,0.8-3.4c0-0.5-0.4-0.7-0.6-1
				c0.2-0.4,0.8-2.3,0.5-2.8c-0.1-0.1,0,0-0.1-0.1c-0.2,0.8-1,1.4-1.4,2c-1.3,2-2.9,3.9-4.1,6c-0.4,0.7-1.5,2.4-2.3,2.4
				c-0.2-0.1-0.3-0.1-0.5-0.2c-0.3-1.3,0.2-2.6,0.3-4.2c0-3.3,0.3-8.2,0.8-11c0.2-1.3,0.4-2.6,0.6-3.9c0,0,0.1,0,0.2,0
				c0.1,0,0.1,0.1,0.2,0.1c-0.1,0.2-0.2,0.2-0.2,0.5c0,0,0.1,0.1,0.1,0.1c0.9,0.2,1.1,0.4,1.9,0.1c0,0.1,0,0.1,0,0.2
				c1.4,2.5-0.8,5.2-0.3,7.9c0,0,0.1,0,0.1,0.1c0.9-0.5,1.2-1.7,1.9-2.3c0,0,0.1,0.1,0.1,0.1c-0.2,0.2-0.3,0.5-0.5,0.7
				c0,0.3,0.1,0.4,0.2,0.5c0.3-0.1,0.6-0.1,0.9-0.2c0.5-1,1.4-1.8,2-2.6c0.7-1,1.1-2.1,1.9-3.1c0.7-0.9,1.6-1.7,1.4-3.4c0,0,0,0,0,0
				c0,0-0.1,0-0.1,0c-0.2,0.6-1,1.6-1.5,2c0,0-0.1-0.1-0.1-0.1C121.8,24,122.6,23.3,123,22.4z"/>
			<path class="st7" d="M121.1,25.1c0.2,0.1,0.1,0,0.1,0.3c-0.4,0.4-0.8,1.5-1.5,1.7c0,0,0,0,0,0C120.3,26.4,120.7,25.7,121.1,25.1z
				"/>
			<path class="st7" d="M98.3,26.6c0.5,0.2,0.5,0.6,0.9,0.9c0.5,0.4,1.4,0.2,1.8,0.8c0.9,1.5,0.2,3.3,0.1,4.8
				c0.1,0.7,0.2,1.4,0.3,2.1c0.1,0.8,0,1.2,0.3,1.7c0.6,0,2.3-0.9,2.6-1.2c0-0.4,1-0.4,1.4-0.6c0.7-0.5,3.5-2,3.6-2.8
				c0.4,0.2,1.3-0.6,1.8-0.1c0.4,0.5-0.1,1.5-0.1,2.2c0.1,0.4,0.1,0.8,0.2,1.1c-0.3,0.4-0.6,0.8-0.8,1.2c-1.8,2.2-4.4,3.7-6.4,5.7
				c-0.8,0.8-2,1.1-2.7,2.1c-0.6,0-0.9,0.2-1.4,0.1c-0.9,0.2-1.2-2.7-1.1-3.8c0.1-0.7-0.3-1.9-0.3-2.7c-0.2-2.4,0-4.2-0.4-6.2
				c-0.3-1.8,0.8-2.5-0.4-4.1c0.1-0.3,0.2-0.6,0.3-0.8C98,26.7,98.1,26.7,98.3,26.6z"/>
			<path class="st7" d="M119.3,27.8c0,0,0.1,0.1,0.1,0.1c0,0-0.1,0-0.1,0C119.2,27.9,119.2,27.8,119.3,27.8z"/>
			<path class="st7" d="M118.4,29c0.1,0,0.2,0,0.2,0.1c-0.3,0.5-0.7,1-1.1,1.4c0,0-0.1,0-0.1-0.1C117.7,29.8,118.1,29.5,118.4,29z"
				/>
			<path class="st7" d="M112.2,29.8c0,0,0.1,0,0.1,0c0,0.1,0,0.2-0.1,0.3c0,0,0-0.1,0-0.1C112.1,29.9,112.2,30,112.2,29.8z"/>
			<path class="st7" d="M109.3,31.1c0.1,0,0.1,0,0.1,0c-0.1,0.3-0.2,0.5-0.4,0.7c-0.1,0-0.2,0-0.2,0c0,0,0-0.1,0-0.1
				c0-0.1,0.1-0.2,0.1-0.3C109.1,31.3,109.2,31.2,109.3,31.1z"/>
			<path class="st7" d="M108.5,31.7c0.1,0,0.1,0.1,0.2,0.1c0,0,0,0.1,0,0.1C108.4,31.9,108.5,31.9,108.5,31.7z"/>
			<path class="st7" d="M108.2,32c0.1,0,0.1,0,0.2,0.1c0,0,0,0,0,0c-0.1,0-0.1,0.1-0.2,0.1C108.2,32.1,108.2,32.1,108.2,32
				C108.2,32,108.2,32,108.2,32z"/>
			<path class="st7" d="M108,32.3c0,0.2,0,0.3-0.4,0.3c0,0,0,0,0-0.1c0,0,0-0.1,0.1-0.1C107.8,32.4,107.9,32.3,108,32.3z"/>
			<path class="st7" d="M107.5,32.6c0.1,0,0.2,0,0.2,0c-0.1,0.2-0.1,0.1-0.2,0.2c0,0-0.1-0.1-0.1-0.1
				C107.4,32.7,107.4,32.7,107.5,32.6z"/>
			<path class="st7" d="M106.9,33.2c0,0,0.1,0.1,0.1,0.1c0,0,0,0-0.1,0c0,0-0.1,0-0.1-0.1C106.8,33.3,106.8,33.3,106.9,33.2
				C106.9,33.2,106.9,33.2,106.9,33.2z"/>
			<path class="st7" d="M106.4,33.6c0,0,0.1,0,0.1,0c0,0-0.1,0.1-0.1,0.1c-0.2,0.5-1,1-1.5,1.2c-0.2-0.1-0.1,0-0.1-0.2
				C105.3,34.4,105.9,34,106.4,33.6z"/>
			<path class="st7" d="M119.4,36.3c0,0.1,0.1,0.1,0.1,0.2c0,0-0.1,0-0.1-0.1C119.4,36.4,119.4,36.4,119.4,36.3z"/>
			<path class="st7" d="M119.3,36.7c0.1,0,0.1,0,0.2,0.1c-0.1,0-0.1,0.1-0.2,0.1c0,0-0.1,0-0.1-0.1
				C119.3,36.8,119.3,36.8,119.3,36.7z"/>
			<path class="st7" d="M119.3,37.1c0.1,0.2-0.1,0.8-0.2,1.1c0,0,0,0-0.1,0.1c0,0-0.1,0-0.1-0.1C118.9,37.7,119.1,37.4,119.3,37.1z"
				/>
			<path class="st7" d="M118.9,38.4c0.1,0.1,0.1,0.2,0.1,0.4c0,0.1-0.1,0.1-0.1,0.2c0,0-0.1,0-0.1,0
				C118.8,38.7,118.8,38.6,118.9,38.4z"/>
			<path class="st7" d="M118.6,39.5c0.2,0.2,0,0.8-0.2,1c0,0,0,0,0,0c0,0,0-0.1,0-0.1C118.4,40.1,118.5,39.8,118.6,39.5z"/>
			<path class="st7" d="M118.3,40.5c0,0.1,0.1,0.1,0.1,0.2c-0.1,0.3-0.2,0.6-0.3,0.9c0,0-0.1,0-0.1,0c0-0.1,0-0.1,0.1-0.2
				C118.1,41.1,118.2,40.7,118.3,40.5z"/>
			<path class="st7" d="M118.8,40.8c0.3,0.3-0.2,0.9-0.2,1.4c-0.1,1.1-1.1,4.8-1.7,5.4c0,0,0,0,0,0c0-0.2,0-0.3,0-0.5
				C117.7,45.3,118.3,42.9,118.8,40.8z"/>
			<path class="st7" d="M118,41.7c0.4,0.3-0.2,1.6-0.5,1.9c0,0-0.1-0.1-0.1-0.1C117.7,42.9,117.9,42.3,118,41.7z"/>
			<path class="st7" d="M117.5,43.6c0.4,0.4-0.7,2.3-1.1,2.6c0,0-0.1,0-0.1-0.1c0,0,0-0.1,0-0.1C116.8,45.6,117.2,44.4,117.5,43.6z"
				/>
			<path class="st7" d="M112,43.7c0.2,0.1,0.1,0.1,0.1,0.4c-0.2,0.3-0.4,0.7-0.6,1c0,0-0.1,0-0.1-0.1c0,0,0,0,0,0
				C111.5,44.6,111.7,44,112,43.7z"/>
			<path class="st7" d="M111.6,46.3c0.2,0,0.3,0,0.4-0.1c-0.1-0.2-0.1-0.5-0.1-0.8c0,0,0,0,0.1,0c0.2,0.2,0.4,0.4,0.7,0.3
				c0.4-0.2,0.8-0.5,1-1c0.1,0,0.1,0,0.2,0c-0.1,0.1-0.2,0.3-0.3,0.4c0,0.1,0,0.1,0,0.1c0.2,0,0.4,0.1,0.6,0.2
				c0.3,1.3-0.8,2.6-0.6,3.1c0.5,0.2,1.1,0.9,1.5,1.3c1.2,1,2.5,1.8,3.7,2.7c0.2,0.2,0.3,0.4,0.5,0.7c4.3,3.1,8.4,6.1,13.2,8.8
				c0.7,0.4,1.4,0.5,2.2,0.8c2.1,0.8,4.1,1.5,6.2,2.5c2.4,1.1,4.8,2.3,7.1,3.5c0.5,0.2,0.9,0.4,1.4,0.5c0.6,0.4,1.3,1,1.9,1.2
				c2.1,0.8,4.4,1.9,6.4,2.8c0.9,0.3,1.8,0.6,2.7,0.8c0.9,0.4,2.2,0.9,3.3,1.3c0.6,0.2,2.4,0.4,2.8,0.7c0,0.1,0,0.1-0.1,0.1
				c0.4-0.2,0.8-0.3,1.3-0.5c0,0.2,0.1,0.4,0.1,0.6c0.3,0,0.2-0.1,0.3,0.1c-0.5,0.2-0.8,0.5-1.4,0.6c-0.5,0.1-1-0.1-1.5,0
				c-0.3,0.2-0.6,0.5-1,0.7c-1.2,0.3-3.6-0.8-4.4-1.1c-2.4-1-4.6-1.6-6.9-2.5c-1.6-0.6-3.4-1.8-4.8-2.2c0,0,0,0,0,0
				c0.1-0.2,0.1-0.4,0.2-0.6c-0.7-0.1-0.9-0.4-1.4-0.5c0,0,0,0.1-0.1,0.1c0.2,0.3,0.6,0.4,1.1,0.4c0,0.1,0.1,0.2,0.1,0.3
				c0,0,0,0.1-0.1,0.1c-0.8,0-1.9-0.6-2.4-1c-0.1-0.1-0.2-0.3-0.2-0.4c-0.2,0-0.4,0-0.5,0c-1.9-0.8-3.6-2.6-5.9-2.6
				c-0.1-0.2-0.3-0.5-0.5-0.6c-0.9-0.2-1.8-0.3-2.7-0.7c-0.9-0.4-1.5-1.1-2.5-1.3c-0.1,0.1-0.2,0.2-0.3,0.3c-0.4-0.4-1-0.8-1.7-0.6
				c0-0.2,0-0.4,0-0.6c-0.3,0-0.3-0.1-0.5-0.2c0,0.1,0,0.2,0,0.3c-0.1,0-0.2,0-0.2,0c0,0-0.1,0-0.1-0.1c0-0.1-0.1-0.2-0.1-0.4
				c-0.4,0.1-0.5-0.1-0.7-0.4c-0.1-0.1-1.6-0.2-1.9-0.2c0,0,0,0,0,0c0-0.1,0-0.2,0.1-0.3c0.1,0.1,0.2,0.1,0.3,0.2
				c0.1-0.1,0.1-0.1,0.3-0.2c0,0,0-0.1,0-0.1c-0.3,0-0.6,0-0.8,0c0-0.1,0.1-0.2,0.1-0.3c-0.6-0.1-1.1-0.6-1.6-1
				c-0.2-0.1-1.6-1-1.7-0.9c-0.9-0.6-1.8-1.7-2.9-1.9c0,0,0,0,0,0.1c0,0.1,0.1,0.2,0.1,0.3c0.6,0.2,0.9,0.5,1.5,0.7
				c0,0.2,0,0.3-0.1,0.5c-1.8,0-2.4-1.5-3.6-2.2c-2.8-1.7-5.3-3.8-8-5.5c-1.3,0.5-1.7,3.4-2.7,4.3c-0.1,0-0.3,0-0.4,0
				c0-0.2-0.1-0.3-0.1-0.4c-0.2,0.3-1.2,1.1-1.5,1.2c0,0-0.1,0-0.1-0.1c0.1-0.5,0.5-0.9,0.6-1.3c0.6-1.3,1.2-2.7,1.8-4.1
				c0.6-1.2,1.8-2.5,1.9-4.2c-0.3,0-0.2,0.1-0.3-0.2c0.1,0,0.1-0.1,0.2-0.1c0,0,0-0.1,0-0.1c-0.3,0-0.4,0-0.4-0.2c0.2,0,0.4,0,0.5,0
				C111.2,47.1,111.5,46.9,111.6,46.3z"/>
			<path class="st7" d="M113,45c0,0,0.1,0,0.1,0c0,0.1,0,0.1-0.1,0.2C113,45.1,112.9,45.1,113,45C112.9,45,112.9,45,113,45z"/>
			<path class="st7" d="M111.9,45c0.1,0,0.1,0.1,0.2,0.1c0,0.1,0,0.1-0.1,0.2c0,0,0,0,0,0c0,0-0.1,0-0.1,0c0,0,0,0,0-0.1
				C111.8,45.1,111.8,45,111.9,45z"/>
			<path class="st7" d="M111.1,45.6c0,0,0.1,0,0.1,0c0,0.1,0,0.1-0.1,0.2C111.2,45.8,111.1,45.8,111.1,45.6
				C111.1,45.7,111.1,45.7,111.1,45.6z"/>
			<path class="st7" d="M110,48.3c0,0,0.1,0.1,0.1,0.1c-0.1,0-0.1,0.1-0.2,0.1c0,0,0,0,0,0C109.9,48.4,109.9,48.4,110,48.3z"/>
			<path class="st7" d="M110.8,48.3c0,0,0.1,0,0.1,0c-0.1,0.4-0.3,1-0.7,1.1c0,0,0,0,0-0.1C110.5,49,110.7,48.7,110.8,48.3z"/>
			<path class="st7" d="M110.1,49.8C110.2,49.8,110.2,49.8,110.1,49.8c0,0.7-0.5,1.9-1,2.2c0,0,0,0,0,0
				C109.2,51.3,109.7,50.4,110.1,49.8z"/>
			<path class="st7" d="M108.2,51.4c0.2,0.1,0.1,0.1,0.1,0.3c-0.1,0-0.1,0-0.2,0c0-0.1,0-0.1,0-0.2
				C108.1,51.6,108.2,51.5,108.2,51.4z"/>
			<path class="st7" d="M109,52.1c0,0,0.1,0,0.1,0c-0.1,0.9-0.8,1.6-1.2,2.2c-0.4,0.9-0.8,1.8-1.2,2.7c-0.2,0-0.1,0.1-0.2-0.1
				C107.3,55.3,108.3,53.8,109,52.1z"/>
			<path class="st7" d="M107.8,52.2c0,0,0.1,0,0.1,0c0,0.1,0,0.1,0,0.2c-0.1,0-0.1,0.1-0.2,0.1c0,0-0.1-0.1-0.1-0.1
				C107.8,52.3,107.8,52.2,107.8,52.2z"/>
			<path class="st7" d="M107.7,52.6c0.1,0.1,0.1,0.1,0,0.3c0,0-0.1,0-0.2,0C107.6,52.8,107.6,52.7,107.7,52.6z"/>
			<path class="st7" d="M107.4,53c0.1,0.1,0,0,0.1,0.2c0,0-0.1,0-0.1,0C107.4,53.1,107.4,53.1,107.4,53z"/>
			<path class="st7" d="M107.3,53.3c0.1,0.1,0.1,0,0,0.2c0,0,0,0-0.1,0C107.3,53.4,107.3,53.3,107.3,53.3z"/>
			<path class="st7" d="M107.2,53.5c0,0,0.1,0,0.1,0c0,0.1,0,0.1,0,0.2c0,0-0.1,0-0.2,0c0,0,0,0,0,0
				C107.2,53.7,107.2,53.6,107.2,53.5z"/>
			<path class="st7" d="M107.1,53.9c0,0,0.1,0,0.1,0c-0.1,0.2-0.2,0.3-0.3,0.5c0,0-0.1-0.1-0.1-0.1C106.9,54.2,107,54,107.1,53.9z"
				/>
			<path class="st7" d="M106.7,54.5c0,0,0.1,0,0.2,0c0,0.1,0,0.2,0,0.3c-0.1,0.1-0.2,0.2-0.4,0.3c-0.1,0-0.1,0-0.2,0
				C106.5,54.9,106.6,54.7,106.7,54.5z"/>
			<path class="st7" d="M110.4,56.2C110.4,56.2,110.5,56.2,110.4,56.2C110.4,56.3,110.5,56.2,110.4,56.2
				C110.4,56.2,110.4,56.2,110.4,56.2z"/>
			<path class="st7" d="M123.8,60.2c0.1,0,0.1,0.1,0.2,0.1c0,0,0,0.1-0.1,0.1c0,0,0,0,0,0C123.8,60.3,123.8,60.4,123.8,60.2z"/>
			<path class="st7" d="M124,60.6c0.1,0,0.3,0.1,0.4,0.1c0,0,0,0.1,0,0.1c0,0-0.1,0.1-0.1,0.1c-0.1,0-0.3,0-0.4,0c0,0,0-0.1,0-0.1
				C124,60.7,124,60.6,124,60.6z"/>
			<path class="st7" d="M123.7,60.6c0,0,0.1,0.1,0.1,0.1C123.8,60.7,123.8,60.6,123.7,60.6z"/>
			<path class="st7" d="M123.7,60.9c0.1,0,0.1,0.1,0.2,0.1c0,0-0.1,0-0.1,0C123.7,61,123.7,61,123.7,60.9
				C123.6,61,123.7,60.9,123.7,60.9z"/>
			<path class="st7" d="M124.7,61.1c0.2,0.1,0.6,0,0.7,0.3c-0.1,0-0.3,0-0.4-0.1C124.8,61.3,124.7,61.3,124.7,61.1z"/>
			<path class="st7" d="M125.4,61.4c0.1,0.1,0.2,0.1,0.2,0.2C125.5,61.5,125.5,61.5,125.4,61.4z"/>
			<path class="st7" d="M125.9,61.9C125.9,61.9,125.9,61.9,125.9,61.9C125.9,61.9,125.9,61.9,125.9,61.9z"/>
			<path class="st7" d="M127.3,62.8c0.2,0,0.2,0,0.2,0.1c0,0,0,0,0,0.1c0,0-0.1,0-0.1,0C127.4,62.9,127.4,62.8,127.3,62.8z"/>
			<path class="st7" d="M128.9,62.9c0.1,0.1,0.1,0.2,0.1,0C129,62.9,128.9,62.9,128.9,62.9z"/>
			<path class="st7" d="M127.9,63.2c0.2,0.1,0.1,0,0.2,0.2c-0.1,0-0.1,0-0.2,0C127.9,63.3,127.9,63.2,127.9,63.2z"/>
			<path class="st7" d="M130.2,64.2c0.2,0,0.3,0,0.4,0.1c0,0,0,0,0,0.1c-0.1,0-0.2,0-0.3,0C130.2,64.3,130.2,64.3,130.2,64.2
				C130.2,64.2,130.2,64.2,130.2,64.2z"/>
			<path class="st7" d="M166.3,72.9c0,0,0,0.1,0,0.1c-0.1,0-0.1,0-0.1,0C166.2,73.1,166.2,73,166.3,72.9
				C166.2,73,166.3,73,166.3,72.9z"/>
			<path class="st7" d="M165.9,73.3c0.1,0.1,0.1,0,0.1,0.2c-0.2,0.1-0.4,0.2-0.7,0.3c0-0.1,0-0.1,0-0.2
				C165.6,73.5,165.8,73.4,165.9,73.3z"/>
			<path class="st7" d="M162.1,74.4c0.1,0,0.3,0.1,0.4,0.1c0,0,0,0,0,0c-0.1,0-0.1,0-0.2,0c0,0-0.1,0-0.1-0.1
				C162.2,74.5,162.2,74.4,162.1,74.4z"/>
			<path class="st7" d="M164.7,74.5c0,0,0.1,0,0.1,0.1c0,0,0,0.1-0.1,0.1c-0.3,0-0.5,0.1-0.7,0C164.3,74.6,164.5,74.6,164.7,74.5z"
				/>
			<path class="st7" d="M162.9,74.6c0.1,0,0.2,0,0.3,0.1c0,0,0,0.1,0,0.1C163.1,74.7,163,74.7,162.9,74.6
				C162.9,74.6,162.9,74.6,162.9,74.6z"/>
			<path class="st7" d="M163.6,74.6c0.1,0,0.2,0,0.2,0.1c0,0,0,0.1-0.1,0.1C163.5,74.8,163.6,74.8,163.6,74.6
				C163.5,74.7,163.5,74.6,163.6,74.6z"/>
		</g>
	</g>
	<g>
		<path class="st0" d="M86.1,88.2h-1.5l-2.4-6.8l-2.5,6.8h-1.5l3.1-8.6H83L86.1,88.2z M84.3,84.8v1.4h-4.1v-1.4H84.3z"/>
		<path class="st0" d="M95.4,82.2c0-0.4-0.1-0.7-0.4-1c-0.2-0.3-0.6-0.5-1.2-0.5c-0.5,0-0.9,0.1-1.1,0.3c-0.2,0.2-0.3,0.5-0.3,0.7
			c0,0.3,0.1,0.5,0.3,0.7c0.2,0.2,0.5,0.3,0.7,0.4c0.3,0.1,0.6,0.2,1,0.3c0.4,0.1,0.9,0.3,1.3,0.5c0.4,0.2,0.7,0.5,1,0.9
			C97,85,97.1,85.5,97,86c-0.1,0.6-0.3,1.2-0.9,1.7c-0.5,0.5-1.3,0.7-2.2,0.7c-1,0-1.8-0.3-2.5-1c-0.6-0.7-0.9-1.4-0.9-2.1H92
			c0,0.5,0.2,0.9,0.5,1.3c0.4,0.3,0.8,0.5,1.3,0.5c0.5,0,0.9-0.1,1.1-0.3c0.3-0.2,0.4-0.4,0.5-0.7c0.1-0.3,0-0.5-0.1-0.7
			c-0.1-0.2-0.3-0.4-0.6-0.5c-0.4-0.2-0.7-0.3-1.1-0.4c-0.4-0.1-0.8-0.2-1.2-0.4c-0.5-0.2-0.9-0.5-1.2-0.9c-0.3-0.4-0.4-0.9-0.4-1.5
			c0-0.5,0.3-1.1,0.8-1.6c0.5-0.5,1.2-0.8,2.2-0.8c1.1,0,1.9,0.3,2.3,1c0.5,0.7,0.7,1.3,0.6,1.8H95.4z"/>
		<path class="st0" d="M97.3,81v-1.4h6.5V81h-2.6v7.2h-1.4V81H97.3z"/>
		<path class="st0" d="M111.2,88.2h-1.7l-2.2-3.3H106v3.3h-1.4v-8.6h3.4c0.8,0,1.4,0.2,1.9,0.7c0.5,0.5,0.8,1.1,0.8,1.8
			c0,0.6-0.2,1.2-0.5,1.7c-0.4,0.5-0.8,0.8-1.3,0.9L111.2,88.2z M107.7,83.3c0.4,0,0.7-0.1,1-0.3c0.3-0.2,0.4-0.5,0.4-0.9
			c0-0.4-0.1-0.7-0.4-0.9c-0.3-0.2-0.6-0.3-1-0.3H106v2.4H107.7z"/>
		<path class="st0" d="M117.5,79.6V81h-4.3v2.1h4.1v1.4h-4.1v2.3h4.4v1.4h-5.8v-8.6H117.5z"/>
		<path class="st0" d="M125.6,88.2h-1.5l-2.4-6.8l-2.5,6.8h-1.5l3.1-8.6h1.7L125.6,88.2z M123.7,84.8v1.4h-4.1v-1.4H123.7z"/>
		<path class="st0" d="M129.4,88.2l-1.6-5v5h-1.4v-8.6h1.7l2.1,6.7l2.1-6.7h1.7v8.6h-1.4v-5l-1.6,5H129.4z"/>
		<path class="st0" d="M140.2,83h-1.6v1.7h1.6V83z"/>
		<path class="st0" d="M148.2,84.9v-1.3h3.4v4.5h-1.4v-0.9c-0.2,0.3-0.4,0.5-0.8,0.8c-0.4,0.2-0.8,0.4-1.4,0.4c-1.1,0-2-0.4-2.7-1.3
			c-0.7-0.8-1-1.9-1-3.2c0-1.3,0.3-2.4,1-3.3c0.7-0.8,1.6-1.3,2.7-1.3c1.1,0,1.9,0.3,2.5,1c0.6,0.7,0.9,1.3,1,1.9h-1.6
			c-0.1-0.3-0.3-0.6-0.6-1c-0.3-0.3-0.7-0.5-1.3-0.5c-0.7,0-1.3,0.3-1.7,0.9c-0.4,0.6-0.6,1.3-0.6,2.2c0,0.9,0.2,1.7,0.6,2.3
			c0.4,0.6,1,0.9,1.7,0.9c0.7,0,1.1-0.2,1.5-0.7c0.3-0.5,0.5-0.9,0.6-1.3H148.2z"/>
		<path class="st0" d="M159.4,88.2h-1.7l-2.2-3.3h-1.2v3.3h-1.4v-8.6h3.4c0.8,0,1.4,0.2,1.9,0.7c0.5,0.5,0.8,1.1,0.8,1.8
			c0,0.6-0.2,1.2-0.5,1.7c-0.4,0.5-0.8,0.8-1.3,0.9L159.4,88.2z M156,83.3c0.4,0,0.8-0.1,1-0.3c0.3-0.2,0.4-0.5,0.4-0.9
			c0-0.4-0.1-0.7-0.4-0.9c-0.3-0.2-0.6-0.3-1-0.3h-1.7v2.4H156z"/>
		<path class="st0" d="M165.7,79.6V81h-4.3v2.1h4.1v1.4h-4.1v2.3h4.4v1.4H160v-8.6H165.7z"/>
		<path class="st0" d="M172.5,79.6V81h-4.3v2.1h4.1v1.4h-4.1v2.3h4.4v1.4h-5.8v-8.6H172.5z"/>
		<path class="st0" d="M175.1,82v6.2h-1.4v-8.6h1.7l3.3,6.2v-6.2h1.4v8.6h-1.7L175.1,82z"/>
		<path class="st0" d="M184.9,81v-1.4h6.5V81h-2.6v7.2h-1.4V81H184.9z"/>
		<path class="st0" d="M198.7,88.2H197l-2.2-3.3h-1.2v3.3h-1.4v-8.6h3.4c0.8,0,1.4,0.2,1.9,0.7c0.5,0.5,0.8,1.1,0.8,1.8
			c0,0.6-0.2,1.2-0.5,1.7c-0.4,0.5-0.8,0.8-1.3,0.9L198.7,88.2z M195.2,83.3c0.4,0,0.8-0.1,1-0.3c0.3-0.2,0.4-0.5,0.4-0.9
			c0-0.4-0.1-0.7-0.4-0.9c-0.3-0.2-0.6-0.3-1-0.3h-1.7v2.4H195.2z"/>
		<path class="st0" d="M205,79.6V81h-4.3v2.1h4.1v1.4h-4.1v2.3h4.4v1.4h-5.8v-8.6H205z"/>
		<path class="st0" d="M211.8,79.6V81h-4.3v2.1h4.1v1.4h-4.1v2.3h4.4v1.4h-5.8v-8.6H211.8z"/>
		<path class="st0" d="M217.7,84.7h-1.6V83h1.6V84.7z"/>
		<path class="st0" d="M229.2,85.3c-0.1,0.7-0.5,1.4-1.1,2.1c-0.6,0.7-1.4,1-2.5,1c-1.1,0-2-0.4-2.7-1.3c-0.7-0.8-1-1.9-1-3.3
			c0-1.3,0.3-2.4,1-3.3c0.7-0.8,1.6-1.3,2.7-1.3c1.1,0,2,0.4,2.5,1.1c0.6,0.7,0.9,1.4,1,2h-1.6c-0.1-0.3-0.3-0.7-0.6-1.1
			c-0.3-0.4-0.7-0.5-1.3-0.5c-0.7,0-1.2,0.3-1.7,0.9c-0.4,0.6-0.6,1.3-0.6,2.3c0,0.9,0.2,1.7,0.6,2.3c0.4,0.6,1,0.9,1.7,0.9
			c0.6,0,1-0.2,1.3-0.6c0.3-0.4,0.5-0.8,0.6-1.2H229.2z"/>
		<path class="st0" d="M231.5,84.4v3.8h-1.4v-8.6h1.4V83h3.5v-3.4h1.4v8.6H235v-3.8H231.5z"/>
		<path class="st0" d="M239.2,85.1c0,0.4,0.1,0.9,0.3,1.3c0.2,0.4,0.7,0.6,1.4,0.6c0.8,0,1.2-0.2,1.4-0.6c0.2-0.4,0.3-0.9,0.3-1.3
			v-5.5h1.4v5.9c0,0.9-0.3,1.6-0.9,2.1c-0.6,0.5-1.3,0.8-2.3,0.8c-1,0-1.7-0.3-2.3-0.8c-0.6-0.5-0.9-1.3-0.9-2.1v-5.9h1.4V85.1z"/>
		<path class="st0" d="M252,88.2h-1.7l-2.2-3.3h-1.2v3.3h-1.4v-8.6h3.4c0.8,0,1.4,0.2,1.9,0.7c0.5,0.5,0.8,1.1,0.8,1.8
			c0,0.6-0.2,1.2-0.5,1.7c-0.4,0.5-0.8,0.8-1.3,0.9L252,88.2z M248.6,83.3c0.4,0,0.8-0.1,1-0.3c0.3-0.2,0.4-0.5,0.4-0.9
			c0-0.4-0.1-0.7-0.4-0.9c-0.3-0.2-0.6-0.3-1-0.3h-1.7v2.4H248.6z"/>
		<path class="st0" d="M259.6,85.3c-0.1,0.7-0.5,1.4-1.1,2.1c-0.6,0.7-1.4,1-2.5,1c-1.1,0-2-0.4-2.7-1.3c-0.7-0.8-1-1.9-1-3.3
			c0-1.3,0.3-2.4,1-3.3c0.7-0.8,1.6-1.3,2.7-1.3c1.1,0,2,0.4,2.5,1.1c0.6,0.7,0.9,1.4,1,2H258c-0.1-0.3-0.3-0.7-0.6-1.1
			c-0.3-0.4-0.7-0.5-1.3-0.5c-0.7,0-1.2,0.3-1.7,0.9c-0.4,0.6-0.6,1.3-0.6,2.3c0,0.9,0.2,1.7,0.6,2.3c0.4,0.6,1,0.9,1.7,0.9
			c0.6,0,1-0.2,1.3-0.6c0.3-0.4,0.5-0.8,0.6-1.2H259.6z"/>
		<path class="st0" d="M262,84.4v3.8h-1.4v-8.6h1.4V83h3.5v-3.4h1.4v8.6h-1.4v-3.8H262z"/>
	</g>
</g>
</svg>
