<?xml version="1.0" encoding="utf-8"?>
<!-- Generator: Adobe Illustrator 27.2.0, SVG Export Plug-In . SVG Version: 6.00 Build 0)  -->
<svg version="1.1" id="Layer_1" xmlns="http://www.w3.org/2000/svg" xmlns:xlink="http://www.w3.org/1999/xlink" x="0px" y="0px"
	 viewBox="0 0 1000 1000" style="enable-background:new 0 0 1000 1000;" xml:space="preserve">
<style type="text/css">
	.st0{fill:#FFFFFF;}
</style>
<g>
	<g>
		<g>
			<path class="st0" d="M659.8,781.5c-0.9,0-1.8-0.1-2.7-0.4c-14.8-4.6-53.2-17.5-88.9-39c-37.5-22.6-60.9-47.8-69.5-74.8
				c-1.5-4.8,1.1-9.9,5.9-11.4c4.8-1.5,9.9,1.1,11.4,5.9c7.2,22.7,27.9,44.4,61.6,64.7c34,20.5,70.6,32.9,84.8,37.2
				c4.8,1.5,7.5,6.6,6,11.4C667.3,779,663.7,781.5,659.8,781.5z"/>
			<g>
				<g>
					<path class="st0" d="M507.5,673.6c-3.8,0-7.4-2.4-8.6-6.2c-13.4-40.1-5.8-77.3,1.6-113.3c1.6-8,3.3-16.3,4.7-24.3
						c2.2-12.5,3.9-26.3,5.2-41.1l-18.9-103.2c-2.2-10.6-0.2-21.5,5.7-30.6c5.9-9.1,15.1-15.4,25.7-17.7c10.7-2.3,21.6-0.3,30.9,5.6
						c9.4,6,15.8,15.1,18.1,25.8l35.7,172.8c6.1,20.2,11.1,37.5,15,51.4c1.3,4.8-1.5,9.9-6.3,11.2c-4.8,1.3-9.9-1.5-11.2-6.3
						c-3.9-13.9-8.9-31.2-15-51.4c-0.1-0.3-0.1-0.5-0.2-0.8l-35.8-173.2c-1.2-5.8-4.8-10.8-10-14.2c-5.3-3.3-11.4-4.5-17.4-3.2
						c-5.9,1.3-11,4.7-14.3,9.8c-3.3,5.1-4.4,11.1-3.1,17c0,0.1,0,0.2,0.1,0.3l19.1,104.6c0.1,0.8,0.2,1.6,0.1,2.4
						c-1.3,15.7-3.2,30.5-5.5,43.9c-1.4,8.3-3.2,16.8-4.8,24.9c-7.2,35.2-14,68.4-2.2,103.9c1.6,4.8-1,9.9-5.7,11.5
						C509.4,673.5,508.4,673.6,507.5,673.6z"/>
				</g>
			</g>
			<path class="st0" d="M758.5,841.1c-1,0-2.1-0.2-3.2-0.6l-105.7-39.1c-2.3-0.8-4.1-2.5-5.1-4.7c-1-2.2-1.1-4.7-0.3-7l79-213.8
				c1.7-4.7,7-7.1,11.7-5.4l203.4,75.2c4.7,1.7,7.1,7,5.4,11.7c-1.7,4.7-7,7.1-11.7,5.4l-194.9-72l-72.7,196.7l97.2,35.9
				c4.7,1.7,7.1,7,5.4,11.7C765.7,838.9,762.2,841.1,758.5,841.1z"/>
			<g>
				<g>
					<path class="st0" d="M674.2,601.7c-4.7,0-8.7-3.7-9.1-8.4l-9.9-138.5c0-0.3,0-0.6,0-0.9c0.1-4.7-2.3-23.1-3.5-26.6
						c0-0.1-0.1-0.2-0.1-0.3l-78.5-249.3c-10.7,1.8-26.8,6.9-31.3,18.9c-1.8,4.7-7,7.1-11.7,5.3c-4.7-1.8-7.1-7-5.3-11.7
						c11-29.4,52.6-31.4,54.4-31.4c4.1-0.2,7.8,2.4,9,6.4l80.7,256.3c2.1,6.2,4.5,25.9,4.5,32.4l9.9,138.1c0.4,5-3.4,9.4-8.4,9.7
						C674.6,601.7,674.4,601.7,674.2,601.7z"/>
				</g>
				<path class="st0" d="M718.1,623.5c-1.2,0-2.3-0.2-3.5-0.7c-2.2-0.9-5.3-2.1-8.9-3.5c-28.3-10.8-39.9-16.2-40.7-26
					c-0.4-5,3.3-9.4,8.3-9.8c4-0.3,7.6,2,9.1,5.5c4.5,3.6,22,10.3,29.7,13.3c3.7,1.4,6.9,2.6,9.3,3.7c4.6,1.9,6.8,7.3,4.9,11.9
					C725.1,621.4,721.7,623.5,718.1,623.5z"/>
				<path class="st0" d="M626.8,466C626.8,466,626.7,466,626.8,466c-5.1,0-9.1-4.1-9.1-9.2c0-4.8-2.8-23.6-4.1-27.1
					c-0.1-0.1-0.1-0.3-0.2-0.4l-69.9-222.5c-0.6-1.7-1.3-3.2-1.8-4.5c-8,0.8-18.3,3-23,6.9c-8.3,7.1-9.6,10.5-9.7,18.5
					c-0.1,8.4,2.3,19.5,6.6,31.3c0.1,0.2,0.1,0.3,0.2,0.5l25.3,82.3c1.5,4.8-1.2,9.9-6,11.4c-4.8,1.5-9.9-1.2-11.4-6l-25.2-82.1
					c-3.6-9.7-7.8-24.1-7.7-37.5c0.1-14,4.2-22.1,16.1-32.2c12.8-10.8,37.3-11.6,40.1-11.6c3.3-0.1,6.4,1.7,8,4.5
					c0.3,0.5,2.9,5.1,5.6,12.3c0.1,0.1,0.1,0.3,0.2,0.4l70,222.6c2.3,6.6,5.2,27.4,5.2,33.3C635.8,461.9,631.8,466,626.8,466z"/>
			</g>
		</g>
		<g>
			<path class="st0" d="M340.2,781.5c-3.9,0-7.5-2.5-8.7-6.4c-1.5-4.8,1.2-9.9,6-11.4c14.2-4.4,50.9-16.7,84.8-37.2
				c33.6-20.3,54.3-42.1,61.6-64.7c1.5-4.8,6.6-7.4,11.4-5.9c4.8,1.5,7.4,6.6,5.9,11.4c-8.6,27-32,52.1-69.5,74.8
				c-35.7,21.5-74,34.5-88.9,39C342,781.3,341.1,781.5,340.2,781.5z"/>
			<g>
				<g>
					<path class="st0" d="M492.5,673.6c-1,0-1.9-0.2-2.9-0.5c-4.8-1.6-7.3-6.7-5.7-11.5c11.9-35.5,5-68.7-2.2-103.9
						c-1.7-8.1-3.4-16.6-4.8-24.9c-2.3-13.4-4.2-28.2-5.5-43.9c-0.1-0.8,0-1.6,0.1-2.4L490.6,382c0-0.1,0-0.2,0.1-0.3
						c1.3-5.9,0.1-11.9-3.1-17c-3.3-5.1-8.4-8.6-14.3-9.8c-6-1.3-12.1-0.1-17.4,3.2c-5.2,3.3-8.8,8.4-10.1,14.2L410,545.5
						c-0.1,0.3-0.1,0.5-0.2,0.8c-6.1,20.3-11.1,37.6-15,51.4c-1.3,4.8-6.4,7.7-11.2,6.3c-4.8-1.3-7.7-6.4-6.3-11.2
						c3.9-13.9,8.9-31.2,15-51.4L428,368.6c2.3-10.7,8.7-19.9,18.1-25.8c9.3-5.9,20.3-7.9,30.9-5.6c10.7,2.3,19.8,8.6,25.7,17.7
						c5.9,9.1,7.9,20,5.7,30.6l-18.9,103.2c1.3,14.7,3,28.6,5.2,41.1c1.4,8.1,3.1,16.3,4.7,24.3c7.4,36,15,73.2,1.6,113.3
						C499.9,671.2,496.3,673.6,492.5,673.6z"/>
				</g>
			</g>
			<path class="st0" d="M241.5,841.1c-3.7,0-7.2-2.3-8.5-5.9c-1.7-4.7,0.7-9.9,5.4-11.7l97.2-35.9l-72.7-196.7l-194.9,72
				c-4.7,1.7-9.9-0.7-11.7-5.4c-1.7-4.7,0.7-9.9,5.4-11.7L265,570.6c4.7-1.7,9.9,0.7,11.7,5.4l79,213.8c1.7,4.7-0.7,9.9-5.4,11.7
				l-105.7,39.1C243.6,841,242.5,841.1,241.5,841.1z"/>
			<g>
				<g>
					<path class="st0" d="M325.8,601.7c-0.2,0-0.4,0-0.7,0c-5-0.4-8.8-4.7-8.4-9.7l9.9-138.1c0-6.4,2.4-26.2,4.5-32.4l80.7-256.3
						c1.2-3.9,4.9-6.5,9-6.4c1.8,0.1,43.4,2,54.4,31.4c1.8,4.7-0.6,9.9-5.3,11.7c-4.7,1.8-9.9-0.6-11.7-5.3
						c-4.8-12.7-21.7-17.3-31.3-18.8l-78.5,249.2c0,0.1-0.1,0.2-0.1,0.3c-1.2,3.5-3.6,21.8-3.5,26.6c0,0.3,0,0.6,0,0.9l-9.9,138.5
						C334.6,598.1,330.6,601.7,325.8,601.7z"/>
				</g>
				<path class="st0" d="M281.9,623.5c-3.6,0-6.9-2.1-8.4-5.6c-1.9-4.6,0.3-10,4.9-11.9c2.5-1,5.7-2.2,9.3-3.7
					c7.7-2.9,25.3-9.7,29.7-13.3c1.5-3.5,5.1-5.8,9.1-5.5c5,0.4,8.7,4.8,8.3,9.8c-0.8,9.8-12.4,15.2-40.7,26
					c-3.6,1.4-6.6,2.5-8.9,3.5C284.2,623.3,283.1,623.5,281.9,623.5z"/>
				<path class="st0" d="M373.2,466c-5,0-9.1-4-9.1-9c0-5.9,2.9-26.7,5.2-33.3l70-222.6c0-0.1,0.1-0.3,0.2-0.4
					c2.7-7.3,5.3-11.8,5.6-12.3c1.7-2.9,4.7-4.6,8-4.5c2.8,0,27.3,0.8,40.1,11.6c11.9,10.1,15.9,18.2,16.1,32.2
					c0.1,13.5-4.1,27.8-7.7,37.5l-25.2,82.1c-1.5,4.8-6.6,7.5-11.4,6c-4.8-1.5-7.5-6.6-6-11.4l25.3-82.3c0.1-0.2,0.1-0.3,0.2-0.5
					c4.4-11.7,6.7-22.8,6.6-31.3c-0.1-8.1-1.4-11.5-9.7-18.5c-4.8-4.1-15.4-6.1-23-6.9c-0.6,1.3-1.2,2.8-1.8,4.4l-69.9,222.5
					c0,0.1-0.1,0.3-0.2,0.4c-1.3,3.5-4.2,22.3-4.1,27.1C382.4,461.8,378.3,465.9,373.2,466C373.3,466,373.2,466,373.2,466z"/>
			</g>
		</g>
	</g>
</g>
</svg>
