<?xml version="1.0" encoding="utf-8"?>
<!-- Generator: Adobe Illustrator 27.2.0, SVG Export Plug-In . SVG Version: 6.00 Build 0)  -->
<svg version="1.1" id="Layer_1" xmlns="http://www.w3.org/2000/svg" xmlns:xlink="http://www.w3.org/1999/xlink" x="0px" y="0px"
	 viewBox="0 0 1000 1000" style="enable-background:new 0 0 1000 1000;" xml:space="preserve">
<style type="text/css">
	.st0{fill:#FFFFFF;}
</style>
<g>
	<path class="st0" d="M344.7,641.4c-48.9,0-88.8-39.8-88.8-88.8s39.8-88.8,88.8-88.8s88.8,39.8,88.8,88.8S393.7,641.4,344.7,641.4z
		 M344.7,488.1c-35.6,0-64.6,29-64.6,64.6c0,35.6,29,64.6,64.6,64.6c35.6,0,64.6-29,64.6-64.6C409.3,517,380.3,488.1,344.7,488.1z"
		/>
	<path class="st0" d="M177.9,934.2c-6.7,0-12.1-5.4-12.1-12.1V708.5c0-21.1,13.2-40.4,32.9-48l67.1-26c6.2-2.4,13.2,0.7,15.6,6.9
		c2.4,6.2-0.7,13.2-6.9,15.6l-67.1,26c-10.4,4-17.5,14.3-17.5,25.5v213.7C190,928.8,184.6,934.2,177.9,934.2z"/>
	<path class="st0" d="M511.5,934.2c-6.7,0-12.1-5.4-12.1-12.1V708.5c0-11.2-7-21.4-17.5-25.5l-67.1-26c-6.2-2.4-9.3-9.4-6.9-15.6
		c2.4-6.2,9.4-9.3,15.6-6.9l67.1,26c19.7,7.6,32.9,26.9,32.9,48v213.7C523.6,928.8,518.2,934.2,511.5,934.2z"/>
	<path class="st0" d="M242.4,934.2c-6.7,0-12.1-5.4-12.1-12.1V789.7c0-6.7,5.4-12.1,12.1-12.1c6.7,0,12.1,5.4,12.1,12.1v132.4
		C254.4,928.8,249,934.2,242.4,934.2z"/>
	<path class="st0" d="M447.1,934.2c-6.7,0-12.1-5.4-12.1-12.1V789.7c0-6.7,5.4-12.1,12.1-12.1c6.7,0,12.1,5.4,12.1,12.1v132.4
		C459.1,928.8,453.7,934.2,447.1,934.2z"/>
	<path class="st0" d="M655.3,534.2c-48.9,0-88.8-39.8-88.8-88.8s39.8-88.8,88.8-88.8c48.9,0,88.8,39.8,88.8,88.8
		S704.2,534.2,655.3,534.2z M655.3,380.8c-35.6,0-64.6,29-64.6,64.6c0,35.6,29,64.6,64.6,64.6c35.6,0,64.6-29,64.6-64.6
		C719.9,409.8,690.9,380.8,655.3,380.8z"/>
	<path class="st0" d="M552.9,827c-6.7,0-12.1-5.4-12.1-12.1V682.5c0-6.7,5.4-12.1,12.1-12.1c6.7,0,12.1,5.4,12.1,12.1v132.4
		C565,821.6,559.6,827,552.9,827z"/>
	<path class="st0" d="M757.6,827c-6.7,0-12.1-5.4-12.1-12.1V682.5c0-6.7,5.4-12.1,12.1-12.1c6.7,0,12.1,5.4,12.1,12.1v132.4
		C769.7,821.6,764.3,827,757.6,827z"/>
	<path class="st0" d="M511.5,827c-6.7,0-12.1-5.4-12.1-12.1V708.5c0-10.6-6.3-20.3-15.9-24.7c-4.3-2-7-6.3-7-11v-71.6
		c0-21.1,13.2-40.4,32.9-48l67.1-26c6.2-2.4,13.2,0.7,15.6,6.9c2.4,6.2-0.7,13.2-6.9,15.6l-67.1,26c-10.4,4-17.5,14.3-17.5,25.5
		v64.5c14.2,9.4,23,25.5,23,42.7v106.4C523.6,821.6,518.2,827,511.5,827z"/>
	<path class="st0" d="M822.1,827c-6.7,0-12.1-5.4-12.1-12.1V601.2c0-11.2-7-21.4-17.5-25.5l-67.1-26c-6.2-2.4-9.3-9.4-6.9-15.6
		c2.4-6.2,9.4-9.3,15.6-6.9l67.1,26c19.7,7.6,32.9,26.9,32.9,48v213.7C834.1,821.6,828.7,827,822.1,827z"/>
	<path class="st0" d="M224.1,477.7c-2.6,0-5.2-0.9-7.4-2.5c-4-3.1-5.6-8.3-4.1-13.1l26.4-84.8c-5.7-10.9-8.6-22.3-8.6-33.9
		c0-57.1,66.8-101.8,152.1-101.8c85.3,0,152.1,44.7,152.1,101.8c0,57.1-66.8,101.8-152.1,101.8c-27.7,0-54.6-4.9-78.2-14.3
		l-73.8,45.2C228.5,477.1,226.3,477.7,224.1,477.7z M382.4,265.7c-69.3,0-127.9,35.5-127.9,77.6c0,8.8,2.6,17.6,7.9,26.2
		c1.8,3,2.2,6.5,1.2,9.9l-18.4,59.2l51.7-31.6c3.4-2.1,7.6-2.4,11.2-0.7c21.9,9.7,47.6,14.8,74.4,14.8c69.3,0,127.9-35.5,127.9-77.6
		C510.3,301.3,451.7,265.7,382.4,265.7z"/>
	<circle class="st0" cx="380.5" cy="345.1" r="24.5"/>
	<circle class="st0" cx="457.2" cy="345.1" r="24.5"/>
	<path class="st0" d="M328.3,345.1c0,13.5-11,24.5-24.5,24.5c-13.5,0-24.5-11-24.5-24.5c0-13.5,11-24.5,24.5-24.5
		C317.3,320.7,328.3,331.6,328.3,345.1z"/>
	<path class="st0" d="M799.8,302c-2.2,0-4.4-0.6-6.3-1.8L719.7,255c-23.6,9.4-50.5,14.3-78.2,14.3c-85.3,0-152.1-44.7-152.1-101.8
		c0-57.1,66.8-101.8,152.1-101.8c85.3,0,152.1,44.7,152.1,101.8c0,11.6-2.9,23-8.6,33.9l26.3,84.8c1.5,4.8-0.1,10-4.1,13.1
		C805,301.1,802.4,302,799.8,302z M720.8,229.4c2.2,0,4.4,0.6,6.3,1.8l51.7,31.6l-18.4-59.2c-1-3.3-0.6-6.9,1.2-9.9
		c5.2-8.6,7.9-17.4,7.9-26.2c0-42.1-58.6-77.6-127.9-77.6c-69.4,0-127.9,35.5-127.9,77.6c0,42.1,58.6,77.6,127.9,77.6
		c26.8,0,52.5-5.1,74.4-14.8C717.4,229.7,719.1,229.4,720.8,229.4z"/>
	<path class="st0" d="M618.9,169.4c0,13.5,11,24.5,24.5,24.5c13.5,0,24.5-11,24.5-24.5c0-13.5-11-24.5-24.5-24.5
		C629.9,144.9,618.9,155.9,618.9,169.4z"/>
	<path class="st0" d="M542.3,169.4c0,13.5,11,24.5,24.5,24.5c13.5,0,24.5-11,24.5-24.5c0-13.5-11-24.5-24.5-24.5
		C553.2,144.9,542.3,155.9,542.3,169.4z"/>
	<path class="st0" d="M695.6,169.4c0,13.5,11,24.5,24.5,24.5c13.5,0,24.5-11,24.5-24.5c0-13.5-11-24.5-24.5-24.5
		C706.6,144.9,695.6,155.9,695.6,169.4z"/>
</g>
</svg>
