<?xml version="1.0" encoding="utf-8"?>
<!-- Generator: Adobe Illustrator 27.2.0, SVG Export Plug-In . SVG Version: 6.00 Build 0)  -->
<svg version="1.1" id="Layer_1" xmlns="http://www.w3.org/2000/svg" xmlns:xlink="http://www.w3.org/1999/xlink" x="0px" y="0px"
	 viewBox="0 0 1000 1000" style="enable-background:new 0 0 1000 1000;" xml:space="preserve">
<style type="text/css">
	.st0{fill:#FFFFFF;}
</style>
<g>
	<path class="st0" d="M492.6,309.5C528,291.3,557,270,589.5,261c46.9-13,93.1,12.2,116.1,53.9c22.8,41.4,18.9,94.4-13.8,128.5
		c-55,57.4-111.8,113.2-168.4,169.1c-15.2,15-32.6,15-48-0.3c-55.2-54.9-111.4-109-164.7-165.8c-42.1-44.8-39.3-114.6,2.4-156.1
		c43.4-43.2,110.5-43.9,157.7-1.5C479.9,296.9,488.5,305.6,492.6,309.5z"/>
	<path class="st0" d="M596.7,823.1c0-48.1-1.4-93,0.9-137.8c0.6-12.5,10.3-25.9,18.8-36.3c31.8-38.7,65-76.2,97.4-114.3
		c12.4-14.6,26.3-23.9,44.4-11c16.8,12.1,14.4,28.5,4.8,43.7c-21.8,34.7-44.3,69-66.8,103.2c-7.3,11.1-18,22.5-3.2,34.1
		c14.7,11.4,24.3,0,31.8-11.5c23.6-36.4,47.6-72.7,69.9-109.9c16.9-28.1,15.4-55.9-6.2-82.2c-3.8-4.6-6-13.9-4.1-19.2
		c10.1-28.6,21.5-56.7,33.1-84.8c6.7-16.3,19.4-24.9,37.1-21.6c17.8,3.4,26.3,16.5,26.1,33.9c-1.1,86.2-1.2,172.4-5.2,258.4
		c-0.9,19.5-12.5,41.4-25.6,56.7c-29.3,34.1-57.6,75.8-95.9,93.6c-34.6,16-82,4.4-123.8,4.9C618.8,823.2,607.4,823.1,596.7,823.1z"
		/>
	<path class="st0" d="M406.2,823c-51,0-101.7,0.4-152.3-0.5c-6.1-0.1-13.2-5.7-18.1-10.6c-27.9-27.8-55.3-56.1-82.9-84.2
		c-19.4-19.7-28.7-43.4-29.2-70.9c-1.3-79.6-2.7-159.2-4.5-238.8c-0.5-21,4.6-38.7,27.7-42.5c21.9-3.7,32.4,11.4,39.3,29.6
		c5.9,15.3,11.4,30.8,18.1,45.7c10.2,22.7,17.4,42.3-1.6,67.2c-9.3,12.1-8.7,40.3-0.9,55.2c22.7,43.4,50.5,84.2,78.1,124.8
		c4,5.9,19.9,9.8,26.2,6.6c13.2-6.7,8.4-18.5,1.1-29.2c-21.6-31.9-42.8-64-63.9-96.3c-4-6.1-10.1-13.3-9.6-19.5
		c1-12.6,2.4-28.1,10.1-36.4c11-12,26.1-6.3,36.5,5.6c36.7,42.1,73.7,83.8,108.8,127.2c9.2,11.4,15.6,28,16.4,42.6
		C407.7,738.5,406.2,778.7,406.2,823z"/>
	<path class="st0" d="M406.6,860.5c0.9,3.2,2.1,5.5,2.1,7.8c0.5,81.4,7.9,67.8-64.1,68.8c-24.6,0.4-49.2-0.3-73.9,0.1
		c-15.6,0.3-21.6-7.4-22.9-22.3c-4.9-57.1-5.2-57.1,51.3-57c33.6,0,67.3,0.3,100.9,0.5C401.6,858.4,403.1,859.3,406.6,860.5z"/>
	<path class="st0" d="M591.2,858c51.5,0,99,0,146.4,0.1c3.2,0,9.2,0.7,9.2,1.5c1.9,20.7,4.9,41.7,3.4,62.2
		c-0.4,5.7-14.7,14.3-23,14.6c-37.7,1.6-75.5,0.5-113.2,0.8c-15,0.1-23.2-5.9-22.9-21.7C591.5,897.5,591.2,879.6,591.2,858z"/>
	<path class="st0" d="M670.5,130.1c-17.1,26.8-31.4,52.5-49.4,75.2c-4.4,5.5-23.7,5.7-31,0.7c-8.3-5.7-17.8-22.8-14.8-29.8
		c10.8-25.2,25.3-49.3,41.7-71.4c4.2-5.6,22.2-5.7,31-1.8C656.7,106.9,661.7,119,670.5,130.1z"/>
	<path class="st0" d="M469.9,121.9c0-10.7-1.2-21.5,0.3-32c2.3-16.5,12.1-27.1,29.6-27.3c17.5-0.2,28.6,10.1,29.9,26.7
		c1.8,22,1.9,44.4,0,66.4c-1.5,17.6-13.2,28.1-32,27c-17.7-1-26.3-12.3-27.9-28.8c-1-10.6-0.2-21.3-0.2-32
		C469.8,121.9,469.9,121.9,469.9,121.9z"/>
	<path class="st0" d="M433.9,181.3c-10.6,11.6-17.2,25-26.4,27.2c-10.5,2.5-28.2-1.2-34.3-8.9c-14-17.6-25.5-38.5-32.8-59.9
		c-3.2-9.4,3.1-26.1,10.7-33.7c5.6-5.6,26.3-6.5,30.4-1.5C400.2,127.6,415.4,153.5,433.9,181.3z"/>
</g>
</svg>
