<?xml version="1.0" encoding="utf-8"?>
<!-- Generator: Adobe Illustrator 27.2.0, SVG Export Plug-In . SVG Version: 6.00 Build 0)  -->
<svg version="1.1" id="Layer_1" xmlns="http://www.w3.org/2000/svg" xmlns:xlink="http://www.w3.org/1999/xlink" x="0px" y="0px"
	 viewBox="0 0 1000 1000" style="enable-background:new 0 0 1000 1000;" xml:space="preserve">
<style type="text/css">
	.st0{fill:#FFFFFF;}
</style>
<g>
	<g>
		<polygon class="st0" points="939.7,865.1 60.3,865.1 124.5,742.7 197.5,717 273.2,574.1 332.8,648.4 365.9,657.9 419.6,727.4 
			454.8,738.6 444.2,772.1 398.5,757.6 345.1,688.5 312.4,679.1 279.2,637.7 222.1,745.5 149.2,771.3 118.4,829.9 879.7,829.9 
			807.6,701.5 735.2,674.9 691.7,549.7 617.3,513.9 561.3,436.1 480,525.4 419,525.4 353.4,616.2 325,595.6 401.1,490.3 
			464.5,490.3 564.5,380.3 640.5,486.1 720,524.4 762.9,647.7 831.9,673 		"/>
	</g>
	<g>
		<rect x="545.4" y="152.5" class="st0" width="35.1" height="192.5"/>
	</g>
	<g>
		<path class="st0" d="M801.3,275.8H545.4V134.9h255.9l-76.4,70.4L801.3,275.8z M580.5,240.6h130.9l-38.3-35.3l38.3-35.3H580.5
			V240.6z"/>
	</g>
	<g>
		<path class="st0" d="M312.4,432.2H89.3v-35.1h223.1c33.5,0,60.7-27.2,60.7-60.7c0-33.5-27.2-60.7-60.7-60.7
			c-31.6,0-58.1,24.7-60.4,56.2l-2.2,29.9l-25-16.6c-4.6-3.1-10-4.7-15.5-4.7c-15.6,0-28.2,12.7-28.2,28.2h-35.1
			c0-34.9,28.4-63.4,63.4-63.4c4.1,0,8.2,0.4,12.2,1.2c12.6-38.4,49-66,90.9-66c52.8,0,95.8,43,95.8,95.8
			C408.2,389.2,365.2,432.2,312.4,432.2z"/>
	</g>
</g>
</svg>
