<?xml version="1.0" encoding="utf-8"?>
<!-- Generator: Adobe Illustrator 27.2.0, SVG Export Plug-In . SVG Version: 6.00 Build 0)  -->
<svg version="1.1" id="Layer_1" xmlns="http://www.w3.org/2000/svg" xmlns:xlink="http://www.w3.org/1999/xlink" x="0px" y="0px"
	 viewBox="0 0 1000 1000" style="enable-background:new 0 0 1000 1000;" xml:space="preserve">
<style type="text/css">
	.st0{fill:#FFFFFF;}
	.st1{fill:none;stroke:#536B3A;stroke-width:2.4858;stroke-miterlimit:10;}
	.st2{fill:none;stroke:#2D5D36;stroke-width:1.2429;stroke-miterlimit:10;}
	.st3{fill:none;stroke:#306039;stroke-width:2.1216;stroke-miterlimit:10;}
</style>
<g>
	<g>
		<path class="st0" d="M535.2,514.4c0,0,19.1-135.1-98.6-158.3C318.9,332.9,318.9,410,318.9,410s-11.6,63.8,94.5,75.4
			C519.5,497,535.2,514.4,535.2,514.4z"/>
		<path class="st0" d="M535.1,516.1c0,0-19.1-135.1,98.6-158.3c117.7-23.2,117.7,53.9,117.7,53.9s11.6,63.8-94.5,75.4
			C550.9,498.7,535.1,516.1,535.1,516.1z"/>
		<path class="st0" d="M531.9,503.6c0,0,14.1,159.9-7.5,196.4l24.9,4.1c0,0,3.3-136.7-7.5-203.8"/>
		<g>
			<path class="st1" d="M545.1,490.8c0,0,85.1-99.4,193.3-95.7"/>
			<path class="st1" d="M517.2,488.9c0,0-51-82.7-165.9-99.4"/>
		</g>
	</g>
	<g>
		<path class="st0" d="M264.8,536.8c0,0-22.4-167.8,57.2-217.5c84.4-52.7,146.7-9.9,160.3,13.7c13.7,23.6,24.9,74.6-99.4,116.8
			S264.8,536.8,264.8,536.8z"/>
		<g>
			<path class="st0" d="M266,531.8c0,0-3.7-147.9-116.8-169S14.9,411.2,14.9,421.2c0,0-16.2,70.8,101.9,75.8S266,531.8,266,531.8z"
				/>
		</g>
		<g>
			<path class="st2" d="M271,493.3c0,0,83.3-159.7,195.8-150.4"/>
			<path class="st2" d="M254.2,510c0,0-96.9-111.9-210.7-92"/>
		</g>
		<path class="st0" d="M257.3,514.4c0,0,13.7,147.9-5,205.1h31.1c0,0-21.1-166.5-13.7-220L257.3,514.4z"/>
	</g>
	<g>
		<g>
			<path class="st0" d="M821.6,478.6c0,0-26.9-21.2-72.1-19.8c-45.3,1.4-141.4,1.4-134.4-69.3C622.1,318.8,773.5,320.2,821.6,478.6z
				"/>
			<path class="st0" d="M814.2,476.1c0,0-24-108.9,21.2-162.7c45.3-53.7,121.6-46.7,141.4-7.1c19.8,39.6,7.1,77.8-39.6,100.4
				C890.5,429.5,865.1,423.8,814.2,476.1z"/>
			<path class="st0" d="M811.7,468.4c0,0,19.1,172.9-18.7,256.7h32.5c0,0,11.3-155.6-5.7-264.5"/>
		</g>
		<path class="st3" d="M819.1,452.4c0,0,45.6-136.8,128.4-142.1"/>
		<path class="st3" d="M804.3,453.5c0,0-56.2-69-164.4-63.7"/>
	</g>
</g>
</svg>
