<?xml version="1.0" encoding="utf-8"?>
<!-- Generator: Adobe Illustrator 27.2.0, SVG Export Plug-In . SVG Version: 6.00 Build 0)  -->
<svg version="1.1" xmlns="http://www.w3.org/2000/svg" xmlns:xlink="http://www.w3.org/1999/xlink" x="0px" y="0px"
	 viewBox="0 0 1000 358.2" style="enable-background:new 0 0 1000 358.2;" xml:space="preserve">
<style type="text/css">
	.st0{fill:#FFFFFF;}
	.st1{fill:#3F3C3D;}
	.st2{fill:#E2746D;}
	.st3{fill:#5A585A;}
	.st4{fill:#999B9E;}
	.st5{fill:none;stroke:#FFFFFF;stroke-width:2.7482;stroke-miterlimit:10;}
</style>
<g id="Layer_1">
	<path class="st0" d="M898.2,148.6l2.1,9.5h2.3l2.7-11.5c0.2-0.8,0.4-1.5,0.6-2.1h-2.6c0,0.4-0.1,1.1-0.3,2.1l-1.6,8.2l-2.2-10.2h-2
		l-2.2,10.2l-1.7-8.2c-0.2-0.6-0.3-1.3-0.4-2.1h-2.6c0.3,0.9,0.5,1.6,0.6,2.1l2.7,11.5h2.4L898.2,148.6z"/>
	<polygon class="st0" points="806.9,156.8 806.9,168.4 809.2,168.4 809.2,156.8 812.7,156.8 812.7,154.8 803.3,154.8 803.3,156.8 	
		"/>
	<path class="st0" d="M703.9,240.9h6.9c0.4,0.1,0.8,0.3,1,0.7c0.3,0.4,0.4,0.7,0.4,1.1c0,0.5-0.2,1-0.6,1.3
		c-0.4,0.3-0.9,0.5-1.6,0.5h-6.2v2.2h6.3c1.2,0,2.1-0.3,2.8-1c0.7-0.6,1.1-1.5,1.1-2.6c0-0.8-0.3-1.5-0.8-2.2h4.3v-2.4
		c-1,0.1-2.2,0.1-3.7,0.1h-10.1V240.9z M705.5,233.7c0-0.7,0.3-1.3,0.9-1.7c0.6-0.4,1.3-0.6,2.1-0.6c1,0,1.8,0.2,2.5,0.6
		c0.6,0.4,1,1,1,1.8c0,0.8-0.3,1.4-0.8,2.1l1.6,1.1c0.8-0.9,1.2-2,1.2-3.3c0-1.4-0.5-2.6-1.5-3.4c-1-0.8-2.3-1.2-3.7-1.2
		c-1.5,0-2.8,0.4-3.8,1.2c-1,0.8-1.5,1.9-1.5,3.3c0,1.6,0.5,2.8,1.6,3.7l1.4-1C705.9,235.6,705.5,234.8,705.5,233.7 M703.9,225.6
		h6.4c0.7,0.1,1.1,0.4,1.4,0.9c0.3,0.5,0.4,1.1,0.1,1.8l2.2,0.4c0.1-0.6,0.1-1.2-0.1-1.8c-0.2-0.6-0.6-1-1-1.4h0.9v-2.4
		c-1.1,0.1-2.2,0.1-3.2,0.1h-6.8V225.6z M704.4,214c-0.6,0.6-0.9,1.4-0.9,2.5c0,1,0.4,1.8,1.1,2.5c-0.3,0-0.6,0.1-0.8,0.2v2
		c0.7-0.2,1.5-0.3,2.2-0.3h7.9v-2.4c-1,0.1-2,0.1-3.2,0.1h-2.7c-0.7,0-1.3-0.2-1.7-0.5c-0.5-0.4-0.7-0.8-0.7-1.2
		c0-0.5,0.2-0.9,0.5-1.1c0.3-0.2,0.8-0.4,1.5-0.4h6.4v-2.4c-1,0.1-2,0.1-3.2,0.1h-3.5C706,213.2,705.1,213.5,704.4,214 M703.9,205.4
		h6.9c0.4,0.1,0.8,0.3,1,0.7c0.3,0.4,0.4,0.7,0.4,1.1c0,0.5-0.2,1-0.6,1.3c-0.4,0.3-0.9,0.5-1.6,0.5h-6.2v2.2h6.3
		c1.2,0,2.1-0.3,2.8-1c0.7-0.6,1.1-1.5,1.1-2.6c0-0.8-0.3-1.5-0.8-2.2h4.3V203c-1,0.1-2.2,0.1-3.7,0.1h-10.1V205.4z M705.6,197.5
		c0-1.3,0.5-2.2,1.4-2.9c0.9-0.6,2.2-0.9,3.7-0.9c1.4,0,2.6,0.3,3.6,1c1,0.6,1.5,1.5,1.5,2.7c0,0.5-0.1,1-0.3,1.4
		c-0.2,0.4-0.5,0.9-1,1.4l1.6,1.2c1.1-1.2,1.6-2.5,1.6-4c0-1.9-0.7-3.3-2.1-4.4c-1.4-1-3.1-1.6-5.2-1.6c-2,0-3.7,0.5-4.9,1.5
		c-1.3,1-1.9,2.5-1.9,4.3c0,1.6,0.5,3.1,1.6,4.3l1.7-1.1C706.1,199.5,705.6,198.5,705.6,197.5"/>
	<path class="st0" d="M571.5,142v-5.5h-2.4c0.1,1,0.1,2.2,0.1,3.7v10h2.3V144h4.6v6.1h2.2v-13.6H576c0.1,0.9,0.1,2.2,0.1,3.7v1.9
		H571.5z"/>
	<path class="st0" d="M899.3,209.1v-13.6h-2.4c0.1,0.9,0.1,2.2,0.1,3.7v9.9H899.3z"/>
	<path class="st1" d="M1603.3,918h4.1v-0.9h-4.1V918z M1609.4,919.1h-7.9v1h7.9V919.1z M1603.7,924.5c-0.4-0.3-0.6-0.7-0.6-1.2
		c0-0.5,0.2-0.9,0.6-1.2c0.4-0.3,1-0.4,1.7-0.4c0.7,0,1.2,0.1,1.7,0.4c0.4,0.3,0.6,0.7,0.6,1.2c0,0.5-0.2,0.9-0.6,1.2
		c-0.4,0.3-1,0.4-1.7,0.4C1604.7,924.9,1604.1,924.8,1603.7,924.5 M1612.7,930.7v-1h-8v-2.9h-1.2c0.1,0.9,0.1,1.9,0.1,2.9v1H1612.7z
		 M1612.2,927.4v-5h1.9v-1h-1.9v-4.3h-1.2c0.1,1,0.1,2,0.1,3.1v7.2H1612.2z M1607.9,925.1c0.6-0.5,0.9-1.1,0.9-1.8
		c0-0.7-0.3-1.3-0.9-1.8c-0.6-0.5-1.4-0.7-2.5-0.7c-1,0-1.8,0.2-2.5,0.7c-0.6,0.5-0.9,1.1-0.9,1.8c0,0.7,0.3,1.3,0.9,1.8
		c0.6,0.5,1.4,0.7,2.5,0.7C1606.4,925.9,1607.2,925.6,1607.9,925.1 M1589.3,918h4.1v-0.9h-4.1V918z M1595.4,918.9h-7.9v0.9h7.9
		V918.9z M1589.7,923.9c-0.4-0.3-0.6-0.6-0.6-1.1c0-0.4,0.2-0.8,0.6-1c0.4-0.3,1-0.4,1.7-0.4c0.7,0,1.3,0.1,1.7,0.4s0.6,0.6,0.6,1
		c0,0.4-0.2,0.8-0.6,1.1c-0.4,0.3-1,0.4-1.7,0.4C1590.7,924.3,1590.1,924.2,1589.7,923.9 M1598.2,925.8v-2.4h1.9v-0.9h-1.9v-2.1h1.9
		v-0.9h-1.9v-2.4h-1.2c0.1,1,0.1,2,0.1,3.1v5.6H1598.2z M1591.2,927.5c0.6-0.3,1.5-0.4,2.6-0.4c1.1,0,1.9,0.1,2.6,0.4s1,0.7,1,1.2
		c0,0.5-0.3,0.9-1,1.2s-1.5,0.4-2.6,0.4c-1.1,0-1.9-0.1-2.6-0.4s-1-0.7-1-1.2C1590.3,928.2,1590.6,927.8,1591.2,927.5 M1593.9,924.5
		c0.6-0.4,0.9-1,0.9-1.7c0-0.7-0.3-1.3-0.9-1.7s-1.4-0.7-2.5-0.7c-1,0-1.9,0.2-2.5,0.7s-0.9,1-0.9,1.7c0,0.7,0.3,1.2,0.9,1.7
		s1.4,0.6,2.5,0.6C1592.4,925.2,1593.3,925,1593.9,924.5 M1593.8,931.3c1.5,0,2.6-0.2,3.4-0.7c0.8-0.5,1.2-1.1,1.2-1.9
		c0-0.8-0.4-1.4-1.2-1.9c-0.8-0.5-2-0.7-3.4-0.7c-1.5,0-2.6,0.2-3.4,0.7c-0.8,0.5-1.2,1.1-1.2,1.9c0,0.8,0.4,1.4,1.2,1.9
		S1592.3,931.3,1593.8,931.3 M1581.5,922.9h-12.8v0.9h12.8V922.9z M1579.7,928.5v-3.3h-9.2v0.9h8v1.4h-8.1c0.1,0.7,0.1,1.5,0.1,2.4
		v0.9h9.4v-0.9h-8.3v-1.5H1579.7z M1578.7,921.2c0.9-0.4,1.3-1,1.3-1.7c0-0.8-0.4-1.3-1.3-1.8c-0.9-0.4-2-0.6-3.5-0.6
		s-2.7,0.2-3.5,0.6s-1.3,1-1.3,1.8c0,0.7,0.4,1.3,1.3,1.7s2,0.6,3.5,0.6C1576.6,921.8,1577.8,921.6,1578.7,921.2 M1572.4,920.5
		c-0.7-0.3-1-0.6-1-1.1c0-0.5,0.3-0.9,1-1.1c0.7-0.3,1.6-0.4,2.7-0.4c1.2,0,2.1,0.1,2.7,0.4c0.7,0.3,1,0.6,1,1.1
		c0,0.5-0.3,0.9-1,1.1c-0.7,0.3-1.6,0.4-2.7,0.4C1574,920.9,1573,920.8,1572.4,920.5 M1565.8,925.5v-4.1h2v-1h-2v-3.3h-1.2
		c0.1,1,0.1,2,0.1,3.1v5.3H1565.8z M1558.2,917.4c0.1,0.4,0.1,0.8,0.1,1.4c0,1.2-0.3,2.2-1,3.1c-0.7,0.9-1.6,1.6-2.7,2.1l0.8,0.8
		c0.8-0.4,1.5-0.9,2.2-1.5c0.7-0.6,1.1-1.4,1.4-2.1c0.3,0.7,0.8,1.4,1.5,1.9c0.7,0.6,1.4,1,2,1.3l0.7-0.8c-1-0.4-1.9-1-2.6-1.8
		c-0.7-0.8-1.1-1.8-1.1-3v-1.2H1558.2z M1561.4,926.6c1.1,0,1.9,0.2,2.6,0.5c0.6,0.3,1,0.8,1,1.4c0,0.6-0.3,1-1,1.3
		c-0.6,0.3-1.5,0.5-2.6,0.5c-1.1,0-1.9-0.2-2.6-0.5c-0.6-0.3-1-0.8-1-1.4s0.3-1,1-1.4C1559.5,926.8,1560.4,926.6,1561.4,926.6
		 M1558,930.5c0.8,0.5,2,0.7,3.4,0.7c1.5,0,2.6-0.2,3.4-0.7c0.8-0.5,1.2-1.2,1.2-2s-0.4-1.5-1.2-2.1c-0.8-0.5-2-0.8-3.4-0.8
		c-1.5,0-2.6,0.3-3.4,0.8c-0.8,0.5-1.2,1.2-1.2,2.1C1556.8,929.3,1557.2,930,1558,930.5 M1552.9,931v-13.9h-1.2
		c0.1,0.8,0.1,1.8,0.1,3v11H1552.9z M1549.1,922.4v8h1.1v-13h-1.2c0.1,0.8,0.1,1.8,0.1,3v1.2h-2.4v0.9H1549.1z M1543.9,917.7
		c0.1,0.7,0.1,1.5,0.1,2.5c0,3.4-1.1,5.8-3.4,7.3l1,0.7c0.7-0.5,1.2-1.1,1.8-1.9c0.5-0.8,0.9-1.7,1.1-2.6c0.5,1.8,1.5,3.1,2.8,4
		l0.8-0.7c-1-0.6-1.7-1.5-2.2-2.7c-0.5-1.2-0.7-2.5-0.7-4v-2.6H1543.9z M1534.7,928.6c-0.2-0.3-0.4-0.4-0.8-0.4
		c-0.3,0-0.5,0.1-0.7,0.2c-0.2,0.2-0.3,0.4-0.3,0.7c0,0.3,0,0.6,0.2,0.7c0.2,0.2,0.4,0.3,0.6,0.3c0.2,0,0.2,0.2,0.1,0.5
		c-0.1,0.2-0.2,0.5-0.4,0.7c-0.2,0.2-0.4,0.4-0.6,0.5l0.4,0.3c0.5-0.2,0.8-0.5,1.2-1c0.3-0.5,0.5-1,0.6-1.6
		C1534.9,929.2,1534.8,928.9,1534.7,928.6 M1524.5,926.4v0.3c0,0.8-0.5,1.6-1.6,2.2c-1.1,0.6-2.2,1-3.5,1.2l0.7,0.8c1-0.2,2-0.5,3-1
		c0.9-0.5,1.6-1,2-1.8c0.4,0.7,1.1,1.3,2,1.8c0.9,0.5,1.9,0.8,2.9,1l0.7-0.8c-0.8-0.1-1.5-0.3-2.3-0.6c-0.8-0.3-1.4-0.7-2-1.2
		c-0.6-0.5-0.8-1.1-0.8-1.6v-0.3H1524.5z M1524.5,924.4v1.6h1.1v-1.6h5.8v-0.9h-12.8v0.9H1524.5z M1522.4,921.1
		c-0.7-0.3-1-0.8-1-1.4c0-0.6,0.3-1,1-1.4c0.7-0.3,1.6-0.5,2.7-0.5c1.1,0,2.1,0.2,2.7,0.5c0.7,0.3,1,0.8,1,1.3c0,0.6-0.3,1-1,1.4
		c-0.7,0.3-1.6,0.5-2.7,0.5C1523.9,921.6,1523,921.4,1522.4,921.1 M1528.6,921.7c0.9-0.5,1.3-1.1,1.3-2c0-0.8-0.4-1.5-1.3-2
		c-0.9-0.5-2.1-0.7-3.5-0.7c-1.5,0-2.7,0.2-3.5,0.7c-0.9,0.5-1.3,1.2-1.3,2c0,0.8,0.4,1.5,1.3,2c0.9,0.5,2,0.7,3.5,0.7
		C1526.6,922.5,1527.7,922.2,1528.6,921.7 M1516.4,931v-13.9h-1.2c0.1,0.8,0.1,1.8,0.1,3v11H1516.4z M1507.2,919.6
		c0.4-0.8,1-1.2,1.7-1.2c0.7,0,1.3,0.4,1.7,1.1c0.4,0.8,0.6,1.8,0.6,3.1c0,1.3-0.2,2.4-0.6,3.2c-0.4,0.8-1,1.1-1.7,1.1
		c-0.7,0-1.3-0.4-1.7-1.1c-0.4-0.8-0.6-1.8-0.6-3.2C1506.6,921.4,1506.8,920.3,1507.2,919.6 M1506.5,926.7c0.7,0.8,1.5,1.2,2.5,1.2
		c1,0,1.8-0.4,2.4-1.2c0.7-0.8,1-2.1,1-3.9c0-1.8-0.3-3.1-1-4c-0.7-0.8-1.5-1.2-2.4-1.2c-1,0-1.8,0.4-2.5,1.2c-0.6,0.8-1,2.1-1,4
		C1505.5,924.5,1505.8,925.9,1506.5,926.7 M1489.6,930.5v-9.1c0-0.6,0.3-1,0.8-1.3c0.5-0.3,0.9-0.5,1.4-0.5c0.7,0,1.2,0.2,1.6,0.7
		c0.4,0.5,0.6,1.1,0.6,2v8.2h3.2V922c0-1.6-0.4-2.8-1.3-3.8c-0.9-1-2-1.5-3.5-1.5c-0.9,0-1.8,0.3-2.7,0.9v-5.5h-3.4
		c0.1,1.3,0.1,2.9,0.1,4.9v13.4H1489.6z M1480,928.1c-0.9,0-1.6-0.4-2.1-1.1c-0.5-0.7-0.8-1.6-0.8-2.7c0-1.3,0.3-2.3,0.8-3.1
		c0.5-0.8,1.3-1.2,2.2-1.2c1,0,1.9,0.3,2.7,1l1.6-2.3c-1.2-1.1-2.7-1.7-4.5-1.7c-1.9,0-3.4,0.7-4.5,2.1s-1.7,3-1.7,5
		c0,2,0.6,3.7,1.7,5s2.6,1.9,4.4,1.9c2.1,0,3.8-0.8,5-2.3l-1.5-2.1C1482.5,927.6,1481.4,928.1,1480,928.1 M1461.2,926.7
		c0,1.3,0.4,2.4,1.3,3.1c0.9,0.8,2,1.1,3.3,1.1c1.4,0,2.5-0.4,3.3-1.2c0,0.2,0,0.5,0.1,0.8h2.9c-0.3-0.8-0.4-1.8-0.4-2.9v-6
		c0-1.5-0.5-2.7-1.4-3.5c-0.9-0.8-2.1-1.2-3.7-1.2c-2.4,0-4.3,0.9-5.4,2.8l2,1.8c0.4-0.6,1-1,1.6-1.3s1.2-0.4,1.8-0.4
		c1.3,0,1.9,0.7,1.9,2.1c-2,0-3.5,0.3-4.6,0.8C1462.1,923.6,1461.2,924.9,1461.2,926.7 M1468.6,924.6c0,1.2-0.2,2.1-0.6,2.7
		c-0.4,0.5-1.1,0.8-2.1,0.8c-0.4,0-0.8-0.1-1-0.3c-0.3-0.2-0.4-0.6-0.4-1C1464.4,925.4,1465.8,924.7,1468.6,924.6 M1452.5,920.6
		c0.4-0.5,1-0.8,1.6-0.8c1.5,0,2.2,0.9,2.2,2.8h-4.5C1451.9,921.8,1452.1,921.2,1452.5,920.6 M1459.7,923.6c0-1.3-0.3-2.4-0.6-3.3
		c-0.4-0.9-1-1.7-1.8-2.3c-0.8-0.6-1.9-0.9-3.2-0.9c-1.3,0-2.4,0.3-3.3,1c-0.9,0.7-1.6,1.6-1.9,2.6c-0.4,1-0.6,2.2-0.6,3.4
		c0,1.2,0.2,2.3,0.6,3.3c0.4,1,1.1,1.9,2.1,2.6c1,0.7,2.1,1,3.5,1c0.9,0,1.7-0.2,2.7-0.6c0.9-0.4,1.6-0.9,2.2-1.5l-1.3-2.1
		c-0.8,0.9-1.9,1.3-3.2,1.3c-1.8,0-2.8-0.9-3-2.7h7.9C1459.8,924.8,1459.8,924.2,1459.7,923.6 M1444,930.5V922
		c0.1-0.8,0.5-1.5,1.2-1.8c0.7-0.4,1.5-0.4,2.4-0.1l0.6-3.1c-1.7-0.3-3.1,0.1-4.1,1.3v-1.1h-3.4c0.1,1.5,0.2,2.9,0.2,4.3v9H1444z"/>
	<path class="st2" d="M1432.5,920v7.1c0,2.6,1.2,3.9,3.7,3.9c0.3,0,0.7-0.1,1.2-0.2s1-0.4,1.3-0.6l-0.5-2.2
		c-0.6,0.3-1.1,0.4-1.7,0.4c-0.6,0-1-0.4-1-1.3V920h2.6v-2.9h-2.6v-4.9h-3.4c0.1,1.2,0.2,2.6,0.2,4.1v0.8h-2v2.9H1432.5z
		 M1419.5,929.7c0.8,0.8,1.9,1.3,3.4,1.3c1.2,0,2.3-0.4,3.2-1.3c0,0.4,0.1,0.7,0.2,0.9h2.9c-0.2-1-0.3-2-0.3-3v-10.5h-3.4
		c0.1,1.2,0.2,2.6,0.2,4.2v3.7c0,0.8-0.2,1.6-0.7,2.1c-0.4,0.6-0.9,0.9-1.5,0.9c-0.6,0-1.1-0.2-1.4-0.6c-0.3-0.4-0.4-1-0.4-1.8v-8.5
		h-3.4c0.1,1.3,0.1,2.6,0.1,4.2v4.7C1418.4,927.7,1418.8,928.9,1419.5,929.7 M1414.3,914.6c-1.3-1.7-3.1-2.6-5.4-2.6s-4,0.9-5.3,2.6
		c-1.3,1.7-1.9,4-1.9,6.9c0,2.9,0.6,5.1,1.9,6.8c1.3,1.7,3,2.6,5.3,2.6c2.3,0,4.1-0.9,5.4-2.6c1.3-1.7,1.9-4,1.9-6.8
		C1416.2,918.6,1415.6,916.3,1414.3,914.6 M1406,916.8c0.7-1.3,1.6-1.9,2.9-1.9c1.3,0,2.3,0.6,3,1.9c0.7,1.3,1,2.8,1,4.6
		c0,1.8-0.3,3.4-1,4.6c-0.7,1.3-1.7,1.9-3,1.9c-0.9,0-1.6-0.3-2.3-1c-0.6-0.6-1-1.4-1.3-2.4c-0.3-1-0.4-2-0.4-3.2
		C1405,919.6,1405.3,918.1,1406,916.8"/>
	<path class="st1" d="M1367.7,919h2c-0.1,1.4-0.3,2.8-0.8,4.3c-0.5,1.4-1.2,2.7-2.1,3.9l1,0.4c1-1.3,1.8-2.8,2.3-4.4
		s0.8-3.4,0.8-5.1h-3.2V919z M1378.9,931v-13.9h-1.2c0.1,0.8,0.1,1.8,0.1,3v11H1378.9z M1371.3,919h1.4c0,1.5-0.2,3-0.6,4.6
		c-0.4,1.6-1.1,3-2.1,4.3l1,0.4c1-1.5,1.8-3.2,2.3-5.2h2.1v7.2h1.1v-13h-1.2c0.1,0.8,0.1,1.8,0.1,3v1.9h-1.9
		c0.2-1.3,0.4-2.7,0.4-4.1h-2.5V919z M1355.4,918h4.1v-0.9h-4.1V918z M1361.4,918.9h-7.9v0.9h7.9V918.9z M1355.8,923.9
		c-0.4-0.3-0.6-0.6-0.6-1.1c0-0.4,0.2-0.8,0.6-1c0.4-0.3,1-0.4,1.7-0.4c0.7,0,1.3,0.1,1.7,0.4s0.6,0.6,0.6,1c0,0.4-0.2,0.8-0.6,1.1
		s-1,0.4-1.7,0.4C1356.7,924.3,1356.2,924.2,1355.8,923.9 M1364.2,925.5v-3.6h2v-1h-2v-3.8h-1.2c0.1,1,0.1,2,0.1,3.1v5.3H1364.2z
		 M1363.1,929.9h-6.4v-2.6h6.4V929.9z M1359.9,924.5c0.6-0.4,0.9-1,0.9-1.7c0-0.7-0.3-1.3-0.9-1.7s-1.4-0.7-2.5-0.7
		c-1,0-1.9,0.2-2.5,0.7s-0.9,1-0.9,1.7c0,0.7,0.3,1.2,0.9,1.7s1.4,0.6,2.5,0.6C1358.5,925.2,1359.3,925,1359.9,924.5 M1364.2,930.8
		v-4.5h-8.7c0.1,0.8,0.1,1.8,0.1,3v1.4H1364.2z M1345.6,931v-7.3h2v-1h-2v-5.7h-1.2c0.1,0.8,0.1,1.8,0.1,3v11H1345.6z M1339,918.4
		c0.7,0,1.3,0.2,1.8,0.7c0.4,0.5,0.7,1.1,0.7,1.8s-0.2,1.3-0.7,1.8c-0.4,0.5-1,0.7-1.8,0.7c-0.7,0-1.3-0.2-1.8-0.7
		c-0.4-0.5-0.7-1.1-0.7-1.8s0.2-1.3,0.7-1.8C1337.7,918.6,1338.3,918.4,1339,918.4 M1336.3,923.2c0.6,0.6,1.3,1,2.2,1.1v2.7
		c-0.3,0-0.7,0-1.3,0h-2.5v1h2.4c2.5,0,4.7-0.1,6.7-0.4v-0.9c-1,0.2-2.4,0.3-4.2,0.4v-2.7c0.9-0.1,1.6-0.5,2.1-1.2
		c0.6-0.6,0.8-1.4,0.8-2.2c0-1-0.3-1.8-1-2.5c-0.7-0.7-1.5-1-2.5-1c-1,0-1.9,0.3-2.6,1c-0.7,0.7-1,1.5-1,2.5
		C1335.4,921.8,1335.7,922.6,1336.3,923.2 M1333.5,929.2v-0.9h-5.8v-3.7h4.4v-0.9h-8.4v-4.8h8.2v-0.9h-9.4c0.1,1,0.1,2,0.1,3.1v3.6
		h4v3.7h-5.8v0.9H1333.5z M1317.4,920.7v4.7h1.1v-8.3h-1.2c0.1,0.9,0.1,1.8,0.1,2.7h-3.1v0.9H1317.4z M1310.5,917.4
		c0.1,0.4,0.1,0.9,0.1,1.4c0,1.2-0.4,2.2-1.1,3.1c-0.7,0.9-1.6,1.6-2.8,2.1l0.8,0.7c0.8-0.4,1.5-0.9,2.2-1.5
		c0.7-0.6,1.1-1.3,1.4-2.1c0.4,0.7,0.9,1.3,1.6,1.9c0.7,0.6,1.4,1,2.1,1.3l0.7-0.8c-1-0.3-1.9-0.9-2.6-1.8c-0.7-0.9-1.1-1.9-1.1-3
		v-1.3H1310.5z M1314,926.6c1.1,0,1.9,0.2,2.6,0.5c0.7,0.3,1,0.8,1,1.4c0,0.6-0.3,1-1,1.3c-0.7,0.3-1.5,0.5-2.6,0.5
		c-1.1,0-1.9-0.2-2.6-0.5s-1-0.8-1-1.4s0.3-1,1-1.4C1312,926.8,1312.9,926.6,1314,926.6 M1314,931.3c1.5,0,2.6-0.2,3.5-0.7
		c0.8-0.5,1.3-1.2,1.3-2s-0.4-1.5-1.3-2.1c-0.8-0.5-2-0.8-3.5-0.8c-1.5,0-2.6,0.3-3.5,0.8c-0.8,0.5-1.3,1.2-1.3,2.1
		c0,0.9,0.4,1.5,1.3,2C1311.4,931,1312.5,931.3,1314,931.3 M1291.7,930.5v-9.1c0-0.6,0.3-1,0.8-1.3c0.5-0.3,0.9-0.5,1.4-0.5
		c0.7,0,1.2,0.2,1.6,0.7c0.4,0.5,0.6,1.1,0.6,2v8.2h3.2V922c0-1.6-0.4-2.8-1.3-3.8s-2-1.5-3.5-1.5c-0.9,0-1.8,0.3-2.7,0.9v-5.5h-3.4
		c0.1,1.3,0.1,2.9,0.1,4.9v13.4H1291.7z M1282.1,928.1c-0.9,0-1.6-0.4-2.1-1.1c-0.5-0.7-0.8-1.6-0.8-2.7c0-1.3,0.3-2.3,0.8-3.1
		c0.5-0.8,1.3-1.2,2.2-1.2c1,0,1.9,0.3,2.7,1l1.6-2.3c-1.2-1.1-2.7-1.7-4.5-1.7c-1.9,0-3.4,0.7-4.5,2.1s-1.7,3-1.7,5
		c0,2,0.6,3.7,1.7,5s2.6,1.9,4.4,1.9c2.1,0,3.8-0.8,5-2.3l-1.5-2.1C1284.6,927.6,1283.5,928.1,1282.1,928.1 M1263.2,926.7
		c0,1.3,0.4,2.4,1.3,3.1s2,1.1,3.3,1.1c1.4,0,2.5-0.4,3.3-1.2c0,0.2,0,0.5,0.1,0.8h2.9c-0.3-0.8-0.4-1.8-0.4-2.9v-6
		c0-1.5-0.5-2.7-1.4-3.5c-0.9-0.8-2.1-1.2-3.7-1.2c-2.4,0-4.3,0.9-5.4,2.8l2,1.8c0.4-0.6,1-1,1.6-1.3c0.6-0.3,1.2-0.4,1.8-0.4
		c1.3,0,1.9,0.7,1.9,2.1c-2,0-3.5,0.3-4.6,0.8C1264.1,923.6,1263.2,924.9,1263.2,926.7 M1270.7,924.6c0,1.2-0.2,2.1-0.6,2.7
		c-0.4,0.5-1.1,0.8-2.1,0.8c-0.4,0-0.8-0.1-1-0.3c-0.3-0.2-0.4-0.6-0.4-1C1266.5,925.4,1267.9,924.7,1270.7,924.6 M1254.6,920.6
		c0.4-0.5,1-0.8,1.6-0.8c1.5,0,2.2,0.9,2.2,2.8h-4.5C1253.9,921.8,1254.2,921.2,1254.6,920.6 M1261.8,923.6c0-1.3-0.3-2.4-0.6-3.3
		c-0.4-0.9-1-1.7-1.8-2.3s-1.9-0.9-3.2-0.9c-1.3,0-2.4,0.3-3.3,1c-0.9,0.7-1.6,1.6-1.9,2.6c-0.4,1-0.6,2.2-0.6,3.4
		c0,1.2,0.2,2.3,0.6,3.3s1.1,1.9,2.1,2.6c1,0.7,2.1,1,3.5,1c0.9,0,1.7-0.2,2.7-0.6s1.6-0.9,2.2-1.5l-1.3-2.1
		c-0.8,0.9-1.9,1.3-3.2,1.3c-1.8,0-2.8-0.9-3-2.7h7.9C1261.8,924.8,1261.8,924.2,1261.8,923.6 M1246,930.5V922
		c0.1-0.8,0.5-1.5,1.2-1.8c0.7-0.4,1.5-0.4,2.4-0.1l0.6-3.1c-1.7-0.3-3.1,0.1-4.1,1.3v-1.1h-3.4c0.1,1.5,0.2,2.9,0.2,4.3v9H1246z"/>
	<path class="st2" d="M1232.8,930.5v-9c0-0.5,0.3-0.9,0.8-1.2s0.9-0.5,1.3-0.5c0.6,0,1.1,0.2,1.5,0.7c0.3,0.5,0.5,1.1,0.5,2v7.9h3.3
		v-8.2c0-1.6-0.4-2.9-1.2-3.8c-0.8-1-2-1.5-3.4-1.5c-0.8,0-1.7,0.3-2.6,0.8v-0.6h-3.5c0.1,1.2,0.2,2.8,0.2,4.8v8.4H1232.8z
		 M1226.3,930.5v-18.1h-3.5c0.1,1.2,0.2,2.9,0.2,5v13.2H1226.3z"/>
	<path class="st1" d="M1188,919h2c-0.1,1.4-0.3,2.8-0.8,4.3s-1.2,2.7-2.1,3.9l1,0.4c1-1.3,1.8-2.8,2.3-4.4s0.8-3.4,0.8-5.1h-3.2V919
		z M1199.2,931v-13.9h-1.2c0.1,0.8,0.1,1.8,0.1,3v11H1199.2z M1191.6,919h1.4c0,1.5-0.2,3-0.6,4.6c-0.4,1.6-1.1,3-2.1,4.3l1,0.4
		c1-1.5,1.8-3.2,2.3-5.2h2.1v7.2h1.1v-13h-1.2c0.1,0.8,0.1,1.8,0.1,3v1.9h-1.9c0.2-1.3,0.4-2.7,0.4-4.1h-2.5V919z M1177.3,923.4
		c0.7,0,1.6,0,2.7-0.1c1.1-0.1,2-0.2,2.7-0.4v-1c-1.5,0.3-3.2,0.5-5.3,0.5h-2v-4.9h-1.2c0.1,0.9,0.1,1.7,0.1,2.4v3.5H1177.3z
		 M1184.7,924.7v-7.6h-1.2c0.1,1,0.1,2,0.1,3.1v4.5H1184.7z M1183.6,929.9h-6.7v-3.4h6.7V929.9z M1184.7,930.8v-5.2h-9
		c0.1,0.8,0.1,1.8,0.1,3v2.2H1184.7z M1163.2,927.3c1.8,0,3.5-0.2,5.1-0.5v-1c-1.5,0.3-3.2,0.5-5,0.5h-1.7v-8.7h-1.2
		c0.1,0.9,0.1,1.9,0.1,3.1v6.6H1163.2z M1170.3,931v-7.7h2.1v-1h-2.1v-5.2h-1.2c0.1,0.8,0.1,1.8,0.1,3v11H1170.3z M1147.9,918.3h4.2
		v-0.9h-4.2V918.3z M1146,920.6h8v-0.9h-8V920.6z M1156.7,931v-7.2h2.1v-1h-2.1v-5.7h-1.2c0.1,0.8,0.1,1.8,0.1,3v11H1156.7z
		 M1152.3,925.1c0,0.7-0.2,1.3-0.6,1.7c-0.4,0.4-1,0.7-1.7,0.7c-0.7,0-1.3-0.2-1.7-0.7c-0.4-0.4-0.6-1-0.6-1.7
		c0-0.7,0.2-1.3,0.6-1.7c0.4-0.4,1-0.6,1.7-0.6c0.7,0,1.3,0.2,1.7,0.6C1152.1,923.8,1152.3,924.4,1152.3,925.1 M1146.6,925.1
		c0,1,0.3,1.8,1,2.4c0.6,0.6,1.4,0.9,2.4,0.9c1,0,1.8-0.3,2.4-0.9c0.6-0.6,1-1.4,1-2.4c0-1-0.3-1.8-0.9-2.4
		c-0.6-0.6-1.4-0.9-2.5-0.9c-1,0-1.8,0.3-2.5,0.9C1147,923.3,1146.6,924.1,1146.6,925.1 M1130.4,930.5v-9.1c0-0.6,0.3-1,0.8-1.3
		c0.5-0.3,0.9-0.5,1.4-0.5c0.7,0,1.2,0.2,1.6,0.7c0.4,0.5,0.6,1.1,0.6,2v8.2h3.2V922c0-1.6-0.4-2.8-1.3-3.8s-2-1.5-3.5-1.5
		c-0.9,0-1.8,0.3-2.7,0.9v-5.5h-3.4c0.1,1.3,0.1,2.9,0.1,4.9v13.4H1130.4z M1120.8,928.1c-0.9,0-1.6-0.4-2.1-1.1
		c-0.5-0.7-0.8-1.6-0.8-2.7c0-1.3,0.3-2.3,0.8-3.1c0.5-0.8,1.3-1.2,2.2-1.2c1,0,1.9,0.3,2.7,1l1.6-2.3c-1.2-1.1-2.7-1.7-4.5-1.7
		c-1.9,0-3.4,0.7-4.5,2.1s-1.7,3-1.7,5c0,2,0.6,3.7,1.7,5s2.6,1.9,4.4,1.9c2.1,0,3.8-0.8,5-2.3l-1.5-2.1
		C1123.3,927.6,1122.2,928.1,1120.8,928.1 M1102,926.7c0,1.3,0.4,2.4,1.3,3.1s2,1.1,3.3,1.1c1.4,0,2.5-0.4,3.3-1.2
		c0,0.2,0,0.5,0.1,0.8h2.9c-0.3-0.8-0.4-1.8-0.4-2.9v-6c0-1.5-0.5-2.7-1.4-3.5c-0.9-0.8-2.1-1.2-3.7-1.2c-2.4,0-4.3,0.9-5.4,2.8
		l2,1.8c0.4-0.6,1-1,1.6-1.3c0.6-0.3,1.2-0.4,1.8-0.4c1.3,0,1.9,0.7,1.9,2.1c-2,0-3.5,0.3-4.6,0.8
		C1102.9,923.6,1102,924.9,1102,926.7 M1109.4,924.6c0,1.2-0.2,2.1-0.6,2.7c-0.4,0.5-1.1,0.8-2.1,0.8c-0.4,0-0.8-0.1-1-0.3
		c-0.3-0.2-0.4-0.6-0.4-1C1105.2,925.4,1106.6,924.7,1109.4,924.6 M1093.3,920.6c0.4-0.5,1-0.8,1.6-0.8c1.5,0,2.2,0.9,2.2,2.8h-4.5
		C1092.7,921.8,1092.9,921.2,1093.3,920.6 M1100.5,923.6c0-1.3-0.3-2.4-0.6-3.3s-1-1.7-1.8-2.3c-0.8-0.6-1.9-0.9-3.2-0.9
		c-1.3,0-2.4,0.3-3.3,1c-0.9,0.7-1.6,1.6-1.9,2.6c-0.4,1-0.6,2.2-0.6,3.4c0,1.2,0.2,2.3,0.6,3.3s1.1,1.9,2.1,2.6c1,0.7,2.1,1,3.5,1
		c0.9,0,1.7-0.2,2.7-0.6s1.6-0.9,2.2-1.5l-1.3-2.1c-0.8,0.9-1.9,1.3-3.2,1.3c-1.8,0-2.8-0.9-3-2.7h7.9
		C1100.6,924.8,1100.6,924.2,1100.5,923.6 M1084.8,930.5V922c0.1-0.8,0.5-1.5,1.2-1.8c0.7-0.4,1.5-0.4,2.4-0.1l0.6-3.1
		c-1.7-0.3-3.1,0.1-4.1,1.3v-1.1h-3.4c0.1,1.5,0.2,2.9,0.2,4.3v9H1084.8z"/>
	<path class="st2" d="M1071,934.3v-4.6c0.9,0.5,1.8,0.8,2.8,0.8c1.8,0,3.2-0.6,4.2-1.9c0.9-1.3,1.4-2.9,1.4-4.9
		c0-1.9-0.5-3.5-1.4-4.8s-2.3-1.9-4.2-1.9c-1,0-1.9,0.3-2.8,1v-0.8h-3.4c0.1,1.3,0.2,2.7,0.2,4.3v12.8H1071z M1076.1,923.6
		c0,1.1-0.2,2.1-0.6,2.9c-0.4,0.8-1,1.2-1.8,1.2c-0.9,0-1.6-0.4-2-1.1c-0.4-0.8-0.6-1.7-0.6-3c0-1.1,0.2-2,0.6-2.7
		c0.4-0.7,1-1,1.9-1c0.9,0,1.5,0.3,1.9,1C1075.8,921.5,1076.1,922.4,1076.1,923.6 M1058.9,927.9c-1.8,0-2.8-1.3-2.9-3.9v-11.7h-3.4
		c0.1,1.3,0.1,2.9,0.1,4.9v6.6c0,2.1,0.5,3.8,1.5,5.1s2.5,1.9,4.6,1.9s3.6-0.6,4.6-1.9s1.5-3,1.5-5.1v-11.5h-3.4
		c0.1,1.2,0.2,2.9,0.2,4.9v6.8C1061.8,926.6,1060.8,927.9,1058.9,927.9"/>
	<path class="st1" d="M1040.7,932.9h1.7v-22h-1.7V932.9z M1022.2,926.5c2.8,0,4.3,0.6,4.3,1.8c0,1.1-1.4,1.7-4.3,1.7
		c-2.9,0-4.3-0.6-4.3-1.8C1017.9,927.1,1019.3,926.5,1022.2,926.5 M1026.1,917.7v5.8h3.4v-12.2h-3.5c0.1,1.1,0.1,2.2,0.1,3.3h-3.6
		v3.1H1026.1z M1016.1,911.8c0.1,0.7,0.1,1.6,0.1,2.5c0,1.5-0.5,2.9-1.5,4.1c-1,1.2-2.3,2.2-3.9,3l2.2,2.2c0.9-0.4,1.9-1.1,2.8-1.9
		c1-0.8,1.7-1.7,2.1-2.7c0.5,0.8,1.2,1.6,2.2,2.3c0.9,0.7,1.8,1.2,2.7,1.4l2-2.3c-1.6-0.6-2.8-1.4-3.8-2.5s-1.4-2.3-1.4-3.8v-2.3
		H1016.1z M1022.2,932.8c2.4,0,4.2-0.4,5.6-1.2c1.4-0.8,2-1.9,2-3.4c0-1.4-0.7-2.6-2-3.4c-1.4-0.8-3.2-1.2-5.6-1.2
		c-2.4,0-4.2,0.4-5.6,1.2c-1.4,0.8-2.1,1.9-2.1,3.4c0,1.4,0.7,2.6,2,3.4C1017.9,932.4,1019.8,932.8,1022.2,932.8 M997.5,919.7
		c1.5,0,2.3,0.3,2.3,1c0,0.7-0.8,1-2.3,1c-1.5,0-2.3-0.3-2.3-1C995.3,920,996,919.7,997.5,919.7 M994.1,913.6h6.8v-2.4h-6.8V913.6z
		 M998.1,927.6c0.7-0.2,1.7-0.3,3.1-0.3s2.4,0.1,3.1,0.3s1.1,0.6,1.1,1.2c0,0.5-0.4,0.9-1.1,1.1c-0.7,0.2-1.7,0.3-3.1,0.3
		c-1.4,0-2.4-0.1-3.1-0.3c-0.7-0.2-1.1-0.6-1.1-1.1C997,928.2,997.4,927.8,998.1,927.6 M1003.7,914.4h-12.3v2.5h12.3V914.4z
		 M1008.2,924.4v-2.6h2.4v-2.9h-2.4v-1.6h2.4v-2.9h-2.4v-3h-3.5c0.1,1.2,0.2,2.9,0.2,5v8.1H1008.2z M1003,920.7
		c0-1.1-0.5-1.9-1.5-2.5c-1-0.6-2.3-0.9-4-0.9c-1.7,0-3.1,0.3-4,0.9c-1,0.6-1.5,1.4-1.5,2.5c0,1,0.5,1.9,1.5,2.5
		c1,0.6,2.3,0.9,4,0.9c1.7,0,3-0.3,4-0.9C1002.5,922.6,1003,921.8,1003,920.7 M995.6,931.8c1.3,0.7,3.2,1,5.6,1c2.4,0,4.3-0.3,5.6-1
		c1.3-0.7,1.9-1.7,1.9-3.1s-0.7-2.4-2-3.1c-1.3-0.7-3.2-1.1-5.5-1.1c-2.4,0-4.2,0.4-5.5,1.1c-1.3,0.7-2,1.7-2,3.1
		C993.7,930.1,994.3,931.1,995.6,931.8 M974.6,917.8h3.7v2.2h-3.7V917.8z M980.3,926.8c2.8,0,4.2,0.6,4.2,1.7c0,1.1-1.4,1.6-4.2,1.6
		c-2.8,0-4.1-0.6-4.1-1.7C976.1,927.4,977.5,926.8,980.3,926.8 M987.3,923.8v-5.3h2.5v-3.1h-2.5v-4.1h-3.5c0.1,1.2,0.2,2.9,0.2,5
		v7.5H987.3z M981.6,922.9V912h-3.3v2.9h-3.7V912h-3.5c0.1,1.4,0.2,3,0.2,4.8v6.1H981.6z M974.7,931.7c1.3,0.7,3.2,1.1,5.5,1.1
		c2.4,0,4.2-0.4,5.5-1.1s2-1.8,2-3.2s-0.7-2.5-2-3.3c-1.3-0.8-3.2-1.1-5.5-1.1c-2.4,0-4.2,0.4-5.5,1.1c-1.3,0.8-2,1.8-2,3.2
		C972.8,929.9,973.4,931,974.7,931.7"/>
	<path class="st0" d="M327.3,96.5h4.5v6.3h-4.5V96.5z M337.6,108.6V97.4h2.9v12.2h1.6V88.5h-1.8c0.1,1.2,0.2,2.7,0.2,4.5v2.9h-2.9
		v-7.1h-1.8c0.1,1.2,0.2,2.7,0.2,4.5v15.3H337.6z M333.4,104.2V89.7h-1.6v5.3h-4.5v-5.3h-1.8c0.1,1.4,0.2,2.9,0.2,4.7v9.8H333.4z
		 M312.8,94.6h2.9v4.7h-2.9c0.1-0.7,0.1-1.4,0.1-2.2C312.9,96.2,312.9,95.4,312.8,94.6 M321.3,109.6V88.5h-1.8
		c0.1,1.2,0.2,2.7,0.2,4.5v16.6H321.3z M306.3,92.3c0.5-1.2,1.3-1.8,2.2-1.8c0.9,0,1.6,0.6,2.1,1.7c0.5,1.2,0.8,2.7,0.8,4.7
		c0,2-0.3,3.6-0.8,4.7c-0.5,1.2-1.2,1.7-2.1,1.7c-0.9,0-1.6-0.6-2.2-1.7c-0.5-1.2-0.8-2.7-0.8-4.8C305.5,95.1,305.8,93.5,306.3,92.3
		 M305.2,103c0.9,1.3,1.9,1.9,3.2,1.9c0.9,0,1.7-0.3,2.4-1c0.7-0.7,1.3-1.7,1.6-3.1h3.1v7.8h1.6V88.9h-1.8c0.1,1.4,0.2,2.8,0.2,4.3
		h-3.2c-0.4-1.4-0.9-2.4-1.6-3c-0.7-0.6-1.5-1-2.4-1c-1.3,0-2.4,0.6-3.3,1.8c-0.9,1.2-1.3,3.2-1.3,6
		C303.9,99.8,304.4,101.8,305.2,103 M278.6,114.6v-7c1.3,0.8,2.7,1.2,4.2,1.2c2.8,0,4.9-1,6.3-2.9s2.1-4.4,2.1-7.4
		c0-2.9-0.7-5.4-2.1-7.3c-1.4-1.9-3.5-2.9-6.3-2.9c-1.5,0-2.9,0.5-4.2,1.6v-1.2h-5.1c0.2,1.9,0.2,4.1,0.2,6.5v19.4H278.6z
		 M286.2,98.3c0,1.7-0.3,3.2-0.9,4.4c-0.6,1.2-1.5,1.7-2.7,1.7c-1.4,0-2.4-0.6-3.1-1.7c-0.6-1.1-1-2.6-1-4.5c0-1.7,0.3-3,0.9-4
		c0.6-1,1.6-1.5,2.9-1.5c1.3,0,2.3,0.5,2.9,1.6C285.9,95.2,286.2,96.6,286.2,98.3 M264.3,81c-0.6,0.7-1,1.4-1,2.3
		c0,0.9,0.3,1.7,0.9,2.4c0.6,0.6,1.4,1,2.3,1c0.9,0,1.7-0.3,2.3-1c0.6-0.6,0.9-1.4,0.9-2.4c0-0.9-0.3-1.6-0.9-2.3
		c-0.6-0.7-1.4-1-2.3-1C265.7,80,265,80.4,264.3,81 M269.1,108.8V89h-5.2c0.2,1.9,0.2,4.4,0.2,7.5v12.3H269.1z M248.2,108.8V95
		c0.1-0.8,0.5-1.5,1.2-1.9c0.7-0.5,1.4-0.7,2.1-0.7c1,0,1.8,0.4,2.4,1.1c0.6,0.7,0.9,1.7,0.9,3v12.4h4.9V96c0-2.4-0.7-4.3-2-5.8
		s-3.1-2.2-5.3-2.2c-1.4,0-2.8,0.5-4.1,1.4V81H243c0.1,1.9,0.2,4.4,0.2,7.5v20.3H248.2z M239.7,100.6c-0.3-0.7-0.7-1.2-1.1-1.7
		c-0.4-0.4-1-0.8-1.8-1.2c-0.8-0.4-1.5-0.7-2-0.9c-0.5-0.2-1.3-0.4-2.2-0.7c-0.5-0.2-1-0.3-1.2-0.4c-0.3-0.1-0.5-0.3-0.8-0.6
		c-0.3-0.3-0.4-0.7-0.4-1.1c0-1,0.9-1.6,2.7-1.6c1.7,0,3.3,0.5,5,1.5l1.6-3.8c-2.3-1.4-4.5-2-6.7-2c-2.3,0-4.1,0.5-5.5,1.6
		s-2.1,2.5-2.1,4.5c0,1.6,0.4,2.8,1.2,3.6c0.8,0.9,2,1.6,3.7,2.2c0.3,0.1,0.8,0.2,1.6,0.5c0.8,0.2,1.4,0.4,1.9,0.6
		c0.5,0.2,0.9,0.5,1.4,0.8c0.4,0.4,0.6,0.8,0.6,1.3c0,0.7-0.3,1.2-0.9,1.6c-0.6,0.4-1.3,0.5-2.1,0.5c-1.8,0-3.7-0.9-5.7-2.6
		l-2.2,3.5c1,1,2.3,1.8,3.9,2.5c1.5,0.7,2.9,1,4.2,1c2.3,0,4.1-0.6,5.5-1.7c1.4-1.2,2.2-2.8,2.2-5
		C240.2,102.1,240.1,101.3,239.7,100.6 M217.3,108.8V95.9c0.2-1.3,0.8-2.2,1.8-2.8c1-0.6,2.2-0.6,3.6-0.1l0.9-4.7
		c-2.6-0.5-4.7,0.2-6.2,2v-1.6h-5.1c0.2,2.2,0.2,4.4,0.2,6.5v13.6H217.3z M196.4,89.3c-1.2,0.6-2.1,1.4-2.7,2.4
		c-0.7,1-1.2,2.2-1.6,3.4c-0.4,1.2-0.5,2.5-0.5,3.9c0,1.3,0.2,2.6,0.5,3.9c0.4,1.2,0.9,2.4,1.6,3.4c0.7,1,1.6,1.8,2.7,2.4
		c1.2,0.6,2.5,0.9,3.9,0.9c1.9,0,3.6-0.5,5-1.6c1.4-1.1,2.4-2.4,3-3.9c0.6-1.6,0.9-3.2,0.9-5c0-1.8-0.3-3.5-0.9-5
		c-0.6-1.6-1.6-2.9-3-3.9c-1.4-1.1-3-1.6-5-1.6C198.9,88.4,197.6,88.7,196.4,89.3 M203.3,103.3c-0.6,1.3-1.6,1.9-3,1.9
		c-1.3,0-2.3-0.6-2.9-1.9c-0.6-1.3-0.9-2.7-0.9-4.3s0.3-3.1,0.9-4.4c0.6-1.3,1.6-1.9,2.9-1.9c1.3,0,2.3,0.6,3,1.9
		c0.6,1.3,1,2.7,1,4.3C204.3,100.6,203.9,102,203.3,103.3"/>
	<path class="st2" d="M176.2,90.7l4,18.2h5l5.3-23c0.4-1.6,0.8-3.1,1.4-4.5h-5.6c-0.1,1-0.3,2.4-0.7,4.4l-3,15.4l-4.1-19.6H174
		l-4.1,19.7l-3.1-15.5c-0.3-1.3-0.5-2.8-0.7-4.4h-5.6c0.7,2.3,1.2,3.7,1.4,4.5l5.3,23h5L176.2,90.7z"/>
	<path class="st0" d="M144,112.4h2.6V79.1H144V112.4z M114.8,92.4v-11h-5.2c0.1,1.9,0.2,4.4,0.2,7.5v19.9h5V96.8h8.6v11.9h4.9V81.4
		h-5.2c0.2,1.9,0.2,4.3,0.2,7.5v3.5H114.8z M94.9,85.8v23h5v-23h6.9v-4.4H87.9v4.4H94.9z M84.1,108.8V81.4h-5.2
		c0.2,1.9,0.2,4.4,0.2,7.5v19.9H84.1z M60.5,90.7l4,18.2h5l5.3-23c0.4-1.6,0.8-3.1,1.4-4.5h-5.6c-0.1,1-0.3,2.4-0.7,4.4l-3,15.4
		l-4.1-19.6h-4.3l-4.1,19.7l-3.1-15.5c-0.3-1.3-0.5-2.8-0.7-4.4h-5.6c0.7,2.3,1.2,3.7,1.4,4.5l5.3,23h5L60.5,90.7z"/>
	<path class="st1" d="M1014.1,966.8h2.4v4.1h-2.4V966.8z M1018.7,972.9v-12.3h-2.2v4.1h-2.4v-4.1h-2.3c0.1,1.2,0.1,2.5,0.1,4v8.3
		H1018.7z M1022.3,976.5v-8.8h1.4v9.6h2.2v-17.6h-2.3c0.1,1,0.1,2.3,0.1,4v1.8h-1.4V960h-2.3c0.1,1,0.1,2.3,0.1,4v12.5H1022.3z
		 M1001.6,965.3h1.6v2.9h-1.6c0-0.4,0.1-0.9,0.1-1.4C1001.7,966.5,1001.6,966,1001.6,965.3 M996.5,963.5c0.3-0.8,0.7-1.2,1.3-1.2
		c0.5,0,0.9,0.4,1.2,1.2c0.3,0.8,0.5,2,0.5,3.4c0,1.5-0.2,2.6-0.5,3.4c-0.3,0.8-0.7,1.2-1.2,1.2c-0.5,0-1-0.4-1.3-1.2
		c-0.3-0.8-0.5-2-0.5-3.4C996.1,965.5,996.2,964.3,996.5,963.5 M1008.7,977.3v-17.6h-2.3c0.1,1,0.1,2.3,0.1,4v13.6H1008.7z
		 M995,971.9c0.7,1,1.7,1.6,2.8,1.6c0.8,0,1.4-0.3,2.1-0.8c0.6-0.5,1.1-1.3,1.4-2.4h1.9v6.1h2.2V960h-2.3c0.1,0.7,0.1,1.8,0.1,3.3
		h-2c-0.3-1-0.8-1.8-1.4-2.3c-0.6-0.5-1.3-0.7-2-0.7c-0.5,0-1,0.1-1.5,0.3c-0.4,0.2-0.8,0.6-1.2,1c-0.4,0.5-0.7,1.2-0.9,2
		c-0.2,0.9-0.3,1.9-0.3,3.2C993.9,969.2,994.3,970.9,995,971.9"/>
	<path class="st1" d="M1328.5,960.9h5.5v-1.3h-5.5V960.9z M1336.5,962.5h-10.4v1.3h10.4V962.5z M1329.1,969.7
		c-0.6-0.4-0.8-0.9-0.8-1.5c0-0.6,0.3-1.1,0.8-1.5c0.5-0.4,1.3-0.6,2.2-0.6c0.9,0,1.6,0.2,2.2,0.6c0.5,0.4,0.8,0.9,0.8,1.5
		c0,0.6-0.3,1.1-0.8,1.5c-0.6,0.4-1.3,0.6-2.2,0.6C1330.4,970.2,1329.7,970,1329.1,969.7 M1340.6,978.4v-19.2h-1.7
		c0.1,1.1,0.2,2.5,0.2,4.1v15.1H1340.6z M1328.9,974.7c3.4,0,6.5-0.2,9.2-0.6v-1.3c-1.4,0.2-3.3,0.4-6,0.5v-1.9c1.1-0.1,2-0.5,2.7-1
		c0.7-0.6,1-1.3,1-2.2c0-1-0.4-1.8-1.2-2.4c-0.8-0.6-1.9-0.9-3.2-0.9c-1.4,0-2.4,0.3-3.3,0.9s-1.2,1.4-1.2,2.4c0,0.9,0.3,1.6,1,2.2
		c0.7,0.6,1.6,0.9,2.7,1v2c-0.4,0-0.9,0-1.6,0h-3.8v1.3H1328.9z M1314.8,960h-8.1v1.3h6.6v3.3h-6.7c0.1,1.4,0.2,2.5,0.2,3.4v2.4h3.4
		c1,0,2.2-0.1,3.6-0.2c1.5-0.1,2.7-0.3,3.8-0.5v-1.3c-2.2,0.4-4.6,0.6-7.2,0.6h-2.1v-3.2h6.6V960z M1319.5,966.8v6.5h1.5v-14.1h-1.6
		c0.1,1.2,0.1,2,0.1,2.5h-3.4v1.3h3.4v2.4h-3.4v1.3H1319.5z M1321.5,977.9v-1.4h-11.2v-4.2h-1.7c0.1,1.3,0.2,2.6,0.2,4v1.6H1321.5z
		 M1294.2,959.7c0.1,0.3,0.1,0.7,0.1,1.2c0,1.2-0.7,2.4-2,3.4c-1.3,1-3,1.8-5.1,2.2l1,1.1c1.3-0.3,2.7-0.8,4-1.6
		c1.3-0.7,2.3-1.8,3-3c0.5,0.9,1.1,1.7,2,2.3c0.9,0.7,1.7,1.2,2.5,1.5c0.8,0.3,1.6,0.6,2.4,0.7l0.9-1.1c-2-0.4-3.7-1.2-5-2.3
		c-1.3-1.1-2-2.2-2-3.4v-1.2H1294.2z M1294.3,971.2v7.2h1.5v-7.2h8v-1.3h-17.5v1.3H1294.3z M1277.5,975.1c-0.2-0.4-0.6-0.6-1.1-0.6
		c-0.4,0-0.7,0.1-1,0.3c-0.3,0.2-0.4,0.5-0.5,1c0,0.4,0,0.8,0.2,1c0.2,0.2,0.5,0.4,0.8,0.4c0.3,0,0.3,0.3,0.2,0.7
		c-0.1,0.3-0.3,0.7-0.5,1c-0.3,0.3-0.6,0.6-0.9,0.7l0.6,0.4c0.6-0.3,1.2-0.7,1.6-1.4c0.5-0.7,0.7-1.4,0.8-2.2
		C1277.9,975.9,1277.8,975.4,1277.5,975.1 M1259.7,960.9h5.5v-1.3h-5.5V960.9z M1267.7,962.5h-10.4v1.3h10.4V962.5z M1260.4,969.7
		c-0.6-0.4-0.8-0.9-0.8-1.5c0-0.6,0.3-1.1,0.8-1.5c0.5-0.4,1.3-0.6,2.2-0.6c0.9,0,1.6,0.2,2.2,0.6c0.5,0.4,0.8,0.9,0.8,1.5
		c0,0.6-0.3,1.1-0.8,1.5c-0.6,0.4-1.3,0.6-2.2,0.6C1261.7,970.2,1260.9,970,1260.4,969.7 M1271.8,978.4v-19.2h-1.7
		c0.1,1.1,0.2,2.5,0.2,4.1v15.1H1271.8z M1260.1,974.7c3.4,0,6.5-0.2,9.2-0.6v-1.3c-1.4,0.2-3.3,0.4-6,0.5v-1.9c1.1-0.1,2-0.5,2.7-1
		c0.7-0.6,1-1.3,1-2.2c0-1-0.4-1.8-1.2-2.4c-0.8-0.6-1.9-0.9-3.2-0.9c-1.4,0-2.4,0.3-3.3,0.9c-0.8,0.6-1.2,1.4-1.2,2.4
		c0,0.9,0.3,1.6,1,2.2c0.7,0.6,1.6,0.9,2.7,1v2c-0.4,0-0.9,0-1.6,0h-3.8v1.3H1260.1z M1254.1,975.9v-1.3h-8v-5.1h6v-1.3h-11.5v-6.5
		h11.3v-1.3h-13c0.1,1.3,0.2,2.7,0.2,4.3v4.9h5.5v5.1h-8v1.3H1254.1z M1219.1,961.7h6.9c-0.1,2.4-0.9,4.6-2.3,6.7
		c-1.4,2.1-3.3,3.7-5.8,4.9l1.2,1c2.7-1.4,4.7-3.4,6.2-5.8c1.5-2.5,2.3-5.2,2.3-8.1h-8.5V961.7z M1233.4,978.4v-19.2h-1.7
		c0.1,1.1,0.2,2.5,0.2,4.1v15.1H1233.4z M1216.1,975.9v-1.3h-4.2v-4.1h-1.6c0.1,1,0.1,2.1,0.1,3.5v0.5h-6v-4.1h-1.6
		c0.1,1,0.1,2.1,0.1,3.5v0.5h-4.3v1.3H1216.1z M1203.6,967.7c-0.9-0.7-1.3-1.6-1.3-2.9c0-1.2,0.4-2.2,1.3-2.9s2.1-1,3.7-1
		c1.6,0,2.8,0.3,3.7,1c0.9,0.7,1.3,1.6,1.3,2.9c0,1.2-0.5,2.2-1.4,2.9c-0.9,0.7-2.1,1-3.7,1C1205.7,968.8,1204.5,968.4,1203.6,967.7
		 M1212.1,968.6c1.2-0.9,1.8-2.2,1.8-3.7c0-1.6-0.6-2.8-1.8-3.8c-1.2-0.9-2.8-1.4-4.8-1.4c-2,0-3.6,0.5-4.8,1.4s-1.8,2.2-1.8,3.8
		c0,1.6,0.6,2.8,1.8,3.7c1.2,0.9,2.8,1.4,4.8,1.4C1209.3,970,1210.9,969.6,1212.1,968.6 M1187.3,959.7c0.1,0.3,0.1,0.7,0.1,1.2
		c0,1.2-0.7,2.4-2,3.4c-1.3,1-3,1.8-5.1,2.2l1,1.1c1.3-0.3,2.7-0.8,4-1.6c1.3-0.7,2.3-1.8,2.9-3c0.5,0.9,1.1,1.7,2,2.3
		c0.9,0.7,1.7,1.2,2.5,1.5c0.8,0.3,1.6,0.6,2.4,0.7l0.9-1.1c-2-0.4-3.7-1.2-5-2.3c-1.3-1.1-2-2.2-2-3.4v-1.2H1187.3z M1187.5,971.2
		v7.2h1.5v-7.2h8v-1.3h-17.5v1.3H1187.5z M1170.7,975.1c-0.2-0.4-0.6-0.6-1.1-0.6c-0.4,0-0.7,0.1-1,0.3c-0.3,0.2-0.4,0.5-0.5,1
		c0,0.4,0,0.8,0.2,1c0.2,0.2,0.5,0.4,0.8,0.4c0.3,0,0.3,0.3,0.2,0.7c-0.1,0.3-0.3,0.7-0.5,1c-0.3,0.3-0.6,0.6-0.9,0.7l0.6,0.4
		c0.6-0.3,1.2-0.7,1.6-1.4c0.5-0.7,0.7-1.4,0.8-2.2C1171,975.9,1170.9,975.4,1170.7,975.1 M1151.3,966.5h4.1v5.7h-4.1V966.5z
		 M1160.7,977.5v-10.2h2.6v11.1h1.5v-19.2h-1.6c0.1,1.1,0.2,2.5,0.2,4.1v2.7h-2.6v-6.4h-1.6c0.1,1.1,0.2,2.5,0.2,4.1v13.9H1160.7z
		 M1156.9,973.5v-13.2h-1.5v4.8h-4.1v-4.8h-1.6c0.1,1.3,0.2,2.7,0.2,4.3v8.9H1156.9z M1138.2,964.8h2.6v4.2h-2.6
		c0.1-0.6,0.1-1.3,0.1-2C1138.3,966.2,1138.3,965.5,1138.2,964.8 M1145.9,978.4v-19.2h-1.6c0.1,1.1,0.2,2.5,0.2,4.1v15.1H1145.9z
		 M1132.3,962.7c0.5-1.1,1.1-1.6,2-1.6c0.8,0,1.4,0.5,1.9,1.6c0.5,1.1,0.7,2.5,0.7,4.3s-0.2,3.3-0.7,4.3c-0.5,1.1-1.1,1.6-1.9,1.6
		c-0.8,0-1.5-0.5-2-1.6s-0.7-2.5-0.7-4.3C1131.5,965.2,1131.8,963.7,1132.3,962.7 M1131.3,972.4c0.8,1.1,1.8,1.7,3,1.7
		c0.8,0,1.6-0.3,2.2-0.9c0.7-0.6,1.2-1.5,1.5-2.8h2.8v7.1h1.5v-17.9h-1.6c0.1,1.3,0.2,2.6,0.2,3.9h-2.9c-0.3-1.2-0.8-2.2-1.5-2.7
		c-0.7-0.6-1.4-0.9-2.2-0.9c-1.2,0-2.2,0.6-3,1.7c-0.8,1.1-1.2,2.9-1.2,5.5C1130.1,969.5,1130.5,971.3,1131.3,972.4 M1124.8,962.4
		v2.1h-5.2v1.3h5.2v7.5h1.5v-14.1h-1.6c0,0.4,0.1,1.1,0.1,1.9h-5.2v1.3H1124.8z M1115.5,969.8c1,0,2.2-0.1,3.7-0.2
		c1.5-0.1,2.8-0.3,3.7-0.5v-1.3c-2,0.4-4.5,0.6-7.3,0.6h-2.1v-8.6h-1.7c0.1,1.2,0.2,2.3,0.2,3.3v6.6H1115.5z M1126.8,977.9v-1.4
		h-11.2v-4.5h-1.7c0.1,1.3,0.2,2.6,0.2,4v1.9H1126.8z M1095.1,960.5h5.5v-1.3h-5.5V960.5z M1106.3,966.1v5h1.5v-11.9h-1.6
		c0.1,1.4,0.1,2.8,0.1,4.3v1.3h-3.5v1.3H1106.3z M1097,963.5c-0.1,1.3-0.6,2.5-1.5,3.6s-2.2,2-3.6,2.6l1.1,1c2.4-1.2,4-2.8,4.9-4.8
		c0.5,0.9,1.2,1.7,2.1,2.4c0.9,0.7,1.8,1.3,2.8,1.6l0.9-1c-1.4-0.5-2.5-1.2-3.5-2.2c-1-1-1.5-2.1-1.5-3.2h4.1v-1.3h-9.6v1.3H1097z
		 M1101.7,972.7c1.5,0,2.7,0.2,3.6,0.6c0.9,0.4,1.4,1,1.4,1.8c0,0.7-0.5,1.3-1.4,1.7s-2.1,0.6-3.6,0.6c-1.5,0-2.7-0.2-3.6-0.6
		c-0.9-0.4-1.4-1-1.4-1.8s0.5-1.3,1.4-1.7C1099,972.9,1100.2,972.7,1101.7,972.7 M1096.9,977.7c1.2,0.6,2.8,1,4.8,1
		c2,0,3.6-0.3,4.8-1c1.2-0.6,1.7-1.5,1.7-2.7c0-1.2-0.6-2.1-1.7-2.7c-1.2-0.7-2.8-1-4.8-1c-2,0-3.6,0.3-4.8,1
		c-1.2,0.7-1.8,1.6-1.8,2.7C1095.2,976.2,1095.8,977.1,1096.9,977.7 M1071.9,960.7c1,0,1.8,0.3,2.3,0.9c0.6,0.6,0.9,1.4,0.9,2.3
		s-0.3,1.7-0.9,2.3c-0.6,0.6-1.3,0.9-2.3,0.9c-1,0-1.8-0.3-2.4-0.9c-0.6-0.6-0.9-1.4-0.9-2.3s0.3-1.7,0.9-2.3
		S1070.9,960.7,1071.9,960.7 M1068.5,967.1c0.9,0.9,2,1.3,3.4,1.3c1.4,0,2.5-0.4,3.4-1.3c0.9-0.9,1.3-1.9,1.3-3.2
		c0-1.3-0.4-2.3-1.3-3.2s-2-1.3-3.4-1.3c-1.4,0-2.5,0.4-3.4,1.3s-1.3,1.9-1.3,3.2C1067.2,965.2,1067.6,966.2,1068.5,967.1
		 M1082.1,974.8v-4.5h-12.3v1.3h10.7v2h-10.8c0.1,1,0.1,2.1,0.1,3.3v1.3h12.6v-1.3h-11v-2.1H1082.1z M1082.1,969.2v-9.9h-1.6
		c0.1,1.4,0.1,2.8,0.1,4.3v5.7H1082.1z M1055.3,971.4v7h1.5v-7h8v-1.3h-17.5v1.3H1055.3z M1055.3,961.3v0.1c0,1.2-0.7,2.4-2,3.4
		c-1.3,1-3,1.7-5.2,2.2l1,1.1c0.6-0.1,1.2-0.3,1.8-0.5c0.6-0.2,1.2-0.5,1.9-0.9c0.7-0.4,1.3-0.8,1.9-1.4c0.6-0.5,1-1.2,1.4-1.8
		c0.3,0.7,0.8,1.3,1.4,1.8c0.6,0.6,1.2,1,1.9,1.4c0.7,0.4,1.3,0.6,1.9,0.9c0.6,0.2,1.2,0.4,1.7,0.5l0.9-1.1
		c-2.1-0.4-3.8-1.2-5.1-2.2c-1.3-1-1.9-2.2-1.9-3.3v-0.1h5.8V960h-13.2v1.3H1055.3z"/>
	<path class="st1" d="M1019.6,1015.5c1.2,0,2.1,0.2,2.8,0.5c0.7,0.3,1,0.8,1,1.3c0,0.6-0.3,1-1,1.3c-0.7,0.3-1.6,0.4-2.8,0.4
		c-1.2,0-2.1-0.2-2.8-0.5c-0.7-0.3-1-0.7-1-1.3c0-0.6,0.3-1,1-1.3C1017.5,1015.6,1018.5,1015.5,1019.6,1015.5 M1025.4,1013.5v-4.6
		h2.2v-2.1h-2.2v-3.7h-2.5c0.1,1,0.1,2.4,0.1,4v6.3H1025.4z M1015.3,1005.8c0,1.3-0.4,2.4-1.2,3.4c-0.8,1-1.9,1.7-3.3,2.3l1.5,1.5
		c0.8-0.4,1.6-0.9,2.4-1.6c0.8-0.7,1.4-1.5,1.8-2.3c0.4,0.7,1,1.4,1.8,2c0.8,0.6,1.6,1,2.3,1.3l1.4-1.7c-2.8-1-4.3-2.7-4.3-5h3.1v-2
		h-8.7v2H1015.3z M1019.6,1021c1.9,0,3.4-0.3,4.5-1c1.1-0.6,1.6-1.5,1.6-2.7c0-1.2-0.5-2.1-1.6-2.8c-1.1-0.7-2.6-1-4.5-1
		c-1.9,0-3.4,0.3-4.5,1c-1.1,0.7-1.6,1.6-1.6,2.7c0,1.2,0.5,2.1,1.6,2.7C1016.2,1020.6,1017.7,1021,1019.6,1021 M1005.4,1007.9h-7.3
		v-2.3h7.3V1007.9z M1007.7,1015h-12.1v2h9.7v3.7h2.3V1015z M1000.6,1009.8v1.8h-6.9v2h16.1v-2h-6.9v-1.8h4.8v-6.2h-12.1
		c0.1,1,0.1,2.2,0.1,3.5v2.7H1000.6z"/>
	<path class="st1" d="M1602.3,1002.4h-1.2c2.2,2.9,3.4,6.4,3.4,10.4c0,4-1.1,7.4-3.4,10.4h1.2c1.3-1.4,2.3-2.9,2.9-4.8
		c0.6-1.8,0.9-3.7,0.9-5.6s-0.3-3.8-0.9-5.6C1604.6,1005.4,1603.6,1003.8,1602.3,1002.4 M1600.5,1011.4H1583v1.3h17.5V1011.4z
		 M1598,1018.9v-4.5h-12.6v1.3h11v2h-11.1c0.1,1,0.1,2.1,0.1,3.3v1.3h13v-1.3H1587v-2H1598z M1596.6,1008.9c1.2-0.6,1.8-1.4,1.8-2.4
		c0-1-0.6-1.8-1.8-2.4s-2.8-0.9-4.9-0.9s-3.7,0.3-4.9,0.9c-1.2,0.6-1.8,1.4-1.8,2.4c0,1,0.6,1.8,1.8,2.4c1.2,0.6,2.8,0.8,4.9,0.8
		C1593.8,1009.7,1595.4,1009.5,1596.6,1008.9 M1588,1008c-0.9-0.4-1.4-0.9-1.4-1.5c0-0.7,0.4-1.2,1.4-1.5c0.9-0.4,2.2-0.5,3.8-0.5
		c1.6,0,2.9,0.2,3.8,0.5c0.9,0.4,1.4,0.9,1.4,1.5c0,0.7-0.5,1.2-1.4,1.5c-0.9,0.4-2.2,0.5-3.7,0.5
		C1590.1,1008.6,1588.9,1008.4,1588,1008 M1578.8,1022.5v-10.9h2.9v-1.4h-2.9v-6.9h-1.7c0.1,1.1,0.2,2.5,0.2,4.1v15.1H1578.8z
		 M1572.1,1016.2h-5.5v-10.4h5.5V1016.2z M1573.6,1017.5v-12.9h-8.6c0.1,1.3,0.2,2.7,0.2,4.3v8.7H1573.6z M1546.6,1015.6v6.9h1.5
		v-6.9h8v-1.3h-17.5v1.3H1546.6z M1552.2,1010h-9.7v-4.7h9.7V1010z M1553.7,1011.3v-7.3h-12.8c0.1,1.3,0.2,2.7,0.2,4.3v3H1553.7z
		 M1524.7,1017.4c2.5,0,4.9-0.2,7-0.7v-1.3c-2,0.5-4.3,0.7-6.9,0.7h-2.4v-11.9h-1.7c0.1,1.2,0.2,2.6,0.2,4.3v9H1524.7z
		 M1534.5,1022.5v-10.6h2.9v-1.4h-2.9v-7.2h-1.7c0.1,1.1,0.2,2.5,0.2,4.1v15.1H1534.5z M1515.7,1014.3v-5.4h2.7v-1.3h-2.7v-4.3h-1.6
		c0.1,1.4,0.1,2.8,0.1,4.3v6.8H1515.7z M1514.2,1020.9h-9v-4.1h9V1020.9z M1510.2,1004.1h-8.5v1.3h7v2.6h-7.1
		c0.1,1.4,0.2,2.5,0.2,3.4v2h3.9c1,0,2.2-0.1,3.6-0.2c1.5-0.1,2.7-0.3,3.8-0.5v-1.3c-2.2,0.4-4.6,0.6-7.2,0.6h-2.6v-2.8h7V1004.1z
		 M1515.7,1022.2v-6.7h-12.1c0.1,1.2,0.1,2.5,0.1,4.2v2.5H1515.7z M1496.7,1014.1v-4.9h2.7v-1.3h-2.7v-4.5h-1.6
		c0.1,1.4,0.1,2.8,0.1,4.3v6.5H1496.7z M1482.9,1005.6h6.9c-0.3,1.9-1.2,3.5-2.7,4.8c-1.5,1.3-3.2,2.2-5.3,2.8l0.9,1.1
		c2.6-0.8,4.6-2,6.2-3.7c1.6-1.7,2.4-3.8,2.6-6.3h-8.6V1005.6z M1495.2,1020.9h-8.8v-4.4h8.8V1020.9z M1496.7,1022.2v-7h-12
		c0.1,1.2,0.1,2.5,0.1,4.2v2.8H1496.7z M1472.7,1019.1c-0.2-0.4-0.6-0.6-1.1-0.6c-0.4,0-0.7,0.1-1,0.3c-0.3,0.2-0.4,0.5-0.5,1
		c0,0.4,0,0.8,0.2,1s0.5,0.4,0.8,0.4c0.3,0,0.3,0.3,0.2,0.7c-0.1,0.3-0.3,0.7-0.5,1c-0.3,0.3-0.6,0.6-0.9,0.7l0.6,0.4
		c0.6-0.3,1.2-0.7,1.6-1.4c0.5-0.7,0.7-1.4,0.8-2.2C1473.1,1019.9,1473,1019.5,1472.7,1019.1 M1458.8,1015.6v6.9h1.5v-6.9h8v-1.3
		h-17.5v1.3H1458.8z M1464.4,1010h-9.7v-4.7h9.7V1010z M1465.9,1011.3v-7.3h-12.8c0.1,1.3,0.2,2.7,0.2,4.3v3H1465.9z M1436.9,1017.4
		c2.5,0,4.9-0.2,7-0.7v-1.3c-2,0.5-4.3,0.7-6.9,0.7h-2.4v-11.9h-1.7c0.1,1.2,0.2,2.6,0.2,4.3v9H1436.9z M1446.7,1022.5v-10.6h2.9
		v-1.4h-2.9v-7.2h-1.7c0.1,1.1,0.2,2.5,0.2,4.1v15.1H1446.7z M1427,1013.3v9.2h1.5v-19.2h-1.7c0.1,1.2,0.2,2.4,0.2,3.7h-3.2v1.3h3.2
		v3.7h-3.2v1.3H1427z M1422,1004.3h-7.8v1.3h6.3v4.7h-6.5c0.1,1.4,0.2,2.8,0.2,4.3v3.1h3.4c1,0,2.2-0.1,3.7-0.2
		c1.4-0.1,2.6-0.3,3.6-0.5v-1.3c-2,0.5-4.4,0.7-7.1,0.7h-2.1v-4.7h6.4V1004.3z M1411.3,1014.1v-1.3h-8v-3h-1.6
		c0.1,1,0.1,1.8,0.1,2.2v0.8h-8v1.3H1411.3z M1402.5,1017c1.6,0,2.9,0.2,3.8,0.6c1,0.4,1.4,1,1.4,1.7c0,0.7-0.5,1.3-1.4,1.7
		c-1,0.4-2.2,0.6-3.8,0.6c-1.6,0-2.9-0.2-3.8-0.6c-1-0.4-1.4-1-1.4-1.7s0.5-1.3,1.4-1.7C1399.6,1017.2,1400.9,1017,1402.5,1017
		 M1401.7,1005.2c-0.1,0.8-0.5,1.5-1.3,2.1c-0.8,0.6-1.6,1.1-2.6,1.4c-0.9,0.3-2,0.6-3.1,0.7l0.9,1.1c1.4-0.3,2.8-0.7,4.1-1.3
		c1.3-0.6,2.2-1.4,2.8-2.4c0.6,1,1.5,1.8,2.8,2.4c1.3,0.6,2.6,1,4,1.3l0.9-1.1c-1.1-0.1-2.1-0.4-3-0.7c-1-0.3-1.8-0.8-2.6-1.4
		s-1.2-1.3-1.3-2.1h5.8v-1.3h-13.2v1.3H1401.7z M1402.5,1022.8c2.2,0,3.8-0.3,5-0.9c1.2-0.6,1.8-1.5,1.8-2.6s-0.6-2-1.8-2.6
		c-1.2-0.6-2.8-1-5-1c-2.1,0-3.8,0.3-5,1c-1.2,0.6-1.8,1.5-1.8,2.6s0.6,2,1.8,2.6S1400.4,1022.8,1402.5,1022.8 M1384.9,1019.1
		c-0.2-0.4-0.6-0.6-1.1-0.6c-0.4,0-0.7,0.1-1,0.3c-0.3,0.2-0.4,0.5-0.5,1c0,0.4,0,0.8,0.2,1c0.2,0.2,0.5,0.4,0.8,0.4
		c0.3,0,0.3,0.3,0.2,0.7c-0.1,0.3-0.3,0.7-0.5,1c-0.3,0.3-0.6,0.6-0.9,0.7l0.6,0.4c0.6-0.3,1.2-0.7,1.6-1.4c0.5-0.7,0.7-1.4,0.8-2.2
		C1385.3,1019.9,1385.2,1019.5,1384.9,1019.1 M1371,1015.6v6.9h1.5v-6.9h8v-1.3H1363v1.3H1371z M1376.6,1010h-9.7v-4.7h9.7V1010z
		 M1378.1,1011.3v-7.3h-12.8c0.1,1.3,0.2,2.7,0.2,4.3v3H1378.1z M1349.1,1017.4c2.5,0,4.9-0.2,7-0.7v-1.3c-2,0.5-4.3,0.7-6.9,0.7
		h-2.4v-11.9h-1.7c0.1,1.2,0.2,2.6,0.2,4.3v9H1349.1z M1358.8,1022.5v-10.6h2.9v-1.4h-2.9v-7.2h-1.7c0.1,1.1,0.2,2.5,0.2,4.1v15.1
		H1358.8z M1342.5,1019.9v-1.3h-8v-5.1h6v-1.3h-11.5v-6.5h11.3v-1.3h-13c0.1,1.3,0.2,2.7,0.2,4.3v4.9h5.5v5.1h-8v1.3H1342.5z
		 M1321.4,1004.4H1308v1.3h13.4V1004.4z M1323.5,1019.9v-1.3h-8.1v-4.9h6.4v-1.3h-2.8l0.2-6h-1.5l-0.2,6h-5.7l-0.2-6h-1.5l0.2,6
		h-2.7v1.3h6.4v4.9h-8v1.3H1323.5z M1297.1,1019.1c-0.2-0.4-0.6-0.6-1.1-0.6c-0.4,0-0.7,0.1-1,0.3c-0.3,0.2-0.4,0.5-0.5,1
		c0,0.4,0,0.8,0.2,1s0.5,0.4,0.8,0.4c0.3,0,0.3,0.3,0.2,0.7c-0.1,0.3-0.3,0.7-0.5,1c-0.3,0.3-0.6,0.6-0.9,0.7l0.6,0.4
		c0.6-0.3,1.2-0.7,1.6-1.4c0.5-0.7,0.7-1.4,0.8-2.2C1297.5,1019.9,1297.4,1019.5,1297.1,1019.1 M1283.2,1015.6v6.9h1.5v-6.9h8v-1.3
		h-17.5v1.3H1283.2z M1288.8,1010h-9.7v-4.7h9.7V1010z M1290.3,1011.3v-7.3h-12.8c0.1,1.3,0.2,2.7,0.2,4.3v3H1290.3z M1261.3,1017.4
		c2.5,0,4.9-0.2,7-0.7v-1.3c-2,0.5-4.3,0.7-6.9,0.7h-2.4v-11.9h-1.7c0.1,1.2,0.2,2.6,0.2,4.3v9H1261.3z M1271,1022.5v-10.6h2.9v-1.4
		h-2.9v-7.2h-1.7c0.1,1.1,0.2,2.5,0.2,4.1v15.1H1271z M1253.2,1014v-10.7h-1.6c0.1,1.1,0.2,2.5,0.2,4.1v6.6H1253.2z M1247.7,1008.8
		v5.2h1.5v-10.4h-1.6c0.1,1.3,0.2,2.6,0.2,3.8h-3.6v1.3H1247.7z M1241.1,1012.9c1.9,0,3.7-0.2,5.3-0.5v-1.3
		c-1.5,0.3-3.2,0.5-5.1,0.5h-1.3v-6h5v-1.3h-6.6c0.1,1.2,0.2,2.6,0.2,4.3v4.3H1241.1z M1251.7,1020.9h-9.5v-4.5h9.5V1020.9z
		 M1253.2,1022.2v-7h-12.6c0.1,1.2,0.1,2.5,0.1,4.2v2.8H1253.2z M1235.7,1019.9v-1.3h-8.1v-3.7h6.1v-1.3h-11.6v-3.5h11v-5.9h-12.5
		v1.3h11v3.4h-11.1c0.1,1.1,0.1,2.4,0.1,4v2h5.5v3.7h-8v1.3H1235.7z M1209.3,1019.1c-0.2-0.4-0.6-0.6-1.1-0.6c-0.4,0-0.7,0.1-1,0.3
		c-0.3,0.2-0.4,0.5-0.5,1c0,0.4,0,0.8,0.2,1c0.2,0.2,0.5,0.4,0.8,0.4c0.3,0,0.3,0.3,0.2,0.7c-0.1,0.3-0.3,0.7-0.5,1
		c-0.3,0.3-0.6,0.6-0.9,0.7l0.6,0.4c0.6-0.3,1.2-0.7,1.6-1.4c0.5-0.7,0.7-1.4,0.8-2.2C1209.7,1019.9,1209.6,1019.5,1209.3,1019.1
		 M1195.4,1015.6v6.9h1.5v-6.9h8v-1.3h-17.5v1.3H1195.4z M1201,1010h-9.7v-4.7h9.7V1010z M1202.5,1011.3v-7.3h-12.8
		c0.1,1.3,0.2,2.7,0.2,4.3v3H1202.5z M1173.5,1017.4c2.5,0,4.9-0.2,7-0.7v-1.3c-2,0.5-4.3,0.7-6.9,0.7h-2.4v-11.9h-1.7
		c0.1,1.2,0.2,2.6,0.2,4.3v9H1173.5z M1183.2,1022.5v-10.6h2.9v-1.4h-2.9v-7.2h-1.7c0.1,1.1,0.2,2.5,0.2,4.1v15.1H1183.2z
		 M1164.9,1012.3h-11.5v-6.5h11.3v-1.3h-13c0.1,1.3,0.2,2.7,0.2,4.3v4.9h13.1V1012.3z M1166.9,1018.6h-17.5v1.3h17.5V1018.6z
		 M1133.3,1010.6h5.7v5.7h-5.7V1010.6z M1140.4,1017.6v-6.2h4.1v11.1h1.5v-19.2h-1.7c0.1,1.1,0.2,2.5,0.2,4.1v2.6h-4.1v-5.7h-1.5v5
		h-5.7v-5h-1.6c0.1,1.3,0.2,2.7,0.2,4.3v9.1H1140.4z M1128.5,1023.2h1.2c-2.2-2.9-3.4-6.4-3.4-10.4c0-4,1.1-7.5,3.4-10.4h-1.2
		c-1.3,1.4-2.3,3-2.9,4.8c-0.6,1.8-0.9,3.7-0.9,5.6s0.3,3.8,0.9,5.6C1126.3,1020.2,1127.2,1021.8,1128.5,1023.2 M1120.2,1014.1
		v-10.8h-1.6c0.1,1.4,0.1,2.8,0.1,4.3v6.5H1120.2z M1118.6,1020.9h-9.2v-4.4h9.2V1020.9z M1120.2,1022.2v-6.9h-12.3
		c0.1,1.2,0.1,2.5,0.1,4.2v2.7H1120.2z M1110,1005c1,0,1.8,0.3,2.4,1c0.6,0.6,0.9,1.5,0.9,2.4c0,1-0.3,1.8-0.9,2.4s-1.4,1-2.4,1
		c-1,0-1.8-0.3-2.5-1c-0.6-0.7-0.9-1.5-0.9-2.4c0-1,0.3-1.8,0.9-2.4C1108.2,1005.3,1109,1005,1110,1005 M1106.5,1011.7
		c0.9,0.9,2.1,1.3,3.5,1.3c1.4,0,2.5-0.5,3.5-1.4c0.9-0.9,1.4-2,1.4-3.3c0-1.3-0.5-2.4-1.4-3.3s-2.1-1.4-3.5-1.4
		c-1.4,0-2.6,0.5-3.5,1.4c-0.9,0.9-1.4,2-1.4,3.3C1105.1,1009.7,1105.6,1010.8,1106.5,1011.7 M1098.9,1012.4h-9.6v-6.7h9.6V1012.4z
		 M1102.9,1019.9v-1.3h-8v-5h5.5v-9.3h-12.7c0.1,1.3,0.2,2.7,0.2,4.3v5h5.5v5h-8v1.3H1102.9z M1081.7,1014.8v-5.9h2.7v-1.3h-2.7
		v-4.3h-1.6c0.1,1.4,0.1,2.8,0.1,4.3v7.3H1081.7z M1071.6,1005.5v0.7c0,1.5-0.5,2.9-1.5,4.1c-1,1.2-2.3,2.1-3.8,2.7l1.1,1
		c1.1-0.5,2.1-1.2,3-2c0.9-0.8,1.5-1.7,1.9-2.8c0.5,1,1.2,1.8,2.1,2.6c0.9,0.7,1.8,1.3,2.8,1.6l1-1.1c-1.4-0.5-2.6-1.3-3.6-2.4
		c-1-1.1-1.5-2.3-1.5-3.7v-0.7h3.9v-1.3h-9.4v1.3H1071.6z M1075.8,1016.4c1.5,0,2.6,0.2,3.5,0.7c0.9,0.5,1.3,1.1,1.3,1.9
		c0,0.8-0.4,1.4-1.3,1.8c-0.9,0.4-2.1,0.7-3.5,0.7c-1.5,0-2.7-0.2-3.5-0.7c-0.9-0.5-1.3-1.1-1.3-1.9s0.4-1.4,1.3-1.9
		C1073.1,1016.6,1074.3,1016.4,1075.8,1016.4 M1071,1021.8c1.1,0.7,2.7,1,4.7,1c2,0,3.6-0.3,4.7-1c1.1-0.7,1.7-1.6,1.7-2.8
		s-0.6-2.1-1.7-2.8c-1.1-0.7-2.7-1.1-4.7-1.1c-2,0-3.6,0.3-4.7,1c-1.1,0.7-1.7,1.6-1.7,2.8C1069.3,1020.1,1069.9,1021.1,1071,1021.8
		 M1062.4,1016.4h-12.9v1.3h11.4v4.9h1.5V1016.4z M1061,1008.9h-9.7v-3.7h9.7V1008.9z M1064.9,1014.2v-1.3h-8v-2.7h5.6v-6.2h-12.9
		c0.1,1.2,0.2,2.4,0.2,3.6v2.6h5.6v2.7h-8v1.3H1064.9z"/>
	<path class="st1" d="M1020.7,1059.3h-3.4v-2h3.4V1059.3z M1016.2,1052c-0.7-0.3-1-0.7-1-1.3c0-0.6,0.3-1,1-1.3
		c0.7-0.3,1.6-0.5,2.9-0.5c1.2,0,2.2,0.2,2.8,0.5c0.7,0.3,1,0.7,1,1.3c0,0.6-0.3,1-1,1.3s-1.6,0.5-2.8,0.5
		C1017.8,1052.5,1016.9,1052.3,1016.2,1052 M1023.7,1053.3c1.1-0.6,1.7-1.5,1.7-2.6c0-1.1-0.6-2-1.7-2.7c-1.1-0.6-2.6-1-4.6-1
		c-2,0-3.5,0.3-4.6,1c-1.1,0.6-1.7,1.5-1.7,2.7c0,1.1,0.6,2,1.7,2.6c1.1,0.6,2.6,0.9,4.6,0.9C1021,1054.3,1022.6,1054,1023.7,1053.3
		 M1015.1,1057.3v2h-2.2v2h9.7v3.6h2.3v-5.5h-2v-2h4.1v-1.9H1011v1.9H1015.1z M1005.6,1050.2c0,1.3-0.1,2.7-0.3,4.3
		s-0.4,2.9-0.6,3.9h2.4c0.2-1.2,0.5-2.7,0.7-4.6c0.2-1.9,0.3-3.8,0.3-5.5h-12.4v2H1005.6z M1009.8,1062.5v-2h-6.1v-5.7h-2.4
		c0.1,0.8,0.1,2.1,0.1,3.9v1.8h-1.7v-5.7h-2.4c0.1,0.8,0.1,2.2,0.1,4.2v1.4h-3.6v2H1009.8z"/>
	<path class="st1" d="M1562.1,1060.8c2.5,0,4.9-0.2,7-0.7v-1.3c-2,0.5-4.3,0.7-6.9,0.7h-2.4v-11.9h-1.7c0.1,1.2,0.2,2.6,0.2,4.3v9
		H1562.1z M1571.9,1065.9v-10.6h2.9v-1.4h-2.9v-7.2h-1.7c0.1,1.1,0.2,2.5,0.2,4.1v15.1H1571.9z M1553.8,1065.9v-19.2h-1.7
		c0.1,1.1,0.2,2.5,0.2,4.1v15.1H1553.8z M1546.7,1059.5h-5.7v-10.4h5.7V1059.5z M1548.2,1060.8v-12.9h-8.9c0.1,1.3,0.2,2.7,0.2,4.3
		v8.7H1548.2z M1535.3,1065.9v-19.2h-1.6c0.1,1.1,0.2,2.5,0.2,4.1v15.1H1535.3z M1530,1054v11h1.5V1047h-1.6
		c0.1,1.1,0.2,2.5,0.2,4.1v1.6h-3.3v1.3H1530z M1522.9,1047.5c0.1,0.9,0.2,2.1,0.2,3.4c0,4.6-1.5,8-4.6,10l1.3,1
		c0.9-0.6,1.7-1.5,2.4-2.6c0.7-1.1,1.3-2.3,1.6-3.5c0.7,2.4,2,4.2,3.8,5.5l1.1-1c-1.4-0.8-2.4-2-3-3.7c-0.7-1.6-1-3.4-1-5.5v-3.6
		H1522.9z M1515.8,1056.7v-10h-1.6c0.1,1.4,0.1,2.8,0.1,4.3v5.8H1515.8z M1504.9,1047.2c0.1,0.5,0.1,1.2,0.1,1.9
		c0,1.4-0.5,2.6-1.4,3.7c-0.9,1.1-2.2,2-3.8,2.6l1.1,1c1.1-0.5,2.1-1.2,3-2c0.9-0.8,1.5-1.7,1.9-2.8c0.5,1,1.2,1.8,2.1,2.5
		c0.9,0.7,1.9,1.2,2.8,1.6l0.9-1.1c-1.4-0.5-2.7-1.3-3.6-2.3c-1-1.1-1.5-2.2-1.5-3.6v-1.8H1504.9z M1505,1061.4h9.3v2.9h-9.3V1061.4
		z M1515.8,1065.6v-7.9h-1.5v2.4h-9.3v-2.4h-1.6c0.1,1.3,0.2,2.7,0.2,4.3v3.6H1515.8z M1495.1,1054.4v11.5h1.5v-19.2h-1.7
		c0.1,1.1,0.2,2.5,0.2,4.1v2.4h-5.4v1.3H1495.1z M1486.1,1060.8c2.5,0,4.9-0.2,7-0.7v-1.3c-2,0.5-4.3,0.7-6.9,0.7h-2.4v-10.3h7.2
		v-1.3h-8.8c0.1,1.3,0.2,2.7,0.2,4.3v8.6H1486.1z M1477.6,1065.9v-19.2h-1.7c0.1,1.1,0.2,2.5,0.2,4.1v15.1H1477.6z M1471.7,1047.7
		h-8.4v1.3h6.9v4.7h-7.1c0.1,1.4,0.2,2.8,0.2,4.3v3.1h4.1c1,0,2.2-0.1,3.7-0.2c1.4-0.1,2.6-0.3,3.6-0.5v-1.3c-2,0.5-4.4,0.7-7.1,0.7
		h-2.7v-4.7h6.9V1047.7z M1453.1,1062.5c-0.2-0.4-0.6-0.6-1.1-0.6c-0.4,0-0.7,0.1-1,0.3c-0.3,0.2-0.4,0.5-0.5,0.9c0,0.4,0,0.8,0.2,1
		c0.2,0.2,0.5,0.4,0.8,0.4c0.3,0,0.3,0.3,0.2,0.7c-0.1,0.3-0.3,0.7-0.5,1c-0.3,0.3-0.6,0.6-0.9,0.7l0.6,0.4c0.6-0.3,1.2-0.7,1.6-1.4
		c0.5-0.7,0.7-1.4,0.8-2.2C1453.5,1063.3,1453.4,1062.9,1453.1,1062.5 M1445.1,1049.2c0,1.3-0.2,2.9-0.4,4.9c-0.2,1.9-0.5,3.6-0.8,5
		h1.4c0.3-1.5,0.6-3.2,0.9-5.4c0.3-2.1,0.4-4.1,0.4-5.8h-13.3v1.3H1445.1z M1448.7,1063.3v-1.3h-7v-7.2h-1.6c0.1,1,0.1,2,0.1,2.8
		v4.3h-3.1v-7.2h-1.6c0.1,1,0.1,2,0.1,2.8v4.3h-4.4v1.3H1448.7z M1415.3,1048h5.7v-1.3h-5.7V1048z M1423.7,1049.3h-10.9v1.3h10.9
		V1049.3z M1415.9,1056.5c-0.6-0.4-0.9-0.9-0.9-1.5c0-0.6,0.3-1.1,0.9-1.5c0.6-0.4,1.3-0.6,2.3-0.6c1,0,1.7,0.2,2.3,0.6
		c0.6,0.4,0.9,0.9,0.9,1.5c0,0.6-0.3,1.1-0.9,1.5c-0.6,0.4-1.3,0.6-2.3,0.6C1417.2,1057,1416.5,1056.9,1415.9,1056.5 M1427.5,1059
		v-5.4h2.7v-1.3h-2.7v-5.5h-1.6c0.1,1.4,0.1,2.8,0.1,4.3v8H1427.5z M1427.5,1060h-12.4v1.3h10.9v4.6h1.5V1060z M1422.9,1055
		c0-1-0.4-1.8-1.3-2.4c-0.8-0.6-2-0.9-3.4-0.9c-1.4,0-2.5,0.3-3.4,0.9c-0.8,0.6-1.3,1.4-1.3,2.4c0,1,0.4,1.7,1.3,2.3s2,0.9,3.4,0.9
		c1.4,0,2.5-0.3,3.4-0.9S1422.9,1056,1422.9,1055 M1403,1056.5v-1.9h4.3v3.6h1.5v-11.5h-1.6c0.1,1.3,0.1,2.2,0.1,2.6h-4.3v-1.7h-8.6
		c0.1,1.3,0.2,2.7,0.2,4.3v4.6H1403z M1402.7,1066.2c2,0,3.6-0.3,4.8-1c1.2-0.7,1.7-1.6,1.7-2.8c0-1.2-0.6-2.1-1.8-2.8
		c-1.2-0.7-2.8-1.1-4.8-1.1c-2,0-3.6,0.3-4.8,1c-1.2,0.7-1.8,1.6-1.8,2.8c0,1.2,0.6,2.1,1.7,2.8
		C1399,1065.8,1400.6,1066.2,1402.7,1066.2 M1402.7,1059.8c1.5,0,2.7,0.2,3.6,0.7c0.9,0.5,1.4,1.1,1.4,1.9c0,0.8-0.5,1.4-1.4,1.8
		c-0.9,0.5-2.1,0.7-3.6,0.7s-2.7-0.2-3.6-0.7c-0.9-0.5-1.4-1.1-1.4-1.9c0-0.8,0.5-1.4,1.4-1.9
		C1400,1060,1401.2,1059.8,1402.7,1059.8 M1401.6,1055.2h-5.5v-6.2h5.5V1055.2z M1403,1050.6h4.3v2.7h-4.3V1050.6z M1391.7,1063.3
		v-1.3h-8v-4.8h-1.6c0.1,1,0.1,2,0.1,2.8v1.9h-8v1.3H1391.7z M1382,1047.4c0.1,0.3,0.1,0.9,0.1,1.7c0,1.6-0.7,3.2-2.2,4.6
		c-1.5,1.4-3.2,2.4-5.1,3l1.1,1.1c1.5-0.5,2.9-1.3,4.2-2.4c1.3-1.1,2.3-2.3,2.8-3.6c0.5,1.3,1.5,2.5,2.8,3.6
		c1.4,1.1,2.7,1.9,4.1,2.4l1-1.1c-1.9-0.6-3.6-1.6-5-3c-1.4-1.5-2.2-3-2.2-4.5v-1.7H1382z M1363.9,1065.9v-9.8h2.8v-1.4h-2.8v-8
		h-1.7c0.1,1.1,0.2,2.5,0.2,4.1v15.1H1363.9z M1348.9,1060.4v1.3h3.3c3.4,0,6.5-0.2,9.2-0.6v-1.3c-1.4,0.2-3.8,0.4-7,0.5v-6.5h-1.6
		c0.1,1,0.1,2,0.1,2.8v3.7H1348.9z M1359.2,1053.1c0.2-2,0.3-3.7,0.3-5.2h-9.6v1.3h8c0,1-0.1,2.4-0.2,4.2c-0.2,1.8-0.4,3.2-0.6,4.2
		h1.4C1358.8,1056.6,1359,1055.1,1359.2,1053.1 M1334.8,1061.5h9.3v2.8h-9.3V1061.5z M1335.3,1048.3c1,0,1.8,0.3,2.4,0.9
		c0.6,0.6,0.9,1.4,0.9,2.3c0,0.9-0.3,1.7-0.9,2.3c-0.6,0.6-1.4,0.9-2.4,0.9c-1,0-1.8-0.3-2.4-0.9c-0.6-0.6-0.9-1.4-0.9-2.3
		c0-0.9,0.3-1.7,0.9-2.3C1333.5,1048.6,1334.3,1048.3,1335.3,1048.3 M1345.5,1065.6v-7.8h-1.5v2.5h-9.3v-2.5h-1.6
		c0.1,1.3,0.2,2.7,0.2,4.2v3.6H1345.5z M1331.8,1054.8c0.9,0.9,2.1,1.3,3.5,1.3c1.2,0,2.3-0.4,3.2-1.1c0.9-0.7,1.4-1.6,1.6-2.7h4
		v4.4h1.5v-10h-1.6c0.1,1.4,0.1,2.8,0.1,4.3v0.1h-4c-0.1-1.2-0.7-2.1-1.5-2.9c-0.9-0.8-2-1.1-3.2-1.1c-1.4,0-2.6,0.4-3.5,1.3
		c-0.9,0.9-1.4,2-1.4,3.3C1330.5,1052.9,1330.9,1053.9,1331.8,1054.8 M1326.8,1058.1v-11.5h-1.6c0.1,1.4,0.1,2.8,0.1,4.3v7.2H1326.8
		z M1326.8,1059.3h-12.5v1.3h11v5.4h1.5V1059.3z M1316.2,1048.9v0.7c0,1.6-0.5,2.9-1.5,4.1c-1,1.2-2.3,2.1-3.8,2.7l1.2,1
		c1.1-0.5,2.1-1.1,3-2c0.9-0.8,1.5-1.8,1.9-2.8c0.5,0.9,1.2,1.8,2.1,2.6c0.9,0.8,1.8,1.3,2.7,1.6l0.9-1.1c-1.4-0.5-2.6-1.3-3.6-2.4
		c-0.9-1.1-1.4-2.3-1.4-3.7v-0.8h4v-1.3h-9.7v1.3H1316.2z M1301.9,1062.5c-0.2-0.4-0.6-0.6-1.1-0.6c-0.4,0-0.7,0.1-1,0.3
		c-0.3,0.2-0.4,0.5-0.5,0.9c0,0.4,0,0.8,0.2,1s0.5,0.4,0.8,0.4c0.3,0,0.3,0.3,0.2,0.7c-0.1,0.3-0.3,0.7-0.5,1
		c-0.3,0.3-0.6,0.6-0.9,0.7l0.6,0.4c0.6-0.3,1.2-0.7,1.6-1.4c0.5-0.7,0.7-1.4,0.8-2.2C1302.3,1063.3,1302.2,1062.9,1301.9,1062.5
		 M1293.9,1049.2c0,1.3-0.2,2.9-0.4,4.9c-0.2,1.9-0.5,3.6-0.8,5h1.4c0.3-1.5,0.6-3.2,0.9-5.4s0.4-4.1,0.4-5.8h-13.3v1.3H1293.9z
		 M1297.5,1063.3v-1.3h-7v-7.2h-1.6c0.1,1,0.1,2,0.1,2.8v4.3h-3.1v-7.2h-1.6c0.1,1,0.1,2,0.1,2.8v4.3h-4.4v1.3H1297.5z M1264.2,1048
		h5.7v-1.3h-5.7V1048z M1272.5,1049.3h-10.9v1.3h10.9V1049.3z M1264.7,1056.5c-0.6-0.4-0.9-0.9-0.9-1.5c0-0.6,0.3-1.1,0.9-1.5
		c0.6-0.4,1.3-0.6,2.3-0.6c1,0,1.7,0.2,2.3,0.6c0.6,0.4,0.9,0.9,0.9,1.5c0,0.6-0.3,1.1-0.9,1.5c-0.6,0.4-1.3,0.6-2.3,0.6
		C1266.1,1057,1265.3,1056.9,1264.7,1056.5 M1276.3,1059v-5.4h2.7v-1.3h-2.7v-5.5h-1.6c0.1,1.4,0.1,2.8,0.1,4.3v8H1276.3z
		 M1276.3,1060H1264v1.3h10.9v4.6h1.5V1060z M1271.7,1055c0-1-0.4-1.8-1.3-2.4c-0.8-0.6-2-0.9-3.4-0.9c-1.4,0-2.5,0.3-3.4,0.9
		c-0.8,0.6-1.3,1.4-1.3,2.4c0,1,0.4,1.7,1.3,2.3c0.8,0.6,2,0.9,3.4,0.9c1.4,0,2.5-0.3,3.4-0.9
		C1271.3,1056.8,1271.7,1056,1271.7,1055 M1244.5,1050.1c0.5-1.1,1.1-1.6,2-1.6c0.8,0,1.4,0.5,1.9,1.6c0.5,1.1,0.7,2.5,0.7,4.3
		c0,1.8-0.2,3.3-0.7,4.3c-0.5,1.1-1.1,1.6-1.9,1.6c-0.8,0-1.5-0.5-2-1.6c-0.5-1.1-0.7-2.5-0.7-4.3
		C1243.8,1052.6,1244,1051.2,1244.5,1050.1 M1253.9,1064.9v-10.1h2.7v11h1.5v-19.2h-1.6c0.1,1.1,0.2,2.5,0.2,4.1v2.8h-2.7v-6.5h-1.6
		c0.1,1.1,0.2,2.5,0.2,4.1v13.9H1253.9z M1243.5,1059.9c0.8,1.1,1.8,1.7,3,1.7c1.1,0,2.1-0.6,2.9-1.7c0.8-1.1,1.2-3,1.2-5.4
		c0-2.5-0.4-4.3-1.2-5.5c-0.8-1.1-1.7-1.7-2.9-1.7c-1.2,0-2.2,0.6-3,1.7c-0.8,1.1-1.2,2.9-1.2,5.5
		C1242.3,1056.9,1242.7,1058.7,1243.5,1059.9 M1225,1055.5c0.9,1,2.1,1.4,3.5,1.4c0.9,0,1.7-0.2,2.4-0.6c0.7-0.4,1.3-1,1.7-1.7h4.5
		v6.1h1.5v-14.1h-1.6c0.1,1.1,0.1,1.9,0.1,2.3h-4.7c-0.4-0.6-1-1.1-1.7-1.4c-0.7-0.3-1.4-0.5-2.2-0.5c-1.4,0-2.6,0.5-3.5,1.4
		c-0.9,1-1.4,2.1-1.4,3.5C1223.6,1053.4,1224.1,1054.6,1225,1055.5 M1228.6,1048.4c1,0,1.8,0.4,2.5,1.1s0.9,1.6,0.9,2.6
		c0,1-0.3,1.9-0.9,2.6c-0.6,0.7-1.4,1.1-2.5,1.1s-1.9-0.4-2.5-1.1c-0.6-0.7-1-1.6-1-2.6c0-1,0.3-1.9,1-2.6
		S1227.6,1048.4,1228.6,1048.4 M1239.4,1065.4v-1.4h-11.3v-4.7h-1.7c0.1,1.3,0.2,2.6,0.2,4v2.1H1239.4z M1233.3,1053.4
		c0.1-0.4,0.2-0.9,0.2-1.3c0-0.6-0.1-1.2-0.3-1.7h4v3.1H1233.3z M1214.1,1062.5c-0.2-0.4-0.6-0.6-1.1-0.6c-0.4,0-0.7,0.1-1,0.3
		c-0.3,0.2-0.4,0.5-0.5,0.9c0,0.4,0,0.8,0.2,1c0.2,0.2,0.5,0.4,0.8,0.4c0.3,0,0.3,0.3,0.2,0.7c-0.1,0.3-0.3,0.7-0.5,1
		c-0.3,0.3-0.6,0.6-0.9,0.7l0.6,0.4c0.6-0.3,1.2-0.7,1.6-1.4c0.5-0.7,0.7-1.4,0.8-2.2C1214.5,1063.3,1214.4,1062.9,1214.1,1062.5
		 M1205.8,1054.2h-9.7v-3.3h9.7V1054.2z M1200.2,1059.4v6.5h1.5v-6.5h8v-1.3h-17.5v1.3H1200.2z M1196.1,1049.6v-2.5h-1.6
		c0.1,1.3,0.2,2.7,0.2,4.3v4.1h12.7v-8.3h-1.5v2.5H1196.1z M1188.6,1047.3h-13.3v1.3h11.8c0,1.9-0.3,3.7-0.6,5.1h1.4
		C1188.3,1051.8,1188.6,1049.6,1188.6,1047.3 M1190.7,1056.7v-1.3h-8.9v-4.1h-1.6c0.1,1,0.1,2,0.1,2.8v1.2h-7.1v1.3H1190.7z
		 M1181.9,1059.9c1.6,0,2.9,0.2,3.8,0.7c1,0.5,1.4,1.1,1.4,1.9c0,0.8-0.5,1.4-1.4,1.8c-1,0.4-2.2,0.7-3.8,0.7
		c-1.6,0-2.9-0.2-3.8-0.7c-1-0.5-1.4-1.1-1.4-1.9c0-0.8,0.5-1.4,1.4-1.8C1179.1,1060.1,1180.3,1059.9,1181.9,1059.9 M1177,1065.2
		c1.2,0.7,2.8,1,5,1c2.1,0,3.8-0.3,5-1c1.2-0.7,1.8-1.6,1.8-2.8c0-1.2-0.6-2.1-1.8-2.8c-1.2-0.7-2.8-1-5-1c-2.1,0-3.8,0.3-5,1
		c-1.2,0.7-1.8,1.6-1.8,2.8C1175.2,1063.6,1175.8,1064.5,1177,1065.2 M1163.8,1066.2c2,0,3.6-0.3,4.8-1c1.2-0.7,1.7-1.6,1.7-2.8
		c0-1.2-0.6-2.1-1.7-2.8c-1.2-0.7-2.7-1.1-4.8-1.1c-2,0-3.6,0.3-4.8,1c-1.2,0.7-1.8,1.6-1.8,2.8c0,1.2,0.6,2.1,1.7,2.8
		C1160.2,1065.8,1161.8,1066.2,1163.8,1066.2 M1163.8,1059.8c1.5,0,2.7,0.2,3.6,0.7c0.9,0.5,1.4,1.1,1.4,1.9c0,0.8-0.5,1.4-1.4,1.8
		c-0.9,0.5-2.1,0.7-3.6,0.7c-1.5,0-2.7-0.2-3.6-0.7c-0.9-0.5-1.4-1.1-1.4-1.9c0-0.8,0.5-1.4,1.4-1.9
		C1161.1,1060,1162.3,1059.8,1163.8,1059.8 M1155.7,1049h6.7c-0.3,1.9-1.2,3.5-2.6,4.8c-1.4,1.3-3.1,2.2-5.2,2.8l0.9,1.1
		c2.5-0.8,4.6-2,6.1-3.7c1.5-1.7,2.4-3.8,2.6-6.3h-8.5V1049z M1168.5,1055v3.1h1.5v-11.5h-1.6c0.1,1.3,0.1,2.3,0.1,2.8h-3.5v1.3h3.6
		v2.9h-4v1.3H1168.5z M1149.5,1051.7v6.5h1.5v-11.5h-1.6c0.1,1.3,0.1,2.5,0.1,3.7h-4.3v1.3H1149.5z M1140,1047.2
		c0.1,0.5,0.1,1.2,0.1,2c0,1.6-0.5,3-1.5,4.3c-1,1.2-2.3,2.2-3.8,2.9l1.2,1c1.1-0.5,2-1.2,3-2c0.9-0.9,1.6-1.8,1.9-2.9
		c0.5,1,1.2,1.8,2.1,2.6c0.9,0.8,1.9,1.3,2.9,1.7l0.9-1.1c-1.4-0.5-2.6-1.3-3.6-2.5c-1-1.2-1.5-2.6-1.5-4.1v-1.8H1140z
		 M1144.8,1059.8c1.5,0,2.7,0.2,3.6,0.7s1.4,1.1,1.4,1.9c0,0.8-0.5,1.4-1.4,1.8s-2.1,0.7-3.6,0.7c-1.5,0-2.7-0.2-3.6-0.7
		c-0.9-0.5-1.4-1.1-1.4-1.9c0-0.8,0.4-1.4,1.3-1.9C1142.1,1060,1143.3,1059.8,1144.8,1059.8 M1144.8,1066.2c2,0,3.6-0.3,4.8-1
		c1.2-0.7,1.7-1.6,1.7-2.8c0-1.2-0.6-2.1-1.7-2.8c-1.2-0.7-2.7-1.1-4.8-1.1c-2,0-3.6,0.3-4.8,1c-1.2,0.7-1.8,1.6-1.8,2.8
		c0,1.2,0.6,2.1,1.7,2.8C1141.2,1065.8,1142.8,1066.2,1144.8,1066.2 M1126.3,1062.5c-0.2-0.4-0.6-0.6-1.1-0.6c-0.4,0-0.7,0.1-1,0.3
		c-0.3,0.2-0.4,0.5-0.5,0.9c0,0.4,0,0.8,0.2,1s0.5,0.4,0.8,0.4c0.3,0,0.3,0.3,0.2,0.7c-0.1,0.3-0.3,0.7-0.5,1
		c-0.3,0.3-0.6,0.6-0.9,0.7l0.6,0.4c0.6-0.3,1.2-0.7,1.6-1.4c0.5-0.7,0.7-1.4,0.8-2.2C1126.7,1063.3,1126.6,1062.9,1126.3,1062.5
		 M1113.9,1047.5h-8.1v1.3h6.6v3.3h-6.7c0.1,1.4,0.2,2.5,0.2,3.4v2.4h3.4c1,0,2.2-0.1,3.6-0.2c1.5-0.1,2.7-0.3,3.8-0.5v-1.3
		c-2.2,0.4-4.6,0.6-7.2,0.6h-2.1v-3.2h6.6V1047.5z M1118.6,1054.3v6.6h1.5v-14.1h-1.6c0.1,1.2,0.1,2,0.1,2.5h-3.4v1.3h3.4v2.4h-3.4
		v1.3H1118.6z M1120.5,1065.4v-1.4h-11.2v-4.2h-1.7c0.1,1.3,0.2,2.6,0.2,4v1.6H1120.5z M1097.7,1046.6h-7.2v1.2h7.2V1046.6z
		 M1101.4,1049.1h-14.5v1.2h14.5V1049.1z M1101.2,1065.4v-1.4h-11.9v-3.2h-1.7c0.1,1.3,0.2,2.5,0.2,3.7v0.8H1101.2z M1090.8,1052.7
		c0.8-0.3,1.9-0.4,3.3-0.4c1.4,0,2.5,0.2,3.3,0.5c0.8,0.3,1.2,0.7,1.2,1.3c0,0.5-0.4,1-1.2,1.2c-0.8,0.3-1.9,0.4-3.3,0.4
		c-1.4,0-2.5-0.1-3.3-0.5c-0.8-0.3-1.2-0.7-1.2-1.3C1089.6,1053.4,1090,1053,1090.8,1052.7 M1093.7,1059.4v3h1.6v-3h7.7v-1.3h-17.5
		v1.3H1093.7z M1094.1,1056.8c4,0,6.1-0.9,6.1-2.8c0-0.9-0.5-1.6-1.6-2.1s-2.5-0.7-4.5-0.7c-1.9,0-3.4,0.2-4.5,0.7
		c-1,0.5-1.6,1.2-1.6,2.1C1088.1,1055.9,1090.1,1056.8,1094.1,1056.8 M1081.3,1065.9v-10.4h2.9v-1.4h-2.9v-7.4h-1.7
		c0.1,1.1,0.2,2.5,0.2,4.1v15.1H1081.3z M1071.4,1049.2v1.8c0,2.1-0.5,4-1.4,5.7c-0.9,1.7-2.3,3.1-4,4.2l1.3,1c1-0.6,2-1.6,3-2.8
		c1-1.2,1.6-2.5,1.9-3.7c0.4,1.3,1.1,2.4,2,3.5c0.9,1.1,1.9,1.9,3,2.6l1.1-1c-1.7-1-3-2.2-3.9-3.8c-0.9-1.6-1.4-3.4-1.4-5.3v-2.1
		h4.3v-1.3h-10v1.3H1071.4z M1063.9,1065.9v-19.2h-1.6c0.1,1.1,0.2,2.5,0.2,4.1v15.1H1063.9z M1058.6,1054.2v10.7h1.5V1047h-1.6
		c0.1,1.1,0.2,2.5,0.2,4.1v1.9h-3.2v1.3H1058.6z M1050.9,1059.4c0.8-1.1,1.3-2.2,1.6-3.3c0.3,1.1,0.8,2.1,1.5,3.1
		c0.7,0.9,1.4,1.7,2.2,2.2l1.2-1.1c-1.4-0.9-2.5-2.2-3.1-3.7c-0.6-1.5-1-3.4-1-5.6v-1.7h3.2v-1.3h-8v1.3h3.3v1.8
		c0,4.6-1.6,7.9-4.7,10l1.4,0.9C1049.3,1061.4,1050.1,1060.5,1050.9,1059.4"/>
	<path class="st1" d="M1025,1108.5v-9h2.4v-2.2h-2.4v-6.4h-2.5c0.1,1,0.1,2.3,0.1,4v13.6H1025z M1014.9,1091.6
		c0.1,1,0.1,2.2,0.1,3.4c0,1.7-0.4,3.3-1.2,4.8c-0.8,1.5-1.9,2.8-3.4,3.8l1.7,1.5c0.8-0.5,1.6-1.3,2.4-2.2c0.8-1,1.4-1.9,1.7-2.9
		c0.4,1,1,1.9,1.7,2.7c0.8,0.8,1.6,1.5,2.4,2l1.6-1.6c-3-1.9-4.6-4.5-4.6-7.9v-3.6H1014.9z M1005.4,1096.2h-7.3v-1.5h7.3V1096.2z
		 M1001.8,1104.2c2.6,0,3.9,0.5,3.9,1.4c0,0.9-1.3,1.3-3.9,1.3c-2.6,0-3.9-0.5-3.9-1.4C997.8,1104.7,999.1,1104.2,1001.8,1104.2
		 M997.1,1108c1.1,0.5,2.7,0.8,4.7,0.8c4.2,0,6.3-1.1,6.3-3.2c0-1.1-0.5-1.9-1.6-2.4c-1.1-0.6-2.6-0.8-4.7-0.8c-2,0-3.6,0.3-4.7,0.8
		c-1.1,0.6-1.7,1.3-1.7,2.4C995.5,1106.7,996,1107.5,997.1,1108 M1009.8,1101.6v-2h-6.9v-1.5h4.8v-6.9h-2.3v1.7h-7.3v-1.7h-2.5
		c0.1,1.1,0.1,2.5,0.1,4v2.9h4.8v1.5h-6.9v2H1009.8z"/>
	<path class="st1" d="M1495.5,1089.5h-1.2c2.2,2.9,3.4,6.4,3.4,10.4c0,4-1.1,7.4-3.4,10.4h1.2c1.3-1.4,2.3-2.9,2.9-4.8
		c0.6-1.8,0.9-3.7,0.9-5.6s-0.3-3.8-0.9-5.6C1497.8,1092.5,1496.8,1090.9,1495.5,1089.5 M1492.7,1109.6v-19.2h-1.6
		c0.1,1.1,0.2,2.5,0.2,4.1v15.1H1492.7z M1487.4,1097.9v10.7h1.5v-17.9h-1.6c0.1,1.1,0.2,2.5,0.2,4.1v1.9h-3.2v1.3H1487.4z
		 M1479.7,1103.1c0.8-1.1,1.3-2.2,1.6-3.3c0.3,1.1,0.8,2.1,1.5,3.1c0.7,1,1.4,1.7,2.2,2.2l1.2-1.1c-1.4-1-2.5-2.2-3.1-3.7
		c-0.6-1.5-1-3.4-1-5.6v-1.7h3.2v-1.3h-8v1.3h3.3v1.8c0,4.6-1.6,7.9-4.7,10l1.4,0.9C1478.1,1105.1,1478.9,1104.2,1479.7,1103.1
		 M1465,1101v8.5h1.5v-8.5h8.1v-1.3h-3.2c0.7-3.3,1-6.2,1-8.6h-13.2v1.3h11.7c0,1.9-0.3,4.3-0.9,7.3h-12.9v1.3H1465z M1451.7,1097.9
		h-9.7v-3.3h9.7V1097.9z M1446.1,1103.1v6.5h1.5v-6.5h8v-1.3h-17.5v1.3H1446.1z M1442.1,1093.3v-2.5h-1.6c0.1,1.3,0.2,2.7,0.2,4.3
		v4.1h12.7v-8.3h-1.5v2.5H1442.1z M1435.1,1109.6v-19.2h-1.7c0.1,1.1,0.2,2.5,0.2,4.1v15.1H1435.1z M1425.9,1092.2
		c1,0,1.8,0.3,2.5,1c0.6,0.7,0.9,1.5,0.9,2.5s-0.3,1.8-0.9,2.5c-0.6,0.7-1.5,1-2.5,1c-1,0-1.9-0.3-2.5-1c-0.6-0.7-1-1.5-1-2.5
		s0.3-1.8,1-2.5C1424,1092.6,1424.8,1092.2,1425.9,1092.2 M1422.1,1098.9c0.8,0.9,1.8,1.4,3.1,1.6v3.7c-0.4,0-0.9,0-1.6,0h-3.8v1.3
		h3.7c3.4,0,6.5-0.2,9.2-0.6v-1.3c-1.3,0.2-3.3,0.4-6,0.5v-3.7c1.2-0.2,2.2-0.7,3-1.6c0.8-0.9,1.2-1.9,1.2-3.1
		c0-1.3-0.5-2.5-1.4-3.4c-0.9-0.9-2.1-1.4-3.5-1.4c-1.4,0-2.6,0.5-3.6,1.4c-0.9,0.9-1.4,2.1-1.4,3.4
		C1420.9,1096.9,1421.3,1098,1422.1,1098.9 M1410.3,1106.2c-0.2-0.4-0.6-0.6-1.1-0.6c-0.4,0-0.7,0.1-1,0.3c-0.3,0.2-0.4,0.5-0.5,1
		c0,0.4,0,0.8,0.2,1c0.2,0.2,0.5,0.4,0.8,0.4c0.3,0,0.3,0.3,0.2,0.7c-0.1,0.3-0.3,0.7-0.5,1s-0.6,0.6-0.9,0.7l0.6,0.4
		c0.6-0.3,1.2-0.7,1.6-1.4c0.5-0.7,0.7-1.4,0.8-2.2C1410.6,1107.1,1410.5,1106.6,1410.3,1106.2 M1404.9,1109.6v-19.2h-1.6
		c0.1,1.1,0.2,2.5,0.2,4.1v15.1H1404.9z M1399.6,1097.9v10.7h1.5v-17.9h-1.6c0.1,1.1,0.2,2.5,0.2,4.1v1.9h-3.2v1.3H1399.6z
		 M1391.9,1103.1c0.8-1.1,1.3-2.2,1.6-3.3c0.3,1.1,0.8,2.1,1.5,3.1c0.7,1,1.4,1.7,2.2,2.2l1.2-1.1c-1.4-1-2.5-2.2-3.1-3.7
		c-0.6-1.5-1-3.4-1-5.6v-1.7h3.2v-1.3h-8v1.3h3.3v1.8c0,4.6-1.6,7.9-4.7,10l1.4,0.9C1390.3,1105.1,1391.1,1104.2,1391.9,1103.1
		 M1377.2,1101v8.5h1.5v-8.5h8.1v-1.3h-3.2c0.7-3.3,1-6.2,1-8.6h-13.2v1.3h11.7c0,1.9-0.3,4.3-0.9,7.3h-12.9v1.3H1377.2z
		 M1364.4,1093.6v2.1h-5.2v1.3h5.2v7.5h1.5v-14.1h-1.6c0,0.4,0.1,1.1,0.1,1.9h-5.2v1.3H1364.4z M1355.1,1101c1,0,2.2-0.1,3.7-0.2
		c1.5-0.1,2.8-0.3,3.7-0.5v-1.3c-2,0.4-4.5,0.6-7.3,0.6h-2.1v-8.6h-1.7c0.1,1.2,0.2,2.3,0.2,3.3v6.6H1355.1z M1366.3,1109.1v-1.4
		h-11.2v-4.5h-1.7c0.1,1.3,0.2,2.6,0.2,4v1.9H1366.3z M1334.7,1091.7h5.5v-1.3h-5.5V1091.7z M1345.9,1097.3v5h1.5v-11.9h-1.6
		c0.1,1.4,0.1,2.8,0.1,4.3v1.3h-3.5v1.3H1345.9z M1336.6,1094.7c-0.1,1.3-0.6,2.5-1.5,3.6c-1,1.1-2.2,2-3.6,2.6l1.1,1
		c2.4-1.2,4-2.8,4.9-4.8c0.5,0.9,1.2,1.7,2.1,2.4s1.8,1.3,2.8,1.6l0.9-1c-1.4-0.5-2.5-1.2-3.5-2.2c-1-1-1.5-2.1-1.5-3.2h4.1v-1.3
		h-9.6v1.3H1336.6z M1341.3,1103.9c1.5,0,2.7,0.2,3.6,0.6c0.9,0.4,1.4,1,1.4,1.8c0,0.7-0.5,1.3-1.4,1.7c-0.9,0.4-2.1,0.6-3.6,0.6
		c-1.5,0-2.7-0.2-3.6-0.6c-0.9-0.4-1.4-1-1.4-1.8s0.5-1.3,1.4-1.7C1338.6,1104.1,1339.8,1103.9,1341.3,1103.9 M1336.5,1108.9
		c1.2,0.6,2.8,1,4.8,1c2,0,3.6-0.3,4.8-1c1.2-0.6,1.7-1.5,1.7-2.7c0-1.2-0.6-2.1-1.7-2.7c-1.2-0.7-2.8-1-4.8-1c-2,0-3.6,0.3-4.8,1
		c-1.2,0.7-1.8,1.6-1.8,2.7C1334.8,1107.4,1335.4,1108.3,1336.5,1108.9 M1322.5,1106.2c-0.2-0.4-0.6-0.6-1.1-0.6
		c-0.4,0-0.7,0.1-1,0.3c-0.3,0.2-0.4,0.5-0.5,1c0,0.4,0,0.8,0.2,1c0.2,0.2,0.5,0.4,0.8,0.4c0.3,0,0.3,0.3,0.2,0.7
		c-0.1,0.3-0.3,0.7-0.5,1c-0.3,0.3-0.6,0.6-0.9,0.7l0.6,0.4c0.6-0.3,1.2-0.7,1.6-1.4c0.5-0.7,0.7-1.4,0.8-2.2
		C1322.8,1107.1,1322.7,1106.6,1322.5,1106.2 M1316.1,1094.9h-11.6v-4.4h-1.7c0.1,1.3,0.2,2.5,0.2,3.6v2h13.1V1094.9z M1314.1,1108
		h-9.6v-3.8h9.6V1108z M1315.6,1109.3v-6.4h-5.6v-3h8v-1.3h-17.5v1.3h8v3h-5.7c0.1,1.2,0.2,2.4,0.2,3.6v2.7H1315.6z M1286.6,1104.5
		c2.5,0,4.9-0.2,7-0.7v-1.3c-2,0.5-4.3,0.7-6.9,0.7h-2.4v-11.9h-1.7c0.1,1.2,0.2,2.6,0.2,4.3v9H1286.6z M1296.4,1109.6V1099h2.9
		v-1.4h-2.9v-7.2h-1.7c0.1,1.1,0.2,2.5,0.2,4.1v15.1H1296.4z M1280.1,1105.8h-17.5v1.3h17.5V1105.8z M1277.9,1100.8h-11.4v-3.4h11.1
		v-1.3h-11.1v-3.4h11.2v-1.3h-12.8c0.1,1.3,0.2,2.7,0.2,4.3v6.5h12.9V1100.8z M1259.3,1109.6v-19.2h-1.7c0.1,1.1,0.2,2.5,0.2,4.1
		v15.1H1259.3z M1247.1,1098.2c1.5,0,2.7-0.1,3.6-0.2c-1.4,2.9-3.7,5-6.7,6.6l1.2,1c2.6-1.4,4.7-3.4,6.2-5.9c1.5-2.5,2.3-5.2,2.3-8
		h-8.5v1.3h6.9c-0.1,1.3-0.4,2.6-0.8,3.7c-0.9,0.2-2.3,0.2-4.2,0.2h-2.6v1.3H1247.1z M1234.7,1106.2c-0.2-0.4-0.6-0.6-1.1-0.6
		c-0.4,0-0.7,0.1-1,0.3c-0.3,0.2-0.4,0.5-0.5,1c0,0.4,0,0.8,0.2,1c0.2,0.2,0.5,0.4,0.8,0.4c0.3,0,0.3,0.3,0.2,0.7
		c-0.1,0.3-0.3,0.7-0.5,1s-0.6,0.6-0.9,0.7l0.6,0.4c0.6-0.3,1.2-0.7,1.6-1.4c0.5-0.7,0.7-1.4,0.8-2.2
		C1235,1107.1,1234.9,1106.6,1234.7,1106.2 M1228.8,1100.5v-10h-1.6c0.1,1.4,0.1,2.8,0.1,4.3v5.8H1228.8z M1218,1105.1h9.3v2.9h-9.3
		V1105.1z M1218.2,1092.7v0.6c0,2.8-1.7,4.8-5.2,6.2l1.1,1c2.6-1.1,4.2-2.6,4.9-4.3c0.5,1,1.2,1.7,2.1,2.4c0.9,0.6,1.8,1.1,2.8,1.5
		l0.8-1.1c-1.5-0.5-2.7-1.2-3.6-2.1c-0.9-0.9-1.4-2.1-1.4-3.5v-0.6h4v-1.3h-9.7v1.3H1218.2z M1228.8,1109.3v-7.9h-1.5v2.4h-9.3v-2.4
		h-1.6c0.1,1.3,0.2,2.7,0.2,4.3v3.6H1228.8z M1211.3,1099.9h-17.5v1.3h17.5V1099.9z M1209.2,1095.7h-11.6v-5.2h-1.7
		c0.1,1.3,0.2,2.7,0.2,4.3v2.2h13.1V1095.7z M1209.6,1109.1v-1.4h-11.9v-4.4h-1.7c0.1,1.3,0.2,2.7,0.2,4.2v1.6H1209.6z
		 M1192.3,1105.8h-17.5v1.3h17.5V1105.8z M1190.6,1099.6h-5.2v-6.8h5v-1.3h-6.6c0.1,1.3,0.2,2.7,0.2,4.3v5.1h6.7V1099.6z
		 M1178.9,1100.9c1.7,0,3.1-0.1,4.3-0.4v-1.3c-1.1,0.2-2.4,0.3-3.9,0.3h-1v-6.8h4.8v-1.3h-6.4c0.1,1.2,0.2,2.6,0.2,4.3v5.1H1178.9z
		 M1158.3,1092.1h5v-1.3h-5V1092.1z M1156.3,1095.2h9.1v-1.3h-9.1V1095.2z M1163.5,1101.3c0,0.9-0.2,1.7-0.7,2.3
		c-0.5,0.6-1.1,0.9-1.9,0.9s-1.5-0.3-1.9-0.9c-0.5-0.6-0.7-1.3-0.7-2.3s0.2-1.7,0.7-2.2c0.5-0.6,1.1-0.8,1.9-0.8s1.5,0.3,1.9,0.8
		C1163.3,1099.6,1163.5,1100.4,1163.5,1101.3 M1156.7,1101.3c0,1.3,0.4,2.4,1.1,3.2c0.8,0.8,1.8,1.2,3,1.2c1.2,0,2.2-0.4,3-1.2
		c0.8-0.8,1.1-1.9,1.1-3.2c0-1.3-0.4-2.4-1.1-3.2c-0.7-0.8-1.8-1.2-3-1.2s-2.3,0.4-3,1.2C1157.1,1098.9,1156.7,1100,1156.7,1101.3
		 M1168.2,1108.7v-9.4h2.6v10.3h1.5v-19.2h-1.6c0.1,1.1,0.2,2.5,0.2,4.1v3.5h-2.6v-7.2h-1.6c0.1,1.1,0.2,2.5,0.2,4.1v13.9H1168.2z
		 M1153.9,1110.3h1.2c-2.2-2.9-3.4-6.4-3.4-10.4c0-4,1.1-7.5,3.4-10.4h-1.2c-1.3,1.4-2.3,2.9-2.9,4.8c-0.6,1.8-0.9,3.7-0.9,5.6
		s0.3,3.8,0.9,5.6C1151.6,1107.4,1152.6,1108.9,1153.9,1110.3 M1138.5,1103.9c1.6,0,2.8,0.2,3.8,0.7c1,0.4,1.4,1,1.4,1.8
		c0,0.7-0.5,1.3-1.4,1.7c-1,0.4-2.2,0.6-3.8,0.6c-1.6,0-2.9-0.2-3.8-0.7c-1-0.4-1.4-1-1.4-1.8s0.5-1.3,1.4-1.7
		C1135.7,1104.1,1136.9,1103.9,1138.5,1103.9 M1147.3,1101.1v-1.3h-8v-2.7h5.9v-1.3h-11.4v-3.5h11.2v-1.3H1132
		c0.1,1.3,0.2,2.4,0.2,3.4v2.7h5.5v2.7h-8v1.3H1147.3z M1133.5,1108.9c1.2,0.7,2.8,1,5,1c2.1,0,3.8-0.3,5-1c1.2-0.7,1.8-1.5,1.8-2.7
		c0-1.1-0.6-2-1.8-2.7c-1.2-0.7-2.8-1-5-1c-2.1,0-3.8,0.3-5,1c-1.2,0.7-1.8,1.6-1.8,2.7C1131.8,1107.4,1132.4,1108.3,1133.5,1108.9
		 M1114.4,1091.4h5.4v-1.2h-5.4V1091.4z M1117.1,1095.2c2,0,2.9,0.4,2.9,1.2c0,0.8-1,1.2-2.9,1.2c-2,0-3-0.4-3-1.2
		C1114.2,1095.6,1115.1,1095.2,1117.1,1095.2 M1122.3,1092.3h-10.5v1.2h10.5V1092.3z M1126,1101.7v-5.2h2.7v-1.3h-2.7v-4.7h-1.6
		c0.1,1.4,0.1,2.8,0.1,4.3v7H1126z M1126,1106.6v-3.9H1114v1.2h10.5v1.4h-10.6c0.1,1,0.1,2.1,0.1,3.3v0.7h12.4v-1.2h-10.8v-1.5H1126
		z M1116.4,1098.7v1.3c-0.5,0-1.2,0-2.1,0h-3.4v1.2h3.3c3.7,0,6.8-0.2,9.4-0.5v-1.2c-1.2,0.2-3.1,0.4-5.7,0.5v-1.3
		c2.4-0.1,3.7-0.9,3.7-2.2c0-0.8-0.4-1.4-1.2-1.8c-0.8-0.4-1.9-0.6-3.2-0.6c-1.4,0-2.5,0.2-3.3,0.6c-0.8,0.4-1.2,1-1.2,1.8
		C1112.6,1097.9,1113.9,1098.6,1116.4,1098.7 M1091,1092.1c1,0,1.8,0.4,2.5,1.1c0.6,0.7,0.9,1.6,0.9,2.6s-0.3,1.9-0.9,2.6
		c-0.6,0.7-1.4,1.1-2.5,1.1c-1,0-1.9-0.4-2.5-1.1c-0.6-0.7-1-1.6-1-2.6s0.3-1.9,1-2.6C1089.2,1092.4,1090,1092.1,1091,1092.1
		 M1087.5,1099.3c0.9,1,2.1,1.4,3.5,1.4c1.4,0,2.6-0.5,3.5-1.4c0.9-1,1.4-2.1,1.4-3.5c0-1.4-0.5-2.6-1.4-3.5c-0.9-1-2.1-1.4-3.5-1.4
		c-1.4,0-2.6,0.5-3.5,1.4c-0.9,1-1.4,2.1-1.4,3.5C1086.1,1097.1,1086.5,1098.3,1087.5,1099.3 M1101.1,1104.6v-14.1h-1.6
		c0.1,1.4,0.1,2.8,0.1,4.3v9.9H1101.1z M1101.8,1109.1v-1.4h-11.3v-4.7h-1.7c0.1,1.3,0.2,2.6,0.2,4v2.1H1101.8z M1081.1,1109.6v-7.3
		h2.9v-1.3h-2.9v-4.6h2.9v-1.3h-2.9v-4.6h-1.7c0.1,1.1,0.2,2.5,0.2,4.1v15.1H1081.1z M1070.8,1091.2c0.1,1,0.2,2.2,0.2,3.7
		c0,2-0.5,3.9-1.4,5.7c-0.9,1.7-2.3,3.1-4,4.2l1.3,1c1-0.7,2-1.6,3-2.9c1-1.3,1.6-2.5,1.9-3.6c0.8,2.4,2.4,4.4,4.9,6l1.2-1.1
		c-3.5-2.1-5.3-5.1-5.3-9.1v-3.9H1070.8z M1064,1109.1v-1.4h-11.3v-4.6h-1.7c0.1,1.3,0.2,2.6,0.2,4v1.9H1064z M1062,1095.8v8.8h1.5
		v-14.1h-1.6c0.1,1.3,0.1,2.7,0.1,4.1h-2.9v1.3H1062z M1050.2,1091c0.1,0.7,0.1,1.5,0.1,2.5c0,1.5-0.2,2.8-0.7,3.9
		c-0.5,1.1-1.3,2.1-2.5,3.1l1.1,0.9c1.3-1,2.3-2.2,2.9-3.8c0.7,1.7,1.7,2.9,2.9,3.8c1.2-1,2.2-2.2,2.8-3.8c0.3,0.8,0.7,1.4,1.2,2
		c0.5,0.6,1,1,1.5,1.4l1-1c-1.1-0.8-1.8-1.8-2.2-2.9c-0.4-1.1-0.7-2.4-0.7-3.9v-2.3h-1.6c0.1,0.7,0.1,1.5,0.1,2.5
		c0,2.4-0.7,4.4-2.1,6c-1.4-1.4-2.1-3.5-2.1-6.2v-2.3H1050.2z"/>
	<path class="st1" d="M1026.3,1152.3v-17.6h-2.3c0.1,1,0.1,2.3,0.1,4v13.6H1026.3z M1020.7,1142.3v9.2h2.2V1135h-2.3
		c0.1,1,0.1,2.3,0.1,4v1.2h-2.5v2.1H1020.7z M1014.4,1137.8v1.2c0,1.8-0.3,3.4-0.8,4.8c-0.6,1.4-1.5,2.6-3,3.7l1.8,1.4
		c0.6-0.5,1.3-1.1,1.9-1.9c0.6-0.8,1.1-1.7,1.3-2.6c0.7,1.7,1.6,3,2.9,3.9l1.5-1.5c-1.2-0.9-2.1-2-2.6-3.3c-0.5-1.3-0.7-2.8-0.7-4.5
		v-1.3h2.5v-2h-7.3v2H1014.4z M1005.6,1137.7c0,1.3-0.1,2.7-0.3,4.3c-0.2,1.6-0.4,2.9-0.6,3.9h2.4c0.2-1.2,0.5-2.7,0.7-4.6
		c0.2-1.9,0.3-3.8,0.3-5.5h-12.4v2H1005.6z M1009.8,1150v-2h-6.1v-5.7h-2.4c0.1,0.8,0.1,2.1,0.1,3.9v1.8h-1.7v-5.7h-2.4
		c0.1,0.8,0.1,2.2,0.1,4.2v1.4h-3.6v2H1009.8z"/>
	<path class="st1" d="M1169.9,1153.3v-19.2h-1.7c0.1,1.1,0.2,2.5,0.2,4.1v15.1H1169.9z M1164,1135.2h-8.4v1.3h6.9v4.7h-7.1
		c0.1,1.4,0.2,2.8,0.2,4.3v3.1h4.1c1,0,2.2-0.1,3.7-0.2c1.4-0.1,2.6-0.3,3.6-0.5v-1.3c-2,0.5-4.4,0.7-7.1,0.7h-2.7v-4.7h6.9V1135.2z
		 M1150.1,1153.3v-11.1h2.9v-1.4h-2.9v-6.7h-1.7c0.1,1.1,0.2,2.5,0.2,4.1v15.1H1150.1z M1138.2,1137.6c0.6-1.1,1.4-1.6,2.3-1.6
		s1.8,0.5,2.3,1.6c0.5,1,0.8,2.5,0.8,4.3c0,1.8-0.3,3.3-0.8,4.3c-0.6,1-1.3,1.6-2.3,1.6c-1,0-1.8-0.5-2.3-1.6
		c-0.6-1-0.9-2.5-0.9-4.3C1137.3,1140.1,1137.6,1138.6,1138.2,1137.6 M1137.1,1147.3c0.9,1.1,2,1.7,3.4,1.7c1.3,0,2.4-0.6,3.3-1.7
		c0.9-1.1,1.3-2.9,1.3-5.4c0-2.5-0.4-4.3-1.3-5.5c-0.9-1.1-2-1.7-3.3-1.7c-1.4,0-2.5,0.6-3.4,1.7s-1.3,2.9-1.3,5.5
		C1135.8,1144.4,1136.2,1146.2,1137.1,1147.3 M1124.9,1147.6c1.6,0,2.8,0.2,3.8,0.7c1,0.4,1.4,1,1.4,1.8c0,0.7-0.5,1.3-1.4,1.7
		c-1,0.4-2.2,0.6-3.8,0.6c-1.6,0-2.9-0.2-3.8-0.7c-1-0.4-1.4-1-1.4-1.8s0.5-1.3,1.4-1.7C1122,1147.8,1123.3,1147.6,1124.9,1147.6
		 M1133.7,1144.8v-1.3h-8v-2.7h5.9v-1.3h-11.4v-3.5h11.2v-1.3h-12.9c0.1,1.3,0.2,2.4,0.2,3.4v2.7h5.5v2.7h-8v1.3H1133.7z
		 M1119.9,1152.7c1.2,0.7,2.8,1,5,1c2.1,0,3.8-0.3,5-1c1.2-0.7,1.8-1.5,1.8-2.7c0-1.1-0.6-2-1.8-2.7c-1.2-0.7-2.8-1-5-1
		c-2.1,0-3.8,0.3-5,1c-1.2,0.7-1.8,1.6-1.8,2.7C1118.2,1151.1,1118.7,1152,1119.9,1152.7 M1107.3,1150c-0.2-0.4-0.6-0.6-1.1-0.6
		c-0.4,0-0.7,0.1-1,0.3c-0.3,0.2-0.4,0.5-0.5,1c0,0.4,0,0.8,0.2,1c0.2,0.2,0.5,0.4,0.8,0.4c0.3,0,0.3,0.3,0.2,0.7
		c-0.1,0.3-0.3,0.7-0.5,1c-0.3,0.3-0.6,0.6-0.9,0.7l0.6,0.4c0.6-0.3,1.2-0.7,1.6-1.4c0.5-0.7,0.7-1.4,0.8-2.2
		C1107.7,1150.8,1107.5,1150.3,1107.3,1150 M1090.8,1143.3c1,0,2.2-0.1,3.7-0.2c1.5-0.1,2.8-0.3,3.7-0.5v-1.3
		c-2,0.4-4.5,0.6-7.3,0.6h-2.7v-7.2h-1.7c0.1,1.2,0.2,2.3,0.2,3.3v5.3H1090.8z M1100.9,1145.6v-11.5h-1.6c0.1,1.4,0.1,2.8,0.1,4.3
		v7.2H1100.9z M1094.6,1147.2c1.5,0,2.7,0.2,3.6,0.7c0.9,0.5,1.4,1.1,1.4,1.9c0,0.8-0.5,1.4-1.4,1.8c-0.9,0.5-2.1,0.7-3.6,0.7
		c-1.5,0-2.7-0.2-3.6-0.7c-0.9-0.5-1.4-1.1-1.4-1.9c0-0.8,0.4-1.4,1.3-1.9C1091.9,1147.5,1093.1,1147.2,1094.6,1147.2
		 M1094.6,1153.6c2,0,3.6-0.3,4.8-1c1.2-0.7,1.7-1.6,1.7-2.8c0-1.2-0.6-2.1-1.7-2.8c-1.2-0.7-2.7-1.1-4.8-1.1c-2,0-3.6,0.3-4.8,1
		c-1.2,0.7-1.8,1.6-1.8,2.8c0,1.2,0.6,2.1,1.7,2.8C1091,1153.3,1092.6,1153.6,1094.6,1153.6 M1079.9,1143.2h-9.6v-6.7h9.6V1143.2z
		 M1083.9,1150.8v-1.3h-8v-5h5.5v-9.3h-12.7c0.1,1.3,0.2,2.7,0.2,4.3v5h5.5v5h-8v1.3H1083.9z M1052.1,1145.5c0,1.4,0,2.8-0.1,4.1
		c-0.1,1.4-0.2,2.2-0.3,2.7c-0.1,0.4-0.2,0.8-0.2,1h1.5l0.2-0.9c0.1-0.6,0.2-1.6,0.4-2.9c0.1-1.3,0.1-2.6,0.1-4h5v7.8h1.5v-7.8h4.7
		v-1.3h-3.4c0.3-1.4,0.5-3,0.8-4.8c0.2-1.8,0.4-3.3,0.4-4.5h-13.2v1.3h11.7c0,0.8-0.1,1.8-0.3,3c-1.3,0.2-3.5,0.3-6.5,0.3h-5.1v1.3
		h5.1c2.8,0,4.9-0.1,6.4-0.4c-0.2,1.5-0.4,2.7-0.6,3.8h-12.7v1.3H1052.1z"/>
	<path class="st1" d="M1022.9,1181.4c0,1.3-0.1,2.7-0.3,4.3c-0.2,1.6-0.4,2.9-0.6,3.9h2.4c0.2-1.2,0.5-2.7,0.7-4.6
		c0.2-1.9,0.3-3.8,0.3-5.5h-12.4v2H1022.9z M1027.1,1193.8v-2h-6.1v-5.7h-2.4c0.1,0.8,0.1,2.1,0.1,3.9v1.8h-1.7v-5.7h-2.4
		c0.1,0.8,0.1,2.2,0.1,4.2v1.4h-3.6v2H1027.1z M1008.7,1195.6v-2h-9.5v-3.6h-2.5c0.1,0.9,0.1,2.1,0.1,3.6v2H1008.7z M1006.1,1183.8
		v7.4h2.3v-12.7h-2.4c0.1,0.7,0.1,1.8,0.1,3.2h-3.3v2.1H1006.1z M997.7,1178.8c0.1,0.6,0.1,1.3,0.1,2.3c0,1.4-0.4,2.6-1.3,3.8
		c-0.9,1.1-2,2-3.3,2.6l1.6,1.6c0.8-0.4,1.6-0.9,2.4-1.7s1.4-1.6,1.8-2.5c0.4,0.8,1.1,1.5,1.9,2.2c0.8,0.7,1.6,1.2,2.4,1.4l1.4-1.7
		c-1.3-0.5-2.4-1.3-3.3-2.3c-0.8-1-1.3-2.2-1.3-3.5v-2.2H997.7z"/>
	<path class="st1" d="M1412.5,1180.3c0,1.3-0.2,3-0.4,4.9c-0.2,1.9-0.5,3.6-0.8,5h1.4c0.3-1.5,0.6-3.2,0.9-5.4
		c0.3-2.1,0.4-4.1,0.4-5.8h-13.3v1.3H1412.5z M1416.2,1194.5v-1.3h-7v-7.2h-1.6c0.1,1,0.1,2,0.1,2.8v4.3h-3.1v-7.2h-1.6
		c0.1,1,0.1,2,0.1,2.8v4.3h-4.4v1.3H1416.2z M1395.8,1196.6v-1.4h-11.2v-4.8h-1.7c0.1,1.3,0.2,2.6,0.2,4v2.1H1395.8z M1393.9,1183.1
		v8.9h1.5v-14.1h-1.6c0.1,1.4,0.1,2.6,0.1,3.9h-4.3v1.3H1393.9z M1384.5,1178.4c0.1,0.5,0.1,1.3,0.1,2.4c0,1.6-0.5,3.1-1.5,4.3
		c-1,1.3-2.2,2.2-3.7,2.9l1.1,1.1c1.1-0.5,2.1-1.2,3-2.2c0.9-0.9,1.6-1.9,1.9-3.1c0.5,1,1.2,2,2.1,2.8c1,0.9,1.9,1.5,2.8,1.8
		l0.9-1.2c-1.4-0.5-2.6-1.4-3.6-2.6c-1-1.2-1.5-2.6-1.5-4.1v-2.2H1384.5z M1372.9,1177.8h-7.2v1.3h7.2V1177.8z M1376.4,1196.6v-1.4
		h-11.9v-3.5h-1.7c0.1,1.3,0.2,2.4,0.2,3.4v1.5H1376.4z M1378.1,1190.2v-1.3h-8v-2.7h-1.5v2.7h-8v1.3H1378.1z M1368.4,1182.1
		c-0.3,1-1.1,1.8-2.4,2.4c-1.3,0.6-2.8,1-4.5,1.1l0.9,1.1c1.4-0.2,2.7-0.6,4-1.1c1.3-0.5,2.2-1.3,2.8-2.2c0.6,0.9,1.6,1.7,2.9,2.2
		c1.3,0.6,2.6,0.9,3.9,1l0.9-1.1c-1.6-0.1-3.1-0.5-4.4-1.1c-1.4-0.6-2.2-1.4-2.4-2.4h5.7v-1.3h-13.2v1.3H1368.4z M1344.8,1181.3
		c0.6-1.1,1.3-1.6,2.3-1.6c1,0,1.8,0.5,2.3,1.6c0.5,1,0.8,2.5,0.8,4.3s-0.3,3.3-0.8,4.3c-0.6,1-1.3,1.6-2.3,1.6
		c-1,0-1.8-0.5-2.3-1.6c-0.6-1-0.9-2.5-0.9-4.3C1343.9,1183.8,1344.2,1182.3,1344.8,1181.3 M1351.8,1184.7c-0.1-2.2-0.6-3.8-1.5-4.8
		c-0.9-1-1.9-1.5-3.2-1.5c-1.4,0-2.5,0.6-3.4,1.7c-0.9,1.1-1.3,2.9-1.3,5.5c0,2.5,0.4,4.3,1.3,5.5c0.9,1.1,2,1.7,3.4,1.7
		c0.6,0,1.2-0.1,1.7-0.4c0.5-0.2,1-0.6,1.4-1.1c0.4-0.5,0.8-1.2,1.1-2.1c0.3-0.9,0.4-2,0.4-3.2h4v11h1.5v-19.2h-1.7
		c0.1,1.1,0.2,2.5,0.2,4.1v2.8H1351.8z M1331.3,1191.4c1.6,0,2.9,0.2,3.8,0.7c1,0.4,1.4,1,1.4,1.8c0,0.7-0.5,1.3-1.4,1.7
		c-1,0.4-2.2,0.6-3.8,0.6c-1.6,0-2.9-0.2-3.8-0.6c-1-0.4-1.4-1-1.4-1.8s0.5-1.3,1.4-1.7C1328.4,1191.6,1329.7,1191.4,1331.3,1191.4
		 M1340.1,1188.4v-1.3h-8v-3.1h6v-1.3h-11.6v-4.7h-1.7c0.1,1.3,0.2,2.5,0.2,3.6v2.3h5.6v3.1h-8v1.3H1340.1z M1326.3,1196.4
		c1.2,0.6,2.8,1,5,1c2.1,0,3.8-0.3,5-1c1.2-0.6,1.8-1.5,1.8-2.7c0-1.1-0.6-2-1.8-2.7c-1.2-0.7-2.8-1-5-1c-2.1,0-3.8,0.3-5,1
		s-1.8,1.6-1.8,2.7C1324.6,1194.9,1325.2,1195.8,1326.3,1196.4 M1313.7,1193.7c-0.2-0.4-0.6-0.6-1.1-0.6c-0.4,0-0.7,0.1-1,0.3
		c-0.3,0.2-0.4,0.5-0.5,1c0,0.4,0,0.8,0.2,1c0.2,0.2,0.5,0.4,0.8,0.4c0.3,0,0.3,0.3,0.2,0.7c-0.1,0.3-0.3,0.7-0.5,1
		c-0.3,0.3-0.6,0.6-0.9,0.7l0.6,0.4c0.6-0.3,1.2-0.7,1.6-1.4c0.5-0.7,0.7-1.4,0.8-2.2C1314.1,1194.5,1314,1194.1,1313.7,1193.7
		 M1295.1,1184c0.9,0.7,2,1,3.4,1c1.4,0,2.5-0.3,3.3-1c0.9-0.7,1.3-1.5,1.3-2.5c0-1-0.4-1.9-1.3-2.6c-0.9-0.7-2-1-3.3-1
		c-1.4,0-2.5,0.3-3.4,1s-1.3,1.5-1.3,2.6C1293.8,1182.5,1294.2,1183.3,1295.1,1184 M1306.3,1190.5v1.8h1.5v-14.5h-1.6
		c0.1,1.4,0.1,2.8,0.1,4.3v7.2h-4.5v1.2H1306.3z M1298.5,1179.1c1,0,1.7,0.2,2.3,0.6c0.6,0.4,0.8,1,0.8,1.7s-0.3,1.2-0.8,1.7
		c-0.6,0.4-1.3,0.6-2.3,0.6c-1,0-1.8-0.2-2.3-0.6s-0.8-1-0.8-1.7s0.3-1.2,0.8-1.7C1296.7,1179.3,1297.5,1179.1,1298.5,1179.1
		 M1308.2,1196.6v-1.4H1297v-3.4h-1.7c0.1,1.3,0.2,2.4,0.2,3.5v1.3H1308.2z M1296.8,1187.7v3.1h1.5v-3.1c3-0.1,5.4-0.2,7.2-0.5v-1.3
		c-2.1,0.3-5.1,0.5-9.2,0.5h-3.9v1.3H1296.8z M1285.2,1178h-7.4v1.3h7.4V1178z M1288.7,1180.7h-14.3v1.3h14.3V1180.7z
		 M1278.3,1187.1c-0.8-0.3-1.2-0.7-1.2-1.3c0-0.5,0.4-1,1.2-1.3c0.8-0.3,1.9-0.5,3.3-0.5c1.4,0,2.5,0.2,3.3,0.5
		c0.8,0.3,1.2,0.7,1.2,1.3c0,0.5-0.4,1-1.2,1.3c-0.8,0.3-1.9,0.5-3.3,0.5C1280.2,1187.6,1279.1,1187.4,1278.3,1187.1 M1280.8,1191.8
		v5.2h1.5v-5.2h8v-1.3h-17.5v1.3H1280.8z M1285.9,1188c1.1-0.5,1.6-1.3,1.6-2.2c0-0.9-0.5-1.7-1.6-2.2s-2.5-0.8-4.4-0.8
		c-1.8,0-3.3,0.3-4.4,0.8c-1.1,0.5-1.6,1.3-1.6,2.2c0,0.9,0.5,1.6,1.6,2.2c1.1,0.5,2.5,0.8,4.4,0.8
		C1283.4,1188.9,1284.8,1188.6,1285.9,1188 M1252.9,1186.5c1,0,2.2-0.1,3.7-0.2c1.5-0.1,2.8-0.3,3.7-0.5v-1.3
		c-2,0.4-4.5,0.6-7.3,0.6h-2.7v-6.8h-1.7c0.1,1.2,0.2,2.3,0.2,3.3v4.8H1252.9z M1263,1188.4v-10.5h-1.6c0.1,1.4,0.1,2.8,0.1,4.3v6.2
		H1263z M1261.5,1195.5h-9.2v-4.7h9.2V1195.5z M1263,1196.7v-7.2h-12.3c0.1,1.2,0.1,2.5,0.1,4.2v3H1263z M1243.3,1197v-10.4h2.9
		v-1.4h-2.9v-7.4h-1.7c0.1,1.1,0.2,2.5,0.2,4.1v15.1H1243.3z M1233.1,1178.6c0.1,1,0.2,2.2,0.2,3.7c0,2-0.5,3.9-1.4,5.7
		c-0.9,1.7-2.3,3.1-4,4.2l1.3,1c1-0.7,2-1.6,3-2.9c1-1.3,1.6-2.5,1.9-3.6c0.8,2.4,2.4,4.4,4.9,6l1.2-1.1c-3.5-2.1-5.3-5.1-5.3-9.1
		v-3.9H1233.1z M1223.3,1180.3c0,1.3-0.2,3-0.4,4.9c-0.2,1.9-0.5,3.6-0.8,5h1.4c0.3-1.5,0.6-3.2,0.9-5.4c0.3-2.1,0.4-4.1,0.4-5.8
		h-13.3v1.3H1223.3z M1226.9,1194.5v-1.3h-7v-7.2h-1.6c0.1,1,0.1,2,0.1,2.8v4.3h-3.1v-7.2h-1.6c0.1,1,0.1,2,0.1,2.8v4.3h-4.4v1.3
		H1226.9z M1206.6,1196.6v-1.4h-11.2v-4.8h-1.7c0.1,1.3,0.2,2.6,0.2,4v2.1H1206.6z M1204.7,1183.1v8.9h1.5v-14.1h-1.6
		c0.1,1.4,0.1,2.6,0.1,3.9h-4.3v1.3H1204.7z M1195.3,1178.4c0.1,0.5,0.1,1.3,0.1,2.4c0,1.6-0.5,3.1-1.5,4.3c-1,1.3-2.2,2.2-3.8,2.9
		l1.1,1.1c1.1-0.5,2.1-1.2,3-2.2c0.9-0.9,1.6-1.9,1.9-3.1c0.5,1,1.2,2,2.1,2.8c1,0.9,1.9,1.5,2.8,1.8l0.9-1.2
		c-1.4-0.5-2.6-1.4-3.6-2.6c-1-1.2-1.5-2.6-1.5-4.1v-2.2H1195.3z M1181.6,1193.7c-0.2-0.4-0.6-0.6-1.1-0.6c-0.4,0-0.7,0.1-1,0.3
		s-0.4,0.5-0.5,1c0,0.4,0,0.8,0.2,1c0.2,0.2,0.5,0.4,0.8,0.4c0.3,0,0.3,0.3,0.2,0.7c-0.1,0.3-0.3,0.7-0.5,1s-0.6,0.6-0.9,0.7
		l0.6,0.4c0.6-0.3,1.2-0.7,1.6-1.4c0.5-0.7,0.7-1.4,0.8-2.2C1181.9,1194.5,1181.8,1194.1,1181.6,1193.7 M1170.9,1177.1v1.3h2.2v17.9
		h-2.2v1.3h3.7v-20.5H1170.9z M1153.7,1191.1v-2.9l0,0h5.5v3H1153.7z M1160.6,1191.1v-3h5.4l0,0v2.9H1160.6z M1167.3,1187.1
		c0-0.2-0.1-0.3-0.4-0.3h-14.2c-0.2,0-0.3,0.1-0.3,0.3v10.2h1.3v-4.9h12.3v3c0,0.3-0.2,0.5-0.5,0.6c-0.3,0.1-0.8,0.2-1.3,0.1
		c-0.5,0-1-0.1-1.3-0.1c-0.3-0.1-0.6-0.1-0.9-0.2l0,1.4c0.4,0.1,0.9,0.2,1.4,0.2c0.5,0,1.1,0.1,1.7,0c0.7,0,1.2-0.2,1.6-0.4
		c0.4-0.3,0.6-0.7,0.6-1.2V1187.1z M1169.1,1184h-8.6v-1.3h7.1v-1.3h-7.1v-1.2h8v-1.3h-8v-1.1h-1.3v1.1h-8v1.3h8v1.2h-7.1v1.3h7.1
		v1.3h-8.8v1.3h18.7V1184z M1148.7,1197.6v-1.3h-2.2v-17.9h2.2v-1.3h-3.7v20.5H1148.7z M1127.6,1179.5h5.5v-1.3h-5.5V1179.5z
		 M1135.6,1181.2h-10.4v1.3h10.4V1181.2z M1128.2,1188.3c-0.6-0.4-0.8-0.9-0.8-1.5c0-0.6,0.3-1.1,0.8-1.5c0.5-0.4,1.3-0.6,2.2-0.6
		c0.9,0,1.6,0.2,2.2,0.6c0.5,0.4,0.8,0.9,0.8,1.5c0,0.6-0.3,1.1-0.8,1.5c-0.6,0.4-1.3,0.6-2.2,0.6
		C1129.5,1188.9,1128.7,1188.7,1128.2,1188.3 M1139.6,1197v-19.2h-1.7c0.1,1.1,0.2,2.5,0.2,4.1v15.1H1139.6z M1127.9,1193.4
		c3.4,0,6.5-0.2,9.2-0.6v-1.3c-1.4,0.2-3.3,0.4-6,0.5v-1.9c1.1-0.1,2-0.5,2.7-1c0.7-0.6,1-1.3,1-2.2c0-1-0.4-1.8-1.2-2.4
		c-0.8-0.6-1.9-0.9-3.2-0.9c-1.4,0-2.4,0.3-3.3,0.9s-1.2,1.4-1.2,2.4c0,0.9,0.3,1.6,1,2.2c0.7,0.6,1.6,0.9,2.7,1v2
		c-0.4,0-0.9,0-1.6,0h-3.8v1.3H1127.9z M1120.4,1187.9v-10h-1.6c0.1,1.4,0.1,2.8,0.1,4.3v5.8H1120.4z M1109.6,1192.6h9.3v2.9h-9.3
		V1192.6z M1109.9,1180.1v0.6c0,2.8-1.7,4.8-5.2,6.2l1.1,1c2.6-1.1,4.2-2.6,4.9-4.3c0.5,1,1.2,1.7,2.1,2.4c0.9,0.6,1.8,1.1,2.8,1.5
		l0.8-1.1c-1.5-0.5-2.7-1.2-3.6-2.1c-0.9-0.9-1.4-2.1-1.4-3.5v-0.6h4v-1.3h-9.7v1.3H1109.9z M1120.4,1196.7v-7.9h-1.5v2.4h-9.3v-2.4
		h-1.6c0.1,1.3,0.2,2.7,0.2,4.3v3.6H1120.4z M1088.8,1179.2h5.5v-1.3h-5.5V1179.2z M1100,1184.8v5h1.5v-11.9h-1.6
		c0.1,1.4,0.1,2.8,0.1,4.3v1.3h-3.5v1.3H1100z M1090.7,1182.1c-0.1,1.3-0.6,2.5-1.5,3.6s-2.2,2-3.6,2.6l1.1,1c2.4-1.2,4-2.8,4.9-4.8
		c0.5,0.9,1.2,1.7,2.1,2.4c0.9,0.7,1.8,1.3,2.8,1.6l0.9-1c-1.4-0.5-2.5-1.2-3.5-2.2c-1-1-1.5-2.1-1.5-3.2h4.1v-1.3h-9.6v1.3H1090.7z
		 M1095.4,1191.3c1.5,0,2.7,0.2,3.6,0.6c0.9,0.4,1.4,1,1.4,1.8c0,0.7-0.5,1.3-1.4,1.7s-2.1,0.6-3.6,0.6c-1.5,0-2.7-0.2-3.6-0.6
		c-0.9-0.4-1.4-1-1.4-1.8s0.5-1.3,1.4-1.7C1092.7,1191.5,1093.9,1191.3,1095.4,1191.3 M1090.6,1196.4c1.2,0.6,2.8,1,4.8,1
		c2,0,3.6-0.3,4.8-1c1.2-0.6,1.7-1.5,1.7-2.7c0-1.2-0.6-2.1-1.7-2.7c-1.2-0.7-2.8-1-4.8-1c-2,0-3.6,0.3-4.8,1
		c-1.2,0.7-1.8,1.6-1.8,2.7C1088.8,1194.8,1089.4,1195.7,1090.6,1196.4 M1083.9,1194.5v-1.3h-4.2v-4.1h-1.6c0.1,1,0.1,2.1,0.1,3.5
		v0.5h-6v-4.1h-1.6c0.1,1,0.1,2.1,0.1,3.5v0.5h-4.3v1.3H1083.9z M1071.4,1186.4c-0.9-0.7-1.3-1.6-1.3-2.9c0-1.2,0.4-2.2,1.3-2.9
		c0.9-0.7,2.1-1,3.7-1c1.6,0,2.8,0.3,3.7,1c0.9,0.7,1.4,1.6,1.4,2.9c0,1.2-0.5,2.2-1.4,2.9c-0.9,0.7-2.1,1-3.7,1
		C1073.6,1187.4,1072.3,1187.1,1071.4,1186.4 M1079.9,1187.3c1.2-0.9,1.8-2.2,1.8-3.7c0-1.6-0.6-2.8-1.8-3.8
		c-1.2-0.9-2.8-1.4-4.8-1.4c-2,0-3.6,0.5-4.8,1.4c-1.2,0.9-1.8,2.2-1.8,3.8c0,1.6,0.6,2.8,1.8,3.7c1.2,0.9,2.8,1.4,4.8,1.4
		C1077.1,1188.7,1078.7,1188.2,1079.9,1187.3 M1064.9,1194.5v-1.3h-8v-3.7h5.8v-1.3h-11.4v-3.4h11.1v-1.3h-11.1v-3.4h11.2v-1.3
		h-12.8c0.1,1.3,0.2,2.7,0.2,4.3v6.5h5.5v3.7h-8v1.3H1064.9z"/>
	<path class="st0" d="M317.6,253.4c0,1.5,0,2.8-0.2,4.1c-0.1,1.3-0.2,2.2-0.3,2.5c-0.1,0.4-0.2,0.7-0.2,0.9h1.7l0.2-0.8
		c0.1-0.5,0.3-1.4,0.4-2.7c0.1-1.3,0.2-2.6,0.1-4.1h5.5v7.5h1.7v-7.5h5.2V252h-19.3v1.4H317.6z M317.9,247.6c-1-0.6-1.5-1.5-1.5-2.6
		c0-1.1,0.5-1.9,1.5-2.5c1-0.6,2.4-0.9,4.2-0.9c1.7,0,3.1,0.3,4.2,0.9c1,0.6,1.5,1.5,1.5,2.5c0,1.1-0.5,1.9-1.6,2.6
		c-1,0.6-2.4,0.9-4.1,0.9C320.3,248.5,318.9,248.2,317.9,247.6 M327.4,248.6c1.3-0.9,2-2,2-3.5c0-1.5-0.7-2.6-2-3.5
		c-1.3-0.9-3.1-1.3-5.4-1.3c-2.2,0-4,0.4-5.3,1.3c-1.3,0.9-2,2.1-2,3.5c0,1.5,0.7,2.6,2,3.5c1.3,0.9,3.1,1.3,5.4,1.3
		C324.2,249.9,326,249.5,327.4,248.6 M295.3,241.8h6.3v-1.4h-6.3V241.8z M309.2,261v-21.1h-1.8c0.1,1.2,0.2,2.7,0.2,4.5V261H309.2z
		 M297.6,246.5c0,1.8-0.5,3.5-1.5,5.1c-1,1.6-2.4,3-4.3,4l1.4,1.2c1.1-0.7,2.2-1.7,3.2-2.9c1-1.2,1.7-2.4,2.1-3.6
		c0.5,1.2,1.2,2.4,2.1,3.5c0.9,1.1,1.9,1.9,3,2.5l1.2-1.2c-1.6-0.8-2.9-2.1-3.9-3.6c-1-1.6-1.5-3.2-1.5-5v-0.8h4.7v-1.4h-11.2v1.4
		h4.8V246.5z M267.7,257.3c0.2,0,0.7,0.1,1.3,0.1c0.6,0,1.1,0.1,1.4,0.1c0.3,0,0.8,0.1,1.3,0.2c0.6,0.1,1,0.2,1.3,0.3
		c0.3,0.1,0.5,0.3,0.8,0.5c0.2,0.2,0.4,0.5,0.4,0.8c0,1.6-1.5,2.4-4.4,2.4c-2.4,0-3.6-0.8-3.6-2.4
		C266.2,258.5,266.7,257.8,267.7,257.3 M272.3,244.3c0.6,0.5,0.9,1.1,0.9,2c0,0.9-0.3,1.5-0.9,1.9c-0.6,0.4-1.4,0.7-2.3,0.7
		c-1,0-1.7-0.2-2.3-0.7c-0.6-0.4-0.9-1.1-0.9-1.9c0-1.8,1.1-2.7,3.2-2.7C270.9,243.7,271.7,243.9,272.3,244.3 M273.9,240
		c-1-0.4-2.3-0.5-3.9-0.5c-2.3,0-4.2,0.6-5.8,1.8c-1.6,1.2-2.4,2.9-2.4,5.1c0,1.9,0.9,3.5,2.8,4.7c-0.9,0.3-1.4,1.1-1.6,2.3
		c-0.2,1.2,0,2.2,0.6,2.9c-1.6,1-2.4,2.3-2.4,4c0,1.4,0.4,2.5,1.3,3.4c0.8,0.9,1.9,1.5,3.2,1.9c1.3,0.3,2.7,0.5,4.3,0.5
		c1.2,0,2.3-0.1,3.4-0.3c1-0.2,2-0.5,2.9-1c0.9-0.5,1.6-1.1,2.1-2c0.5-0.9,0.7-1.9,0.7-3.1c0-3-2.2-4.7-6.5-5.2
		c-1.2-0.1-2.5-0.2-3.8-0.3c-0.5,0-0.8-0.2-0.9-0.6c-0.1-0.4,0.2-0.6,0.7-0.6c0.2,0,0.6,0,1.1-0.1c0.5,0,0.8,0,1.1-0.1
		c2.1-0.1,3.8-0.7,5.2-1.7c1.4-1,2.1-2.5,2.1-4.5c0-1.6-0.4-2.9-1.3-4c0.6-0.3,1.3-0.8,1.9-1.5c0.6-0.7,1-1.4,1.2-2.2l-4.5-1.9
		C275.2,238.2,274.7,239.2,273.9,240 M247.3,260.1v-13.6c0.1-0.7,0.5-1.3,1.2-1.8c0.7-0.5,1.4-0.7,2-0.7c1,0,1.7,0.4,2.2,1.1
		c0.5,0.7,0.8,1.7,0.8,3v12h4.9v-12.4c0-2.4-0.6-4.3-1.9-5.8c-1.3-1.5-3-2.2-5.2-2.2c-1.3,0-2.6,0.4-4,1.2v-0.9h-5.2
		c0.2,1.9,0.2,4.3,0.2,7.3v12.8H247.3z M232.9,232.4c-0.6,0.7-1,1.4-1,2.3c0,0.9,0.3,1.7,0.9,2.4c0.6,0.6,1.4,1,2.3,1
		c0.9,0,1.7-0.3,2.3-1c0.6-0.6,0.9-1.4,0.9-2.4c0-0.9-0.3-1.6-0.9-2.3c-0.6-0.7-1.4-1-2.3-1C234.3,231.4,233.5,231.7,232.9,232.4
		 M237.7,260.1v-19.8h-5.2c0.2,1.9,0.2,4.4,0.2,7.5v12.3H237.7z M227.1,260.7c0.8,0,1.6-0.1,2.5-0.3l-0.3-3.5c-0.5,0-0.8,0-1.1-0.1
		c-0.3-0.1-0.5-0.2-0.6-0.4l-0.2-0.5c0-0.2,0-0.5,0-0.9v-22.5h-5.2c0.1,1.5,0.2,3.2,0.2,5.3v17.5C222.4,258.9,224,260.7,227.1,260.7
		 M201.8,254.4c0,2,0.7,3.6,2,4.8s3,1.7,5,1.7c2,0,3.7-0.6,5-1.7c0,0.4,0.1,0.8,0.2,1.2h4.5c-0.4-1.3-0.6-2.8-0.6-4.5v-9.1
		c0-2.3-0.7-4.1-2.1-5.3c-1.4-1.2-3.2-1.8-5.6-1.8c-3.7,0-6.4,1.4-8.2,4.2l3,2.7c0.6-0.9,1.4-1.6,2.4-2c1-0.4,1.9-0.6,2.8-0.6
		c1.9,0,2.8,1.1,2.8,3.2c-3,0-5.3,0.5-7,1.2C203.2,249.7,201.8,251.7,201.8,254.4 M213,251.3c0,1.9-0.4,3.2-1,4
		c-0.6,0.8-1.7,1.2-3.2,1.2c-0.6,0-1.2-0.2-1.6-0.5c-0.4-0.3-0.6-0.9-0.6-1.6C206.7,252.4,208.8,251.4,213,251.3 M188.7,245.3
		c0.7-0.8,1.5-1.2,2.5-1.2c2.2,0,3.3,1.4,3.3,4.2h-6.8C187.7,247.1,188,246.1,188.7,245.3 M199.6,249.7c-0.1-1.9-0.4-3.6-0.9-5.1
		c-0.5-1.4-1.5-2.6-2.7-3.5c-1.3-0.9-2.9-1.4-4.8-1.4c-2,0-3.7,0.5-5.1,1.6c-1.4,1.1-2.4,2.4-2.9,3.9c-0.6,1.6-0.9,3.3-0.9,5.2
		c0,1.8,0.3,3.5,0.9,5c0.6,1.5,1.7,2.8,3.1,3.9c1.5,1.1,3.2,1.6,5.3,1.6c1.3,0,2.6-0.3,4-0.9c1.4-0.6,2.5-1.4,3.3-2.3l-2-3.2
		c-1.3,1.4-2.9,2-4.9,2c-2.7,0-4.2-1.4-4.6-4.1h12C199.7,251.6,199.7,250.6,199.6,249.7"/>
	<path class="st2" d="M165.7,243.7v-11h-5.2c0.1,1.9,0.2,4.4,0.2,7.5v19.9h5v-11.9h8.6v11.9h4.9v-27.4h-5.2c0.2,1.9,0.2,4.3,0.2,7.5
		v3.5H165.7z"/>
	<path class="st0" d="M292.2,208.7h-10.6v-4.2h10.6V208.7z M293.8,210.1v-7h-14.1c0.1,1.3,0.2,2.6,0.2,4v3H293.8z M296.5,199h-19.3
		v1.4h19.3V199z M280.9,193.4c-0.8,1-1.9,1.8-3.2,2.3l1.2,1.1c1.9-1,3.3-2.3,4-3.7c0.4,0.8,1.1,1.5,1.9,2.3c0.8,0.7,1.5,1.3,2.1,1.6
		c0.6-0.3,1.2-0.9,2-1.6c0.8-0.7,1.3-1.5,1.8-2.2c0.7,1.3,2,2.5,4,3.7l1.2-1.1c-1.2-0.6-2.3-1.4-3.1-2.3c-0.8-1-1.3-2-1.3-3.1v-0.8
		h-1.6v0.7c0,0.9-0.3,1.8-0.9,2.7c-0.6,0.8-1.3,1.6-2.1,2.2c-0.7-0.5-1.5-1.2-2.1-2c-0.7-0.9-1-1.8-1-2.7v-0.8h-1.6v0.8
		C282.2,191.4,281.8,192.5,280.9,193.4 M273,200v-5.2h3v-1.5h-3v-4h-1.8c0.1,1.5,0.1,3.1,0.1,4.7v6H273z M265.3,197.5h-6.1v-5.6h6.1
		V197.5z M273,206.4v-5.2h-13.1v1.4h11.4v2.4h-11.5c0.1,1.1,0.1,2.3,0.1,3.6v1.6h13.5v-1.4h-11.8v-2.4H273z M266.9,198.9v-8.4h-9.5
		c0.1,1.4,0.2,3,0.2,4.7v3.8H266.9z M231.8,209.6v-13.8c0.1-0.8,0.5-1.5,1.2-1.9c0.7-0.5,1.4-0.7,2.1-0.7c1,0,1.8,0.4,2.4,1.1
		c0.6,0.7,0.9,1.7,0.9,3v12.4h4.9v-12.8c0-2.4-0.7-4.3-2-5.8c-1.3-1.5-3.1-2.2-5.3-2.2c-1.4,0-2.8,0.5-4.1,1.4v-8.3h-5.2
		c0.1,1.9,0.2,4.4,0.2,7.5v20.3H231.8z M214.7,193.8v10.7c0,3.9,1.9,5.8,5.7,5.8c0.5,0,1.1-0.1,1.9-0.4c0.8-0.2,1.5-0.6,2-0.9
		l-0.7-3.4c-0.8,0.5-1.7,0.7-2.5,0.7c-1,0-1.5-0.7-1.5-2v-10.5h4v-4.4h-4V182h-5.1c0.2,1.9,0.2,3.9,0.2,6.2v1.2h-3v4.4H214.7z
		 M195,208.5c1.2,1.3,2.9,1.9,5.1,1.9c1.9,0,3.5-0.7,4.8-2c0,0.6,0.1,1,0.3,1.4h4.4c-0.3-1.5-0.5-3-0.5-4.5v-15.9H204
		c0.2,1.9,0.2,4,0.2,6.3v5.7c0,1.3-0.3,2.4-1,3.2c-0.7,0.9-1.4,1.3-2.3,1.3c-1,0-1.6-0.3-2.1-0.9c-0.4-0.6-0.7-1.5-0.7-2.8v-12.9
		H193c0.1,1.9,0.2,4,0.2,6.3v7.1C193.2,205.4,193.8,207.2,195,208.5 M184.6,209.6v-12.9c0.2-1.3,0.8-2.2,1.8-2.8
		c1-0.6,2.2-0.6,3.6-0.1l0.9-4.7c-2.6-0.5-4.7,0.2-6.2,2v-1.6h-5.1c0.2,2.2,0.2,4.4,0.2,6.5v13.6H184.6z"/>
	<polygon class="st2" points="166.7,186.6 166.7,209.6 171.7,209.6 171.7,186.6 178.5,186.6 178.5,182.2 159.7,182.2 159.7,186.6 	
		"/>
	<path class="st0" d="M450.2,157.2v-1.4h-8.8v-5.6h6.6v-1.4h-12.7v-7.2h12.5v-1.4h-14.3c0.1,1.4,0.2,3,0.2,4.7v5.4h6.1v5.6h-8.8v1.4
		H450.2z M411.7,141.6h7.6c-0.1,2.6-1,5.1-2.5,7.4c-1.5,2.3-3.7,4.1-6.4,5.4l1.4,1.1c2.9-1.6,5.2-3.7,6.8-6.4
		c1.6-2.7,2.5-5.7,2.5-8.9h-9.4V141.6z M427.4,159.9v-21.1h-1.8c0.1,1.2,0.2,2.7,0.2,4.5v16.6H427.4z M404,149.5h-10.6v-4.6H404
		V149.5z M408.4,157.2v-1.4h-8.8v-4.8h6.1v-11.2H404v3.8h-10.6v-3.8h-1.8c0.1,1.4,0.2,3,0.2,4.7v6.5h6.1v4.8h-8.8v1.4H408.4z
		 M376.9,140.9c-0.1,0.7-0.4,1.2-0.8,1.8c-0.5,0.5-1.1,1-1.9,1.3c-0.8,0.3-1.5,0.6-2.3,0.8c-0.8,0.2-1.7,0.4-2.6,0.5l1,1.2
		c3.9-0.7,6.4-1.9,7.5-3.8c0.6,1,1.6,1.9,3,2.5c1.4,0.6,2.9,1,4.5,1.3l1-1.2c-0.9-0.1-1.7-0.3-2.5-0.5c-0.8-0.2-1.6-0.5-2.4-0.8
		c-0.8-0.3-1.4-0.8-1.9-1.3c-0.5-0.5-0.8-1.1-0.9-1.8h6.4v-1.4h-14.6v1.4H376.9z M377.8,153.9c1.8,0,3.2,0.2,4.2,0.7
		c1,0.5,1.6,1.1,1.6,1.9c0,0.8-0.5,1.4-1.6,1.8c-1.1,0.4-2.5,0.7-4.2,0.7c-1.8,0-3.2-0.2-4.2-0.7c-1-0.5-1.6-1.1-1.6-1.9
		s0.5-1.4,1.6-1.8C374.6,154.1,376,153.9,377.8,153.9 M372.3,159.3c1.3,0.7,3.1,1,5.5,1s4.2-0.3,5.5-1c1.3-0.7,1.9-1.6,1.9-2.9
		c0-1.2-0.6-2.1-1.7-2.8c-1.1-0.7-2.8-1.1-4.9-1.2v-2.6h8.8v-1.4h-19.3v1.4h8.8v2.6c-2.1,0.1-3.7,0.5-4.8,1.2
		c-1.1,0.7-1.7,1.6-1.7,2.8C370.4,157.6,371,158.6,372.3,159.3 M344,159.1v-13.6c0.1-0.7,0.5-1.3,1.2-1.8c0.7-0.5,1.4-0.7,2-0.7
		c1,0,1.7,0.4,2.2,1.1c0.5,0.7,0.8,1.7,0.8,3v12h4.9v-12.4c0-2.4-0.6-4.3-1.9-5.8c-1.3-1.5-3-2.2-5.2-2.2c-1.3,0-2.6,0.4-4,1.2V139
		h-5.2c0.2,1.9,0.2,4.3,0.2,7.3v12.8H344z M323.3,139.6c-1.2,0.6-2.1,1.4-2.7,2.4c-0.7,1-1.2,2.2-1.6,3.4c-0.4,1.2-0.5,2.5-0.5,3.9
		s0.2,2.6,0.5,3.9c0.4,1.2,0.9,2.4,1.6,3.4c0.7,1,1.6,1.8,2.7,2.4c1.2,0.6,2.5,0.9,3.9,0.9c1.9,0,3.6-0.5,5-1.6
		c1.4-1.1,2.4-2.4,3-3.9c0.6-1.6,0.9-3.2,0.9-5c0-1.8-0.3-3.5-0.9-5c-0.6-1.6-1.6-2.9-3-3.9c-1.4-1.1-3-1.6-5-1.6
		C325.7,138.7,324.4,139,323.3,139.6 M330.2,153.6c-0.6,1.3-1.6,1.9-3,1.9c-1.3,0-2.3-0.6-2.9-1.9c-0.6-1.3-0.9-2.7-0.9-4.3
		c0-1.6,0.3-3.1,0.9-4.4c0.6-1.3,1.6-1.9,2.9-1.9c1.3,0,2.3,0.6,3,1.9c0.6,1.3,1,2.7,1,4.3C331.1,150.9,330.8,152.3,330.2,153.6
		 M310.2,131.3c-0.6,0.7-1,1.4-1,2.3c0,0.9,0.3,1.7,0.9,2.4c0.6,0.6,1.4,1,2.3,1c0.9,0,1.7-0.3,2.3-1c0.6-0.6,0.9-1.4,0.9-2.4
		c0-0.9-0.3-1.6-0.9-2.3c-0.6-0.7-1.4-1-2.3-1C311.6,130.3,310.8,130.7,310.2,131.3 M315,159.1v-19.8h-5.2c0.2,1.9,0.2,4.4,0.2,7.5
		v12.3H315z M305.8,150.9c-0.3-0.7-0.7-1.2-1.1-1.7c-0.4-0.4-1-0.8-1.8-1.2c-0.8-0.4-1.5-0.7-2-0.9c-0.5-0.2-1.3-0.4-2.2-0.7
		c-0.5-0.2-1-0.3-1.2-0.4c-0.3-0.1-0.5-0.3-0.8-0.6c-0.3-0.3-0.4-0.7-0.4-1.1c0-1,0.9-1.6,2.7-1.6c1.7,0,3.3,0.5,5,1.5l1.6-3.8
		c-2.3-1.4-4.5-2-6.7-2c-2.3,0-4.1,0.5-5.5,1.6c-1.4,1-2.1,2.5-2.1,4.5c0,1.6,0.4,2.8,1.2,3.6c0.8,0.9,2,1.6,3.7,2.2
		c0.3,0.1,0.8,0.2,1.6,0.5c0.8,0.2,1.4,0.4,1.9,0.6c0.5,0.2,0.9,0.5,1.4,0.8c0.4,0.4,0.6,0.8,0.6,1.3c0,0.7-0.3,1.2-0.9,1.6
		c-0.6,0.4-1.3,0.5-2.1,0.5c-1.8,0-3.7-0.9-5.7-2.6l-2.2,3.5c1,1,2.3,1.8,3.9,2.5s2.9,1,4.2,1c2.3,0,4.1-0.6,5.5-1.7
		c1.4-1.2,2.2-2.8,2.2-5C306.3,152.4,306.2,151.6,305.8,150.9 M288.5,150.9c-0.3-0.7-0.7-1.2-1.1-1.7c-0.4-0.4-1-0.8-1.8-1.2
		c-0.8-0.4-1.5-0.7-2-0.9c-0.5-0.2-1.3-0.4-2.2-0.7c-0.5-0.2-1-0.3-1.2-0.4c-0.3-0.1-0.5-0.3-0.8-0.6c-0.3-0.3-0.4-0.7-0.4-1.1
		c0-1,0.9-1.6,2.7-1.6c1.7,0,3.3,0.5,5,1.5l1.6-3.8c-2.3-1.4-4.5-2-6.7-2c-2.3,0-4.1,0.5-5.5,1.6c-1.4,1-2.1,2.5-2.1,4.5
		c0,1.6,0.4,2.8,1.2,3.6c0.8,0.9,2,1.6,3.7,2.2c0.3,0.1,0.8,0.2,1.6,0.5c0.8,0.2,1.4,0.4,1.9,0.6c0.5,0.2,0.9,0.5,1.4,0.8
		c0.4,0.4,0.6,0.8,0.6,1.3c0,0.7-0.3,1.2-0.9,1.6c-0.6,0.4-1.3,0.5-2.1,0.5c-1.8,0-3.7-0.9-5.7-2.6l-2.2,3.5c1,1,2.3,1.8,3.9,2.5
		c1.5,0.7,2.9,1,4.2,1c2.3,0,4.1-0.6,5.5-1.7c1.4-1.2,2.2-2.8,2.2-5C289,152.4,288.8,151.6,288.5,150.9 M260.4,144.2
		c0.7-0.8,1.5-1.2,2.5-1.2c2.2,0,3.3,1.4,3.3,4.2h-6.8C259.4,146,259.7,145,260.4,144.2 M271.3,148.7c-0.1-1.9-0.4-3.6-0.9-5.1
		c-0.5-1.4-1.5-2.6-2.7-3.5c-1.3-0.9-2.9-1.4-4.8-1.4c-2,0-3.7,0.5-5.1,1.6c-1.4,1.1-2.4,2.4-2.9,3.9c-0.6,1.6-0.9,3.3-0.9,5.2
		c0,1.8,0.3,3.5,0.9,5c0.6,1.5,1.7,2.8,3.1,3.9c1.5,1.1,3.2,1.6,5.3,1.6c1.3,0,2.6-0.3,4-0.9s2.5-1.4,3.3-2.3l-2-3.2
		c-1.3,1.4-2.9,2-4.9,2c-2.7,0-4.2-1.4-4.6-4.1h12C271.4,150.5,271.4,149.6,271.3,148.7 M245.4,155.5c-1.3,0-2.4-0.6-3.2-1.7
		c-0.8-1.1-1.2-2.5-1.2-4.1c0-1.9,0.4-3.5,1.2-4.7c0.8-1.2,1.9-1.8,3.4-1.8c1.5,0,2.9,0.5,4.1,1.6l2.4-3.5c-1.8-1.7-4.1-2.6-6.8-2.6
		c-2.9,0-5.2,1-6.8,3.1c-1.7,2.1-2.5,4.6-2.5,7.6c0,3.1,0.8,5.6,2.5,7.6c1.7,2,3.9,2.9,6.7,2.9c3.2,0,5.8-1.1,7.6-3.4l-2.2-3.2
		C249.2,154.7,247.6,155.5,245.4,155.5 M229.3,159.1v-12.9c0.2-1.3,0.8-2.2,1.8-2.8c1-0.6,2.2-0.6,3.6-0.1l0.9-4.7
		c-2.6-0.5-4.7,0.2-6.2,2V139h-5.1c0.2,2.2,0.2,4.4,0.2,6.5v13.6H229.3z M210.2,144.2c0.7-0.8,1.5-1.2,2.5-1.2
		c2.2,0,3.3,1.4,3.3,4.2h-6.8C209.3,146,209.6,145,210.2,144.2 M221.2,148.7c-0.1-1.9-0.4-3.6-0.9-5.1c-0.5-1.4-1.5-2.6-2.7-3.5
		c-1.3-0.9-2.9-1.4-4.8-1.4c-2,0-3.7,0.5-5.1,1.6c-1.4,1.1-2.4,2.4-2.9,3.9c-0.6,1.6-0.9,3.3-0.9,5.2c0,1.8,0.3,3.5,0.9,5
		c0.6,1.5,1.7,2.8,3.1,3.9c1.5,1.1,3.2,1.6,5.3,1.6c1.3,0,2.6-0.3,4-0.9s2.5-1.4,3.3-2.3l-2-3.2c-1.3,1.4-2.9,2-4.9,2
		c-2.7,0-4.2-1.4-4.6-4.1h12C221.2,150.5,221.2,149.6,221.2,148.7 M192.7,143.3V154c0,3.9,1.9,5.8,5.7,5.8c0.5,0,1.1-0.1,1.9-0.4
		c0.8-0.2,1.5-0.6,2-0.9l-0.7-3.4c-0.8,0.5-1.7,0.7-2.5,0.7c-1,0-1.5-0.7-1.5-2v-10.5h4v-4.4h-4v-7.4h-5.1c0.2,1.9,0.2,3.9,0.2,6.2
		v1.2h-3v4.4H192.7z M176.3,159.1v-13.6c0.1-0.7,0.5-1.3,1.2-1.8s1.4-0.7,2-0.7c1,0,1.7,0.4,2.2,1.1c0.5,0.7,0.8,1.7,0.8,3v12h4.9
		v-12.4c0-2.4-0.6-4.3-1.9-5.8c-1.3-1.5-3-2.2-5.2-2.2c-1.3,0-2.6,0.4-4,1.2V139h-5.2c0.2,1.9,0.2,4.3,0.2,7.3v12.8H176.3z"/>
	<path class="st2" d="M166.4,159.1v-27.4h-5.2c0.2,1.9,0.2,4.4,0.2,7.5v19.9H166.4z"/>
</g>
<g id="Layer_2">
	<g>
		<g>
			<g>
				<path class="st0" d="M894.8,180.3H556.4c-1.2,0-2.1-1-2.1-2.1c0-1.2,1-2.1,2.1-2.1h338.5c1.2,0,2.1,1,2.1,2.1
					C897,179.3,896,180.3,894.8,180.3z"/>
			</g>
			<polygon class="st0" points="540.1,198.3 552.8,178.1 540.1,157.9 545.4,157.9 558.2,178.1 545.4,198.3 			"/>
			<polygon class="st0" points="547.9,198.3 560.7,178.1 547.9,157.9 553.3,157.9 566,178.1 553.3,198.3 			"/>
			<polygon class="st0" points="555.8,198.3 568.5,178.1 555.8,157.9 561.2,157.9 573.9,178.1 561.2,198.3 			"/>
			<polygon class="st0" points="563.7,198.3 576.4,178.1 563.7,157.9 569,157.9 581.8,178.1 569,198.3 			"/>
			<polygon class="st0" points="571.5,198.3 584.3,178.1 571.5,157.9 576.9,157.9 589.6,178.1 576.9,198.3 			"/>
			<polygon class="st0" points="579.4,198.3 592.1,178.1 579.4,157.9 584.8,157.9 597.5,178.1 584.8,198.3 			"/>
			<polygon class="st0" points="587.3,198.3 600,178.1 587.3,157.9 592.6,157.9 605.4,178.1 592.6,198.3 			"/>
			<polygon class="st0" points="595.1,198.3 607.9,178.1 595.1,157.9 600.5,157.9 613.2,178.1 600.5,198.3 			"/>
			<g>
				<polygon class="st3" points="880.2,192.2 925.7,178.1 883.1,178.1 				"/>
				<polygon class="st4" points="883.1,178.1 925.7,178.1 880.2,164.1 				"/>
			</g>
		</g>
		<g>
			<path class="st0" d="M692.4,25.3c26.8,12,44.4,39.7,54.7,66.3c17,44.7,18.3,105.6,6.7,151.8c-8.5,33.8-28.1,72.4-61.3,87.4
				c11.5-8.2,20.4-19.7,27.6-31.7c19.4-33.3,25.4-72.5,26.6-110.5C747.9,133.6,738.9,60.9,692.4,25.3L692.4,25.3z"/>
		</g>
		<line class="st5" x1="696.3" y1="27.6" x2="696.3" y2="329.8"/>
	</g>
</g>
</svg>
