<?xml version="1.0" encoding="utf-8"?>
<!-- Generator: Adobe Illustrator 27.2.0, SVG Export Plug-In . SVG Version: 6.00 Build 0)  -->
<svg version="1.1" xmlns="http://www.w3.org/2000/svg" xmlns:xlink="http://www.w3.org/1999/xlink" x="0px" y="0px"
	 viewBox="0 0 1000 1000" style="enable-background:new 0 0 1000 1000;" xml:space="preserve">
<style type="text/css">
	.st0{fill:#3F3C3D;}
	.st1{fill:#E2746D;}
	.st2{fill:#5A585A;}
	.st3{fill:#999B9E;}
	.st4{fill:none;stroke:#000000;stroke-miterlimit:10;}
</style>
<g id="Layer_1">
	<path class="st0" d="M323.6,400.8h4.3v6h-4.3V400.8z M333.4,412.4v-10.8h2.8v11.7h1.6v-20.2H336c0.1,1.2,0.2,2.6,0.2,4.3v2.8h-2.8
		v-6.8h-1.7c0.1,1.2,0.2,2.6,0.2,4.3v14.6H333.4z M329.4,408.2v-13.9h-1.5v5.1h-4.3v-5.1h-1.7c0.1,1.3,0.2,2.8,0.2,4.5v9.4H329.4z
		 M309.7,399h2.7v4.5h-2.7c0.1-0.6,0.1-1.4,0.1-2.1C309.8,400.5,309.7,399.7,309.7,399 M317.8,413.3v-20.2H316
		c0.1,1.2,0.2,2.6,0.2,4.3v15.9H317.8z M303.4,396.7c0.5-1.1,1.2-1.7,2.1-1.7c0.8,0,1.5,0.6,2,1.7c0.5,1.1,0.8,2.6,0.8,4.5
		s-0.3,3.4-0.8,4.5c-0.5,1.1-1.2,1.7-2,1.7c-0.8,0-1.5-0.6-2.1-1.7c-0.5-1.1-0.8-2.6-0.8-4.6C302.7,399.4,302.9,397.9,303.4,396.7
		 M302.4,407c0.8,1.2,1.9,1.8,3.1,1.8c0.9,0,1.6-0.3,2.3-1c0.7-0.6,1.2-1.6,1.5-3h3v7.5h1.6v-18.9h-1.7c0.1,1.3,0.2,2.7,0.2,4.1h-3
		c-0.3-1.3-0.9-2.3-1.6-2.9c-0.7-0.6-1.5-0.9-2.3-0.9c-1.3,0-2.3,0.6-3.1,1.8c-0.8,1.2-1.2,3.1-1.2,5.8
		C301.2,403.9,301.6,405.8,302.4,407 M276.9,418.1v-6.7c1.3,0.8,2.6,1.2,4,1.2c2.7,0,4.7-0.9,6-2.8c1.4-1.9,2-4.2,2-7.1
		c0-2.8-0.7-5.1-2-7c-1.3-1.9-3.3-2.8-6.1-2.8c-1.5,0-2.8,0.5-4,1.5v-1.1H272c0.2,1.9,0.2,3.9,0.2,6.2v18.6H276.9z M284.2,402.5
		c0,1.7-0.3,3.1-0.8,4.2c-0.6,1.1-1.4,1.7-2.6,1.7c-1.3,0-2.3-0.5-2.9-1.6c-0.6-1.1-0.9-2.5-0.9-4.3c0-1.6,0.3-2.9,0.9-3.9
		c0.6-1,1.5-1.5,2.8-1.5c1.3,0,2.2,0.5,2.8,1.5C283.9,399.6,284.2,400.9,284.2,402.5 M263.2,385.9c-0.6,0.6-0.9,1.4-0.9,2.2
		c0,0.9,0.3,1.6,0.9,2.3c0.6,0.6,1.4,0.9,2.2,0.9c0.9,0,1.6-0.3,2.2-0.9c0.6-0.6,0.9-1.4,0.9-2.3c0-0.8-0.3-1.5-0.9-2.2
		c-0.6-0.6-1.3-1-2.2-1C264.5,385,263.8,385.3,263.2,385.9 M267.8,412.5v-18.9h-5c0.2,1.8,0.2,4.2,0.2,7.2v11.8H267.8z M247.7,412.5
		v-13.2c0.1-0.8,0.4-1.4,1.1-1.9c0.7-0.4,1.3-0.7,2-0.7c1,0,1.7,0.3,2.3,1c0.6,0.7,0.8,1.6,0.8,2.9v11.9h4.7v-12.2
		c0-2.3-0.6-4.1-1.9-5.5c-1.3-1.4-3-2.2-5.1-2.2c-1.3,0-2.7,0.4-3.9,1.3v-8h-5c0.1,1.8,0.2,4.2,0.2,7.1v19.4H247.7z M239.6,404.7
		c-0.3-0.6-0.7-1.2-1.1-1.6c-0.4-0.4-1-0.8-1.7-1.2c-0.8-0.4-1.4-0.7-1.9-0.9c-0.5-0.2-1.2-0.4-2.2-0.7c-0.5-0.2-0.9-0.3-1.2-0.4
		c-0.3-0.1-0.5-0.3-0.8-0.6c-0.3-0.3-0.4-0.6-0.4-1c0-1,0.9-1.5,2.6-1.5c1.6,0,3.2,0.5,4.8,1.5l1.5-3.7c-2.2-1.3-4.3-1.9-6.4-1.9
		c-2.2,0-4,0.5-5.3,1.5c-1.4,1-2,2.4-2,4.3c0,1.5,0.4,2.7,1.1,3.5c0.8,0.8,1.9,1.5,3.5,2.2c0.3,0.1,0.7,0.2,1.5,0.4
		c0.7,0.2,1.3,0.4,1.8,0.6c0.5,0.2,0.9,0.4,1.3,0.8c0.4,0.4,0.6,0.8,0.6,1.2c0,0.7-0.3,1.2-0.8,1.5c-0.5,0.3-1.2,0.5-2,0.5
		c-1.7,0-3.5-0.8-5.5-2.5L225,410c1,1,2.2,1.8,3.7,2.4c1.5,0.6,2.8,1,4,1c2.2,0,3.9-0.6,5.3-1.7c1.4-1.1,2.1-2.7,2.1-4.8
		C240.1,406.1,239.9,405.4,239.6,404.7 M218.1,412.5v-12.3c0.2-1.2,0.7-2.1,1.7-2.6c1-0.5,2.1-0.6,3.4-0.1l0.8-4.5
		c-2.5-0.5-4.5,0.2-5.9,1.9v-1.5h-4.9c0.2,2.1,0.2,4.2,0.2,6.2v13H218.1z M198.1,393.8c-1.1,0.6-2,1.4-2.6,2.3
		c-0.6,1-1.1,2.1-1.5,3.2c-0.3,1.2-0.5,2.4-0.5,3.7s0.2,2.5,0.5,3.7c0.3,1.2,0.8,2.3,1.5,3.2c0.6,1,1.5,1.8,2.6,2.3s2.4,0.9,3.8,0.9
		c1.8,0,3.4-0.5,4.8-1.5c1.3-1,2.3-2.3,2.9-3.8c0.6-1.5,0.9-3.1,0.9-4.8s-0.3-3.3-0.9-4.8c-0.6-1.5-1.5-2.8-2.9-3.8
		c-1.3-1-2.9-1.5-4.8-1.5C200.4,393,199.2,393.3,198.1,393.8 M204.7,407.3c-0.6,1.2-1.6,1.8-2.8,1.8c-1.3,0-2.2-0.6-2.8-1.8
		c-0.6-1.2-0.9-2.6-0.9-4.2s0.3-2.9,0.9-4.2c0.6-1.2,1.5-1.8,2.8-1.8c1.3,0,2.2,0.6,2.8,1.9c0.6,1.2,0.9,2.6,0.9,4.2
		C205.6,404.7,205.3,406.1,204.7,407.3"/>
	<path class="st1" d="M178.7,395.2l3.9,17.4h4.8l5.1-22c0.3-1.5,0.8-2.9,1.3-4.3h-5.4c-0.1,0.9-0.3,2.3-0.7,4.2l-2.9,14.8l-4-18.8
		h-4.1l-3.9,18.9l-3-14.8c-0.3-1.3-0.5-2.6-0.7-4.2h-5.4c0.7,2.2,1.1,3.6,1.3,4.3l5.1,22h4.8L178.7,395.2z"/>
	<path class="st0" d="M147.9,416h2.5v-31.9h-2.5V416z M119.9,396.8v-10.5h-5c0.1,1.8,0.2,4.2,0.2,7.1v19.1h4.8v-11.5h8.3v11.5h4.7
		v-26.3h-5c0.2,1.8,0.2,4.2,0.2,7.1v3.4H119.9z M100.8,390.5v22h4.8v-22h6.6v-4.2h-18v4.2H100.8z M90.5,412.5v-26.3h-5
		c0.2,1.8,0.2,4.2,0.2,7.2v19.1H90.5z M67.8,395.2l3.9,17.4h4.8l5.1-22c0.3-1.5,0.8-2.9,1.3-4.3h-5.4c-0.1,0.9-0.3,2.3-0.7,4.2
		l-2.9,14.8l-4-18.8h-4.1l-3.9,18.9l-3-14.8c-0.3-1.3-0.5-2.6-0.7-4.2h-5.4c0.7,2.2,1.1,3.6,1.3,4.3l5.1,22H64L67.8,395.2z"/>
	<path class="st0" d="M314.2,551.2c0,1.4,0,2.7-0.1,4c-0.1,1.3-0.2,2.1-0.3,2.4c-0.1,0.4-0.2,0.6-0.2,0.8h1.6l0.2-0.8
		c0.1-0.5,0.3-1.4,0.4-2.6c0.1-1.2,0.2-2.5,0.1-3.9h5.3v7.2h1.6v-7.2h5v-1.4h-18.5v1.4H314.2z M314.5,545.6c-1-0.6-1.5-1.4-1.5-2.4
		c0-1,0.5-1.8,1.5-2.4c1-0.6,2.3-0.9,4-0.9c1.7,0,3,0.3,4,0.9c1,0.6,1.5,1.4,1.5,2.4c0,1-0.5,1.9-1.5,2.4c-1,0.6-2.3,0.9-4,0.9
		C316.8,546.5,315.5,546.2,314.5,545.6 M323.6,546.5c1.3-0.8,1.9-2,1.9-3.3c0-1.4-0.6-2.5-1.9-3.4c-1.3-0.9-3-1.3-5.1-1.3
		s-3.9,0.4-5.1,1.3c-1.3,0.9-1.9,2-1.9,3.4c0,1.4,0.6,2.5,1.9,3.3c1.3,0.8,3,1.3,5.1,1.3C320.6,547.8,322.3,547.4,323.6,546.5
		 M292.9,540h6v-1.4h-6V540z M306.2,558.4v-20.2h-1.8c0.1,1.2,0.2,2.6,0.2,4.3v15.9H306.2z M295.1,544.6c0,1.7-0.5,3.4-1.4,4.9
		c-1,1.6-2.3,2.8-4.1,3.8l1.4,1.1c1.1-0.7,2.1-1.6,3-2.7c1-1.1,1.6-2.3,2-3.5c0.4,1.2,1.1,2.3,2,3.3c0.9,1,1.8,1.8,2.9,2.4l1.1-1.2
		c-1.6-0.8-2.8-2-3.8-3.5c-0.9-1.5-1.4-3.1-1.4-4.8v-0.8h4.5v-1.4h-10.7v1.4h4.6V544.6z M266.4,554.9c0.2,0,0.6,0.1,1.3,0.1
		c0.6,0,1.1,0.1,1.4,0.1c0.3,0,0.7,0.1,1.3,0.2c0.5,0.1,0.9,0.2,1.2,0.3c0.3,0.1,0.5,0.3,0.8,0.5c0.2,0.2,0.3,0.5,0.3,0.8
		c0,1.5-1.4,2.3-4.2,2.3c-2.3,0-3.5-0.8-3.5-2.3C265,556,265.4,555.4,266.4,554.9 M270.8,542.5c0.6,0.4,0.9,1.1,0.9,1.9
		c0,0.8-0.3,1.4-0.9,1.9c-0.6,0.4-1.3,0.6-2.2,0.6c-0.9,0-1.7-0.2-2.2-0.6c-0.6-0.4-0.9-1-0.9-1.8c0-1.7,1-2.6,3.1-2.6
		C269.5,541.8,270.3,542,270.8,542.5 M272.4,538.3c-1-0.3-2.2-0.5-3.7-0.5c-2.2,0-4,0.6-5.5,1.8c-1.5,1.2-2.3,2.8-2.3,4.9
		c0,1.8,0.9,3.3,2.7,4.5c-0.8,0.3-1.4,1-1.5,2.2c-0.2,1.2,0,2.1,0.6,2.8c-1.6,1-2.3,2.2-2.3,3.8c0,1.3,0.4,2.4,1.2,3.3
		c0.8,0.9,1.8,1.4,3,1.8c1.2,0.3,2.6,0.5,4.1,0.5c1.2,0,2.2-0.1,3.2-0.3c1-0.2,1.9-0.5,2.8-1s1.5-1.1,2-1.9c0.5-0.8,0.7-1.8,0.7-2.9
		c0-2.9-2.1-4.5-6.2-5c-1.2-0.1-2.4-0.2-3.6-0.3c-0.5,0-0.8-0.2-0.8-0.6c0-0.3,0.2-0.5,0.7-0.6c0.2,0,0.5,0,1-0.1c0.5,0,0.8,0,1-0.1
		c2-0.1,3.6-0.7,5-1.7c1.3-1,2-2.4,2-4.3c0-1.5-0.4-2.8-1.2-3.8c0.6-0.3,1.2-0.8,1.8-1.4c0.6-0.6,1-1.3,1.1-2.1l-4.3-1.8
		C273.6,536.6,273.1,537.6,272.4,538.3 M246.9,557.6v-13c0.1-0.7,0.4-1.3,1.1-1.7c0.7-0.4,1.3-0.7,1.9-0.7c0.9,0,1.6,0.3,2.2,1
		c0.5,0.7,0.8,1.6,0.8,2.9v11.5h4.7v-11.9c0-2.3-0.6-4.1-1.8-5.6c-1.2-1.4-2.9-2.2-5-2.2c-1.2,0-2.5,0.4-3.8,1.2v-0.9h-5
		c0.2,1.8,0.2,4.1,0.2,7v12.2H246.9z M233.1,531c-0.6,0.6-0.9,1.4-0.9,2.2c0,0.9,0.3,1.6,0.9,2.3c0.6,0.6,1.4,0.9,2.2,0.9
		c0.9,0,1.6-0.3,2.2-0.9c0.6-0.6,0.9-1.4,0.9-2.3c0-0.8-0.3-1.5-0.9-2.2c-0.6-0.6-1.3-1-2.2-1C234.4,530.1,233.7,530.4,233.1,531
		 M237.7,557.6v-18.9h-5c0.2,1.8,0.2,4.2,0.2,7.2v11.8H237.7z M227.5,558.1c0.7,0,1.5-0.1,2.4-0.3l-0.3-3.4c-0.5,0-0.8,0-1.1-0.1
		c-0.3-0.1-0.5-0.2-0.6-0.4l-0.2-0.5c0-0.2,0-0.4,0-0.8v-21.6h-5c0.1,1.4,0.2,3.1,0.2,5.1v16.7C223,556.4,224.5,558.1,227.5,558.1
		 M203.2,552.1c0,1.9,0.6,3.5,1.9,4.6c1.3,1.1,2.9,1.7,4.8,1.7c2,0,3.6-0.6,4.8-1.7c0,0.3,0.1,0.7,0.2,1.2h4.3
		c-0.4-1.2-0.6-2.7-0.6-4.3v-8.7c0-2.2-0.7-3.9-2-5.1c-1.3-1.2-3.1-1.8-5.3-1.8c-3.5,0-6.2,1.3-7.9,4l2.9,2.6
		c0.6-0.9,1.4-1.5,2.3-1.9c0.9-0.4,1.8-0.6,2.7-0.6c1.8,0,2.7,1,2.7,3c-2.9,0-5.1,0.4-6.7,1.2C204.6,547.6,203.2,549.5,203.2,552.1
		 M214,549.2c0,1.8-0.4,3.1-0.9,3.8c-0.6,0.8-1.6,1.1-3.1,1.1c-0.6,0-1.1-0.2-1.5-0.5c-0.4-0.3-0.6-0.8-0.6-1.5
		C207.9,550.2,210,549.2,214,549.2 M190.7,543.4c0.6-0.7,1.4-1.1,2.4-1.1c2.1,0,3.2,1.3,3.2,4h-6.5
		C189.8,545.1,190.1,544.1,190.7,543.4 M201.2,547.6c-0.1-1.9-0.4-3.5-0.9-4.9c-0.5-1.4-1.4-2.5-2.6-3.4s-2.8-1.3-4.6-1.3
		c-1.9,0-3.5,0.5-4.9,1.5c-1.3,1-2.3,2.3-2.8,3.8c-0.5,1.5-0.8,3.1-0.8,4.9c0,1.8,0.3,3.4,0.9,4.8c0.6,1.5,1.6,2.7,3,3.7
		c1.4,1,3.1,1.5,5.1,1.5c1.3,0,2.5-0.3,3.8-0.9c1.3-0.6,2.4-1.3,3.2-2.2l-1.9-3c-1.2,1.3-2.8,1.9-4.7,1.9c-2.6,0-4.1-1.3-4.4-3.9
		h11.5C201.2,549.4,201.2,548.5,201.2,547.6"/>
	<path class="st1" d="M168.7,541.9v-10.5h-5c0.1,1.8,0.2,4.2,0.2,7.1v19.1h4.8v-11.5h8.3v11.5h4.7v-26.3h-5c0.2,1.8,0.2,4.2,0.2,7.1
		v3.4H168.7z"/>
	<path class="st0" d="M289.9,508.3h-10.2v-4h10.2V508.3z M291.5,509.7V503H278c0.1,1.2,0.2,2.5,0.2,3.8v2.9H291.5z M294.1,499.1
		h-18.5v1.4h18.5V499.1z M279.1,493.7c-0.8,0.9-1.8,1.7-3.1,2.2l1.2,1.1c1.9-1,3.1-2.2,3.9-3.5c0.4,0.7,1,1.4,1.8,2.2
		c0.8,0.7,1.5,1.2,2,1.5c0.5-0.3,1.2-0.9,1.9-1.5c0.7-0.7,1.3-1.4,1.7-2.1c0.7,1.2,2,2.4,3.8,3.5l1.2-1.1c-1.2-0.5-2.2-1.3-3-2.2
		c-0.8-0.9-1.2-1.9-1.2-3V490h-1.6v0.7c0,0.9-0.3,1.8-0.8,2.6c-0.6,0.8-1.2,1.5-2,2.1c-0.7-0.5-1.4-1.1-2-1.9c-0.6-0.8-1-1.7-1-2.6
		V490h-1.6v0.8C280.3,491.8,279.9,492.7,279.1,493.7 M271.5,500v-5h2.8v-1.4h-2.8v-3.9h-1.7c0.1,1.5,0.1,3,0.1,4.5v5.7H271.5z
		 M264.1,497.5h-5.8v-5.4h5.8V497.5z M271.5,506.1v-5h-12.6v1.3h10.9v2.3h-11c0.1,1,0.1,2.2,0.1,3.5v1.5h13v-1.3h-11.3v-2.3H271.5z
		 M265.7,498.9v-8.1h-9.1c0.1,1.3,0.2,2.8,0.2,4.5v3.6H265.7z M232,509.2V496c0.1-0.8,0.4-1.4,1.1-1.9c0.7-0.4,1.3-0.7,2-0.7
		c1,0,1.7,0.3,2.3,1c0.6,0.7,0.8,1.6,0.8,2.9v11.9h4.7v-12.2c0-2.3-0.6-4.1-1.9-5.5c-1.3-1.4-3-2.2-5.1-2.2c-1.3,0-2.7,0.4-3.9,1.3
		v-8h-5c0.1,1.8,0.2,4.2,0.2,7.1v19.4H232z M215.6,494v10.3c0,3.7,1.8,5.6,5.4,5.6c0.4,0,1-0.1,1.8-0.4c0.8-0.2,1.4-0.5,1.9-0.9
		l-0.7-3.2c-0.8,0.4-1.6,0.6-2.4,0.6c-0.9,0-1.4-0.6-1.4-1.9v-10h3.8v-4.2h-3.8v-7.1h-4.9c0.2,1.8,0.2,3.8,0.2,6v1.1h-2.9v4.2H215.6
		z M196.7,508.1c1.1,1.2,2.7,1.8,4.9,1.8c1.8,0,3.3-0.6,4.6-1.9c0,0.5,0.1,1,0.3,1.4h4.2c-0.3-1.5-0.4-2.9-0.4-4.3v-15.2h-5
		c0.2,1.8,0.2,3.8,0.2,6.1v5.4c0,1.2-0.3,2.3-1,3.1c-0.6,0.8-1.4,1.3-2.2,1.3c-0.9,0-1.6-0.3-2-0.8c-0.4-0.6-0.6-1.4-0.6-2.6v-12.4
		h-5c0.1,1.8,0.2,3.8,0.2,6.1v6.8C195.1,505.1,195.6,506.9,196.7,508.1 M186.8,509.2v-12.3c0.2-1.2,0.7-2.1,1.7-2.6
		c1-0.5,2.1-0.6,3.4-0.1l0.8-4.5c-2.5-0.5-4.5,0.2-5.9,1.9v-1.5h-4.9c0.2,2.1,0.2,4.2,0.2,6.2v13H186.8z"/>
	<polygon class="st1" points="169.6,487.1 169.6,509.2 174.4,509.2 174.4,487.1 181,487.1 181,482.9 162.9,482.9 162.9,487.1 	"/>
	<path class="st0" d="M441.4,458.9v-1.4h-8.5v-5.4h6.3v-1.4h-12.2v-6.9H439v-1.4h-13.7c0.1,1.4,0.2,2.9,0.2,4.5v5.1h5.8v5.4h-8.4
		v1.4H441.4z M404.5,444h7.2c-0.1,2.5-0.9,4.9-2.4,7.1c-1.5,2.2-3.5,3.9-6.1,5.2l1.3,1c2.8-1.5,5-3.5,6.6-6.2
		c1.6-2.6,2.4-5.4,2.4-8.5h-9V444z M419.5,461.6v-20.2h-1.8c0.1,1.2,0.2,2.6,0.2,4.3v15.9H419.5z M397.1,451.5h-10.1v-4.4h10.1
		V451.5z M401.3,458.9v-1.4h-8.5v-4.6h5.8v-10.7h-1.6v3.6h-10.1v-3.6h-1.7c0.1,1.4,0.2,2.9,0.2,4.5v6.2h5.8v4.6h-8.4v1.4H401.3z
		 M371.1,443.3c-0.1,0.6-0.3,1.2-0.8,1.7c-0.5,0.5-1.1,0.9-1.8,1.3c-0.7,0.3-1.5,0.6-2.2,0.8c-0.8,0.2-1.6,0.4-2.4,0.5l1,1.2
		c3.7-0.6,6.1-1.8,7.2-3.6c0.6,1,1.6,1.8,2.9,2.4c1.3,0.6,2.8,1,4.3,1.2l1-1.1c-0.8-0.1-1.6-0.3-2.4-0.5c-0.8-0.2-1.5-0.5-2.3-0.8
		c-0.7-0.3-1.3-0.8-1.8-1.3c-0.5-0.5-0.7-1.1-0.8-1.7h6.1V442H365v1.3H371.1z M372,455.8c1.7,0,3,0.2,4,0.6c1,0.4,1.5,1,1.5,1.8
		c0,0.7-0.5,1.3-1.5,1.7c-1,0.4-2.3,0.6-4,0.6c-1.7,0-3-0.2-4-0.6c-1-0.4-1.5-1-1.5-1.8c0-0.8,0.5-1.3,1.5-1.8
		C368.9,456,370.3,455.8,372,455.8 M366.7,460.9c1.2,0.7,3,1,5.3,1c2.3,0,4-0.3,5.3-1c1.2-0.7,1.8-1.6,1.8-2.8c0-1.1-0.5-2-1.6-2.7
		c-1.1-0.7-2.7-1-4.7-1.1v-2.5h8.5v-1.4h-18.5v1.4h8.4v2.5c-2,0.1-3.6,0.4-4.6,1.1c-1.1,0.7-1.6,1.5-1.6,2.7
		C364.8,459.4,365.5,460.3,366.7,460.9 M339.6,460.8v-13c0.1-0.7,0.4-1.3,1.1-1.7c0.7-0.4,1.3-0.7,1.9-0.7c0.9,0,1.7,0.3,2.2,1
		c0.5,0.7,0.8,1.6,0.8,2.9v11.5h4.7v-11.9c0-2.3-0.6-4.1-1.8-5.6c-1.2-1.4-2.9-2.2-5-2.2c-1.2,0-2.5,0.4-3.8,1.2v-0.9h-5
		c0.2,1.8,0.2,4.1,0.2,7v12.2H339.6z M319.7,442.1c-1.1,0.6-2,1.4-2.6,2.3c-0.6,1-1.1,2.1-1.5,3.2c-0.3,1.2-0.5,2.4-0.5,3.7
		c0,1.3,0.2,2.5,0.5,3.7c0.3,1.2,0.8,2.3,1.5,3.2c0.6,1,1.5,1.8,2.6,2.3c1.1,0.6,2.4,0.9,3.8,0.9c1.8,0,3.4-0.5,4.8-1.5
		c1.3-1,2.3-2.3,2.9-3.8c0.6-1.5,0.9-3.1,0.9-4.8s-0.3-3.3-0.9-4.8c-0.6-1.5-1.5-2.8-2.9-3.8c-1.3-1-2.9-1.5-4.8-1.5
		C322.1,441.2,320.8,441.5,319.7,442.1 M326.3,455.5c-0.6,1.2-1.6,1.8-2.8,1.8c-1.3,0-2.2-0.6-2.8-1.8c-0.6-1.2-0.9-2.6-0.9-4.2
		c0-1.5,0.3-2.9,0.9-4.2c0.6-1.2,1.5-1.8,2.8-1.8c1.3,0,2.2,0.6,2.8,1.9c0.6,1.2,0.9,2.6,0.9,4.2
		C327.2,452.9,326.9,454.3,326.3,455.5 M307.1,434.2c-0.6,0.6-0.9,1.4-0.9,2.2c0,0.9,0.3,1.6,0.9,2.3c0.6,0.6,1.4,0.9,2.2,0.9
		c0.9,0,1.6-0.3,2.2-0.9c0.6-0.6,0.9-1.4,0.9-2.3c0-0.8-0.3-1.5-0.9-2.2c-0.6-0.6-1.3-1-2.2-1C308.5,433.2,307.7,433.5,307.1,434.2
		 M311.7,460.8v-18.9h-5c0.2,1.8,0.2,4.2,0.2,7.2v11.8H311.7z M303,453c-0.3-0.6-0.7-1.2-1.1-1.6c-0.4-0.4-1-0.8-1.7-1.2
		c-0.8-0.4-1.4-0.7-1.9-0.9c-0.5-0.2-1.2-0.4-2.2-0.7c-0.5-0.2-0.9-0.3-1.2-0.4c-0.3-0.1-0.5-0.3-0.8-0.6c-0.3-0.3-0.4-0.6-0.4-1
		c0-1,0.9-1.5,2.6-1.5c1.6,0,3.2,0.5,4.8,1.5l1.5-3.7c-2.2-1.3-4.3-1.9-6.4-1.9c-2.2,0-4,0.5-5.3,1.5c-1.4,1-2,2.4-2,4.3
		c0,1.5,0.4,2.7,1.1,3.5c0.8,0.8,1.9,1.5,3.5,2.2c0.3,0.1,0.7,0.2,1.5,0.4c0.7,0.2,1.3,0.4,1.8,0.6s0.9,0.4,1.3,0.8
		c0.4,0.4,0.6,0.8,0.6,1.2c0,0.7-0.3,1.2-0.8,1.5s-1.2,0.5-2,0.5c-1.7,0-3.5-0.8-5.5-2.5l-2.1,3.3c1,1,2.2,1.8,3.7,2.4
		c1.5,0.6,2.8,1,4,1c2.2,0,3.9-0.6,5.3-1.7c1.4-1.1,2.1-2.7,2.1-4.8C303.4,454.3,303.3,453.6,303,453 M286.4,453
		c-0.3-0.6-0.7-1.2-1.1-1.6c-0.4-0.4-1-0.8-1.7-1.2c-0.8-0.4-1.4-0.7-1.9-0.9c-0.5-0.2-1.2-0.4-2.2-0.7c-0.5-0.2-0.9-0.3-1.2-0.4
		c-0.3-0.1-0.5-0.3-0.8-0.6c-0.3-0.3-0.4-0.6-0.4-1c0-1,0.9-1.5,2.6-1.5c1.6,0,3.2,0.5,4.8,1.5l1.5-3.7c-2.2-1.3-4.3-1.9-6.4-1.9
		c-2.2,0-4,0.5-5.3,1.5c-1.4,1-2,2.4-2,4.3c0,1.5,0.4,2.7,1.1,3.5c0.8,0.8,1.9,1.5,3.5,2.2c0.2,0.1,0.7,0.2,1.5,0.4
		c0.7,0.2,1.3,0.4,1.8,0.6c0.5,0.2,0.9,0.4,1.3,0.8c0.4,0.4,0.6,0.8,0.6,1.2c0,0.7-0.3,1.2-0.8,1.5s-1.2,0.5-2,0.5
		c-1.7,0-3.5-0.8-5.5-2.5l-2.1,3.3c1,1,2.2,1.8,3.7,2.4c1.5,0.6,2.8,1,4,1c2.2,0,3.9-0.6,5.3-1.7c1.4-1.1,2.1-2.7,2.1-4.8
		C286.8,454.3,286.7,453.6,286.4,453 M259.4,446.5c0.6-0.7,1.4-1.1,2.4-1.1c2.1,0,3.2,1.3,3.2,4h-6.5
		C258.5,448.2,258.8,447.3,259.4,446.5 M269.9,450.8c-0.1-1.9-0.4-3.5-0.9-4.9c-0.5-1.4-1.4-2.5-2.6-3.4c-1.2-0.9-2.8-1.3-4.6-1.3
		c-1.9,0-3.5,0.5-4.9,1.5c-1.3,1-2.3,2.3-2.8,3.8s-0.8,3.1-0.8,4.9c0,1.8,0.3,3.4,0.9,4.8c0.6,1.5,1.6,2.7,3,3.7
		c1.4,1,3.1,1.5,5.1,1.5c1.3,0,2.5-0.3,3.8-0.9c1.3-0.6,2.4-1.3,3.2-2.2l-1.9-3c-1.2,1.3-2.8,1.9-4.7,1.9c-2.6,0-4.1-1.3-4.4-3.9
		h11.5C269.9,452.6,269.9,451.7,269.9,450.8 M245.1,457.3c-1.3,0-2.3-0.5-3.1-1.6c-0.8-1.1-1.2-2.4-1.2-3.9c0-1.8,0.4-3.3,1.1-4.5
		c0.8-1.2,1.8-1.8,3.2-1.8c1.4,0,2.7,0.5,3.9,1.5l2.3-3.3c-1.8-1.6-3.9-2.5-6.5-2.5c-2.8,0-4.9,1-6.5,3c-1.6,2-2.4,4.4-2.4,7.2
		c0,3,0.8,5.4,2.4,7.3c1.6,1.9,3.7,2.8,6.4,2.8c3.1,0,5.5-1.1,7.3-3.3l-2.2-3C248.7,456.6,247.1,457.3,245.1,457.3 M229.6,460.8
		v-12.3c0.2-1.2,0.7-2.1,1.7-2.6c1-0.5,2.1-0.6,3.4-0.1l0.8-4.5c-2.5-0.5-4.5,0.2-5.9,1.9v-1.5h-4.9c0.2,2.1,0.2,4.2,0.2,6.2v13
		H229.6z M211.4,446.5c0.6-0.7,1.4-1.1,2.4-1.1c2.1,0,3.2,1.3,3.2,4h-6.5C210.4,448.2,210.7,447.3,211.4,446.5 M221.8,450.8
		c-0.1-1.9-0.4-3.5-0.9-4.9c-0.5-1.4-1.4-2.5-2.6-3.4c-1.2-0.9-2.8-1.3-4.6-1.3c-1.9,0-3.5,0.5-4.9,1.5c-1.3,1-2.3,2.3-2.8,3.8
		c-0.5,1.5-0.8,3.1-0.8,4.9c0,1.8,0.3,3.4,0.9,4.8c0.6,1.5,1.6,2.7,3,3.7c1.4,1,3.1,1.5,5.1,1.5c1.3,0,2.5-0.3,3.8-0.9
		c1.3-0.6,2.4-1.3,3.2-2.2l-1.9-3c-1.2,1.3-2.8,1.9-4.7,1.9c-2.6,0-4.1-1.3-4.4-3.9h11.5C221.9,452.6,221.9,451.7,221.8,450.8
		 M194.5,445.6v10.3c0,3.7,1.8,5.6,5.4,5.6c0.4,0,1-0.1,1.8-0.4c0.8-0.2,1.4-0.5,1.9-0.9l-0.7-3.2c-0.8,0.4-1.6,0.6-2.4,0.6
		c-0.9,0-1.4-0.6-1.4-1.9v-10h3.8v-4.2h-3.8v-7.1h-4.9c0.2,1.8,0.2,3.8,0.2,6v1.1h-2.9v4.2H194.5z M178.8,460.8v-13
		c0.1-0.7,0.4-1.3,1.1-1.7c0.7-0.4,1.3-0.7,1.9-0.7c0.9,0,1.7,0.3,2.2,1s0.8,1.6,0.8,2.9v11.5h4.7v-11.9c0-2.3-0.6-4.1-1.8-5.6
		c-1.2-1.4-2.9-2.2-5-2.2c-1.2,0-2.5,0.4-3.8,1.2v-0.9h-5c0.2,1.8,0.2,4.1,0.2,7v12.2H178.8z"/>
	<path class="st1" d="M169.3,460.8v-26.3h-5c0.2,1.8,0.2,4.2,0.2,7.2v19.1H169.3z"/>
</g>
<g id="Layer_2">
	<g>
		<g>
			<path d="M864.2,482H544.9c-1.1,0-2-0.9-2-2c0-1.1,0.9-2,2-2h319.2c1.1,0,2,0.9,2,2C866.2,481.1,865.3,482,864.2,482z"/>
		</g>
		<polygon points="529.6,499.1 541.6,480 529.6,461 534.6,461 546.6,480 534.6,499.1 		"/>
		<polygon points="537,499.1 549,480 537,461 542,461 554.1,480 542,499.1 		"/>
		<polygon points="544.4,499.1 556.4,480 544.4,461 549.5,461 561.5,480 549.5,499.1 		"/>
		<polygon points="551.8,499.1 563.8,480 551.8,461 556.9,461 568.9,480 556.9,499.1 		"/>
		<polygon points="559.2,499.1 571.3,480 559.2,461 564.3,461 576.3,480 564.3,499.1 		"/>
		<polygon points="566.7,499.1 578.7,480 566.7,461 571.7,461 583.7,480 571.7,499.1 		"/>
		<polygon points="574.1,499.1 586.1,480 574.1,461 579.1,461 591.2,480 579.1,499.1 		"/>
		<polygon points="581.5,499.1 593.5,480 581.5,461 586.6,461 598.6,480 586.6,499.1 		"/>
		<g>
			<polygon class="st2" points="850.4,493.2 893.2,480 853.1,480 			"/>
			<polygon class="st3" points="853.1,480 893.2,480 850.4,466.8 			"/>
		</g>
	</g>
	<g>
		<path d="M672.7,331.5c19.6,8.5,34.2,26.1,44.6,44.4c7.9,14,13.4,29.4,17.2,45c13.9,60.5,9,153.1-43.6,194.3
			c-5.7,4.3-11.8,8-18.5,10.1c3-1.8,5.8-3.8,8.4-6.1c42.7-38.2,47.4-106.4,44.7-160.3c-2.1-33.4-8.8-67.5-26.1-96.6
			C692.3,350.6,683.8,339.5,672.7,331.5L672.7,331.5z"/>
	</g>
	<line class="st4" x1="677.1" y1="334.2" x2="677.1" y2="623.2"/>
	<path class="st0" d="M870.7,450.7l2.1,9.1h2.2l2.6-11c0.2-0.7,0.4-1.4,0.6-2h-2.5c0,0.4-0.1,1-0.3,2l-1.6,7.8l-2.1-9.8h-1.9
		l-2.1,9.8l-1.6-7.8c-0.2-0.6-0.3-1.3-0.3-2h-2.5c0.3,0.9,0.5,1.6,0.6,2l2.6,11h2.3L870.7,450.7z"/>
	<polygon class="st0" points="783.2,458.6 783.2,469.7 785.4,469.7 785.4,458.6 788.8,458.6 788.8,456.6 779.8,456.6 779.8,458.6 	
		"/>
	<path class="st0" d="M684.5,539.1h6.6c0.4,0.1,0.7,0.3,1,0.6c0.2,0.4,0.4,0.7,0.4,1.1c0,0.5-0.2,0.9-0.5,1.2
		c-0.4,0.3-0.9,0.5-1.5,0.5h-5.9v2.1h6.1c1.1,0,2-0.3,2.7-0.9s1.1-1.5,1.1-2.5c0-0.7-0.3-1.4-0.8-2.1h4.2v-2.3
		c-0.9,0.1-2.1,0.1-3.5,0.1h-9.7V539.1z M686.1,532.3c0-0.7,0.3-1.2,0.8-1.7c0.6-0.4,1.2-0.6,2.1-0.6c1,0,1.7,0.2,2.4,0.6
		c0.6,0.4,0.9,1,0.9,1.7c0,0.7-0.2,1.4-0.7,2l1.5,1.1c0.8-0.8,1.2-1.9,1.2-3.2c0-1.4-0.5-2.4-1.5-3.2c-1-0.8-2.2-1.2-3.6-1.2
		c-1.5,0-2.7,0.4-3.6,1.2c-0.9,0.8-1.4,1.8-1.4,3.2c0,1.5,0.5,2.7,1.6,3.5l1.4-1C686.4,534.1,686.1,533.3,686.1,532.3 M684.5,524.5
		h6.1c0.6,0.1,1.1,0.4,1.4,0.9c0.3,0.5,0.3,1.1,0.1,1.7l2.1,0.4c0.1-0.6,0.1-1.2-0.1-1.7c-0.2-0.5-0.5-1-1-1.3h0.9v-2.3
		c-1.1,0.1-2.1,0.1-3,0.1h-6.5V524.5z M685,513.4c-0.6,0.5-0.9,1.3-0.9,2.4c0,0.9,0.3,1.7,1,2.4c-0.3,0-0.6,0.1-0.8,0.2v1.9
		c0.7-0.2,1.4-0.3,2.1-0.3h7.6v-2.3c-0.9,0.1-1.9,0.1-3.1,0.1h-2.6c-0.6,0-1.2-0.2-1.6-0.5c-0.5-0.3-0.7-0.7-0.7-1.2
		c0-0.5,0.1-0.9,0.4-1.1c0.3-0.2,0.8-0.3,1.4-0.3h6.2v-2.3c-0.9,0.1-1.9,0.1-3.1,0.1h-3.3C686.5,512.6,685.6,512.9,685,513.4
		 M684.5,505.1h6.6c0.4,0.1,0.7,0.3,1,0.6c0.2,0.4,0.4,0.7,0.4,1.1c0,0.5-0.2,0.9-0.5,1.2c-0.4,0.3-0.9,0.5-1.5,0.5h-5.9v2.1h6.1
		c1.1,0,2-0.3,2.7-0.9c0.7-0.6,1.1-1.5,1.1-2.5c0-0.7-0.3-1.4-0.8-2.1h4.2v-2.3c-0.9,0.1-2.1,0.1-3.5,0.1h-9.7V505.1z M686.2,497.5
		c0-1.2,0.4-2.1,1.3-2.7c0.9-0.6,2.1-0.9,3.5-0.9c1.3,0,2.5,0.3,3.4,0.9c1,0.6,1.4,1.5,1.4,2.6c0,0.5-0.1,0.9-0.3,1.3
		c-0.2,0.4-0.5,0.9-0.9,1.4l1.6,1.2c1-1.1,1.5-2.4,1.5-3.9c0-1.8-0.7-3.2-2-4.2c-1.3-1-3-1.5-4.9-1.5c-1.9,0-3.5,0.5-4.7,1.5
		c-1.2,1-1.8,2.4-1.8,4.2c0,1.5,0.5,2.9,1.6,4.1l1.6-1C686.6,499.5,686.2,498.6,686.2,497.5"/>
	<path class="st0" d="M557.7,444.4v-5.3h-2.3c0.1,0.9,0.1,2.1,0.1,3.5v9.6h2.2v-5.8h4.4v5.8h2.2v-13.1H562c0.1,0.9,0.1,2.1,0.1,3.5
		v1.8H557.7z"/>
	<path class="st0" d="M871.8,508.6v-13.1h-2.3c0.1,0.9,0.1,2.1,0.1,3.5v9.5H871.8z"/>
</g>
</svg>
