<?xml version="1.0" encoding="utf-8"?>
<!-- Generator: Adobe Illustrator 27.2.0, SVG Export Plug-In . SVG Version: 6.00 Build 0)  -->
<svg version="1.1" xmlns="http://www.w3.org/2000/svg" xmlns:xlink="http://www.w3.org/1999/xlink" x="0px" y="0px"
	 viewBox="0 0 1000 358.2" style="enable-background:new 0 0 1000 358.2;" xml:space="preserve">
<style type="text/css">
	.st0{fill:#FFFFFF;}
	.st1{fill:#E2746D;}
	.st2{fill:none;stroke:#FFFFFF;stroke-width:2.2665;stroke-miterlimit:10;}
</style>
<g id="Layer_1">
	<g>
		<g>
			<path class="st0" d="M939.4,21.6h6.7v-1.5h-6.7V21.6z M949.3,23.4h-12.9v1.6h12.9V23.4z M940.1,32.1c-0.7-0.5-1-1.1-1-1.9
				c0-0.8,0.3-1.4,1-1.9c0.7-0.5,1.6-0.7,2.7-0.7c1.1,0,2,0.2,2.7,0.7c0.7,0.5,1,1.1,1,1.9c0,0.8-0.3,1.4-1,1.9
				c-0.7,0.5-1.6,0.7-2.7,0.7C941.6,32.9,940.7,32.6,940.1,32.1 M954.6,42.3v-1.6h-13v-4.7h-2c0.1,1.5,0.2,3.1,0.2,4.7v1.6H954.6z
				 M953.8,36.8v-8.2h3.1v-1.6h-3.1v-7h-1.9c0.1,1.6,0.2,3.3,0.2,5v11.7H953.8z M946.8,33.2c1-0.8,1.5-1.7,1.5-2.9
				c0-1.2-0.5-2.2-1.5-3c-1-0.8-2.3-1.2-4-1.2c-1.7,0-3,0.4-4,1.2c-1,0.8-1.5,1.8-1.5,3c0,1.2,0.5,2.2,1.5,2.9c1,0.8,2.3,1.2,4,1.2
				C944.4,34.4,945.8,34,946.8,33.2 M916.6,21.6h6.7v-1.5h-6.7V21.6z M926.5,23.1h-12.9v1.5h12.9V23.1z M917.3,31.2
				c-0.7-0.4-1-1-1-1.7c0-0.7,0.3-1.3,1-1.7c0.7-0.4,1.6-0.6,2.7-0.6c1.1,0,2,0.2,2.7,0.6c0.7,0.4,1,1,1,1.7c0,0.7-0.3,1.3-1,1.7
				c-0.7,0.4-1.6,0.6-2.7,0.6C918.9,31.8,917.9,31.6,917.3,31.2 M931,34.2v-3.8h3v-1.5h-3v-3.4h3v-1.5h-3v-3.8h-1.9
				c0.1,1.6,0.2,3.3,0.2,5v9.1H931z M919.7,37c1-0.5,2.4-0.7,4.2-0.7c1.8,0,3.2,0.2,4.2,0.7c1,0.5,1.6,1.1,1.6,2
				c0,0.8-0.5,1.5-1.6,1.9c-1,0.5-2.4,0.7-4.2,0.7c-1.8,0-3.2-0.2-4.2-0.7c-1-0.5-1.6-1.1-1.6-2C918.2,38.1,918.7,37.5,919.7,37
				 M924,32.2c1-0.7,1.5-1.6,1.5-2.7c0-1.1-0.5-2.1-1.5-2.8c-1-0.7-2.3-1.1-4-1.1c-1.7,0-3,0.4-4,1.1c-1,0.7-1.5,1.6-1.5,2.8
				c0,1.1,0.5,2,1.5,2.7c1,0.7,2.3,1,4,1C921.7,33.3,923,32.9,924,32.2 M923.9,43.2c2.4,0,4.3-0.4,5.6-1.1c1.3-0.7,2-1.8,2-3.1
				c0-1.3-0.7-2.4-2-3.1c-1.3-0.8-3.2-1.1-5.6-1.1c-2.4,0-4.2,0.4-5.6,1.1c-1.3,0.8-2,1.8-2,3.1c0,1.3,0.7,2.3,2,3.1
				C919.6,42.8,921.5,43.2,923.9,43.2 M903.9,29.6h-20.8v1.5h20.8V29.6z M900.9,38.6v-5.3H886v1.5h13.1v2.3h-13.2
				c0.1,1.2,0.1,2.5,0.1,3.9v1.5h15.4V41h-13.5v-2.4H900.9z M899.2,26.7c1.4-0.7,2.1-1.6,2.1-2.8c0-1.2-0.7-2.2-2.1-2.9
				c-1.4-0.7-3.3-1-5.8-1s-4.4,0.3-5.8,1s-2.1,1.6-2.1,2.9c0,1.2,0.7,2.1,2.1,2.8c1.4,0.7,3.3,1,5.8,1
				C895.9,27.7,897.8,27.4,899.2,26.7 M889,25.7c-1.1-0.4-1.6-1-1.6-1.8c0-0.8,0.5-1.4,1.6-1.8c1.1-0.4,2.6-0.6,4.5-0.6
				c1.9,0,3.4,0.2,4.5,0.6c1.1,0.4,1.6,1,1.6,1.8c0,0.8-0.6,1.4-1.7,1.8c-1.1,0.4-2.6,0.6-4.4,0.6C891.6,26.3,890.1,26.1,889,25.7
				 M878.3,33.8v-6.7h3.2v-1.6h-3.2v-5.4h-1.9c0.1,1.6,0.2,3.3,0.2,5v8.6H878.3z M865.9,20.7c0.1,0.6,0.2,1.4,0.2,2.3
				c0,1.9-0.6,3.6-1.7,5c-1.1,1.4-2.6,2.6-4.5,3.4l1.3,1.2c1.3-0.6,2.5-1.4,3.6-2.5c1.1-1,1.8-2.2,2.3-3.5c0.5,1.2,1.3,2.2,2.5,3.1
				c1.1,0.9,2.2,1.6,3.3,2.1l1.1-1.4c-1.7-0.6-3.1-1.6-4.3-3c-1.2-1.4-1.7-3-1.7-4.8v-2H865.9z M871.2,35.6c1.7,0,3.1,0.3,4.2,0.8
				c1,0.5,1.6,1.3,1.6,2.3c0,0.9-0.5,1.6-1.6,2.2c-1,0.5-2.4,0.8-4.2,0.8c-1.8,0-3.2-0.3-4.2-0.8c-1-0.5-1.6-1.3-1.6-2.2
				c0-0.9,0.5-1.7,1.6-2.2C868,35.9,869.4,35.6,871.2,35.6 M865.6,42c1.3,0.8,3.2,1.2,5.6,1.2c2.4,0,4.3-0.4,5.6-1.2
				c1.3-0.8,2-1.9,2-3.3s-0.7-2.5-2-3.4c-1.3-0.8-3.2-1.3-5.6-1.3c-2.4,0-4.2,0.4-5.6,1.2c-1.3,0.8-2,1.9-2,3.3
				C863.6,40,864.3,41.2,865.6,42 M857.4,42.8V20.1h-1.9c0.1,1.3,0.2,2.9,0.2,4.8v17.9H857.4z M851.2,28.7v13h1.8V20.5H851
				c0.1,1.3,0.2,2.9,0.2,4.8v1.9h-3.9v1.5H851.2z M842.7,21.1c0.1,1.1,0.2,2.4,0.2,4c0,5.5-1.8,9.4-5.5,11.9l1.6,1.1
				c1.1-0.8,2-1.8,2.9-3.1c0.9-1.3,1.5-2.7,1.9-4.2c0.9,2.8,2.4,5,4.5,6.5l1.3-1.2c-1.6-1-2.8-2.4-3.6-4.3c-0.8-1.9-1.2-4.1-1.2-6.5
				v-4.2H842.7z M827.6,38.8c-0.3-0.4-0.7-0.7-1.3-0.7c-0.5,0-0.9,0.1-1.2,0.4c-0.3,0.3-0.5,0.6-0.6,1.1c-0.1,0.5,0,0.9,0.3,1.2
				c0.2,0.3,0.6,0.4,1,0.5c0.3,0,0.4,0.3,0.2,0.9c-0.1,0.4-0.3,0.8-0.6,1.2c-0.3,0.4-0.7,0.7-1,0.9l0.7,0.5c0.7-0.3,1.4-0.9,1.9-1.7
				c0.6-0.8,0.9-1.7,0.9-2.6C828,39.8,827.9,39.3,827.6,38.8 M811.1,35.3v0.5c0,1.4-0.9,2.6-2.6,3.6c-1.7,1-3.6,1.7-5.7,1.9l1.1,1.4
				c1.7-0.3,3.3-0.8,4.8-1.6c1.5-0.7,2.6-1.7,3.3-2.9c0.7,1.2,1.8,2.2,3.3,2.9c1.5,0.7,3.1,1.3,4.8,1.5l1.2-1.3
				c-1.2-0.1-2.5-0.5-3.7-0.9c-1.2-0.5-2.3-1.2-3.2-2c-0.9-0.8-1.3-1.7-1.3-2.6v-0.5H811.1z M811.1,32v2.6h1.8V32h9.5v-1.5h-20.8V32
				H811.1z M807.6,26.7c-1.1-0.5-1.6-1.3-1.6-2.2c0-0.9,0.5-1.7,1.6-2.2c1.1-0.5,2.6-0.8,4.4-0.8c1.9,0,3.3,0.3,4.4,0.8
				c1.1,0.5,1.7,1.3,1.7,2.2c0,1-0.6,1.7-1.7,2.2c-1.1,0.5-2.6,0.8-4.4,0.8C810.2,27.4,808.7,27.2,807.6,26.7 M817.8,27.7
				c1.4-0.8,2.1-1.9,2.1-3.2c0-1.4-0.7-2.4-2.1-3.2c-1.4-0.8-3.3-1.2-5.7-1.2c-2.4,0-4.3,0.4-5.7,1.2c-1.4,0.8-2.1,1.9-2.1,3.2
				c0,1.3,0.7,2.4,2.1,3.2c1.4,0.8,3.3,1.2,5.7,1.2C814.5,28.9,816.4,28.5,817.8,27.7 M797.8,42.8V20.1h-2c0.1,1.3,0.2,2.9,0.2,4.8
				v17.9H797.8z M783,24.2c0.7-1.3,1.6-1.9,2.8-1.9c1.2,0,2.1,0.6,2.8,1.9c0.7,1.2,1,3,1,5.1c0,2.2-0.3,3.9-1,5.1
				c-0.7,1.2-1.6,1.9-2.8,1.9c-1.2,0-2.1-0.6-2.8-1.9c-0.7-1.2-1-2.9-1-5.1C782,27.1,782.3,25.4,783,24.2 M781.8,35.7
				c1.1,1.3,2.4,2,4.1,2c1.6,0,2.9-0.7,4-2c1.1-1.3,1.6-3.5,1.6-6.4c0-3-0.5-5.1-1.6-6.5c-1.1-1.3-2.4-2-4-2c-1.7,0-3,0.7-4.1,2
				c-1.1,1.3-1.6,3.5-1.6,6.5C780.2,32.2,780.7,34.4,781.8,35.7 M754.3,41.9V27.1c0.1-0.9,0.5-1.6,1.3-2.1c0.8-0.5,1.5-0.7,2.2-0.7
				c1.1,0,2,0.4,2.6,1.1c0.6,0.8,0.9,1.8,0.9,3.2v13.3h5.3V28.2c0-2.5-0.7-4.6-2.1-6.2c-1.4-1.6-3.3-2.4-5.7-2.4
				c-1.5,0-3,0.5-4.4,1.5v-9h-5.6c0.2,2,0.2,4.7,0.2,8v21.8H754.3z M738.6,38c-1.4,0-2.6-0.6-3.5-1.8c-0.9-1.2-1.3-2.7-1.3-4.4
				c0-2,0.4-3.7,1.3-5c0.8-1.3,2.1-2,3.6-2c1.6,0,3.1,0.6,4.4,1.7l2.6-3.7c-2-1.8-4.4-2.8-7.3-2.8c-3.1,0-5.5,1.1-7.3,3.3
				c-1.8,2.2-2.7,4.9-2.7,8.1c0,3.3,0.9,6,2.7,8.2c1.8,2.1,4.2,3.2,7.2,3.2c3.5,0,6.2-1.2,8.2-3.7l-2.4-3.4
				C742.7,37.2,740.9,38,738.6,38 M708,35.8c0,2.2,0.7,3.9,2.1,5.1c1.4,1.2,3.2,1.9,5.4,1.9c2.2,0,4-0.6,5.4-1.9
				c0,0.4,0.1,0.8,0.2,1.3h4.8c-0.4-1.4-0.7-3-0.7-4.8v-9.7c0-2.5-0.7-4.4-2.2-5.7c-1.5-1.3-3.5-2-6-2c-4,0-6.9,1.5-8.9,4.5l3.3,3
				c0.7-1,1.5-1.7,2.6-2.1c1-0.4,2-0.7,3-0.7c2,0,3.1,1.1,3,3.4c-3.2,0.1-5.7,0.5-7.5,1.3C709.5,30.7,708,32.8,708,35.8 M720.1,32.4
				c-0.1,2-0.4,3.5-1,4.3c-0.6,0.9-1.8,1.3-3.5,1.3c-0.7,0-1.2-0.2-1.7-0.6c-0.4-0.4-0.6-0.9-0.6-1.7
				C713.3,33.6,715.5,32.5,720.1,32.4 M693.9,25.9c0.7-0.8,1.6-1.2,2.6-1.2c2.4,0,3.6,1.5,3.6,4.5h-7.3
				C692.9,27.8,693.2,26.7,693.9,25.9 M705.7,30.7c-0.1-2.1-0.4-3.9-1-5.4c-0.6-1.5-1.6-2.8-2.9-3.8c-1.4-1-3.1-1.5-5.2-1.5
				c-2.1,0-4,0.6-5.4,1.7c-1.5,1.1-2.5,2.5-3.1,4.2c-0.6,1.7-0.9,3.5-0.9,5.5c0,2,0.3,3.8,1,5.4c0.7,1.7,1.8,3,3.4,4.2
				c1.6,1.1,3.5,1.7,5.7,1.7c1.4,0,2.8-0.3,4.3-1c1.5-0.7,2.7-1.5,3.5-2.5l-2.1-3.4c-1.4,1.5-3.1,2.2-5.3,2.2c-2.9,0-4.6-1.5-5-4.4
				h12.9C705.7,32.7,705.7,31.7,705.7,30.7 M680,41.9V28c0.2-1.4,0.8-2.4,1.9-3c1.1-0.6,2.4-0.6,3.8-0.1l0.9-5.1
				c-2.8-0.5-5.1,0.2-6.7,2.2v-1.7h-5.5c0.2,2.4,0.3,4.7,0.3,7v14.6H680z"/>
			<path class="st1" d="M661.4,24.9v11.5c0,4.2,2,6.3,6.1,6.3c0.5,0,1.2-0.1,2-0.4c0.9-0.3,1.6-0.6,2.2-1l-0.8-3.6
				c-0.9,0.5-1.8,0.7-2.7,0.7c-1,0-1.6-0.7-1.6-2.2V24.9h4.3v-4.7h-4.3v-8h-5.5c0.2,2,0.3,4.2,0.3,6.7v1.3h-3.2v4.7H661.4z
				 M640.2,40.7c1.2,1.4,3.1,2.1,5.5,2.1c2,0,3.7-0.7,5.2-2.1c0,0.6,0.1,1.1,0.3,1.5h4.8c-0.3-1.7-0.5-3.3-0.5-4.8V20.2h-5.6
				c0.2,2,0.3,4.3,0.3,6.8v6.1c0,1.4-0.4,2.5-1.1,3.5c-0.7,0.9-1.5,1.4-2.4,1.4c-1,0-1.8-0.3-2.2-0.9c-0.5-0.6-0.7-1.6-0.7-3V20.2
				h-5.6c0.2,2,0.2,4.3,0.2,6.8v7.7C638.3,37.3,638.9,39.3,640.2,40.7 M631.6,16c-2.1-2.8-5-4.2-8.7-4.2s-6.6,1.4-8.6,4.2
				c-2,2.8-3.1,6.5-3.1,11.2c0,4.7,1,8.4,3.1,11.1c2.1,2.8,4.9,4.2,8.6,4.2c3.7,0,6.6-1.4,8.7-4.2c2.1-2.8,3.2-6.5,3.2-11.1
				C634.8,22.5,633.7,18.8,631.6,16 M618.1,19.6c1.1-2.1,2.7-3.1,4.8-3.1c2.1,0,3.8,1,4.9,3.1c1.1,2.1,1.7,4.6,1.7,7.6
				c0,3-0.6,5.5-1.7,7.5c-1.1,2.1-2.7,3.1-4.9,3.1c-1.5,0-2.7-0.5-3.7-1.6c-1-1-1.7-2.3-2.1-3.9c-0.4-1.5-0.6-3.3-0.6-5.2
				C616.5,24.2,617.1,21.7,618.1,19.6"/>
			<path class="st0" d="M555.8,23.2h3.3c-0.1,2.3-0.5,4.6-1.3,6.9c-0.7,2.3-1.9,4.4-3.5,6.3l1.6,0.7c1.7-2.1,2.9-4.5,3.7-7.2
				c0.8-2.7,1.3-5.5,1.3-8.3h-5.1V23.2z M574,42.8V20.1h-1.9c0.1,1.3,0.2,2.9,0.2,4.8v17.9H574z M561.7,23.2h2.3c0,2.5-0.3,5-1,7.5
				c-0.7,2.6-1.8,4.9-3.4,7l1.6,0.7c1.7-2.4,2.9-5.2,3.7-8.4h3.5v11.8h1.7V20.5h-1.9c0.1,1.3,0.2,2.9,0.2,4.8v3.1h-3.1
				c0.4-2.1,0.6-4.3,0.6-6.7h-4.1V23.2z M535.7,21.6h6.7v-1.5h-6.7V21.6z M545.6,23.1h-12.9v1.5h12.9V23.1z M536.4,31.2
				c-0.7-0.4-1-1-1-1.7c0-0.7,0.3-1.3,1-1.7c0.7-0.4,1.6-0.6,2.7-0.6c1.1,0,2,0.2,2.7,0.6c0.7,0.4,1,1,1,1.7c0,0.7-0.3,1.3-1,1.7
				c-0.7,0.4-1.6,0.6-2.7,0.6C538,31.8,537.1,31.6,536.4,31.2 M550.2,33.8v-5.9h3.2v-1.6h-3.2v-6.1h-1.9c0.1,1.6,0.2,3.3,0.2,5v8.6
				H550.2z M548.4,40.9h-10.4v-4.3h10.4V40.9z M543.2,32.2c1-0.7,1.5-1.6,1.5-2.7c0-1.1-0.5-2.1-1.5-2.8c-1-0.7-2.3-1.1-4-1.1
				c-1.7,0-3,0.4-4,1.1c-1,0.7-1.5,1.6-1.5,2.8c0,1.1,0.5,2,1.5,2.7c1,0.7,2.3,1,4,1C540.8,33.3,542.2,32.9,543.2,32.2 M550.2,42.4
				v-7.3H536c0.1,1.4,0.2,3,0.2,4.9v2.4H550.2z M519.8,42.8V31h3.3v-1.6h-3.3v-9.2h-2c0.1,1.3,0.2,2.9,0.2,4.8v17.9H519.8z
				 M509.1,22.3c1.2,0,2.2,0.4,2.9,1.2c0.7,0.8,1.1,1.8,1.1,2.9c0,1.2-0.4,2.1-1.1,2.9c-0.7,0.8-1.7,1.2-2.9,1.2
				c-1.2,0-2.2-0.4-2.9-1.2c-0.7-0.8-1.1-1.8-1.1-2.9c0-1.2,0.4-2.1,1.1-2.9C506.9,22.7,507.9,22.3,509.1,22.3 M504.7,30.1
				c0.9,1,2.1,1.7,3.6,1.9v4.4c-0.5,0-1.2,0-2.1,0h-4v1.6h3.9c4.1,0,7.7-0.2,11-0.7v-1.5c-1.6,0.3-3.9,0.5-6.9,0.6V32
				c1.4-0.2,2.6-0.9,3.5-1.9c0.9-1,1.4-2.3,1.4-3.7c0-1.6-0.5-2.9-1.6-4c-1.1-1.1-2.5-1.7-4.1-1.7c-1.7,0-3.1,0.5-4.2,1.6
				c-1.1,1.1-1.6,2.4-1.6,4C503.3,27.8,503.8,29,504.7,30.1 M500.2,39.8v-1.5h-9.5v-6h7.1v-1.5h-13.7V23h13.4v-1.5h-15.4
				c0.1,1.6,0.2,3.2,0.2,5v5.8h6.5v6h-9.5v1.5H500.2z M473.9,26v7.6h1.8V20.1h-1.9c0.1,1.5,0.1,3,0.2,4.4h-5.1V26H473.9z
				 M462.8,20.7c0.1,0.6,0.2,1.4,0.2,2.3c0,1.9-0.6,3.6-1.8,5.1c-1.2,1.5-2.7,2.6-4.5,3.4l1.4,1.2c1.2-0.6,2.4-1.4,3.5-2.4
				c1.1-1,1.9-2.2,2.3-3.4c0.6,1.1,1.4,2.2,2.5,3.1c1.1,0.9,2.2,1.6,3.4,2l1.1-1.4c-1.7-0.6-3.1-1.5-4.3-2.9c-1.2-1.4-1.8-3-1.8-4.9
				v-2.1H462.8z M468.4,35.6c1.8,0,3.2,0.3,4.2,0.8c1.1,0.6,1.6,1.3,1.6,2.2c0,0.9-0.5,1.6-1.6,2.2c-1.1,0.5-2.5,0.8-4.2,0.8
				c-1.8,0-3.2-0.3-4.2-0.8c-1.1-0.5-1.6-1.3-1.6-2.2c0-0.9,0.5-1.7,1.6-2.2C465.2,35.9,466.6,35.6,468.4,35.6 M468.4,43.2
				c2.4,0,4.3-0.4,5.7-1.2c1.4-0.8,2-1.9,2-3.3s-0.7-2.5-2.1-3.4c-1.4-0.8-3.3-1.3-5.6-1.3c-2.4,0-4.2,0.4-5.6,1.2
				c-1.4,0.8-2.1,1.9-2.1,3.3c0,1.4,0.7,2.5,2,3.3C464.1,42.8,466,43.2,468.4,43.2 M432.1,41.9V27.1c0.1-0.9,0.5-1.6,1.3-2.1
				c0.8-0.5,1.5-0.7,2.2-0.7c1.1,0,2,0.4,2.6,1.1c0.6,0.8,0.9,1.8,0.9,3.2v13.3h5.3V28.2c0-2.5-0.7-4.6-2.1-6.2
				c-1.4-1.6-3.3-2.4-5.7-2.4c-1.5,0-3,0.5-4.4,1.5v-9h-5.6c0.2,2,0.2,4.7,0.2,8v21.8H432.1z M416.4,38c-1.4,0-2.6-0.6-3.5-1.8
				c-0.9-1.2-1.3-2.7-1.3-4.4c0-2,0.4-3.7,1.3-5c0.8-1.3,2.1-2,3.6-2c1.6,0,3.1,0.6,4.4,1.7l2.6-3.7c-2-1.8-4.4-2.8-7.3-2.8
				c-3.1,0-5.5,1.1-7.3,3.3c-1.8,2.2-2.7,4.9-2.7,8.1c0,3.3,0.9,6,2.7,8.2c1.8,2.1,4.2,3.2,7.2,3.2c3.5,0,6.2-1.2,8.2-3.7l-2.4-3.4
				C420.5,37.2,418.7,38,416.4,38 M385.8,35.8c0,2.2,0.7,3.9,2.1,5.1c1.4,1.2,3.2,1.9,5.4,1.9c2.2,0,4-0.6,5.4-1.9
				c0,0.4,0.1,0.8,0.2,1.3h4.8c-0.4-1.4-0.7-3-0.7-4.8v-9.7c0-2.5-0.7-4.4-2.2-5.7c-1.5-1.3-3.5-2-6-2c-4,0-6.9,1.5-8.9,4.5l3.3,3
				c0.7-1,1.5-1.7,2.6-2.1c1-0.4,2-0.7,3-0.7c2,0,3.1,1.1,3,3.4c-3.2,0.1-5.7,0.5-7.5,1.3C387.3,30.7,385.8,32.8,385.8,35.8
				 M397.9,32.4c-0.1,2-0.4,3.5-1,4.3c-0.6,0.9-1.8,1.3-3.5,1.3c-0.7,0-1.2-0.2-1.7-0.6c-0.4-0.4-0.6-0.9-0.6-1.7
				C391.1,33.6,393.3,32.5,397.9,32.4 M371.7,25.9c0.7-0.8,1.6-1.2,2.6-1.2c2.4,0,3.6,1.5,3.6,4.5h-7.3
				C370.7,27.8,371,26.7,371.7,25.9 M383.5,30.7c-0.1-2.1-0.4-3.9-1-5.4c-0.6-1.5-1.6-2.8-2.9-3.8c-1.4-1-3.1-1.5-5.2-1.5
				c-2.1,0-4,0.6-5.4,1.7c-1.5,1.1-2.5,2.5-3.1,4.2c-0.6,1.7-0.9,3.5-0.9,5.5c0,2,0.3,3.8,1,5.4c0.7,1.7,1.8,3,3.4,4.2
				c1.6,1.1,3.5,1.7,5.7,1.7c1.4,0,2.8-0.3,4.3-1c1.5-0.7,2.7-1.5,3.5-2.5l-2.1-3.4c-1.4,1.5-3.1,2.2-5.3,2.2c-2.9,0-4.6-1.5-5-4.4
				h12.9C383.5,32.7,383.5,31.7,383.5,30.7 M357.8,41.9V28c0.2-1.4,0.8-2.4,1.9-3c1.1-0.6,2.4-0.6,3.8-0.1l0.9-5.1
				c-2.8-0.5-5.1,0.2-6.7,2.2v-1.7h-5.5c0.2,2.4,0.3,4.7,0.3,7v14.6H357.8z"/>
			<path class="st1" d="M336.2,41.9V27.3c0.1-0.8,0.5-1.4,1.2-1.9c0.8-0.5,1.5-0.7,2.1-0.7c1,0,1.9,0.4,2.4,1.1
				c0.6,0.8,0.8,1.8,0.8,3.2v12.9h5.3V28.6c0-2.6-0.7-4.6-2-6.3c-1.4-1.6-3.2-2.4-5.6-2.4c-1.4,0-2.8,0.4-4.3,1.3v-1h-5.6
				c0.2,2,0.3,4.6,0.3,7.9v13.7H336.2z M325.6,41.9V12.4H320c0.2,2,0.3,4.7,0.3,8.1v21.4H325.6z"/>
			<path class="st0" d="M263.3,23.2h3.3c-0.1,2.3-0.5,4.6-1.3,6.9c-0.7,2.3-1.9,4.4-3.5,6.3l1.6,0.7c1.7-2.1,2.9-4.5,3.7-7.2
				c0.8-2.7,1.3-5.5,1.3-8.3h-5.1V23.2z M281.5,42.8V20.1h-1.9c0.1,1.3,0.2,2.9,0.2,4.8v17.9H281.5z M269.2,23.2h2.3
				c0,2.5-0.3,5-1,7.5c-0.7,2.6-1.8,4.9-3.4,7l1.6,0.7c1.7-2.4,2.9-5.2,3.7-8.4h3.5v11.8h1.7V20.5h-1.9c0.1,1.3,0.2,2.9,0.2,4.8v3.1
				h-3.1c0.4-2.1,0.6-4.3,0.6-6.7h-4.1V23.2z M245.9,30.4c1.1,0,2.6-0.1,4.4-0.2c1.8-0.1,3.3-0.3,4.4-0.6V28
				c-2.4,0.5-5.3,0.8-8.6,0.8h-3.2v-8h-2c0.1,1.4,0.2,2.7,0.2,3.9v5.7H245.9z M257.9,32.5V20.1h-1.9c0.1,1.6,0.2,3.3,0.2,5v7.4
				H257.9z M256.1,40.9h-10.9v-5.5h10.9V40.9z M257.9,42.4v-8.5h-14.6c0.1,1.4,0.2,3,0.2,4.9v3.6H257.9z M222.9,36.8
				c3,0,5.8-0.3,8.3-0.9v-1.6c-2.4,0.6-5.1,0.8-8.1,0.8h-2.8V21.1h-2c0.1,1.4,0.2,3.1,0.2,5v10.7H222.9z M234.5,42.8V30.2h3.5v-1.6
				h-3.5v-8.5h-2c0.1,1.3,0.2,2.9,0.2,4.8v17.9H234.5z M198.1,22.1h6.8v-1.5h-6.8V22.1z M195,25.8h13v-1.5h-13V25.8z M212.4,42.8V31
				h3.5v-1.6h-3.5v-9.3h-2c0.1,1.3,0.2,2.9,0.2,4.8v17.9H212.4z M205.2,33.2c0,1.2-0.3,2.1-1,2.8c-0.7,0.7-1.6,1.1-2.7,1.1
				c-1.2,0-2.1-0.4-2.7-1.1c-0.7-0.7-1-1.6-1-2.8c0-1.2,0.3-2.1,1-2.8c0.7-0.7,1.6-1,2.7-1c1.2,0,2.1,0.3,2.7,1
				C204.9,31.1,205.2,32,205.2,33.2 M196,33.2c0,1.6,0.5,2.9,1.5,3.9c1,1,2.4,1.5,4,1.5c1.6,0,2.9-0.5,4-1.5c1-1,1.5-2.3,1.5-3.9
				c0-1.6-0.5-2.9-1.5-3.9c-1-1-2.3-1.5-4-1.5c-1.7,0-3,0.5-4,1.5C196.5,30.3,196,31.6,196,33.2 M169.6,41.9V27.1
				c0.1-0.9,0.5-1.6,1.3-2.1c0.8-0.5,1.5-0.7,2.2-0.7c1.1,0,2,0.4,2.6,1.1c0.6,0.8,0.9,1.8,0.9,3.2v13.3h5.3V28.2
				c0-2.5-0.7-4.6-2.1-6.2c-1.4-1.6-3.3-2.4-5.7-2.4c-1.5,0-3,0.5-4.4,1.5v-9H164c0.2,2,0.2,4.7,0.2,8v21.8H169.6z M153.9,38
				c-1.4,0-2.6-0.6-3.5-1.8c-0.9-1.2-1.3-2.7-1.3-4.4c0-2,0.4-3.7,1.3-5c0.8-1.3,2.1-2,3.6-2c1.6,0,3.1,0.6,4.4,1.7l2.6-3.7
				c-2-1.8-4.4-2.8-7.3-2.8c-3.1,0-5.5,1.1-7.3,3.3c-1.8,2.2-2.7,4.9-2.7,8.1c0,3.3,0.9,6,2.7,8.2c1.8,2.1,4.2,3.2,7.2,3.2
				c3.5,0,6.2-1.2,8.2-3.7l-2.4-3.4C158,37.2,156.2,38,153.9,38 M123.2,35.8c0,2.2,0.7,3.9,2.1,5.1c1.4,1.2,3.2,1.9,5.4,1.9
				c2.2,0,4-0.6,5.4-1.9c0,0.4,0.1,0.8,0.2,1.3h4.8c-0.4-1.4-0.7-3-0.7-4.8v-9.7c0-2.5-0.7-4.4-2.2-5.7c-1.5-1.3-3.5-2-6-2
				c-4,0-6.9,1.5-8.9,4.5l3.3,3c0.7-1,1.5-1.7,2.6-2.1c1-0.4,2-0.7,3-0.7c2,0,3.1,1.1,3,3.4c-3.2,0.1-5.7,0.5-7.5,1.3
				C124.7,30.7,123.2,32.8,123.2,35.8 M135.3,32.4c-0.1,2-0.4,3.5-1,4.3c-0.6,0.9-1.8,1.3-3.5,1.3c-0.7,0-1.2-0.2-1.7-0.6
				c-0.4-0.4-0.6-0.9-0.6-1.7C128.5,33.6,130.8,32.5,135.3,32.4 M109.2,25.9c0.7-0.8,1.6-1.2,2.6-1.2c2.4,0,3.6,1.5,3.6,4.5h-7.3
				C108.1,27.8,108.5,26.7,109.2,25.9 M120.9,30.7c-0.1-2.1-0.4-3.9-1-5.4c-0.6-1.5-1.6-2.8-2.9-3.8c-1.4-1-3.1-1.5-5.2-1.5
				c-2.1,0-4,0.6-5.4,1.7c-1.5,1.1-2.5,2.5-3.1,4.2c-0.6,1.7-0.9,3.5-0.9,5.5c0,2,0.3,3.8,1,5.4c0.7,1.7,1.8,3,3.4,4.2
				c1.6,1.1,3.5,1.7,5.7,1.7c1.4,0,2.8-0.3,4.3-1c1.5-0.7,2.7-1.5,3.5-2.5l-2.1-3.4c-1.4,1.5-3.1,2.2-5.3,2.2c-2.9,0-4.6-1.5-5-4.4
				h12.9C121,32.7,121,31.7,120.9,30.7 M95.3,41.9V28c0.2-1.4,0.8-2.4,1.9-3c1.1-0.6,2.4-0.6,3.8-0.1l0.9-5.1
				c-2.8-0.5-5.1,0.2-6.7,2.2v-1.7h-5.5c0.2,2.4,0.3,4.7,0.3,7v14.6H95.3z"/>
			<path class="st1" d="M72.9,48.1v-7.5c1.4,0.9,2.9,1.3,4.5,1.3c3,0,5.3-1.1,6.8-3.2c1.5-2.1,2.3-4.8,2.3-7.9
				c0-3.1-0.7-5.8-2.2-7.8c-1.5-2.1-3.7-3.1-6.8-3.1c-1.7,0-3.2,0.6-4.5,1.7v-1.3h-5.5c0.2,2.1,0.3,4.4,0.3,6.9v20.9H72.9z
				 M81.1,30.6c0,1.9-0.3,3.4-0.9,4.7c-0.6,1.3-1.6,1.9-2.9,1.9c-1.5,0-2.6-0.6-3.3-1.8c-0.7-1.2-1-2.8-1-4.8c0-1.8,0.3-3.2,1-4.3
				c0.7-1.1,1.7-1.7,3.1-1.7c1.4,0,2.4,0.6,3.1,1.7C80.7,27.3,81.1,28.8,81.1,30.6 M53.2,37.8c-2.9,0-4.5-2.1-4.6-6.3v-19H43
				c0.2,2,0.2,4.7,0.2,8v10.7c0,3.5,0.8,6.2,2.4,8.3c1.6,2.1,4.1,3.1,7.5,3.1c3.4,0,5.9-1,7.5-3.1s2.4-4.8,2.5-8.3V12.4h-5.5
				c0.2,2,0.3,4.7,0.3,8v11C57.8,35.7,56.2,37.8,53.2,37.8"/>
		</g>
		<path class="st0" d="M184.4,79.4h2.7v4.7h-2.7V79.4z M189.6,86.4V72.5h-2.5v4.7h-2.7v-4.7h-2.6c0.1,1.3,0.2,2.8,0.2,4.5v9.4H189.6
			z M193.6,90.4v-10h1.6v10.9h2.5V71.4h-2.6c0.1,1.2,0.2,2.7,0.2,4.5v2h-1.6v-6.2H191c0.1,1.2,0.2,2.7,0.2,4.5v14.2H193.6z
			 M170.2,77.8h1.8v3.3h-1.8c0-0.5,0.1-1,0.1-1.6C170.3,79.1,170.3,78.6,170.2,77.8 M164.5,75.7c0.4-0.9,0.8-1.4,1.4-1.4
			c0.6,0,1,0.5,1.4,1.4c0.3,0.9,0.5,2.2,0.5,3.9c0,1.7-0.2,3-0.5,3.9c-0.3,0.9-0.8,1.4-1.4,1.4c-0.6,0-1.1-0.5-1.4-1.4
			c-0.4-0.9-0.5-2.2-0.5-3.9C163.9,77.9,164.1,76.6,164.5,75.7 M178.2,91.3V71.4h-2.6c0.1,1.2,0.2,2.7,0.2,4.5v15.4H178.2z
			 M162.8,85.3c0.8,1.2,1.9,1.8,3.2,1.8c0.9,0,1.6-0.3,2.3-0.9c0.7-0.6,1.2-1.5,1.6-2.7h2.2v7h2.5V71.8h-2.6c0.1,0.7,0.1,2,0.2,3.7
			h-2.2c-0.4-1.2-0.9-2-1.6-2.6c-0.7-0.5-1.4-0.8-2.2-0.8c-0.6,0-1.2,0.1-1.7,0.4c-0.5,0.2-1,0.6-1.4,1.2c-0.4,0.5-0.8,1.3-1,2.3
			c-0.2,1-0.4,2.2-0.4,3.6C161.5,82.2,161.9,84.1,162.8,85.3"/>
		<path class="st0" d="M540.7,72.8h6.2v-1.4h-6.2V72.8z M549.8,74.6H538V76h11.8V74.6z M541.4,82.7c-0.6-0.4-0.9-1-0.9-1.7
			c0-0.7,0.3-1.3,0.9-1.7c0.6-0.4,1.5-0.6,2.5-0.6c1,0,1.9,0.2,2.5,0.6c0.6,0.4,0.9,1,0.9,1.7c0,0.7-0.3,1.3-0.9,1.7
			c-0.6,0.4-1.4,0.6-2.5,0.6C542.9,83.3,542,83.1,541.4,82.7 M554.4,92.6V70.9h-1.9c0.1,1.3,0.2,2.8,0.2,4.6v17.1H554.4z
			 M541.1,88.4c3.9,0,7.4-0.2,10.5-0.7v-1.5c-1.5,0.3-3.8,0.4-6.8,0.6v-2.2c1.3-0.1,2.3-0.5,3-1.2c0.8-0.7,1.1-1.5,1.1-2.5
			c0-1.1-0.5-2-1.4-2.7c-0.9-0.7-2.1-1-3.7-1c-1.5,0-2.8,0.3-3.7,1s-1.4,1.6-1.4,2.7c0,1,0.4,1.8,1.1,2.5c0.8,0.6,1.8,1,3.1,1.2v2.3
			c-0.4,0-1.1,0-1.8,0h-4.4v1.5H541.1z M525.2,71.8H516v1.5h7.5v3.7h-7.6c0.1,1.6,0.2,2.8,0.2,3.8v2.8h3.8c1.1,0,2.4-0.1,4.1-0.2
			c1.7-0.2,3.1-0.3,4.3-0.5v-1.4c-2.5,0.5-5.3,0.7-8.2,0.7h-2.3v-3.6h7.5V71.8z M530.5,79.5v7.4h1.7v-16h-1.9
			c0.1,1.4,0.1,2.3,0.1,2.8h-3.8v1.5h3.9V78h-3.9v1.5H530.5z M532.7,92.1v-1.5h-12.7v-4.8h-1.9c0.1,1.4,0.2,2.9,0.2,4.5v1.8H532.7z
			 M501.8,71.4c0.1,0.3,0.1,0.8,0.1,1.4c0,1.4-0.8,2.7-2.3,3.9c-1.5,1.2-3.4,2-5.8,2.5l1.2,1.3c1.5-0.3,3-0.9,4.5-1.8
			c1.5-0.8,2.6-2,3.3-3.4c0.5,1,1.3,1.9,2.3,2.7c1,0.8,2,1.3,2.9,1.7c0.9,0.4,1.8,0.6,2.7,0.8l1-1.2c-2.3-0.5-4.2-1.3-5.7-2.6
			c-1.5-1.2-2.2-2.5-2.2-3.8v-1.4H501.8z M501.9,84.5v8.1h1.7v-8.1h9.1V83h-19.9v1.5H501.9z M482.9,88.8c-0.3-0.4-0.7-0.6-1.2-0.7
			c-0.4,0-0.8,0.1-1.2,0.3c-0.3,0.3-0.5,0.6-0.5,1.1c0,0.5,0,0.9,0.3,1.1c0.2,0.3,0.6,0.4,0.9,0.5c0.3,0,0.4,0.3,0.2,0.8
			c-0.1,0.4-0.3,0.7-0.6,1.1c-0.3,0.4-0.6,0.6-1,0.8l0.7,0.5c0.7-0.3,1.3-0.8,1.8-1.6c0.5-0.7,0.8-1.6,0.9-2.5
			C483.3,89.7,483.2,89.2,482.9,88.8 M462.7,72.8h6.2v-1.4h-6.2V72.8z M471.8,74.6H460V76h11.8V74.6z M463.5,82.7
			c-0.6-0.4-0.9-1-0.9-1.7c0-0.7,0.3-1.3,0.9-1.7c0.6-0.4,1.5-0.6,2.5-0.6c1,0,1.9,0.2,2.5,0.6c0.6,0.4,0.9,1,0.9,1.7
			c0,0.7-0.3,1.3-0.9,1.7c-0.6,0.4-1.4,0.6-2.5,0.6C464.9,83.3,464.1,83.1,463.5,82.7 M476.4,92.6V70.9h-1.9
			c0.1,1.3,0.2,2.8,0.2,4.6v17.1H476.4z M463.2,88.4c3.9,0,7.4-0.2,10.5-0.7v-1.5c-1.5,0.3-3.8,0.4-6.8,0.6v-2.2
			c1.3-0.1,2.3-0.5,3-1.2c0.8-0.7,1.1-1.5,1.1-2.5c0-1.1-0.5-2-1.4-2.7c-0.9-0.7-2.1-1-3.7-1c-1.5,0-2.8,0.3-3.7,1
			c-0.9,0.7-1.4,1.6-1.4,2.7c0,1,0.4,1.8,1.1,2.5c0.8,0.6,1.8,1,3.1,1.2v2.3c-0.4,0-1.1,0-1.8,0h-4.4v1.5H463.2z M456.4,89.7v-1.5
			h-9.1v-5.8h6.8V81H441v-7.4h12.8v-1.5h-14.7c0.1,1.5,0.2,3.1,0.2,4.8v5.5h6.3v5.8h-9.1v1.5H456.4z M416.7,73.7h7.8
			c-0.1,2.7-1,5.2-2.6,7.6c-1.6,2.4-3.8,4.2-6.6,5.6l1.4,1.1c3-1.6,5.4-3.8,7-6.6c1.7-2.8,2.6-5.9,2.6-9.1h-9.7V73.7z M432.9,92.6
			V70.9H431c0.1,1.3,0.2,2.8,0.2,4.6v17.1H432.9z M413.3,89.7v-1.5h-4.8v-4.6h-1.8c0.1,1.1,0.1,2.4,0.1,4v0.6h-6.8v-4.6h-1.8
			c0.1,1.1,0.1,2.4,0.1,4v0.6h-4.8v1.5H413.3z M399.1,80.5c-1-0.8-1.5-1.9-1.5-3.3c0-1.4,0.5-2.5,1.5-3.2c1-0.8,2.4-1.2,4.2-1.2
			c1.8,0,3.2,0.4,4.2,1.2c1,0.8,1.5,1.8,1.5,3.2c0,1.4-0.5,2.5-1.6,3.3c-1,0.8-2.4,1.2-4.2,1.2C401.5,81.7,400.1,81.3,399.1,80.5
			 M408.8,81.5c1.3-1,2-2.4,2-4.2c0-1.8-0.7-3.2-2-4.3c-1.3-1.1-3.2-1.6-5.4-1.6c-2.3,0-4.1,0.5-5.4,1.6c-1.3,1.1-2,2.5-2,4.3
			c0,1.8,0.7,3.2,2,4.2c1.3,1,3.1,1.6,5.4,1.6C405.6,83.1,407.4,82.6,408.8,81.5 M380.7,71.4c0.1,0.3,0.1,0.8,0.1,1.4
			c0,1.4-0.8,2.7-2.3,3.9c-1.5,1.2-3.4,2-5.8,2.5l1.2,1.3c1.5-0.3,3-0.9,4.5-1.8c1.5-0.8,2.6-2,3.3-3.4c0.5,1,1.3,1.9,2.3,2.7
			c1,0.8,2,1.3,2.9,1.7c0.9,0.4,1.8,0.6,2.7,0.8l1-1.2c-2.3-0.5-4.2-1.3-5.7-2.6c-1.5-1.2-2.2-2.5-2.2-3.8v-1.4H380.7z M380.9,84.5
			v8.1h1.7v-8.1h9.1V83h-19.9v1.5H380.9z M361.8,88.8c-0.3-0.4-0.7-0.6-1.2-0.7c-0.4,0-0.8,0.1-1.2,0.3c-0.3,0.3-0.5,0.6-0.5,1.1
			c0,0.5,0,0.9,0.3,1.1c0.2,0.3,0.5,0.4,0.9,0.5c0.3,0,0.4,0.3,0.2,0.8c-0.1,0.4-0.3,0.7-0.6,1.1c-0.3,0.4-0.6,0.6-1,0.8l0.7,0.5
			c0.7-0.3,1.3-0.8,1.9-1.6c0.5-0.7,0.8-1.6,0.9-2.5C362.2,89.7,362.1,89.2,361.8,88.8 M339.9,79.1h4.7v6.5h-4.7V79.1z M350.5,91.6
			V80h3v12.6h1.7V70.9h-1.9c0.1,1.3,0.2,2.8,0.2,4.6v3h-3v-7.3h-1.9c0.1,1.3,0.2,2.8,0.2,4.6v15.7H350.5z M346.2,87V72.1h-1.7v5.5
			h-4.7v-5.5h-1.8c0.1,1.4,0.2,3,0.2,4.8V87H346.2z M325,77.2h2.9V82H325c0.1-0.7,0.1-1.5,0.1-2.3C325.1,78.8,325.1,77.9,325,77.2
			 M333.7,92.6V70.9h-1.9c0.1,1.3,0.2,2.8,0.2,4.6v17.1H333.7z M318.3,74.8c0.6-1.2,1.3-1.8,2.2-1.8c0.9,0,1.6,0.6,2.2,1.8
			s0.8,2.8,0.8,4.9s-0.3,3.7-0.8,4.9s-1.3,1.8-2.2,1.8c-0.9,0-1.7-0.6-2.2-1.8c-0.6-1.2-0.8-2.8-0.8-4.9
			C317.5,77.6,317.7,76,318.3,74.8 M317.2,85.8c0.9,1.3,2,1.9,3.3,1.9c0.9,0,1.8-0.3,2.5-1c0.8-0.7,1.3-1.8,1.7-3.2h3.2v8.1h1.7
			V71.2h-1.9c0.1,1.4,0.2,2.9,0.2,4.4h-3.3c-0.4-1.4-0.9-2.4-1.7-3.1c-0.7-0.7-1.6-1-2.5-1c-1.4,0-2.5,0.6-3.4,1.9
			c-0.9,1.3-1.3,3.3-1.3,6.2C315.8,82.5,316.3,84.5,317.2,85.8 M309.8,74.5v2.4h-5.9v1.5h5.9v8.5h1.7v-16h-1.9
			c0,0.5,0.1,1.2,0.1,2.1h-5.9v1.5H309.8z M299.3,82.8c1.1,0,2.5-0.1,4.2-0.2c1.7-0.1,3.1-0.3,4.2-0.5v-1.5c-2.3,0.5-5,0.7-8.2,0.7
			h-2.4v-9.7h-1.9c0.1,1.4,0.2,2.6,0.2,3.7v7.5H299.3z M312,92.1v-1.5h-12.6v-5.1h-1.9c0.1,1.4,0.2,2.9,0.2,4.5v2.1H312z
			 M276.2,72.3h6.2v-1.5h-6.2V72.3z M288.9,78.7v5.7h1.7V70.9h-1.9c0.1,1.6,0.1,3.2,0.1,4.8v1.5h-4v1.5H288.9z M278.3,75.7
			c-0.1,1.5-0.6,2.8-1.7,4c-1.1,1.2-2.5,2.2-4.1,2.9l1.2,1.1c2.7-1.3,4.6-3.1,5.5-5.4c0.6,1,1.4,1.9,2.4,2.8c1,0.8,2.1,1.5,3.1,1.8
			l1-1.2c-1.5-0.5-2.9-1.4-4-2.5c-1.1-1.1-1.7-2.3-1.7-3.6h4.6v-1.4h-10.8v1.4H278.3z M283.7,86.1c1.7,0,3,0.2,4.1,0.7
			c1,0.5,1.6,1.2,1.6,2c0,0.8-0.5,1.5-1.6,1.9s-2.4,0.7-4.1,0.7c-1.7,0-3.1-0.2-4.1-0.7c-1-0.5-1.5-1.1-1.5-2c0-0.8,0.5-1.5,1.5-2
			C280.6,86.3,282,86.1,283.7,86.1 M278.2,91.9c1.3,0.7,3.1,1.1,5.4,1.1c2.3,0,4.1-0.4,5.4-1.1c1.3-0.7,2-1.7,2-3
			c0-1.3-0.7-2.3-2-3.1c-1.3-0.8-3.1-1.1-5.4-1.1c-2.3,0-4.1,0.4-5.4,1.1c-1.3,0.8-2,1.8-2,3.1C276.3,90.1,276.9,91.1,278.2,91.9
			 M249.9,72.6c1.1,0,2,0.3,2.6,1c0.6,0.7,1,1.5,1,2.6c0,1-0.3,1.9-1,2.6c-0.6,0.7-1.5,1-2.6,1c-1.1,0-2-0.3-2.7-1
			c-0.7-0.7-1-1.5-1-2.6c0-1,0.3-1.9,1-2.6C247.9,72.9,248.8,72.6,249.9,72.6 M246,79.8c1,1,2.3,1.5,3.9,1.5c1.5,0,2.8-0.5,3.8-1.5
			c1-1,1.5-2.2,1.5-3.6c0-1.4-0.5-2.6-1.5-3.6c-1-1-2.3-1.5-3.8-1.5c-1.6,0-2.9,0.5-3.9,1.5c-1,1-1.5,2.2-1.5,3.6
			C244.5,77.6,245,78.8,246,79.8 M261.5,88.5v-5.1h-13.9v1.4h12.1v2.3h-12.2c0.1,1.1,0.1,2.4,0.1,3.7v1.5h14.3v-1.4h-12.5v-2.4
			H261.5z M261.5,82.1V70.9h-1.9c0.1,1.6,0.1,3.2,0.1,4.8v6.4H261.5z M231.1,84.6v8h1.7v-8h9.1v-1.5H222v1.5H231.1z M231.1,73.2v0.1
			c0,1.4-0.7,2.7-2.2,3.8c-1.5,1.1-3.4,2-5.9,2.5l1.2,1.2c0.7-0.1,1.3-0.3,2-0.6c0.7-0.3,1.4-0.6,2.1-1c0.8-0.4,1.5-0.9,2.1-1.5
			c0.7-0.6,1.2-1.3,1.6-2.1c0.4,0.8,0.9,1.5,1.6,2.1c0.7,0.6,1.4,1.1,2.1,1.5c0.8,0.4,1.5,0.7,2.2,1c0.7,0.2,1.3,0.4,2,0.6l1-1.2
			c-2.4-0.5-4.3-1.3-5.8-2.5c-1.5-1.2-2.2-2.4-2.2-3.8v-0.1h6.6v-1.5h-15v1.5H231.1z"/>
		<path class="st0" d="M190.7,134.6c1.3,0,2.4,0.2,3.1,0.5c0.8,0.3,1.2,0.9,1.2,1.5c0,0.6-0.4,1.1-1.2,1.4c-0.8,0.3-1.8,0.5-3.1,0.5
			c-1.3,0-2.4-0.2-3.2-0.5c-0.8-0.3-1.2-0.8-1.2-1.5s0.4-1.1,1.2-1.5C188.3,134.8,189.3,134.6,190.7,134.6 M197.1,132.4v-5.2h2.5
			v-2.4h-2.5v-4.1h-2.8c0.1,1.2,0.1,2.7,0.1,4.6v7.2H197.1z M185.7,123.7c0,1.5-0.4,2.7-1.4,3.8c-0.9,1.1-2.2,2-3.7,2.7l1.7,1.7
			c0.9-0.4,1.8-1,2.7-1.8c0.9-0.8,1.6-1.7,2-2.6c0.5,0.8,1.1,1.6,2.1,2.3c0.9,0.7,1.8,1.2,2.6,1.5l1.5-1.9c-3.2-1.2-4.8-3.1-4.9-5.7
			h3.6v-2.2h-9.9v2.2H185.7z M190.7,140.8c2.2,0,3.9-0.4,5.1-1.1c1.2-0.7,1.8-1.8,1.8-3.1c0-1.3-0.6-2.4-1.8-3.1
			c-1.2-0.8-2.9-1.1-5.1-1.1c-2.2,0-3.9,0.4-5.1,1.1c-1.2,0.8-1.8,1.8-1.8,3.1c0,1.3,0.6,2.3,1.8,3.1
			C186.8,140.5,188.5,140.8,190.7,140.8 M174.6,126h-8.3v-2.6h8.3V126z M177.1,134.1h-13.7v2.2h11v4.2h2.6V134.1z M169.1,128.2v2
			h-7.8v2.2h18.2v-2.2h-7.8v-2h5.4v-7h-13.7c0.1,1.2,0.2,2.5,0.2,4v3.1H169.1z"/>
		<path class="st0" d="M851,119.8h-1.3c2.5,3.3,3.8,7.2,3.8,11.8c0,4.5-1.3,8.4-3.8,11.8h1.3c1.5-1.5,2.6-3.3,3.3-5.4
			c0.7-2.1,1.1-4.2,1.1-6.3s-0.4-4.3-1.1-6.4C853.6,123.2,852.5,121.4,851,119.8 M848.9,130h-19.9v1.5h19.9V130z M846.1,138.6v-5.1
			h-14.3v1.4h12.5v2.2h-12.6c0.1,1.1,0.1,2.4,0.1,3.7v1.4h14.7v-1.4h-12.9v-2.3H846.1z M844.5,127.2c1.4-0.6,2-1.5,2-2.7
			c0-1.2-0.7-2.1-2-2.7c-1.3-0.7-3.2-1-5.5-1c-2.3,0-4.2,0.3-5.5,1c-1.3,0.7-2,1.6-2,2.7c0,1.2,0.7,2.1,2,2.7c1.3,0.6,3.2,1,5.5,1
			C841.3,128.1,843.2,127.8,844.5,127.2 M834.7,126.2c-1-0.4-1.5-1-1.5-1.7c0-0.8,0.5-1.3,1.5-1.7c1-0.4,2.4-0.6,4.3-0.6
			c1.8,0,3.2,0.2,4.3,0.6c1,0.4,1.6,1,1.6,1.7c0,0.8-0.5,1.4-1.6,1.7c-1.1,0.4-2.5,0.6-4.2,0.6C837.2,126.8,835.8,126.6,834.7,126.2
			 M824.4,142.5v-12.3h3.3v-1.6h-3.3v-7.8h-1.9c0.1,1.3,0.2,2.8,0.2,4.6v17.1H824.4z M816.8,135.4h-6.2v-11.7h6.2V135.4z
			 M818.5,136.9v-14.7h-9.8c0.1,1.5,0.2,3.1,0.2,4.8v9.8H818.5z M787.8,134.7v7.8h1.7v-7.8h9.1v-1.5h-19.9v1.5H787.8z M794.2,128.4
			h-11v-5.3h11V128.4z M795.9,129.9v-8.2h-14.5c0.1,1.5,0.2,3.1,0.2,4.8v3.4H795.9z M763,136.8c2.9,0,5.5-0.3,8-0.8v-1.5
			c-2.3,0.5-4.9,0.8-7.8,0.8h-2.7v-13.5h-1.9c0.1,1.4,0.2,3,0.2,4.8v10.2H763z M774.1,142.5v-12h3.3V129h-3.3v-8.1h-1.9
			c0.1,1.3,0.2,2.8,0.2,4.6v17.1H774.1z M752.8,133.3v-6.2h3.1v-1.5h-3.1v-4.8H751c0.1,1.6,0.1,3.2,0.1,4.8v7.7H752.8z M751.1,140.8
			H741v-4.7h10.2V140.8z M746.6,121.7H737v1.5h7.9v3h-8.1c0.1,1.6,0.2,2.8,0.2,3.8v2.3h4.5c1.1,0,2.4-0.1,4.1-0.2
			c1.7-0.2,3.1-0.3,4.3-0.5v-1.4c-2.5,0.5-5.3,0.7-8.2,0.7h-3v-3.2h7.9V121.7z M752.8,142.2v-7.5h-13.7c0.1,1.3,0.1,2.9,0.1,4.7v2.8
			H752.8z M731.3,133v-5.6h3.1v-1.5h-3.1v-5.1h-1.9c0.1,1.6,0.1,3.2,0.1,4.8v7.4H731.3z M715.7,123.4h7.8c-0.4,2.1-1.4,3.9-3,5.4
			c-1.7,1.5-3.7,2.5-6,3.1l1.1,1.3c2.9-0.9,5.2-2.3,7-4.2c1.8-1.9,2.8-4.3,3-7.1h-9.8V123.4z M729.6,140.8h-10v-5h10V140.8z
			 M731.3,142.2v-7.9h-13.6c0.1,1.3,0.1,2.9,0.1,4.7v3.2H731.3z M704.1,138.8c-0.3-0.4-0.7-0.6-1.2-0.7c-0.4,0-0.8,0.1-1.2,0.3
			c-0.3,0.3-0.5,0.6-0.5,1.1c0,0.5,0,0.9,0.3,1.1c0.2,0.3,0.6,0.4,0.9,0.5c0.3,0,0.4,0.3,0.2,0.8c-0.1,0.4-0.3,0.7-0.6,1.1
			c-0.3,0.4-0.6,0.6-1,0.8l0.7,0.5c0.7-0.3,1.3-0.8,1.8-1.6c0.5-0.7,0.8-1.6,0.9-2.5C704.5,139.7,704.4,139.2,704.1,138.8
			 M688.3,134.7v7.8h1.7v-7.8h9.1v-1.5h-19.9v1.5H688.3z M694.7,128.4h-11v-5.3h11V128.4z M696.4,129.9v-8.2h-14.5
			c0.1,1.5,0.2,3.1,0.2,4.8v3.4H696.4z M663.5,136.8c2.9,0,5.5-0.3,8-0.8v-1.5c-2.3,0.5-4.9,0.8-7.8,0.8H661v-13.5h-1.9
			c0.1,1.4,0.2,3,0.2,4.8v10.2H663.5z M674.6,142.5v-12h3.3V129h-3.3v-8.1h-1.9c0.1,1.3,0.2,2.8,0.2,4.6v17.1H674.6z M652.3,132.1
			v10.4h1.7v-21.7h-1.9c0.1,1.4,0.2,2.8,0.2,4.2h-3.6v1.4h3.6v4.2h-3.6v1.4H652.3z M646.7,122h-8.9v1.5h7.2v5.3h-7.4
			c0.1,1.6,0.2,3.2,0.2,4.8v3.5h3.9c1.2,0,2.5-0.1,4.2-0.2c1.6-0.2,3-0.4,4.1-0.6v-1.4c-2.3,0.5-4.9,0.8-8.1,0.8h-2.4v-5.4h7.2V122z
			 M634.5,133.1v-1.5h-9.1v-3.4h-1.8c0.1,1.2,0.1,2,0.1,2.5v0.9h-9.1v1.5H634.5z M624.6,136.3c1.8,0,3.3,0.2,4.3,0.7
			c1.1,0.5,1.6,1.1,1.6,1.9c0,0.8-0.5,1.4-1.6,1.9c-1.1,0.4-2.5,0.7-4.3,0.7c-1.8,0-3.3-0.2-4.3-0.7c-1.1-0.5-1.6-1.1-1.6-1.9
			c0-0.8,0.5-1.4,1.6-1.9C621.3,136.5,622.7,136.3,624.6,136.3 M623.6,123c-0.1,0.9-0.6,1.7-1.5,2.4c-0.9,0.7-1.8,1.2-2.9,1.6
			c-1.1,0.4-2.2,0.7-3.5,0.8l1,1.2c1.6-0.3,3.2-0.8,4.6-1.5c1.4-0.7,2.5-1.6,3.1-2.7c0.7,1.1,1.7,2,3.2,2.7c1.4,0.7,3,1.2,4.6,1.4
			l1.1-1.2c-1.2-0.2-2.3-0.4-3.4-0.8c-1.1-0.4-2.1-0.9-2.9-1.6c-0.9-0.7-1.4-1.5-1.5-2.4h6.6v-1.4h-15v1.4H623.6z M624.6,142.9
			c2.4,0,4.3-0.4,5.7-1.1c1.3-0.7,2-1.7,2-3s-0.7-2.3-2-3c-1.3-0.7-3.2-1.1-5.6-1.1c-2.4,0-4.3,0.4-5.6,1.1s-2,1.7-2,3
			c0,1.3,0.7,2.3,2,3C620.2,142.6,622.1,142.9,624.6,142.9 M604.6,138.8c-0.3-0.4-0.7-0.6-1.2-0.7c-0.4,0-0.8,0.1-1.2,0.3
			s-0.5,0.6-0.5,1.1c0,0.5,0,0.9,0.3,1.1c0.2,0.3,0.5,0.4,0.9,0.5c0.3,0,0.4,0.3,0.2,0.8c-0.1,0.4-0.3,0.7-0.6,1.1
			c-0.3,0.4-0.6,0.6-1,0.8l0.7,0.5c0.7-0.3,1.3-0.8,1.9-1.6c0.5-0.7,0.8-1.6,0.9-2.5C605,139.7,604.9,139.2,604.6,138.8
			 M588.8,134.7v7.8h1.7v-7.8h9.1v-1.5h-19.9v1.5H588.8z M595.2,128.4h-11v-5.3h11V128.4z M596.9,129.9v-8.2h-14.5
			c0.1,1.5,0.2,3.1,0.2,4.8v3.4H596.9z M564,136.8c2.9,0,5.5-0.3,8-0.8v-1.5c-2.3,0.5-4.9,0.8-7.8,0.8h-2.7v-13.5h-1.9
			c0.1,1.4,0.2,3,0.2,4.8v10.2H564z M575.1,142.5v-12h3.3V129h-3.3v-8.1h-1.9c0.1,1.3,0.2,2.8,0.2,4.6v17.1H575.1z M556.6,139.7
			v-1.5h-9.1v-5.8h6.8V131h-13.1v-7.4H554v-1.5h-14.7c0.1,1.5,0.2,3.1,0.2,4.8v5.5h6.3v5.8h-9.1v1.5H556.6z M532.7,122.1h-15.2v1.4
			h15.2V122.1z M535,139.7v-1.5h-9.1v-5.5h7.3v-1.4H530l0.2-6.8h-1.7l-0.2,6.8h-6.5l-0.2-6.8h-1.7l0.2,6.8H517v1.4h7.2v5.5h-9v1.5
			H535z M505.1,138.8c-0.3-0.4-0.7-0.6-1.2-0.7c-0.4,0-0.8,0.1-1.2,0.3c-0.3,0.3-0.5,0.6-0.5,1.1c0,0.5,0,0.9,0.3,1.1
			c0.2,0.3,0.6,0.4,0.9,0.5c0.3,0,0.4,0.3,0.2,0.8c-0.1,0.4-0.3,0.7-0.6,1.1c-0.3,0.4-0.6,0.6-1,0.8l0.7,0.5
			c0.7-0.3,1.3-0.8,1.8-1.6c0.5-0.7,0.8-1.6,0.9-2.5C505.5,139.7,505.4,139.2,505.1,138.8 M489.3,134.7v7.8h1.7v-7.8h9.1v-1.5h-19.9
			v1.5H489.3z M495.7,128.4h-11v-5.3h11V128.4z M497.4,129.9v-8.2h-14.5c0.1,1.5,0.2,3.1,0.2,4.8v3.4H497.4z M464.5,136.8
			c2.9,0,5.5-0.3,8-0.8v-1.5c-2.3,0.5-4.9,0.8-7.8,0.8H462v-13.5h-1.9c0.1,1.4,0.2,3,0.2,4.8v10.2H464.5z M475.6,142.5v-12h3.3V129
			h-3.3v-8.1h-1.9c0.1,1.3,0.2,2.8,0.2,4.6v17.1H475.6z M455.3,132.9v-12.1h-1.9c0.1,1.3,0.2,2.8,0.2,4.6v7.5H455.3z M449.1,127.1
			v5.9h1.7v-11.7H449c0.1,1.4,0.2,2.9,0.2,4.4H445v1.5H449.1z M441.6,131.7c2.2,0,4.2-0.2,6-0.6v-1.5c-1.7,0.3-3.6,0.5-5.8,0.5h-1.4
			v-6.8h5.6v-1.5h-7.5c0.1,1.4,0.2,3,0.2,4.8v4.9H441.6z M453.6,140.8h-10.8v-5h10.8V140.8z M455.3,142.2v-7.9H441
			c0.1,1.3,0.1,2.9,0.1,4.7v3.2H455.3z M435.5,139.7v-1.5h-9.1V134h6.9v-1.4h-13.1v-4h12.4v-6.7h-14.2v1.4h12.5v3.8h-12.5
			c0.1,1.2,0.1,2.7,0.1,4.5v2.3h6.2v4.2h-9v1.5H435.5z M405.6,138.8c-0.3-0.4-0.7-0.6-1.2-0.7c-0.4,0-0.8,0.1-1.2,0.3
			c-0.3,0.3-0.5,0.6-0.5,1.1c0,0.5,0,0.9,0.3,1.1c0.2,0.3,0.5,0.4,0.9,0.5c0.3,0,0.4,0.3,0.2,0.8c-0.1,0.4-0.3,0.7-0.6,1.1
			c-0.3,0.4-0.6,0.6-1,0.8l0.7,0.5c0.7-0.3,1.3-0.8,1.9-1.6c0.5-0.7,0.8-1.6,0.9-2.5C406,139.7,405.9,139.2,405.6,138.8
			 M389.8,134.7v7.8h1.7v-7.8h9.1v-1.5h-19.9v1.5H389.8z M396.2,128.4h-11v-5.3h11V128.4z M397.9,129.9v-8.2h-14.5
			c0.1,1.5,0.2,3.1,0.2,4.8v3.4H397.9z M365,136.8c2.9,0,5.5-0.3,8-0.8v-1.5c-2.3,0.5-4.9,0.8-7.8,0.8h-2.7v-13.5h-1.9
			c0.1,1.4,0.2,3,0.2,4.8v10.2H365z M376.1,142.5v-12h3.3V129h-3.3v-8.1h-1.9c0.1,1.3,0.2,2.8,0.2,4.6v17.1H376.1z M355.2,131h-13.1
			v-7.4H355v-1.5h-14.7c0.1,1.5,0.2,3.1,0.2,4.8v5.5h14.8V131z M357.5,138.2h-19.9v1.5h19.9V138.2z M319.4,129.1h6.4v6.4h-6.4V129.1
			z M327.6,137v-7h4.7v12.6h1.7v-21.7h-1.9c0.1,1.3,0.2,2.8,0.2,4.6v3h-4.7v-6.5h-1.7v5.7h-6.4v-5.7h-1.9c0.1,1.4,0.2,3,0.2,4.8V137
			H327.6z M314.1,143.4h1.3c-2.5-3.3-3.8-7.2-3.8-11.8c0-4.5,1.3-8.5,3.8-11.8h-1.3c-1.5,1.5-2.6,3.3-3.3,5.4
			c-0.7,2.1-1.1,4.2-1.1,6.4s0.3,4.3,1.1,6.3C311.5,140,312.6,141.8,314.1,143.4 M304.6,133.1v-12.2h-1.9c0.1,1.6,0.1,3.2,0.1,4.8
			v7.4H304.6z M302.9,140.8h-10.4v-4.9h10.4V140.8z M304.6,142.2v-7.8h-14c0.1,1.3,0.1,2.9,0.1,4.7v3.1H304.6z M293.1,122.7
			c1.2,0,2.1,0.4,2.8,1.1c0.7,0.7,1,1.7,1,2.8c0,1.1-0.3,2-1,2.8c-0.7,0.7-1.6,1.1-2.8,1.1c-1.2,0-2.1-0.4-2.8-1.1
			c-0.7-0.7-1-1.7-1-2.8c0-1.1,0.3-2,1-2.8C291,123.1,291.9,122.7,293.1,122.7 M289.1,130.4c1,1,2.4,1.5,4,1.5
			c1.6,0,2.9-0.5,3.9-1.5c1-1,1.6-2.3,1.6-3.7c0-1.5-0.5-2.8-1.6-3.8c-1-1-2.3-1.5-3.9-1.5c-1.6,0-2.9,0.5-4,1.5
			c-1,1-1.6,2.3-1.6,3.8C287.5,128.1,288.1,129.3,289.1,130.4 M280.5,131.1h-10.8v-7.6h10.8V131.1z M285,139.7v-1.5h-9.1v-5.6h6.2
			v-10.5h-14.4c0.1,1.5,0.2,3.1,0.2,4.8v5.7h6.2v5.6h-9.1v1.5H285z M261,133.9v-6.7h3.1v-1.5H261v-4.9h-1.9c0.1,1.6,0.1,3.2,0.1,4.8
			v8.3H261z M249.5,123.4v0.8c0,1.7-0.6,3.3-1.7,4.6c-1.1,1.3-2.6,2.4-4.3,3.1l1.3,1.1c1.2-0.6,2.4-1.3,3.4-2.3c1-0.9,1.8-2,2.2-3.1
			c0.6,1.1,1.4,2.1,2.4,2.9c1,0.8,2.1,1.5,3.1,1.9l1.1-1.2c-1.6-0.6-3-1.4-4.1-2.7c-1.1-1.2-1.7-2.6-1.7-4.2v-0.8h4.4v-1.4H245v1.4
			H249.5z M254.3,135.7c1.7,0,3,0.3,4,0.8s1.5,1.2,1.5,2.2c0,0.9-0.5,1.6-1.5,2.1c-1,0.5-2.3,0.8-4,0.8c-1.7,0-3-0.3-4-0.8
			c-1-0.5-1.5-1.2-1.5-2.1c0-0.9,0.5-1.6,1.5-2.1C251.2,135.9,252.6,135.7,254.3,135.7 M248.9,141.7c1.3,0.8,3.1,1.2,5.4,1.2
			c2.3,0,4.1-0.4,5.4-1.2c1.3-0.8,1.9-1.8,1.9-3.2c0-1.3-0.6-2.4-1.9-3.2c-1.3-0.8-3.1-1.2-5.4-1.2c-2.3,0-4,0.4-5.3,1.2
			c-1.3,0.8-1.9,1.9-1.9,3.2C247,139.9,247.6,141,248.9,141.7 M239.1,135.6h-14.6v1.5h12.9v5.6h1.7V135.6z M237.5,127.1h-11V123h11
			V127.1z M241.9,133.2v-1.5h-9.1v-3.1h6.3v-7.1h-14.6c0.1,1.3,0.2,2.7,0.2,4.1v3h6.3v3.1H222v1.5H241.9z"/>
		<path class="st0" d="M191.9,184.3h-3.8V182h3.8V184.3z M186.8,176c-0.8-0.3-1.1-0.8-1.1-1.5c0-0.6,0.4-1.1,1.1-1.5
			c0.8-0.3,1.8-0.5,3.3-0.5c1.4,0,2.5,0.2,3.2,0.5c0.8,0.3,1.2,0.8,1.2,1.5c0,0.7-0.4,1.2-1.2,1.5c-0.8,0.3-1.9,0.5-3.2,0.5
			C188.6,176.5,187.5,176.4,186.8,176 M195.2,177.5c1.3-0.7,1.9-1.7,1.9-3c0-1.3-0.6-2.3-1.9-3c-1.3-0.7-3-1.1-5.2-1.1
			c-2.2,0-4,0.4-5.2,1.1c-1.3,0.7-1.9,1.7-1.9,3c0,1.3,0.6,2.3,1.9,3c1.3,0.7,3,1.1,5.2,1.1C192.2,178.6,194,178.2,195.2,177.5
			 M185.6,182v2.3H183v2.2h11v4.1h2.6v-6.3h-2.3V182h4.7v-2.2h-18.2v2.2H185.6z M174.7,173.9c0,1.5-0.1,3.1-0.4,4.9
			c-0.2,1.8-0.5,3.3-0.7,4.4h2.7c0.3-1.3,0.5-3.1,0.8-5.3c0.3-2.2,0.4-4.3,0.4-6.3h-14.1v2.2H174.7z M179.5,188v-2.2h-7v-6.4h-2.7
			c0.1,0.9,0.1,2.4,0.1,4.4v2h-2v-6.4h-2.7c0.1,0.9,0.1,2.5,0.1,4.8v1.6h-4.1v2.2H179.5z"/>
		<path class="st0" d="M805.4,186c2.9,0,5.5-0.3,8-0.8v-1.5c-2.3,0.5-4.9,0.8-7.8,0.8h-2.7v-13.5H801c0.1,1.4,0.2,3,0.2,4.8V186
			H805.4z M816.5,191.7v-12h3.3v-1.6h-3.3V170h-1.9c0.1,1.3,0.2,2.8,0.2,4.6v17.1H816.5z M795.9,191.7V170h-1.9
			c0.1,1.3,0.2,2.8,0.2,4.6v17.1H795.9z M787.9,184.6h-6.5v-11.7h6.5V184.6z M789.6,186v-14.7h-10c0.1,1.5,0.2,3.1,0.2,4.8v9.8
			H789.6z M775,191.7V170h-1.9c0.1,1.3,0.2,2.8,0.2,4.6v17.1H775z M769.1,178.2v12.4h1.7v-20.3h-1.9c0.1,1.3,0.2,2.8,0.2,4.6v1.8
			h-3.7v1.5H769.1z M761,170.9c0.1,1.1,0.2,2.3,0.2,3.8c0,5.2-1.7,9-5.2,11.4l1.5,1.1c1-0.7,1.9-1.7,2.8-3c0.8-1.2,1.4-2.6,1.8-4
			c0.8,2.7,2.3,4.8,4.3,6.2l1.2-1.2c-1.5-0.9-2.7-2.3-3.5-4.1c-0.8-1.8-1.2-3.9-1.2-6.2v-4H761z M752.9,181.4V170h-1.9
			c0.1,1.6,0.1,3.2,0.1,4.8v6.6H752.9z M740.6,170.5c0.1,0.6,0.1,1.3,0.1,2.2c0,1.6-0.5,3-1.6,4.2c-1.1,1.2-2.5,2.2-4.3,3l1.2,1.2
			c1.3-0.6,2.4-1.3,3.4-2.2c1-0.9,1.7-1.9,2.1-3.1c0.6,1.1,1.4,2,2.4,2.8c1,0.8,2.1,1.4,3.2,1.8l1.1-1.2c-1.6-0.6-3-1.5-4.1-2.6
			c-1.1-1.2-1.7-2.5-1.7-4v-2H740.6z M740.7,186.6h10.6v3.3h-10.6V186.6z M752.9,191.4v-8.9h-1.7v2.7h-10.6v-2.7h-1.9
			c0.1,1.4,0.2,3,0.2,4.8v4.1H752.9z M729.5,178.7v13h1.7V170h-1.9c0.1,1.3,0.2,2.8,0.2,4.6v2.7h-6.2v1.5H729.5z M719.3,186
			c2.9,0,5.5-0.3,8-0.8v-1.5c-2.3,0.5-4.9,0.8-7.8,0.8h-2.7v-11.6h8.1v-1.5h-10c0.1,1.5,0.2,3.1,0.2,4.8v9.8H719.3z M709.7,191.7
			V170h-1.9c0.1,1.3,0.2,2.8,0.2,4.6v17.1H709.7z M703,171.1h-9.5v1.5h7.8v5.3h-8c0.1,1.5,0.2,3.2,0.2,4.8v3.5h4.6
			c1.2,0,2.5-0.1,4.2-0.2c1.6-0.2,3-0.4,4.1-0.6V184c-2.3,0.5-4.9,0.8-8.1,0.8h-3.1v-5.4h7.9V171.1z M681.9,187.9
			c-0.3-0.4-0.7-0.6-1.2-0.7c-0.4,0-0.8,0.1-1.2,0.3c-0.3,0.3-0.5,0.6-0.5,1.1c0,0.5,0,0.9,0.3,1.1c0.2,0.3,0.6,0.4,0.9,0.5
			c0.3,0,0.4,0.3,0.2,0.8c-0.1,0.4-0.3,0.7-0.6,1.1c-0.3,0.4-0.6,0.6-1,0.8l0.7,0.5c0.7-0.3,1.3-0.8,1.8-1.6
			c0.5-0.7,0.8-1.6,0.9-2.5C682.3,188.8,682.2,188.3,681.9,187.9 M672.8,172.8c0,1.5-0.2,3.3-0.4,5.5c-0.3,2.2-0.6,4.1-0.9,5.7h1.6
			c0.4-1.6,0.7-3.7,1-6.1c0.3-2.4,0.5-4.6,0.5-6.6h-15.1v1.5H672.8z M676.9,188.8v-1.5h-8v-8.1h-1.8c0.1,1.2,0.1,2.2,0.1,3.2v4.9
			h-3.5v-8.1h-1.8c0.1,1.2,0.1,2.2,0.1,3.2v4.9H657v1.5H676.9z M639.1,171.4h6.4V170h-6.4V171.4z M648.6,172.9h-12.3v1.4h12.3V172.9
			z M639.7,181.1c-0.6-0.4-1-1-1-1.7c0-0.7,0.3-1.2,1-1.7c0.6-0.4,1.5-0.6,2.6-0.6c1.1,0,1.9,0.2,2.6,0.6c0.6,0.4,1,1,1,1.7
			c0,0.7-0.3,1.3-1,1.7c-0.7,0.4-1.5,0.6-2.6,0.6C641.3,181.7,640.4,181.5,639.7,181.1 M652.9,183.9v-6.1h3.1v-1.5h-3.1V170H651
			c0.1,1.6,0.1,3.2,0.1,4.8v9.1H652.9z M652.9,185.1h-14v1.5h12.3v5.2h1.7V185.1z M647.6,179.4c0-1.1-0.5-2-1.4-2.7
			c-1-0.7-2.2-1.1-3.8-1.1s-2.9,0.4-3.8,1.1c-1,0.7-1.4,1.6-1.4,2.7c0,1.1,0.5,2,1.4,2.6c1,0.7,2.2,1,3.8,1s2.9-0.3,3.8-1
			C647.1,181.4,647.6,180.5,647.6,179.4 M625.2,181.1V179h4.9v4.1h1.7V170h-1.9c0.1,1.5,0.1,2.4,0.1,3h-4.9v-1.9h-9.7
			c0.1,1.4,0.2,3,0.2,4.8v5.2H625.2z M624.7,192.1c2.3,0,4.1-0.4,5.4-1.2c1.3-0.8,2-1.8,2-3.2c0-1.3-0.7-2.4-2-3.2
			c-1.3-0.8-3.1-1.2-5.4-1.2c-2.3,0-4.1,0.4-5.4,1.2c-1.3,0.8-2,1.9-2,3.2c0,1.3,0.7,2.4,2,3.2C620.6,191.7,622.4,192.1,624.7,192.1
			 M624.7,184.8c1.7,0,3,0.3,4.1,0.8c1,0.5,1.6,1.2,1.6,2.1c0,0.9-0.5,1.6-1.6,2.1c-1,0.5-2.4,0.8-4.1,0.8s-3-0.3-4.1-0.8
			c-1-0.5-1.6-1.2-1.6-2.1c0-0.9,0.5-1.6,1.5-2.1C621.7,185.1,623,184.8,624.7,184.8 M623.5,179.6h-6.2v-7.1h6.2V179.6z
			 M625.2,174.4h4.9v3h-4.9V174.4z M612.3,188.8v-1.5h-9.1V182h-1.8c0.1,1.2,0.1,2.2,0.1,3.2v2.2h-9.1v1.5H612.3z M601.3,170.8
			c0.1,0.4,0.1,1,0.1,1.9c0,1.9-0.8,3.6-2.5,5.2c-1.7,1.6-3.6,2.7-5.8,3.4l1.3,1.3c1.6-0.6,3.2-1.5,4.8-2.7c1.5-1.2,2.6-2.6,3.1-4.1
			c0.6,1.5,1.7,2.9,3.2,4.1s3.1,2.1,4.7,2.7l1.2-1.2c-2.2-0.6-4.1-1.8-5.7-3.4c-1.6-1.6-2.5-3.4-2.5-5.1v-1.9H601.3z M580.8,191.7
			v-11.1h3.2V179h-3.2v-9h-1.9c0.1,1.3,0.2,2.8,0.2,4.6v17.1H580.8z M563.8,185.6v1.5h3.7c3.9,0,7.4-0.2,10.5-0.7v-1.5
			c-1.6,0.3-4.3,0.5-8,0.6v-7.4h-1.8c0.1,1.2,0.1,2.2,0.1,3.2v4.2H563.8z M575.4,177.2c0.2-2.3,0.3-4.2,0.4-5.9H565v1.5h9.1
			c0,1.2-0.1,2.8-0.3,4.7c-0.2,2-0.4,3.6-0.7,4.8h1.6C575,181.2,575.2,179.5,575.4,177.2 M547.8,186.8h10.5v3.1h-10.5V186.8z
			 M548.4,171.8c1.1,0,2.1,0.3,2.7,1c0.7,0.7,1,1.6,1,2.6c0,1.1-0.3,1.9-1,2.6c-0.7,0.7-1.6,1-2.7,1c-1.2,0-2.1-0.3-2.8-1
			s-1-1.6-1-2.6c0-1.1,0.3-1.9,1-2.6S547.2,171.8,548.4,171.8 M560,191.4v-8.9h-1.7v2.8h-10.5v-2.8h-1.9c0.1,1.4,0.2,3,0.2,4.8v4.1
			H560z M544.5,179.2c1,1,2.3,1.5,3.9,1.5c1.4,0,2.6-0.4,3.6-1.2c1-0.8,1.6-1.8,1.8-3.1h4.5v5h1.7V170h-1.9c0.1,1.6,0.1,3.2,0.1,4.8
			v0.1h-4.5c-0.2-1.3-0.7-2.4-1.7-3.2c-1-0.9-2.2-1.3-3.6-1.3c-1.6,0-2.9,0.5-3.9,1.5c-1,1-1.5,2.2-1.5,3.7
			C542.9,177,543.4,178.2,544.5,179.2 M538.8,183v-13h-1.9c0.1,1.6,0.1,3.2,0.1,4.8v8.2H538.8z M538.8,184.3h-14.2v1.5H537v6.1h1.7
			V184.3z M526.7,172.5v0.8c0,1.8-0.6,3.3-1.7,4.7c-1.1,1.3-2.6,2.4-4.3,3l1.3,1.1c1.3-0.5,2.4-1.3,3.4-2.2c1-1,1.7-2,2.2-3.2
			c0.6,1.1,1.4,2,2.4,2.9c1.1,0.9,2.1,1.5,3.1,1.9l1.1-1.2c-1.6-0.6-3-1.5-4.1-2.7c-1.1-1.2-1.6-2.6-1.6-4.2v-0.9h4.6v-1.4h-10.9
			v1.4H526.7z M510.6,187.9c-0.3-0.4-0.7-0.6-1.2-0.7c-0.4,0-0.8,0.1-1.2,0.3c-0.3,0.3-0.5,0.6-0.5,1.1c0,0.5,0,0.9,0.3,1.1
			c0.2,0.3,0.6,0.4,0.9,0.5c0.3,0,0.4,0.3,0.2,0.8c-0.1,0.4-0.3,0.7-0.6,1.1c-0.3,0.4-0.6,0.6-1,0.8l0.7,0.5
			c0.7-0.3,1.3-0.8,1.8-1.6c0.5-0.7,0.8-1.6,0.9-2.5C511,188.8,510.8,188.3,510.6,187.9 M501.4,172.8c0,1.5-0.2,3.3-0.4,5.5
			c-0.3,2.2-0.6,4.1-0.9,5.7h1.6c0.4-1.6,0.7-3.7,1-6.1c0.3-2.4,0.5-4.6,0.5-6.6h-15.1v1.5H501.4z M505.6,188.8v-1.5h-8v-8.1h-1.8
			c0.1,1.2,0.1,2.2,0.1,3.2v4.9h-3.5v-8.1h-1.8c0.1,1.2,0.1,2.2,0.1,3.2v4.9h-4.9v1.5H505.6z M467.8,171.4h6.4V170h-6.4V171.4z
			 M477.2,172.9h-12.3v1.4h12.3V172.9z M468.4,181.1c-0.6-0.4-1-1-1-1.7c0-0.7,0.3-1.2,1-1.7c0.6-0.4,1.5-0.6,2.6-0.6
			c1.1,0,1.9,0.2,2.6,0.6c0.6,0.4,1,1,1,1.7c0,0.7-0.3,1.3-1,1.7c-0.7,0.4-1.5,0.6-2.6,0.6C469.9,181.7,469.1,181.5,468.4,181.1
			 M481.6,183.9v-6.1h3.1v-1.5h-3.1V170h-1.9c0.1,1.6,0.1,3.2,0.1,4.8v9.1H481.6z M481.6,185.1h-14v1.5h12.3v5.2h1.7V185.1z
			 M476.3,179.4c0-1.1-0.5-2-1.4-2.7c-1-0.7-2.2-1.1-3.8-1.1c-1.6,0-2.9,0.4-3.8,1.1c-1,0.7-1.4,1.6-1.4,2.7c0,1.1,0.5,2,1.4,2.6
			c1,0.7,2.2,1,3.8,1c1.6,0,2.9-0.3,3.8-1C475.8,181.4,476.3,180.5,476.3,179.4 M445.5,173.9c0.6-1.2,1.3-1.8,2.2-1.8
			c0.9,0,1.6,0.6,2.2,1.8c0.5,1.2,0.8,2.8,0.8,4.9c0,2.1-0.3,3.7-0.8,4.9c-0.5,1.2-1.3,1.8-2.2,1.8c-0.9,0-1.7-0.6-2.2-1.8
			c-0.6-1.2-0.8-2.8-0.8-4.9C444.6,176.7,444.9,175.1,445.5,173.9 M456.2,190.7v-11.4h3v12.5h1.7V170H459c0.1,1.3,0.2,2.8,0.2,4.6
			v3.2h-3v-7.4h-1.9c0.1,1.3,0.2,2.8,0.2,4.6v15.7H456.2z M444.4,184.9c0.9,1.3,2,1.9,3.3,1.9c1.3,0,2.4-0.7,3.3-1.9
			c0.9-1.3,1.3-3.3,1.3-6.1c0-2.8-0.4-4.9-1.3-6.2c-0.9-1.3-2-1.9-3.3-1.9c-1.4,0-2.5,0.6-3.4,1.9c-0.9,1.3-1.3,3.3-1.3,6.2
			C443,181.6,443.5,183.6,444.4,184.9 M423.4,180c1.1,1.1,2.4,1.6,4,1.6c1,0,1.9-0.2,2.7-0.7c0.8-0.5,1.5-1.1,2-1.9h5.1v7h1.7v-16
			h-1.9c0.1,1.3,0.1,2.1,0.1,2.6h-5.3c-0.5-0.7-1.1-1.2-1.9-1.6c-0.8-0.4-1.6-0.6-2.5-0.6c-1.6,0-3,0.5-4,1.6
			c-1.1,1.1-1.6,2.4-1.6,4C421.8,177.6,422.4,178.9,423.4,180 M427.4,171.9c1.2,0,2.1,0.4,2.8,1.2c0.7,0.8,1.1,1.8,1.1,3
			c0,1.2-0.4,2.1-1.1,2.9c-0.7,0.8-1.6,1.2-2.8,1.2s-2.1-0.4-2.8-1.2c-0.7-0.8-1.1-1.8-1.1-2.9c0-1.2,0.4-2.1,1.1-3
			C425.3,172.3,426.3,171.9,427.4,171.9 M439.7,191.2v-1.5h-12.8v-5.3H425c0.1,1.4,0.2,3,0.2,4.6v2.3H439.7z M432.8,177.6
			c0.1-0.5,0.2-1,0.2-1.5c0-0.7-0.1-1.3-0.3-2h4.6v3.5H432.8z M411.1,187.9c-0.3-0.4-0.7-0.6-1.2-0.7c-0.4,0-0.8,0.1-1.2,0.3
			c-0.3,0.3-0.5,0.6-0.5,1.1c0,0.5,0,0.9,0.3,1.1c0.2,0.3,0.5,0.4,0.9,0.5c0.3,0,0.4,0.3,0.2,0.8c-0.1,0.4-0.3,0.7-0.6,1.1
			c-0.3,0.4-0.6,0.6-1,0.8l0.7,0.5c0.7-0.3,1.3-0.8,1.9-1.6c0.5-0.7,0.8-1.6,0.9-2.5C411.5,188.8,411.3,188.3,411.1,187.9
			 M401.6,178.5h-11v-3.7h11V178.5z M395.3,184.3v7.4h1.7v-7.4h9.1v-1.5h-19.9v1.5H395.3z M390.7,173.3v-2.8h-1.9
			c0.1,1.5,0.2,3.1,0.2,4.8v4.6h14.4v-9.4h-1.7v2.8H390.7z M382.2,170.7h-15.1v1.5h13.3c0,2.2-0.3,4.1-0.7,5.8h1.6
			C381.8,175.7,382.1,173.3,382.2,170.7 M384.5,181.3v-1.5h-10.1v-4.6h-1.8c0.1,1.2,0.1,2.2,0.1,3.2v1.4h-8.1v1.5H384.5z
			 M374.6,184.9c1.8,0,3.2,0.3,4.3,0.8c1.1,0.5,1.6,1.2,1.6,2.1c0,0.9-0.5,1.5-1.6,2.1c-1.1,0.5-2.5,0.8-4.3,0.8
			c-1.8,0-3.2-0.3-4.3-0.8c-1.1-0.5-1.6-1.2-1.6-2.1c0-0.9,0.5-1.6,1.6-2.1C371.3,185.2,372.8,184.9,374.6,184.9 M369,191
			c1.3,0.8,3.2,1.1,5.6,1.1c2.4,0,4.3-0.4,5.6-1.1c1.3-0.8,2-1.8,2-3.1c0-1.3-0.7-2.4-2-3.2c-1.3-0.8-3.2-1.2-5.6-1.2
			c-2.4,0-4.3,0.4-5.6,1.2c-1.3,0.8-2,1.8-2,3.2C367,189.1,367.6,190.2,369,191 M354,192.1c2.3,0,4.1-0.4,5.4-1.2
			c1.3-0.8,2-1.8,2-3.2c0-1.3-0.7-2.4-2-3.2c-1.3-0.8-3.1-1.2-5.4-1.2c-2.3,0-4.1,0.4-5.4,1.2c-1.3,0.8-2,1.9-2,3.2
			c0,1.3,0.7,2.4,2,3.2C349.9,191.7,351.7,192.1,354,192.1 M354,184.8c1.7,0,3,0.3,4.1,0.8c1,0.5,1.5,1.2,1.5,2.1
			c0,0.9-0.5,1.6-1.5,2.1c-1,0.5-2.4,0.8-4.1,0.8c-1.7,0-3-0.3-4.1-0.8c-1-0.5-1.5-1.2-1.5-2.1c0-0.9,0.5-1.6,1.5-2.1
			C351,185.1,352.3,184.8,354,184.8 M344.9,172.6h7.6c-0.4,2.2-1.3,4-2.9,5.4c-1.6,1.4-3.6,2.5-5.9,3.1l1.1,1.3
			c2.9-0.9,5.2-2.2,6.9-4.1c1.7-1.9,2.7-4.3,2.9-7.1h-9.6V172.6z M359.3,179.5v3.5h1.7v-13h-1.9c0.1,1.5,0.1,2.6,0.1,3.2h-4v1.5h4
			v3.3h-4.6v1.5H359.3z M337.8,175.6v7.3h1.7v-13h-1.9c0.1,1.5,0.1,2.9,0.1,4.2h-4.8v1.5H337.8z M327.1,170.5
			c0.1,0.6,0.1,1.3,0.1,2.2c0,1.8-0.6,3.4-1.7,4.8c-1.1,1.4-2.6,2.5-4.3,3.2l1.3,1.2c1.2-0.6,2.3-1.3,3.4-2.3c1.1-1,1.8-2.1,2.2-3.3
			c0.6,1.1,1.4,2.1,2.4,2.9c1.1,0.9,2.2,1.5,3.2,2l1.1-1.3c-1.6-0.5-3-1.5-4.1-2.8c-1.1-1.3-1.7-2.9-1.7-4.7v-2H327.1z M332.5,184.8
			c1.7,0,3,0.3,4.1,0.8c1,0.5,1.5,1.2,1.5,2.1c0,0.9-0.5,1.6-1.5,2.1c-1,0.5-2.4,0.8-4.1,0.8c-1.7,0-3-0.3-4.1-0.8
			c-1-0.5-1.5-1.2-1.5-2.1c0-0.9,0.5-1.6,1.5-2.1C329.5,185.1,330.8,184.8,332.5,184.8 M332.5,192.1c2.3,0,4.1-0.4,5.4-1.2
			c1.3-0.8,2-1.8,2-3.2c0-1.3-0.7-2.4-2-3.2c-1.3-0.8-3.1-1.2-5.4-1.2c-2.3,0-4.1,0.4-5.4,1.2c-1.3,0.8-2,1.9-2,3.2
			c0,1.3,0.7,2.4,2,3.2C328.4,191.7,330.2,192.1,332.5,192.1 M311.6,187.9c-0.3-0.4-0.7-0.6-1.2-0.7c-0.4,0-0.8,0.1-1.2,0.3
			c-0.3,0.3-0.5,0.6-0.5,1.1c0,0.5,0,0.9,0.3,1.1c0.2,0.3,0.6,0.4,0.9,0.5c0.3,0,0.4,0.3,0.2,0.8c-0.1,0.4-0.3,0.7-0.6,1.1
			c-0.3,0.4-0.6,0.6-1,0.8l0.7,0.5c0.7-0.3,1.3-0.8,1.8-1.6c0.5-0.7,0.8-1.6,0.9-2.5C312,188.8,311.8,188.3,311.6,187.9
			 M297.5,170.9h-9.2v1.5h7.5v3.7h-7.6c0.1,1.5,0.2,2.8,0.2,3.8v2.8h3.8c1.1,0,2.4-0.1,4.1-0.2c1.7-0.2,3.1-0.3,4.3-0.6v-1.4
			c-2.5,0.5-5.3,0.7-8.2,0.7H290v-3.6h7.5V170.9z M302.8,178.6v7.4h1.7v-16h-1.9c0.1,1.4,0.1,2.3,0.1,2.8h-3.8v1.5h3.9v2.7h-3.9v1.5
			H302.8z M305,191.2v-1.5h-12.7v-4.8h-1.9c0.1,1.4,0.2,2.9,0.2,4.5v1.8H305z M279.2,169.9H271v1.4h8.1V169.9z M283.3,172.7h-16.5
			v1.3h16.5V172.7z M283.1,191.2v-1.5h-13.5v-3.6h-1.9c0.1,1.5,0.2,2.9,0.2,4.2v1H283.1z M271.3,176.8c0.9-0.3,2.2-0.5,3.7-0.5
			c1.5,0,2.8,0.2,3.7,0.5c0.9,0.3,1.4,0.8,1.4,1.5c0,0.6-0.5,1.1-1.4,1.4c-0.9,0.3-2.2,0.5-3.7,0.5c-1.6,0-2.8-0.2-3.7-0.5
			c-0.9-0.3-1.4-0.8-1.4-1.4C270,177.6,270.4,177.2,271.3,176.8 M274.6,184.3v3.4h1.8v-3.4h8.7v-1.4h-19.9v1.4H274.6z M275.1,181.5
			c4.6,0,6.9-1.1,6.9-3.2c0-1-0.6-1.8-1.8-2.4c-1.2-0.6-2.9-0.8-5.1-0.8c-2.2,0-3.9,0.3-5.1,0.8c-1.2,0.6-1.8,1.4-1.8,2.4
			C268.2,180.4,270.5,181.5,275.1,181.5 M260.6,191.7V180h3.3v-1.6h-3.3V170h-1.9c0.1,1.3,0.2,2.8,0.2,4.6v17.1H260.6z M249.4,172.8
			v2c0,2.4-0.5,4.5-1.6,6.5c-1.1,2-2.6,3.6-4.6,4.7l1.5,1.1c1.2-0.7,2.3-1.8,3.4-3.2c1.1-1.4,1.8-2.8,2.2-4.2
			c0.5,1.4,1.2,2.7,2.3,3.9c1,1.2,2.2,2.2,3.4,2.9l1.3-1.2c-1.9-1.1-3.4-2.5-4.5-4.4c-1.1-1.8-1.6-3.8-1.6-6v-2.3h4.8v-1.4h-11.3
			v1.4H249.4z M240.8,191.7V170h-1.9c0.1,1.3,0.2,2.8,0.2,4.6v17.1H240.8z M234.8,178.5v12.2h1.7v-20.3h-1.9
			c0.1,1.3,0.2,2.8,0.2,4.6v2.1h-3.6v1.4H234.8z M226,184.4c0.9-1.3,1.5-2.5,1.8-3.8c0.4,1.3,0.9,2.4,1.7,3.5
			c0.8,1.1,1.6,1.9,2.5,2.5l1.3-1.2c-1.6-1.1-2.8-2.5-3.5-4.1c-0.7-1.7-1.1-3.8-1.1-6.4V173h3.6v-1.4h-9v1.4h3.7v2
			c0,5.2-1.8,8.9-5.3,11.3l1.5,1.1C224.2,186.6,225.2,185.7,226,184.4"/>
		<path class="st0" d="M196.8,240.1v-10.2h2.7v-2.4h-2.7v-7.2H194c0.1,1.2,0.2,2.7,0.2,4.5v15.4H196.8z M185.3,220.9
			c0.1,1.1,0.2,2.4,0.2,3.9c0,1.9-0.5,3.7-1.4,5.5c-0.9,1.7-2.2,3.2-3.9,4.3l2,1.7c0.9-0.6,1.8-1.4,2.7-2.5c0.9-1.1,1.5-2.2,1.9-3.3
			c0.4,1.1,1.1,2.1,2,3.1c0.9,1,1.8,1.7,2.7,2.3l1.8-1.8c-3.4-2.1-5.2-5.1-5.2-9v-4.1H185.3z M174.6,226.1h-8.3v-1.6h8.3V226.1z
			 M170.4,235.2c3,0,4.5,0.5,4.5,1.6c0,1-1.5,1.5-4.5,1.5s-4.5-0.5-4.5-1.6C165.9,235.7,167.4,235.2,170.4,235.2 M165.1,239.5
			c1.2,0.6,3,0.9,5.3,0.9c4.7,0,7.1-1.2,7.1-3.6c0-1.2-0.6-2.1-1.8-2.7c-1.2-0.6-3-0.9-5.3-0.9s-4.1,0.3-5.3,0.9
			c-1.2,0.6-1.9,1.5-1.9,2.7C163.3,238,163.9,238.9,165.1,239.5 M179.5,232.2v-2.2h-7.8v-1.7h5.4v-7.9h-2.6v2h-8.3v-2h-2.8
			c0.1,1.3,0.2,2.8,0.2,4.5v3.3h5.5v1.7h-7.8v2.2H179.5z"/>
		<path class="st0" d="M729.9,218.5h-1.3c2.5,3.3,3.8,7.2,3.8,11.8c0,4.5-1.3,8.4-3.8,11.8h1.3c1.5-1.5,2.6-3.3,3.3-5.4
			c0.7-2.1,1.1-4.2,1.1-6.3c0-2.2-0.4-4.3-1.1-6.4C732.5,221.9,731.4,220.1,729.9,218.5 M726.7,241.3v-21.7h-1.9
			c0.1,1.3,0.2,2.8,0.2,4.6v17.1H726.7z M720.8,228.1v12.2h1.7v-20.3h-1.9c0.1,1.3,0.2,2.8,0.2,4.6v2.1h-3.6v1.4H720.8z M712,233.9
			c0.9-1.3,1.5-2.5,1.8-3.8c0.4,1.3,0.9,2.4,1.8,3.5c0.8,1.1,1.6,1.9,2.5,2.5l1.3-1.2c-1.6-1.1-2.8-2.5-3.5-4.1
			c-0.7-1.7-1.1-3.8-1.1-6.4v-1.9h3.6v-1.4h-9v1.4h3.7v2c0,5.2-1.8,8.9-5.3,11.3l1.5,1.1C710.2,236.2,711.1,235.2,712,233.9
			 M695.4,231.6v9.7h1.7v-9.7h9.2v-1.5h-3.6c0.8-3.8,1.1-7,1.1-9.7h-15v1.5h13.2c0,2.2-0.4,4.9-1,8.2h-14.6v1.5H695.4z M680.3,228
			h-11v-3.7h11V228z M674,233.9v7.4h1.7v-7.4h9.1v-1.5h-19.9v1.5H674z M669.4,222.9v-2.8h-1.9c0.1,1.5,0.2,3.1,0.2,4.8v4.6H682v-9.4
			h-1.7v2.8H669.4z M661.4,241.3v-21.7h-1.9c0.1,1.3,0.2,2.8,0.2,4.6v17.1H661.4z M651,221.6c1.2,0,2.1,0.4,2.8,1.2
			c0.7,0.8,1.1,1.7,1.1,2.8c0,1.1-0.4,2-1.1,2.8c-0.7,0.8-1.6,1.2-2.8,1.2c-1.2,0-2.1-0.4-2.8-1.2s-1.1-1.7-1.1-2.8
			c0-1.1,0.4-2,1.1-2.8S649.8,221.6,651,221.6 M646.7,229.1c0.9,1,2,1.6,3.5,1.8v4.2c-0.4,0-1.1,0-1.9,0H644v1.5h4.2
			c3.9,0,7.4-0.2,10.5-0.7v-1.5c-1.5,0.3-3.8,0.4-6.8,0.6v-4.2c1.4-0.2,2.5-0.8,3.4-1.8c0.9-1,1.3-2.2,1.3-3.5
			c0-1.5-0.5-2.8-1.6-3.8c-1.1-1.1-2.4-1.6-4-1.6c-1.6,0-3,0.5-4,1.6c-1.1,1.1-1.6,2.3-1.6,3.8C645.4,226.9,645.8,228.1,646.7,229.1
			 M633.4,237.5c-0.3-0.4-0.7-0.6-1.2-0.7c-0.4,0-0.8,0.1-1.2,0.3c-0.3,0.3-0.5,0.6-0.5,1.1c0,0.5,0,0.9,0.3,1.1
			c0.2,0.3,0.5,0.4,0.9,0.5c0.3,0,0.4,0.3,0.2,0.8c-0.1,0.4-0.3,0.7-0.6,1.1c-0.3,0.4-0.6,0.6-1,0.8l0.7,0.5
			c0.7-0.3,1.3-0.8,1.9-1.6c0.5-0.7,0.8-1.6,0.9-2.5C633.8,238.4,633.6,237.9,633.4,237.5 M627.2,241.3v-21.7h-1.9
			c0.1,1.3,0.2,2.8,0.2,4.6v17.1H627.2z M621.3,228.1v12.2h1.7v-20.3h-1.9c0.1,1.3,0.2,2.8,0.2,4.6v2.1h-3.6v1.4H621.3z
			 M612.5,233.9c0.9-1.3,1.5-2.5,1.8-3.8c0.4,1.3,0.9,2.4,1.8,3.5c0.8,1.1,1.6,1.9,2.5,2.5l1.3-1.2c-1.6-1.1-2.8-2.5-3.5-4.1
			c-0.7-1.7-1.1-3.8-1.1-6.4v-1.9h3.6v-1.4h-9v1.4h3.7v2c0,5.2-1.8,8.9-5.3,11.3l1.5,1.1C610.7,236.2,611.6,235.2,612.5,233.9
			 M595.9,231.6v9.7h1.7v-9.7h9.2v-1.5h-3.6c0.8-3.8,1.1-7,1.1-9.7h-15v1.5h13.2c0,2.2-0.4,4.9-1,8.2h-14.6v1.5H595.9z M581.3,223.1
			v2.4h-5.9v1.5h5.9v8.5h1.7v-16h-1.9c0,0.5,0.1,1.2,0.1,2.1h-5.9v1.5H581.3z M570.8,231.5c1.1,0,2.5-0.1,4.2-0.2
			c1.7-0.1,3.1-0.3,4.2-0.5v-1.5c-2.3,0.5-5,0.7-8.2,0.7h-2.4v-9.7h-1.9c0.1,1.4,0.2,2.6,0.2,3.7v7.5H570.8z M583.6,240.8v-1.5
			h-12.6v-5.1H569c0.1,1.4,0.2,2.9,0.2,4.5v2.1H583.6z M547.7,221h6.2v-1.5h-6.2V221z M560.4,227.4v5.7h1.7v-13.5h-1.9
			c0.1,1.6,0.1,3.2,0.1,4.8v1.5h-4v1.5H560.4z M549.8,224.4c-0.1,1.5-0.6,2.8-1.7,4c-1.1,1.2-2.5,2.2-4.1,2.9l1.2,1.1
			c2.7-1.3,4.6-3.1,5.5-5.4c0.6,1,1.4,1.9,2.4,2.8c1,0.8,2.1,1.5,3.1,1.8l1-1.2c-1.5-0.5-2.9-1.4-4-2.5c-1.1-1.1-1.7-2.3-1.8-3.6
			h4.6v-1.4h-10.8v1.4H549.8z M555.2,234.8c1.7,0,3,0.2,4.1,0.7c1,0.5,1.6,1.2,1.6,2c0,0.8-0.5,1.5-1.6,1.9c-1,0.5-2.4,0.7-4.1,0.7
			c-1.7,0-3.1-0.2-4.1-0.7c-1-0.5-1.5-1.1-1.5-2c0-0.8,0.5-1.5,1.5-2C552.1,235,553.5,234.8,555.2,234.8 M549.7,240.5
			c1.3,0.7,3.1,1.1,5.4,1.1c2.3,0,4.1-0.4,5.4-1.1c1.3-0.7,2-1.7,2-3c0-1.3-0.7-2.3-2-3.1c-1.3-0.8-3.1-1.1-5.4-1.1
			c-2.3,0-4.1,0.4-5.4,1.1c-1.3,0.8-2,1.8-2,3.1C547.8,238.8,548.4,239.8,549.7,240.5 M533.9,237.5c-0.3-0.4-0.7-0.6-1.2-0.7
			c-0.4,0-0.8,0.1-1.2,0.3c-0.3,0.3-0.5,0.6-0.5,1.1c0,0.5,0,0.9,0.3,1.1c0.2,0.3,0.5,0.4,0.9,0.5c0.3,0,0.4,0.3,0.2,0.8
			c-0.1,0.4-0.3,0.7-0.6,1.1c-0.3,0.4-0.6,0.6-1,0.8l0.7,0.5c0.7-0.3,1.3-0.8,1.9-1.6c0.5-0.7,0.8-1.6,0.9-2.5
			C534.3,238.4,534.1,237.9,533.9,237.5 M526.6,224.6h-13.1v-5h-1.9c0.1,1.5,0.2,2.9,0.2,4.1v2.3h14.8V224.6z M524.4,239.5h-10.9
			v-4.3h10.9V239.5z M526.1,240.9v-7.2h-6.3v-3.4h9.1v-1.5H509v1.5h9.1v3.4h-6.4c0.1,1.3,0.2,2.7,0.2,4.1v3.1H526.1z M493.2,235.5
			c2.9,0,5.5-0.3,8-0.8v-1.5c-2.3,0.5-4.9,0.8-7.8,0.8h-2.7v-13.5h-1.9c0.1,1.4,0.2,3,0.2,4.8v10.2H493.2z M504.3,241.3v-12h3.3
			v-1.6h-3.3v-8.1h-1.9c0.1,1.3,0.2,2.8,0.2,4.6v17.1H504.3z M485.8,236.9h-19.9v1.5h19.9V236.9z M483.3,231.3h-12.9v-3.9H483V226
			h-12.6v-3.8H483v-1.5h-14.5c0.1,1.5,0.2,3.1,0.2,4.8v7.3h14.6V231.3z M462.3,241.3v-21.7h-1.9c0.1,1.3,0.2,2.8,0.2,4.6v17.1H462.3
			z M448.4,228.3c1.6,0,3-0.1,4.1-0.3c-1.6,3.2-4.2,5.7-7.6,7.5l1.4,1.1c3-1.6,5.3-3.8,7-6.7c1.7-2.8,2.6-5.8,2.6-9.1h-9.7v1.5h7.8
			c-0.1,1.5-0.4,2.9-0.9,4.2c-1,0.2-2.6,0.3-4.7,0.3h-3v1.5H448.4z M434.4,237.5c-0.3-0.4-0.7-0.6-1.2-0.7c-0.4,0-0.8,0.1-1.2,0.3
			c-0.3,0.3-0.5,0.6-0.5,1.1c0,0.5,0,0.9,0.3,1.1c0.2,0.3,0.6,0.4,0.9,0.5c0.3,0,0.4,0.3,0.2,0.8c-0.1,0.4-0.3,0.7-0.6,1.1
			c-0.3,0.4-0.6,0.6-1,0.8l0.7,0.5c0.7-0.3,1.3-0.8,1.8-1.6c0.5-0.7,0.8-1.6,0.9-2.5C434.8,238.4,434.6,237.9,434.4,237.5
			 M427.7,230.9v-11.4h-1.9c0.1,1.6,0.1,3.2,0.1,4.8v6.6H427.7z M415.4,236.2H426v3.3h-10.6V236.2z M415.7,222.1v0.6
			c0,3.2-2,5.5-5.9,7l1.2,1.1c2.9-1.3,4.8-2.9,5.6-4.9c0.6,1.1,1.4,2,2.4,2.7c1,0.7,2.1,1.3,3.1,1.7l1-1.2c-1.7-0.6-3-1.4-4.1-2.4
			c-1-1-1.6-2.3-1.6-3.9v-0.7h4.5v-1.4H411v1.4H415.7z M427.7,240.9V232H426v2.7h-10.6V232h-1.9c0.1,1.4,0.2,3,0.2,4.8v4.1H427.7z
			 M407.8,230.3h-19.9v1.5h19.9V230.3z M405.5,225.6h-13.1v-5.9h-1.9c0.1,1.5,0.2,3.1,0.2,4.8v2.5h14.8V225.6z M405.9,240.8v-1.5
			h-13.5v-5h-1.9c0.1,1.5,0.2,3.1,0.2,4.8v1.8H405.9z M386.3,236.9h-19.9v1.5h19.9V236.9z M384.4,229.9h-5.9v-7.7h5.6v-1.5h-7.5
			c0.1,1.5,0.2,3.1,0.2,4.8v5.8h7.5V229.9z M371.1,231.4c1.9,0,3.5-0.1,4.8-0.4v-1.5c-1.2,0.2-2.7,0.4-4.4,0.4h-1.1v-7.7h5.4v-1.5
			h-7.2c0.1,1.4,0.2,3,0.2,4.8v5.8H371.1z M347.9,221.5h5.7V220h-5.7V221.5z M345.5,225h10.3v-1.4h-10.3V225z M353.7,231.9
			c0,1.1-0.3,1.9-0.8,2.6c-0.5,0.6-1.3,1-2.2,1s-1.7-0.3-2.2-1c-0.5-0.6-0.8-1.5-0.8-2.6c0-1.1,0.3-1.9,0.8-2.5
			c0.5-0.6,1.3-0.9,2.2-0.9s1.7,0.3,2.2,0.9C353.4,230,353.7,230.8,353.7,231.9 M346,231.9c0,1.5,0.4,2.7,1.3,3.6
			c0.9,0.9,2,1.4,3.4,1.4c1.4,0,2.5-0.5,3.4-1.4c0.9-0.9,1.3-2.1,1.3-3.6c0-1.5-0.4-2.7-1.3-3.6c-0.8-0.9-2-1.3-3.4-1.3
			s-2.6,0.4-3.4,1.3C346.4,229.2,346,230.4,346,231.9 M359,240.2v-10.7h2.9v11.7h1.7v-21.7h-1.9c0.1,1.3,0.2,2.8,0.2,4.6v4H359v-8.2
			h-1.9c0.1,1.3,0.2,2.8,0.2,4.6v15.7H359z M342.8,242.1h1.3c-2.5-3.3-3.8-7.2-3.8-11.8c0-4.5,1.3-8.5,3.8-11.8h-1.3
			c-1.5,1.5-2.6,3.3-3.3,5.4c-0.7,2.1-1.1,4.2-1.1,6.4c0,2.2,0.4,4.3,1.1,6.3C340.2,238.7,341.3,240.5,342.8,242.1 M325.4,234.8
			c1.8,0,3.2,0.3,4.3,0.8c1.1,0.5,1.6,1.2,1.6,2c0,0.8-0.5,1.4-1.6,1.9c-1.1,0.5-2.5,0.7-4.3,0.7c-1.8,0-3.2-0.2-4.3-0.7
			c-1.1-0.5-1.6-1.2-1.6-2c0-0.8,0.5-1.5,1.6-2C322.1,235,323.6,234.8,325.4,234.8 M335.3,231.7v-1.5h-9.1v-3.1h6.6v-1.5h-12.9v-3.9
			h12.7v-1.5H318c0.1,1.5,0.2,2.8,0.2,3.8v3h6.3v3.1h-9.1v1.5H335.3z M319.7,240.5c1.3,0.7,3.2,1.1,5.6,1.1c2.4,0,4.3-0.4,5.6-1.1
			c1.3-0.7,2-1.7,2-3c0-1.3-0.7-2.3-2-3.1c-1.3-0.8-3.2-1.1-5.6-1.1c-2.4,0-4.3,0.4-5.6,1.1c-1.3,0.8-2,1.8-2,3.1
			C317.7,238.8,318.4,239.8,319.7,240.5 M298,220.7h6.1v-1.3H298V220.7z M301.2,225c2.2,0,3.3,0.5,3.3,1.4c0,0.9-1.1,1.4-3.3,1.4
			c-2.3,0-3.4-0.5-3.4-1.4C297.8,225.5,298.9,225,301.2,225 M307,221.7h-11.9v1.3H307V221.7z M311.2,232.3v-5.9h3v-1.5h-3v-5.4h-1.9
			c0.1,1.6,0.1,3.2,0.1,4.8v7.9H311.2z M311.2,237.9v-4.4h-13.7v1.4h11.9v1.6h-12c0.1,1.1,0.1,2.4,0.1,3.7v0.8h14.1v-1.4h-12.2v-1.7
			H311.2z M300.3,229v1.5c-0.6,0-1.3,0-2.3,0h-3.9v1.4h3.7c4.2,0,7.7-0.2,10.6-0.6v-1.4c-1.4,0.2-3.5,0.4-6.4,0.5V229
			c2.8-0.2,4.1-1,4.1-2.5c0-0.9-0.4-1.5-1.3-2c-0.9-0.4-2.1-0.7-3.7-0.7c-1.6,0-2.8,0.2-3.7,0.7c-0.9,0.4-1.4,1.1-1.4,2
			C296.1,228,297.5,228.8,300.3,229 M271.5,221.4c1.2,0,2.1,0.4,2.8,1.2c0.7,0.8,1.1,1.8,1.1,3c0,1.2-0.4,2.1-1.1,2.9
			c-0.7,0.8-1.6,1.2-2.8,1.2c-1.2,0-2.1-0.4-2.8-1.2c-0.7-0.8-1.1-1.8-1.1-2.9c0-1.2,0.4-2.1,1.1-3
			C269.4,221.8,270.4,221.4,271.5,221.4 M267.5,229.6c1.1,1.1,2.4,1.6,4,1.6c1.6,0,2.9-0.5,4-1.6c1.1-1.1,1.6-2.4,1.6-4
			c0-1.6-0.5-2.9-1.6-4c-1.1-1.1-2.4-1.6-4-1.6c-1.6,0-3,0.5-4,1.6c-1.1,1.1-1.6,2.4-1.6,4C265.9,227.2,266.5,228.5,267.5,229.6
			 M283,235.6v-16h-1.9c0.1,1.6,0.1,3.2,0.1,4.8v11.2H283z M283.8,240.8v-1.5H271v-5.3h-1.9c0.1,1.4,0.2,3,0.2,4.6v2.3H283.8z
			 M260.3,241.3V233h3.3v-1.5h-3.3v-5.2h3.3v-1.5h-3.3v-5.3h-1.9c0.1,1.3,0.2,2.8,0.2,4.6v17.1H260.3z M248.7,220.4
			c0.1,1.1,0.2,2.5,0.2,4.1c0,2.3-0.5,4.5-1.6,6.4c-1,2-2.6,3.5-4.6,4.8l1.5,1.1c1.2-0.8,2.3-1.9,3.4-3.3c1.1-1.4,1.8-2.8,2.2-4.1
			c0.9,2.7,2.8,5,5.5,6.8l1.3-1.2c-4-2.4-6-5.8-6-10.3v-4.4H248.7z M240.9,240.8v-1.5H228V234h-1.9c0.1,1.4,0.2,3,0.2,4.6v2.2H240.9
			z M238.7,225.6v9.9h1.7v-16h-1.9c0.1,1.5,0.1,3.1,0.1,4.6h-3.3v1.5H238.7z M225.3,220.2c0.1,0.8,0.1,1.7,0.1,2.8
			c0,1.7-0.3,3.2-0.8,4.4c-0.6,1.3-1.5,2.4-2.9,3.5l1.3,1.1c1.5-1.1,2.6-2.5,3.3-4.3c0.8,1.9,1.9,3.3,3.3,4.3
			c1.4-1.1,2.4-2.5,3.1-4.3c0.4,0.9,0.8,1.6,1.4,2.3c0.6,0.7,1.1,1.2,1.7,1.5l1.1-1.1c-1.2-0.9-2-2-2.5-3.2
			c-0.5-1.2-0.8-2.7-0.8-4.5v-2.6h-1.8c0.1,0.8,0.1,1.7,0.1,2.8c0,2.8-0.8,5-2.4,6.8c-1.6-1.6-2.4-3.9-2.4-7v-2.6H225.3z"/>
		<path class="st0" d="M198.3,289.7v-19.9h-2.6c0.1,1.2,0.2,2.7,0.2,4.5v15.4H198.3z M191.9,278.4v10.4h2.5v-18.7h-2.6
			c0.1,1.2,0.2,2.7,0.2,4.5v1.4h-2.8v2.4H191.9z M184.7,273.3v1.4c0,2-0.3,3.8-0.9,5.4c-0.6,1.6-1.7,3-3.4,4.2l2.1,1.5
			c0.7-0.5,1.4-1.3,2.1-2.2c0.7-0.9,1.2-1.9,1.5-2.9c0.7,1.9,1.9,3.4,3.3,4.5l1.7-1.6c-1.4-1-2.4-2.3-3-3.7
			c-0.6-1.4-0.8-3.1-0.8-5.1v-1.5h2.8V271h-8.3v2.2H184.7z M174.7,273.1c0,1.5-0.1,3.1-0.4,4.9c-0.2,1.8-0.5,3.3-0.7,4.4h2.7
			c0.3-1.3,0.5-3.1,0.8-5.3c0.3-2.2,0.4-4.3,0.4-6.3h-14.1v2.2H174.7z M179.5,287.1v-2.2h-7v-6.4h-2.7c0.1,0.9,0.1,2.4,0.1,4.4v2h-2
			v-6.4h-2.7c0.1,0.9,0.1,2.5,0.1,4.8v1.6h-4.1v2.2H179.5z"/>
		<path class="st0" d="M360.9,290.8v-21.7H359c0.1,1.3,0.2,2.8,0.2,4.6v17.1H360.9z M354.2,270.3h-9.5v1.5h7.8v5.3h-8
			c0.1,1.6,0.2,3.2,0.2,4.8v3.5h4.6c1.2,0,2.5-0.1,4.2-0.2c1.6-0.2,3-0.4,4.1-0.6v-1.4c-2.3,0.5-4.9,0.8-8.1,0.8h-3.1v-5.4h7.9
			V270.3z M338.5,290.8v-12.6h3.3v-1.6h-3.3v-7.6h-1.9c0.1,1.3,0.2,2.8,0.2,4.6v17.1H338.5z M325,273c0.6-1.2,1.5-1.8,2.7-1.8
			c1.1,0,2,0.6,2.6,1.8c0.6,1.2,0.9,2.8,0.9,4.9c0,2.1-0.3,3.7-0.9,4.9c-0.6,1.2-1.5,1.8-2.6,1.8c-1.1,0-2-0.6-2.7-1.8
			c-0.6-1.2-1-2.8-1-4.9C324,275.8,324.3,274.2,325,273 M323.8,284.1c1,1.3,2.3,1.9,3.8,1.9c1.5,0,2.8-0.6,3.8-1.9
			c1-1.3,1.5-3.3,1.5-6.1c0-2.8-0.5-4.9-1.5-6.2c-1-1.3-2.3-1.9-3.8-1.9c-1.6,0-2.9,0.6-3.9,1.9c-1,1.3-1.5,3.3-1.5,6.2
			C322.3,280.7,322.8,282.8,323.8,284.1 M309.9,284.3c1.8,0,3.2,0.3,4.3,0.8c1.1,0.5,1.6,1.2,1.6,2c0,0.8-0.5,1.4-1.6,1.9
			c-1.1,0.5-2.5,0.7-4.3,0.7c-1.8,0-3.2-0.2-4.3-0.7c-1.1-0.5-1.6-1.2-1.6-2s0.5-1.5,1.6-2C306.7,284.6,308.1,284.3,309.9,284.3
			 M319.9,281.2v-1.5h-9.1v-3.1h6.6v-1.5h-12.9v-3.9h12.7v-1.5h-14.6c0.1,1.5,0.2,2.8,0.2,3.8v3h6.3v3.1H300v1.5H319.9z
			 M304.3,290.1c1.3,0.7,3.2,1.1,5.6,1.1c2.4,0,4.3-0.4,5.6-1.1c1.3-0.7,2-1.7,2-3c0-1.3-0.7-2.3-2-3.1c-1.3-0.8-3.2-1.1-5.6-1.1
			c-2.4,0-4.3,0.4-5.6,1.1c-1.3,0.8-2,1.8-2,3C302.3,288.3,303,289.4,304.3,290.1 M290,287c-0.3-0.4-0.7-0.6-1.2-0.7
			c-0.4,0-0.8,0.1-1.2,0.3c-0.3,0.3-0.5,0.6-0.5,1.1c0,0.5,0,0.9,0.3,1.1c0.2,0.3,0.6,0.4,0.9,0.5c0.3,0,0.4,0.3,0.2,0.8
			c-0.1,0.4-0.3,0.7-0.6,1.1c-0.3,0.4-0.6,0.6-1,0.8l0.7,0.5c0.7-0.3,1.3-0.8,1.8-1.6c0.5-0.7,0.8-1.6,0.9-2.5
			C290.4,288,290.3,287.5,290,287 M271.3,279.4c1.1,0,2.5-0.1,4.2-0.2c1.7-0.1,3.1-0.3,4.2-0.5v-1.5c-2.3,0.5-5,0.7-8.2,0.7h-3.1
			v-8.2h-1.9c0.1,1.4,0.2,2.6,0.2,3.7v6H271.3z M282.8,282.1v-13h-1.9c0.1,1.6,0.1,3.2,0.1,4.8v8.2H282.8z M275.7,283.9
			c1.7,0,3,0.3,4.1,0.8c1,0.5,1.5,1.2,1.5,2.1c0,0.9-0.5,1.6-1.5,2.1c-1,0.5-2.4,0.8-4.1,0.8c-1.7,0-3-0.3-4.1-0.8
			c-1-0.5-1.5-1.2-1.5-2.1s0.5-1.6,1.5-2.1C272.6,284.2,274,283.9,275.7,283.9 M275.7,291.2c2.3,0,4.1-0.4,5.4-1.2
			c1.3-0.8,2-1.8,2-3.2c0-1.3-0.7-2.4-2-3.2c-1.3-0.8-3.1-1.2-5.4-1.2c-2.3,0-4.1,0.4-5.4,1.2c-1.3,0.8-2,1.9-2,3.2s0.7,2.4,2,3.2
			C271.5,290.8,273.4,291.2,275.7,291.2 M259,279.4h-10.8v-7.6H259V279.4z M263.5,288v-1.5h-9.1v-5.6h6.2v-10.5h-14.4
			c0.1,1.5,0.2,3.1,0.2,4.8v5.7h6.2v5.6h-9.1v1.5H263.5z M227.4,282c0,1.6,0,3.1-0.1,4.7c-0.1,1.5-0.3,2.5-0.4,3
			c-0.1,0.5-0.2,0.9-0.2,1.1h1.7l0.2-1c0.1-0.7,0.3-1.8,0.4-3.2c0.1-1.5,0.2-3,0.1-4.6h5.7v8.8h1.7V282h5.4v-1.5h-3.8
			c0.3-1.6,0.6-3.4,0.9-5.4c0.3-2.1,0.4-3.8,0.4-5.1h-15v1.5h13.2c0,0.9-0.1,2-0.3,3.4c-1.5,0.2-4,0.4-7.4,0.4h-5.8v1.4h5.8
			c3.2,0,5.6-0.1,7.2-0.4c-0.2,1.7-0.5,3.1-0.7,4.3H222v1.5H227.4z"/>
		<path class="st0" d="M194.3,322.7c0,1.5-0.1,3.1-0.4,4.9c-0.2,1.8-0.5,3.3-0.7,4.4h2.7c0.3-1.3,0.5-3.1,0.8-5.3
			c0.3-2.2,0.4-4.3,0.4-6.3H183v2.2H194.3z M199.1,336.7v-2.2h-7V328h-2.7c0.1,0.9,0.1,2.4,0.1,4.4v2h-2V328h-2.7
			c0.1,0.9,0.1,2.5,0.1,4.8v1.6h-4.1v2.2H199.1z M178.3,338.8v-2.3h-10.8v-4.1h-2.8c0.1,1.1,0.2,2.4,0.2,4.1v2.3H178.3z
			 M175.3,325.4v8.3h2.6v-14.4h-2.8c0.1,0.8,0.1,2,0.1,3.7h-3.7v2.4H175.3z M165.8,319.8c0.1,0.6,0.1,1.5,0.1,2.6
			c0,1.5-0.5,3-1.5,4.3c-1,1.3-2.2,2.3-3.8,2.9l1.8,1.8c0.9-0.4,1.8-1.1,2.8-1.9c0.9-0.9,1.6-1.8,2-2.8c0.5,0.9,1.2,1.8,2.1,2.5
			c0.9,0.8,1.8,1.3,2.7,1.6l1.6-1.9c-1.5-0.6-2.8-1.5-3.7-2.6c-1-1.2-1.4-2.5-1.4-4v-2.5H165.8z"/>
		<path class="st0" d="M635.9,321.5c0,1.5-0.2,3.3-0.4,5.5c-0.3,2.2-0.6,4.1-0.9,5.7h1.6c0.4-1.6,0.7-3.7,1-6.1
			c0.3-2.4,0.5-4.6,0.5-6.6h-15.1v1.5H635.9z M640,337.5V336h-8v-8.1h-1.8c0.1,1.2,0.1,2.2,0.1,3.2v4.9h-3.5v-8.1H625
			c0.1,1.2,0.1,2.2,0.1,3.2v4.9h-4.9v1.5H640z M617,339.9v-1.5h-12.6v-5.4h-1.9c0.1,1.4,0.2,2.9,0.2,4.5v2.4H617z M614.8,324.6v10.1
			h1.7v-16h-1.9c0.1,1.5,0.1,3,0.1,4.4h-4.9v1.5H614.8z M604.1,319.2c0.1,0.6,0.1,1.5,0.1,2.7c0,1.8-0.6,3.5-1.7,4.9
			c-1.1,1.4-2.5,2.5-4.2,3.3l1.3,1.2c1.2-0.6,2.3-1.4,3.4-2.5c1-1.1,1.8-2.2,2.2-3.5c0.5,1.2,1.3,2.2,2.4,3.2c1.1,1,2.2,1.6,3.2,2.1
			l1.1-1.3c-1.6-0.6-3-1.6-4.1-2.9c-1.1-1.4-1.7-2.9-1.7-4.7v-2.5H604.1z M591,318.6h-8.1v1.4h8.1V318.6z M595,339.9v-1.5h-13.5v-4
			h-1.9c0.1,1.5,0.2,2.8,0.2,3.9v1.7H595z M596.9,332.6v-1.4h-9.1V328h-1.7v3.1H577v1.4H596.9z M585.9,323.5
			c-0.3,1.1-1.2,2.1-2.7,2.7c-1.5,0.7-3.2,1.1-5,1.3l1,1.3c1.6-0.2,3.1-0.6,4.6-1.2c1.5-0.6,2.5-1.4,3.2-2.5
			c0.7,1.1,1.8,1.9,3.3,2.5s3,1,4.5,1.2l1.1-1.3c-1.8-0.1-3.5-0.6-5-1.2c-1.6-0.7-2.5-1.6-2.8-2.7h6.5v-1.4h-15v1.4H585.9z
			 M559.1,322.5c0.6-1.2,1.5-1.8,2.7-1.8c1.1,0,2,0.6,2.6,1.8c0.6,1.2,0.9,2.8,0.9,4.9c0,2.1-0.3,3.7-0.9,4.9
			c-0.6,1.2-1.5,1.8-2.6,1.8c-1.1,0-2-0.6-2.7-1.8c-0.6-1.2-1-2.8-1-4.9C558.2,325.4,558.5,323.7,559.1,322.5 M567,326.4
			c-0.1-2.5-0.7-4.3-1.7-5.4s-2.2-1.7-3.6-1.7c-1.6,0-2.9,0.6-3.9,1.9c-1,1.3-1.5,3.3-1.5,6.2c0,2.8,0.5,4.9,1.5,6.2
			c1,1.3,2.3,1.9,3.8,1.9c0.7,0,1.3-0.1,1.9-0.4c0.6-0.3,1.1-0.7,1.6-1.3c0.5-0.6,0.9-1.4,1.2-2.4c0.3-1,0.5-2.2,0.5-3.6h4.6v12.5
			h1.7v-21.7h-1.9c0.1,1.3,0.2,2.8,0.2,4.6v3.1H567z M543.9,333.9c1.8,0,3.2,0.2,4.3,0.7c1.1,0.5,1.6,1.2,1.6,2
			c0,0.8-0.5,1.4-1.6,1.9c-1.1,0.5-2.5,0.7-4.3,0.7c-1.8,0-3.2-0.2-4.3-0.7c-1.1-0.5-1.6-1.2-1.6-2s0.5-1.5,1.6-2
			C540.6,334.2,542.1,333.9,543.9,333.9 M553.8,330.5v-1.5h-9.1v-3.6h6.8v-1.4h-13.1v-5.3h-1.9c0.1,1.5,0.2,2.9,0.2,4.1v2.6h6.3v3.6
			h-9.1v1.5H553.8z M538.2,339.7c1.3,0.7,3.2,1.1,5.6,1.1c2.4,0,4.3-0.4,5.6-1.1c1.3-0.7,2-1.7,2-3c0-1.3-0.7-2.3-2-3.1
			c-1.3-0.8-3.2-1.1-5.6-1.1c-2.4,0-4.3,0.4-5.6,1.1c-1.3,0.8-2,1.8-2,3C536.2,337.9,536.9,338.9,538.2,339.7 M523.9,336.6
			c-0.3-0.4-0.7-0.6-1.2-0.7c-0.4,0-0.8,0.1-1.2,0.3c-0.3,0.3-0.5,0.6-0.5,1.1c0,0.5,0,0.9,0.3,1.1c0.2,0.3,0.5,0.4,0.9,0.5
			c0.3,0,0.4,0.3,0.2,0.8c-0.1,0.4-0.3,0.7-0.6,1.1c-0.3,0.4-0.6,0.6-1,0.8l0.7,0.5c0.7-0.3,1.3-0.8,1.9-1.6
			c0.5-0.7,0.8-1.6,0.9-2.5C524.3,337.5,524.2,337,523.9,336.6 M502.8,325.6c1,0.7,2.3,1.1,3.8,1.1c1.6,0,2.8-0.4,3.8-1.1
			c1-0.7,1.5-1.7,1.5-2.9c0-1.2-0.5-2.1-1.5-2.9c-1-0.8-2.2-1.1-3.8-1.1c-1.6,0-2.9,0.4-3.8,1.1c-1,0.8-1.5,1.7-1.5,2.9
			C501.4,323.9,501.8,324.8,502.8,325.6 M515.5,333v2.1h1.7v-16.4h-1.9c0.1,1.6,0.1,3.2,0.1,4.8v8.1h-5v1.4H515.5z M506.7,320.1
			c1.1,0,2,0.2,2.6,0.7c0.6,0.5,0.9,1.1,0.9,1.9s-0.3,1.4-0.9,1.9c-0.6,0.5-1.5,0.7-2.6,0.7c-1.1,0-2-0.2-2.6-0.7
			c-0.6-0.5-1-1.1-1-1.9s0.3-1.4,1-1.9C504.7,320.3,505.5,320.1,506.7,320.1 M517.7,339.9v-1.5H505v-3.9H503c0.1,1.4,0.2,2.8,0.2,4
			v1.4H517.7z M504.8,329.8v3.5h1.7v-3.6c3.4-0.1,6.1-0.3,8.2-0.6v-1.5c-2.4,0.4-5.8,0.6-10.5,0.6h-4.5v1.5H504.8z M491.7,318.8
			h-8.4v1.5h8.4V318.8z M495.6,321.9h-16.2v1.5h16.2V321.9z M483.8,329.1c-0.9-0.4-1.4-0.8-1.4-1.5c0-0.6,0.5-1.1,1.4-1.4
			c0.9-0.4,2.1-0.5,3.7-0.5c1.5,0,2.8,0.2,3.7,0.5c0.9,0.3,1.4,0.8,1.4,1.4c0,0.6-0.5,1.1-1.4,1.5c-0.9,0.4-2.2,0.5-3.7,0.5
			C485.9,329.7,484.7,329.5,483.8,329.1 M486.6,334.5v5.9h1.7v-5.9h9.1V333h-19.9v1.5H486.6z M492.4,330.2c1.2-0.6,1.9-1.4,1.9-2.5
			c0-1-0.6-1.9-1.8-2.5c-1.2-0.6-2.9-0.9-4.9-0.9c-2.1,0-3.7,0.3-4.9,0.9c-1.2,0.6-1.8,1.5-1.8,2.5c0,1,0.6,1.9,1.8,2.5
			c1.2,0.6,2.9,0.9,4.9,0.9C489.5,331.1,491.2,330.8,492.4,330.2 M455,328.5c1.1,0,2.5-0.1,4.2-0.2c1.7-0.1,3.1-0.3,4.2-0.6v-1.5
			c-2.3,0.5-5,0.7-8.2,0.7h-3.1v-7.7h-1.9c0.1,1.4,0.2,2.6,0.2,3.7v5.5H455z M466.4,330.6v-11.9h-1.9c0.1,1.6,0.1,3.2,0.1,4.8v7.1
			H466.4z M464.7,338.6h-10.4v-5.3h10.4V338.6z M466.4,340v-8.2h-14c0.1,1.3,0.1,2.9,0.1,4.7v3.5H466.4z M444.2,340.4v-11.8h3.3
			v-1.6h-3.3v-8.4h-1.9c0.1,1.3,0.2,2.8,0.2,4.6v17.1H444.2z M432.5,319.5c0.1,1.1,0.2,2.5,0.2,4.1c0,2.3-0.5,4.5-1.6,6.4
			c-1,2-2.6,3.5-4.6,4.8l1.5,1.1c1.2-0.8,2.3-1.9,3.4-3.3c1.1-1.4,1.8-2.8,2.2-4.1c0.9,2.7,2.8,5,5.5,6.8l1.3-1.2
			c-4-2.4-6-5.8-6-10.3v-4.4H432.5z M421.4,321.5c0,1.5-0.2,3.3-0.4,5.5c-0.3,2.2-0.6,4.1-0.9,5.7h1.6c0.4-1.6,0.7-3.7,1-6.1
			c0.3-2.4,0.5-4.6,0.5-6.6h-15.1v1.5H421.4z M425.6,337.5V336h-8v-8.1h-1.8c0.1,1.2,0.1,2.2,0.1,3.2v4.9h-3.5v-8.1h-1.8
			c0.1,1.2,0.1,2.2,0.1,3.2v4.9h-4.9v1.5H425.6z M402.5,339.9v-1.5h-12.6v-5.4H388c0.1,1.4,0.2,2.9,0.2,4.5v2.4H402.5z M400.4,324.6
			v10.1h1.7v-16h-1.9c0.1,1.5,0.1,3,0.1,4.4h-4.9v1.5H400.4z M389.7,319.2c0.1,0.6,0.1,1.5,0.1,2.7c0,1.8-0.5,3.5-1.7,4.9
			c-1.1,1.4-2.5,2.5-4.3,3.3l1.3,1.2c1.2-0.6,2.3-1.4,3.4-2.5c1-1.1,1.8-2.2,2.2-3.5c0.5,1.2,1.3,2.2,2.4,3.2c1.1,1,2.2,1.6,3.2,2.1
			l1.1-1.3c-1.6-0.6-3-1.6-4.1-2.9c-1.1-1.4-1.7-2.9-1.7-4.7v-2.5H389.7z M374.2,336.6c-0.3-0.4-0.7-0.6-1.2-0.7
			c-0.4,0-0.8,0.1-1.2,0.3c-0.3,0.3-0.5,0.6-0.5,1.1c0,0.5,0,0.9,0.3,1.1c0.2,0.3,0.5,0.4,0.9,0.5c0.3,0,0.4,0.3,0.2,0.8
			c-0.1,0.4-0.3,0.7-0.6,1.1c-0.3,0.4-0.6,0.6-1,0.8l0.7,0.5c0.7-0.3,1.3-0.8,1.9-1.6c0.5-0.7,0.8-1.6,0.9-2.5
			C374.6,337.5,374.4,337,374.2,336.6 M362.1,317.8v1.5h2.5v20.3h-2.5v1.5h4.2v-23.2H362.1z M342.6,333.6v-3.3l0,0h6.2v3.4H342.6z
			 M350.3,333.6v-3.4h6.1l0,0v3.3H350.3z M358,329.2c0-0.2-0.1-0.3-0.4-0.4h-16.1c-0.2,0-0.4,0.1-0.4,0.4v11.5h1.5v-5.6h14v3.4
			c0,0.3-0.2,0.5-0.6,0.7c-0.4,0.1-0.9,0.2-1.5,0.1c-0.6,0-1.1-0.1-1.5-0.2c-0.4-0.1-0.7-0.1-1.1-0.2l0,1.6c0.5,0.1,1,0.2,1.6,0.2
			s1.2,0.1,2,0c0.7,0,1.4-0.2,1.8-0.5c0.5-0.3,0.7-0.7,0.7-1.3V329.2z M360,325.6h-9.8v-1.5h8v-1.5h-8v-1.4h9v-1.5h-9v-1.2h-1.5v1.2
			h-9.1v1.5h9.1v1.4h-8.1v1.5h8.1v1.5h-9.9v1.5H360V325.6z M336.9,341v-1.5h-2.5v-20.3h2.5v-1.5h-4.2V341H336.9z M313,320.5h6.2
			v-1.4H313V320.5z M322,322.4h-11.8v1.4H322V322.4z M313.7,330.5c-0.6-0.4-0.9-1-0.9-1.7c0-0.7,0.3-1.3,0.9-1.7
			c0.6-0.4,1.5-0.6,2.5-0.6c1,0,1.9,0.2,2.5,0.6c0.6,0.4,0.9,1,0.9,1.7c0,0.7-0.3,1.3-0.9,1.7s-1.4,0.6-2.5,0.6
			C315.1,331.1,314.3,330.9,313.7,330.5 M326.6,340.4v-21.7h-1.9c0.1,1.3,0.2,2.8,0.2,4.6v17.1H326.6z M313.4,336.2
			c3.9,0,7.4-0.2,10.5-0.7v-1.5c-1.5,0.3-3.8,0.4-6.8,0.6v-2.2c1.3-0.1,2.3-0.5,3-1.2c0.8-0.7,1.1-1.5,1.1-2.5c0-1.1-0.5-2-1.4-2.7
			c-0.9-0.7-2.1-1-3.7-1c-1.5,0-2.8,0.3-3.7,1c-0.9,0.7-1.4,1.6-1.4,2.7c0,1,0.4,1.8,1.1,2.5c0.8,0.6,1.8,1,3.1,1.2v2.3
			c-0.4,0-1.1,0-1.8,0h-4.4v1.5H313.4z M304.9,330v-11.4H303c0.1,1.6,0.1,3.2,0.1,4.8v6.6H304.9z M292.7,335.3h10.6v3.3h-10.6V335.3
			z M292.9,321.2v0.6c0,3.2-2,5.5-5.9,7l1.2,1.1c2.9-1.3,4.8-2.9,5.6-4.9c0.6,1.1,1.4,2,2.4,2.7c1,0.7,2.1,1.3,3.1,1.7l1-1.2
			c-1.7-0.6-3-1.4-4.1-2.4c-1-1-1.6-2.3-1.6-3.9v-0.7h4.5v-1.4h-10.9v1.4H292.9z M304.9,340v-8.9h-1.7v2.7h-10.6v-2.7h-1.9
			c0.1,1.4,0.2,3,0.2,4.8v4.1H304.9z M269,320.1h6.2v-1.5H269V320.1z M281.7,326.5v5.7h1.7v-13.5h-1.9c0.1,1.6,0.1,3.2,0.1,4.8v1.5
			h-4v1.5H281.7z M271.1,323.5c-0.1,1.5-0.6,2.8-1.7,4c-1.1,1.2-2.5,2.2-4.1,2.9l1.2,1.1c2.7-1.3,4.6-3.1,5.5-5.4
			c0.6,1,1.4,1.9,2.4,2.8c1,0.8,2.1,1.5,3.1,1.8l1-1.2c-1.5-0.5-2.9-1.4-4-2.5c-1.1-1.1-1.7-2.3-1.7-3.6h4.6V322h-10.8v1.4H271.1z
			 M276.5,333.9c1.7,0,3,0.2,4.1,0.7c1,0.5,1.6,1.2,1.6,2c0,0.8-0.5,1.5-1.6,1.9c-1,0.5-2.4,0.7-4.1,0.7c-1.7,0-3.1-0.2-4.1-0.7
			c-1-0.5-1.5-1.1-1.5-2c0-0.8,0.5-1.5,1.5-2C273.4,334.1,274.8,333.9,276.5,333.9 M271.1,339.6c1.3,0.7,3.1,1.1,5.4,1.1
			c2.3,0,4.1-0.4,5.4-1.1c1.3-0.7,2-1.7,2-3c0-1.3-0.7-2.3-2-3.1c-1.3-0.8-3.1-1.1-5.4-1.1c-2.3,0-4.1,0.4-5.4,1.1
			c-1.3,0.8-2,1.8-2,3.1C269.1,337.9,269.7,338.9,271.1,339.6 M263.5,337.5V336h-4.8v-4.6h-1.8c0.1,1.1,0.1,2.4,0.1,4v0.6h-6.8v-4.6
			h-1.8c0.1,1.1,0.1,2.4,0.1,4v0.6h-4.8v1.5H263.5z M249.4,328.3c-1-0.8-1.5-1.9-1.5-3.3c0-1.4,0.5-2.5,1.5-3.2
			c1-0.8,2.4-1.2,4.2-1.2c1.8,0,3.2,0.4,4.2,1.2c1,0.8,1.5,1.8,1.5,3.2c0,1.4-0.5,2.5-1.6,3.3c-1,0.8-2.4,1.2-4.2,1.2
			C251.8,329.5,250.4,329.1,249.4,328.3 M259,329.3c1.3-1,2-2.4,2-4.2s-0.7-3.2-2-4.3c-1.3-1.1-3.2-1.6-5.4-1.6
			c-2.3,0-4.1,0.5-5.4,1.6c-1.3,1.1-2,2.5-2,4.3s0.7,3.2,2,4.2c1.3,1,3.1,1.6,5.4,1.6C255.8,330.9,257.6,330.4,259,329.3
			 M241.9,337.5V336h-9.1v-4.1h6.6v-1.5h-12.9v-3.9h12.6v-1.5h-12.6v-3.8h12.6v-1.5h-14.5c0.1,1.5,0.2,3.1,0.2,4.8v7.3h6.3v4.1H222
			v1.5H241.9z"/>
		<line class="st2" x1="210.3" y1="69.8" x2="210.3" y2="94.4"/>
		<line class="st2" x1="210.3" y1="118.1" x2="210.3" y2="142.7"/>
		<line class="st2" x1="210.3" y1="167.5" x2="210.3" y2="192.1"/>
		<line class="st2" x1="210.3" y1="217.5" x2="210.3" y2="242.1"/>
		<line class="st2" x1="210.3" y1="268.1" x2="210.3" y2="292.7"/>
		<line class="st2" x1="210.3" y1="316.5" x2="210.3" y2="341.1"/>
	</g>
</g>
<g id="Layer_2">
</g>
</svg>
