<?xml version="1.0" encoding="utf-8"?>
<!-- Generator: Adobe Illustrator 27.2.0, SVG Export Plug-In . SVG Version: 6.00 Build 0)  -->
<svg version="1.1" xmlns="http://www.w3.org/2000/svg" xmlns:xlink="http://www.w3.org/1999/xlink" x="0px" y="0px"
	 viewBox="0 0 1000 69.6" style="enable-background:new 0 0 1000 69.6;" xml:space="preserve">
<style type="text/css">
	.st0{fill:#FFFFFF;}
	.st1{fill:#E2746D;}
</style>
<g id="Layer_1">
	<g>
		<g>
			<path class="st0" d="M939.4,21.6h6.7v-1.5h-6.7V21.6z M949.3,23.4h-12.9v1.6h12.9V23.4z M940.1,32.1c-0.7-0.5-1-1.1-1-1.9
				c0-0.8,0.3-1.4,1-1.9c0.7-0.5,1.6-0.7,2.7-0.7c1.1,0,2,0.2,2.7,0.7c0.7,0.5,1,1.1,1,1.9c0,0.8-0.3,1.4-1,1.9
				c-0.7,0.5-1.6,0.7-2.7,0.7C941.6,32.9,940.7,32.6,940.1,32.1 M954.6,42.3v-1.6h-13v-4.7h-2c0.1,1.5,0.2,3.1,0.2,4.7v1.6H954.6z
				 M953.8,36.8v-8.2h3.1v-1.6h-3.1v-7h-1.9c0.1,1.6,0.2,3.3,0.2,5v11.7H953.8z M946.8,33.2c1-0.8,1.5-1.7,1.5-2.9
				c0-1.2-0.5-2.2-1.5-3c-1-0.8-2.3-1.2-4-1.2c-1.7,0-3,0.4-4,1.2c-1,0.8-1.5,1.8-1.5,3c0,1.2,0.5,2.2,1.5,2.9c1,0.8,2.3,1.2,4,1.2
				C944.4,34.4,945.8,34,946.8,33.2 M916.6,21.6h6.7v-1.5h-6.7V21.6z M926.5,23.1h-12.9v1.5h12.9V23.1z M917.3,31.2
				c-0.7-0.4-1-1-1-1.7c0-0.7,0.3-1.3,1-1.7c0.7-0.4,1.6-0.6,2.7-0.6c1.1,0,2,0.2,2.7,0.6c0.7,0.4,1,1,1,1.7c0,0.7-0.3,1.3-1,1.7
				c-0.7,0.4-1.6,0.6-2.7,0.6C918.9,31.8,917.9,31.6,917.3,31.2 M931,34.2v-3.8h3v-1.5h-3v-3.4h3v-1.5h-3v-3.8h-1.9
				c0.1,1.6,0.2,3.3,0.2,5v9.1H931z M919.7,37c1-0.5,2.4-0.7,4.2-0.7c1.8,0,3.2,0.2,4.2,0.7c1,0.5,1.6,1.1,1.6,2
				c0,0.8-0.5,1.5-1.6,1.9c-1,0.5-2.4,0.7-4.2,0.7c-1.8,0-3.2-0.2-4.2-0.7c-1-0.5-1.6-1.1-1.6-2C918.2,38.1,918.7,37.5,919.7,37
				 M924,32.2c1-0.7,1.5-1.6,1.5-2.7c0-1.1-0.5-2.1-1.5-2.8c-1-0.7-2.3-1.1-4-1.1c-1.7,0-3,0.4-4,1.1c-1,0.7-1.5,1.6-1.5,2.8
				c0,1.1,0.5,2,1.5,2.7c1,0.7,2.3,1,4,1C921.7,33.3,923,32.9,924,32.2 M923.9,43.2c2.4,0,4.3-0.4,5.6-1.1c1.3-0.7,2-1.8,2-3.1
				c0-1.3-0.7-2.4-2-3.1c-1.3-0.8-3.2-1.1-5.6-1.1c-2.4,0-4.2,0.4-5.6,1.1c-1.3,0.8-2,1.8-2,3.1c0,1.3,0.7,2.3,2,3.1
				C919.6,42.8,921.5,43.2,923.9,43.2 M903.9,29.6h-20.8v1.5h20.8V29.6z M900.9,38.6v-5.3H886v1.5h13.1v2.3h-13.2
				c0.1,1.2,0.1,2.5,0.1,3.9v1.5h15.4V41h-13.5v-2.4H900.9z M899.2,26.7c1.4-0.7,2.1-1.6,2.1-2.8c0-1.2-0.7-2.2-2.1-2.9
				c-1.4-0.7-3.3-1-5.8-1s-4.4,0.3-5.8,1s-2.1,1.6-2.1,2.9c0,1.2,0.7,2.1,2.1,2.8c1.4,0.7,3.3,1,5.8,1
				C895.9,27.7,897.8,27.4,899.2,26.7 M889,25.7c-1.1-0.4-1.6-1-1.6-1.8c0-0.8,0.5-1.4,1.6-1.8c1.1-0.4,2.6-0.6,4.5-0.6
				c1.9,0,3.4,0.2,4.5,0.6c1.1,0.4,1.6,1,1.6,1.8c0,0.8-0.6,1.4-1.7,1.8c-1.1,0.4-2.6,0.6-4.4,0.6C891.6,26.3,890.1,26.1,889,25.7
				 M878.3,33.8v-6.7h3.2v-1.6h-3.2v-5.4h-1.9c0.1,1.6,0.2,3.3,0.2,5v8.6H878.3z M865.9,20.7c0.1,0.6,0.2,1.4,0.2,2.3
				c0,1.9-0.6,3.6-1.7,5c-1.1,1.4-2.6,2.6-4.5,3.4l1.3,1.2c1.3-0.6,2.5-1.4,3.6-2.5c1.1-1,1.8-2.2,2.3-3.5c0.5,1.2,1.3,2.2,2.5,3.1
				c1.1,0.9,2.2,1.6,3.3,2.1l1.1-1.4c-1.7-0.6-3.1-1.6-4.3-3c-1.2-1.4-1.7-3-1.7-4.8v-2H865.9z M871.2,35.6c1.7,0,3.1,0.3,4.2,0.8
				c1,0.5,1.6,1.3,1.6,2.3c0,0.9-0.5,1.6-1.6,2.2c-1,0.5-2.4,0.8-4.2,0.8c-1.8,0-3.2-0.3-4.2-0.8c-1-0.5-1.6-1.3-1.6-2.2
				c0-0.9,0.5-1.7,1.6-2.2C868,35.9,869.4,35.6,871.2,35.6 M865.6,42c1.3,0.8,3.2,1.2,5.6,1.2c2.4,0,4.3-0.4,5.6-1.2
				c1.3-0.8,2-1.9,2-3.3s-0.7-2.5-2-3.4c-1.3-0.8-3.2-1.3-5.6-1.3c-2.4,0-4.2,0.4-5.6,1.2c-1.3,0.8-2,1.9-2,3.3
				C863.6,40,864.3,41.2,865.6,42 M857.4,42.8V20.1h-1.9c0.1,1.3,0.2,2.9,0.2,4.8v17.9H857.4z M851.2,28.7v13h1.8V20.5H851
				c0.1,1.3,0.2,2.9,0.2,4.8v1.9h-3.9v1.5H851.2z M842.7,21.1c0.1,1.1,0.2,2.4,0.2,4c0,5.5-1.8,9.4-5.5,11.9l1.6,1.1
				c1.1-0.8,2-1.8,2.9-3.1c0.9-1.3,1.5-2.7,1.9-4.2c0.9,2.8,2.4,5,4.5,6.5l1.3-1.2c-1.6-1-2.8-2.4-3.6-4.3c-0.8-1.9-1.2-4.1-1.2-6.5
				v-4.2H842.7z M827.6,38.8c-0.3-0.4-0.7-0.7-1.3-0.7c-0.5,0-0.9,0.1-1.2,0.4c-0.3,0.3-0.5,0.6-0.6,1.1c-0.1,0.5,0,0.9,0.3,1.2
				c0.2,0.3,0.6,0.4,1,0.5c0.3,0,0.4,0.3,0.2,0.9c-0.1,0.4-0.3,0.8-0.6,1.2c-0.3,0.4-0.7,0.7-1,0.9l0.7,0.5c0.7-0.3,1.4-0.9,1.9-1.7
				c0.6-0.8,0.9-1.7,0.9-2.6C828,39.8,827.9,39.3,827.6,38.8 M811.1,35.3v0.5c0,1.4-0.9,2.6-2.6,3.6c-1.7,1-3.6,1.7-5.7,1.9l1.1,1.4
				c1.7-0.3,3.3-0.8,4.8-1.6c1.5-0.7,2.6-1.7,3.3-2.9c0.7,1.2,1.8,2.2,3.3,2.9c1.5,0.7,3.1,1.3,4.8,1.5l1.2-1.3
				c-1.2-0.1-2.5-0.5-3.7-0.9c-1.2-0.5-2.3-1.2-3.2-2c-0.9-0.8-1.3-1.7-1.3-2.6v-0.5H811.1z M811.1,32v2.6h1.8V32h9.5v-1.5h-20.8V32
				H811.1z M807.6,26.7c-1.1-0.5-1.6-1.3-1.6-2.2c0-0.9,0.5-1.7,1.6-2.2c1.1-0.5,2.6-0.8,4.4-0.8c1.9,0,3.3,0.3,4.4,0.8
				c1.1,0.5,1.7,1.3,1.7,2.2c0,1-0.6,1.7-1.7,2.2c-1.1,0.5-2.6,0.8-4.4,0.8C810.2,27.4,808.7,27.2,807.6,26.7 M817.8,27.7
				c1.4-0.8,2.1-1.9,2.1-3.2c0-1.4-0.7-2.4-2.1-3.2c-1.4-0.8-3.3-1.2-5.7-1.2c-2.4,0-4.3,0.4-5.7,1.2c-1.4,0.8-2.1,1.9-2.1,3.2
				c0,1.3,0.7,2.4,2.1,3.2c1.4,0.8,3.3,1.2,5.7,1.2C814.5,28.9,816.4,28.5,817.8,27.7 M797.8,42.8V20.1h-2c0.1,1.3,0.2,2.9,0.2,4.8
				v17.9H797.8z M783,24.2c0.7-1.3,1.6-1.9,2.8-1.9c1.2,0,2.1,0.6,2.8,1.9c0.7,1.2,1,3,1,5.1c0,2.2-0.3,3.9-1,5.1
				c-0.7,1.2-1.6,1.9-2.8,1.9c-1.2,0-2.1-0.6-2.8-1.9c-0.7-1.2-1-2.9-1-5.1C782,27.1,782.3,25.4,783,24.2 M781.8,35.7
				c1.1,1.3,2.4,2,4.1,2c1.6,0,2.9-0.7,4-2c1.1-1.3,1.6-3.5,1.6-6.4c0-3-0.5-5.1-1.6-6.5c-1.1-1.3-2.4-2-4-2c-1.7,0-3,0.7-4.1,2
				c-1.1,1.3-1.6,3.5-1.6,6.5C780.2,32.2,780.7,34.4,781.8,35.7 M754.3,41.9V27.1c0.1-0.9,0.5-1.6,1.3-2.1c0.8-0.5,1.5-0.7,2.2-0.7
				c1.1,0,2,0.4,2.6,1.1c0.6,0.8,0.9,1.8,0.9,3.2v13.3h5.3V28.2c0-2.5-0.7-4.6-2.1-6.2c-1.4-1.6-3.3-2.4-5.7-2.4
				c-1.5,0-3,0.5-4.4,1.5v-9h-5.6c0.2,2,0.2,4.7,0.2,8v21.8H754.3z M738.6,38c-1.4,0-2.6-0.6-3.5-1.8c-0.9-1.2-1.3-2.7-1.3-4.4
				c0-2,0.4-3.7,1.3-5c0.8-1.3,2.1-2,3.6-2c1.6,0,3.1,0.6,4.4,1.7l2.6-3.7c-2-1.8-4.4-2.8-7.3-2.8c-3.1,0-5.5,1.1-7.3,3.3
				c-1.8,2.2-2.7,4.9-2.7,8.1c0,3.3,0.9,6,2.7,8.2c1.8,2.1,4.2,3.2,7.2,3.2c3.5,0,6.2-1.2,8.2-3.7l-2.4-3.4
				C742.7,37.2,740.9,38,738.6,38 M708,35.8c0,2.2,0.7,3.9,2.1,5.1c1.4,1.2,3.2,1.9,5.4,1.9c2.2,0,4-0.6,5.4-1.9
				c0,0.4,0.1,0.8,0.2,1.3h4.8c-0.4-1.4-0.7-3-0.7-4.8v-9.7c0-2.5-0.7-4.4-2.2-5.7c-1.5-1.3-3.5-2-6-2c-4,0-6.9,1.5-8.9,4.5l3.3,3
				c0.7-1,1.5-1.7,2.6-2.1c1-0.4,2-0.7,3-0.7c2,0,3.1,1.1,3,3.4c-3.2,0.1-5.7,0.5-7.5,1.3C709.5,30.7,708,32.8,708,35.8 M720.1,32.4
				c-0.1,2-0.4,3.5-1,4.3c-0.6,0.9-1.8,1.3-3.5,1.3c-0.7,0-1.2-0.2-1.7-0.6c-0.4-0.4-0.6-0.9-0.6-1.7
				C713.3,33.6,715.5,32.5,720.1,32.4 M693.9,25.9c0.7-0.8,1.6-1.2,2.6-1.2c2.4,0,3.6,1.5,3.6,4.5h-7.3
				C692.9,27.8,693.2,26.7,693.9,25.9 M705.7,30.7c-0.1-2.1-0.4-3.9-1-5.4c-0.6-1.5-1.6-2.8-2.9-3.8c-1.4-1-3.1-1.5-5.2-1.5
				c-2.1,0-4,0.6-5.4,1.7c-1.5,1.1-2.5,2.5-3.1,4.2c-0.6,1.7-0.9,3.5-0.9,5.5c0,2,0.3,3.8,1,5.4c0.7,1.7,1.8,3,3.4,4.2
				c1.6,1.1,3.5,1.7,5.7,1.7c1.4,0,2.8-0.3,4.3-1c1.5-0.7,2.7-1.5,3.5-2.5l-2.1-3.4c-1.4,1.5-3.1,2.2-5.3,2.2c-2.9,0-4.6-1.5-5-4.4
				h12.9C705.7,32.7,705.7,31.7,705.7,30.7 M680,41.9V28c0.2-1.4,0.8-2.4,1.9-3c1.1-0.6,2.4-0.6,3.8-0.1l0.9-5.1
				c-2.8-0.5-5.1,0.2-6.7,2.2v-1.7h-5.5c0.2,2.4,0.3,4.7,0.3,7v14.6H680z"/>
			<path class="st1" d="M661.4,24.9v11.5c0,4.2,2,6.3,6.1,6.3c0.5,0,1.2-0.1,2-0.4c0.9-0.3,1.6-0.6,2.2-1l-0.8-3.6
				c-0.9,0.5-1.8,0.7-2.7,0.7c-1,0-1.6-0.7-1.6-2.2V24.9h4.3v-4.7h-4.3v-8h-5.5c0.2,2,0.3,4.2,0.3,6.7v1.3h-3.2v4.7H661.4z
				 M640.2,40.7c1.2,1.4,3.1,2.1,5.5,2.1c2,0,3.7-0.7,5.2-2.1c0,0.6,0.1,1.1,0.3,1.5h4.8c-0.3-1.7-0.5-3.3-0.5-4.8V20.2h-5.6
				c0.2,2,0.3,4.3,0.3,6.8v6.1c0,1.4-0.4,2.5-1.1,3.5c-0.7,0.9-1.5,1.4-2.4,1.4c-1,0-1.8-0.3-2.2-0.9c-0.5-0.6-0.7-1.6-0.7-3V20.2
				h-5.6c0.2,2,0.2,4.3,0.2,6.8v7.7C638.3,37.3,638.9,39.3,640.2,40.7 M631.6,16c-2.1-2.8-5-4.2-8.7-4.2s-6.6,1.4-8.6,4.2
				c-2,2.8-3.1,6.5-3.1,11.2c0,4.7,1,8.4,3.1,11.1c2.1,2.8,4.9,4.2,8.6,4.2c3.7,0,6.6-1.4,8.7-4.2c2.1-2.8,3.2-6.5,3.2-11.1
				C634.8,22.5,633.7,18.8,631.6,16 M618.1,19.6c1.1-2.1,2.7-3.1,4.8-3.1c2.1,0,3.8,1,4.9,3.1c1.1,2.1,1.7,4.6,1.7,7.6
				c0,3-0.6,5.5-1.7,7.5c-1.1,2.1-2.7,3.1-4.9,3.1c-1.5,0-2.7-0.5-3.7-1.6c-1-1-1.7-2.3-2.1-3.9c-0.4-1.5-0.6-3.3-0.6-5.2
				C616.5,24.2,617.1,21.7,618.1,19.6"/>
			<path class="st0" d="M555.8,23.2h3.3c-0.1,2.3-0.5,4.6-1.3,6.9c-0.7,2.3-1.9,4.4-3.5,6.3l1.6,0.7c1.7-2.1,2.9-4.5,3.7-7.2
				c0.8-2.7,1.3-5.5,1.3-8.3h-5.1V23.2z M574,42.8V20.1h-1.9c0.1,1.3,0.2,2.9,0.2,4.8v17.9H574z M561.7,23.2h2.3c0,2.5-0.3,5-1,7.5
				c-0.7,2.6-1.8,4.9-3.4,7l1.6,0.7c1.7-2.4,2.9-5.2,3.7-8.4h3.5v11.8h1.7V20.5h-1.9c0.1,1.3,0.2,2.9,0.2,4.8v3.1h-3.1
				c0.4-2.1,0.6-4.3,0.6-6.7h-4.1V23.2z M535.7,21.6h6.7v-1.5h-6.7V21.6z M545.6,23.1h-12.9v1.5h12.9V23.1z M536.4,31.2
				c-0.7-0.4-1-1-1-1.7c0-0.7,0.3-1.3,1-1.7c0.7-0.4,1.6-0.6,2.7-0.6c1.1,0,2,0.2,2.7,0.6c0.7,0.4,1,1,1,1.7c0,0.7-0.3,1.3-1,1.7
				c-0.7,0.4-1.6,0.6-2.7,0.6C538,31.8,537.1,31.6,536.4,31.2 M550.2,33.8v-5.9h3.2v-1.6h-3.2v-6.1h-1.9c0.1,1.6,0.2,3.3,0.2,5v8.6
				H550.2z M548.4,40.9h-10.4v-4.3h10.4V40.9z M543.2,32.2c1-0.7,1.5-1.6,1.5-2.7c0-1.1-0.5-2.1-1.5-2.8c-1-0.7-2.3-1.1-4-1.1
				c-1.7,0-3,0.4-4,1.1c-1,0.7-1.5,1.6-1.5,2.8c0,1.1,0.5,2,1.5,2.7c1,0.7,2.3,1,4,1C540.8,33.3,542.2,32.9,543.2,32.2 M550.2,42.4
				v-7.3H536c0.1,1.4,0.2,3,0.2,4.9v2.4H550.2z M519.8,42.8V31h3.3v-1.6h-3.3v-9.2h-2c0.1,1.3,0.2,2.9,0.2,4.8v17.9H519.8z
				 M509.1,22.3c1.2,0,2.2,0.4,2.9,1.2c0.7,0.8,1.1,1.8,1.1,2.9c0,1.2-0.4,2.1-1.1,2.9c-0.7,0.8-1.7,1.2-2.9,1.2
				c-1.2,0-2.2-0.4-2.9-1.2c-0.7-0.8-1.1-1.8-1.1-2.9c0-1.2,0.4-2.1,1.1-2.9C506.9,22.7,507.9,22.3,509.1,22.3 M504.7,30.1
				c0.9,1,2.1,1.7,3.6,1.9v4.4c-0.5,0-1.2,0-2.1,0h-4v1.6h3.9c4.1,0,7.7-0.2,11-0.7v-1.5c-1.6,0.3-3.9,0.5-6.9,0.6V32
				c1.4-0.2,2.6-0.9,3.5-1.9c0.9-1,1.4-2.3,1.4-3.7c0-1.6-0.5-2.9-1.6-4c-1.1-1.1-2.5-1.7-4.1-1.7c-1.7,0-3.1,0.5-4.2,1.6
				c-1.1,1.1-1.6,2.4-1.6,4C503.3,27.8,503.8,29,504.7,30.1 M500.2,39.8v-1.5h-9.5v-6h7.1v-1.5h-13.7V23h13.4v-1.5h-15.4
				c0.1,1.6,0.2,3.2,0.2,5v5.8h6.5v6h-9.5v1.5H500.2z M473.9,26v7.6h1.8V20.1h-1.9c0.1,1.5,0.1,3,0.2,4.4h-5.1V26H473.9z
				 M462.8,20.7c0.1,0.6,0.2,1.4,0.2,2.3c0,1.9-0.6,3.6-1.8,5.1c-1.2,1.5-2.7,2.6-4.5,3.4l1.4,1.2c1.2-0.6,2.4-1.4,3.5-2.4
				c1.1-1,1.9-2.2,2.3-3.4c0.6,1.1,1.4,2.2,2.5,3.1c1.1,0.9,2.2,1.6,3.4,2l1.1-1.4c-1.7-0.6-3.1-1.5-4.3-2.9c-1.2-1.4-1.8-3-1.8-4.9
				v-2.1H462.8z M468.4,35.6c1.8,0,3.2,0.3,4.2,0.8c1.1,0.6,1.6,1.3,1.6,2.2c0,0.9-0.5,1.6-1.6,2.2c-1.1,0.5-2.5,0.8-4.2,0.8
				c-1.8,0-3.2-0.3-4.2-0.8c-1.1-0.5-1.6-1.3-1.6-2.2c0-0.9,0.5-1.7,1.6-2.2C465.2,35.9,466.6,35.6,468.4,35.6 M468.4,43.2
				c2.4,0,4.3-0.4,5.7-1.2c1.4-0.8,2-1.9,2-3.3s-0.7-2.5-2.1-3.4c-1.4-0.8-3.3-1.3-5.6-1.3c-2.4,0-4.2,0.4-5.6,1.2
				c-1.4,0.8-2.1,1.9-2.1,3.3c0,1.4,0.7,2.5,2,3.3C464.1,42.8,466,43.2,468.4,43.2 M432.1,41.9V27.1c0.1-0.9,0.5-1.6,1.3-2.1
				c0.8-0.5,1.5-0.7,2.2-0.7c1.1,0,2,0.4,2.6,1.1c0.6,0.8,0.9,1.8,0.9,3.2v13.3h5.3V28.2c0-2.5-0.7-4.6-2.1-6.2
				c-1.4-1.6-3.3-2.4-5.7-2.4c-1.5,0-3,0.5-4.4,1.5v-9h-5.6c0.2,2,0.2,4.7,0.2,8v21.8H432.1z M416.4,38c-1.4,0-2.6-0.6-3.5-1.8
				c-0.9-1.2-1.3-2.7-1.3-4.4c0-2,0.4-3.7,1.3-5c0.8-1.3,2.1-2,3.6-2c1.6,0,3.1,0.6,4.4,1.7l2.6-3.7c-2-1.8-4.4-2.8-7.3-2.8
				c-3.1,0-5.5,1.1-7.3,3.3c-1.8,2.2-2.7,4.9-2.7,8.1c0,3.3,0.9,6,2.7,8.2c1.8,2.1,4.2,3.2,7.2,3.2c3.5,0,6.2-1.2,8.2-3.7l-2.4-3.4
				C420.5,37.2,418.7,38,416.4,38 M385.8,35.8c0,2.2,0.7,3.9,2.1,5.1c1.4,1.2,3.2,1.9,5.4,1.9c2.2,0,4-0.6,5.4-1.9
				c0,0.4,0.1,0.8,0.2,1.3h4.8c-0.4-1.4-0.7-3-0.7-4.8v-9.7c0-2.5-0.7-4.4-2.2-5.7c-1.5-1.3-3.5-2-6-2c-4,0-6.9,1.5-8.9,4.5l3.3,3
				c0.7-1,1.5-1.7,2.6-2.1c1-0.4,2-0.7,3-0.7c2,0,3.1,1.1,3,3.4c-3.2,0.1-5.7,0.5-7.5,1.3C387.3,30.7,385.8,32.8,385.8,35.8
				 M397.9,32.4c-0.1,2-0.4,3.5-1,4.3c-0.6,0.9-1.8,1.3-3.5,1.3c-0.7,0-1.2-0.2-1.7-0.6c-0.4-0.4-0.6-0.9-0.6-1.7
				C391.1,33.6,393.3,32.5,397.9,32.4 M371.7,25.9c0.7-0.8,1.6-1.2,2.6-1.2c2.4,0,3.6,1.5,3.6,4.5h-7.3
				C370.7,27.8,371,26.7,371.7,25.9 M383.5,30.7c-0.1-2.1-0.4-3.9-1-5.4c-0.6-1.5-1.6-2.8-2.9-3.8c-1.4-1-3.1-1.5-5.2-1.5
				c-2.1,0-4,0.6-5.4,1.7c-1.5,1.1-2.5,2.5-3.1,4.2c-0.6,1.7-0.9,3.5-0.9,5.5c0,2,0.3,3.8,1,5.4c0.7,1.7,1.8,3,3.4,4.2
				c1.6,1.1,3.5,1.7,5.7,1.7c1.4,0,2.8-0.3,4.3-1c1.5-0.7,2.7-1.5,3.5-2.5l-2.1-3.4c-1.4,1.5-3.1,2.2-5.3,2.2c-2.9,0-4.6-1.5-5-4.4
				h12.9C383.5,32.7,383.5,31.7,383.5,30.7 M357.8,41.9V28c0.2-1.4,0.8-2.4,1.9-3c1.1-0.6,2.4-0.6,3.8-0.1l0.9-5.1
				c-2.8-0.5-5.1,0.2-6.7,2.2v-1.7h-5.5c0.2,2.4,0.3,4.7,0.3,7v14.6H357.8z"/>
			<path class="st1" d="M336.2,41.9V27.3c0.1-0.8,0.5-1.4,1.2-1.9c0.8-0.5,1.5-0.7,2.1-0.7c1,0,1.9,0.4,2.4,1.1
				c0.6,0.8,0.8,1.8,0.8,3.2v12.9h5.3V28.6c0-2.6-0.7-4.6-2-6.3c-1.4-1.6-3.2-2.4-5.6-2.4c-1.4,0-2.8,0.4-4.3,1.3v-1h-5.6
				c0.2,2,0.3,4.6,0.3,7.9v13.7H336.2z M325.6,41.9V12.4H320c0.2,2,0.3,4.7,0.3,8.1v21.4H325.6z"/>
			<path class="st0" d="M263.3,23.2h3.3c-0.1,2.3-0.5,4.6-1.3,6.9c-0.7,2.3-1.9,4.4-3.5,6.3l1.6,0.7c1.7-2.1,2.9-4.5,3.7-7.2
				c0.8-2.7,1.3-5.5,1.3-8.3h-5.1V23.2z M281.5,42.8V20.1h-1.9c0.1,1.3,0.2,2.9,0.2,4.8v17.9H281.5z M269.2,23.2h2.3
				c0,2.5-0.3,5-1,7.5c-0.7,2.6-1.8,4.9-3.4,7l1.6,0.7c1.7-2.4,2.9-5.2,3.7-8.4h3.5v11.8h1.7V20.5h-1.9c0.1,1.3,0.2,2.9,0.2,4.8v3.1
				h-3.1c0.4-2.1,0.6-4.3,0.6-6.7h-4.1V23.2z M245.9,30.4c1.1,0,2.6-0.1,4.4-0.2c1.8-0.1,3.3-0.3,4.4-0.6V28
				c-2.4,0.5-5.3,0.8-8.6,0.8h-3.2v-8h-2c0.1,1.4,0.2,2.7,0.2,3.9v5.7H245.9z M257.9,32.5V20.1h-1.9c0.1,1.6,0.2,3.3,0.2,5v7.4
				H257.9z M256.1,40.9h-10.9v-5.5h10.9V40.9z M257.9,42.4v-8.5h-14.6c0.1,1.4,0.2,3,0.2,4.9v3.6H257.9z M222.9,36.8
				c3,0,5.8-0.3,8.3-0.9v-1.6c-2.4,0.6-5.1,0.8-8.1,0.8h-2.8V21.1h-2c0.1,1.4,0.2,3.1,0.2,5v10.7H222.9z M234.5,42.8V30.2h3.5v-1.6
				h-3.5v-8.5h-2c0.1,1.3,0.2,2.9,0.2,4.8v17.9H234.5z M198.1,22.1h6.8v-1.5h-6.8V22.1z M195,25.8h13v-1.5h-13V25.8z M212.4,42.8V31
				h3.5v-1.6h-3.5v-9.3h-2c0.1,1.3,0.2,2.9,0.2,4.8v17.9H212.4z M205.2,33.2c0,1.2-0.3,2.1-1,2.8c-0.7,0.7-1.6,1.1-2.7,1.1
				c-1.2,0-2.1-0.4-2.7-1.1c-0.7-0.7-1-1.6-1-2.8c0-1.2,0.3-2.1,1-2.8c0.7-0.7,1.6-1,2.7-1c1.2,0,2.1,0.3,2.7,1
				C204.9,31.1,205.2,32,205.2,33.2 M196,33.2c0,1.6,0.5,2.9,1.5,3.9c1,1,2.4,1.5,4,1.5c1.6,0,2.9-0.5,4-1.5c1-1,1.5-2.3,1.5-3.9
				c0-1.6-0.5-2.9-1.5-3.9c-1-1-2.3-1.5-4-1.5c-1.7,0-3,0.5-4,1.5C196.5,30.3,196,31.6,196,33.2 M169.6,41.9V27.1
				c0.1-0.9,0.5-1.6,1.3-2.1c0.8-0.5,1.5-0.7,2.2-0.7c1.1,0,2,0.4,2.6,1.1c0.6,0.8,0.9,1.8,0.9,3.2v13.3h5.3V28.2
				c0-2.5-0.7-4.6-2.1-6.2c-1.4-1.6-3.3-2.4-5.7-2.4c-1.5,0-3,0.5-4.4,1.5v-9H164c0.2,2,0.2,4.7,0.2,8v21.8H169.6z M153.9,38
				c-1.4,0-2.6-0.6-3.5-1.8c-0.9-1.2-1.3-2.7-1.3-4.4c0-2,0.4-3.7,1.3-5c0.8-1.3,2.1-2,3.6-2c1.6,0,3.1,0.6,4.4,1.7l2.6-3.7
				c-2-1.8-4.4-2.8-7.3-2.8c-3.1,0-5.5,1.1-7.3,3.3c-1.8,2.2-2.7,4.9-2.7,8.1c0,3.3,0.9,6,2.7,8.2c1.8,2.1,4.2,3.2,7.2,3.2
				c3.5,0,6.2-1.2,8.2-3.7l-2.4-3.4C158,37.2,156.2,38,153.9,38 M123.2,35.8c0,2.2,0.7,3.9,2.1,5.1c1.4,1.2,3.2,1.9,5.4,1.9
				c2.2,0,4-0.6,5.4-1.9c0,0.4,0.1,0.8,0.2,1.3h4.8c-0.4-1.4-0.7-3-0.7-4.8v-9.7c0-2.5-0.7-4.4-2.2-5.7c-1.5-1.3-3.5-2-6-2
				c-4,0-6.9,1.5-8.9,4.5l3.3,3c0.7-1,1.5-1.7,2.6-2.1c1-0.4,2-0.7,3-0.7c2,0,3.1,1.1,3,3.4c-3.2,0.1-5.7,0.5-7.5,1.3
				C124.7,30.7,123.2,32.8,123.2,35.8 M135.3,32.4c-0.1,2-0.4,3.5-1,4.3c-0.6,0.9-1.8,1.3-3.5,1.3c-0.7,0-1.2-0.2-1.7-0.6
				c-0.4-0.4-0.6-0.9-0.6-1.7C128.5,33.6,130.8,32.5,135.3,32.4 M109.2,25.9c0.7-0.8,1.6-1.2,2.6-1.2c2.4,0,3.6,1.5,3.6,4.5h-7.3
				C108.1,27.8,108.5,26.7,109.2,25.9 M120.9,30.7c-0.1-2.1-0.4-3.9-1-5.4c-0.6-1.5-1.6-2.8-2.9-3.8c-1.4-1-3.1-1.5-5.2-1.5
				c-2.1,0-4,0.6-5.4,1.7c-1.5,1.1-2.5,2.5-3.1,4.2c-0.6,1.7-0.9,3.5-0.9,5.5c0,2,0.3,3.8,1,5.4c0.7,1.7,1.8,3,3.4,4.2
				c1.6,1.1,3.5,1.7,5.7,1.7c1.4,0,2.8-0.3,4.3-1c1.5-0.7,2.7-1.5,3.5-2.5l-2.1-3.4c-1.4,1.5-3.1,2.2-5.3,2.2c-2.9,0-4.6-1.5-5-4.4
				h12.9C121,32.7,121,31.7,120.9,30.7 M95.3,41.9V28c0.2-1.4,0.8-2.4,1.9-3c1.1-0.6,2.4-0.6,3.8-0.1l0.9-5.1
				c-2.8-0.5-5.1,0.2-6.7,2.2v-1.7h-5.5c0.2,2.4,0.3,4.7,0.3,7v14.6H95.3z"/>
			<path class="st1" d="M72.9,48.1v-7.5c1.4,0.9,2.9,1.3,4.5,1.3c3,0,5.3-1.1,6.8-3.2c1.5-2.1,2.3-4.8,2.3-7.9
				c0-3.1-0.7-5.8-2.2-7.8c-1.5-2.1-3.7-3.1-6.8-3.1c-1.7,0-3.2,0.6-4.5,1.7v-1.3h-5.5c0.2,2.1,0.3,4.4,0.3,6.9v20.9H72.9z
				 M81.1,30.6c0,1.9-0.3,3.4-0.9,4.7c-0.6,1.3-1.6,1.9-2.9,1.9c-1.5,0-2.6-0.6-3.3-1.8c-0.7-1.2-1-2.8-1-4.8c0-1.8,0.3-3.2,1-4.3
				c0.7-1.1,1.7-1.7,3.1-1.7c1.4,0,2.4,0.6,3.1,1.7C80.7,27.3,81.1,28.8,81.1,30.6 M53.2,37.8c-2.9,0-4.5-2.1-4.6-6.3v-19H43
				c0.2,2,0.2,4.7,0.2,8v10.7c0,3.5,0.8,6.2,2.4,8.3c1.6,2.1,4.1,3.1,7.5,3.1c3.4,0,5.9-1,7.5-3.1s2.4-4.8,2.5-8.3V12.4h-5.5
				c0.2,2,0.3,4.7,0.3,8v11C57.8,35.7,56.2,37.8,53.2,37.8"/>
		</g>
	</g>
</g>
<g id="Layer_2">
</g>
</svg>
