<?xml version="1.0" encoding="utf-8"?>
<!-- Generator: Adobe Illustrator 27.3.1, SVG Export Plug-In . SVG Version: 6.00 Build 0)  -->
<svg version="1.1" id="레이어_1" xmlns="http://www.w3.org/2000/svg" xmlns:xlink="http://www.w3.org/1999/xlink" x="0px"
	 y="0px" viewBox="0 0 200 60" enable-background="new 0 0 200 60" xml:space="preserve">
<g>
	<g>
		<path fill="#FFFFFF" d="M11.62,4.74c0,0-1.97,7.3-4.14,14.57C5.33,26.51,5.84,29.6,6.54,31.94c0.7,2.34,2.89,7.09,7.25,4.21
			c4.36-2.89,2.94-11.6,2.49-15.12c-0.82-6.46-4.67-15.9-4.67-15.9C11.54,4.93,11.62,4.74,11.62,4.74z"/>
		<path fill="#FFFFFF" d="M22.1,17.11c0,0-2.25-5.07-2.38-5.87c0,0-1.95,5.66-2.72,8.66c-0.77,3.01-4.66,13.71,0.83,16.83
			c4.72,2.69,7.1-2.66,7.46-4.65C25.73,29.67,26.04,25.74,22.1,17.11z"/>
		<path fill="#FFFFFF" d="M28.21,19.14c0,0,2.23,5.73,2.43,6.43c0.2,0.7,2.12,6.14,0.08,10.83c-1.5,3.45-4.47,1.34-5.1,0.01
			c-1.07-2.23-1.01-3.72-0.2-7.02c0.95-3.89,2.74-9.62,2.74-10.49"/>
		<g>
			<path fill="#0068B6" d="M5.39,43.91v2.36c0,0,3.53-0.79,4.82-0.22c1.29,0.56,3.93,0.95,5.27,0.73c1.35-0.22,1.79-0.79,2.92-0.96
				c1.12-0.17,1.85-0.45,2.64-0.17c0.79,0.28,1.01,0.84,1.85,0.56c0.84-0.28,0.78-1.07,2.41-0.56c1.63,0.51,3.87,0.56,5.27,0.51
				c1.4-0.06,5.83-0.28,5.83-0.28v-2.42c0,0-8.64,0.11-9.25-0.11c-0.62-0.22-1.96-0.62-3.37,0c-1.4,0.62-1.63-0.62-2.97-0.39
				c-1.35,0.22-3.48,1.18-5.16,1.29c-1.68,0.11-4.04-0.61-5.61-0.84C8.48,43.18,5.39,43.91,5.39,43.91z"/>
			<path fill="#008BD5" d="M5.28,48.19v2.58c0,0,2.07-0.67,3.14-0.23c1.07,0.45,2.52,0.17,3.59-0.06c1.07-0.22,3.7-1.23,5.22-1.01
				c1.52,0.22,2.97,0.95,4.09,0.95c1.12,0,5.72-0.28,7.46-0.45c1.74-0.17,7.35-0.9,7.63-0.45v-2.69c0,0-4.09,0.11-5.83,0.34
				c-1.74,0.23-6.9,0.9-8.98,0.51c-2.08-0.39-3.31-0.95-4.99-0.73c-1.68,0.22-4.77,1.12-6.06,1.12c-1.29,0-2.24-0.28-2.81-0.34
				C7.19,47.68,5.28,48.19,5.28,48.19z"/>
			<path fill="#54C2F0" d="M5.34,51.43v2.58c0,0,3.81,0.11,5.44,0.22c1.63,0.11,5.44,0.39,7.35,0.73c1.91,0.34,7.01,0.22,8.75,0.28
				c1.74,0.06,8.41-0.06,9.59-0.56v-2.64c0,0-4.82,0.68-11.5,0.51c0,0-6.45-0.11-12.23-0.84L5.34,51.43z"/>
		</g>
		<path fill="#C3D600" d="M28.94,19.43c0,0,2.23,5.73,2.43,6.43c0.2,0.7,2.12,6.14,0.08,10.83c-1.5,3.45-4.47,1.34-5.1,0.01
			c-1.07-2.23-1.01-3.72-0.2-7.02c0.95-3.89,2.74-9.62,2.74-10.49"/>
		<path fill="#231815" d="M28.2,18.39c0,0-1.75,6.57-2.3,8.17c-0.5,1.47-3.36,8.81,0.87,11.62c3.81,2.54,5.1-4.21,5.19-5.75
			c0.11-1.94-0.49-7.53-3.78-13.33c0,0,2.13,5.73,2.32,6.43c0.19,0.7,2.03,6.14,0.07,10.83c-1.44,3.45-4.27,1.34-4.88,0.01
			c-1.02-2.23-0.96-3.72-0.19-7.02C26.42,25.47,28.28,19.3,28.2,18.39z"/>
		<path fill="#6FB92C" d="M22.92,17.78c0,0-2.25-5.07-2.38-5.87c0,0-1.95,5.66-2.72,8.66c-0.77,3.01-4.66,13.71,0.83,16.83
			c4.72,2.69,7.1-2.66,7.46-4.65C26.55,30.34,26.86,26.4,22.92,17.78z"/>
		<path fill="#231815" d="M22.18,16.97c0,0-2.38-5.27-2.52-6.1c0,0-2,5.9-2.78,9.03c-0.78,3.13-4.76,14.3,0.97,17.52
			c4.93,2.76,7.38-2.81,7.74-4.89C26.05,30.02,26.34,25.93,22.18,16.97z M23.48,36.37c-1.24,1.38-2.81,2.02-5.53,0.55
			c-2.4-1.29-2.98-6.04-2.67-8.02c1.11-7.24,4.44-17.66,4.44-17.66c0.37,1.2,0.76,2.47,1.87,5.17c1.23,2.98,3.02,6.92,3.64,11.61
			C25.79,32.2,24.72,34.99,23.48,36.37z"/>
		<path fill="#231815" d="M20.22,38.29c0,0,0.89-0.38,0.08,3.65C20.3,41.94,19.94,39.12,20.22,38.29z"/>
		<path fill="#231815" d="M28.34,38.96c0,0-0.8-0.29,0,2.95C28.34,41.91,28.85,39.3,28.34,38.96z"/>
		<path fill="#009E41" d="M12.62,5.26c0,0-1.97,7.3-4.14,14.57c-2.15,7.19-1.64,10.29-0.93,12.63c0.7,2.34,2.89,7.09,7.25,4.21
			c4.36-2.89,2.94-11.6,2.49-15.12c-0.82-6.46-4.67-15.9-4.67-15.9S12.55,5.48,12.62,5.26z"/>
		<path fill="#231815" d="M11.62,4.74c0,0-2.69,8.62-5.07,16.05c-2.31,7.21-0.7,16.84,5.14,16.52c5.85-0.31,5.92-8.26,5.77-11.54
			c-0.16-3.27-2.26-14.42-5.85-20.65c0,0,3.86,9.44,4.68,15.9c0.45,3.52,1.87,12.24-2.49,15.12c-4.36,2.88-6.55-1.87-7.25-4.21
			c-0.7-2.34-1.21-5.44,0.94-12.63C9.65,12.05,11.62,4.74,11.62,4.74z"/>
		<path fill="#231815" d="M11.64,37.54c0,0-1.16-0.48,0,4.94C11.64,42.48,12.02,38.65,11.64,37.54z"/>
	</g>
	<g>
		<g>
			<path fill-rule="evenodd" clip-rule="evenodd" fill="#231815" d="M94.64,21.69c0.53,0.07,1.16,0.02,1.69,0.23
				c0,0.01,0,0.02,0,0.03c-0.02,0.01-0.04,0.02-0.06,0.02c-0.44-0.1-2.18-0.09-2.29-0.19c0-0.01,0-0.02,0-0.03c0.02,0,0.04,0,0.06,0
				C94.24,21.73,94.44,21.71,94.64,21.69z"/>
			<path fill-rule="evenodd" clip-rule="evenodd" fill="#231815" d="M93.79,21.74c0.03,0.01,0.05,0.02,0.08,0.03
				c0,0.03,0,0.06,0,0.08c-0.58,0.1-1.16,0.19-1.74,0.29c-0.3,0.07-0.6,0.24-0.97,0.24c0.02-0.03,0.04-0.05,0.06-0.08
				C91.63,22.19,93.6,21.88,93.79,21.74z"/>
			<g>
				<path fill-rule="evenodd" clip-rule="evenodd" fill="#231815" d="M83.4,17.54c0.44,0.07,0.15,0.71,0.46,0.95
					c0.32,0.25,0.93,0.08,1.16,0.45c0.2,0.31,0.22,0.94,0.19,1.43c-0.07,1.18,0.21,3.21-0.28,3.96c0.02,0.08,0.05,0.16,0.07,0.25
					c-0.03,0.2-0.07,0.32-0.16,0.46c-0.05,0.09,0.14,0.36-0.02,0.6c-0.04,0.03-0.08,0.05-0.11,0.08c0.07,0.08,0.12,0.07,0.16,0.2
					c-0.08,0.04-0.05,0-0.03,0.08c0.01,0.04,0.02,0.07,0.02,0.11c0.4-0.27,0.62-0.66,0.97-1c0.66-0.66,1.6-1.02,2.36-1.58
					c0.02,0.01,0.04,0.02,0.05,0.03c-0.03,0.1-0.06,0.2-0.09,0.3c0.03,0.01,0.05,0.02,0.08,0.03c0.35,0.12,0.82-0.39,1.01-0.59
					c0.65,0.11,1.66-0.38,2.22-0.63c0.11,0,0.22,0.01,0.33,0.01c1.21-0.3,3.24-0.93,4.6-0.54c0-0.05,0-0.11,0.01-0.16
					c0.41,0.03,0.55,0.22,0.81,0.3c0.25,0.01,0.49,0.02,0.74,0.03c0.21,0.12,0.4,0.24,0.73,0.33c0.02,0.04,0.03,0.07,0.05,0.11
					c-0.21,0.29-0.29,0.57-0.68,0.66c-0.31,0.07-0.77-0.29-0.86-0.33c-0.44-0.22-2.85,0.06-3.51,0.2c-0.39,0.15-0.78,0.3-1.17,0.45
					c-1.91,0.76-3.8,1.2-4.98,2.72c0.04,0.02,0.07,0.04,0.11,0.06c-0.02,0.04-0.04,0.07-0.06,0.11c-0.37-0.11-1.14,1.23-1.38,1.65
					c-0.53,0.91-1.08,2-1.4,3.05c-0.09,0.3,0.08,0.81,0.05,0.99c-0.13,0.67-0.15,1.47,0.12,2.03c-0.09,0.15-0.15,0.25-0.26,0.37
					c-0.35-0.07-0.54-0.35-0.84-0.39c-0.27-0.04-0.42,0.11-0.71-0.05c-0.05-0.13-0.09-0.22-0.12-0.39
					c-0.11,0.03-0.24,0.07-0.36,0.01c-0.1-0.08-0.1-0.23-0.18-0.34c-0.04,0.02-0.07,0.04-0.11,0.05c0.01,0.07,0.01,0.15,0.02,0.22
					c-0.02,0.01-0.04,0.02-0.06,0.03c-0.33-0.17-0.33-0.89-0.33-1.36c0-0.46,0.19-0.87,0.29-1.28c0.02-0.61,0.05-1.22,0.07-1.83
					c0.3-2.57,0.17-5.23,0.56-7.73c0.11-0.69-0.1-1.28-0.15-1.87c0.05-0.11,0.1-0.22,0.15-0.32c-0.06-0.17-0.11-0.33-0.17-0.5
					c0.03-0.21,0.38-0.22,0.46-0.42C83.36,18.09,82.97,17.93,83.4,17.54z"/>
				<path fill-rule="evenodd" clip-rule="evenodd" fill="#231815" d="M79.54,21.87c0.04,0,0.07,0,0.11,0
					c-0.02,0.04-0.04,0.07-0.06,0.11C79.4,22,78.7,22.24,78.6,22.02c0.02-0.01,0.04-0.02,0.06-0.03
					C78.95,21.95,79.25,21.91,79.54,21.87z"/>
				<path fill-rule="evenodd" clip-rule="evenodd" fill="#231815" d="M91,22.35c0.04,0,0.07,0,0.11,0
					c-0.07,0.16-1.84,0.79-2.06,0.83C89.18,22.89,90.7,22.52,91,22.35z"/>
				<path fill-rule="evenodd" clip-rule="evenodd" fill="#231815" d="M79.59,22.09c0.16,0,0.21,0,0.27,0.09
					c0.1,0.26,0.12,0.53,0.25,0.75c0.57,0.11,1.31,0.31,1.53,0.77c-0.24,0.68-0.77,0.72-1.09,1.25c-0.29,0.48-0.31,1.11-0.56,1.68
					c-0.15,0.22-0.31,0.45-0.46,0.67c-0.01,0.14-0.03,0.27-0.04,0.41c-0.1,0.23-0.33,0.53-0.44,0.75c0,0.12-0.01,0.24-0.01,0.36
					c-0.07,0.22-0.37,0.5-0.44,0.7c-0.01,0.15-0.01,0.29-0.02,0.44c-0.07,0.19-0.26,0.33-0.32,0.51c0.01,0.1,0.03,0.2,0.04,0.3
					c-0.09,0.36-0.19,1-0.35,1.27c-0.2-0.05-0.24-0.05-0.31,0.13c-0.13-0.04-0.1-0.07-0.22-0.06c-0.08,0.22-0.27,0.26-0.43,0.4
					c-0.37-0.15-0.95-0.01-1.32,0.03c-0.04-0.03-0.07-0.06-0.11-0.09c0.08-0.49-0.15-0.85,0.02-1.34c0.18-0.52,0.23-1.22,0.42-1.77
					c0.29-0.81,0.52-1.49,0.85-2.27c0.14-0.34,0.71-1.81,0.54-2.03c-0.59,0.18-1.18,0.36-1.77,0.54c-1.19,0.56-2.65,2.25-4.16,1.35
					c-0.1-0.48,0.36-1.1,0.55-1.51c0.04-0.29,0.08-0.58,0.11-0.87c0.24-0.46,1.02-0.89,1.55-1.04c0.19-0.04,0.39-0.08,0.58-0.12
					c0.27-0.19,0.46-0.44,0.81-0.41c0.04-0.15,0.07-0.18,0.15-0.27c0.03,0,0.05,0,0.08,0c0.02,0.06,0.03,0.11,0.05,0.17
					C76.77,22.6,78.18,22.35,79.59,22.09z"/>
				<path fill-rule="evenodd" clip-rule="evenodd" fill="#231815" d="M98.59,23.21c0.07,0.11,0.14,0.23,0.21,0.34
					c-0.01,0.02-0.02,0.04-0.03,0.05c-0.13,0.01-0.15,0.01-0.24-0.04C98.54,23.44,98.57,23.32,98.59,23.21z"/>
				<path fill-rule="evenodd" clip-rule="evenodd" fill="#231815" d="M88.9,23.5c-0.3,0.03-0.37,0.24-0.64,0.31
					c0.09-0.22,0.32-0.25,0.48-0.39c-0.05-0.01-0.11-0.02-0.16-0.03c0.05-0.14,0.23-0.19,0.31-0.13c-0.03,0.04-0.06,0.07-0.09,0.11
					C88.93,23.41,88.88,23.36,88.9,23.5z"/>
				<path fill-rule="evenodd" clip-rule="evenodd" fill="#231815" d="M88.42,23.37c0.1,0.07,0.04,0,0.05,0.11
					c-0.01,0.01-0.02,0.02-0.03,0.03c-0.03-0.01-0.05-0.02-0.08-0.03c0-0.01,0-0.02,0-0.03C88.38,23.43,88.4,23.4,88.42,23.37z"/>
				<path fill-rule="evenodd" clip-rule="evenodd" fill="#231815" d="M87.26,23.44c0.08,0.06,0.04,0.01,0.08,0.11
					c-0.05,0.01-0.09,0.02-0.14,0.02C87.22,23.53,87.24,23.49,87.26,23.44z"/>
				<path fill-rule="evenodd" clip-rule="evenodd" fill="#231815" d="M74.09,23.2c0.08,0.05,0.04,0.01,0.08,0.11
					c-0.04,0-0.07,0-0.11,0c-0.02-0.01-0.04-0.02-0.05-0.03c0-0.01,0-0.02,0-0.03c0.01-0.01,0.02-0.02,0.03-0.03
					C74.05,23.21,74.07,23.21,74.09,23.2z"/>
				<path fill-rule="evenodd" clip-rule="evenodd" fill="#231815" d="M86.38,24.26c0.03,0,0.06,0,0.08,0c0,0.04,0,0.07,0,0.11
					c-0.04,0-0.07,0-0.11,0C86.36,24.33,86.37,24.3,86.38,24.26z"/>
				<path fill-rule="evenodd" clip-rule="evenodd" fill="#231815" d="M86.15,24.55c0.02,0,0.04,0,0.05,0
					C86.19,24.55,86.17,24.55,86.15,24.55z"/>
				<path fill-rule="evenodd" clip-rule="evenodd" fill="#231815" d="M85.78,24.89c0.03,0,0.06,0,0.08,0c0,0.01,0,0.02,0,0.03
					c-0.04,0.04-0.08,0.07-0.11,0.11C85.76,24.98,85.77,24.94,85.78,24.89z"/>
				<path fill-rule="evenodd" clip-rule="evenodd" fill="#231815" d="M85.61,25.11c0.02,0,0.04,0,0.06,0
					c-0.01,0.05-0.02,0.09-0.03,0.14c-0.02,0-0.04,0-0.06,0C85.59,25.2,85.6,25.15,85.61,25.11z"/>
			</g>
		</g>
		<g>
			<path fill-rule="evenodd" clip-rule="evenodd" fill="#231815" d="M186.45,14.15c0.03,0.02,0.05,0.04,0.08,0.06
				c-0.01,0.04-0.02,0.07-0.03,0.11c-0.03,0-0.05,0-0.08,0C186.43,14.26,186.44,14.2,186.45,14.15z"/>
			<path fill-rule="evenodd" clip-rule="evenodd" fill="#231815" d="M187.64,16.03c0.03,0.02,0.05,0.04,0.08,0.06
				c0,0.01,0,0.02,0,0.03C187.61,16.07,187.67,16.1,187.64,16.03z"/>
			<path fill-rule="evenodd" clip-rule="evenodd" fill="#231815" d="M182.94,20.76c0.06,0.01,0.11,0.02,0.16,0.03
				c-0.02,0.04-0.04,0.09-0.06,0.13c-0.06,0-0.11,0-0.17-0.01c0-0.03,0-0.05,0-0.08C182.9,20.81,182.92,20.79,182.94,20.76z"/>
			<path fill-rule="evenodd" clip-rule="evenodd" fill="#231815" d="M189.48,22.65c0.16,0.1,0.26,0.37,0.28,0.59
				c-0.01,0-0.02,0-0.03,0c-0.02-0.01-0.04-0.02-0.05-0.03C189.61,23.02,189.54,22.83,189.48,22.65z"/>
			<path fill-rule="evenodd" clip-rule="evenodd" fill="#231815" d="M194.65,23.42c-0.5,0.74-1.42,1.3-1.81,2.15
				c-0.13,0.29,0.04,0.79,0.01,1.12c-0.03,1.13-0.07,2.26-0.1,3.39c-0.18,0.1-0.45,0.13-0.74,0.11c-0.01,0.02-0.02,0.04-0.03,0.05
				c0.01,0.02,0.02,0.04,0.02,0.05c0.15,0.01,0.29,0.01,0.44,0.02c-0.03,0.06-0.06,0.13-0.09,0.19c-0.16,0.07-0.55,0.1-0.74,0.08
				c0.04,0.04,0.07,0.07,0.11,0.11c0.26,0.12,0.72,0.03,0.91-0.1c0.02-0.1,0-0.23-0.04-0.33c0.04,0,0.07,0,0.11,0
				c0.05,0.49,0.02,0.93-0.08,1.39c-0.18,0.09-0.56,0.09-0.83,0.11c-0.04-0.05-0.07-0.09-0.1-0.14c0.05-0.07,0.1-0.14,0.14-0.21
				c-0.01-0.01-0.02-0.02-0.02-0.03c-0.61,0.12-1.3,0.15-1.93,0.34c-0.57,0.17-1.08,0.35-1.77,0.37c-0.01,0-0.02,0-0.03,0
				c-0.02-0.03-0.04-0.06-0.05-0.08c0.15-0.23,0.28-0.55,0.6-0.61c0-0.04,0-0.07,0.01-0.11c-0.35-0.05-0.82,0.24-1.24,0.26
				c-0.01-0.01-0.02-0.02-0.03-0.03c0-0.02,0-0.04,0-0.05c0.33-0.29,0.84-0.21,1.3-0.39c0.03-0.02,0.06-0.04,0.09-0.05
				c-0.29-0.22-0.85,0.17-1.24,0.17c0.21-1.12,1.22-2.01,1.54-3.12c-0.01-0.02-0.02-0.04-0.03-0.05c-0.06,0.02-0.13,0.05-0.19,0.07
				c-0.06-0.06-0.05-0.04-0.08-0.14c0.3-0.22,0.6-0.43,0.9-0.65c0.85-0.59,1.19-2.18,1.06-3.36c-0.25-0.2-0.7-0.21-0.92-0.39
				c-0.19-0.16-0.23-0.52-0.39-0.73c-0.16-0.13-0.32-0.25-0.48-0.38c-0.01-0.03-0.02-0.05-0.02-0.08c0.19-0.14,0.38-0.28,0.57-0.42
				c0.03-0.17-0.01-0.27-0.04-0.44c-0.57-0.29-1.34-0.23-1.86-0.1c-0.08-0.04-0.16-0.08-0.24-0.12c0-0.05,0-0.09,0-0.14
				c0.39-0.35,1.01-0.18,1.26-0.72c0.1-0.22,0.24-0.63,0.2-0.92c-0.12-0.79-1.12-3.27-1.56-3.78c-0.16-0.07-0.33-0.14-0.49-0.21
				c-0.15-0.14-0.35-0.7-0.35-0.86c-0.03-0.05-0.05-0.11-0.08-0.17c-0.05,0.01-0.09,0.01-0.14,0.02c-0.07,0.25-0.04,0.32,0.07,0.5
				c-0.06,0.08-0.44,0.64-0.49,0.67c-0.1,0.06-0.12,0.02-0.27-0.01c-0.09,0.14-0.09,0.42-0.11,0.65c-0.37,0.09-0.46,0.28-0.52,0.69
				c0.69,0.93,1.19,2.07,1.77,3.11c-0.11,0.13-0.32,0.13-0.5,0.17c0,0.01,0,0.02,0,0.03c0.17,0,0.35,0,0.52-0.01
				c0.01,0.04,0.02,0.07,0.02,0.11c0,0.01,0,0.02,0,0.03c-0.5,0.23-1.17,0.13-1.68,0.27c-0.47,0.13-1.07,0.21-1.55,0.33
				c-0.25,0.04-0.5,0.07-0.74,0.11c-0.02,0.02-0.04,0.03-0.06,0.05c-0.01,0.05-0.02,0.11-0.03,0.16c0.01,0.01,0.02,0.02,0.03,0.03
				c0.61-0.16,1.22-0.32,1.83-0.48c1-0.17,2.08-0.2,3.02-0.3c0,0.01,0,0.02,0,0.03c-0.22,0.26-0.44,0.51-0.66,0.77
				c-0.51,0.07-1.01,0.15-1.52,0.22c-0.55,0.11-1.2,0.2-1.71,0.32c-0.31,0.01-0.62,0.01-0.93,0.02c-0.23,0.07-0.38,0.22-0.75,0.25
				c-0.04,0.15,0.02,0.22,0.1,0.33c-0.04,0.25-0.17,0.3-0.29,0.45c0.04,0.05,0.07,0.11,0.1,0.17c0.98,0.26,2.04,0.01,2.91-0.19
				c0.01,0,0.02,0,0.03,0c0.01,0.05,0.02,0.09,0.02,0.14c-0.25,0.45-0.64,0.77-0.95,1.14c-0.32,0.39,0,0.88-0.15,1.23
				c-0.21,0.28-0.42,0.57-0.64,0.85c-0.13,0.25-0.28,1.38-0.14,1.61c0.38,0.61,0.95,0.55,1.75,0.8c0.42,0.14,1.03,0.21,1.55,0.17
				c-0.1,0.87-1.09,2.54-1.52,3.18c-0.35,0.52-0.73,0.88-0.85,1.56c0.21,0.06,1.23,0.33,1.41,0.33c1.2-0.05,2.27-0.47,3.29-0.7
				c0.48-0.1,0.96-0.2,1.44-0.3c0.47-0.14,1.85-0.54,2.29-0.38c0.32,0.21,0.05,3.06-0.02,3.4c0.55,0.72,2.3,0.53,2.56-0.29
				c0.04-0.12,0.16-0.9,0.15-0.98c-0.05-0.07-0.11-0.13-0.16-0.2c0.08-0.76,0.15-1.53,0.22-2.29c0.25-2.4,0.51-4.8,0.76-7.21
				c-0.06-0.39-0.51-0.63-0.65-1.04c0.31-0.29,0.5,0.26,0.9,0.14c0.04-0.03,0.08-0.07,0.11-0.1
				C196.01,23.78,195.04,23.41,194.65,23.42z M185.55,26.5c-0.15-0.27,0.98-1.74,1.18-2.12c0.12-0.07,0.28-0.07,0.44-0.12
				c1.11,0.32,1.73,0.28,1.23,1.53C187.98,26.08,186.37,26.62,185.55,26.5z"/>
			<path fill-rule="evenodd" clip-rule="evenodd" fill="#231815" d="M192.39,26.89c0.04,0.01,0.07,0.02,0.11,0.03
				c0.01,0.02,0.02,0.04,0.03,0.06c-0.03,0.15-0.04,0.13-0.15,0.19c-0.04-0.03-0.09-0.06-0.13-0.09c0-0.03,0-0.05,0-0.08
				C192.29,26.96,192.34,26.93,192.39,26.89z"/>
			<path fill-rule="evenodd" clip-rule="evenodd" fill="#231815" d="M191.3,30.39c0.03,0,0.05,0,0.08,0c0,0.01,0,0.02,0,0.03
				c-0.04,0.01-0.08,0.01-0.11,0.02C191.28,30.42,191.29,30.41,191.3,30.39z"/>
			<path fill-rule="evenodd" clip-rule="evenodd" fill="#231815" d="M190.58,30.5c0.03,0.02,0.05,0.04,0.08,0.06
				c0,0.01,0,0.02,0,0.03c-0.03,0-0.07,0-0.11,0C190.56,30.55,190.57,30.53,190.58,30.5z"/>
			<path fill-rule="evenodd" clip-rule="evenodd" fill="#231815" d="M190.41,30.55c0.05,0.01,0.09,0.02,0.13,0.03
				c-0.01,0.02-0.02,0.04-0.03,0.05c-0.34,0.02-0.47,0.16-0.86,0.16c0-0.02,0-0.04,0-0.05C189.92,30.67,190.16,30.61,190.41,30.55z"
				/>
			<path fill-rule="evenodd" clip-rule="evenodd" fill="#231815" d="M191.4,30.61c0.1,0.02,0.08,0.01,0.13,0.06
				c0,0.01,0,0.02,0,0.03c-0.05,0-0.09,0-0.14,0C191.4,30.67,191.4,30.64,191.4,30.61z"/>
			<path fill-rule="evenodd" clip-rule="evenodd" fill="#231815" d="M191.2,30.66c0.05,0.01,0.11,0.02,0.16,0.03
				c-0.01,0.03-0.02,0.06-0.03,0.08c-0.07,0.02-0.15,0.03-0.22,0.05c0.02-0.03,0.04-0.05,0.06-0.08
				C191.19,30.71,191.2,30.69,191.2,30.66z"/>
			<path fill-rule="evenodd" clip-rule="evenodd" fill="#231815" d="M189.47,30.76c0.03,0.02,0.07,0.04,0.11,0.06
				c-0.01,0.02-0.02,0.04-0.03,0.05c-0.18,0.06-0.56,0.2-0.72,0.08c0.03-0.04,0.06-0.07,0.09-0.11
				C189.11,30.82,189.29,30.79,189.47,30.76z"/>
			<path fill-rule="evenodd" clip-rule="evenodd" fill="#231815" d="M190.73,30.83c0.02,0,0.04,0,0.06,0c0,0.03,0,0.05,0,0.08
				c-0.04,0-0.08,0-0.11,0C190.69,30.89,190.71,30.86,190.73,30.83z"/>
			<path fill-rule="evenodd" clip-rule="evenodd" fill="#231815" d="M190.46,30.9c0.04,0.02,0.07,0.04,0.11,0.06
				c0,0.01,0,0.02,0,0.03c-0.28,0.06-0.56,0.22-0.85,0.13c0-0.01,0-0.02,0-0.03C189.96,31.03,190.21,30.97,190.46,30.9z"/>
		</g>
		<g>
			<path fill-rule="evenodd" clip-rule="evenodd" fill="#231815" d="M177.76,17.83c0.07,0.01,0.14,0.02,0.22,0.03
				c0,0.01,0,0.02,0,0.03c-0.01,0.02-0.02,0.04-0.03,0.05c-0.16,0.02-0.22,0.06-0.27-0.09C177.71,17.84,177.74,17.83,177.76,17.83z"
				/>
			<path fill-rule="evenodd" clip-rule="evenodd" fill="#231815" d="M177.61,18.18c0.06,0.01,0.11,0.02,0.16,0.03
				c0.19,0.4,0.25,0.81,0.65,1.07c0.37,0.24,0.67,0.12,0.89,0.5c-0.14,0.81-0.61,1.38-0.82,2.16c-0.29,1.1-0.51,2.41-0.84,3.48
				c-0.2,0.64-0.42,2.15-0.89,2.43c-0.24,0.13-1.51,0.39-1.75,0.07c-0.05-0.06-0.11-0.11-0.16-0.17c0.05-0.46,0.24-0.78,0.34-1.11
				c0.17-0.52,0.3-1.3,0.51-1.82c0.23-0.58,0.05-1.18,0.15-1.91c0.11-0.77,0.24-1.23,0.02-1.89c-0.71-0.01-1.5,0.42-2.13,0.61
				c-0.98,0.29-2.19,0.48-3.31,0.64c-0.58,0.09-1.34,0.44-1.89,0.09c-0.27-0.83,0.04-0.85,0.44-1.44c0.21-0.31,0.31-0.53,0.55-0.77
				c-0.02-0.06-0.03-0.13-0.05-0.19c0.08-0.04,0.17-0.09,0.25-0.13c0.17,0.32,0.85,0.13,1.15,0.04c0.46-0.13,1.25-0.29,1.79-0.26
				c0.41,0.02,1.33-0.35,1.8-0.4c0,0.01,0,0.02,0,0.03c-0.08,0.08-0.17,0.16-0.26,0.24c-0.04,0.09-0.03,0.13,0.02,0.19
				c0.07,0.1,0.17,0.13,0.32,0.15c0.53-0.26,1.21-0.19,1.68-0.35c0.44-0.24,0.88-0.48,1.32-0.72c0.03-0.12,0.06-0.24,0.09-0.35
				c-1.02-0.02-1.67,0.74-2.69,0.75C175.12,18.81,177.14,18.39,177.61,18.18z"/>
			<path fill-rule="evenodd" clip-rule="evenodd" fill="#231815" d="M173.72,19.05c0.05,0.01,0.11,0.02,0.16,0.03
				c-0.01,0.02-0.02,0.04-0.03,0.05c-0.01,0-0.02,0-0.02,0C173.7,19.09,173.77,19.15,173.72,19.05z"/>
			<path fill-rule="evenodd" clip-rule="evenodd" fill="#231815" d="M173.3,19.09c0.05,0.01,0.11,0.02,0.16,0.03
				c0.01,0.01,0.02,0.02,0.03,0.03c-0.01,0.02-0.02,0.04-0.03,0.05c-0.09,0.01-0.19,0.01-0.28,0.02c0.01-0.03,0.02-0.05,0.03-0.08
				C173.25,19.12,173.27,19.1,173.3,19.09z"/>
			<path fill-rule="evenodd" clip-rule="evenodd" fill="#231815" d="M172.14,19.32c0.13,0.01,0.25,0.03,0.38,0.04
				c-0.02,0-0.04,0-0.05,0c-0.21,0.09-1.45,0.35-1.62,0.21c0.02-0.02,0.04-0.04,0.06-0.05c0-0.02,0-0.04,0-0.05
				C171.16,19.53,171.97,19.48,172.14,19.32z"/>
			<path fill-rule="evenodd" clip-rule="evenodd" fill="#231815" d="M168.63,24.8c0.07,0.01,0.14,0.02,0.22,0.03
				c-0.17,0.25-0.17,0.64-0.31,0.95c0.2,0.61,0.79,0.66,1.19,1.06c-0.1,0.65-0.36,1.53-0.27,2.18c0.17,1.34,0.26,3.16,0.19,4.39
				c-0.04,0.74,0.28,1.5-0.08,2.22c-0.27,0.53-1.56,0.36-2.03,0.2c-0.41-1.01-0.07-2.09-0.24-3.22c-0.09-0.58,0-1.23-0.1-1.78
				c-0.14-0.8-0.53-2.59-0.2-3.49c0.11-0.11,0.23-0.23,0.34-0.34c0.09-0.15,0.06-0.41,0.13-0.54
				C168.08,26.36,168.33,25.29,168.63,24.8z"/>
			<path fill-rule="evenodd" clip-rule="evenodd" fill="#231815" d="M172.43,27.03c0.05,0,0.09,0,0.14,0.01
				c-0.1,0.36-0.57,0.72-0.43,1.22c0.46,0.2,0.67,0.59,1.09,0.78c-0.08,0.81-0.44,1.74-0.31,2.59c0.68,0.25,1.82-0.1,2.19,0.08
				c-0.01,0.02-0.02,0.04-0.03,0.05c-0.06,0.04-0.13,0.07-0.2,0.1c0.02,0.04,0.03,0.07,0.05,0.11c0.7,0.08,1.42-0.08,2.12-0.2
				c0.13,0.02,0.27,0.05,0.41,0.07c0.36-0.08,1.57-0.57,1.91-0.42c0.01,0.34-0.2,0.44-0.14,0.82c0.22,0.32,0.29,0.12,0.65,0.22
				c0.27,0.16,0.54,0.31,0.8,0.47c0.01,0.08,0.01,0.16,0.02,0.25c-1.31,0.67-3.12,0.62-4.96,0.88c-0.8,0.11-1.84,0.27-2.61,0.09
				c-1.16-0.26-2.07,0.14-2.83-0.63c0.1-1.25,0.04-4.2,0.68-4.93c0.16-0.05,0.33-0.1,0.5-0.15
				C171.65,27.85,172.1,27.45,172.43,27.03z"/>
			<path fill-rule="evenodd" clip-rule="evenodd" fill="#231815" d="M179.52,30.99c0.08,0.01,0.16,0.02,0.25,0.04
				c-0.01,0.06-0.02,0.11-0.03,0.16c-0.27,0.08-0.81,0.1-1.13,0.12c-0.01-0.02-0.02-0.04-0.03-0.05
				C178.87,31.17,179.33,31.2,179.52,30.99z"/>
			<path fill-rule="evenodd" clip-rule="evenodd" fill="#231815" d="M178,31.32c0.08,0.01,0.16,0.02,0.24,0.04c0,0.01,0,0.02,0,0.03
				c-0.22,0.03-0.44,0.06-0.66,0.08c0.02-0.03,0.04-0.05,0.06-0.08C177.76,31.36,177.88,31.34,178,31.32z"/>
			<path fill-rule="evenodd" clip-rule="evenodd" fill="#231815" d="M177.09,31.45c0.09,0,0.18,0.01,0.27,0.01
				c-0.01,0.02-0.02,0.04-0.03,0.05c-0.09,0.01-0.18,0.01-0.27,0.02C177.07,31.5,177.08,31.47,177.09,31.45z"/>
			<path fill-rule="evenodd" clip-rule="evenodd" fill="#231815" d="M176.9,31.5c0.03,0,0.06,0,0.08,0
				c-0.01,0.02-0.02,0.04-0.03,0.05c-0.04,0-0.07,0-0.11,0C176.86,31.53,176.88,31.51,176.9,31.5z"/>
			<path fill-rule="evenodd" clip-rule="evenodd" fill="#231815" d="M176.59,31.51c0.07,0.01,0.14,0.02,0.22,0.04
				c-0.01,0.02-0.02,0.04-0.03,0.05c-0.02,0-0.03,0-0.05,0c-0.13,0.05-0.41,0.06-0.55-0.02C176.32,31.56,176.46,31.53,176.59,31.51z
				"/>
			<path fill-rule="evenodd" clip-rule="evenodd" fill="#231815" d="M175.88,31.57c0.07,0.01,0.15,0.02,0.22,0.04
				c-0.02,0.01-0.04,0.02-0.06,0.03c-0.13,0-0.25,0.01-0.38,0.01c0-0.01,0-0.02,0-0.03C175.73,31.6,175.81,31.58,175.88,31.57z"/>
		</g>
		<g>
			<path fill-rule="evenodd" clip-rule="evenodd" fill="#231815" d="M145.49,27.04c0.02-0.17,0.06-0.2,0.12-0.32
				c-0.02-0.01-0.04-0.02-0.05-0.03c-0.21,0.04-0.42,0.07-0.64,0.11c0.01-0.03,0.02-0.05,0.03-0.08c0.21-0.07,0.42-0.13,0.64-0.2
				c0.03-0.21-0.01-0.66,0.11-0.82c0.01,0,0.02,0,0.03,0c0.16,0.74-0.32,1.9,0.81,1.7c0.05-0.1,0.1-0.2,0.15-0.3
				c0.05,0.02,0.11,0.04,0.16,0.06c0.05,0.1,0.1,0.2,0.15,0.31c0.22-0.03,0.23-0.05,0.38,0.07c0.04,0.06,0.07,0.11,0.1,0.17
				c0.16,0.45-0.42,1.06-0.76,1.18c-0.58,0.2-1.35,0.12-1.99,0.37c-1.11,0.43-2.28,0.77-3.28,1.3c-0.25,1.33,0.53,2.82,0.26,4.2
				c-0.15,0.76-0.04,1.89-0.55,2.23c-0.06,0.02-0.13,0.03-0.19,0.05c-0.13-0.12-0.34-0.21-0.48-0.32c-0.17,0.07-0.24,0.16-0.47,0.17
				c-0.16-0.33-0.32-0.53-0.77-0.69c0-0.06,0-0.11,0.01-0.16c0.56-0.39,0.79-2.14,0.54-2.69c0.04-0.03,0.08-0.05,0.11-0.08
				c-0.08-0.3-0.27-0.58-0.19-0.88c0.09-0.02,0.03,0.03,0.08-0.05c-0.15-0.05-0.18-0.24-0.18-0.42c0.11-0.01,0.05,0.04,0.11-0.02
				c0.01-0.03,0.02-0.05,0.03-0.08c-0.02-0.04-0.03-0.07-0.05-0.11c-0.01,0-0.02,0-0.03,0c-0.03,0.13,0.02,0.08-0.09,0.13
				c0-0.02,0-0.04,0-0.06c-0.1-0.22-0.01-0.57,0.08-0.6c-0.01-0.03-0.02-0.06-0.02-0.08c-0.27-0.21,0.05-2.64-0.06-3.43
				c-0.01,0-0.02,0-0.03,0c-0.02,0.01-0.04,0.02-0.05,0.02c-0.31,0.55-1.42,1.42-1.91,1.88c-0.87,0.82-1.66,1.84-2.67,2.5
				c-0.25,0.17-0.49,0.64-0.8,0.82c-0.24,0.14-0.58,0.21-0.81,0.38c-0.33,0.26-0.71,0.62-1.12,0.78c-0.35,0.14-0.73,0.08-1.05,0.23
				c-0.17-0.07-0.3-0.12-0.37-0.29c-0.02-0.3-0.05-0.61-0.07-0.91c-0.08-0.31-0.25-0.73-0.35-1.03c-0.32-0.96-0.17-4.12,0.14-5.12
				c0.25-0.82,0.07-1.54,0.46-2.17c0.28,0.2,0.39,0.51,0.72,0.68c0.38,0.2,0.62-0.04,0.95,0.23c0.03,0.15,0.12,0.18,0.15,0.28
				c0.01,0.34,0.01,0.68,0.02,1.01c-0.32,1.02-0.64,2.57-0.52,3.65c0.05,0.01,0.09,0.02,0.13,0.03c0.31-0.25,0.66-0.43,1.01-0.65
				c0.41-0.25,0.72-0.74,1.11-1.03c0.03,0,0.05,0,0.08,0c-0.03,0.14-0.06,0.17-0.04,0.3c0.04,0,0.07,0,0.11,0
				c0.19-0.14,0.51-0.16,0.64-0.28c0.24-0.22,0.47-0.52,0.68-0.77c0.02,0.01,0.04,0.02,0.06,0.03c0,0.02,0,0.04,0,0.05
				c0.05,0.22-0.04,0.41,0.09,0.63c0.01,0,0.02,0,0.03,0c0.08-0.01,0.15-0.01,0.22-0.02c0.4-0.17,1.04-1,1.34-1.35
				c0.61-0.71,1.46-1.27,2.02-2.03c0.21-0.29,0.58-0.95,0.41-1.38c-0.05,0.04-0.09,0.07-0.14,0.1c-0.09,0.18-0.29,0.39-0.46,0.5
				c-0.03-0.01-0.05-0.02-0.08-0.03c0.03-0.08,0.13-0.17,0.14-0.21c-0.02-0.06-0.03-0.13-0.05-0.19c0.13-0.36,0.68-0.58,0.86-0.95
				c0.22-0.48,0.1-0.94,0.49-1.27c-0.03,1.04,1.12,0.46,1.64,0.8c0,0.32-0.01,0.64-0.01,0.96c-0.2,0.78-0.76,1.6-0.75,2.52
				c0,0.42-0.27,0.86-0.13,1.23c0.01,0,0.02,0,0.03,0c0.85-0.06,1.52-0.57,2.41-0.7c0.01,0.02,0.02,0.04,0.03,0.05
				c-0.03,0.05-0.06,0.11-0.09,0.16c0.07,0.06,0.14,0.11,0.21,0.17c-0.03,0.08-0.06,0.16-0.09,0.24c0.02,0.06,0.05,0.11,0.08,0.17
				c0.44-0.03,1.04-0.09,1.3-0.34c-0.01-0.1-0.01-0.2-0.02-0.3c-0.02-0.01-0.03-0.02-0.05-0.03c-0.11,0.06-0.21,0.12-0.27-0.01
				C145.31,27.05,145.4,27.04,145.49,27.04z"/>
			<path fill-rule="evenodd" clip-rule="evenodd" fill="#231815" d="M140.24,23.25c0.03,0.13-0.03,0.17-0.12,0.24
				c-0.02-0.01-0.04-0.02-0.05-0.03c0.01-0.03,0.02-0.06,0.03-0.08C140.15,23.34,140.19,23.3,140.24,23.25z"/>
			<path fill-rule="evenodd" clip-rule="evenodd" fill="#231815" d="M139.98,23.54c0.03,0,0.05,0,0.08,0
				c-0.01,0.05-0.02,0.09-0.03,0.14c-0.06,0.02-0.11,0.03-0.17,0.05C139.9,23.67,139.94,23.6,139.98,23.54z"/>
			<path fill-rule="evenodd" clip-rule="evenodd" fill="#231815" d="M139.67,23.89c0.04,0,0.07,0,0.11,0
				c-0.02,0.04-0.04,0.07-0.06,0.11c-0.02,0.01-0.04,0.02-0.05,0.03c-0.02-0.02-0.03-0.04-0.05-0.06
				C139.63,23.94,139.65,23.92,139.67,23.89z"/>
			<path fill-rule="evenodd" clip-rule="evenodd" fill="#231815" d="M139.21,24.45c0.01,0.02,0.02,0.04,0.03,0.06
				c-0.02,0-0.04,0-0.06,0C139.19,24.48,139.2,24.46,139.21,24.45z"/>
			<path fill-rule="evenodd" clip-rule="evenodd" fill="#231815" d="M139.48,24.51c0.02,0.02,0.03,0.04,0.05,0.06
				c-0.03,0.01-0.06,0.02-0.08,0.02C139.46,24.57,139.47,24.54,139.48,24.51z"/>
			<path fill-rule="evenodd" clip-rule="evenodd" fill="#231815" d="M139.34,24.67c0.12,0.03,0.08,0,0.13,0.09
				c0.02,0.06,0.03,0.11,0.05,0.17c-0.31,0.3-1.79,1.97-2.08,2.01c0.01-0.07,0.02-0.14,0.04-0.22c0,0.02,0,0.04,0,0.05
				c-0.04,0.04-0.08,0.07-0.11,0.11c-0.03-0.01-0.06-0.02-0.08-0.03c0.13-0.51,0.9-0.99,1.33-1.13c-0.02-0.07-0.05-0.15-0.07-0.22
				C138.8,25.22,139.07,24.94,139.34,24.67z"/>
			<path fill-rule="evenodd" clip-rule="evenodd" fill="#231815" d="M138.81,24.84c0.08,0.04,0.02,0.04,0,0.14
				c-0.03,0-0.05,0-0.08,0c0-0.01,0-0.02,0-0.03C138.75,24.91,138.78,24.88,138.81,24.84z"/>
			<path fill-rule="evenodd" clip-rule="evenodd" fill="#231815" d="M138.16,25.48c0.03,0,0.05,0,0.08,0
				c-0.03,0.14,0.01,0.09-0.11,0.13c0-0.01,0-0.02,0-0.03C138.13,25.55,138.14,25.51,138.16,25.48z"/>
			<path fill-rule="evenodd" clip-rule="evenodd" fill="#231815" d="M137.98,25.69c0.03,0.09-0.01,0.1-0.09,0.16
				c-0.01,0-0.02,0-0.03,0C137.91,25.79,137.94,25.74,137.98,25.69z"/>
			<path fill-rule="evenodd" clip-rule="evenodd" fill="#231815" d="M137.67,25.95c0.03,0,0.05,0,0.08,0
				c-0.03,0.03-0.06,0.07-0.09,0.11c-0.08,0.19-0.36,0.45-0.54,0.53c0.02-0.03,0.04-0.05,0.06-0.08
				C137.35,26.32,137.51,26.14,137.67,25.95z"/>
			<path fill-rule="evenodd" clip-rule="evenodd" fill="#231815" d="M137.76,26.42c-0.01,0.01-0.02,0.02-0.03,0.03
				c0.01,0.02,0.02,0.04,0.02,0.06c0.02-0.02,0.04-0.04,0.06-0.05C137.8,26.44,137.78,26.43,137.76,26.42z"/>
			<path fill-rule="evenodd" clip-rule="evenodd" fill="#231815" d="M136.99,26.67c0.03,0.02,0.05,0.04,0.08,0.06
				c-0.05,0.04-0.09,0.09-0.14,0.13c-0.02-0.01-0.03-0.02-0.05-0.03c0-0.03,0-0.05,0-0.08C136.91,26.72,136.95,26.69,136.99,26.67z"
				/>
			<path fill-rule="evenodd" clip-rule="evenodd" fill="#231815" d="M145.08,27.1c0.02,0,0.04,0,0.05,0c0,0.01,0,0.02,0,0.03
				c-0.02,0.02-0.04,0.04-0.06,0.05c-0.1-0.02-0.15,0-0.22-0.06C144.93,27.12,145.01,27.11,145.08,27.1z"/>
			<path fill-rule="evenodd" clip-rule="evenodd" fill="#231815" d="M137.17,26.84c0.03,0.02,0.06,0.04,0.08,0.06
				c-0.11,0.21,0,0.32-0.18,0.46c-0.06,0.11-0.18,0.2-0.31,0.23c-0.02-0.01-0.04-0.02-0.05-0.03c0.04-0.12,0.03-0.09,0.01-0.25
				c0.01-0.01,0.02-0.02,0.03-0.03c0.04,0,0.07,0,0.11,0c0,0.04,0,0.07,0,0.11c0.05-0.03,0.09-0.05,0.14-0.08
				c-0.02-0.06-0.05-0.11-0.08-0.17C137,27.05,137.09,26.94,137.17,26.84z"/>
			<path fill-rule="evenodd" clip-rule="evenodd" fill="#231815" d="M136.71,26.9c0.03,0,0.07,0,0.11,0
				c-0.05,0.09-0.02,0.07-0.14,0.1C136.68,26.97,136.69,26.94,136.71,26.9z"/>
			<path fill-rule="evenodd" clip-rule="evenodd" fill="#231815" d="M137.31,26.98c0.04,0.02,0.07,0.04,0.11,0.06
				c-0.02,0.05-0.04,0.09-0.06,0.14c-0.05-0.01-0.09-0.02-0.13-0.03c0-0.03,0-0.06,0-0.08C137.25,27.03,137.28,27,137.31,26.98z"/>
			<path fill-rule="evenodd" clip-rule="evenodd" fill="#231815" d="M136.45,27.11c0.04,0,0.07,0,0.11,0
				c-0.05,0.09-0.02,0.07-0.14,0.1C136.43,27.18,136.44,27.15,136.45,27.11z"/>
			<path fill-rule="evenodd" clip-rule="evenodd" fill="#231815" d="M136.28,27.3c0.04,0,0.07,0,0.11,0
				c-0.07,0.12-0.11,0.17-0.23,0.24C136.2,27.46,136.24,27.38,136.28,27.3z"/>
			<path fill-rule="evenodd" clip-rule="evenodd" fill="#231815" d="M136.82,27.43c0,0.02,0,0.04,0,0.05
				C136.82,27.46,136.82,27.44,136.82,27.43z"/>
			<path fill-rule="evenodd" clip-rule="evenodd" fill="#231815" d="M136.46,27.55c0.05,0,0.09,0,0.13,0
				c0.03,0.13,0.01,0.08,0.11,0.14c0,0.01,0,0.02,0,0.03c-0.13,0.15-0.24,0.25-0.37,0.34c-0.01,0-0.02,0-0.03,0
				c0-0.05,0-0.09,0-0.14c0.03-0.02,0.06-0.03,0.08-0.05c-0.08-0.05-0.09-0.02-0.13-0.12c0-0.01,0-0.02,0-0.03
				C136.33,27.67,136.4,27.61,136.46,27.55z"/>
			<path fill-rule="evenodd" clip-rule="evenodd" fill="#231815" d="M135.91,27.64c0.03,0.02,0.07,0.04,0.11,0.06
				c-0.36,0.35-0.72,0.7-1.08,1.06c-0.02-0.01-0.04-0.02-0.05-0.03c0-0.01,0-0.02,0-0.03C135.14,28.26,135.65,28.06,135.91,27.64z"
				/>
			<path fill-rule="evenodd" clip-rule="evenodd" fill="#231815" d="M136.06,27.97c0,0.04,0,0.07,0,0.11
				c-0.14,0.24-0.47,0.56-0.71,0.69c-0.01,0-0.02,0-0.03,0c0-0.04,0-0.07,0.01-0.11C135.57,28.43,135.81,28.2,136.06,27.97z"/>
			<path fill-rule="evenodd" clip-rule="evenodd" fill="#231815" d="M135.18,28.79c0.03,0,0.05,0,0.08,0
				c-0.04,0.11-0.04,0.1-0.12,0.16c-0.01,0-0.02,0-0.03,0c0-0.04,0-0.07,0-0.11C135.14,28.82,135.16,28.81,135.18,28.79z"/>
			<path fill-rule="evenodd" clip-rule="evenodd" fill="#231815" d="M139.77,32.17c0,0.02,0,0.04,0,0.05
				C139.77,32.2,139.77,32.18,139.77,32.17z"/>
			<path fill-rule="evenodd" clip-rule="evenodd" fill="#231815" d="M139.78,32.63c0.02,0.03,0.03,0.06,0.05,0.08
				c0.01-0.03,0.02-0.06,0.03-0.08C139.83,32.64,139.81,32.63,139.78,32.63z"/>
			<path fill-rule="evenodd" clip-rule="evenodd" fill="#231815" d="M139.77,32.96c0.06,0.05,0.02,0,0.05,0.08
				c-0.02,0-0.04,0-0.06,0C139.77,33.02,139.77,32.99,139.77,32.96z"/>
		</g>
		<g>
			<path fill-rule="evenodd" clip-rule="evenodd" fill="#231815" d="M121.45,15.56c0.04,0,0.07,0,0.11,0
				c-0.03,0.11-0.04,0.1-0.12,0.16c-0.06-0.01-0.13-0.02-0.19-0.04c0.01-0.03,0.02-0.05,0.03-0.08
				C121.34,15.6,121.4,15.58,121.45,15.56z"/>
			<path fill-rule="evenodd" clip-rule="evenodd" fill="#231815" d="M121.04,15.68c0.02,0,0.03,0,0.06,0
				c-0.01,0.04-0.02,0.07-0.03,0.11c-0.26,0.04-0.51,0.07-0.77,0.11c0-0.01,0-0.02,0-0.03c0.02-0.03,0.04-0.05,0.06-0.08
				C120.58,15.76,120.81,15.72,121.04,15.68z"/>
			<path fill-rule="evenodd" clip-rule="evenodd" fill="#231815" d="M120.07,15.87c0.05,0,0.11,0,0.16,0.01c0,0.01,0,0.02,0,0.03
				c-0.02,0.03-0.04,0.05-0.06,0.08c-0.72,0.08-1.16,0.42-1.93,0.45c0-0.03,0-0.05,0-0.08C118.67,16.25,119.69,16.07,120.07,15.87z"
				/>
			<path fill-rule="evenodd" clip-rule="evenodd" fill="#231815" d="M117.89,16.42c0.03,0,0.06,0,0.08,0
				c0.02,0.02,0.03,0.04,0.05,0.06c-0.03,0.03-0.06,0.05-0.09,0.08c-0.02-0.01-0.03-0.02-0.06-0.03
				C117.88,16.49,117.88,16.45,117.89,16.42z"/>
			<path fill-rule="evenodd" clip-rule="evenodd" fill="#231815" d="M125.54,16.87c-0.02-0.04-1.29-0.49-1.49-0.52
				c0.11-0.37,0.32-0.51,0.34-1c-0.39-0.2-2.38-0.02-2.67,0.2c0.38,0.27,1.75-0.46,2.33-0.08c0.09,0.07,0.08,0.12,0.02,0.22
				c-0.08,0.07-0.05,0.03-0.17,0.02c0.04,0.04,0.07,0.08,0.11,0.11c-0.03,0.13-0.06,0.27-0.1,0.41c-0.35,0.16-0.89-0.12-1.29,0.01
				c-0.81,0.26-2.79,0.65-3.56,0.63c-0.34-0.01-0.84,0.35-1.22,0.2c-0.11-0.07-0.05-0.14-0.13-0.22c-0.02-0.02-0.3-0.07-0.35-0.09
				c-0.01-0.02-0.02-0.04-0.03-0.06c0.08-0.02,0.17-0.05,0.25-0.07c-0.04-0.15-0.1-0.15-0.3-0.15c-0.09,0.08-0.17,0.16-0.26,0.24
				c0.02,0.07,0.05,0.15,0.07,0.22c-0.19,0.21-0.35,0.42-0.36,0.83c-0.16,0.12-0.27,0.27-0.48,0.26c-0.1,0.08-0.38,0.68-0.39,0.89
				c0.31,0.21,0.62,0.43,0.94,0.64c0.57-0.38,1.28-0.38,2-0.58c1.19-0.35,2.61-0.79,4.09-0.84c0.01,0,0.02,0,0.03,0
				c0.21,0.55-0.36,1.34-0.32,1.85c-0.36,0.02-0.64,0.25-0.94,0.35c-0.72,0.22-1.34,0.32-1.99,0.58c-0.5,0.26-1.01,0.53-1.51,0.79
				c-0.05,0.34-0.48,1.97-0.9,2.13c-0.09,0.4,0.03,1.09,0.11,1.48c0.16,0.83,0.21,1.8,0.79,2.22c0.45,0.33,1.37-0.12,1.73-0.24
				c0.8-0.2,1.6-0.4,2.41-0.6c0.28-0.02,0.57-0.05,0.85-0.08c0.04-0.08,0.08-0.16,0.12-0.24c0.17-0.05,0.33-0.1,0.5-0.14
				c0.15-0.1,0.15-0.23,0.37-0.29c0.08-0.17,0.11-0.4,0.24-0.54c-0.01-0.02-0.02-0.04-0.03-0.06c-0.4,0.05-0.81,0.1-1.21,0.15
				c-0.67-0.34,0.03-1.18,0.3-1.52c-0.08-0.04-0.15-0.06-0.3-0.07c0-0.01,0-0.02,0-0.03c0.08-0.01,0.17-0.03,0.25-0.05
				c0.02-0.03,0.04-0.05,0.06-0.08c-0.1,0-0.2-0.01-0.3-0.01c-0.01-0.03,0-0.06,0-0.09c-0.56,0.13-1.13,0.26-1.69,0.38
				c-0.14-0.26-0.08-0.51-0.08-0.8c0.47-0.5,1.64-0.58,2.45-0.85c0.46-1.27,0.74-2.69,1.15-3.86
				C125.17,18.11,125.77,17.33,125.54,16.87z"/>
			<path fill-rule="evenodd" clip-rule="evenodd" fill="#231815" d="M117.39,23.11c0.03,0,0.05,0,0.08,0
				c0.02,0.02,0.04,0.04,0.05,0.06c-0.01,0.02-0.02,0.04-0.03,0.05c-0.04,0-0.07,0-0.11,0C117.39,23.18,117.39,23.15,117.39,23.11z"
				/>
			<path fill-rule="evenodd" clip-rule="evenodd" fill="#231815" d="M123.03,23.9c-0.01,0.02-0.02,0.04-0.03,0.05
				C123.05,23.91,123.05,23.96,123.03,23.9z"/>
			<path fill-rule="evenodd" clip-rule="evenodd" fill="#231815" d="M125.6,27.01c0.28,0.05,0.56,0.09,0.85,0.14
				c0,0.08,0.03,0.04-0.03,0.11c-0.27-0.1-0.93-0.02-1.14-0.18C125.38,27.05,125.49,27.03,125.6,27.01z"/>
			<path fill-rule="evenodd" clip-rule="evenodd" fill="#231815" d="M124.69,27.11c0.04,0.01,0.07,0.02,0.11,0.03
				c-0.02,0.03-0.04,0.05-0.06,0.08c-0.03-0.01-0.07-0.02-0.11-0.03c0-0.01,0-0.02,0-0.03C124.66,27.15,124.68,27.13,124.69,27.11z"
				/>
			<path fill-rule="evenodd" clip-rule="evenodd" fill="#231815" d="M124.31,27.18c0.04,0,0.07,0,0.11,0c0,0.01,0,0.02,0,0.03
				C124.38,27.2,124.34,27.19,124.31,27.18z"/>
			<path fill-rule="evenodd" clip-rule="evenodd" fill="#231815" d="M123.95,27.22c0.02,0,0.03,0,0.06,0c0,0.01,0,0.02,0,0.03
				c-0.02,0.02-0.04,0.04-0.06,0.05c-0.03-0.02-0.05-0.04-0.08-0.06C123.9,27.24,123.92,27.23,123.95,27.22z"/>
			<path fill-rule="evenodd" clip-rule="evenodd" fill="#231815" d="M124.06,27.22c0.02,0,0.04,0,0.06,0
				C124.1,27.23,124.08,27.22,124.06,27.22z"/>
			<path fill-rule="evenodd" clip-rule="evenodd" fill="#231815" d="M125.67,27.39c0.1,0.05,0.03-0.01,0.08,0.08
				c-0.03,0-0.06,0-0.08,0C125.67,27.45,125.67,27.42,125.67,27.39z"/>
			<path fill-rule="evenodd" clip-rule="evenodd" fill="#231815" d="M125.83,27.43c0.01,0.02,0.02,0.04,0.02,0.06
				C125.85,27.47,125.84,27.45,125.83,27.43z"/>
			<path fill-rule="evenodd" clip-rule="evenodd" fill="#231815" d="M123.23,27.39c0.02,0,0.04,0,0.05,0
				C123.27,27.39,123.25,27.39,123.23,27.39z"/>
			<path fill-rule="evenodd" clip-rule="evenodd" fill="#231815" d="M124.6,27.46c0.04,0,0.07,0,0.11,0
				c-0.02,0.02-0.04,0.03-0.06,0.05C124.63,27.5,124.62,27.48,124.6,27.46z"/>
			<path fill-rule="evenodd" clip-rule="evenodd" fill="#231815" d="M122.71,27.48c0.02,0,0.04,0,0.06,0
				c-0.05,0.05,0,0.02-0.08,0.05C122.69,27.51,122.7,27.49,122.71,27.48z"/>
			<path fill-rule="evenodd" clip-rule="evenodd" fill="#231815" d="M120.66,27.95c0.02,0.04,0.04,0.07,0.05,0.11
				c-0.03,0.01-0.06,0.02-0.08,0.02c-0.01,0-0.02,0-0.03,0C120.62,28.04,120.64,27.99,120.66,27.95z"/>
			<path fill-rule="evenodd" clip-rule="evenodd" fill="#231815" d="M126.5,28.58c0.11,0.01,0.22,0.03,0.33,0.04
				c-0.06,0.28-0.05,0.29,0.09,0.44c0,0.02,0,0.04,0,0.05c-0.28,0.06-0.55,0.13-0.83,0.19c-0.05,0.09,0.01,0.3-0.07,0.41
				c-0.1,0.13-0.59,0.06-0.8,0.05c-0.63,0.08-1.27,0.15-1.9,0.23c-1.34,0.26-2.69,0.62-3.93,1c-0.75,0.15-1.49,0.31-2.24,0.47
				c-0.46,0.12-2.1,0.5-2.48,0.29c-0.03-0.29,0.2-1.12,0.34-1.11c1.28-0.37,2.62-0.17,3.85-0.49c1.79-0.46,3.57-0.82,5.31-1.28
				c0.56-0.09,1.12-0.18,1.68-0.27C126.12,28.57,126.34,28.66,126.5,28.58z"/>
			<path fill-rule="evenodd" clip-rule="evenodd" fill="#231815" d="M118.92,28.43c0.03,0,0.06,0,0.08,0
				c-0.02,0.02-0.04,0.04-0.06,0.05C118.94,28.47,118.93,28.45,118.92,28.43z"/>
			<path fill-rule="evenodd" clip-rule="evenodd" fill="#231815" d="M118.64,28.48c0.04,0.01,0.09,0.02,0.13,0.03
				c0,0.01,0,0.02,0,0.03c-0.07,0.01-0.15,0.01-0.22,0.02c0.01-0.02,0.02-0.04,0.03-0.05C118.61,28.49,118.62,28.48,118.64,28.48z"
				/>
			<path fill-rule="evenodd" clip-rule="evenodd" fill="#231815" d="M118.45,28.55c0.03,0,0.07,0,0.11,0c0,0.02,0,0.04,0,0.06
				C118.46,28.58,118.5,28.61,118.45,28.55z"/>
			<path fill-rule="evenodd" clip-rule="evenodd" fill="#231815" d="M118.12,28.59c0.08,0.03,0.01,0.01,0,0.08
				c-0.1,0.03-0.2,0.05-0.3,0.07c0-0.03,0-0.05,0-0.08C117.91,28.64,118.02,28.62,118.12,28.59z"/>
			<path fill-rule="evenodd" clip-rule="evenodd" fill="#231815" d="M117.67,28.71c0.02,0,0.04,0,0.06,0
				c-0.02,0.02-0.04,0.04-0.06,0.05C117.67,28.75,117.67,28.73,117.67,28.71z"/>
			<path fill-rule="evenodd" clip-rule="evenodd" fill="#231815" d="M117.29,28.78c0.03,0,0.05,0,0.08,0
				c-0.01,0.03-0.02,0.05-0.03,0.08c-0.64,0.11-1.32,0.27-1.99,0.34c-0.05-0.02-0.09-0.04-0.14-0.06c0.02-0.04,0.04-0.07,0.06-0.11
				C115.87,28.94,116.67,29.04,117.29,28.78z"/>
			<path fill-rule="evenodd" clip-rule="evenodd" fill="#231815" d="M115.95,29.31c0.05,0.01,0.11,0.02,0.16,0.03
				c-0.02,0.03-0.04,0.05-0.06,0.08c-0.09,0.01-0.18,0.01-0.27,0.02c0.02-0.03,0.04-0.05,0.06-0.08
				C115.88,29.34,115.92,29.32,115.95,29.31z"/>
			<path fill-rule="evenodd" clip-rule="evenodd" fill="#231815" d="M115.32,29.39c0.14,0.01,0.29,0.03,0.44,0.04
				c-0.05,0.05-0.09,0.11-0.14,0.16c-0.18,0.05-0.33,0.19-0.47,0.09c-0.12-0.07-0.07-0.15-0.02-0.25
				C115.19,29.42,115.26,29.41,115.32,29.39z"/>
			<path fill-rule="evenodd" clip-rule="evenodd" fill="#231815" d="M114.74,30.36c0.17,0.01,0.33,0.01,0.49,0.02
				c-0.01,0.02-0.02,0.04-0.03,0.05c-0.24,0-0.51,0.1-0.57-0.05C114.66,30.37,114.7,30.36,114.74,30.36z"/>
			<path fill-rule="evenodd" clip-rule="evenodd" fill="#231815" d="M118.15,32.76c0.22,0.13,0.56,0.22,0.78,0.36
				c-0.02,0.02-0.04,0.03-0.06,0.05c-0.29-0.15-0.35-0.09-0.68-0.05c-0.04-0.11-0.08-0.22-0.13-0.33
				C118.1,32.77,118.13,32.77,118.15,32.76z"/>
			<path fill-rule="evenodd" clip-rule="evenodd" fill="#231815" d="M118.96,33.17c0.18,0.11,0.36,0.23,0.54,0.35
				c-0.02,0.03-0.04,0.05-0.06,0.08c-0.01,0-0.02,0-0.03,0C119.24,33.48,119.02,33.39,118.96,33.17z"/>
			<path fill-rule="evenodd" clip-rule="evenodd" fill="#231815" d="M118.25,33.17c0.22,0.11,0.57,0.23,0.78,0.38
				c0.11,0.12,0.23,0.25,0.34,0.37c0.13,0.02,0.25,0.05,0.38,0.07c0.12,0.12,0.25,0.25,0.37,0.37c0.68,0.35,1.46,0.49,2.08,0.65
				c0.01,0.09,0.03,0.18,0.04,0.27c0.84,0.25,1.89,0.44,2.84,0.27c0.28-0.05,0.49-0.21,0.86-0.21c0.04,0.05,0.07,0.09,0.11,0.14
				c0.06-0.01,0.11-0.01,0.17-0.02c0-0.03,0-0.06,0-0.08c-0.11-0.04-0.09-0.01-0.13-0.11c0.04,0,0.07,0,0.11,0
				c0.14,0.11,0.18,0.11,0.17-0.08c0.43,0.03,0.54-0.1,0.94-0.16c0.01,0.02,0.02,0.04,0.03,0.06c-0.24,0.45-0.83,0.83-1.22,0.97
				c0.05,0.12,0.05,0.21,0.1,0.33c0.01,0,0.02,0,0.02,0c0.16-0.02,0.16-0.07,0.25-0.02c-0.22,0.32-0.91,0.52-1.29,0.66
				c-0.48,0.18-1.06,0.41-1.64,0.54c-2,0.44-4.6-0.49-5.45-1.71c0.03-0.16,0.01-0.38,0.1-0.52c0.01,0,0.02,0,0.03,0
				c0.6,0.19,0.35-0.48,0.5-0.86c0.09-0.24,0.38-0.29,0.43-0.59c-0.02-0.03-0.03-0.06-0.05-0.08c-0.09-0.07-0.18-0.13-0.27-0.2
				c-0.24-0.1-0.41,0.05-0.63-0.08C118.24,33.43,118.24,33.3,118.25,33.17z"/>
			<path fill-rule="evenodd" clip-rule="evenodd" fill="#231815" d="M127,33.75c0.03,0,0.05,0,0.08,0c0,0.03,0,0.06,0,0.08
				c-0.27,0.12-1.5,1.11-1.81,0.86c0.02-0.03,0.04-0.05,0.06-0.08C125.98,34.56,126.57,34.09,127,33.75z"/>
			<path fill-rule="evenodd" clip-rule="evenodd" fill="#231815" d="M119.6,33.64c0.08,0.05,0.16,0.1,0.24,0.15
				c0,0.01,0,0.02,0,0.03c-0.04,0-0.07,0-0.11,0C119.69,33.75,119.64,33.69,119.6,33.64z"/>
			<path fill-rule="evenodd" clip-rule="evenodd" fill="#231815" d="M119.87,33.81c0.24,0.04,0.64,0.15,0.78,0.3
				c-0.02,0-0.04,0-0.05,0c-0.01,0.01-0.02,0.02-0.03,0.03C120.33,34.09,120,33.97,119.87,33.81z"/>
			<path fill-rule="evenodd" clip-rule="evenodd" fill="#231815" d="M120.76,34.09c0.14,0.04,0.27,0.08,0.41,0.13
				c0,0.01,0,0.02,0,0.03c-0.02,0.01-0.04,0.02-0.06,0.03c-0.16-0.05-0.31-0.04-0.4-0.15C120.73,34.11,120.74,34.1,120.76,34.09z"/>
			<path fill-rule="evenodd" clip-rule="evenodd" fill="#231815" d="M121.2,34.21c0.03,0,0.07,0,0.11,0
				c-0.04,0.02-0.08,0.03-0.11,0.05C121.2,34.25,121.2,34.23,121.2,34.21z"/>
			<path fill-rule="evenodd" clip-rule="evenodd" fill="#231815" d="M125.04,34.72c0.03,0,0.06,0,0.08,0
				c0.02,0.04,0.03,0.07,0.05,0.11c-0.05,0-0.09,0-0.14,0c-0.11,0.05-0.1,0.08-0.16-0.03C124.93,34.77,124.99,34.74,125.04,34.72z"
				/>
			<path fill-rule="evenodd" clip-rule="evenodd" fill="#231815" d="M124.24,34.93c0.03,0.02,0.07,0.04,0.11,0.06
				c-0.02,0.03-0.04,0.05-0.06,0.08c-0.21,0.01-0.29,0.05-0.35-0.1C124.04,34.96,124.14,34.95,124.24,34.93z"/>
			<path fill-rule="evenodd" clip-rule="evenodd" fill="#231815" d="M123.8,35c0.04,0.02,0.07,0.04,0.11,0.06
				c-0.02,0.03-0.04,0.05-0.06,0.08c-0.05,0.01-0.09,0.01-0.14,0.02c-0.01-0.03-0.02-0.06-0.03-0.08
				C123.72,35.05,123.76,35.02,123.8,35z"/>
			<path fill-rule="evenodd" clip-rule="evenodd" fill="#231815" d="M122.35,35c0.16,0.01,0.31,0.01,0.46,0.02
				c-0.03,0.05-0.06,0.11-0.09,0.16c-0.14-0.02-0.27-0.05-0.41-0.07C122.32,35.07,122.33,35.03,122.35,35z"/>
			<path fill-rule="evenodd" clip-rule="evenodd" fill="#231815" d="M123.03,35.02c0.04,0,0.07,0,0.11,0c0,0.01,0,0.02,0,0.03
				c-0.02,0.02-0.04,0.04-0.06,0.05C123.06,35.08,123.05,35.05,123.03,35.02z"/>
			<path fill-rule="evenodd" clip-rule="evenodd" fill="#231815" d="M123.36,35.06c0.12,0.01,0.13,0.01,0.19,0.06
				c0,0.01,0,0.02,0,0.03C123.44,35.13,123.41,35.12,123.36,35.06z"/>
		</g>
		<g>
			<path fill-rule="evenodd" clip-rule="evenodd" fill="#231815" d="M110.59,10.09c0.22,0.01,0.42,0.01,0.57,0.1
				c0.06,0.18,0.19,0.18,0.23,0.37c-0.12,0.01-0.16,0.02-0.22,0.1c-0.23,0.31,0.08,0.4,0.26,0.56c-0.02,0.14-0.03,0.27-0.04,0.41
				c-0.95,0.21-2.01,0.42-2.82,0.63c-0.58,0.04-1.15,0.09-1.73,0.13c-0.79,0.19-1.61,0.32-2.35,0.57c-0.22,0.01-0.44,0.02-0.66,0.03
				c-1.46,0.39-2.76,0.69-4.28,0.85c-0.26,0.06-0.52,0.11-0.77,0.16c-1.07-0.1-2.07,0.37-2.9,0.6c-0.31,0.09-1.01,0.03-1.06-0.26
				c-0.08-0.42,0.31-0.58,0.42-0.81c0.12-0.25,0.05-0.54,0.14-0.79c0.28-0.77,1.43-0.48,2.22-0.66c0.13-0.03,0.56-0.1,0.72-0.11
				c0.16,0.02,0.33,0.05,0.49,0.07c1.01-0.13,2.02-0.25,3.03-0.38c1.68-0.45,3.55-0.78,5.36-1.14c0.74-0.15,1.69-0.25,2.45-0.38
				C109.91,10.12,110.25,10.22,110.59,10.09z"/>
			<path fill-rule="evenodd" clip-rule="evenodd" fill="#231815" d="M96.11,11.91c0.02,0.01,0.04,0.02,0.05,0.03
				c-0.01,0.05-0.02,0.11-0.03,0.16c-0.18,0-0.27,0.02-0.32-0.18c0.01,0,0.02,0,0.03,0C95.93,11.96,96.02,11.95,96.11,11.91z"/>
			<path fill-rule="evenodd" clip-rule="evenodd" fill="#231815" d="M102.28,13.75c0.04,0,0.07,0,0.11,0
				c-0.05,0.25-0.22,0.38-0.38,0.51c-0.02,0.5,0.13,0.31,0.2,0.55c0.05,0.16-0.03,0.25,0.04,0.39c0.32,0.08,0.65,0.12,0.98,0.17
				c0.23,0.7-0.23,1.9-0.21,2.68c0.04,1.27,0.33,3.08,0.11,4.39c-0.57,0.18-0.46,0.47-0.8,0.87c-0.43-0.18-0.85-0.19-1.07-0.61
				c-0.03-0.6-0.06-1.21-0.09-1.81c-0.19-1.1-0.29-2.37-0.1-3.35c0.08-0.39-0.05-0.65,0.04-0.99c0.11-0.03,0.22-0.06,0.33-0.1
				c0.03-0.21,0.05-0.42,0.08-0.63c0.07-0.03,0.13-0.07,0.19-0.1c0.19-0.33-0.05-1.25,0.14-1.58
				C101.94,14,102.18,13.92,102.28,13.75z"/>
			<path fill-rule="evenodd" clip-rule="evenodd" fill="#231815" d="M107.19,14.35c0.06,0.01,0.11,0.02,0.16,0.03
				c-0.22,0.34-0.1,1.04,0.26,1.22c0.3,0.17,0.51-0.07,0.85,0.09c0.11,0.92-0.28,1.98-0.41,2.97c0.02,0,0.04,0,0.05,0
				c0.75,0.33,1.45-0.59,2.11,0.02c-0.04,0.59-0.02,0.62,0.21,1.05c0.49,0.05,0.81,0.05,1.09,0.26c0.02,0.5-0.17,0.74-0.29,1.2
				c-0.02,0.01-0.04,0.02-0.06,0.03c-0.09-0.05-0.1-0.1-0.22-0.06c-0.17,0.08-0.14,0.21-0.26,0.32c-0.2,0.09-0.35,0.18-0.56,0.23
				c-0.32-0.39-1.24-0.26-1.72-0.12c-0.96,0.27-2.87,1.11-3.8,0.49c-0.01-0.33,0.42-0.84,0.56-1.13c0.23-0.47-0.13-1.04,0.08-1.51
				c0.1-0.23,0.7-0.73,0.91-0.95c-0.13-0.46-0.14-1.2,0.04-1.67c0.13-0.02,0.26,0,0.33-0.1c0.36-0.64,0.21-1.8,0.61-2.33
				C107.16,14.36,107.18,14.36,107.19,14.35z"/>
			<path fill-rule="evenodd" clip-rule="evenodd" fill="#231815" d="M112.17,23.44c0.25,0.02,0.51,0.04,0.76,0.06
				c0.01,0.02,0.02,0.04,0.02,0.05c-0.03,0.03-0.06,0.05-0.09,0.08c-0.57-0.15-1.95,0.34-2.3,0.05c0-0.01,0-0.02,0-0.03
				C110.85,23.66,111.94,23.61,112.17,23.44z"/>
			<path fill-rule="evenodd" clip-rule="evenodd" fill="#231815" d="M109.47,23.78c0.03,0.03,0.05,0.06,0.08,0.09
				c-0.02,0.02-0.04,0.04-0.06,0.05C109.45,23.84,109.45,23.87,109.47,23.78z"/>
			<path fill-rule="evenodd" clip-rule="evenodd" fill="#231815" d="M110.1,23.8c0.02,0,0.04,0,0.06,0
				C110.11,23.83,110.15,23.83,110.1,23.8z"/>
			<path fill-rule="evenodd" clip-rule="evenodd" fill="#231815" d="M112.29,23.88c0.03,0,0.06,0,0.08,0
				c0.03,0.03,0.05,0.06,0.08,0.09c0,0.01,0,0.02,0,0.03c-0.15,0-0.25,0.01-0.3-0.04C112.2,23.93,112.24,23.91,112.29,23.88z"/>
			<path fill-rule="evenodd" clip-rule="evenodd" fill="#231815" d="M109.72,23.81c0.06,0.01,0.13,0.02,0.19,0.04
				c-0.02,0.02-0.04,0.04-0.06,0.05c-0.05-0.01-0.11-0.02-0.16-0.03C109.7,23.85,109.71,23.83,109.72,23.81z"/>
			<path fill-rule="evenodd" clip-rule="evenodd" fill="#231815" d="M111.85,23.92c0.1,0.04,0.06,0,0.11,0.09
				c-0.19,0.02-0.32,0.13-0.41-0.04c0.02,0,0.04,0,0.06,0C111.69,23.95,111.77,23.94,111.85,23.92z"/>
			<path fill-rule="evenodd" clip-rule="evenodd" fill="#231815" d="M112.26,24.1c0.12,0.02,0.24,0.04,0.35,0.07
				c0.03,0.02,0.05,0.04,0.08,0.06c0,0.04,0,0.07-0.01,0.11c-0.02,0-0.04,0-0.05,0c-0.38,0.16-1.14,0.16-1.31-0.08
				c0-0.01,0-0.02,0-0.03C111.63,24.19,111.94,24.14,112.26,24.1z"/>
			<path fill-rule="evenodd" clip-rule="evenodd" fill="#231815" d="M110.91,24.27c0.05,0,0.09,0,0.14,0
				c-0.05,0.12-0.13,0.15-0.23,0.21c-0.04-0.01-0.07-0.02-0.11-0.03c0.01-0.05,0.02-0.11,0.03-0.16
				C110.8,24.28,110.85,24.28,110.91,24.27z"/>
			<path fill-rule="evenodd" clip-rule="evenodd" fill="#231815" d="M107.54,24.22c0.04,0.02,0.07,0.04,0.11,0.06
				c-0.03,0.04-0.06,0.07-0.09,0.11c-0.01,0-0.02,0-0.03,0c-0.1-0.02-0.08-0.02-0.13-0.06c0.01-0.02,0.02-0.04,0.03-0.05
				C107.46,24.26,107.5,24.24,107.54,24.22z"/>
			<path fill-rule="evenodd" clip-rule="evenodd" fill="#231815" d="M107.21,24.27c0.1,0.03,0.08,0.03,0.13,0.09
				c-0.01,0.04-0.02,0.09-0.03,0.14c-0.16-0.02-0.29,0-0.38-0.04c0-0.04,0-0.07,0-0.11C107.02,24.32,107.11,24.29,107.21,24.27z"/>
			<path fill-rule="evenodd" clip-rule="evenodd" fill="#231815" d="M106.44,24.43c0.08,0.06,0.04,0.01,0.08,0.11
				c-0.03,0.01-0.06,0.02-0.08,0.02c-0.02-0.01-0.04-0.02-0.05-0.03c0-0.01,0-0.02,0-0.03C106.4,24.48,106.41,24.46,106.44,24.43z"
				/>
			<path fill-rule="evenodd" clip-rule="evenodd" fill="#231815" d="M106.05,24.53c0.17,0,0.17-0.01,0.22,0.12
				c-0.05,0-0.09,0-0.14-0.01C106.06,24.58,106.08,24.62,106.05,24.53z"/>
			<path fill-rule="evenodd" clip-rule="evenodd" fill="#231815" d="M113.27,24.8c0.1,0.01,0.2,0.02,0.3,0.04
				c0.01,0.02,0.02,0.04,0.03,0.06c-0.02,0.04-0.04,0.07-0.06,0.11c-0.11,0.03-0.22,0.06-0.33,0.1c0.06,0.05,0.12,0.09,0.19,0.14
				c-0.05,0.04-0.1,0.09-0.14,0.13c0.03,0.09,0.07,0.18,0.1,0.28c-0.28,0.04-0.33,0.05-0.55-0.05c-0.01,0.03-0.02,0.05-0.03,0.08
				c0.05,0.12,0.1,0.24,0.15,0.36c-2.07,0.49-4.64,0.6-6.76,1.28c-0.01,0.18-0.01,0.37-0.02,0.55c0.02,0.01,0.04,0.02,0.05,0.03
				c0.37-0.24,0.7-0.36,1.19-0.28c0.19,0.75-0.1,1.44,0,2.27c0.12,1.06-0.03,2.5,0.03,3.65c0.03,0.6,0.11,2.29-0.04,2.55
				c-0.06,0.06-0.15,0.07-0.25,0.1c0,0.02,0,0.04,0,0.06c0.04,0,0.07,0,0.11,0c0.06-0.02,0.11-0.05,0.17-0.08c0,0.02,0,0.04,0,0.06
				c-0.01,0.22-0.02,0.44-0.02,0.66c-0.01,0-0.02,0-0.03,0c-0.1-0.12-0.06-0.33-0.12-0.5c-0.01,0.02-0.02,0.04-0.03,0.05
				c-0.18,0.26-0.16,0.76-0.23,1.06c-0.04,0-0.07,0-0.11,0c-0.01-0.01-0.02-0.02-0.03-0.03c0.01-0.17,0.01-0.24-0.1-0.3
				c-0.05,0-0.09,0-0.14,0c-0.09,0.06-0.19,0.12-0.28,0.18c-0.01,0.36-0.1,0.63-0.2,0.9c-0.05-0.01-0.09-0.02-0.14-0.03
				c-0.12-0.57,0.11-2.83-0.16-3.21c-0.07,0.09-0.13,0.18-0.2,0.27c-0.04-0.02-0.07-0.04-0.11-0.06c-0.04-1.55,0.05-3.15,0-4.49
				c-0.03-0.93-0.12-1.9-0.01-2.77c0.02-0.01,0.04-0.02,0.06-0.02c0.08,0.05,0.16,0.1,0.24,0.15c0-0.03,0-0.05,0-0.08
				c0.06-0.17,0.02-0.37-0.01-0.52c-0.08,0-0.16-0.01-0.24-0.01c-0.27,0.13-1.86,0.5-2.13,0.39c-1.42,0.38-2.88,0.68-4.34,1.07
				c-0.6,0.16-1.8,0.29-2.11-0.11c0.18-0.16,0.37-0.17,0.4-0.51c-0.03-0.14-0.06-0.27-0.09-0.41c0.16,0,0.26-0.02,0.33-0.12
				c0.08-0.18,0.05-0.34,0.21-0.43c0.53-0.16,1.32,0.13,1.95-0.04c3.06-0.83,6.53-1.21,9.69-1.94c0.81-0.19,1.67-0.23,2.54-0.43
				C112.39,24.82,112.9,25.01,113.27,24.8z"/>
			<path fill-rule="evenodd" clip-rule="evenodd" fill="#231815" d="M108.34,24.72c0.06,0.01,0.13,0.02,0.19,0.03
				c-0.02,0.02-0.04,0.03-0.06,0.05c-0.03,0.05-0.06,0.09-0.09,0.13c-0.03-0.01-0.05-0.02-0.08-0.03c-0.03-0.04-0.07-0.07-0.1-0.11
				c0-0.01,0-0.02,0-0.03C108.25,24.75,108.3,24.74,108.34,24.72z"/>
			<path fill-rule="evenodd" clip-rule="evenodd" fill="#231815" d="M111.08,24.85c0.05,0.05,0.02,0,0.05,0.09
				c-0.02,0-0.04,0-0.06,0C111.08,24.9,111.08,24.88,111.08,24.85z"/>
			<path fill-rule="evenodd" clip-rule="evenodd" fill="#231815" d="M107.93,24.82c0.12,0.01,0.13,0.01,0.19,0.06
				C108.05,24.86,107.99,24.84,107.93,24.82z"/>
			<path fill-rule="evenodd" clip-rule="evenodd" fill="#231815" d="M107.46,24.88c0.03,0,0.06,0,0.08,0
				c-0.01,0.03-0.02,0.05-0.03,0.08c-0.14,0.03-0.15,0.08-0.22-0.04C107.35,24.91,107.4,24.9,107.46,24.88z"/>
			<path fill-rule="evenodd" clip-rule="evenodd" fill="#231815" d="M101.74,25.41c0.03,0.02,0.05,0.04,0.08,0.06
				c-0.02,0.02-0.04,0.04-0.06,0.05c-0.02-0.02-0.04-0.04-0.05-0.06C101.72,25.44,101.73,25.42,101.74,25.41z"/>
			<path fill-rule="evenodd" clip-rule="evenodd" fill="#231815" d="M101.93,25.41c0.04,0,0.07,0,0.11,0
				c-0.04,0.11-0.03,0.08-0.11,0.13c-0.02-0.04-0.03-0.07-0.05-0.11C101.89,25.43,101.91,25.42,101.93,25.41z"/>
			<path fill-rule="evenodd" clip-rule="evenodd" fill="#231815" d="M104.23,25.55c0.05,0.02,0.11,0.04,0.16,0.06
				c-0.02,0.03-0.04,0.05-0.06,0.08c-0.05,0-0.09,0-0.14-0.01C104.21,25.64,104.22,25.6,104.23,25.55z"/>
			<path fill-rule="evenodd" clip-rule="evenodd" fill="#231815" d="M101.05,25.57c0.06,0.07,0.04,0.07,0.02,0.17
				c-0.06,0-0.13,0-0.19-0.01c0.01-0.03,0.02-0.05,0.03-0.08C100.96,25.62,101,25.6,101.05,25.57z"/>
			<path fill-rule="evenodd" clip-rule="evenodd" fill="#231815" d="M100.66,25.64c0.05,0.01,0.09,0.02,0.14,0.03
				c-0.03,0.04-0.06,0.07-0.09,0.11c-0.01,0-0.02,0-0.03,0c-0.04-0.02-0.09-0.04-0.13-0.06C100.59,25.69,100.63,25.67,100.66,25.64z
				"/>
			<path fill-rule="evenodd" clip-rule="evenodd" fill="#231815" d="M99.86,25.83c0.05,0.05,0.03,0.01,0.05,0.11
				c-0.04,0-0.07,0-0.11,0c0-0.03,0-0.06,0-0.08C99.82,25.85,99.84,25.84,99.86,25.83z"/>
			<path fill-rule="evenodd" clip-rule="evenodd" fill="#231815" d="M99.42,25.89c0.08,0.01,0.16,0.03,0.25,0.04
				c-0.03,0.04-0.06,0.09-0.09,0.13c-0.64,0-1.4,0.43-1.99,0.34c0.05-0.07,0.1-0.14,0.15-0.21C98.23,26.12,99.04,26.11,99.42,25.89z
				"/>
			<path fill-rule="evenodd" clip-rule="evenodd" fill="#231815" d="M101.77,26.04c0.2,0.01,0.21,0.06,0.35,0.12
				c-0.01,0.02-0.02,0.04-0.03,0.05c-0.01,0-0.02,0-0.03,0c-0.08-0.03-0.16-0.06-0.24-0.09C101.77,26.07,101.8,26.12,101.77,26.04z"
				/>
			<path fill-rule="evenodd" clip-rule="evenodd" fill="#231815" d="M100.97,26.28c0.06,0.09,0.05,0.16-0.06,0.22
				c-0.2,0.08-0.43-0.03-0.57-0.05c0.02-0.03,0.04-0.05,0.06-0.08C100.58,26.34,100.77,26.31,100.97,26.28z"/>
			<path fill-rule="evenodd" clip-rule="evenodd" fill="#231815" d="M100.19,26.42c0.03,0,0.06,0,0.08,0
				c-0.01,0.07,0.03,0.02-0.03,0.08c-0.05,0.11-0.05,0.13-0.17,0.16c-0.15,0.02-0.13,0.01-0.22-0.09c-0.65,0.26-1.35,0.48-2.21,0.55
				c-0.11-0.12-0.15-0.2-0.09-0.41c0.03-0.02,0.06-0.03,0.08-0.05C98.06,26.89,99.81,26.62,100.19,26.42z"/>
			<path fill-rule="evenodd" clip-rule="evenodd" fill="#231815" d="M105.56,35.44c0.04,0.02,0.09,0.04,0.13,0.06
				c0,0.06,0,0.13-0.01,0.19c-0.11-0.04-0.1-0.04-0.16-0.12C105.54,35.53,105.55,35.49,105.56,35.44z"/>
		</g>
		<g>
			<path fill-rule="evenodd" clip-rule="evenodd" fill="#231815" d="M51.02,14.82c0.17,0.1,0.28,0.66,0.34,0.85
				c0.19,0.05,0.38,0.09,0.57,0.14c0.03-0.18,0.06-0.22,0.21-0.25c0.01,0.33,0.16,0.35,0.24,0.61c-0.07,0.45-0.15,0.9-0.22,1.34
				c-0.14,1.05-0.27,2.1-0.41,3.15c-0.06,0.33-0.14,1.42-0.12,1.75c0.02,0.35,0.17,0.78,0.07,1.24c-0.09,0.33-0.18,0.66-0.27,1
				c0.01,0.37,0.01,0.73,0.02,1.09c0.06,0.42-0.14,0.87-0.1,1.2c0.07,0.56,0.08,1.98-0.03,2.47c-0.07,0.32,0.04,0.62,0.08,0.84
				c-0.03,0.16-0.07,0.32-0.1,0.49c0.02,0.84,0.21,2.21,0.02,2.68c-0.07,0.16,0.14,0.77,0.03,0.66c0,0-0.07,1.11-0.1,1.12
				c-0.21,0.09-0.35-0.18-0.51-0.11c-0.03,0.02-0.06,0.04-0.09,0.06c0,0.52,0,1.04,0,1.55c-0.04,0.05-0.08,0.09-0.12,0.14
				c-0.03-0.02-0.06-0.04-0.08-0.06c-0.16-0.59-0.15-1.81-0.55-2.15c0.05-0.37-0.08-0.68,0.09-0.98c-0.37-0.22-0.1-0.9-0.27-1.27
				c-0.08-0.1-0.17-0.2-0.25-0.3c-0.14-0.38,0.03-0.89-0.21-1.22c-0.11-0.14-0.92-0.91-0.97-0.87c-1.05-0.92-2.17-1.8-3.27-2.68
				c-0.99-0.79-1.73-0.79-2.11-2.15c0.26-0.2,0.45-0.16,0.46-0.64c-0.11-0.12-0.22-0.24-0.33-0.36c-0.03,0.02-0.06,0.04-0.09,0.05
				c-0.57,0.93-1.14,1.86-1.72,2.78c-0.28,0.3-0.66,0.54-0.9,0.89c-0.39,0.58-0.77,1.58-1.25,2.02c-0.25,0.23-0.35,0.14-0.61,0.27
				c-0.21,0.28-0.42,0.56-0.64,0.84c-0.25-0.01-0.33-0.09-0.45-0.22c0.03-0.45,0.09-0.57,0.12-1.03c0.42-0.17,2.02-2.39,1.87-3.04
				c0.26-0.01,1.27-1.51,1.45-1.85c0.13-0.23-0.07-0.33-0.1-0.52c0.09-0.09,0.18-0.18,0.27-0.28c-0.02-0.06-0.03-0.12-0.05-0.17
				c0.01-0.01,0.02-0.02,0.03-0.03c0.04,0.02,0.07,0.04,0.11,0.06c0.01-0.24,0.67-1.25,0.74-1.27c0.02,0.09,0.03,0.17,0.05,0.26
				c0.04,0,0.08,0,0.11,0c0-0.02,0-0.04,0-0.06c0-0.19,0-0.38-0.01-0.58c0.08-0.05,0.16-0.11,0.24-0.16c0.2-0.27,0.21-0.6,0.41-0.85
				c0.24-0.29,0.76-0.73,0.79-1.18c-0.09-0.11-0.14-0.07-0.16-0.27c0.02-0.03,0.04-0.06,0.06-0.09c0.11-0.01,0.21-0.03,0.32-0.04
				c0.01-0.15,0.01-0.2,0.07-0.26c0.06,0.08,0.04,0.12,0.14,0.18c0.08-0.02,0.15-0.03,0.23-0.05c-0.03-0.49,0.16-0.64,0.41-0.91
				c-0.08-0.13-0.11-0.1-0.05-0.23c0.32-0.17,0.5-0.47,0.74-0.63c0.05-0.01,0.1-0.02,0.14-0.02c0.05,0.42-0.08,0.6-0.1,1.06
				c0.16,0.08,0.32,0.17,0.48,0.25c0.08,0,0.14-0.13,0.29-0.08c0.13,0.05,0.2,0.22,0.25,0.35c0.32,0.81-0.56,1.22-0.89,1.38
				c-0.05,0.05-0.1,0.09-0.15,0.14c-0.13,0.2-0.06,0.6-0.2,0.83c-0.18,0.3-0.56,0.72-0.81,0.98c0.03,0.14,0.01,0.16,0.13,0.27
				c0.08,0.2,1.49,1.18,1.71,1.24c0.05,0.43,0.68,0.69,0.97,0.93c0.56,0.46,1.11,0.92,1.67,1.39c0.38,0.41,0.76,0.82,1.13,1.22
				c0.02-0.02,0.04-0.04,0.06-0.06c-0.03-0.41,0.17-1.68-0.1-2.02c-0.02,0.04-0.04,0.08-0.06,0.11c-0.02-0.01-0.04-0.02-0.06-0.03
				c0-0.09,0.01-0.17,0.01-0.26c0.03,0,0.06,0,0.09,0c0.03,0.09,0.02,0.06,0.08,0.12c-0.02-0.11-0.03-0.21-0.05-0.32
				c-0.11-0.01-0.06,0.05-0.11-0.06c0-0.01,0-0.02,0-0.03c0.01-0.01,0.02-0.02,0.03-0.03c0.16,0.06,0.29,0,0.38-0.19
				c-0.11-0.46,0.04-0.92-0.18-1.24c-0.05,0.01-0.1,0.02-0.15,0.02c0-0.01,0-0.02,0-0.03c0.05-0.3,0.2-0.38,0.08-0.51
				c0.07-2.06,0.61-3.49,0.43-5.37c-0.06-0.61,0.64-0.61,0.31-1.4c0.12-0.07,0.19-0.16,0.27-0.28c-0.08-0.29-0.16-0.95-0.04-1.12
				C50.86,14.98,50.94,14.9,51.02,14.82z"/>
			<path fill-rule="evenodd" clip-rule="evenodd" fill="#231815" d="M40.99,23.02c0.03,0,0.06,0,0.09,0c0,0.07,0,0.13-0.01,0.2
				c-0.04,0-0.08,0-0.11,0C40.95,23.08,40.93,23.11,40.99,23.02z"/>
			<path fill-rule="evenodd" clip-rule="evenodd" fill="#231815" d="M49.76,23.89c0.04,0,0.08,0,0.11,0
				c-0.01,0.05-0.02,0.09-0.03,0.14c-0.03,0-0.06,0-0.09,0C49.75,23.99,49.76,23.94,49.76,23.89z"/>
			<path fill-rule="evenodd" clip-rule="evenodd" fill="#231815" d="M49.69,24.12c0.17,0.02,0.14,0.03,0.2,0.15
				c-0.03,0.06-0.06,0.11-0.09,0.17c-0.05-0.06-0.09-0.12-0.14-0.18C49.67,24.21,49.68,24.17,49.69,24.12z"/>
			<path fill-rule="evenodd" clip-rule="evenodd" fill="#231815" d="M49.71,24.46c0.04,0.02,0.08,0.04,0.11,0.06
				c-0.02,0.03-0.04,0.06-0.06,0.08c-0.03-0.03-0.06-0.06-0.08-0.09C49.69,24.5,49.7,24.48,49.71,24.46z"/>
			<path fill-rule="evenodd" clip-rule="evenodd" fill="#231815" d="M46.31,24.42c0.01,0.02,0.02,0.04,0.03,0.06
				C46.33,24.46,46.32,24.44,46.31,24.42z"/>
			<path fill-rule="evenodd" clip-rule="evenodd" fill="#231815" d="M40.34,24.89c0.05,0.01,0.09,0.02,0.14,0.03
				c-0.01,0.05-0.02,0.1-0.03,0.14c-0.07,0.16-0.18,0.31-0.36,0.36c0-0.06,0-0.11,0.01-0.17C40.18,25.14,40.26,25.01,40.34,24.89z"
				/>
			<path fill-rule="evenodd" clip-rule="evenodd" fill="#231815" d="M39.88,25.59c0.04,0.01,0.08,0.02,0.11,0.03
				c-0.02,0.11-0.02,0.09-0.06,0.14C39.86,25.69,39.86,25.71,39.88,25.59z"/>
			<path fill-rule="evenodd" clip-rule="evenodd" fill="#231815" d="M39.73,25.88c0.04,0,0.08,0,0.11,0
				c-0.01,0.02-0.02,0.04-0.03,0.06c0,0.05,0,0.1-0.01,0.14c-0.04,0.01-0.08,0.02-0.12,0.02c-0.01-0.01-0.02-0.02-0.03-0.03
				c0-0.04,0-0.08,0-0.11C39.69,25.93,39.71,25.9,39.73,25.88z"/>
			<path fill-rule="evenodd" clip-rule="evenodd" fill="#231815" d="M39.57,26.36c0.02,0,0.04,0,0.06,0c0,0.01,0,0.02,0,0.03
				c-0.02,0.02-0.04,0.04-0.06,0.06c-0.01,0-0.02,0-0.03,0C39.54,26.42,39.56,26.39,39.57,26.36z"/>
			<path fill-rule="evenodd" clip-rule="evenodd" fill="#231815" d="M39.08,27.09c0.04,0.02,0.08,0.04,0.11,0.06
				c-0.02,0.01-0.04,0.02-0.06,0.03c-0.03-0.01-0.06-0.02-0.09-0.03C39.06,27.13,39.07,27.11,39.08,27.09z"/>
			<path fill-rule="evenodd" clip-rule="evenodd" fill="#231815" d="M38.83,27.48c0.04,0,0.08,0,0.12,0
				c-0.02,0.04-0.04,0.07-0.06,0.11C38.87,27.56,38.85,27.52,38.83,27.48z"/>
			<path fill-rule="evenodd" clip-rule="evenodd" fill="#231815" d="M38.12,28.06c0.03,0.02,0.06,0.04,0.08,0.06
				c-0.16,0.51-0.44,0.81-0.71,1.18c-0.18,0.03-0.29,0.07-0.4-0.04C37.42,28.79,37.89,28.55,38.12,28.06z"/>
			<path fill-rule="evenodd" clip-rule="evenodd" fill="#231815" d="M38.49,28.13c0.02,0,0.04,0,0.06,0
				c-0.02,0.02-0.04,0.04-0.06,0.05C38.49,28.17,38.49,28.15,38.49,28.13z"/>
			<path fill-rule="evenodd" clip-rule="evenodd" fill="#231815" d="M38.13,28.61c0.04,0,0.08,0,0.11,0c0,0.03,0,0.06,0,0.09
				C38.13,28.66,38.18,28.69,38.13,28.61z"/>
			<path fill-rule="evenodd" clip-rule="evenodd" fill="#231815" d="M37.29,29.41c0.02,0.06,0.03,0.12,0.05,0.17
				c-0.1,0.08-0.07,0.08-0.2,0.08c0.01-0.04,0.02-0.08,0.03-0.11C37.21,29.5,37.25,29.46,37.29,29.41z"/>
			<path fill-rule="evenodd" clip-rule="evenodd" fill="#231815" d="M51.36,34.28c0.07,0.05,0.04,0,0.03,0.09c-0.01,0-0.02,0-0.03,0
				C51.35,34.34,51.35,34.31,51.36,34.28z"/>
			<path fill-rule="evenodd" clip-rule="evenodd" fill="#231815" d="M49.96,34.78c0.03,0,0.06,0,0.09,0
				c-0.01,0.09-0.03,0.17-0.04,0.26c-0.04-0.01-0.08-0.02-0.11-0.03C49.9,34.87,49.91,34.84,49.96,34.78z"/>
			<path fill-rule="evenodd" clip-rule="evenodd" fill="#231815" d="M51.39,34.86c0.06,0.05,0.02,0,0.05,0.09
				C51.43,34.92,51.41,34.89,51.39,34.86z"/>
		</g>
		<g>
			<path fill-rule="evenodd" clip-rule="evenodd" fill="#231815" d="M161.21,19.32c-0.01-0.06-0.01-0.13-0.02-0.19
				c-0.16-0.11-0.32-0.07-0.54-0.16c-0.32-0.12-0.49-0.46-0.89-0.53c-0.46,0.42-1.79,0.52-2.49,0.68c-1.09,0.23-2.16,0.44-3.26,0.76
				c-0.33,0.09-0.65,0.3-1.08,0.34c-0.31,0.03-1.16-0.74-1.25-0.95c-0.11,0-0.22-0.01-0.33-0.01c-0.21,0.23-0.08,0.55-0.2,0.84
				c-0.11,0.11-0.23,0.23-0.34,0.34c-0.02,0.21-0.05,0.42-0.08,0.63c-0.06,0.15-0.25,0.36-0.32,0.48c-0.01,0.26-0.02,0.51-0.03,0.77
				c-0.1,0.16-0.19,0.32-0.29,0.48c0.02,0.3,0.19,0.38,0.28,0.59c0.07,0.42,0.13,0.85,0.2,1.27c0.04,0.8-0.26,2,0.15,2.61
				c0.48,0.14,1.11,0.11,1.59-0.11c0.15-0.07,0.21-0.21,0.42-0.26c0.02,0.01,0.04,0.02,0.05,0.03c-0.09,0.22-0.24,0.37-0.46,0.45
				c0.03,0.33,0.01,0.42-0.08,0.71c0.17,0.22,0.67,0.31,1.11,0.23c0.5-0.09,1.63-0.91,2.18-1.21c0.51-0.27,0.72-0.02,1.14-0.53
				c0.14-0.16,0.06-0.4,0.02-0.6c-0.08-0.03-0.16-0.06-0.24-0.09c-0.02-0.03-0.03-0.06-0.05-0.08c1.17-1.46,2.05-3.05,3.24-4.48
				C160.11,20.77,160.93,19.97,161.21,19.32z M156.64,22.11c-0.63,0.96-1.25,1.88-2.04,2.66c-0.46,0.35-0.92,0.7-1.38,1.05
				c-0.15-0.08-0.17-0.48-0.14-0.69c0.06-0.43,0.21-1.44,0.16-1.97c-0.03-0.27-0.09-0.54-0.03-0.77c0.24-0.59,2.45-1.29,3.18-1.5
				c0.31-0.09,0.63-0.18,0.94-0.27c0.06,0.01,0.13,0.02,0.19,0.04C157.47,21.33,156.93,21.67,156.64,22.11z"/>
			<path fill-rule="evenodd" clip-rule="evenodd" fill="#231815" d="M163.26,26.79c0.19,0.01,0.4,0.05,0.49,0.13
				c-0.17,0.37-0.49,0.85-0.83,1.04c-0.03-0.01-0.06-0.02-0.08-0.03c0.03-0.03,0.06-0.05,0.09-0.08c-0.48,0.03-0.96,0.44-1.44,0.33
				c0.01-0.03,0.02-0.05,0.03-0.08c0.81-0.09,1.6-0.5,1.99-1.08c-0.06-0.06-0.22-0.06-0.32-0.15c0.01-0.02,0.02-0.04,0.03-0.06
				C163.22,26.81,163.24,26.8,163.26,26.79z"/>
			<path fill-rule="evenodd" clip-rule="evenodd" fill="#231815" d="M162.98,27.77c0.01,0.02,0.02,0.04,0.03,0.06
				c0.01-0.02,0.02-0.04,0.03-0.06C163.01,27.77,163,27.77,162.98,27.77z"/>
			<path fill-rule="evenodd" clip-rule="evenodd" fill="#231815" d="M150.99,27.46c0.05,0,0.11,0,0.16,0.01
				c-0.12,0.39-1.04,1.55-0.57,1.92c-0.04,0.07-0.08,0.14-0.12,0.21c0.04,0.03,0.07,0.06,0.11,0.09c0.13,0,0.26-0.01,0.39-0.01
				c-0.04,0.04-0.08,0.09-0.12,0.13c0.01,0.02,0.02,0.04,0.03,0.06c0.18-0.01,0.37-0.02,0.55-0.04c-0.04,0.21-0.08,0.52,0.14,0.61
				c0.24,0.1,2-0.45,2.29-0.55c2.08-0.71,4.72-1.28,7.1-1.54c1.16-0.13,2.16-0.07,3.1-0.1c0.48-0.02,0.83,0.25,0.58,0.65
				c-0.42,0.14-0.64,0.66-0.97,0.92c-0.16,0.1-0.32,0.21-0.48,0.31c-0.24-0.08-0.13-0.28-0.29-0.37c-0.18-0.1-0.89,0.34-1.24,0.28
				c0.01-0.1,0.02-0.2,0.04-0.3c0.11-0.04,0.1-0.05,0.17-0.13c-0.05-0.07-0.1-0.13-0.16-0.2c-0.16,0.04-0.3,0.11-0.27-0.09
				c0-0.01,0-0.02,0-0.03c-1.19-0.05-2.99,0.42-3.89,0.73c-0.33,0.12-0.93,0.09-1.16,0.31c0.01,0.02,0.02,0.04,0.02,0.06
				c0.22,0.11,0.45,0.22,0.67,0.33c-0.16,1.25-0.2,2.86-0.46,4.12c-0.15,0.74-0.01,1.47-0.13,2.13c-0.04,0.18,0.07,0.26,0.1,0.36
				c0.08,0.26-0.15,1.08-0.08,1.48c0.05,0.34-0.08,0.6-0.11,0.79c0.02,0.24,0.04,0.48,0.06,0.71c-0.07,0.73-0.24,1.71-0.45,2.42
				c-0.02,0.36-0.05,0.73-0.07,1.09c-0.13,1.1-0.27,2.2-0.4,3.3c-0.05,0.27,0.07,0.59-0.06,0.79c-0.78,0.1-0.63,1.6-0.72,2.36
				c-0.14,1.23-1.2,4.85-2.17,5.24c-0.24-0.17-0.06-0.39-0.22-0.64c-0.1-0.07-0.2-0.13-0.29-0.2c0.03-0.37,0.22-0.53,0.09-0.87
				c-0.07-0.09-0.25-0.1-0.35-0.15c-0.01-0.12-0.03-0.24-0.04-0.36c0.46-1.02,0.89-2.43,1.2-3.55c0.04-0.46,0.09-0.91,0.13-1.36
				c0.18-1.17,0.36-2.34,0.54-3.52c0.24-0.97,0.92-2.98,0.53-3.93c0.12-0.01,0.05,0.05,0.11-0.05c0.13-0.44-0.09-1.29,0.12-1.67
				c-0.06-0.09-0.12-0.11-0.21-0.17c0-0.1,0.01-0.2,0.01-0.3c0.02-0.01,0.04-0.02,0.05-0.02c0.01,0.09,0.03,0.18,0.04,0.27
				c0.04-0.03,0.08-0.05,0.11-0.08c0-0.01,0-0.02,0-0.03c-0.01-0.16-0.03-0.33-0.04-0.5c-0.12-0.04-0.09,0.01-0.16-0.11
				c0.02-0.02,0.04-0.03,0.06-0.05c0.09,0.01,0.04,0.04,0.11-0.02c0.01-0.03,0.02-0.07,0.03-0.11c-0.15-0.02-0.13-0.01-0.19-0.09
				c0.05-0.01,0.11-0.01,0.16-0.02c-0.23-0.92-0.15-2.51-0.03-3.62c0.03-0.29,0.13-0.59,0.09-0.93c0.03-0.08,0.06-0.16,0.09-0.24
				c0.11-0.43,0.08-1.28-0.03-1.59c0.2-0.22-0.03-0.55,0.17-0.76c0.19,0.11,0.08,0.2,0.21,0.34c0.03-0.01,0.05-0.02,0.08-0.02
				c0.03-0.13,0.06-0.27,0.1-0.41c-0.03-0.03-0.05-0.06-0.08-0.09c-1.7,0.65-5.61,1.64-7.44,1.17c-0.01-0.03-0.02-0.06-0.03-0.08
				c0.09-0.15,0.18-0.3,0.26-0.46c-0.05-0.16-0.13-0.2-0.18-0.33c0.52-0.3,0.45-0.84,0.74-1.4c0.08-0.15,0.21-0.15,0.31-0.26
				c0.11-0.22,0.22-0.43,0.32-0.65c0.13-0.15,0.35-0.07,0.47-0.12c0.27-0.24,0.55-0.47,0.82-0.71
				C150.52,27.72,150.76,27.59,150.99,27.46z"/>
			<path fill-rule="evenodd" clip-rule="evenodd" fill="#231815" d="M162.64,28.06c0.03,0,0.05,0,0.08,0
				c-0.01,0.04-0.02,0.07-0.03,0.11c-0.01,0-0.02,0-0.03,0C162.65,28.13,162.65,28.1,162.64,28.06z"/>
			<path fill-rule="evenodd" clip-rule="evenodd" fill="#231815" d="M150.95,29.3c0.02,0,0.04,0,0.05,0
				C150.98,29.3,150.96,29.3,150.95,29.3z"/>
			<path fill-rule="evenodd" clip-rule="evenodd" fill="#231815" d="M154.27,37.89c0.02,0,0.04,0,0.05,0
				C154.28,37.91,154.32,37.91,154.27,37.89z"/>
			<path fill-rule="evenodd" clip-rule="evenodd" fill="#231815" d="M154.22,38.52c0.08,0.06,0.03,0.01,0.05,0.08
				C154.25,38.57,154.24,38.54,154.22,38.52z"/>
			<path fill-rule="evenodd" clip-rule="evenodd" fill="#231815" d="M154.24,39.34c0.01,0.02,0.02,0.04,0.02,0.06
				C154.26,39.38,154.25,39.35,154.24,39.34z"/>
		</g>
		<g>
			<path fill-rule="evenodd" clip-rule="evenodd" fill="#231815" d="M69.26,15.98c0.12,0.03,0.08,0,0.13,0.09
				c0.02,0.17,0.04,0.33,0.06,0.5c0.39,0.12,0.64-0.03,0.99-0.07c0.78,0.71-0.16,2.58-0.4,3.33c-0.47,1.47-0.91,3.02-1.35,4.64
				c-0.22,0.81-0.33,1.56-0.63,2.25c-0.22,0.5-0.06,1.04-0.3,1.5c-0.08,0.08-0.17,0.16-0.26,0.24c-0.11,0.24-0.01,0.56-0.11,0.76
				l-1.3,1.05c-0.02-0.02-0.04-0.04-0.05-0.06c0.04-0.51,0.34-1.01,0.49-1.43c0.35-1.02,0.4-1.79,0.65-2.77
				c0.18-0.68,0.36-1.24,0.43-1.9c0.03-0.26-0.22-0.38-0.31-0.56c0.11-0.24,0.44-1.28,0.3-1.52c-0.05-0.06,0-0.02-0.08-0.06
				c-0.1,0.43-0.53,0.76-0.75,1.1c-0.71,1.08-1.63,2.14-2.26,3.31c-0.2,0.37-0.83,1.33-1.28,1.35c-0.09-0.04-0.18-0.08-0.27-0.12
				c-0.19-0.72,0.13-1.46,0.14-2.3c0.02-1.82,0.17-4.53,0.45-6.07c0.11-0.73,0.22-1.45,0.33-2.18c0.03-0.01,0.05-0.02,0.08-0.02
				c0.04,0.02,0.07,0.04,0.11,0.06c-0.06,0.1-0.09,0.11-0.12,0.27c0.02,0.02,0.04,0.04,0.05,0.06c0.48,0.11,0.58,0.24,1.04,0.07
				c0.01,0.03,0.02,0.06,0.02,0.08c0.75,1.37-0.42,2.85-0.19,4.38c0.02,0.01,0.04,0.02,0.05,0.03c0.51-0.27,0.67-0.93,1.06-1.27
				c0.02,0.02,0.04,0.04,0.05,0.06c-0.1,0.13-0.19,0.25-0.29,0.37c0.02,0.14,0.04,0.2,0.13,0.28c0.16-0.03,0.31-0.06,0.47-0.09
				c0.25-0.57,0.75-0.98,1.09-1.44c0.41-0.55,0.62-1.18,1.02-1.72c0.39-0.52,0.87-0.93,0.78-1.86c-0.01,0-0.02,0-0.03,0
				c-0.02,0.01-0.04,0.02-0.06,0.03c-0.09,0.36-0.57,0.86-0.81,1.12c-0.02-0.02-0.04-0.04-0.05-0.06
				C68.59,16.88,69.01,16.47,69.26,15.98z"/>
			<path fill-rule="evenodd" clip-rule="evenodd" fill="#231815" d="M68.22,17.47c0.08,0.06,0.06,0.02,0.08,0.14
				c-0.23,0.25-0.47,0.85-0.8,0.96c0-0.01,0-0.02,0-0.03C67.74,18.18,67.98,17.83,68.22,17.47z"/>
			<path fill-rule="evenodd" clip-rule="evenodd" fill="#231815" d="M55.61,18.32c0.3,0.14,0.26,0.32,0.48,0.48
				c0.26,0.2,0.8,0.13,0.97,0.42c0.49,0.84,0.12,1.83,0.04,2.63c0.05,0.39,0.1,0.77,0.15,1.16c0.06,0.44-0.02,0.68,0.16,0.96
				c0.35,0.01,1.28-0.49,1.45-0.69c0.01-0.2,0.57-0.24,0.75-0.35c0.41-0.26,1.91-1.12,2-1.57c0.21,0.08,0.74-0.34,0.99-0.05
				c0.23,0.28-0.07,0.85-0.05,1.2c0.04,0.21,0.08,0.42,0.11,0.63c-0.16,0.22-0.31,0.44-0.46,0.67c-1.01,1.21-2.42,2.03-3.52,3.16
				c-0.45,0.46-1.09,0.59-1.47,1.15c-0.35-0.01-0.5,0.12-0.77,0.08c-0.5,0.09-0.69-1.52-0.63-2.11c0.03-0.36-0.15-1.07-0.19-1.51
				c-0.13-1.31,0-2.31-0.2-3.43c-0.18-1.02,0.47-1.37-0.22-2.26c0.05-0.15,0.1-0.31,0.15-0.46C55.43,18.36,55.51,18.36,55.61,18.32z
				"/>
			<path fill-rule="evenodd" clip-rule="evenodd" fill="#231815" d="M67.18,18.97c0.02,0.02,0.03,0.04,0.05,0.06
				c-0.02,0.01-0.04,0.02-0.06,0.03C67.18,19.02,67.18,18.99,67.18,18.97z"/>
			<path fill-rule="evenodd" clip-rule="evenodd" fill="#231815" d="M66.69,19.63c0.05,0.01,0.09,0.02,0.14,0.03
				c-0.17,0.27-0.37,0.56-0.6,0.77c-0.02-0.01-0.04-0.02-0.06-0.03C66.33,20.11,66.55,19.92,66.69,19.63z"/>
			<path fill-rule="evenodd" clip-rule="evenodd" fill="#231815" d="M63.27,20.08c0.03,0,0.05,0,0.08,0
				c-0.01,0.06-0.02,0.13-0.03,0.19c-0.01-0.02-0.02-0.04-0.03-0.06C63.24,20.14,63.27,20.2,63.27,20.08z"/>
			<path fill-rule="evenodd" clip-rule="evenodd" fill="#231815" d="M61.69,20.79c0.03,0,0.05,0,0.08,0
				c-0.06,0.17-0.14,0.26-0.23,0.37c-0.05,0.01-0.09,0.02-0.14,0.02c-0.01-0.02-0.02-0.04-0.03-0.06c0.02-0.05,0.04-0.11,0.06-0.16
				C61.56,20.94,61.61,20.87,61.69,20.79z"/>
			<path fill-rule="evenodd" clip-rule="evenodd" fill="#231815" d="M61.23,21.13c0.04,0.02,0.07,0.04,0.11,0.06
				c0,0.03,0,0.05,0,0.08C61.17,21.23,61.22,21.26,61.23,21.13z"/>
			<path fill-rule="evenodd" clip-rule="evenodd" fill="#231815" d="M61.09,21.29c0.04,0.01,0.07,0.02,0.11,0.03
				c0,0.01,0,0.02,0,0.03c-0.04,0.02-0.07,0.03-0.11,0.05c-0.01-0.03-0.02-0.06-0.02-0.08C61.07,21.31,61.08,21.3,61.09,21.29z"/>
			<path fill-rule="evenodd" clip-rule="evenodd" fill="#231815" d="M60.98,21.45c0.02,0.09-0.02,0.17-0.2,0.18
				c0-0.01,0-0.02,0-0.03c0.01-0.03,0.02-0.05,0.03-0.08C60.87,21.5,60.92,21.47,60.98,21.45z"/>
			<path fill-rule="evenodd" clip-rule="evenodd" fill="#231815" d="M60.67,21.66c0.05,0,0.09,0,0.14,0
				c-0.04,0.11-0.04,0.07-0.11,0.13c-0.03-0.02-0.05-0.04-0.08-0.06C60.63,21.71,60.65,21.68,60.67,21.66z"/>
			<path fill-rule="evenodd" clip-rule="evenodd" fill="#231815" d="M60.35,21.97c0.02,0.02,0.04,0.04,0.05,0.06
				c-0.01,0.01-0.02,0.02-0.03,0.03c-0.02-0.01-0.04-0.02-0.05-0.03c0-0.01,0-0.02,0-0.03C60.34,21.99,60.34,21.98,60.35,21.97z"/>
			<path fill-rule="evenodd" clip-rule="evenodd" fill="#231815" d="M60.1,22.18c0.03,0,0.05,0,0.08,0
				c-0.02,0.03-0.04,0.05-0.06,0.08c-0.13,0.3-0.58,0.53-0.85,0.68c-0.1-0.05-0.03,0.01-0.08-0.09C59.5,22.64,59.8,22.41,60.1,22.18
				z"/>
			<path fill-rule="evenodd" clip-rule="evenodd" fill="#231815" d="M67.28,23.68c0.02,0.04,0.03,0.07,0.05,0.11
				c-0.02-0.01-0.04-0.02-0.05-0.03C67.28,23.74,67.28,23.71,67.28,23.68z"/>
			<path fill-rule="evenodd" clip-rule="evenodd" fill="#231815" d="M67.21,23.9c0.04,0.01,0.07,0.02,0.11,0.03
				c-0.03,0.03-0.06,0.05-0.09,0.08c-0.02-0.01-0.03-0.02-0.05-0.03C67.19,23.95,67.2,23.93,67.21,23.9z"/>
			<path fill-rule="evenodd" clip-rule="evenodd" fill="#231815" d="M67.21,24.09c0.07,0.11-0.05,0.43-0.1,0.6
				c-0.01,0.01-0.02,0.02-0.03,0.03c-0.02-0.01-0.04-0.02-0.05-0.03C67.01,24.45,67.08,24.25,67.21,24.09z"/>
			<path fill-rule="evenodd" clip-rule="evenodd" fill="#231815" d="M66.96,24.82c0.07,0.06,0.07,0.1,0.07,0.22
				c-0.02,0.04-0.04,0.07-0.06,0.11c-0.02,0-0.04,0-0.06,0C66.91,25.01,66.91,24.94,66.96,24.82z"/>
			<path fill-rule="evenodd" clip-rule="evenodd" fill="#231815" d="M66.83,25.45c0.11,0.12,0.03,0.43-0.1,0.55
				c-0.01,0-0.02,0-0.03,0c-0.01-0.02-0.02-0.04-0.03-0.06C66.72,25.77,66.78,25.61,66.83,25.45z"/>
			<path fill-rule="evenodd" clip-rule="evenodd" fill="#231815" d="M66.67,25.99c0.03,0.03,0.05,0.06,0.08,0.09
				c-0.05,0.17-0.1,0.34-0.16,0.52c-0.02,0-0.04,0-0.05,0c0.01-0.04,0.02-0.07,0.03-0.11C66.55,26.34,66.6,26.13,66.67,25.99z"/>
			<path fill-rule="evenodd" clip-rule="evenodd" fill="#231815" d="M66.91,26.16c0.14,0.19-0.09,0.47-0.11,0.76
				c-0.04,0.62-0.58,2.66-0.93,2.98c-0.01,0-0.02,0-0.03,0c0-0.09,0.01-0.18,0.01-0.27C66.31,28.63,66.68,27.29,66.91,26.16z"/>
			<path fill-rule="evenodd" clip-rule="evenodd" fill="#231815" d="M66.51,26.64c0.21,0.16-0.13,0.88-0.26,1.06
				c-0.02-0.02-0.03-0.04-0.05-0.06C66.3,27.31,66.41,26.98,66.51,26.64z"/>
			<path fill-rule="evenodd" clip-rule="evenodd" fill="#231815" d="M66.2,27.73c0.22,0.21-0.37,1.27-0.6,1.43
				c-0.02-0.01-0.04-0.02-0.05-0.03c0-0.03,0-0.05,0-0.08C65.85,28.81,66.07,28.14,66.2,27.73z"/>
			<path fill-rule="evenodd" clip-rule="evenodd" fill="#231815" d="M63.15,27.78c0.09,0.06,0.08,0.07,0.07,0.22
				c-0.11,0.19-0.22,0.38-0.32,0.56c-0.02-0.01-0.04-0.02-0.05-0.03c0-0.01,0-0.02,0-0.03C62.89,28.23,63.01,27.95,63.15,27.78z"/>
			<path fill-rule="evenodd" clip-rule="evenodd" fill="#231815" d="M62.96,29.22c0.12,0,0.16,0,0.22-0.05
				c-0.04-0.1-0.08-0.29-0.04-0.47c0.01-0.01,0.02-0.02,0.03-0.03c0.1,0.08,0.23,0.21,0.41,0.15c0.23-0.12,0.43-0.3,0.57-0.55
				c0.04,0,0.07,0,0.11,0c-0.05,0.07-0.1,0.14-0.14,0.21c0.01,0.03,0.02,0.06,0.02,0.08c0.12,0.02,0.22,0.03,0.33,0.1
				c0.19,0.73-0.45,1.43-0.31,1.71c0.28,0.1,0.6,0.52,0.82,0.72c0.66,0.56,1.35,0.97,2.05,1.5c0.1,0.12,0.19,0.25,0.29,0.37
				c2.37,1.73,4.65,3.35,7.3,4.85c0.39,0.22,0.79,0.27,1.19,0.43c1.15,0.46,2.27,0.85,3.4,1.36c1.3,0.59,2.64,1.26,3.93,1.96
				c0.26,0.1,0.52,0.2,0.78,0.3c0.32,0.2,0.72,0.53,1.07,0.67c1.14,0.46,2.45,1.04,3.53,1.56c0.5,0.15,0.99,0.31,1.49,0.47
				c0.48,0.22,1.23,0.52,1.81,0.73c0.34,0.12,1.32,0.21,1.55,0.39c-0.01,0.03-0.02,0.06-0.03,0.08c0.23-0.09,0.46-0.18,0.7-0.28
				c0.02,0.1,0.05,0.2,0.07,0.3c0.14-0.01,0.13-0.05,0.19,0.06c-0.29,0.08-0.47,0.29-0.78,0.36c-0.28,0.06-0.58-0.04-0.82,0.02
				c-0.18,0.13-0.36,0.26-0.53,0.39c-0.64,0.15-1.99-0.43-2.44-0.61c-1.31-0.54-2.53-0.89-3.78-1.4c-0.87-0.36-1.86-1.01-2.64-1.22
				c0-0.01,0-0.02,0-0.03c0.04-0.11,0.08-0.22,0.12-0.33c-0.39-0.04-0.51-0.24-0.78-0.3c-0.01,0.03-0.02,0.05-0.03,0.08
				c0.14,0.14,0.31,0.21,0.59,0.21c0.03,0.06,0.05,0.11,0.08,0.17c-0.01,0.02-0.02,0.04-0.03,0.06c-0.42-0.01-1.04-0.33-1.32-0.54
				c-0.04-0.08-0.09-0.15-0.13-0.23c-0.1,0-0.2,0.01-0.3,0.02c-1.03-0.43-2.01-1.44-3.26-1.41c-0.05-0.1-0.14-0.28-0.26-0.31
				c-0.49-0.12-1.01-0.19-1.49-0.41c-0.49-0.22-0.83-0.58-1.37-0.71c-0.05,0.06-0.1,0.13-0.14,0.19c-0.23-0.21-0.57-0.42-0.95-0.34
				c0-0.12,0.01-0.24,0.01-0.35c-0.15-0.01-0.16-0.03-0.27-0.12c0.01,0.05,0.01,0.11,0.02,0.16c-0.05,0-0.09,0-0.14,0
				c-0.02-0.01-0.04-0.02-0.06-0.03c-0.01-0.07-0.03-0.13-0.05-0.19c-0.23,0.03-0.25-0.07-0.4-0.21c-0.05-0.04-0.86-0.11-1.04-0.09
				c0-0.01,0-0.02,0-0.03c0.01-0.06,0.02-0.11,0.03-0.16c0.05,0.03,0.11,0.06,0.16,0.09c0.06-0.07,0.06-0.07,0.17-0.1
				c-0.01-0.02-0.02-0.04-0.02-0.06c-0.15,0-0.31-0.01-0.47-0.02c0.02-0.06,0.04-0.13,0.06-0.19c-0.36-0.08-0.61-0.33-0.88-0.55
				c-0.1-0.08-0.87-0.53-0.91-0.5c-0.48-0.35-0.99-0.92-1.61-1.05c0,0.01,0,0.02,0,0.03c0.03,0.06,0.05,0.11,0.08,0.17
				c0.33,0.11,0.48,0.29,0.83,0.39c-0.01,0.09-0.02,0.18-0.04,0.27c-1-0.01-1.35-0.82-2.01-1.23c-1.54-0.95-2.94-2.1-4.41-3.04
				c-0.71,0.27-0.94,1.88-1.51,2.38c-0.08,0-0.17-0.01-0.25-0.01c-0.02-0.09-0.03-0.14-0.07-0.19c-0.09,0.15-0.65,0.59-0.85,0.65
				c-0.02-0.01-0.04-0.02-0.05-0.03c0.04-0.3,0.25-0.47,0.35-0.7c0.33-0.73,0.65-1.47,1.01-2.24c0.33-0.69,0.98-1.38,1.05-2.32
				c-0.17,0-0.13,0.05-0.19-0.09c0.03-0.02,0.06-0.03,0.08-0.05c-0.01-0.02-0.02-0.04-0.02-0.06c-0.17,0-0.2,0.01-0.24-0.12
				c0.1-0.01,0.2-0.01,0.3-0.02C62.76,29.63,62.93,29.54,62.96,29.22z"/>
			<path fill-rule="evenodd" clip-rule="evenodd" fill="#231815" d="M63.7,28.45c0.02,0,0.04,0,0.06,0
				c-0.01,0.04-0.02,0.07-0.03,0.11c-0.02-0.02-0.03-0.04-0.05-0.05C63.68,28.49,63.69,28.47,63.7,28.45z"/>
			<path fill-rule="evenodd" clip-rule="evenodd" fill="#231815" d="M63.1,28.46c0.04,0.02,0.07,0.04,0.11,0.06
				c-0.01,0.04-0.02,0.07-0.03,0.11c-0.01,0-0.02,0-0.03,0c-0.02,0-0.04,0-0.05,0c-0.01-0.01-0.02-0.02-0.03-0.03
				C63.08,28.55,63.09,28.51,63.1,28.46z"/>
			<path fill-rule="evenodd" clip-rule="evenodd" fill="#231815" d="M62.7,28.83c0.02,0,0.04,0,0.06,0
				c-0.01,0.04-0.02,0.07-0.03,0.11c-0.02-0.02-0.04-0.04-0.05-0.06C62.68,28.86,62.69,28.85,62.7,28.83z"/>
			<path fill-rule="evenodd" clip-rule="evenodd" fill="#231815" d="M62.04,30.28c0.02,0.02,0.04,0.04,0.05,0.06
				c-0.03,0.03-0.06,0.05-0.09,0.08c-0.01,0-0.02,0-0.03,0C62,30.37,62.02,30.33,62.04,30.28z"/>
			<path fill-rule="evenodd" clip-rule="evenodd" fill="#231815" d="M62.54,30.3c0.03,0,0.05,0,0.08,0
				c-0.07,0.23-0.15,0.55-0.38,0.62c0-0.01,0-0.02,0-0.03C62.34,30.7,62.44,30.5,62.54,30.3z"/>
			<path fill-rule="evenodd" clip-rule="evenodd" fill="#231815" d="M62.15,31.14c0.02,0,0.04,0,0.05,0
				c-0.06,0.37-0.33,1.04-0.59,1.21c-0.01,0-0.02,0-0.03,0C61.64,31.96,61.91,31.45,62.15,31.14z"/>
			<path fill-rule="evenodd" clip-rule="evenodd" fill="#231815" d="M61.08,32.03c0.1,0.07,0.07,0.07,0.05,0.19
				c-0.04,0.01-0.07,0.02-0.11,0.02c0-0.04,0-0.07,0-0.11C61.04,32.1,61.05,32.07,61.08,32.03z"/>
			<path fill-rule="evenodd" clip-rule="evenodd" fill="#231815" d="M61.5,32.4c0.03,0,0.05,0,0.08,0
				c-0.07,0.48-0.46,0.86-0.65,1.24c-0.23,0.5-0.46,1.01-0.69,1.51c-0.1-0.02-0.04,0.03-0.11-0.03
				C60.59,34.18,61.11,33.33,61.5,32.4z"/>
			<path fill-rule="evenodd" clip-rule="evenodd" fill="#231815" d="M60.87,32.43c0.03,0,0.05,0,0.08,0c0,0.04,0,0.07,0,0.11
				c-0.03,0.02-0.06,0.04-0.08,0.05c-0.02-0.02-0.04-0.04-0.05-0.06C60.83,32.5,60.85,32.47,60.87,32.43z"/>
			<path fill-rule="evenodd" clip-rule="evenodd" fill="#231815" d="M60.78,32.68c0.06,0.07,0.04,0.06,0.02,0.17
				c-0.03,0.01-0.06,0.02-0.08,0.02C60.74,32.8,60.76,32.74,60.78,32.68z"/>
			<path fill-rule="evenodd" clip-rule="evenodd" fill="#231815" d="M60.66,32.92c0.05,0.05,0.02,0,0.05,0.08c-0.02,0-0.04,0-0.05,0
				C60.66,32.97,60.66,32.94,60.66,32.92z"/>
			<path fill-rule="evenodd" clip-rule="evenodd" fill="#231815" d="M60.6,33.05c0.07,0.05,0.04,0,0.03,0.08c-0.01,0-0.02,0-0.03,0
				C60.6,33.11,60.6,33.08,60.6,33.05z"/>
			<path fill-rule="evenodd" clip-rule="evenodd" fill="#231815" d="M60.54,33.19c0.03,0,0.05,0,0.08,0c0,0.04,0,0.07,0,0.11
				c-0.03,0.01-0.06,0.02-0.08,0.02c-0.01,0-0.02,0-0.03,0C60.52,33.28,60.53,33.23,60.54,33.19z"/>
			<path fill-rule="evenodd" clip-rule="evenodd" fill="#231815" d="M60.45,33.4c0.03,0,0.05,0,0.08,0
				c-0.05,0.09-0.1,0.18-0.15,0.27c-0.02-0.02-0.04-0.04-0.05-0.06C60.37,33.55,60.41,33.47,60.45,33.4z"/>
			<path fill-rule="evenodd" clip-rule="evenodd" fill="#231815" d="M60.27,33.73c0.03,0,0.05,0,0.08,0c0,0.06,0,0.11-0.01,0.16
				c-0.07,0.06-0.13,0.12-0.2,0.18c-0.03,0-0.06,0-0.08,0C60.14,33.96,60.2,33.84,60.27,33.73z"/>
			<path fill-rule="evenodd" clip-rule="evenodd" fill="#231815" d="M62.29,34.65c0.02,0,0.04,0,0.06,0c-0.05,0.05,0,0.02-0.08,0.05
				C62.27,34.69,62.28,34.67,62.29,34.65z"/>
			<path fill-rule="evenodd" clip-rule="evenodd" fill="#231815" d="M69.66,36.87c0.04,0.02,0.07,0.04,0.11,0.06
				c-0.01,0.03-0.02,0.06-0.03,0.08c-0.01,0-0.02,0-0.03,0C69.68,36.95,69.68,36.97,69.66,36.87z"/>
			<path fill-rule="evenodd" clip-rule="evenodd" fill="#231815" d="M69.82,37.07c0.08,0.02,0.16,0.04,0.24,0.06
				c0.01,0.02,0.02,0.04,0.03,0.06c-0.02,0.02-0.04,0.03-0.06,0.05c-0.07,0-0.15,0-0.22-0.01c-0.01-0.02-0.02-0.04-0.03-0.05
				C69.8,37.14,69.81,37.11,69.82,37.07z"/>
			<path fill-rule="evenodd" clip-rule="evenodd" fill="#231815" d="M69.66,37.09c0.02,0.02,0.03,0.04,0.05,0.06
				C69.69,37.13,69.67,37.11,69.66,37.09z"/>
			<path fill-rule="evenodd" clip-rule="evenodd" fill="#231815" d="M69.62,37.25c0.04,0.02,0.07,0.04,0.11,0.06
				c-0.02,0.01-0.04,0.02-0.06,0.02c-0.03-0.01-0.05-0.02-0.08-0.03C69.6,37.29,69.61,37.27,69.62,37.25z"/>
			<path fill-rule="evenodd" clip-rule="evenodd" fill="#231815" d="M70.19,37.36c0.1,0.03,0.32,0.02,0.38,0.15
				c-0.07-0.01-0.14-0.02-0.22-0.04C70.22,37.49,70.2,37.45,70.19,37.36z"/>
			<path fill-rule="evenodd" clip-rule="evenodd" fill="#231815" d="M70.57,37.53c0.05,0.03,0.09,0.06,0.13,0.09
				C70.6,37.59,70.63,37.6,70.57,37.53z"/>
			<path fill-rule="evenodd" clip-rule="evenodd" fill="#231815" d="M70.83,37.79c0.02,0,0.04,0,0.06,0
				C70.87,37.79,70.85,37.79,70.83,37.79z"/>
			<path fill-rule="evenodd" clip-rule="evenodd" fill="#231815" d="M71.64,38.29c0.1,0.02,0.08,0.01,0.13,0.06
				c0,0.01,0,0.02,0,0.03c-0.03,0.01-0.05,0.02-0.08,0.02C71.67,38.36,71.66,38.32,71.64,38.29z"/>
			<path fill-rule="evenodd" clip-rule="evenodd" fill="#231815" d="M72.48,38.37c0.03,0.07,0.06,0.08,0.08,0
				C72.54,38.37,72.51,38.37,72.48,38.37z"/>
			<path fill-rule="evenodd" clip-rule="evenodd" fill="#231815" d="M71.93,38.52c0.1,0.04,0.06,0,0.11,0.09c-0.04,0-0.07,0-0.11,0
				C71.93,38.57,71.93,38.54,71.93,38.52z"/>
			<path fill-rule="evenodd" clip-rule="evenodd" fill="#231815" d="M73.23,39.06c0.12,0,0.16,0.01,0.22,0.06c0,0.01,0,0.02,0,0.03
				c-0.06,0.01-0.11,0.01-0.17,0.02c-0.03-0.02-0.05-0.04-0.08-0.06C73.21,39.1,73.22,39.08,73.23,39.06z"/>
			<path fill-rule="evenodd" clip-rule="evenodd" fill="#231815" d="M93.16,43.91c0.01,0.03,0.02,0.05,0.02,0.08
				c-0.03,0-0.06,0-0.08,0c0-0.02,0-0.04,0-0.05C93.12,43.93,93.14,43.92,93.16,43.91z"/>
			<path fill-rule="evenodd" clip-rule="evenodd" fill="#231815" d="M92.96,44.09c0.08,0.06,0.05,0.01,0.08,0.11
				c-0.11,0.07-0.2,0.12-0.36,0.15c-0.01-0.04-0.01-0.07-0.02-0.11C92.79,44.22,92.87,44.17,92.96,44.09z"/>
			<path fill-rule="evenodd" clip-rule="evenodd" fill="#231815" d="M90.85,44.7c0.08,0.02,0.16,0.04,0.24,0.06
				c0,0.01,0,0.02,0,0.03c-0.04,0.01-0.07,0.02-0.11,0.02c-0.03-0.01-0.06-0.02-0.08-0.03C90.89,44.76,90.87,44.73,90.85,44.7z"/>
			<path fill-rule="evenodd" clip-rule="evenodd" fill="#231815" d="M92.28,44.78c0.03,0.01,0.06,0.02,0.08,0.03
				c-0.01,0.03-0.02,0.05-0.03,0.08c-0.16,0.02-0.29,0.08-0.41-0.02C92.04,44.85,92.16,44.81,92.28,44.78z"/>
			<path fill-rule="evenodd" clip-rule="evenodd" fill="#231815" d="M91.29,44.8c0.06,0.01,0.11,0.02,0.16,0.03
				c0,0.02,0,0.04,0,0.05c-0.05-0.01-0.11-0.02-0.16-0.03C91.29,44.84,91.29,44.82,91.29,44.8z"/>
			<path fill-rule="evenodd" clip-rule="evenodd" fill="#231815" d="M91.64,44.84c0.05,0.01,0.09,0.02,0.14,0.03
				c-0.01,0.02-0.02,0.04-0.03,0.06c-0.11-0.02-0.11-0.01-0.16-0.06C91.61,44.86,91.63,44.85,91.64,44.84z"/>
		</g>
	</g>
	<g>
		<path fill="#9E9E9F" d="M48.89,52.32h-0.82l-1.35-3.76l-1.36,3.76h-0.81l1.71-4.75h0.92L48.89,52.32z M47.86,50.48v0.76H45.6
			v-0.76H47.86z"/>
		<path fill="#9E9E9F" d="M54,49.04c0-0.21-0.07-0.4-0.21-0.57c-0.13-0.17-0.35-0.25-0.65-0.25c-0.3,0-0.5,0.06-0.61,0.19
			c-0.11,0.12-0.17,0.25-0.18,0.39c-0.02,0.16,0.04,0.28,0.16,0.38c0.13,0.1,0.26,0.17,0.4,0.23c0.15,0.06,0.35,0.11,0.58,0.17
			c0.23,0.06,0.47,0.15,0.71,0.28c0.21,0.12,0.39,0.28,0.53,0.5c0.14,0.22,0.2,0.47,0.17,0.77c-0.03,0.36-0.19,0.67-0.5,0.94
			c-0.3,0.27-0.72,0.4-1.24,0.4c-0.57,0-1.02-0.19-1.35-0.57c-0.33-0.38-0.49-0.77-0.47-1.19h0.79c0,0.27,0.09,0.5,0.3,0.69
			c0.2,0.19,0.45,0.29,0.74,0.29c0.27,0,0.48-0.05,0.63-0.16c0.14-0.11,0.23-0.24,0.27-0.4c0.04-0.15,0.01-0.28-0.07-0.39
			c-0.08-0.11-0.19-0.2-0.32-0.26c-0.2-0.1-0.4-0.18-0.61-0.21c-0.21-0.04-0.43-0.11-0.66-0.21c-0.29-0.12-0.52-0.29-0.68-0.5
			c-0.16-0.21-0.23-0.48-0.21-0.8c0.02-0.3,0.15-0.59,0.41-0.87c0.26-0.28,0.66-0.42,1.2-0.42c0.61,0,1.04,0.19,1.3,0.58
			c0.26,0.39,0.37,0.72,0.35,1.01H54z"/>
		<path fill="#9E9E9F" d="M55.08,48.37V47.6h3.61v0.77h-1.42v3.97h-0.79v-3.97H55.08z"/>
		<path fill="#9E9E9F" d="M62.71,52.33h-0.95l-1.24-1.84h-0.67v1.84h-0.79v-4.75h1.87c0.42,0,0.78,0.14,1.07,0.41
			c0.29,0.27,0.44,0.61,0.44,1.01c0,0.34-0.1,0.65-0.29,0.92c-0.19,0.27-0.43,0.44-0.71,0.51L62.71,52.33z M60.79,49.66
			c0.22,0,0.41-0.05,0.57-0.16c0.15-0.11,0.23-0.27,0.23-0.49c0-0.21-0.08-0.37-0.23-0.48c-0.15-0.11-0.34-0.17-0.57-0.17h-0.94v1.3
			H60.79z"/>
		<path fill="#9E9E9F" d="M66.19,47.58v0.77h-2.37v1.17h2.25v0.76h-2.25v1.27h2.43v0.77h-3.22v-4.75H66.19z"/>
		<path fill="#9E9E9F" d="M70.68,52.32h-0.82l-1.35-3.76l-1.36,3.76h-0.81l1.71-4.75h0.92L70.68,52.32z M69.65,50.48v0.76h-2.26
			v-0.76H69.65z"/>
		<path fill="#9E9E9F" d="M72.77,52.32l-0.88-2.77v2.77H71.1v-4.74h0.96l1.17,3.72l1.16-3.72h0.96v4.74h-0.78v-2.77l-0.88,2.77
			H72.77z"/>
		<path fill="#9E9E9F" d="M78.76,49.47h-0.88v0.92h0.88V49.47z"/>
		<path fill="#9E9E9F" d="M83.19,50.54v-0.72h1.9v2.49H84.3v-0.51c-0.08,0.15-0.23,0.29-0.44,0.43c-0.21,0.14-0.46,0.2-0.75,0.2
			c-0.62,0-1.11-0.23-1.49-0.7c-0.38-0.47-0.57-1.06-0.57-1.79c0-0.73,0.19-1.33,0.56-1.8c0.37-0.46,0.87-0.7,1.5-0.7
			c0.6,0,1.06,0.19,1.38,0.56c0.32,0.37,0.51,0.72,0.57,1.04H84.2c-0.05-0.16-0.16-0.34-0.32-0.53c-0.17-0.19-0.41-0.29-0.73-0.29
			c-0.39,0-0.7,0.16-0.92,0.48c-0.22,0.32-0.33,0.73-0.33,1.24c0,0.51,0.11,0.92,0.33,1.24c0.22,0.32,0.53,0.48,0.92,0.48
			c0.36,0,0.63-0.13,0.8-0.4c0.18-0.27,0.29-0.51,0.33-0.73H83.19z"/>
		<path fill="#9E9E9F" d="M89.37,52.33h-0.95l-1.24-1.84H86.5v1.84h-0.79v-4.75h1.87c0.42,0,0.78,0.14,1.07,0.41
			c0.29,0.27,0.44,0.61,0.44,1.01c0,0.34-0.1,0.65-0.29,0.92c-0.19,0.27-0.43,0.44-0.71,0.51L89.37,52.33z M87.44,49.66
			c0.22,0,0.41-0.05,0.57-0.16c0.15-0.11,0.23-0.27,0.23-0.49c0-0.21-0.08-0.37-0.23-0.48c-0.15-0.11-0.34-0.17-0.57-0.17H86.5v1.3
			H87.44z"/>
		<path fill="#9E9E9F" d="M92.85,47.58v0.77h-2.37v1.17h2.25v0.76h-2.25v1.27h2.43v0.77h-3.22v-4.75H92.85z"/>
		<path fill="#9E9E9F" d="M96.61,47.58v0.77h-2.37v1.17h2.25v0.76h-2.25v1.27h2.43v0.77h-3.22v-4.75H96.61z"/>
		<path fill="#9E9E9F" d="M98,48.9v3.43h-0.79v-4.75h0.96l1.81,3.43v-3.43h0.79v4.75H99.8L98,48.9z"/>
		<path fill="#9E9E9F" d="M103.42,48.37V47.6h3.61v0.77h-1.42v3.97h-0.79v-3.97H103.42z"/>
		<path fill="#9E9E9F" d="M111.05,52.33h-0.95l-1.24-1.84h-0.67v1.84h-0.79v-4.75h1.87c0.42,0,0.78,0.14,1.07,0.41
			c0.29,0.27,0.44,0.61,0.44,1.01c0,0.34-0.1,0.65-0.29,0.92c-0.19,0.27-0.43,0.44-0.71,0.51L111.05,52.33z M109.13,49.66
			c0.22,0,0.41-0.05,0.57-0.16c0.15-0.11,0.23-0.27,0.23-0.49c0-0.21-0.08-0.37-0.23-0.48c-0.15-0.11-0.34-0.17-0.57-0.17h-0.94v1.3
			H109.13z"/>
		<path fill="#9E9E9F" d="M114.53,47.58v0.77h-2.37v1.17h2.25v0.76h-2.25v1.27h2.43v0.77h-3.22v-4.75H114.53z"/>
		<path fill="#9E9E9F" d="M118.29,47.58v0.77h-2.37v1.17h2.25v0.76h-2.25v1.27h2.43v0.77h-3.22v-4.75H118.29z"/>
		<path fill="#9E9E9F" d="M121.55,50.39h-0.88v-0.92h0.88V50.39z"/>
		<path fill="#9E9E9F" d="M127.89,50.74c-0.08,0.39-0.28,0.77-0.6,1.14c-0.32,0.37-0.78,0.56-1.38,0.56c-0.63,0-1.13-0.23-1.5-0.69
			c-0.37-0.46-0.56-1.06-0.56-1.8c0-0.73,0.19-1.33,0.56-1.8c0.37-0.46,0.87-0.7,1.5-0.7c0.62,0,1.09,0.19,1.41,0.59
			c0.32,0.39,0.5,0.75,0.56,1.08h-0.87c-0.05-0.19-0.15-0.39-0.32-0.59c-0.16-0.2-0.41-0.3-0.75-0.3c-0.38,0-0.68,0.16-0.91,0.47
			c-0.23,0.31-0.34,0.73-0.34,1.25c0,0.52,0.11,0.94,0.34,1.26c0.23,0.32,0.53,0.47,0.91,0.47c0.32,0,0.56-0.1,0.74-0.31
			c0.18-0.2,0.29-0.42,0.35-0.64H127.89z"/>
		<path fill="#9E9E9F" d="M129.19,50.22v2.11h-0.79v-4.75h0.79v1.87h1.91v-1.87h0.79v4.75h-0.79v-2.11H129.19z"/>
		<path fill="#9E9E9F" d="M133.42,50.6c0,0.25,0.05,0.49,0.16,0.73c0.11,0.24,0.37,0.35,0.8,0.35c0.42,0,0.69-0.12,0.8-0.35
			c0.11-0.24,0.16-0.48,0.16-0.73v-3.01h0.79v3.24c0,0.48-0.16,0.88-0.47,1.18c-0.31,0.3-0.74,0.45-1.28,0.45
			c-0.54,0-0.96-0.15-1.28-0.45c-0.31-0.3-0.47-0.69-0.47-1.18v-3.24h0.79V50.6z"/>
		<path fill="#9E9E9F" d="M140.5,52.33h-0.95l-1.24-1.84h-0.67v1.84h-0.79v-4.75h1.87c0.42,0,0.78,0.14,1.07,0.41
			c0.29,0.27,0.44,0.61,0.44,1.01c0,0.34-0.1,0.65-0.29,0.92c-0.19,0.27-0.43,0.44-0.71,0.51L140.5,52.33z M138.58,49.66
			c0.22,0,0.41-0.05,0.57-0.16c0.15-0.11,0.23-0.27,0.23-0.49c0-0.21-0.08-0.37-0.23-0.48c-0.15-0.11-0.34-0.17-0.57-0.17h-0.94v1.3
			H138.58z"/>
		<path fill="#9E9E9F" d="M144.7,50.74c-0.08,0.39-0.28,0.77-0.6,1.14c-0.32,0.37-0.79,0.56-1.38,0.56c-0.63,0-1.13-0.23-1.5-0.69
			c-0.37-0.46-0.56-1.06-0.56-1.8c0-0.73,0.19-1.33,0.56-1.8c0.37-0.46,0.87-0.7,1.5-0.7c0.62,0,1.09,0.19,1.41,0.59
			c0.32,0.39,0.5,0.75,0.56,1.08h-0.87c-0.05-0.19-0.15-0.39-0.32-0.59c-0.16-0.2-0.41-0.3-0.74-0.3c-0.38,0-0.68,0.16-0.91,0.47
			c-0.23,0.31-0.34,0.73-0.34,1.25c0,0.52,0.11,0.94,0.34,1.26c0.23,0.32,0.53,0.47,0.91,0.47c0.32,0,0.56-0.1,0.74-0.31
			c0.18-0.2,0.29-0.42,0.35-0.64H144.7z"/>
		<path fill="#9E9E9F" d="M145.99,50.22v2.11h-0.79v-4.75h0.79v1.87h1.91v-1.87h0.79v4.75h-0.79v-2.11H145.99z"/>
	</g>
</g>
</svg>
