<?xml version="1.0" encoding="utf-8"?>
<!-- Generator: Adobe Illustrator 27.3.1, SVG Export Plug-In . SVG Version: 6.00 Build 0)  -->
<svg version="1.1" id="Layer_1" xmlns="http://www.w3.org/2000/svg" xmlns:xlink="http://www.w3.org/1999/xlink" x="0px" y="0px"
	 viewBox="0 0 500 374.9" style="enable-background:new 0 0 500 374.9;" xml:space="preserve">
<style type="text/css">
	.st0{fill:#FFFFFF;}
</style>
<g>
	<g>
		<path class="st0" d="M286.9,311.3h-73.9v-6.9c0-3-2.4-5.4-5.4-5.4H75.1V83.6h13.8v201.6h118.8c8.1,0,15.1,5.1,17.9,12.3h48.8
			c2.8-7.2,9.7-12.3,17.9-12.3h118.8V83.6h13.8V299H292.3c-3,0-5.4,2.4-5.4,5.4V311.3z"/>
	</g>
	<g>
		<path class="st0" d="M262.9,284.4h-25.9l-2.1-2.5c-6.8-8.2-16.7-12.9-27.3-12.9H105.1V63.6h102.6c18,0,33.7,9.7,42.3,24.1
			c8.6-14.4,24.3-24.1,42.3-24.1h102.6V269H292.3c-10.6,0-20.5,4.7-27.3,12.9L262.9,284.4z M243.4,270.5h13.1
			c9.3-9.8,22.1-15.4,35.7-15.4h88.8V77.4h-88.8c-19.5,0-35.4,15.9-35.4,35.4h-13.8c0-19.5-15.9-35.4-35.4-35.4h-88.8v177.8h88.8
			C221.3,255.2,234.2,260.7,243.4,270.5z"/>
	</g>
	<g>
		<rect x="243.1" y="99" class="st0" width="13.8" height="185.4"/>
	</g>
</g>
</svg>
