<?xml version="1.0" encoding="utf-8"?>
<!-- Generator: Adobe Illustrator 27.3.1, SVG Export Plug-In . SVG Version: 6.00 Build 0)  -->
<svg version="1.1" id="Layer_1" xmlns="http://www.w3.org/2000/svg" xmlns:xlink="http://www.w3.org/1999/xlink" x="0px" y="0px"
	 viewBox="0 0 500 374.9" style="enable-background:new 0 0 500 374.9;" xml:space="preserve">
<style type="text/css">
	.st0{fill:#FFFFFF;}
	.st1{fill:#F9C087;}
</style>
<g>
	<path class="st0" d="M174.3,114.6c0,0-18.6-34.6,5.2-39.8l14.7,21.8L174.3,114.6z"/>
	<path d="M173.1,121.8l-2.7-5.1c-1.2-2.3-11.7-22.6-5.5-36.1c1.7-3.7,5.5-8.5,13.7-10.3l3-0.7l18.6,27.6L173.1,121.8z M177.6,80
		c-2.2,1-3.7,2.4-4.6,4.4c-2.8,6,0.1,16,2.8,22.7l12.5-11.3L177.6,80z"/>
</g>
<g>
	<path class="st0" d="M311.4,324.4l-9-7L194.2,96.5L179.5,115c-0.9-1.4-2.3-2.4-3.8-3.1c-4.1-2-9,0.5-9.8,5
		c-2.5,13.1-7.7,41.5-7.7,51.7c0,13.5,9,27,13.5,40.6c4.5,13.5,18,45.1,22.5,58.6c4.5,13.5,27,36.1,27,36.1v20.5H311.4z"/>
	<path d="M312.2,330.7l-13.4-10.4l-0.5-0.9l-105-214.4l-14.2,17.7l-3.4-5.1c-0.5-0.8-1.4-1.3-2-1.6c-0.9-0.4-1.7-0.2-2.2,0
		c-0.4,0.2-1.1,0.7-1.3,1.8c-2.3,12-7.6,40.9-7.6,50.9c0,8.1,3.7,16.4,7.6,25.2c2,4.5,4.1,9.2,5.7,13.9c2.2,6.6,6.8,18,11.2,29
		c4.5,11.1,9.1,22.7,11.4,29.5c3.4,10.3,19.9,28.2,26,34.3l1.3,1.3v26.9h-9v-23.2c-5-5.2-22.6-23.9-26.8-36.5
		c-2.2-6.6-6.8-18-11.2-29c-4.5-11.1-9.1-22.7-11.4-29.5c-1.4-4.3-3.3-8.6-5.4-13.1c-4.1-9.3-8.4-18.9-8.4-28.9
		c0-10.4,4.9-37.4,7.8-52.6c0.7-3.5,2.9-6.5,6.1-8.1c3.2-1.6,6.9-1.7,10.1-0.1c0.4,0.2,0.9,0.4,1.3,0.7l16.3-20.3L306,314.4
		l11.7,9.1L312.2,330.7z"/>
</g>
<g>
	<path d="M168.9,214.9l-1.4-4.3c-1.4-4.3-3.3-8.6-5.4-13.1c-4.1-9.3-8.4-18.9-8.4-28.9c0-10.4,4.9-37.4,7.8-52.6
		c0.7-3.5,2.9-6.5,6.1-8.1c3.2-1.6,6.9-1.7,10.1-0.1c4.9,2.3,7.6,6.3,7.6,11.3v40.6c0.3,1.4,3.6,8.4,6.3,14.1
		c6.9,14.5,11.7,25.2,11.7,31v4.5h-9v-4.5c0-4.3-6.5-18-10.9-27.1c-5.3-11.1-7.2-15.3-7.2-17.9v-40.6c0-0.7,0-2-2.4-3.1
		c-0.9-0.4-1.7-0.2-2.2,0c-0.4,0.2-1.1,0.7-1.3,1.8c-2.3,12-7.6,40.9-7.6,50.9c0,8.1,3.7,16.4,7.6,25.2c2,4.5,4.1,9.2,5.7,13.9
		l1.4,4.3L168.9,214.9z"/>
</g>
<g>
	<path class="st0" d="M323.1,172.7c-1.8-18.5-7.2-35.6-11.7-44.6c-2.6-5.1-3.7-14.6-4.1-21.9c-0.4-5.4-4.9-9.7-10.3-9.7l0,0
		c-4.7,0-8.9,3.2-10,7.8l-2.5,10.2v13.5L323.1,172.7z"/>
	<path d="M329,186.3l-49.1-56.5l0.1-16.3l2.5-10.2c1.7-6.6,7.6-11.2,14.4-11.2c7.8,0,14.3,6.1,14.8,13.9c0.6,9.5,1.9,16.7,3.7,20.2
		c4.4,8.8,10.2,26.2,12.2,46.2L329,186.3z M288.9,126.4l27.5,31.6c-2.4-11.6-5.9-21.7-9-27.9c-2.3-4.7-3.9-12.6-4.6-23.6
		c-0.2-3.1-2.8-5.5-5.8-5.5c-2.7,0-5,1.8-5.7,4.4l-2.4,9.6V126.4z"/>
</g>
<g>
	<rect x="221.3" y="297.5" transform="matrix(0.7071 -0.7071 0.7071 0.7071 -151.9006 249.9626)" width="9" height="21.8"/>
</g>
<path class="st0" d="M311.4,324.4c0,0-13.5-7-22.5-16c-9-9-36.1-13.5-54.1-49.6c-18-36.1-18-54.1-22.5-67.6
	c-4.5-13.5-27-63.1-31.5-67.6c-4.5-4.5-9-18-4.5-22.5c4.5-4.5,9-4.5,9-4.5s-9-18-4.5-27c1.1-2.3,2.8-3.7,4.7-4.5
	c0,0-9.2-13.5-0.2-18c9-4.5,13.5,0,13.5,0l4.5,4.5c0,0,9-4.5,18,0c9,4.5,36.1,31.5,45.1,40.6c9,9,27,40.6,31.5,45.1
	c4.5,4.5,4.5,4.5,4.5,4.5s22.5,18,31.5,67.6c9,49.6,27,63.1,27,63.1L311.4,324.4z"/>
<path d="M313.3,330.4l-4-2.1c-0.6-0.3-14.3-7.4-23.6-16.8c-2.1-2.1-5.9-4.2-10.3-6.6c-12.4-6.8-31-17-44.6-44.1
	c-13.2-26.4-16.9-43.5-19.7-55.9c-1-4.7-1.9-8.7-3.1-12.3c-4.8-14.4-26.7-61.7-30.5-65.9c-5.5-5.5-11.4-22-4.5-28.9
	c2.1-2,4.1-3.4,6-4.2c-2.7-6.7-6.2-18.4-2.3-26.1c0.7-1.5,1.7-2.8,2.8-3.8c-1.7-3.5-3.5-8.7-2.3-13.4c0.8-3.2,2.9-5.7,6-7.3
	c9.4-4.7,16.2-1.7,18.7,0.8l2.5,2.5c4-1.3,11.4-2.5,18.9,1.2c8.7,4.3,30.5,25.7,46.2,41.4c5.6,5.6,13.9,18.5,21.2,29.8
	c4.1,6.4,8.8,13.7,10.4,15.2l4.4,4.4c2.6,2.2,24.1,21.5,32.9,70.1c8.5,46.7,25.2,60.2,25.3,60.3l3.5,2.7l-5.4,7.1l-3.6-2.7
	c-0.8-0.6-19.5-15.2-28.8-65.9c-8.5-47-29.7-64.7-29.9-64.9l-0.4-0.3l-4.5-4.5c-2.1-2.1-5.6-7.5-11.6-16.7
	c-6.7-10.4-15-23.4-20-28.3c-23.6-23.6-38.3-36.9-43.9-39.7c-6.8-3.4-13.9,0-14,0l-2.9,1.5l-6.8-6.8l0,0c0,0-2.6-2-8.3,0.8
	c-1,0.5-1.2,1-1.3,1.5c-0.7,2.8,1.9,8,3.3,10l3,4.5l-4.9,2.2c-1.2,0.5-2,1.3-2.5,2.4c-2.4,4.8,1.2,16.3,4.5,23l3.2,6.5l-7.3,0
	c0,0-2.8,0.2-5.8,3.2c-1.8,1.8,0.8,12.4,4.5,16.2c5.6,5.6,28.4,56.5,32.6,69.4c1.3,4,2.3,8.3,3.4,13.2c2.6,12,6.2,28.4,18.9,53.8
	c12.3,24.6,28.8,33.6,40.9,40.3c5,2.8,9.4,5.1,12.4,8.1c8.4,8.4,21.3,15.1,21.4,15.2l4,2.1L313.3,330.4z"/>
<g>
	<path class="st1" d="M185.2,96.5l13.5,18l31.5,49.6c0,0,4.5,4.5,9,13.5L185.2,96.5z"/>
	<path d="M237.3,183.7l-2-4c-4.1-8.1-8.1-12.3-8.2-12.4l-0.6-0.8L194.9,117l-16-21.3l7.2-5.4l16.2,21.6l31.5,49.5
		c1.3,1.4,5.4,6.1,9.5,14.3l2,4L237.3,183.7z"/>
</g>
<g>
	<path class="st1" d="M185.2,65l5.4,2.7c2.4,1.2,4.4,2.9,5.9,5.1c8.6,12.4,38.9,55.9,42.8,59.8c4.5,4.5,18,27,18,27s4.5,4.5,8.3,10
		L185.2,65z"/>
	<path d="M264.4,175.9l-2.6-3.7c-3.5-5.1-7.7-9.3-7.8-9.4l-0.7-0.9c-5.1-8.5-14.4-23.2-17.3-26.2c-3.8-3.8-28.8-39.5-43.3-60.4
		c-1.1-1.5-2.5-2.8-4.2-3.7l-9.4-4.7l4-8.1l9.4,4.7c3,1.5,5.7,3.8,7.6,6.6c23.3,33.6,39.9,56.8,42.3,59.2
		c4.5,4.5,16.1,23.6,18.4,27.5c1.2,1.3,5,5.3,8.4,10.2l2.6,3.7L264.4,175.9z"/>
</g>
<g>
	<path class="st1" d="M203.2,51.5l40.6,45.1c0,0,13.5,22.5,22.5,36.1c9,13.5,18,27,18,27L203.2,51.5z"/>
	<path d="M283.1,165.9l-20.5-30.8c-8.3-12.5-20.6-32.9-22.4-35.9l-43.3-48.1l6.7-6l44.1,49.1c0.1,0.2,13.6,22.6,22.4,35.9l20.5,30.8
		L283.1,165.9z"/>
</g>
</svg>
