<?xml version="1.0" encoding="utf-8"?>
<!-- Generator: Adobe Illustrator 27.3.1, SVG Export Plug-In . SVG Version: 6.00 Build 0)  -->
<svg version="1.1" id="Layer_1" xmlns="http://www.w3.org/2000/svg" xmlns:xlink="http://www.w3.org/1999/xlink" x="0px" y="0px"
	 viewBox="0 0 500 374.9" style="enable-background:new 0 0 500 374.9;" xml:space="preserve">
<style type="text/css">
	.st0{fill:#FFFFFF;}
</style>
<path class="st0" d="M368.2,64L368.2,64c-18-17.2-39.1-30.1-62.1-38.1c-17.8-6.2-36.8-9.4-56.2-9.4c-8.3,0-16.5,0.6-24.6,1.8
	c-32.4,4.7-62.6,18.5-87.5,40.2c-0.5,0.5-1,0.9-1.5,1.4c-1.5,1.4-3.1,2.7-4.6,4.2l0,0c0,0,0,0,0,0c0,0,0,0,0,0
	c-34,32.5-52.7,76.4-52.7,123.4c0,47.1,18.7,90.9,52.7,123.5c31.9,30.6,73.9,47.5,118.2,47.5c5.5,0,11-0.3,16.5-0.8
	c38.1-3.6,73.8-19.9,101.7-46.7c34-32.5,52.7-76.4,52.7-123.5C420.9,140.4,402.2,96.5,368.2,64z M360.9,292.1
	c-7.7-5.3-15.9-10-24.4-14.1c9-24.3,14.2-52.2,15.1-81.3h50.7C400,232.6,385.6,266,360.9,292.1z M345.5,306.2
	c-0.8,0.6-1.5,1.2-2.3,1.8c-1.1,0.8-2.2,1.7-3.3,2.5c-0.8,0.6-1.6,1.1-2.4,1.7c-1.1,0.8-2.3,1.6-3.4,2.3c-0.8,0.5-1.5,1-2.3,1.5
	c-1.2,0.8-2.5,1.5-3.8,2.3c-0.7,0.4-1.4,0.9-2.2,1.3c-1.5,0.9-3,1.7-4.6,2.5c-0.5,0.3-1,0.5-1.5,0.8c-2,1.1-4.1,2.1-6.2,3
	c-0.5,0.2-0.9,0.4-1.4,0.6c-1.4,0.6-2.9,1.3-4.3,1.9c5.5-6.4,10.7-13.8,15.5-22.2c2.1-3.6,4-7.4,5.9-11.3c6.2,3,12.1,6.3,17.7,10
	C346.5,305.4,346,305.8,345.5,306.2z M186.4,326.1c-2.1-1-4.2-2-6.2-3c-0.5-0.2-0.9-0.5-1.3-0.7c-1.6-0.8-3.2-1.7-4.7-2.6
	c-0.7-0.4-1.4-0.8-2.1-1.3c-1.3-0.8-2.6-1.5-3.8-2.3c-0.8-0.5-1.5-1-2.3-1.5c-1.2-0.8-2.3-1.6-3.5-2.4c-0.8-0.6-1.6-1.1-2.3-1.7
	c-1.1-0.8-2.2-1.6-3.3-2.5c-0.8-0.6-1.6-1.2-2.3-1.8c-0.5-0.4-1-0.8-1.4-1.2c5.6-3.7,11.6-7,17.7-10c1.9,3.9,3.8,7.7,5.9,11.3
	c4.8,8.3,10,15.7,15.5,22.2c-1.5-0.6-3-1.3-4.5-1.9C187.2,326.4,186.8,326.2,186.4,326.1z M139.1,82.8c7.7,5.3,15.9,10,24.4,14.1
	c-9,24.3-14.2,52.2-15.1,81.3H97.8C100,142.3,114.4,108.9,139.1,82.8z M154.5,68.7c0.8-0.6,1.6-1.2,2.3-1.9c1.1-0.8,2.2-1.6,3.2-2.4
	c0.8-0.6,1.6-1.2,2.4-1.7c1.1-0.8,2.3-1.6,3.4-2.3c0.8-0.5,1.6-1,2.3-1.5c1.2-0.8,2.5-1.6,3.8-2.3c0.7-0.4,1.4-0.9,2.2-1.3
	c1.5-0.9,3.1-1.7,4.6-2.5c0.5-0.3,1-0.5,1.4-0.8c2.1-1.1,4.1-2.1,6.2-3c0.4-0.2,0.9-0.4,1.3-0.6c1.5-0.7,2.9-1.3,4.4-1.9
	c-5.5,6.4-10.7,13.8-15.5,22.2c-2.1,3.6-4,7.4-5.9,11.3c-6.2-3-12.1-6.3-17.7-10C153.5,69.5,154,69,154.5,68.7z M313.6,48.8
	c2.1,1,4.2,2,6.3,3.1c0.4,0.2,0.8,0.4,1.2,0.7c1.6,0.9,3.3,1.7,4.9,2.7c0.7,0.4,1.3,0.8,2,1.2c1.3,0.8,2.6,1.6,3.9,2.4
	c0.7,0.5,1.5,1,2.2,1.4c1.2,0.8,2.4,1.6,3.6,2.4c0.8,0.5,1.5,1.1,2.2,1.6c1.1,0.8,2.3,1.7,3.4,2.6c0.7,0.6,1.5,1.2,2.2,1.8
	c0.5,0.4,1,0.8,1.5,1.3c-5.6,3.7-11.6,7-17.7,10c-1.9-3.9-3.8-7.7-5.9-11.3c-4.8-8.3-10-15.7-15.5-22.2c1.5,0.6,3.1,1.3,4.6,2
	C312.8,48.5,313.2,48.6,313.6,48.8z M240.8,97.1c-18.5-0.9-36.3-4.3-52.9-10.2c1.5-3.2,3.1-6.3,4.8-9.2c13.4-23.5,30.2-38,48.1-41.7
	V97.1z M240.8,115.6v62.6H167c0.9-26.7,5.6-52.1,13.6-74.2C199.5,110.7,219.8,114.7,240.8,115.6z M240.8,196.7v62.6
	c-21,0.9-41.3,4.9-60.1,11.7c-8.1-22.1-12.8-47.5-13.6-74.2H240.8z M240.8,277.8v61.1c-17.8-3.7-34.6-18.2-48.1-41.7
	c-1.7-3-3.3-6.1-4.8-9.2C204.4,282.1,222.3,278.6,240.8,277.8z M259.2,277.8c18.5,0.9,36.3,4.3,52.9,10.2c-1.5,3.2-3.1,6.3-4.8,9.2
	c-13.4,23.5-30.2,38-48.1,41.7V277.8z M259.2,259.3v-62.6H333c-0.9,26.7-5.6,52.1-13.6,74.2C300.5,264.1,280.2,260.2,259.2,259.3z
	 M259.2,178.2v-62.6c21-0.9,41.3-4.9,60.1-11.7c8.1,22.1,12.8,47.5,13.6,74.2H259.2z M259.2,97.1V36c17.8,3.7,34.6,18.2,48.1,41.7
	c1.7,3,3.3,6.1,4.8,9.2C295.6,92.8,277.7,96.2,259.2,97.1z M148.5,196.7c0.9,29.2,6.1,57,15.1,81.3c-8.6,4.1-16.8,8.8-24.4,14.1
	c-24.8-26.1-39.2-59.5-41.3-95.4H148.5z M351.5,178.2c-0.9-29.2-6.1-57-15.1-81.3c8.6-4.1,16.8-8.8,24.4-14.1
	c24.8,26.1,39.2,59.5,41.3,95.4H351.5z"/>
</svg>
