<?xml version="1.0" encoding="utf-8"?>
<!-- Generator: Adobe Illustrator 27.3.1, SVG Export Plug-In . SVG Version: 6.00 Build 0)  -->
<svg version="1.1" id="Layer_1" xmlns="http://www.w3.org/2000/svg" xmlns:xlink="http://www.w3.org/1999/xlink" x="0px" y="0px"
	 viewBox="0 0 500 374.9" style="enable-background:new 0 0 500 374.9;" xml:space="preserve">
<style type="text/css">
	.st0{fill:#FFFFFF;}
</style>
<g>
	<path class="st0" d="M342.1,19.8c-59.3,15.3-64.2,75.8-64.2,75.8c-5.4-5.8-1.9-27.3-1.9-27.3c-79,68.7-55.9,140.2-55.9,140.2
		S289,82.9,315.8,57.3c0,0-12.2,22.3-28.2,51.6l-0.2,0.4c-1.9,3.6-3.9,7.2-5.9,10.9l-0.2,0.3c0,0-67.2,102.4-90.6,157.9l12.3-6
		l38.3-62.6c58.7-4.5,82.3-83.6,82.3-83.6c-10.5,10.4-21.6,12.8-21.6,12.8C350.5,98.3,342.1,19.8,342.1,19.8z"/>
	<path class="st0" d="M186.8,292.7c0,0-2.7,2.3-7.1,6.4c-2.2,2.1-4.9,4.6-7.8,7.6c-1.4,1.5-2.9,3.1-4.2,4.9
		c-0.6,0.9-1.3,1.8-1.8,2.7c-0.5,0.9-0.9,1.8-0.9,2.3c0,0.2,0.1,0.3,0.1,0.1c0-0.2-0.1-0.5-0.1-0.5c0,0,1,0.3,2,0.4
		c2.1,0.2,4.8,0.1,7.6-0.3c5.6-0.7,11.6-1.9,17.8-3.3c3.1-0.7,6.3-1.5,9.5-2.3c3.2-0.8,6.5-1.7,9.9-2.4c6.8-1.6,13.8-2.9,20.9-3.9
		c7.2-0.8,14.4-1.5,22-0.8c3.8,0.4,7.8,0.9,12.2,3.3c1.1,0.6,2.3,1.4,3.4,2.5c1.1,1.1,2.1,2.6,2.7,4.3c0.6,1.7,0.7,3.5,0.5,5.1
		c-0.2,1.5-0.6,2.9-1.1,4c-1,2.3-2.3,3.9-3.6,5.4c-1.3,1.5-2.6,2.7-3.9,3.9c-2.7,2.3-5.4,4.1-8.1,5.8c-5.4,3.3-10.7,5.7-15.6,7.8
		c-9.9,4-18.4,6.3-24.4,7.6c-3,0.7-5.4,1.1-7,1.4c-1.6,0.3-2.5,0.4-2.5,0.4s3.1-1.6,8.6-4.3c5.4-2.7,13.2-6.6,21.9-11.9
		c4.4-2.6,9-5.6,13.5-9.1c2.2-1.7,4.4-3.6,6.3-5.6c1.9-1.9,3.7-4.2,4.2-5.8c0.2-0.4,0.1-0.6,0.1-0.7c0-0.1-0.1,0.1,0,0.2
		c0,0.2,0.1,0.3,0,0.2c-0.1-0.1-0.3-0.2-0.7-0.4c-0.7-0.3-1.9-0.7-3.2-0.9c-1.3-0.3-2.7-0.4-4.2-0.5c-6-0.3-12.7,0.2-19.3,1.1
		c-6.6,0.8-13.4,2-19.9,3.3c-6.6,1.3-13.3,2.7-19.9,3.7c-6.6,1-13,1.7-19.4,1.7c-3.2,0-6.4-0.1-9.8-0.9c-1.7-0.5-3.6-1-5.6-2.7
		c-1-0.9-1.9-2.3-2.2-3.8c-0.3-1.5-0.1-2.8,0.2-3.8c0.7-2,1.6-3.3,2.5-4.5c0.9-1.1,1.9-2.1,2.8-3c1.9-1.7,3.8-3.1,5.6-4.4
		c3.5-2.6,6.8-4.4,9.5-5.9c2.7-1.5,4.9-2.5,6.4-3.3C186,293,186.8,292.7,186.8,292.7z"/>
</g>
</svg>
