<?xml version="1.0" encoding="utf-8"?>
<!-- Generator: Adobe Illustrator 27.3.1, SVG Export Plug-In . SVG Version: 6.00 Build 0)  -->
<svg version="1.1" id="Layer_1" xmlns="http://www.w3.org/2000/svg" xmlns:xlink="http://www.w3.org/1999/xlink" x="0px" y="0px"
	 viewBox="0 0 500 374.9" style="enable-background:new 0 0 500 374.9;" xml:space="preserve">
<style type="text/css">
	.st0{fill:#FFFFFF;}
</style>
<path class="st0" d="M393.9,60.8c-3-3-8-3-11,0l-11.1,11.1l-45.6-45.6c-3-3-8-3-11,0c-3,3-3,8,0,11l45.6,45.6l-20.9,20.9l-26.5-26.5
	c-3-3-8-3-11,0c-3,3-3,8,0,11l26.5,26.5l-94.1,94.1c-14.3-11.8-32.1-18.2-50.9-18.2c-21.4,0-41.5,8.3-56.6,23.5
	c-31.2,31.2-31.2,82,0,113.3c15.1,15.1,35.2,23.5,56.6,23.5c21.4,0,41.5-8.3,56.6-23.5c29.4-29.4,31.1-76.1,5.2-107.5L393.9,71.8
	C396.9,68.7,396.9,63.8,393.9,60.8z M229.5,316.4c-12.2,12.2-28.4,18.9-45.6,18.9c-17.2,0-33.4-6.7-45.6-18.9
	c-25.2-25.2-25.2-66.1,0-91.3c12.2-12.2,28.4-18.9,45.6-18.9c17.2,0,33.4,6.7,45.6,18.9C254.7,250.3,254.7,291.3,229.5,316.4z"/>
</svg>
