<?xml version="1.0" encoding="utf-8"?>
<!-- Generator: Adobe Illustrator 27.3.1, SVG Export Plug-In . SVG Version: 6.00 Build 0)  -->
<svg version="1.1" id="Layer_1" xmlns="http://www.w3.org/2000/svg" xmlns:xlink="http://www.w3.org/1999/xlink" x="0px" y="0px"
	 viewBox="0 0 500 374.9" style="enable-background:new 0 0 500 374.9;" xml:space="preserve">
<style type="text/css">
	.st0{fill:#FFFFFF;}
</style>
<g>
	<path class="st0" d="M100.9,340.2c-2.7-1.5-3.7-3.8-3.6-6.9c0.1-8.8,0-17.7,0.1-26.5c0-18.9,10.9-32.4,29.4-36.6
		c0.5-0.1,0.9-0.3,1.7-0.6c-7.9-8.5-8.9-18.7-8.1-29.4c0.3-4.3,0.1-8.8,1.2-13c3.7-13.9,16.6-23,31.3-22.5c2.2,0.1,3.9-0.4,5.5-2
		c5.2-4.9,11.6-7.6,19.1-8.7c-4-4.8-7.2-9.7-7.6-15.6c-0.5-8-1.2-16.2,0-24c2-12.7,10.1-20.8,22.4-24.5c0.8-0.2,1.5-0.4,2.6-0.7
		c-2.4-9-7.9-15-16.5-18c-2.6-0.9-5.4-1.3-8.2-1.3c-12.3-0.1-24.7-0.1-37,0c-14.8,0.1-25.7,11.1-25.8,26c-0.1,9.3,0,18.7,0,28
		c0,4.1-1.8,6.3-5.1,6.3c-3.2,0-5.1-2.3-5.1-6.3c0-9.1,0-18.3,0-27.4c0-18.7,11.5-32.5,29.8-36.2c0.3-0.1,0.5-0.2,0.8-0.3
		c0-0.2,0.1-0.5,0-0.6c-6.2-7.2-8.2-15.7-7.8-24.9c0.2-5.2,0-10.6,1.1-15.7c3.3-15.3,18.5-25.8,33.6-23.7
		c16.4,2.2,28.1,15.6,27.7,31.7c0,1.3-0.1,2.6,0,3.9c0.5,10.5-0.2,20.7-8.2,29.2c2,0.5,3.5,0.8,5,1.2c13.2,3.8,21.7,12.3,25.4,25.6
		c0.6,2.1,1.3,3,3.5,3.6c13.9,3.6,23.2,15.6,23.3,29.9c0,6.6,0.4,13.4-0.9,19.9c-2.8,14.3-15.5,24-30.6,24.3
		c-6.5,0.1-12.9,0-19.4,0.1c-4.8,0.1-9.1,1.7-13.4,4.6c1,0.7,1.8,1.3,2.6,2c8.2,6.2,12.4,14.5,12.7,24.8c0.1,4.1,0.1,8.2,0,12.2
		c0,3.5-2.1,5.8-5,5.9c-3.1,0.1-5.1-2.3-5.2-6c-0.1-5.2,0.2-10.4-0.5-15.5c-1.6-10.7-10.9-17.8-21.9-17.3
		c-10,0.5-18.6,8.7-19.3,18.9c-0.4,5.6-0.4,11.3,0,17c0.7,9.7,8.4,17.5,18.1,18.4c5.4,0.5,10.9,0.6,16.4,0.3
		c14.9-0.7,27.1,4.1,35.2,16.5c4-3.6,7.5-7.7,11.9-10.6c4.3-2.8,9.4-4.3,14.3-6.4c-3.7-4.2-6.7-9.4-7.1-15.5
		c-0.4-7.7-1-15.6,0.1-23.2c2.4-15.7,15.9-26.1,31.8-25.6c2.2,0.1,3.8-0.4,5.5-2c4.7-4.3,10.3-7,16.6-8.2c0.7-0.1,1.5-0.4,2.6-0.7
		c-7.8-8.2-8.7-18-8.1-28.3c0.2-4.3,0-8.9,1-13c2.9-11.5,10.4-18.9,21.8-22.4c0.8-0.3,1.7-0.5,2.5-0.8
		c-1.7-10.2-11.8-19.1-22.6-19.4c-13.7-0.3-27.4-0.3-41.2,0.1c-3.6,0.1-7.3,1.8-10.7,3.2c-3.5,1.5-6.3,1.2-7.8-1.5
		c-1.5-2.7-0.5-5.8,2.8-7.3c4.1-1.9,8.4-3.4,12.8-5.1c-3.8-4.3-6.7-9.5-7.2-15.6c-0.7-8.9-1.6-17.9,0.9-26.7
		c4-14.4,19-24.2,33.4-22.1c16,2.3,27.4,15.1,27.5,30.7c0,2.4-0.1,4.8,0,7.2c0.5,9.8-0.9,19.1-8.2,26.9c1.8,0.4,3.2,0.8,4.6,1.1
		c13.4,3.7,21.9,12.3,25.6,25.7c0.5,1.9,1.2,2.9,3.3,3.4c13.7,3.3,23.1,15,23.6,29c0.2,6.3,0.5,12.8-0.4,19
		c-2.3,15.3-15.1,25.8-31,26.1c-6.6,0.1-13.1,0-19.7,0.1c-4.8,0.1-9.1,1.7-13.2,4.5c0.7,0.6,1.3,1.1,1.9,1.5
		c8.8,6.4,13.4,15,13.4,25.9c0,4,0,8,0,11.9c-0.1,3.4-2,5.5-4.9,5.6c-3,0.1-5.1-2.2-5.2-5.7c-0.1-4.1,0-8.2,0-12.2
		c-0.2-11.7-9.3-20.8-20.9-20.9c-11.7,0-20.8,9.1-21,21c-0.1,4,0,8,0,11.9c0.1,12.6,8.7,21.4,21.2,21.7c4.7,0.1,9.4,0.2,14,0
		c14.7-0.7,26.4,4.4,34.9,17.1c6.3-9.6,15-15.2,26.6-17c-8-8.4-8.7-18.5-8.4-28.9c0.2-5.6,0.1-11.1,2.2-16.4
		c5.3-13.2,19.1-21.4,32.9-19.4c14.6,2,25.8,13.5,27,28c0.4,5,0.3,10.1,0.3,15.2c0,3.4-2.1,5.5-5,5.5c-3,0-5-2.2-5.1-5.7
		c-0.1-4.6,0.1-9.2-0.2-13.7c-0.8-11.2-9.9-19.4-21.1-19.3c-10.9,0.1-19.9,8.5-20.6,19.6c-0.3,5.1-0.3,10.4,0,15.5
		c0.7,11.3,9.7,19.4,21.5,19.6c5.6,0.1,11.1,0,16.7,0c18.7,0.1,32.5,11.5,36.2,29.8c0.1,0.5,0.3,0.9,0.5,1.4c0,13.1,0,26.2,0,39.4
		c-2.2,0-4.4,0-6.6,0c-2.8-1.5-3.7-3.7-3.7-6.9c0.1-9,0.1-18.1,0-27.1c-0.1-15.4-10.8-26.3-26.2-26.4c-11.9-0.1-23.9-0.1-35.8,0
		c-15.4,0.1-26.2,10.9-26.2,26.4c0,9-0.1,18.1,0,27.1c0.1,3.1-0.9,5.4-3.6,6.9c-1,0-2,0-3,0c-2.8-1.5-3.7-3.7-3.6-6.9
		c0.1-9,0.1-18.1,0-27.1c-0.1-15.4-10.8-26.3-26.2-26.4c-11.9-0.1-23.9-0.1-35.8,0c-15.4,0.1-26.2,11-26.2,26.4c0,9-0.1,18.1,0,27.1
		c0.1,3.1-0.9,5.4-3.6,6.9c-1,0-2,0-3,0c-2.7-1.5-3.7-3.8-3.6-6.9c0.1-9,0.1-18.1,0-27.1c-0.1-15.4-10.8-26.3-26.2-26.4
		c-11.9-0.1-23.9-0.1-35.8,0c-15.4,0.1-26.2,11-26.2,26.4c0,9-0.1,18.1,0,27.1c0.1,3.1-0.9,5.4-3.7,6.9
		C102.9,340.2,101.9,340.2,100.9,340.2z M172.6,72.4c-0.1,0-0.1,0-0.2,0c0-2.4,0.1-4.8,0-7.2C171.9,54.1,163,45.3,152,45
		c-11.2-0.3-20.6,8.1-21.4,19.3c-0.4,5.4-0.4,10.9,0,16.4c0.8,10.6,9.5,18.7,20.2,19.1c10.2,0.4,19.4-7,21.2-17.3
		C172.5,79.1,172.4,75.7,172.6,72.4z M228.9,72.1c0.1,0,0.1,0,0.2,0c0,2.4-0.1,4.8,0,7.2c0.3,11.4,9.6,20.5,21,20.5
		c11.2,0,20.5-9.1,20.8-20.3c0.1-4.6,0.1-9.1,0-13.7c-0.2-11-8.4-19.7-19.2-20.7c-10.4-0.9-20.1,6.2-22.2,16.7
		C228.9,65.1,229.1,68.6,228.9,72.1z M320.3,166.4c-0.1,0-0.2,0-0.4,0c0-2.4,0.1-4.8,0-7.2c-0.5-11.5-9.8-20.2-21.3-20.1
		c-11.2,0.1-20.3,9.3-20.5,20.6c-0.1,4.6-0.1,9.1,0,13.7c0.2,10.6,8.1,19,19,20.3c9.7,1.2,19.7-5.4,22.1-15.2
		C320.1,174.6,319.9,170.4,320.3,166.4z M179.5,166.4c0,2.5-0.1,5,0,7.4c0.5,10.9,8.8,19.2,19.9,20c10,0.7,19.8-6.6,21.4-16.9
		c0.9-6.1,0.8-12.5,0.4-18.7c-0.7-11-10.2-19.2-21.4-19.1c-10.8,0.2-19.8,8.9-20.3,19.8C179.4,161.4,179.5,163.9,179.5,166.4z"/>
	<path class="st0" d="M402.7,166.6c-1.4,2.6-3.4,4.3-6.5,3.4c-3.1-0.9-3.7-3.4-3.7-6.4c0.1-9.1,0.1-18.3,0-27.4
		c-0.1-15.4-10.9-26.3-26.2-26.4c-11.9,0-23.8-0.2-35.8,0.1c-3.9,0.1-7.8,1.2-11.5,2.3c-3.3,0.9-6.1,0.2-7.3-2.5
		c-1.2-2.8,0-5.6,3.4-6.9c3.3-1.3,6.7-2.2,9.5-3.1c-2-4.4-4.8-8.8-5.9-13.6c-2.1-9.3-2.2-19,0-28.3c3.6-15,19.1-25.2,33.9-22.8
		c16.6,2.6,28,16.2,27.1,32.4c0,0.7-0.1,1.4,0,2.1c0.8,10.9,0.1,21.5-7.9,30.1c3.5,1.1,6.8,1.9,9.8,3.3
		c11.4,5.3,18.3,14.2,20.6,26.6c0.1,0.5,0.3,0.9,0.5,1.3C402.7,142.7,402.7,154.7,402.7,166.6z M327.4,72.1c0.1,0,0.1,0,0.2,0
		c0,2.3-0.1,4.6,0,6.9c0.3,11.4,9.2,20.4,20.5,20.8c11,0.4,20.5-8.1,21.3-19.4c0.4-5.3,0.4-10.7,0-16.1
		c-0.7-10.5-9.3-18.7-19.7-19.2c-10.6-0.5-19.9,6.8-21.7,17.3C327.5,65.5,327.6,68.8,327.4,72.1z"/>
</g>
</svg>
