<?xml version="1.0" encoding="utf-8"?>
<!-- Generator: Adobe Illustrator 27.3.1, SVG Export Plug-In . SVG Version: 6.00 Build 0)  -->
<svg version="1.1" id="Layer_1" xmlns="http://www.w3.org/2000/svg" xmlns:xlink="http://www.w3.org/1999/xlink" x="0px" y="0px"
	 viewBox="0 0 500 374.9" style="enable-background:new 0 0 500 374.9;" xml:space="preserve">
<style type="text/css">
	.st0{fill:#FFFFFF;}
</style>
<g>
	<path class="st0" d="M418,269.4c-2,3.5-4.9,4.6-9,4.6c-28.3-0.1-56.6-0.1-84.9-0.1c-1.5,0-3.1-0.1-4.5-0.6c-3-1.1-4.3-3.5-4.1-6.7
		c0.2-2.9,2.5-5.3,5.4-5.7c1.2-0.2,2.4-0.1,3.6-0.1c25.4,0,50.7,0,76.1,0c1.3,0,2.6,0,3.9,0c1.9-24.4,0.3-47.5-18.9-65.6
		c-18.7-17.6-47.1-21.9-70-10.3c-1.2,0.6-2.3,1.3-3.5,1.7c-3.4,1.2-6.8-0.2-8.3-3.3c-1.4-3-0.5-6.5,2.5-8.3c2.8-1.6,5.8-3,9-4.6
		c-15.8-11.1-24.3-25.9-24-45.3c0.2-14.4,5.7-26.6,16-36.5c20.8-19.9,53.7-19,73.7,1.7c20.2,21,20.4,60-9.3,79.9
		c5.1,3.1,10.6,5.8,15.5,9.3c17.6,12.9,27.7,30.2,30.4,51.9c0.1,0.6,0.4,1.2,0.6,1.8C418,245.4,418,257.4,418,269.4z M304.3,126.4
		c0.1,21.9,17.4,38.8,39.8,38.7c21-0.1,38.1-17.7,38-39.1c-0.1-21.3-17.8-38.9-38.9-38.7C321.4,87.6,304.2,104.9,304.3,126.4z"/>
	<path class="st0" d="M277.9,251.5c8.8,3.7,16.8,8.6,23.6,15.2c15.2,14.7,23,32.6,23.3,53.8c0.1,8.9,0,17.7,0,26.6
		c0,5.4-2.3,7.7-7.8,7.7c-44.6,0-89.2,0-133.8,0c-5.7,0-8-2.3-8-7.9c0.1-11.6-0.6-23.3,0.7-34.7c3.3-27.5,18.2-47.1,43-59.2
		c1-0.5,2-0.9,3.2-1.5c-15.4-10.7-23.9-25-24.2-43.8c-0.2-14.6,5.1-27.2,15.4-37.4c21-20.8,55-19.9,75,2
		C308.7,194.2,307.1,232,277.9,251.5z M312.1,341.7c-0.4-10.6,0.2-20.9-1.4-31c-4.2-27.2-26.9-48.3-53.8-51
		c-28.2-2.8-54.2,12.9-64.4,39c-5.5,13.9-4.2,28.3-3.8,42.7c0,0.1,0.1,0.2,0.3,0.3C229.6,341.7,270.4,341.7,312.1,341.7z M250,246
		c21.8,0,38.9-17,38.9-38.8c0.1-21.3-17.4-38.9-38.7-38.9c-21.7,0-39.1,17.2-39.1,38.8C211.1,228.9,228.2,246,250,246z"/>
	<path class="st0" d="M184.9,170.5c2.6,1.3,5,2.4,7.3,3.6c4.5,2.4,6,6,4,9.6c-1.9,3.5-5.7,4.3-10,2.1c-9.6-5.1-19.7-7.4-30.6-7.4
		c-29.7,0.1-56.7,24-59.7,53.6c-0.9,9.4-0.1,19-0.1,28.9c0.9,0,2.2,0,3.4,0c25.9,0,51.8,0,77.7,0c4.6,0,7.3,2.2,7.6,5.9
		c0.3,4.1-2.4,7.1-6.7,7.2c-4.4,0.1-8.7,0-13.1,0c-24.7,0-49.4,0-74.1,0c-6.3,0-8.6-2.2-8.5-8.4c0.1-11.3-0.5-22.6,0.7-33.7
		c3.1-27.3,17.7-46.9,42-59.3c1.3-0.6,2.6-1.2,4.2-2c-17.2-12.2-25.7-28.5-23.9-49.5c1.2-13.6,7.3-25.1,17.6-34.1
		c21.7-18.8,54.7-16.4,73.3,5C215.4,114.1,213.7,151,184.9,170.5z M195.8,126.5c0.2-21.3-17-38.8-38.5-39.1
		c-21.5-0.3-39.2,17.1-39.3,38.6c-0.2,21.1,16.9,38.6,37.3,39.3C177,166,195.8,148.7,195.8,126.5z"/>
	<path class="st0" d="M250,124c-29-0.1-52.1-23.3-52-52.2c0.2-29,23.3-51.9,52.3-51.8c28.8,0.1,51.9,23.5,51.7,52.5
		C301.8,101,278.5,124.1,250,124z M288.9,72c0.1-21.3-17.3-38.9-38.6-38.9c-21.7-0.1-39.1,17.1-39.1,38.7
		c-0.1,21.7,17.2,39,38.8,39.1C271.5,111,288.8,93.7,288.9,72z"/>
</g>
</svg>
