<?xml version="1.0" encoding="utf-8"?>
<!-- Generator: Adobe Illustrator 27.3.1, SVG Export Plug-In . SVG Version: 6.00 Build 0)  -->
<svg version="1.1" id="Layer_1" xmlns="http://www.w3.org/2000/svg" xmlns:xlink="http://www.w3.org/1999/xlink" x="0px" y="0px"
	 viewBox="0 0 500 374.9" style="enable-background:new 0 0 500 374.9;" xml:space="preserve">
<style type="text/css">
	.st0{fill:#FFFFFF;}
</style>
<g>
	<polygon id="XMLID_1475_" class="st0" points="349,142.4 279.6,142.4 279.6,73.3 233.3,73.3 233.3,142.4 163.9,142.4 163.9,187.1 
		233.3,187.1 233.3,352.7 279.6,352.7 279.6,187.1 349,187.1 	"/>
	<path id="XMLID_456_" class="st0" d="M433.8,144.5c-0.1-3.1-0.5-6.1-1-9.2c-0.5-3.1-1.3-6.1-2.4-9.2c-0.5-1.5-1.1-3-1.7-4.5
		c-0.7-1.5-1.3-2.9-2.1-4.4c-1.5-2.9-3.2-5.6-5.2-8.2c-4-5.2-8.8-9.8-14.2-13.5c-2.7-1.9-5.5-3.5-8.5-5c-3-1.4-6-2.6-9.1-3.6
		c-3.1-1-6.3-1.8-9.5-2.4c-3.2-0.6-6.5-0.9-9.8-1.1c-6.6-0.3-13.2,0.3-19.7,1.8c-1.6,0.4-3.2,0.8-4.8,1.3l-1.2,0.4l-1.3,0.4
		l-1.3,0.4l-0.6,0.2l-0.5,0.2l-1,0.4l-0.5,0.2l-0.2,0.1l-0.1,0l-0.4,0.2l-2.1,0.9l-4.2,1.9c-1.4,0.6-2.7,1.4-4.1,2.1l-2.1,1.1
		l-1,0.5l-1,0.6c-2.6,1.5-5.3,3.1-7.8,4.8c-1.3,0.8-2.6,1.7-3.8,2.5l-3.7,2.7c-1.2,0.9-2.4,1.8-3.6,2.7c-1.2,0.9-2.4,1.9-3.5,2.8
		c-0.9,0.8-1.8,1.5-2.7,2.3c-0.8-2.9-1.7-5.9-2.6-8.8c-2-6.4-4.3-12.8-7-19.2c-2.6-6.3-5.6-12.6-9.1-18.8c-3.5-6.1-7.4-12.2-11.9-18
		c-4.5-5.8-9.7-11.3-15.7-16.3l-2.3-1.8c-0.8-0.6-1.5-1.2-2.5-1.9l-2.7-1.9l-1.4-0.9l-0.7-0.5l-0.5-0.3l-2-1.2l-1-0.6l-0.5-0.3
		l-0.3-0.1c-1.3-0.7-0.4-0.2-0.8-0.4l-0.2-0.1l-4.9-2.5c-6.6-3.2-13.5-5.8-20.8-7.8c-7.3-2-14.8-3.2-22.5-3.6
		c-7.7-0.4-15.5,0.2-23.1,1.6c-1.9,0.3-3.8,0.8-5.7,1.2c-1.9,0.4-3.7,1-5.6,1.5c-1.8,0.6-3.7,1.2-5.4,1.9l-2.7,1.1l-1.3,0.5
		l-1.3,0.6c-7,3.1-13.6,6.9-19.7,11.2c-6.1,4.4-11.6,9.3-16.7,14.5c-5.1,5.3-9.6,10.9-13.7,16.8c-4.1,5.9-7.7,12.1-10.8,18.4
		c-3.2,6.3-5.9,12.8-8.1,19.4c-4.6,13.2-7.4,26.9-8.7,40.6c-1.3,13.7-0.9,27.6,0.9,41.2c1,6.8,2.3,13.5,4,20.1
		c1.7,6.6,3.8,13.1,6.2,19.4l2,4.9c0.3,0.9,0.6,1.5,1,2.2l1,2.2l0.5,1.1l0.1,0.3l0.1,0.3l0.1,0.1l0.3,0.6l1.1,2.2l2.2,4.4l2.2,4.4
		c0.8,1.4,1.5,2.9,2.3,4.3c1.6,2.9,3.1,5.8,4.7,8.6l5,8.4c0.8,1.4,1.7,2.8,2.6,4.1l2.7,4.1l2.7,4.1l2.8,4l2.8,4l1.4,2l1.5,1.9
		c1.9,2.6,3.9,5.2,5.9,7.7l6.1,7.5c1,1.3,2.1,2.5,3.1,3.7l3.2,3.6c1.1,1.2,2.1,2.4,3.2,3.6l3.3,3.5l3.3,3.5c1.1,1.2,2.3,2.3,3.4,3.4
		c2.3,2.3,4.5,4.5,6.9,6.7l3.5,3.3c1.2,1.1,2.3,2.2,3.5,3.2c2.4,2.1,4.8,4.2,7.2,6.3l7.4,6.1l7.6,5.8c2.6,1.9,5.2,3.7,7.7,5.6
		c2.6,1.8,5.2,3.5,7.9,5.3l-6.5-6.9l-6.4-7l-6.2-7.1l-6.1-7.2l-5.9-7.3c-1-1.2-1.9-2.4-2.9-3.7l-2.9-3.7c-1.9-2.4-3.7-5-5.6-7.5
		c-0.9-1.3-1.9-2.5-2.7-3.8l-2.6-3.8c-7-10.2-13.7-20.5-19.6-31.3c-6-10.7-11.5-21.6-16.4-32.8c-1.2-2.8-2.4-5.6-3.5-8.4
		c-0.6-1.4-1.2-2.8-1.7-4.2l-1.6-4.3l-1.6-4.3l-0.8-2.1l-0.2-0.5l-0.1-0.1c0.1,0.3,0,0,0,0.1l-0.1-0.3l-0.4-1.1l-0.8-2.2
		c-0.2-0.7-0.5-1.5-0.7-2.2l-1.2-4c-1.6-5.6-2.9-11.2-3.8-16.9c-1-5.7-1.7-11.4-2-17.1c-0.7-11.5-0.2-22.9,1.5-34.2
		c1.7-11.2,4.6-22.2,8.7-32.6c2.1-5.2,4.4-10.2,7.1-15.1c2.6-4.8,5.6-9.5,8.8-13.8c3.2-4.4,6.7-8.4,10.5-12.1
		c3.7-3.7,7.7-7.1,11.9-10c8.4-5.8,17.6-9.8,27.2-11.4c4.8-0.9,9.6-1.2,14.5-0.9c4.9,0.2,9.8,1,14.7,2.3c4.9,1.3,9.8,3.1,14.6,5.3
		l3.6,1.8l0.1,0l0.3,0.2l1,0.6l2.1,1.2l0.5,0.3l0.3,0.2l0.6,0.4c0.4,0.3,0.8,0.5,1.2,0.8c0.4,0.2,0.9,0.6,1.3,1l1.4,1.1
		c3.7,3,7.3,6.6,10.6,10.6c3.3,4,6.4,8.5,9.3,13.2c5.7,9.5,10.4,20.1,14.5,31c2,5.5,3.8,11.1,5.4,16.8c0.8,2.8,1.6,5.7,2.3,8.5
		c0.4,1.4,0.7,2.8,1,4.2l0.5,2.1l0.4,1.9l8.3,39.3l21.1-32.4c0-0.1,0-0.1,0.1-0.2l0.2-0.3l0.5-0.7c0.3-0.5,0.7-0.9,1-1.4
		c0.7-1,1.4-1.9,2.2-2.9c1.5-1.9,3.1-3.9,4.7-5.7c3.3-3.8,6.7-7.4,10.3-10.8c3.6-3.4,7.3-6.7,11.3-9.7c1.9-1.6,4-2.9,5.9-4.3
		l0.8-0.5l0.8-0.5l1.5-1c1-0.6,2-1.3,3.1-1.9l3.2-1.7l1.6-0.9l0,0c-0.1,0,0.3-0.1-0.2,0.1l0.1-0.1l0.2-0.1l0.5-0.2l0.9-0.4l0.5-0.2
		l0.3-0.2l0.6-0.3l0.6-0.3l0.8-0.3c1-0.4,2-0.8,3.1-1.1c2.1-0.7,4.2-1.2,6.4-1.6c2.2-0.4,4.4-0.7,6.6-0.9c2.2-0.1,4.4-0.1,6.7,0
		c2.2,0.2,4.4,0.5,6.6,0.9c2.2,0.4,4.3,1,6.4,1.8c2.1,0.7,4.1,1.6,6.1,2.6c4,2,7.5,4.7,10.7,7.9c3.1,3.2,5.9,6.9,7.9,11.1
		c1,2.1,2,4.3,2.7,6.5c0.7,2.3,1.4,4.6,1.8,7c1,4.8,1.3,9.9,1.1,15c-0.1,5.1-0.7,10.3-1.7,15.5c-1,5.2-2.3,10.4-4,15.5
		c-1.7,5.1-3.5,10.3-5.7,15.3c-2.1,5-4.4,10-6.9,15c3.5-4.3,6.9-8.7,10-13.3c3.1-4.6,6.1-9.4,8.7-14.4c2.6-5,5.1-10.1,7.1-15.5
		c2-5.4,3.7-11,4.7-16.8C433.5,156.6,434.1,150.6,433.8,144.5z"/>
</g>
</svg>
