<?xml version="1.0" encoding="utf-8"?>
<!-- Generator: Adobe Illustrator 27.4.0, SVG Export Plug-In . SVG Version: 6.00 Build 0)  -->
<svg version="1.1" id="Layer_1" xmlns="http://www.w3.org/2000/svg" xmlns:xlink="http://www.w3.org/1999/xlink" x="0px" y="0px"
	 viewBox="0 0 385.7 74.7" style="enable-background:new 0 0 385.7 74.7;" xml:space="preserve">
<style type="text/css">
	.st0{fill:#FFFFFF;}
</style>
<g id="XMLID_81_">
	<g id="XMLID_31_">
		<path id="XMLID_44_" class="st0" d="M196.1,8.2h-24.8c-9.4,0-16.9,7.6-16.9,16.9V50c0,9.4,7.6,16.9,16.9,16.9h24.8
			c9.4,0,16.9-7.6,16.9-16.9V25.2C213,15.8,205.5,8.2,196.1,8.2z M207.6,50.4c0,6.2-5,11.2-11.2,11.2H171c-6.2,0-11.2-5-11.2-11.2
			V25c0-6.2,5-11.2,11.2-11.2h25.4c6.2,0,11.2,5,11.2,11.2V50.4z"/>
		<path id="XMLID_33_" class="st0" d="M183.7,22.5c-8.4,0-15.2,6.8-15.2,15.2s6.8,15.2,15.2,15.2c8.4,0,15.2-6.8,15.2-15.2
			S192.1,22.5,183.7,22.5z M183.7,47.6c-5.4,0-9.9-4.4-9.9-9.9c0-5.4,4.4-9.9,9.9-9.9c5.4,0,9.9,4.4,9.9,9.9
			C193.6,43.2,189.2,47.6,183.7,47.6z"/>
		<circle id="XMLID_32_" class="st0" cx="199.4" cy="21.9" r="3.5"/>
	</g>
</g>
<path class="st0" d="M46.9,6.6h-0.5C31.2,6.6,18.8,19,18.8,34.3V35c0,10.5,5.9,19.7,14.5,24.4c-0.2,1-0.9,2.6-1.9,3.9
	c-1.2,1.6-2.6,3.4-3.3,4.1c-0.7,0.7-0.1,1.1,2,0.5c2-0.5,6.3-2.2,9.5-4c1.4-0.8,2.3-1.3,2.9-1.6c1.3,0.2,2.7,0.3,4.1,0.3h0.5
	c15.3,0,27.7-12.4,27.7-27.7v-0.7C74.6,19,62.2,6.6,46.9,6.6z M32.1,33.8h5.9v5.9h-5.9c-1,0-1.8-0.3-2.4-0.8
	c-0.6-0.5-0.9-1.2-0.9-2.2c0-0.9,0.3-1.6,0.9-2.1C30.4,34.1,31.2,33.8,32.1,33.8z M60,36.5c-1.8,2.2-4.4,3.3-7.8,3.3h-4v-5.9h2.2
	c1.6,0,2.9-0.4,3.8-1.3c0.8-0.8,1.2-2,1.2-3.4c-0.1-1.3-0.5-2.4-1.4-3.1c-0.9-0.8-1.9-1.2-3.2-1.2h-4.3v22c0,1.1-0.3,2-0.9,2.7
	c-0.6,0.7-1.4,1.1-2.5,1.1c-1.1,0-1.9-0.4-2.5-1.1c-0.6-0.7-0.9-1.6-0.9-2.7V23.1c0-1.3,0.4-2.3,1.1-3.1c0.7-0.7,1.8-1.1,3.1-1.1
	h7.4c3.5,0,6.2,0.9,7.9,2.6c0.6,0.6,1.2,1.4,1.7,2.2c0.5,0.8,0.9,1.7,1.1,2.6c0.3,0.9,0.4,1.9,0.4,2.8C62.4,32.1,61.6,34.6,60,36.5z
	"/>
<path class="st0" d="M374.8,17.4c-1-3.6-3.8-6.4-7.4-7.4c-6.5-1.8-32.7-1.8-32.7-1.8s-26.2,0-32.7,1.8c-3.6,1-6.4,3.8-7.4,7.4
	c-1.8,6.5-1.8,20.2-1.8,20.2s0,13.6,1.8,20.2c1,3.6,3.8,6.4,7.4,7.4c6.5,1.8,32.7,1.8,32.7,1.8s26.2,0,32.7-1.8
	c3.6-1,6.4-3.8,7.4-7.4c1.8-6.5,1.8-20.2,1.8-20.2S376.6,23.9,374.8,17.4z M326.3,50.1V25l21.8,12.6L326.3,50.1z"/>
</svg>
