<?xml version="1.0" encoding="utf-8"?>
<!-- Generator: Adobe Illustrator 27.4.1, SVG Export Plug-In . SVG Version: 6.00 Build 0)  -->
<svg version="1.1" id="Layer_1" xmlns="http://www.w3.org/2000/svg" xmlns:xlink="http://www.w3.org/1999/xlink" x="0px" y="0px"
	 viewBox="0 0 500 374.9" style="enable-background:new 0 0 500 374.9;" xml:space="preserve">
<style type="text/css">
	.st0{fill:#EC2224;}
	.st1{fill:#FFFFFF;}
</style>
<g>
	<path class="st0" d="M474.8,74.5c-5.4-20.2-21.3-36.1-41.5-41.5C396.7,23.2,250,23.2,250,23.2s-146.7,0-183.3,9.8
		c-20.2,5.4-36.1,21.3-41.5,41.5c-9.8,36.6-9.8,112.9-9.8,112.9s0,76.3,9.8,112.9c5.4,20.2,21.3,36.1,41.5,41.5
		c36.6,9.8,183.3,9.8,183.3,9.8s146.7,0,183.3-9.8c20.2-5.4,36.1-21.3,41.5-41.5c9.8-36.6,9.8-112.9,9.8-112.9
		S484.6,111.1,474.8,74.5"/>
	<polygon class="st1" points="203.1,257.8 325,187.4 203.1,117.1 	"/>
</g>
</svg>
