<?xml version="1.0" encoding="utf-8"?>
<!-- Generator: Adobe Illustrator 27.4.1, SVG Export Plug-In . SVG Version: 6.00 Build 0)  -->
<svg version="1.1" id="레이어_1" xmlns="http://www.w3.org/2000/svg" xmlns:xlink="http://www.w3.org/1999/xlink" x="0px"
	 y="0px" viewBox="0 0 1091.1 435.1" style="enable-background:new 0 0 1091.1 435.1;" xml:space="preserve">
<style type="text/css">
	.st0{fill:#32AE9B;}
	.st1{fill:#ED7668;}
	.st2{fill:#2558A7;}
	.st3{fill:#272828;}
	.st4{fill:none;stroke:#272828;stroke-width:12.4085;stroke-linecap:round;stroke-miterlimit:10;}
	.st5{fill:#FFFFFF;}
	.st6{fill:none;stroke:#FFFFFF;stroke-width:12.4085;stroke-linecap:round;stroke-miterlimit:10;}
	.st7{fill:#E0D4C8;}
	.st8{fill:none;stroke:#E0D4C8;stroke-width:12.4085;stroke-linecap:round;stroke-miterlimit:10;}
	.st9{fill:#144242;}
	.st10{fill:none;stroke:#144242;stroke-width:12.4085;stroke-linecap:round;stroke-miterlimit:10;}
	.st11{fill:#E17265;}
	.st12{fill:none;stroke:#E0D4C8;stroke-width:12.0421;stroke-linecap:round;stroke-miterlimit:10;}
	.st13{fill:none;stroke:#144242;stroke-width:12.0421;stroke-linecap:round;stroke-miterlimit:10;}
	.st14{fill:none;stroke:#E0D4C8;stroke-width:2.9098;stroke-linecap:round;stroke-miterlimit:10;}
	.st15{fill:none;stroke:#144242;stroke-width:2.044;stroke-linecap:round;stroke-miterlimit:10;}
	.st16{fill:#144242;stroke:#144242;stroke-width:2.5654;stroke-linecap:round;stroke-miterlimit:10;}
	.st17{fill:none;stroke:#144242;stroke-width:2.5654;stroke-linecap:round;stroke-miterlimit:10;}
	.st18{fill:#187377;}
	.st19{fill:#0A5958;}
	.st20{fill:#E9A1A2;}
	.st21{fill:none;stroke:#144242;stroke-width:11.9519;stroke-linecap:round;stroke-miterlimit:10;}
	.st22{fill:none;stroke:#E17265;stroke-width:1.9359;stroke-linecap:round;stroke-miterlimit:10;}
	.st23{fill:none;stroke:#144242;stroke-width:2.045;stroke-linecap:round;stroke-miterlimit:10;}
	.st24{fill:none;stroke:#9FA0A0;stroke-width:0.5;stroke-miterlimit:10;}
</style>
<g>
	<g>
		<path class="st0" d="M-4012.4-558.4c0.5-8.7,1.5-27.8,1.2-30.7c-5.9-1.3-16.7-4.3-21.2-6.6c-11.7-6-18.7-14.2-22.4-26.8
			c-2-6.7-1.4-15.2,4.3-19.2c15.6-10.8,31.9,12.3,39,13.5c-1.8-7.2-8.2-12.3-11.6-19c-5.7-11.1-5-26.2,5.9-32.3
			c5.6-3.1,13.7,0,17.6,5.1c7.3,9.8,4.2,20.5,9.1,25c2.4-4.1,1.2-32.5,27.9-29.2c9.7,1.2,17.9,10.6,18,20.6
			c0.1,9.9-7.7,19.4-17.5,21c3.7-3.3,7.7-6.7,12.5-8c4.8-1.3,10.8,0.3,12.9,4.9c0.9,1.9,1,4.2,0.7,6.3
			c-1.5,12.1-14.7,21.3-26.6,18.4c9.2-4.4,21.4,5.8,18.6,15.6c-2.4,8.6-12.3,12.4-21.1,14.1c-8.4,1.6-17,2.4-25.6,2.3
			c0.7,11.2,0.7,11.2,1.3,22.4c0,0-2.6,2.9-10.6,3.2C-4010.1-557.2-4012.4-558.4-4012.4-558.4z"/>
	</g>
	<text transform="matrix(1 0 0 1 -4114.3071 -472.5063)" style="enable-background:new    ;"><tspan x="0" y="0" style="font-family:'AdobeMyungjoStd-Medium-KSCpc-EUC-H'; font-size:34px;">시냇가</tspan><tspan x="102" y="0" style="font-family:'ArialMT'; font-size:34px;"> </tspan><tspan x="111.4" y="0" style="font-family:'AdobeMyungjoStd-Medium-KSCpc-EUC-H'; font-size:34px;">푸른</tspan><tspan x="179.4" y="0" style="font-family:'ArialMT'; font-size:34px;"> </tspan><tspan x="188.9" y="0" style="font-family:'AdobeMyungjoStd-Medium-KSCpc-EUC-H'; font-size:34px;">청년교회</tspan></text>
	<path class="st1" d="M-3885-642.5c0,11-8.9,19.9-19.9,19.9s-19.9-8.9-19.9-19.9s8.9-19.9,19.9-19.9
		C-3893.9-662.3-3885-653.5-3885-642.5z"/>
	<g>
		<path class="st2" d="M-3948.5-573.6c11.7-7,25.2-12.4,38.6-10.5c13.5,1.9,25.2,13.6,24.9,27.3c-1.2,64.2-129.2,32.9-143.8,4.6
			C-4007.7-549.4-3989.3-549-3948.5-573.6z"/>
	</g>
</g>
<g>
	<path class="st3" d="M366.2,182.2c4.2-1.2,8.1-3.3,11.6-6.1c3.6-2.9,6.7-6.4,9.3-10.6c2.6-4.2,4.6-8.9,6.1-14
		c1.4-5.2,2.2-10.7,2.2-16.5V98.2h17V135c0,5.2,0.6,10.3,1.9,15.2s3.1,9.4,5.5,13.6c2.4,4.1,5.3,7.8,8.8,10.9
		c3.5,3.1,7.4,5.5,11.7,7.2v14.8c-3.6-1-7.2-2.5-10.8-4.5c-3.6-2-7.1-4.4-10.3-7.1c-3.3-2.7-6.2-5.6-8.8-8.9
		c-2.6-3.2-4.7-6.5-6.2-9.8c-1.8,3.9-4.1,7.4-6.8,10.7c-2.7,3.3-5.6,6.3-8.9,8.9c-3.3,2.7-6.8,4.9-10.6,6.8
		c-3.8,1.8-7.7,3.3-11.7,4.2L366.2,182.2L366.2,182.2z M452.9,96.4h16.4V204h-16.4V96.4z"/>
	<path class="st3" d="M488.5,97.6h15.9V140H536v13h-47.5V97.6z M494.6,191.6c5.4-0.2,10.4-1.1,15-2.7c4.6-1.5,8.6-3.5,12.1-5.9
		c3.4-2.4,6.1-5.2,8-8.4s2.9-6.6,2.9-10.2v-4.2h16.9v4.2c0,3.6,1,7,2.9,10.2s4.6,6,8,8.4s7.4,4.4,12.1,5.9c4.6,1.5,9.6,2.4,15,2.7
		v13.1c-9.6-0.5-18.3-2.3-26.3-5.5s-14.7-7.6-20.1-13.3c-5.5,5.6-12.2,10-20.1,13.3c-8,3.2-16.7,5.1-26.3,5.5v-13.1H494.6z
		 M542.1,97h15.4v22.2h13.3V96.4h15.4V168h-15.4v-34.1h-13.3v23.3h-15.4V97z"/>
	<path class="st3" d="M600,181c6.6-1.4,12.7-4.2,18.2-8.2s10.3-9,14.3-15s7.2-12.8,9.5-20.3c2.3-7.6,3.4-15.6,3.4-24.1h-44.8v-14
		h61.5v11.1c0,10.9-1.5,21.2-4.6,30.9s-7.3,18.3-12.8,25.9c-5.5,7.6-12.1,13.8-19.6,18.8c-7.6,5-15.9,8.2-25,9.8V181H600z
		 M678.3,96.4h16.4v38.5h14.5v14.7h-14.5V204h-16.4V96.4z"/>
	<path class="st3" d="M369.8,306.2h107.3v13.9H432v28.6h-17.1v-28.6h-45.1V306.2z M375.8,282.1h15.7V257H377v-13.7h92.8V257h-14.5
		v25.1H471v13.7h-95.2V282.1z M439,282.1V257h-31.1v25.1H439z"/>
	<path class="st3" d="M484.3,303.1h107.3V316H484.3V303.1z M492.1,262.1h75v-7.7h-75v-12.9h91.6v33h-75v8.3h77.4v12.9h-94
		L492.1,262.1L492.1,262.1z M492.1,320.5h16.4v14.2H585v13.5h-92.8v-27.7H492.1z"/>
	<path class="st3" d="M599.4,287.8c3.8-0.6,7.3-1.6,10.5-3.2c3.3-1.6,6.1-3.5,8.4-5.7c2.4-2.2,4.2-4.8,5.5-7.6s2-5.8,2-8.9v-1.9
		h-25.3v-13h25.2v-9.6h17.2v9.6h23.9v13h-24v1.9c0,6.1,2.2,11.3,6.6,15.6c4.4,4.3,10.4,7.3,18,8.9V300c-6.7-1.2-13-3.3-18.7-6.3
		s-10.5-6.6-14.4-10.8c-4,4.8-9,8.7-15,11.7s-12.6,5.1-19.9,6.4V287.8z M634.4,348.7c-4.3,0-8.1-0.5-11.5-1.5s-6.3-2.5-8.7-4.4
		s-4.3-4.2-5.5-6.9c-1.3-2.7-1.9-5.7-1.9-9.1s0.6-6.4,1.9-9.1c1.3-2.7,3.1-5,5.5-6.9s5.3-3.4,8.7-4.4s7.3-1.5,11.5-1.5H673
		c4.3,0,8.1,0.5,11.5,1.5s6.3,2.5,8.7,4.4s4.3,4.2,5.5,6.9c1.3,2.7,1.9,5.7,1.9,9.1s-0.6,6.4-1.9,9.1c-1.3,2.7-3.1,5-5.5,6.9
		s-5.3,3.4-8.7,4.4s-7.3,1.5-11.5,1.5H634.4z M672,335.7c3.7,0,6.7-0.8,8.9-2.4c2.2-1.6,3.4-3.8,3.4-6.6s-1.1-5-3.4-6.6
		c-2.3-1.6-5.2-2.4-8.9-2.4h-36.6c-3.7,0-6.7,0.8-8.9,2.4c-2.3,1.6-3.4,3.8-3.4,6.6s1.1,5,3.4,6.6c2.2,1.6,5.2,2.4,8.9,2.4H672z
		 M681.9,279.4h-19.8v-13.7h19.8V241h16.4v61.4h-16.4V279.4z"/>
	<path class="st3" d="M718.2,242.2h16.4v46.6h52.2v13h-68.6L718.2,242.2L718.2,242.2z M723.6,310.8H740v23.9h75.2v13.5h-91.6
		L723.6,310.8L723.6,310.8z M796.4,282.9h-33v-12.5h33v-8h-33v-12.5h33V241h16.4v78.8h-16.4V282.9z"/>
	<path class="st3" d="M827.9,329.5h21.6V288h17.1v41.5h15.1V288h17.1v41.5h36.4v13.9H827.9V329.5z M835.7,243.9h90.4v69.4h-16.4
		v-55.4h-74V243.9z"/>
	<path class="st3" d="M942.4,329.5h28.2v-12.3c-3.6-0.3-6.9-1.1-9.9-2.2c-3-1.2-5.6-2.8-7.8-4.8s-3.9-4.4-5.1-7.3
		c-1.2-2.9-1.8-6.2-1.8-9.9c0-4.1,0.7-7.7,2.2-10.7c1.4-3,3.4-5.5,6-7.6c2.5-2,5.6-3.6,9.1-4.6s7.4-1.5,11.6-1.5h8.7
		c4.2,0,8,0.5,11.6,1.5c3.5,1,6.6,2.5,9.1,4.6c2.5,2,4.5,4.6,6,7.6c1.4,3,2.2,6.6,2.2,10.7c0,3.8-0.6,7.1-1.8,9.9
		c-1.2,2.9-2.9,5.3-5.1,7.3c-2.2,2-4.8,3.6-7.8,4.8s-6.3,1.9-9.9,2.2v12.3h32.9v13.9h-78.2v-13.9H942.4z M943.6,250.1h26.9V239h17.4
		v11.1h26.9v13.7h-71.1v-13.7H943.6z M982.4,303.6c4.3,0,7.7-0.9,10-2.8c2.3-1.8,3.5-4.5,3.5-7.8s-1.2-6-3.5-7.8s-5.7-2.8-10-2.8
		h-6.5c-4.2,0-7.5,0.9-9.9,2.8c-2.4,1.8-3.6,4.5-3.6,7.8s1.2,6,3.6,7.8c2.4,1.8,5.7,2.8,9.9,2.8H982.4z M1025.4,241h16.4v107.6
		h-16.4V241z"/>
</g>
<path class="st1" d="M325.6,154.3c0,16.5-13.3,29.8-29.8,29.8S266,170.8,266,154.3s13.3-29.8,29.8-29.8
	C312.2,124.5,325.6,137.9,325.6,154.3z"/>
<path class="st4" d="M167.8,215.9c0-39.5,31.7-87.1,70.9-87.1s70.9,47.5,70.9,87.1c0,39.5-31.7,58.6-70.9,58.6
	S167.8,255.4,167.8,215.9z"/>
<g>
	<g>
		<line class="st4" x1="238.7" y1="200.6" x2="238.7" y2="308.3"/>
		<line class="st4" x1="212.2" y1="208.4" x2="238.7" y2="241.6"/>
		<line class="st4" x1="238.7" y1="259.6" x2="261.3" y2="230.3"/>
	</g>
</g>
<g>
	<g>
		<line class="st4" x1="124.2" y1="174.5" x2="124.2" y2="308.3"/>
		<line class="st4" x1="91.3" y1="184.1" x2="124.2" y2="225.4"/>
		<line class="st4" x1="124.2" y1="247.7" x2="152.3" y2="211.3"/>
	</g>
</g>
<path class="st4" d="M195,178.2c0,48.7-20.2,88.1-71.8,88.1c-46.7,0-71.8-39.4-71.8-88.1c0-48.7,32.1-120.4,71.8-120.4
	S195,129.5,195,178.2z"/>
<line class="st4" x1="37.8" y1="314.4" x2="323.4" y2="314.4"/>
<line class="st4" x1="65.5" y1="342" x2="295.8" y2="342"/>
<g>
	<path class="st5" d="M366.2-314.1c4.2-1.2,8.1-3.3,11.6-6.1c3.6-2.9,6.7-6.4,9.3-10.6c2.6-4.2,4.6-8.9,6.1-14
		c1.4-5.2,2.2-10.7,2.2-16.5v-36.8h17v36.8c0,5.2,0.6,10.3,1.9,15.2c1.3,4.9,3.1,9.4,5.5,13.6c2.4,4.1,5.3,7.8,8.8,10.9
		c3.5,3.1,7.4,5.5,11.7,7.2v14.8c-3.6-1-7.2-2.5-10.8-4.5c-3.6-2-7.1-4.4-10.3-7.1c-3.3-2.7-6.2-5.6-8.8-8.9
		c-2.6-3.2-4.7-6.5-6.2-9.8c-1.8,3.9-4.1,7.4-6.8,10.7c-2.7,3.3-5.6,6.3-8.9,8.9c-3.3,2.7-6.8,4.9-10.6,6.8
		c-3.8,1.8-7.7,3.3-11.7,4.2L366.2-314.1L366.2-314.1z M452.9-400h16.4v107.6h-16.4V-400z"/>
	<path class="st5" d="M488.5-398.8h15.9v42.4H536v13h-47.5V-398.8z M494.6-304.7c5.4-0.2,10.4-1.1,15-2.7c4.6-1.5,8.6-3.5,12.1-5.9
		c3.4-2.4,6.1-5.2,8-8.4s2.9-6.6,2.9-10.2v-4.2h16.9v4.2c0,3.6,1,7,2.9,10.2s4.6,6,8,8.4s7.4,4.4,12.1,5.9c4.6,1.5,9.6,2.4,15,2.7
		v13.1c-9.6-0.5-18.3-2.3-26.3-5.5c-8-3.2-14.7-7.6-20.1-13.3c-5.5,5.6-12.2,10-20.1,13.3c-8,3.2-16.7,5.1-26.3,5.5v-13.1H494.6z
		 M542.1-399.4h15.4v22.2h13.3V-400h15.4v71.6h-15.4v-34.1h-13.3v23.3h-15.4V-399.4z"/>
	<path class="st5" d="M600-315.3c6.6-1.4,12.7-4.2,18.2-8.2s10.3-9,14.3-15s7.2-12.8,9.5-20.3c2.3-7.6,3.4-15.6,3.4-24.1h-44.8v-14
		h61.5v11.1c0,10.9-1.5,21.2-4.6,30.9c-3.1,9.7-7.3,18.3-12.8,25.9c-5.5,7.6-12.1,13.8-19.6,18.8c-7.6,5-15.9,8.2-25,9.8v-14.9H600z
		 M678.3-400h16.4v38.5h14.5v14.7h-14.5v54.5h-16.4V-400z"/>
	<path class="st5" d="M369.8-190.1h107.3v13.9H432v28.6h-17.1v-28.6h-45.1V-190.1z M375.8-214.2h15.7v-25.1H377V-253h92.8v13.7
		h-14.5v25.1H471v13.7h-95.2V-214.2z M439-214.2v-25.1h-31.1v25.1H439z"/>
	<path class="st5" d="M484.3-193.2h107.3v12.9H484.3V-193.2z M492.1-234.2h75v-7.7h-75v-12.9h91.6v33h-75v8.3h77.4v12.9h-94
		L492.1-234.2L492.1-234.2z M492.1-175.9h16.4v14.2H585v13.5h-92.8v-27.7H492.1z"/>
	<path class="st5" d="M599.4-208.5c3.8-0.6,7.3-1.6,10.5-3.2c3.3-1.6,6.1-3.5,8.4-5.7c2.4-2.2,4.2-4.8,5.5-7.6c1.3-2.8,2-5.8,2-8.9
		v-1.9h-25.3v-13h25.2v-9.6h17.2v9.6h23.9v13h-24v1.9c0,6.1,2.2,11.3,6.6,15.6c4.4,4.3,10.4,7.3,18,8.9v13.1
		c-6.7-1.2-13-3.3-18.7-6.3s-10.5-6.6-14.4-10.8c-4,4.8-9,8.7-15,11.7s-12.6,5.1-19.9,6.4V-208.5z M634.4-147.7
		c-4.3,0-8.1-0.5-11.5-1.5s-6.3-2.5-8.7-4.4s-4.3-4.2-5.5-6.9c-1.3-2.7-1.9-5.7-1.9-9.1s0.6-6.4,1.9-9.1c1.3-2.7,3.1-5,5.5-6.9
		s5.3-3.4,8.7-4.4s7.3-1.5,11.5-1.5H673c4.3,0,8.1,0.5,11.5,1.5s6.3,2.5,8.7,4.4s4.3,4.2,5.5,6.9c1.3,2.7,1.9,5.7,1.9,9.1
		s-0.6,6.4-1.9,9.1c-1.3,2.7-3.1,5-5.5,6.9s-5.3,3.4-8.7,4.4s-7.3,1.5-11.5,1.5H634.4z M672-160.7c3.7,0,6.7-0.8,8.9-2.4
		s3.4-3.8,3.4-6.6c0-2.8-1.1-5-3.4-6.6c-2.3-1.6-5.2-2.4-8.9-2.4h-36.6c-3.7,0-6.7,0.8-8.9,2.4c-2.3,1.6-3.4,3.8-3.4,6.6
		c0,2.8,1.1,5,3.4,6.6c2.2,1.6,5.2,2.4,8.9,2.4H672z M681.9-217h-19.8v-13.7h19.8v-24.6h16.4v61.3h-16.4V-217z"/>
	<path class="st5" d="M718.2-254.1h16.4v46.6h52.2v13h-68.6L718.2-254.1L718.2-254.1z M723.6-185.5H740v23.9h75.2v13.5h-91.6
		L723.6-185.5L723.6-185.5z M796.4-213.5h-33V-226h33v-8h-33v-12.5h33v-8.8h16.4v78.8h-16.4V-213.5z"/>
	<path class="st5" d="M827.9-166.8h21.6v-41.5h17.1v41.5h15.1v-41.5h17.1v41.5h36.4v13.8H827.9V-166.8z M835.7-252.4h90.4v69.4
		h-16.4v-55.4h-74V-252.4z"/>
	<path class="st5" d="M942.4-166.8h28.2v-12.3c-3.6-0.3-6.9-1.1-9.9-2.2c-3-1.2-5.6-2.8-7.8-4.8s-3.9-4.4-5.1-7.3
		c-1.2-2.9-1.8-6.2-1.8-9.9c0-4.1,0.7-7.7,2.2-10.7c1.4-3,3.4-5.5,6-7.6c2.5-2,5.6-3.6,9.1-4.6s7.4-1.5,11.6-1.5h8.7
		c4.2,0,8,0.5,11.6,1.5c3.5,1,6.6,2.5,9.1,4.6c2.5,2,4.5,4.6,6,7.6c1.4,3,2.2,6.6,2.2,10.7c0,3.8-0.6,7.1-1.8,9.9
		c-1.2,2.9-2.9,5.3-5.1,7.3c-2.2,2-4.8,3.6-7.8,4.8c-3,1.2-6.3,1.9-9.9,2.2v12.3h32.9v13.8h-78.2v-13.8H942.4z M943.6-246.3h26.9
		v-11.1h17.4v11.1h26.9v13.7h-71.1v-13.7H943.6z M982.4-192.8c4.3,0,7.7-0.9,10-2.8c2.3-1.8,3.5-4.5,3.5-7.8s-1.2-6-3.5-7.8
		s-5.7-2.8-10-2.8h-6.5c-4.2,0-7.5,0.9-9.9,2.8c-2.4,1.8-3.6,4.5-3.6,7.8s1.2,6,3.6,7.8c2.4,1.8,5.7,2.8,9.9,2.8H982.4z
		 M1025.4-255.3h16.4v107.6h-16.4V-255.3z"/>
</g>
<circle class="st1" cx="295.8" cy="-342" r="29.8"/>
<path class="st6" d="M167.8-280.4c0-39.5,31.7-87.1,70.9-87.1s70.9,47.5,70.9,87.1s-31.7,58.6-70.9,58.6S167.8-240.9,167.8-280.4z"
	/>
<g>
	<g>
		<line class="st6" x1="238.7" y1="-295.7" x2="238.7" y2="-188.1"/>
		<line class="st6" x1="212.2" y1="-288" x2="238.7" y2="-254.8"/>
		<line class="st6" x1="238.7" y1="-236.8" x2="261.3" y2="-266.1"/>
	</g>
</g>
<g>
	<g>
		<line class="st6" x1="124.2" y1="-321.9" x2="124.2" y2="-188.1"/>
		<line class="st6" x1="91.3" y1="-312.2" x2="124.2" y2="-271"/>
		<line class="st6" x1="124.2" y1="-248.6" x2="152.3" y2="-285"/>
	</g>
</g>
<path class="st6" d="M195-318.1c0,48.7-20.2,88.1-71.8,88.1c-46.7,0-71.8-39.5-71.8-88.1c0-48.7,32.1-120.4,71.8-120.4
	S195-366.8,195-318.1z"/>
<line class="st6" x1="37.8" y1="-181.9" x2="323.4" y2="-181.9"/>
<line class="st6" x1="65.5" y1="-154.3" x2="295.8" y2="-154.3"/>
<g>
	<path class="st7" d="M366.2-814.6c4.2-1.2,8.1-3.3,11.6-6.1c3.6-2.9,6.7-6.4,9.3-10.6c2.6-4.2,4.6-8.9,6.1-14
		c1.4-5.2,2.2-10.7,2.2-16.5v-36.8h17v36.8c0,5.2,0.6,10.3,1.9,15.2c1.3,4.9,3.1,9.4,5.5,13.6c2.4,4.1,5.3,7.8,8.8,10.9
		c3.5,3.1,7.4,5.5,11.7,7.2v14.8c-3.6-1-7.2-2.5-10.8-4.5c-3.6-2-7.1-4.4-10.3-7.1c-3.3-2.7-6.2-5.6-8.8-8.9
		c-2.6-3.2-4.7-6.5-6.2-9.8c-1.8,3.9-4.1,7.4-6.8,10.7c-2.7,3.3-5.6,6.3-8.9,8.9c-3.3,2.7-6.8,4.9-10.6,6.8
		c-3.8,1.8-7.7,3.3-11.7,4.2L366.2-814.6L366.2-814.6z M452.9-900.4h16.4v107.6h-16.4V-900.4z"/>
	<path class="st7" d="M488.5-899.2h15.9v42.4H536v13h-47.5V-899.2z M494.6-805.2c5.4-0.2,10.4-1.1,15-2.7c4.6-1.5,8.6-3.5,12.1-5.9
		c3.4-2.4,6.1-5.2,8-8.4s2.9-6.6,2.9-10.2v-4.2h16.9v4.2c0,3.6,1,7,2.9,10.2s4.6,6,8,8.4c3.4,2.4,7.4,4.4,12.1,5.9
		c4.6,1.5,9.6,2.4,15,2.7v13.1c-9.6-0.5-18.3-2.3-26.3-5.5c-8-3.2-14.7-7.6-20.1-13.3c-5.5,5.6-12.2,10-20.1,13.3
		c-8,3.2-16.7,5.1-26.3,5.5v-13.1H494.6z M542.1-899.8h15.4v22.2h13.3v-22.8h15.4v71.6h-15.4v-34.1h-13.3v23.3h-15.4V-899.8z"/>
	<path class="st7" d="M600-815.8c6.6-1.4,12.7-4.2,18.2-8.2s10.3-9,14.3-15s7.2-12.8,9.5-20.3c2.3-7.6,3.4-15.6,3.4-24.1h-44.8v-14
		h61.5v11.1c0,10.9-1.5,21.2-4.6,30.9c-3.1,9.7-7.3,18.3-12.8,25.9s-12.1,13.8-19.6,18.8c-7.6,5-15.9,8.2-25,9.8v-14.9H600z
		 M678.3-900.4h16.4v38.5h14.5v14.7h-14.5v54.5h-16.4V-900.4z"/>
	<path class="st7" d="M369.8-690.5h107.3v13.9H432v28.6h-17.1v-28.6h-45.1V-690.5z M375.8-714.6h15.7v-25.1H377v-13.7h92.8v13.7
		h-14.5v25.1H471v13.7h-95.2V-714.6z M439-714.6v-25.1h-31.1v25.1H439z"/>
	<path class="st7" d="M484.3-693.7h107.3v12.9H484.3V-693.7z M492.1-734.6h75v-7.7h-75v-12.9h91.6v33h-75v8.3h77.4v12.9h-94
		L492.1-734.6L492.1-734.6z M492.1-676.3h16.4v14.2H585v13.5h-92.8v-27.7H492.1z"/>
	<path class="st7" d="M599.4-709c3.8-0.6,7.3-1.6,10.5-3.2c3.3-1.6,6.1-3.5,8.4-5.7c2.4-2.2,4.2-4.8,5.5-7.6s2-5.8,2-8.9v-1.9h-25.3
		v-13h25.2v-9.6h17.2v9.6h23.9v13h-24v1.9c0,6.1,2.2,11.3,6.6,15.6c4.4,4.3,10.4,7.3,18,8.9v13.1c-6.7-1.2-13-3.3-18.7-6.3
		s-10.5-6.6-14.4-10.8c-4,4.8-9,8.7-15,11.7s-12.6,5.1-19.9,6.4V-709z M634.4-648.1c-4.3,0-8.1-0.5-11.5-1.5s-6.3-2.5-8.7-4.4
		s-4.3-4.2-5.5-6.9c-1.3-2.7-1.9-5.7-1.9-9.1s0.6-6.4,1.9-9.1c1.3-2.7,3.1-5,5.5-6.9s5.3-3.4,8.7-4.4s7.3-1.5,11.5-1.5H673
		c4.3,0,8.1,0.5,11.5,1.5s6.3,2.5,8.7,4.4s4.3,4.2,5.5,6.9c1.3,2.7,1.9,5.7,1.9,9.1s-0.6,6.4-1.9,9.1c-1.3,2.7-3.1,5-5.5,6.9
		s-5.3,3.4-8.7,4.4s-7.3,1.5-11.5,1.5H634.4z M672-661.1c3.7,0,6.7-0.8,8.9-2.4s3.4-3.8,3.4-6.6c0-2.8-1.1-5-3.4-6.6
		c-2.3-1.6-5.2-2.4-8.9-2.4h-36.6c-3.7,0-6.7,0.8-8.9,2.4c-2.3,1.6-3.4,3.8-3.4,6.6c0,2.8,1.1,5,3.4,6.6c2.2,1.6,5.2,2.4,8.9,2.4
		H672z M681.9-717.4h-19.8v-13.7h19.8v-24.6h16.4v61.4h-16.4V-717.4z"/>
	<path class="st7" d="M718.2-754.5h16.4v46.6h52.2v13h-68.6L718.2-754.5L718.2-754.5z M723.6-685.9H740v23.9h75.2v13.5h-91.6
		L723.6-685.9L723.6-685.9z M796.4-713.9h-33v-12.5h33v-8h-33v-12.5h33v-8.8h16.4v78.8h-16.4V-713.9z"/>
	<path class="st7" d="M827.9-667.3h21.6v-41.5h17.1v41.5h15.1v-41.5h17.1v41.5h36.4v13.9H827.9V-667.3z M835.7-752.8h90.4v69.4
		h-16.4v-55.4h-74V-752.8z"/>
	<path class="st7" d="M942.4-667.3h28.2v-12.3c-3.6-0.3-6.9-1.1-9.9-2.2c-3-1.2-5.6-2.8-7.8-4.8s-3.9-4.4-5.1-7.3
		c-1.2-2.9-1.8-6.2-1.8-9.9c0-4.1,0.7-7.7,2.2-10.7c1.4-3,3.4-5.5,6-7.6c2.5-2,5.6-3.6,9.1-4.6s7.4-1.5,11.6-1.5h8.7
		c4.2,0,8,0.5,11.6,1.5c3.5,1,6.6,2.5,9.1,4.6c2.5,2,4.5,4.6,6,7.6c1.4,3,2.2,6.6,2.2,10.7c0,3.8-0.6,7.1-1.8,9.9
		c-1.2,2.9-2.9,5.3-5.1,7.3c-2.2,2-4.8,3.6-7.8,4.8s-6.3,1.9-9.9,2.2v12.3h32.9v13.9h-78.2v-13.9H942.4z M943.6-746.7h26.9v-11.1
		h17.4v11.1h26.9v13.7h-71.1v-13.7H943.6z M982.4-693.2c4.3,0,7.7-0.9,10-2.8c2.3-1.8,3.5-4.5,3.5-7.8s-1.2-6-3.5-7.8
		c-2.3-1.8-5.7-2.8-10-2.8h-6.5c-4.2,0-7.5,0.9-9.9,2.8c-2.4,1.8-3.6,4.5-3.6,7.8s1.2,6,3.6,7.8c2.4,1.8,5.7,2.8,9.9,2.8H982.4z
		 M1025.4-755.7h16.4v107.6h-16.4V-755.7z"/>
</g>
<ellipse class="st1" cx="295.8" cy="-842.5" rx="29.8" ry="29.8"/>
<path class="st8" d="M167.8-780.9c0-39.5,31.7-87.1,70.9-87.1s70.9,47.5,70.9,87.1c0,39.5-31.7,58.6-70.9,58.6
	S167.8-741.3,167.8-780.9z"/>
<g>
	<g>
		<line class="st8" x1="238.7" y1="-796.2" x2="238.7" y2="-688.5"/>
		<line class="st8" x1="212.2" y1="-788.4" x2="238.7" y2="-755.2"/>
		<line class="st8" x1="238.7" y1="-737.2" x2="261.3" y2="-766.5"/>
	</g>
</g>
<g>
	<g>
		<line class="st8" x1="124.2" y1="-822.3" x2="124.2" y2="-688.5"/>
		<line class="st8" x1="91.3" y1="-812.6" x2="124.2" y2="-771.4"/>
		<line class="st8" x1="124.2" y1="-749" x2="152.3" y2="-785.4"/>
	</g>
</g>
<path class="st8" d="M195-818.6c0,48.7-20.2,88.1-71.8,88.1c-46.7,0-71.8-39.4-71.8-88.1c0-48.7,32.1-120.4,71.8-120.4
	S195-867.2,195-818.6z"/>
<line class="st8" x1="37.8" y1="-682.3" x2="323.4" y2="-682.3"/>
<line class="st8" x1="65.5" y1="-654.8" x2="295.8" y2="-654.8"/>
<g>
	<path class="st9" d="M366.2-1310.9c4.2-1.2,8.1-3.3,11.6-6.1c3.6-2.9,6.7-6.4,9.3-10.6c2.6-4.2,4.6-8.9,6.1-14
		c1.4-5.2,2.2-10.7,2.2-16.5v-36.8h17v36.8c0,5.2,0.6,10.3,1.9,15.2c1.3,4.9,3.1,9.4,5.5,13.6c2.4,4.1,5.3,7.8,8.8,10.9
		c3.5,3.1,7.4,5.5,11.7,7.2v14.8c-3.6-1-7.2-2.5-10.8-4.5c-3.6-2-7.1-4.4-10.3-7.1c-3.3-2.7-6.2-5.6-8.8-8.9
		c-2.6-3.2-4.7-6.5-6.2-9.8c-1.8,3.9-4.1,7.4-6.8,10.7c-2.7,3.3-5.6,6.3-8.9,8.9c-3.3,2.7-6.8,4.9-10.6,6.8
		c-3.8,1.8-7.7,3.3-11.7,4.2L366.2-1310.9L366.2-1310.9z M452.9-1396.7h16.4v107.6h-16.4V-1396.7z"/>
	<path class="st9" d="M488.5-1395.5h15.9v42.4H536v13h-47.5V-1395.5z M494.6-1301.5c5.4-0.2,10.4-1.1,15-2.7
		c4.6-1.5,8.6-3.5,12.1-5.9c3.4-2.4,6.1-5.2,8-8.4c1.9-3.2,2.9-6.6,2.9-10.2v-4.2h16.9v4.2c0,3.6,1,7,2.9,10.2c1.9,3.2,4.6,6,8,8.4
		c3.4,2.4,7.4,4.4,12.1,5.9c4.6,1.5,9.6,2.4,15,2.7v13.1c-9.6-0.5-18.3-2.3-26.3-5.5s-14.7-7.6-20.1-13.3
		c-5.5,5.6-12.2,10-20.1,13.3c-8,3.2-16.7,5.1-26.3,5.5v-13.1H494.6z M542.1-1396.1h15.4v22.2h13.3v-22.8h15.4v71.6h-15.4v-34.1
		h-13.3v23.3h-15.4V-1396.1z"/>
	<path class="st9" d="M600-1312.1c6.6-1.4,12.7-4.2,18.2-8.2s10.3-9,14.3-15s7.2-12.8,9.5-20.3c2.3-7.6,3.4-15.6,3.4-24.1h-44.8v-14
		h61.5v11.1c0,10.9-1.5,21.2-4.6,30.9s-7.3,18.3-12.8,25.9s-12.1,13.8-19.6,18.8c-7.6,5-15.9,8.2-25,9.8v-14.9H600z M678.3-1396.7
		h16.4v38.5h14.5v14.7h-14.5v54.5h-16.4V-1396.7z"/>
	<path class="st9" d="M369.8-1186.9h107.3v13.9H432v28.6h-17.1v-28.6h-45.1V-1186.9z M375.8-1211h15.7v-25H377v-13.7h92.8v13.7
		h-14.5v25.1H471v13.7h-95.2V-1211z M439-1211v-25h-31.1v25.1L439-1211L439-1211z"/>
	<path class="st9" d="M484.3-1190h107.3v12.9H484.3V-1190z M492.1-1231h75v-7.7h-75v-12.9h91.6v33h-75v8.3h77.4v12.9h-94L492.1-1231
		L492.1-1231z M492.1-1172.6h16.4v14.2H585v13.5h-92.8v-27.7H492.1z"/>
	<path class="st9" d="M599.4-1205.3c3.8-0.6,7.3-1.6,10.5-3.2c3.3-1.6,6.1-3.5,8.4-5.7c2.4-2.2,4.2-4.8,5.5-7.6c1.3-2.8,2-5.8,2-8.9
		v-1.9h-25.3v-13h25.2v-9.6h17.2v9.6h23.9v13h-24v1.9c0,6.1,2.2,11.3,6.6,15.6c4.4,4.3,10.4,7.3,18,8.9v13.1
		c-6.7-1.2-13-3.3-18.7-6.3s-10.5-6.6-14.4-10.8c-4,4.8-9,8.7-15,11.7s-12.6,5.1-19.9,6.4V-1205.3z M634.4-1144.4
		c-4.3,0-8.1-0.5-11.5-1.5s-6.3-2.5-8.7-4.4s-4.3-4.2-5.5-6.9c-1.3-2.7-1.9-5.7-1.9-9.1c0-3.4,0.6-6.4,1.9-9.1
		c1.3-2.7,3.1-5,5.5-6.9s5.3-3.4,8.7-4.4s7.3-1.5,11.5-1.5H673c4.3,0,8.1,0.5,11.5,1.5s6.3,2.5,8.7,4.4s4.3,4.2,5.5,6.9
		c1.3,2.7,1.9,5.7,1.9,9.1c0,3.4-0.6,6.4-1.9,9.1c-1.3,2.7-3.1,5-5.5,6.9s-5.3,3.4-8.7,4.4s-7.3,1.5-11.5,1.5H634.4z M672-1157.5
		c3.7,0,6.7-0.8,8.9-2.4s3.4-3.8,3.4-6.6s-1.1-5-3.4-6.6c-2.3-1.6-5.2-2.4-8.9-2.4h-36.6c-3.7,0-6.7,0.8-8.9,2.4
		c-2.3,1.6-3.4,3.8-3.4,6.6s1.1,5,3.4,6.6c2.2,1.6,5.2,2.4,8.9,2.4H672z M681.9-1213.7h-19.8v-13.7h19.8v-24.6h16.4v61.4h-16.4
		V-1213.7z"/>
	<path class="st9" d="M718.2-1250.9h16.4v46.6h52.2v13h-68.6L718.2-1250.9L718.2-1250.9z M723.6-1182.3H740v23.9h75.2v13.5h-91.6
		L723.6-1182.3L723.6-1182.3z M796.4-1210.2h-33v-12.5h33v-8h-33v-12.5h33v-8.8h16.4v78.8h-16.4V-1210.2z"/>
	<path class="st9" d="M827.9-1163.6h21.6v-41.5h17.1v41.5h15.1v-41.5h17.1v41.5h36.4v13.9H827.9V-1163.6z M835.7-1249.2h90.4v69.4
		h-16.4v-55.4h-74V-1249.2z"/>
	<path class="st9" d="M942.4-1163.6h28.2v-12.3c-3.6-0.3-6.9-1.1-9.9-2.2c-3-1.2-5.6-2.8-7.8-4.8s-3.9-4.4-5.1-7.3
		c-1.2-2.9-1.8-6.2-1.8-9.9c0-4.1,0.7-7.7,2.2-10.7c1.4-3,3.4-5.5,6-7.6c2.5-2,5.6-3.6,9.1-4.6s7.4-1.5,11.6-1.5h8.7
		c4.2,0,8,0.5,11.6,1.5c3.5,1,6.6,2.5,9.1,4.6c2.5,2,4.5,4.6,6,7.6c1.4,3,2.2,6.6,2.2,10.7c0,3.8-0.6,7.1-1.8,9.9
		c-1.2,2.9-2.9,5.3-5.1,7.3c-2.2,2-4.8,3.6-7.8,4.8s-6.3,1.9-9.9,2.2v12.3h32.9v13.9h-78.2v-13.9H942.4z M943.6-1243h26.9v-11.1
		h17.4v11.1h26.9v13.7h-71.1v-13.7H943.6z M982.4-1189.5c4.3,0,7.7-0.9,10-2.8c2.3-1.8,3.5-4.5,3.5-7.8s-1.2-6-3.5-7.8
		c-2.3-1.8-5.7-2.8-10-2.8h-6.5c-4.2,0-7.5,0.9-9.9,2.8c-2.4,1.8-3.6,4.5-3.6,7.8s1.2,6,3.6,7.8c2.4,1.8,5.7,2.8,9.9,2.8H982.4z
		 M1025.4-1252.1h16.4v107.6h-16.4V-1252.1z"/>
</g>
<circle class="st1" cx="295.8" cy="-1338.8" r="29.8"/>
<path class="st10" d="M167.8-1277.2c0-39.5,31.7-87.1,70.9-87.1s70.9,47.5,70.9,87.1c0,39.5-31.7,58.6-70.9,58.6
	C199.5-1218.6,167.8-1237.7,167.8-1277.2z"/>
<g>
	<line class="st10" x1="238.7" y1="-1292.5" x2="238.7" y2="-1184.8"/>
	<line class="st10" x1="212.2" y1="-1284.7" x2="238.7" y2="-1251.5"/>
	<line class="st10" x1="238.7" y1="-1233.5" x2="261.3" y2="-1262.8"/>
</g>
<g>
	<line class="st10" x1="124.2" y1="-1318.6" x2="124.2" y2="-1184.8"/>
	<line class="st10" x1="91.3" y1="-1309" x2="124.2" y2="-1267.7"/>
	<line class="st10" x1="124.2" y1="-1245.4" x2="152.3" y2="-1281.8"/>
</g>
<path class="st10" d="M195-1314.9c0,48.7-20.2,88.1-71.8,88.1c-46.7,0-71.8-39.4-71.8-88.1c0-48.7,32.1-120.4,71.8-120.4
	S195-1363.6,195-1314.9z"/>
<line class="st10" x1="37.8" y1="-1178.7" x2="323.4" y2="-1178.7"/>
<line class="st10" x1="65.5" y1="-1151.1" x2="295.8" y2="-1151.1"/>
<path class="st11" d="M1659.2-1921c0,16.1-13.1,29.2-29.2,29.2s-29.2-13.1-29.2-29.2s13.1-29.2,29.2-29.2S1659.2-1937.1,1659.2-1921
	z"/>
<g>
	<path class="st12" d="M1504.6-1860.6c0-38.7,31.1-85.3,69.5-85.3s69.5,46.6,69.5,85.3s-31.1,57.4-69.5,57.4
		S1504.6-1821.9,1504.6-1860.6z"/>
	<g>
		<line class="st12" x1="1574" y1="-1875.6" x2="1574" y2="-1770.1"/>
		<line class="st12" x1="1548.1" y1="-1868" x2="1574" y2="-1835.5"/>
		<line class="st12" x1="1574" y1="-1817.9" x2="1596.2" y2="-1846.6"/>
	</g>
	<g>
		<line class="st12" x1="1461.8" y1="-1901.2" x2="1461.8" y2="-1770.1"/>
		<line class="st12" x1="1429.6" y1="-1891.8" x2="1461.8" y2="-1851.4"/>
		<line class="st12" x1="1461.8" y1="-1829.4" x2="1489.4" y2="-1865.1"/>
	</g>
	<path class="st12" d="M1531.3-1897.6c0,47.7-19.8,86.3-70.3,86.3c-45.7,0-70.3-38.7-70.3-86.3s31.5-118,70.3-118
		S1531.3-1945.3,1531.3-1897.6z"/>
	<line class="st12" x1="1377.2" y1="-1764.1" x2="1657" y2="-1764.1"/>
	<line class="st12" x1="1404.3" y1="-1737.1" x2="1630" y2="-1737.1"/>
</g>
<path class="st11" d="M2282.1-1921c0,16.1-13.1,29.2-29.2,29.2s-29.2-13.1-29.2-29.2s13.1-29.2,29.2-29.2S2282.1-1937.1,2282.1-1921
	z"/>
<g>
	<path class="st13" d="M2127.5-1860.6c0-38.7,31.1-85.3,69.5-85.3s69.5,46.6,69.5,85.3s-31.1,57.4-69.5,57.4
		S2127.5-1821.9,2127.5-1860.6z"/>
	<g>
		<line class="st13" x1="2197" y1="-1875.6" x2="2197" y2="-1770.1"/>
		<line class="st13" x1="2171.1" y1="-1868" x2="2197" y2="-1835.5"/>
		<line class="st13" x1="2197" y1="-1817.9" x2="2219.1" y2="-1846.6"/>
	</g>
	<g>
		<line class="st13" x1="2084.8" y1="-1901.2" x2="2084.8" y2="-1770.1"/>
		<line class="st13" x1="2052.6" y1="-1891.8" x2="2084.8" y2="-1851.4"/>
		<line class="st13" x1="2084.8" y1="-1829.4" x2="2112.3" y2="-1865.1"/>
	</g>
	<path class="st13" d="M2154.2-1897.6c0,47.7-19.8,86.3-70.3,86.3c-45.7,0-70.3-38.7-70.3-86.3s31.5-118,70.3-118
		C2122.8-2015.6,2154.2-1945.3,2154.2-1897.6z"/>
	<line class="st13" x1="2000.2" y1="-1764.1" x2="2280" y2="-1764.1"/>
	<line class="st13" x1="2027.3" y1="-1737.1" x2="2252.9" y2="-1737.1"/>
</g>
<rect y="-2134.3" class="st9" width="566.9" height="566.9"/>
<path class="st11" d="M424.4-1921c0,16.1-13.1,29.2-29.2,29.2S366-1904.9,366-1921s13.1-29.2,29.2-29.2
	C411.4-1950.1,424.4-1937.1,424.4-1921z"/>
<g>
	<path class="st12" d="M269.8-1860.6c0-38.7,31.1-85.3,69.5-85.3s69.5,46.6,69.5,85.3s-31.1,57.4-69.5,57.4
		S269.8-1821.9,269.8-1860.6z"/>
	<g>
		<line class="st12" x1="339.3" y1="-1875.6" x2="339.3" y2="-1770.1"/>
		<line class="st12" x1="313.4" y1="-1868" x2="339.3" y2="-1835.5"/>
		<line class="st12" x1="339.3" y1="-1817.9" x2="361.4" y2="-1846.6"/>
	</g>
	<g>
		<line class="st12" x1="227.1" y1="-1901.2" x2="227.1" y2="-1770.1"/>
		<line class="st12" x1="194.9" y1="-1891.8" x2="227.1" y2="-1851.4"/>
		<line class="st12" x1="227.1" y1="-1829.4" x2="254.6" y2="-1865.1"/>
	</g>
	<path class="st12" d="M296.5-1897.6c0,47.7-19.8,86.3-70.3,86.3c-45.7,0-70.3-38.7-70.3-86.3s31.5-118,70.3-118
		C265.1-2015.6,296.5-1945.3,296.5-1897.6z"/>
	<line class="st12" x1="142.5" y1="-1764.1" x2="422.3" y2="-1764.1"/>
	<line class="st12" x1="169.6" y1="-1737.1" x2="395.2" y2="-1737.1"/>
</g>
<rect x="623" y="-2134.3" class="st7" width="566.9" height="566.9"/>
<path class="st11" d="M1047.4-1921c0,16.1-13.1,29.2-29.2,29.2c-16.1,0-29.2-13.1-29.2-29.2s13.1-29.2,29.2-29.2
	C1034.3-1950.1,1047.4-1937.1,1047.4-1921z"/>
<g>
	<path class="st13" d="M892.8-1860.6c0-38.7,31.1-85.3,69.5-85.3s69.5,46.6,69.5,85.3s-31.1,57.4-69.5,57.4
		S892.8-1821.9,892.8-1860.6z"/>
	<g>
		<line class="st13" x1="962.3" y1="-1875.6" x2="962.3" y2="-1770.1"/>
		<line class="st13" x1="936.3" y1="-1868" x2="962.3" y2="-1835.5"/>
		<line class="st13" x1="962.3" y1="-1817.9" x2="984.4" y2="-1846.6"/>
	</g>
	<g>
		<line class="st13" x1="850.1" y1="-1901.2" x2="850.1" y2="-1770.1"/>
		<line class="st13" x1="817.9" y1="-1891.8" x2="850.1" y2="-1851.4"/>
		<line class="st13" x1="850.1" y1="-1829.4" x2="877.6" y2="-1865.1"/>
	</g>
	<path class="st13" d="M919.5-1897.6c0,47.7-19.8,86.3-70.3,86.3c-45.7,0-70.3-38.7-70.3-86.3s31.5-118,70.3-118
		S919.5-1945.3,919.5-1897.6z"/>
	<line class="st13" x1="765.5" y1="-1764.1" x2="1045.3" y2="-1764.1"/>
	<line class="st13" x1="792.6" y1="-1737.1" x2="1018.2" y2="-1737.1"/>
</g>
<g>
	<path class="st9" d="M2150.1-471.6c0,39.1-31.7,70.9-70.9,70.9s-70.9-31.7-70.9-70.9c0-39.1,31.7-70.9,70.9-70.9
		C2118.4-542.5,2150.1-510.8,2150.1-471.6z"/>
	<path class="st11" d="M2113.3-487.8c0,3.9-3.2,7.1-7.1,7.1s-7.1-3.2-7.1-7.1c0-3.9,3.2-7.1,7.1-7.1S2113.3-491.7,2113.3-487.8z"/>
	<g>
		<path class="st14" d="M2076-473.3c0-9.4,7.5-20.6,16.8-20.6s16.8,11.3,16.8,20.6c0,9.4-7.5,13.9-16.8,13.9S2076-463.9,2076-473.3z
			"/>
		<g>
			<line class="st14" x1="2092.7" y1="-476.9" x2="2092.7" y2="-451.4"/>
			<line class="st14" x1="2086.5" y1="-475" x2="2092.7" y2="-467.2"/>
			<line class="st14" x1="2092.7" y1="-462.9" x2="2098.1" y2="-469.9"/>
		</g>
		<g>
			<line class="st14" x1="2065.6" y1="-483.1" x2="2065.6" y2="-451.4"/>
			<line class="st14" x1="2057.9" y1="-480.8" x2="2065.6" y2="-471"/>
			<line class="st14" x1="2065.6" y1="-465.7" x2="2072.3" y2="-474.3"/>
		</g>
		<path class="st14" d="M2082.4-482.2c0,11.5-4.8,20.9-17,20.9c-11.1,0-17-9.3-17-20.9c0-11.5,7.6-28.5,17-28.5
			C2074.8-510.7,2082.4-493.7,2082.4-482.2z"/>
		<line class="st14" x1="2045.2" y1="-449.9" x2="2112.8" y2="-449.9"/>
		<line class="st14" x1="2051.7" y1="-443.4" x2="2106.3" y2="-443.4"/>
	</g>
	<g>
		<path class="st7" d="M2055.5-437.2l1,1.8l1-1.8h1.5l-1.9,3.1v2.2h-1.4v-2.2l-1.9-3.1H2055.5z"/>
		<path class="st7" d="M2059-431.8v-1.3h1.4v1.3H2059z"/>
		<path class="st7" d="M2060.8-431.8l1.8-5.3h1.7l1.8,5.3h-1.4l-0.5-1.5l-1.7,0.5l-0.3,1H2060.8z M2062.9-434.1l0.9-0.3l-0.4-1.2
			L2062.9-434.1z"/>
		<path class="st7" d="M2066.6-431.8v-1.3h1.4v1.3H2066.6z"/>
		<path class="st7" d="M2070.5-434.5c0-0.4,0.1-0.8,0.2-1.1c0.2-0.3,0.4-0.6,0.6-0.9c0.3-0.2,0.6-0.4,0.9-0.6
			c0.4-0.1,0.7-0.2,1.1-0.2c0.6,0,1,0.1,1.4,0.3s0.8,0.6,1.1,1l-0.9,0.8c-0.2-0.3-0.4-0.5-0.6-0.7c-0.3-0.2-0.6-0.3-0.9-0.3
			c-0.2,0-0.4,0-0.6,0.1c-0.2,0.1-0.4,0.2-0.5,0.4c-0.1,0.1-0.2,0.3-0.3,0.5c-0.1,0.2-0.1,0.4-0.1,0.7c0,0.2,0,0.4,0.1,0.6
			s0.2,0.4,0.3,0.5s0.3,0.3,0.5,0.3c0.2,0.1,0.4,0.1,0.6,0.1c0.2,0,0.4,0,0.5-0.1c0.2,0,0.3-0.1,0.4-0.2c0.1-0.1,0.2-0.2,0.3-0.3
			c0.1-0.1,0.2-0.3,0.3-0.4l0.9,0.8c-0.3,0.4-0.7,0.7-1.1,1c-0.4,0.2-0.9,0.3-1.5,0.3c-0.4,0-0.8-0.1-1.1-0.2
			c-0.4-0.1-0.7-0.3-0.9-0.6c-0.3-0.2-0.5-0.5-0.6-0.9C2070.6-433.7,2070.5-434.1,2070.5-434.5z"/>
		<path class="st7" d="M2080-431.8v-2.5l-2,0.5v1.9h-1.4v-5.3h1.4v2.2l2-0.6v-1.7h1.4v5.3h-1.4V-431.8z"/>
		<path class="st7" d="M2084.7-431.7c-0.3,0-0.6-0.1-0.9-0.2c-0.3-0.1-0.5-0.2-0.8-0.4c-0.2-0.2-0.4-0.4-0.5-0.7s-0.2-0.6-0.2-0.9
			v-3.3h1.4v3.2c0,0.1,0,0.3,0.1,0.4c0,0.1,0.1,0.2,0.2,0.3c0.1,0.1,0.2,0.2,0.3,0.2c0.1,0.1,0.3,0.1,0.4,0.1c0.2,0,0.3,0,0.4-0.1
			c0.1-0.1,0.2-0.1,0.3-0.2c0.1-0.1,0.2-0.2,0.2-0.3s0.1-0.3,0.1-0.4v-3.2h1.4v3.3c0,0.3-0.1,0.6-0.2,0.9c-0.1,0.3-0.3,0.5-0.5,0.7
			c-0.2,0.2-0.5,0.3-0.8,0.4C2085.3-431.8,2085-431.7,2084.7-431.7z"/>
		<path class="st7" d="M2088-437.2h3c0.2,0,0.4,0,0.7,0.1c0.2,0.1,0.4,0.2,0.5,0.3c0.1,0.1,0.3,0.3,0.3,0.5c0.1,0.2,0.1,0.4,0.1,0.7
			c0,0.4-0.1,0.6-0.2,0.9c-0.1,0.2-0.3,0.4-0.5,0.5l1,2.3h-1.4l-0.8-1.9l-1.3,0.3v1.7h-1.4L2088-437.2L2088-437.2z M2091.2-435.6
			c0-0.1,0-0.2-0.1-0.3s-0.2-0.1-0.3-0.1h-1.4v1.3l1.3-0.2c0.2,0,0.4-0.1,0.5-0.2C2091.2-435.3,2091.2-435.4,2091.2-435.6z"/>
		<path class="st7" d="M2093.4-434.5c0-0.4,0.1-0.8,0.2-1.1c0.1-0.3,0.4-0.6,0.6-0.9c0.3-0.2,0.6-0.4,0.9-0.6
			c0.4-0.1,0.7-0.2,1.1-0.2c0.6,0,1,0.1,1.4,0.3s0.8,0.6,1.1,1l-0.9,0.8c-0.2-0.3-0.4-0.5-0.6-0.7c-0.2-0.2-0.6-0.3-0.9-0.3
			c-0.2,0-0.4,0-0.6,0.1c-0.2,0.1-0.4,0.2-0.5,0.4c-0.1,0.1-0.2,0.3-0.3,0.5c-0.1,0.2-0.1,0.4-0.1,0.7c0,0.2,0,0.4,0.1,0.6
			s0.2,0.4,0.3,0.5s0.3,0.3,0.5,0.3c0.2,0.1,0.4,0.1,0.6,0.1c0.2,0,0.4,0,0.5-0.1c0.2,0,0.3-0.1,0.4-0.2c0.1-0.1,0.2-0.2,0.3-0.3
			c0.1-0.1,0.2-0.3,0.3-0.4l0.9,0.8c-0.3,0.4-0.7,0.7-1.1,1c-0.4,0.2-0.9,0.3-1.5,0.3c-0.4,0-0.8-0.1-1.1-0.2
			c-0.4-0.1-0.7-0.3-0.9-0.6s-0.5-0.5-0.6-0.9C2093.5-433.7,2093.4-434.1,2093.4-434.5z"/>
		<path class="st7" d="M2102.8-431.8v-2.5l-2,0.5v1.9h-1.4v-5.3h1.4v2.2l2-0.6v-1.7h1.4v5.3h-1.4V-431.8z"/>
	</g>
</g>
<g>
	<path class="st7" d="M1987.6-638.3c0,39.1-31.7,70.9-70.9,70.9c-39.1,0-70.9-31.7-70.9-70.9c0-39.1,31.7-70.9,70.9-70.9
		S1987.6-677.5,1987.6-638.3z"/>
	<g>
		<g>
			<path class="st11" d="M1965.4-671.3c0,2.7-2.2,5-5,5c-2.7,0-5-2.2-5-5c0-2.7,2.2-5,5-5C1963.1-676.3,1965.4-674,1965.4-671.3z"/>
			<path class="st15" d="M1939.1-661.1c0-6.6,5.3-14.5,11.8-14.5s11.8,7.9,11.8,14.5c0,6.6-5.3,9.7-11.8,9.7
				C1944.4-651.3,1939.1-654.5,1939.1-661.1z"/>
			<g>
				<line class="st15" x1="1950.9" y1="-663.6" x2="1950.9" y2="-645.7"/>
				<line class="st15" x1="1946.5" y1="-662.3" x2="1950.9" y2="-656.8"/>
				<line class="st15" x1="1950.9" y1="-653.8" x2="1954.7" y2="-658.7"/>
			</g>
			<g>
				<line class="st15" x1="1931.9" y1="-668" x2="1931.9" y2="-645.7"/>
				<line class="st15" x1="1926.4" y1="-666.3" x2="1931.9" y2="-659.5"/>
				<line class="st15" x1="1931.9" y1="-655.8" x2="1936.5" y2="-661.8"/>
			</g>
			<path class="st15" d="M1943.6-667.3c0,8.1-3.4,14.7-11.9,14.7c-7.8,0-11.9-6.6-11.9-14.7c0-8.1,5.3-20,11.9-20
				C1938.3-687.4,1943.6-675.4,1943.6-667.3z"/>
		</g>
		<line class="st15" x1="1917.5" y1="-644.7" x2="1965" y2="-644.7"/>
		<line class="st15" x1="1922.1" y1="-640.1" x2="1960.4" y2="-640.1"/>
	</g>
	<g>
		<path class="st9" d="M1867-616.6l3.3-9.7h3.2l3.3,9.7h-2.5l-0.9-2.7l-3.1,0.9l-0.6,1.9L1867-616.6L1867-616.6z M1870.9-620.8
			l1.7-0.5l-0.8-2.3L1870.9-620.8z"/>
		<path class="st9" d="M1881-619.8c0.4,0.4,0.9,0.7,1.5,0.9c0.6,0.2,1.2,0.3,1.8,0.3c0.4,0,0.7-0.1,0.9-0.2c0.2-0.1,0.3-0.3,0.3-0.5
			c0-0.3-0.1-0.5-0.3-0.6c-0.2-0.2-0.6-0.3-1.1-0.5c-0.4-0.1-0.9-0.3-1.3-0.4c-0.4-0.1-0.9-0.3-1.2-0.6c-0.4-0.2-0.7-0.5-0.9-0.9
			c-0.2-0.4-0.4-0.8-0.4-1.4c0-0.5,0.1-1,0.3-1.3c0.2-0.4,0.5-0.7,0.8-0.9c0.3-0.2,0.7-0.4,1.2-0.5c0.5-0.1,0.9-0.2,1.5-0.2
			c0.4,0,0.7,0,1,0.1s0.6,0.1,1,0.2c0.3,0.1,0.6,0.2,0.9,0.4c0.3,0.2,0.6,0.3,0.9,0.6l-1,2c-0.4-0.3-0.8-0.5-1.3-0.7s-1-0.3-1.5-0.3
			c-0.2,0-0.3,0-0.5,0s-0.3,0.1-0.4,0.1c-0.1,0.1-0.2,0.1-0.3,0.2c-0.1,0.1-0.1,0.2-0.1,0.3c0,0.1,0,0.2,0.1,0.3
			c0,0.1,0.1,0.2,0.2,0.3c0.1,0.1,0.3,0.2,0.5,0.2c0.2,0.1,0.5,0.2,0.8,0.3c0.5,0.1,1,0.3,1.5,0.5c0.5,0.2,0.9,0.4,1.2,0.6
			c0.3,0.2,0.6,0.5,0.8,0.9c0.2,0.4,0.3,0.8,0.3,1.4c0,0.5-0.1,0.9-0.3,1.3c-0.2,0.4-0.5,0.7-0.8,0.9s-0.8,0.4-1.2,0.5
			c-0.5,0.1-1,0.2-1.6,0.2c-0.8,0-1.6-0.1-2.3-0.4c-0.7-0.2-1.4-0.6-2-1L1881-619.8z"/>
		<path class="st9" d="M1894.2-624.2v7.6h-2.5v-7.6h-3.1v-2.1h8.7v2.1H1894.2z"/>
		<path class="st9" d="M1898.1-626.3h5.5c0.4,0,0.8,0.1,1.2,0.2c0.4,0.1,0.7,0.3,1,0.5c0.3,0.2,0.5,0.5,0.6,0.9
			c0.2,0.4,0.2,0.8,0.2,1.3c0,0.7-0.1,1.2-0.3,1.6c-0.2,0.4-0.5,0.7-1,1l1.9,4.3h-2.6l-1.5-3.6l-2.3,0.5v3h-2.5v-9.7H1898.1z
			 M1904-623.4c0-0.2-0.1-0.4-0.2-0.6c-0.2-0.2-0.4-0.2-0.6-0.2h-2.6v2.4l2.3-0.4c0.4-0.1,0.7-0.2,0.9-0.4
			C1904-622.8,1904-623.1,1904-623.4z"/>
		<path class="st9" d="M1915-622.6v2.1h-4.8v1.8h5.1v2.1h-7.7v-9.7h7.6v2.1h-5v1.6H1915z"/>
		<path class="st9" d="M1915.7-616.6l3.3-9.7h3.2l3.3,9.7h-2.5l-0.9-2.7l-3.1,0.9l-0.6,1.9L1915.7-616.6L1915.7-616.6z
			 M1919.7-620.8l1.7-0.5l-0.8-2.3L1919.7-620.8z"/>
		<path class="st9" d="M1934.4-626.3h2.6v9.7h-2.5v-4.9l-2,4.9h-1.8l-2-4.9v4.9h-2.5v-9.7h2.6l2.8,6.9L1934.4-626.3z"/>
	</g>
	<g>
		<path class="st9" d="M1868.2-612.4l0.9,1.6l0.9-1.6h1.4l-1.7,2.8v2h-1.2v-2l-1.7-2.7h1.4V-612.4z"/>
		<path class="st9" d="M1871.6-610.1c0-0.4,0.1-0.7,0.2-1c0.1-0.3,0.3-0.6,0.5-0.8c0.2-0.2,0.5-0.4,0.8-0.5c0.3-0.1,0.7-0.2,1-0.2
			c0.4,0,0.7,0.1,1,0.2c0.3,0.1,0.6,0.3,0.8,0.5c0.2,0.2,0.4,0.5,0.5,0.8c0.1,0.3,0.2,0.6,0.2,1c0,0.4-0.1,0.7-0.2,1
			c-0.1,0.3-0.3,0.6-0.5,0.8s-0.5,0.4-0.8,0.5c-0.3,0.1-0.7,0.2-1,0.2c-0.4,0-0.7-0.1-1-0.2c-0.3-0.1-0.6-0.3-0.8-0.5
			c-0.2-0.2-0.4-0.5-0.5-0.8C1871.6-609.4,1871.6-609.7,1871.6-610.1z M1872.8-610.1c0,0.2,0,0.4,0.1,0.6s0.2,0.3,0.3,0.5
			c0.1,0.1,0.3,0.2,0.4,0.3c0.2,0.1,0.4,0.1,0.6,0.1s0.4,0,0.6-0.1c0.2-0.1,0.3-0.2,0.4-0.3s0.2-0.3,0.3-0.5
			c0.1-0.2,0.1-0.4,0.1-0.6c0-0.2,0-0.4-0.1-0.6s-0.2-0.3-0.3-0.5c-0.1-0.1-0.3-0.2-0.4-0.3c-0.2-0.1-0.4-0.1-0.6-0.1
			s-0.4,0-0.6,0.1s-0.3,0.2-0.4,0.3c-0.1,0.1-0.2,0.3-0.3,0.5C1872.8-610.5,1872.8-610.3,1872.8-610.1z"/>
		<path class="st9" d="M1879.6-607.6c-0.3,0-0.6,0-0.8-0.1c-0.3-0.1-0.5-0.2-0.7-0.4c-0.2-0.2-0.3-0.4-0.5-0.6
			c-0.1-0.2-0.2-0.5-0.2-0.8v-2.9h1.2v2.9c0,0.1,0,0.2,0.1,0.4c0,0.1,0.1,0.2,0.2,0.3c0.1,0.1,0.2,0.2,0.3,0.2
			c0.1,0,0.2,0.1,0.4,0.1c0.1,0,0.3,0,0.4-0.1c0.1,0,0.2-0.1,0.3-0.2c0.1-0.1,0.1-0.2,0.2-0.3c0-0.1,0.1-0.2,0.1-0.4v-2.9h1.2v2.9
			c0,0.3-0.1,0.6-0.2,0.8s-0.3,0.4-0.5,0.6c-0.2,0.2-0.4,0.3-0.7,0.4C1880.2-607.6,1879.9-607.6,1879.6-607.6z"/>
		<path class="st9" d="M1882.6-612.4h1.2l1.8,2.9v-2.9h1.2v4.8h-1.2l-1.8-2.9v2.9h-1.2V-612.4z"/>
		<path class="st9" d="M1889.9-608.6c0.3,0,0.6-0.1,0.8-0.2c0.2-0.1,0.3-0.4,0.4-0.6h-1.3v-1h2.5v0.7c0,0.4-0.1,0.7-0.2,1
			s-0.3,0.5-0.5,0.7s-0.5,0.3-0.8,0.4c-0.3,0.1-0.6,0.1-0.9,0.1c-0.4,0-0.7-0.1-1-0.2c-0.3-0.1-0.6-0.3-0.8-0.5
			c-0.2-0.2-0.4-0.5-0.5-0.8s-0.2-0.6-0.2-1s0.1-0.7,0.2-1s0.3-0.6,0.5-0.8s0.5-0.4,0.8-0.5c0.3-0.1,0.7-0.2,1-0.2
			c0.5,0,0.9,0.1,1.3,0.3s0.7,0.5,1,0.9l-0.8,0.7c-0.1-0.3-0.3-0.5-0.6-0.6c-0.2-0.2-0.5-0.2-0.9-0.2c-0.2,0-0.3,0-0.5,0.1
			c-0.2,0.1-0.3,0.2-0.4,0.3s-0.2,0.3-0.3,0.5c-0.1,0.2-0.1,0.4-0.1,0.6c0,0.2,0,0.4,0.1,0.6s0.2,0.3,0.3,0.5
			c0.1,0.1,0.3,0.2,0.4,0.3C1889.6-608.6,1889.8-608.6,1889.9-608.6z"/>
		<path class="st9" d="M1894.4-607.7l1.6-4.8h1.6l1.6,4.8h-1.2l-0.5-1.3l-1.5,0.4l-0.3,0.9H1894.4z M1896.3-609.7l0.8-0.2l-0.4-1.1
			L1896.3-609.7z"/>
		<path class="st9" d="M1899.7-612.4h2.3c0.3,0,0.6,0.1,0.9,0.2c0.3,0.1,0.5,0.3,0.7,0.5s0.3,0.5,0.4,0.7c0.1,0.3,0.1,0.6,0.1,0.9
			c0,0.3-0.1,0.7-0.2,1c-0.1,0.3-0.2,0.5-0.4,0.8c-0.2,0.2-0.4,0.4-0.7,0.5c-0.3,0.1-0.6,0.2-1,0.2h-2v-4.8H1899.7z M1901-608.7h0.7
			c0.2,0,0.4,0,0.5-0.1c0.1-0.1,0.3-0.2,0.4-0.3c0.1-0.1,0.2-0.3,0.2-0.4c0-0.2,0.1-0.3,0.1-0.5s0-0.4-0.1-0.5
			c-0.1-0.2-0.1-0.3-0.2-0.4c-0.1-0.1-0.2-0.2-0.4-0.3c-0.2-0.1-0.3-0.1-0.5-0.1h-0.6L1901-608.7L1901-608.7z"/>
		<path class="st9" d="M1906.9-607.6c-0.3,0-0.6,0-0.8-0.1c-0.3-0.1-0.5-0.2-0.7-0.4c-0.2-0.2-0.3-0.4-0.5-0.6
			c-0.1-0.2-0.2-0.5-0.2-0.8v-2.9h1.2v2.9c0,0.1,0,0.2,0.1,0.4c0,0.1,0.1,0.2,0.2,0.3c0.1,0.1,0.2,0.2,0.3,0.2
			c0.1,0,0.2,0.1,0.4,0.1c0.1,0,0.3,0,0.4-0.1c0.1,0,0.2-0.1,0.3-0.2c0.1-0.1,0.1-0.2,0.2-0.3c0-0.1,0.1-0.2,0.1-0.4v-2.9h1.2v2.9
			c0,0.3-0.1,0.6-0.2,0.8s-0.3,0.4-0.5,0.6c-0.2,0.2-0.4,0.3-0.7,0.4C1907.5-607.6,1907.2-607.6,1906.9-607.6z"/>
		<path class="st9" d="M1909.9-612.4h1.2v3.7h2.3v1h-3.5V-612.4z"/>
		<path class="st9" d="M1916.3-611.4v3.7h-1.2v-3.7h-1.5v-1h4.3v1H1916.3z"/>
		<path class="st9" d="M1918.8-609.2c0.2,0.2,0.5,0.3,0.7,0.4c0.3,0.1,0.6,0.2,0.9,0.2c0.2,0,0.3,0,0.4-0.1c0.1-0.1,0.1-0.1,0.1-0.2
			c0-0.1-0.1-0.2-0.2-0.3c-0.1-0.1-0.3-0.2-0.5-0.2c-0.2-0.1-0.4-0.1-0.7-0.2c-0.2-0.1-0.4-0.2-0.6-0.3c-0.2-0.1-0.3-0.3-0.4-0.4
			c-0.1-0.2-0.2-0.4-0.2-0.7c0-0.2,0-0.5,0.1-0.6c0.1-0.2,0.2-0.3,0.4-0.4c0.2-0.1,0.4-0.2,0.6-0.3c0.2-0.1,0.5-0.1,0.7-0.1
			s0.3,0,0.5,0s0.3,0.1,0.5,0.1c0.2,0.1,0.3,0.1,0.5,0.2c0.2,0.1,0.3,0.2,0.5,0.3l-0.5,1c-0.2-0.1-0.4-0.3-0.6-0.3
			c-0.2-0.1-0.5-0.1-0.7-0.1c-0.1,0-0.2,0-0.2,0c-0.1,0-0.1,0-0.2,0.1c-0.1,0-0.1,0.1-0.1,0.1v0.1c0,0.1,0,0.1,0,0.2l0.1,0.1
			c0.1,0,0.1,0.1,0.2,0.1s0.2,0.1,0.4,0.1c0.3,0.1,0.5,0.1,0.7,0.2s0.4,0.2,0.6,0.3c0.2,0.1,0.3,0.3,0.4,0.4
			c0.1,0.2,0.1,0.4,0.1,0.7c0,0.2,0,0.5-0.1,0.6c-0.1,0.2-0.2,0.3-0.4,0.5c-0.2,0.1-0.4,0.2-0.6,0.3c-0.2,0.1-0.5,0.1-0.8,0.1
			c-0.4,0-0.8-0.1-1.1-0.2c-0.3-0.1-0.7-0.3-1-0.5L1918.8-609.2z"/>
		<path class="st9" d="M1867-602.1c0-0.4,0.1-0.7,0.2-1c0.1-0.3,0.3-0.6,0.5-0.8c0.2-0.2,0.5-0.4,0.8-0.5c0.3-0.1,0.7-0.2,1-0.2
			c0.5,0,0.9,0.1,1.3,0.3s0.7,0.5,1,0.9l-0.8,0.7c-0.1-0.3-0.3-0.5-0.6-0.6c-0.2-0.2-0.5-0.2-0.8-0.2c-0.2,0-0.4,0-0.6,0.1
			c-0.2,0.1-0.3,0.2-0.4,0.3c-0.1,0.1-0.2,0.3-0.3,0.5c-0.1,0.2-0.1,0.4-0.1,0.6s0,0.4,0.1,0.6c0.1,0.2,0.2,0.3,0.3,0.5
			c0.1,0.1,0.3,0.2,0.4,0.3c0.2,0.1,0.4,0.1,0.6,0.1s0.3,0,0.5-0.1c0.1,0,0.3-0.1,0.4-0.2s0.2-0.2,0.3-0.3c0.1-0.1,0.2-0.2,0.3-0.4
			l0.8,0.7c-0.3,0.4-0.6,0.7-0.9,0.9c-0.4,0.2-0.8,0.3-1.3,0.3c-0.4,0-0.7-0.1-1-0.2s-0.6-0.3-0.8-0.5c-0.2-0.2-0.4-0.5-0.5-0.8
			C1867.1-601.4,1867-601.7,1867-602.1z"/>
		<path class="st9" d="M1875.5-599.7v-2.2l-1.8,0.5v1.7h-1.2v-4.8h1.2v2l1.8-0.5v-1.5h1.2v4.8H1875.5z"/>
		<path class="st9" d="M1879.7-599.6c-0.3,0-0.6,0-0.8-0.1c-0.3-0.1-0.5-0.2-0.7-0.4c-0.2-0.2-0.3-0.4-0.5-0.6
			c-0.1-0.2-0.2-0.5-0.2-0.8v-2.9h1.2v2.9c0,0.1,0,0.2,0.1,0.4c0,0.1,0.1,0.2,0.2,0.3c0.1,0.1,0.2,0.2,0.3,0.2
			c0.1,0,0.2,0.1,0.4,0.1c0.1,0,0.3,0,0.4-0.1c0.1,0,0.2-0.1,0.3-0.2c0.1-0.1,0.1-0.2,0.2-0.3c0-0.1,0.1-0.2,0.1-0.4v-2.9h1.2v2.9
			c0,0.3-0.1,0.6-0.2,0.8s-0.3,0.4-0.5,0.6c-0.2,0.2-0.4,0.3-0.7,0.4C1880.2-599.6,1879.9-599.6,1879.7-599.6z"/>
		<path class="st9" d="M1882.6-604.4h2.7c0.2,0,0.4,0,0.6,0.1c0.2,0.1,0.3,0.1,0.5,0.3c0.1,0.1,0.2,0.3,0.3,0.4
			c0.1,0.2,0.1,0.4,0.1,0.6c0,0.3-0.1,0.6-0.2,0.8s-0.3,0.4-0.5,0.5l0.9,2.1h-1.3l-0.7-1.7l-1.1,0.2v1.5h-1.2v-4.8H1882.6z
			 M1885.5-603c0-0.1,0-0.2-0.1-0.3c-0.1-0.1-0.2-0.1-0.3-0.1h-1.3v1.2l1.1-0.2c0.2,0,0.3-0.1,0.4-0.2
			C1885.5-602.8,1885.5-602.9,1885.5-603z"/>
		<path class="st9" d="M1887.4-602.1c0-0.4,0.1-0.7,0.2-1c0.1-0.3,0.3-0.6,0.5-0.8c0.2-0.2,0.5-0.4,0.8-0.5c0.3-0.1,0.7-0.2,1-0.2
			c0.5,0,0.9,0.1,1.3,0.3s0.7,0.5,1,0.9l-0.8,0.7c-0.1-0.3-0.3-0.5-0.6-0.6c-0.2-0.2-0.5-0.2-0.8-0.2c-0.2,0-0.4,0-0.6,0.1
			c-0.2,0.1-0.3,0.2-0.4,0.3c-0.1,0.1-0.2,0.3-0.3,0.5c-0.1,0.2-0.1,0.4-0.1,0.6s0,0.4,0.1,0.6c0.1,0.2,0.2,0.3,0.3,0.5
			c0.1,0.1,0.3,0.2,0.4,0.3c0.2,0.1,0.4,0.1,0.6,0.1s0.3,0,0.5-0.1c0.1,0,0.3-0.1,0.4-0.2s0.2-0.2,0.3-0.3c0.1-0.1,0.2-0.2,0.3-0.4
			l0.8,0.7c-0.3,0.4-0.6,0.7-0.9,0.9c-0.4,0.2-0.8,0.3-1.3,0.3c-0.4,0-0.7-0.1-1-0.2s-0.6-0.3-0.8-0.5c-0.2-0.2-0.4-0.5-0.5-0.8
			C1887.5-601.4,1887.4-601.7,1887.4-602.1z"/>
		<path class="st9" d="M1895.9-599.7v-2.2l-1.8,0.5v1.7h-1.2v-4.8h1.2v2l1.8-0.5v-1.5h1.2v4.8H1895.9z"/>
	</g>
</g>
<g>
	<path class="st9" d="M2150.1-638.3c0,39.1-31.7,70.9-70.9,70.9s-70.9-31.7-70.9-70.9c0-39.1,31.7-70.9,70.9-70.9
		C2118.4-709.2,2150.1-677.5,2150.1-638.3z"/>
	<path class="st11" d="M2113.3-654.5c0,3.9-3.2,7.1-7.1,7.1s-7.1-3.2-7.1-7.1s3.2-7.1,7.1-7.1S2113.3-658.4,2113.3-654.5z"/>
	<path class="st14" d="M2076-639.9c0-9.4,7.5-20.6,16.8-20.6s16.8,11.3,16.8,20.6c0,9.4-7.5,13.9-16.8,13.9
		C2083.5-626.1,2076-630.6,2076-639.9z"/>
	<g>
		<line class="st14" x1="2092.7" y1="-643.6" x2="2092.7" y2="-618.1"/>
		<line class="st14" x1="2086.5" y1="-641.7" x2="2092.7" y2="-633.9"/>
		<line class="st14" x1="2092.7" y1="-629.6" x2="2098.1" y2="-636.6"/>
	</g>
	<g>
		<line class="st14" x1="2065.6" y1="-649.8" x2="2065.6" y2="-618.1"/>
		<line class="st14" x1="2057.9" y1="-647.5" x2="2065.6" y2="-637.7"/>
		<line class="st14" x1="2065.6" y1="-632.4" x2="2072.3" y2="-641"/>
	</g>
	<path class="st14" d="M2082.4-648.9c0,11.5-4.8,20.9-17,20.9c-11.1,0-17-9.3-17-20.9c0-11.5,7.6-28.5,17-28.5
		C2074.8-677.4,2082.4-660.4,2082.4-648.9z"/>
	<line class="st14" x1="2045.2" y1="-616.6" x2="2112.8" y2="-616.6"/>
	<line class="st14" x1="2051.7" y1="-610.1" x2="2079.7" y2="-610.1"/>
	<g>
		<path class="st7" d="M2085.3-612.7h1.1v1.1h-1.1l0,0v0.1v0.1l1.3,0.6l-0.7,1l-1.1-0.6c-0.2,0.2-0.4,0.3-0.7,0.4s-0.6,0.2-0.9,0.2
			l-0.6-1c0.4-0.1,0.7-0.2,1-0.3c0.2-0.1,0.3-0.3,0.3-0.5l0,0h-1v-1.1h1v-0.5h1.4V-612.7z M2085.9-607.1c-0.4,0-0.8,0-1.2-0.1
			c-0.3,0-0.6-0.1-0.9-0.2c-0.2-0.1-0.4-0.2-0.5-0.4s-0.2-0.3-0.2-0.6c0-0.2,0.1-0.4,0.2-0.6c0.1-0.2,0.3-0.3,0.5-0.4
			c0.2-0.1,0.5-0.2,0.9-0.2c0.3,0,0.7-0.1,1.2-0.1s0.8,0,1.2,0.1c0.3,0,0.6,0.1,0.9,0.2c0.2,0.1,0.4,0.2,0.5,0.4s0.2,0.3,0.2,0.6
			c0,0.2-0.1,0.4-0.2,0.6c-0.1,0.2-0.3,0.3-0.5,0.4c-0.2,0.1-0.5,0.2-0.9,0.2C2086.8-607.1,2086.4-607.1,2085.9-607.1z M2085.9-608
			c0.4,0,0.8,0,1-0.1c0.2,0,0.4-0.1,0.4-0.2c0-0.1-0.1-0.2-0.4-0.2c-0.2,0-0.6-0.1-1-0.1s-0.8,0-1,0.1c-0.2,0-0.4,0.1-0.4,0.2
			c0,0.1,0.1,0.2,0.4,0.2C2085.2-608.1,2085.5-608,2085.9-608z M2088.6-613v3.3h-1.4v-1.4l-0.7,0.1v-1.3l0.7-0.1v-0.6H2088.6z"/>
		<path class="st7" d="M2092.3-611.6v-0.9l1.3-0.1v-0.3h1.4v4h-1.4v-1.5l-0.8,0.1v0.8h-3.4v-3.3h1.4v2.3h1.5v-0.6l1.3-0.1v-0.3
			L2092.3-611.6z M2091.1-609.2v0.8h4v1.1h-5.3v-2L2091.1-609.2L2091.1-609.2z"/>
		<path class="st7" d="M2095.7-608.5h0.6v-2.1h1.3v2.1h0.4v-2.1h1.3v2.1h2.1v1.1h-5.8L2095.7-608.5L2095.7-608.5z M2099.8-611.7
			h-3.7v-1.1h5.1v3.8h-1.4L2099.8-611.7L2099.8-611.7z"/>
		<path class="st7" d="M2103.3-608.6v-0.4c-0.4-0.1-0.6-0.2-0.9-0.4c-0.2-0.2-0.3-0.5-0.3-0.8c0-0.2,0-0.4,0.1-0.6s0.2-0.3,0.4-0.4
			c0.2-0.1,0.4-0.2,0.6-0.2c0.2,0,0.5-0.1,0.8-0.1s0.6,0,0.8,0.1c0.2,0,0.4,0.1,0.6,0.2c0.2,0.1,0.3,0.2,0.4,0.4
			c0.1,0.2,0.1,0.4,0.1,0.6c0,0.4-0.1,0.6-0.3,0.8c-0.2,0.2-0.5,0.3-0.9,0.4v0.4h1.4v1.1h-4.2v-1.1H2103.3z M2104.7-612.7h1.4v1
			h-4.1v-1h1.4v-0.5h1.4L2104.7-612.7L2104.7-612.7z M2104.1-610c0.2,0,0.3,0,0.5-0.1c0.1,0,0.2-0.1,0.2-0.2c0-0.1-0.1-0.2-0.2-0.2
			c-0.1,0-0.3-0.1-0.5-0.1c-0.4,0-0.6,0.1-0.6,0.3S2103.7-610,2104.1-610z M2107.8-607.4h-1.4v-5.6h1.4V-607.4z"/>
	</g>
</g>
<g>
	<text transform="matrix(1 0 0 1 2227.939 -774.7656)" class="st9" style="font-family:'ArialMT'; font-size:12.1983px;">WELCOME!</text>
</g>
<path class="st7" d="M2312-638.3c0,39.1-31.7,70.9-70.9,70.9c-39.1,0-70.9-31.7-70.9-70.9c0-39.1,31.7-70.9,70.9-70.9
	C2280.2-709.2,2312-677.5,2312-638.3z"/>
<g>
	<path class="st11" d="M2192.2-665.5l-4.7-5.9l1.3-2l7.3,1.8l-1,1.6l-2.1-0.5l-0.7,2.3l0.9,1.1L2192.2-665.5z M2191.2-669.6l0.4-1.2
		l-1.7-0.4L2191.2-669.6z"/>
	<path class="st11" d="M2196.4-675.5c0.4-0.1,0.8-0.2,1.2-0.4c0.4-0.2,0.8-0.5,1.1-0.8c0.2-0.2,0.3-0.4,0.3-0.6s0-0.3-0.1-0.4
		c-0.1-0.1-0.3-0.2-0.5-0.1c-0.2,0-0.5,0.2-0.8,0.4c-0.3,0.2-0.6,0.4-0.9,0.5c-0.3,0.2-0.6,0.3-0.9,0.4c-0.3,0.1-0.6,0.1-0.9,0.1
		c-0.3,0-0.6-0.2-1-0.5c-0.3-0.3-0.5-0.5-0.6-0.8s-0.1-0.6-0.1-0.9c0-0.3,0.1-0.6,0.3-0.9s0.4-0.6,0.6-0.9c0.2-0.2,0.4-0.4,0.5-0.5
		c0.2-0.2,0.4-0.3,0.6-0.4c0.2-0.1,0.4-0.2,0.7-0.3c0.2-0.1,0.5-0.2,0.8-0.2l0.6,1.5c-0.4,0.1-0.7,0.2-1,0.4
		c-0.3,0.2-0.6,0.4-0.9,0.7c-0.1,0.1-0.2,0.2-0.2,0.3c-0.1,0.1-0.1,0.2-0.1,0.3c0,0.1,0,0.2,0,0.2c0,0.1,0,0.1,0.1,0.2
		c0.1,0.1,0.1,0.1,0.2,0.1c0.1,0,0.2,0,0.2,0c0.1,0,0.2-0.1,0.4-0.1c0.1-0.1,0.3-0.2,0.5-0.3c0.3-0.2,0.7-0.4,1-0.6
		c0.3-0.2,0.6-0.3,0.9-0.4c0.3-0.1,0.6-0.1,0.9,0c0.3,0.1,0.6,0.2,0.9,0.5c0.3,0.2,0.5,0.5,0.6,0.8s0.1,0.6,0.1,0.9s-0.1,0.6-0.3,1
		c-0.2,0.3-0.4,0.6-0.7,1c-0.4,0.4-0.8,0.8-1.3,1.1s-1,0.5-1.5,0.6L2196.4-675.5z"/>
	<path class="st11" d="M2201.2-685l3.7,4.2l-1.4,1.2l-3.7-4.2l-1.7,1.5l-1-1.2l4.8-4.2l1,1.2L2201.2-685z"/>
	<path class="st11" d="M2202.9-688.5l3.3-2.3c0.3-0.2,0.5-0.3,0.8-0.4c0.3-0.1,0.5-0.1,0.8-0.1s0.5,0.1,0.8,0.3
		c0.2,0.2,0.5,0.4,0.7,0.7c0.3,0.4,0.4,0.8,0.5,1.1c0,0.3,0,0.7-0.2,1l2.9,1.8l-1.6,1.1l-2.4-1.5l-1.2,1.3l1.3,1.9l-1.5,1.1
		L2202.9-688.5z M2207.7-689.2c-0.1-0.1-0.2-0.2-0.4-0.3c-0.2,0-0.3,0-0.5,0.1l-1.6,1.1l1,1.4l1.2-1.2c0.2-0.2,0.3-0.4,0.4-0.6
		C2207.9-688.8,2207.9-689,2207.7-689.2z"/>
	<path class="st11" d="M2215.5-692.9l0.7,1.4l-3.1,1.6l0.6,1.2l3.4-1.8l0.7,1.4l-5,2.6l-3.3-6.3l4.9-2.6l0.7,1.4l-3.3,1.7l0.6,1.1
		L2215.5-692.9z"/>
	<path class="st11" d="M2217.9-689.2l-0.3-7.6l2.2-0.8l4.8,5.8l-1.8,0.7l-1.4-1.6l-1.9,1.4v1.4L2217.9-689.2z M2219.5-693.1l1.1-0.8
		l-1.1-1.4V-693.1z"/>
	<path class="st11" d="M2229.3-700.2l1.9-0.4l1.6,7l-1.8,0.4l-0.8-3.5l-0.6,3.8l-1.3,0.3l-2.2-3.2l0.8,3.5l-1.8,0.4l-1.6-7l1.9-0.4
		l3.2,4.5L2229.3-700.2z"/>
	<path class="st11" d="M2237-701.2l1.5,2.3l1.3-2.4l2.1-0.1l-2.4,4.3l0.1,3l-1.9,0.1l-0.1-3l-2.7-4L2237-701.2z"/>
	<path class="st11" d="M2241.6-694v-1.7h1.8v1.7H2241.6z"/>
	<path class="st11" d="M2243.7-694.2l3.2-6.9l2.3,0.3l1.6,7.4l-1.9-0.2l-0.5-2.1l-2.4,0.4l-0.6,1.3L2243.7-694.2z M2247-696.9
		l1.3-0.2l-0.4-1.7L2247-696.9z"/>
	<path class="st11" d="M2251.1-693.1l0.3-1.7l1.8,0.4l-0.3,1.7L2251.1-693.1z"/>
	<path class="st11" d="M2256.8-695.7c0.2-0.5,0.4-1,0.8-1.3c0.3-0.4,0.7-0.7,1.2-0.9c0.4-0.2,0.9-0.3,1.4-0.3s1,0.1,1.6,0.2
		c0.7,0.2,1.3,0.6,1.7,1c0.4,0.5,0.7,1,0.9,1.7l-1.5,0.6c-0.1-0.4-0.2-0.8-0.5-1.2c-0.2-0.3-0.6-0.6-1.1-0.7
		c-0.3-0.1-0.6-0.1-0.9-0.1c-0.3,0-0.5,0.1-0.8,0.2s-0.4,0.3-0.6,0.5c-0.2,0.2-0.3,0.5-0.4,0.8c-0.1,0.3-0.1,0.6-0.1,0.9
		s0.1,0.6,0.2,0.8s0.3,0.5,0.5,0.7s0.5,0.3,0.8,0.4c0.2,0.1,0.5,0.1,0.7,0.1s0.4,0,0.6-0.1c0.2-0.1,0.4-0.1,0.6-0.2
		c0.2-0.1,0.4-0.2,0.5-0.4l0.8,1.4c-0.6,0.4-1.2,0.7-1.8,0.8c-0.6,0.1-1.3,0.1-2-0.2c-0.5-0.2-1-0.4-1.4-0.8
		c-0.4-0.3-0.7-0.7-0.9-1.1c-0.2-0.4-0.4-0.9-0.4-1.4C2256.6-694.7,2256.6-695.2,2256.8-695.7z"/>
	<path class="st11" d="M2267-687.7l1.5-3l-2.7-0.5l-1.2,2.3l-1.7-0.8l3.2-6.4l1.7,0.8l-1.3,2.7l2.7,0.5l1-2l1.7,0.8l-3.2,6.4
		L2267-687.7z"/>
	<path class="st11" d="M2271.9-684.6c-0.4-0.2-0.7-0.5-0.9-0.9c-0.2-0.3-0.4-0.7-0.5-1.1c-0.1-0.4-0.1-0.8-0.1-1.1
		c0.1-0.4,0.2-0.8,0.5-1.1l2.5-3.7l1.6,1l-2.4,3.6c-0.1,0.2-0.2,0.3-0.2,0.5c0,0.2-0.1,0.3,0,0.5c0,0.2,0.1,0.3,0.2,0.5
		c0.1,0.2,0.2,0.3,0.4,0.4s0.4,0.2,0.5,0.2c0.2,0,0.4,0,0.5,0c0.2,0,0.3-0.1,0.5-0.2c0.1-0.1,0.3-0.2,0.4-0.4l2.4-3.6l1.6,1
		l-2.5,3.7c-0.2,0.4-0.5,0.7-0.9,0.9c-0.3,0.2-0.7,0.3-1.1,0.4c-0.4,0-0.8,0-1.2-0.1C2272.7-684.2,2272.3-684.4,2271.9-684.6z"/>
	<path class="st11" d="M2280-687.9l3,2.6c0.2,0.2,0.4,0.4,0.6,0.7c0.2,0.2,0.2,0.5,0.3,0.8c0,0.3,0,0.5-0.1,0.8
		c-0.1,0.3-0.3,0.6-0.5,0.8c-0.3,0.4-0.6,0.6-0.9,0.7c-0.3,0.1-0.7,0.1-1,0.1l-1,3.3l-1.5-1.3l0.9-2.7l-1.5-0.8l-1.5,1.7l-1.4-1.2
		L2280-687.9z M2281.9-683.4c0.1-0.1,0.2-0.3,0.2-0.4c0-0.2-0.1-0.3-0.2-0.4l-1.4-1.2l-1.1,1.3l1.5,0.9c0.3,0.2,0.5,0.2,0.7,0.2
		C2281.6-683.1,2281.8-683.2,2281.9-683.4z"/>
	<path class="st11" d="M2283.1-680.4c0.4-0.4,0.9-0.6,1.3-0.8c0.5-0.2,1-0.2,1.4-0.2c0.5,0,1,0.2,1.4,0.4c0.5,0.2,0.9,0.6,1.2,1
		c0.5,0.6,0.8,1.1,0.9,1.7c0.1,0.6,0.1,1.3,0,2l-1.6-0.2c0.1-0.4,0.2-0.8,0.1-1.3c-0.1-0.4-0.2-0.8-0.6-1.2
		c-0.2-0.2-0.4-0.4-0.7-0.5s-0.5-0.2-0.8-0.2s-0.5,0-0.8,0.2c-0.3,0.1-0.5,0.3-0.8,0.5c-0.2,0.2-0.4,0.4-0.6,0.7
		c-0.1,0.3-0.2,0.5-0.2,0.8s0,0.5,0.1,0.8s0.2,0.5,0.4,0.8c0.2,0.2,0.3,0.3,0.5,0.5c0.2,0.1,0.4,0.2,0.6,0.2
		c0.2,0.1,0.4,0.1,0.6,0.1c0.2,0,0.4,0,0.7-0.1v1.6c-0.7,0.1-1.3,0-1.9-0.2c-0.6-0.2-1.1-0.6-1.7-1.2c-0.4-0.4-0.6-0.9-0.8-1.3
		c-0.2-0.5-0.3-1-0.2-1.4c0-0.5,0.1-1,0.3-1.4C2282.4-679.6,2282.7-680,2283.1-680.4z"/>
	<path class="st11" d="M2288-668.5l2.8-1.9l-2.1-1.8l-2.2,1.5l-1.1-1.6l5.9-4l1.1,1.5l-2.5,1.7l2.1,1.8l1.9-1.3l1.1,1.5l-5.9,4
		L2288-668.5z"/>
</g>
<g>
	<g>
		<path class="st9" d="M2209.9-609.2l1.1,5.1l1.1-5.1h2.2l1,5.2l1.2-5.2h2.3l-2.2,8.8h-2.3l-1.1-5.6l-1.1,5.6h-2.3l-2.2-8.8H2209.9z
			"/>
		<path class="st9" d="M2226.1-605.9v1.9h-4.3v1.7h4.7v1.9h-7v-8.8h6.9v1.9h-4.6v1.5h4.3V-605.9z"/>
		<path class="st9" d="M2227.3-609.2h2.3v6.9h4.2v1.9h-6.5V-609.2z"/>
		<path class="st9" d="M2233.8-604.8c0-0.7,0.1-1.3,0.4-1.9c0.2-0.6,0.6-1.1,1-1.5c0.4-0.4,0.9-0.7,1.5-1c0.6-0.2,1.2-0.3,1.9-0.3
			c0.9,0,1.7,0.2,2.4,0.6c0.7,0.4,1.3,0.9,1.8,1.7l-1.5,1.3c-0.3-0.5-0.6-0.9-1-1.2c-0.4-0.3-0.9-0.4-1.6-0.4
			c-0.4,0-0.7,0.1-1.1,0.2c-0.3,0.1-0.6,0.3-0.8,0.6c-0.2,0.2-0.4,0.5-0.5,0.9c-0.1,0.4-0.2,0.7-0.2,1.1s0.1,0.7,0.2,1.1
			c0.1,0.3,0.3,0.6,0.5,0.9c0.2,0.2,0.5,0.4,0.8,0.6c0.3,0.1,0.7,0.2,1.1,0.2c0.3,0,0.6,0,0.9-0.1c0.3-0.1,0.5-0.2,0.7-0.3
			c0.2-0.1,0.4-0.3,0.6-0.5c0.2-0.2,0.3-0.4,0.5-0.7l1.5,1.3c-0.5,0.7-1.1,1.2-1.8,1.6c-0.7,0.4-1.5,0.6-2.4,0.6
			c-0.7,0-1.3-0.1-1.9-0.3c-0.6-0.2-1.1-0.5-1.5-1c-0.4-0.4-0.8-0.9-1-1.5C2233.9-603.5,2233.8-604.1,2233.8-604.8z"/>
		<path class="st9" d="M2242.8-604.8c0-0.7,0.1-1.3,0.4-1.9c0.2-0.6,0.6-1.1,1-1.5c0.4-0.4,0.9-0.7,1.5-1c0.6-0.2,1.2-0.3,1.9-0.3
			s1.3,0.1,1.9,0.3c0.6,0.2,1.1,0.5,1.5,1c0.4,0.4,0.8,0.9,1,1.5c0.2,0.6,0.4,1.2,0.4,1.9s-0.1,1.3-0.4,1.9c-0.2,0.6-0.6,1.1-1,1.5
			c-0.4,0.4-0.9,0.7-1.5,1c-0.6,0.2-1.2,0.3-1.9,0.3s-1.3-0.1-1.9-0.3c-0.6-0.2-1.1-0.5-1.5-1c-0.4-0.4-0.8-0.9-1-1.5
			C2242.9-603.5,2242.8-604.2,2242.8-604.8z M2245.1-604.8c0,0.4,0.1,0.8,0.2,1.1c0.1,0.3,0.3,0.6,0.5,0.9c0.2,0.2,0.5,0.4,0.8,0.6
			c0.3,0.1,0.7,0.2,1,0.2c0.4,0,0.7-0.1,1-0.2c0.3-0.1,0.6-0.3,0.8-0.6c0.2-0.2,0.4-0.5,0.5-0.9c0.1-0.3,0.2-0.7,0.2-1.1
			c0-0.4-0.1-0.8-0.2-1.1c-0.1-0.3-0.3-0.6-0.5-0.9c-0.2-0.2-0.5-0.4-0.8-0.6c-0.3-0.1-0.7-0.2-1-0.2c-0.4,0-0.7,0.1-1,0.2
			c-0.3,0.1-0.6,0.3-0.8,0.6c-0.2,0.2-0.4,0.5-0.5,0.9C2245.2-605.6,2245.1-605.2,2245.1-604.8z"/>
		<path class="st9" d="M2260.9-609.2h2.4v8.8h-2.3v-4.4l-1.8,4.4h-1.6l-1.8-4.4v4.4h-2.3v-8.8h2.4l2.6,6.3L2260.9-609.2z"/>
		<path class="st9" d="M2271-605.9v1.9h-4.3v1.7h4.7v1.9h-7v-8.8h6.9v1.9h-4.6v1.5h4.3V-605.9z"/>
		<path class="st9" d="M2272.2-603v-6.7h2.3v6.7H2272.2z M2272.2-600.2v-2.2h2.3v2.2H2272.2z"/>
	</g>
</g>
<g>
	<path class="st16" d="M2238.2-642.7c0-8.3,6.6-18.2,14.8-18.2s14.8,9.9,14.8,18.2s-6.6,12.2-14.8,12.2S2238.2-634.4,2238.2-642.7z"
		/>
	<g>
		<line class="st17" x1="2253" y1="-645.9" x2="2253" y2="-623.4"/>
		<line class="st17" x1="2247.5" y1="-644.3" x2="2253" y2="-637.3"/>
		<line class="st17" x1="2253" y1="-633.6" x2="2257.7" y2="-639.7"/>
	</g>
	<g>
		<line class="st17" x1="2229.1" y1="-651.3" x2="2229.1" y2="-623.4"/>
		<line class="st17" x1="2222.2" y1="-649.3" x2="2229.1" y2="-640.7"/>
		<line class="st17" x1="2229.1" y1="-636" x2="2234.9" y2="-643.6"/>
	</g>
	<path class="st16" d="M2243.9-650.6c0,10.2-4.2,18.4-15,18.4c-9.7,0-15-8.2-15-18.4c0-10.2,6.7-25.1,15-25.1
		S2243.9-660.7,2243.9-650.6z"/>
	<line class="st17" x1="2211.1" y1="-622.1" x2="2270.7" y2="-622.1"/>
	<line class="st17" x1="2216.8" y1="-616.4" x2="2264.9" y2="-616.4"/>
	<path class="st11" d="M2271.1-655.5c0,3.4-2.8,6.2-6.2,6.2s-6.2-2.8-6.2-6.2s2.8-6.2,6.2-6.2C2268.3-661.8,2271.1-659,2271.1-655.5
		z"/>
</g>
<g>
	<g>
		<path class="st18" d="M2883.1-1892.1c0-7.4,2.8-14.2,7.4-19.3c-10.2-7.1-21.7-11.5-33.9-11.5c-15.4,0-29.6,6.8-41.5,17.4
			c3.2,12.7,5,25.3,5,36.5c0,33.5-9.2,58.7-26.1,74.1c12.7,16.1,34.6,25.5,62.6,25.5c45.5,0,74.9-24.7,74.9-63
			c0-11-2.4-22.7-6.8-33.8c-3.8,1.9-8.1,2.9-12.7,2.9C2896.1-1863.2,2883.1-1876.1,2883.1-1892.1z"/>
		<path class="st18" d="M2815.1-1905.5c-10.7-42.4-37.5-86.5-70.8-86.5c-43.2,0-75.8,74.7-75.8,123.1c0,54.8,30.5,91.7,75.8,91.7
			c20.5,0,37.2-6.1,49.7-17.5c-8-10.1-12.3-22.8-12.3-37.5C2781.7-1858.1,2794.9-1887.4,2815.1-1905.5z"/>
		<path class="st19" d="M2820.1-1868.9c0-11.2-1.8-23.8-5-36.5c-20.2,18.1-33.5,47.3-33.5,73.2c0,14.7,4.4,27.4,12.3,37.5
			C2810.9-1810.2,2820.1-1835.4,2820.1-1868.9z"/>
		<path class="st20" d="M2941.1-1892.1c0-16-13-29-29-29c-8.6,0-16.2,3.7-21.5,9.7c15.1,10.5,27.2,27.3,34.2,45.3
			C2934.4-1870.8,2941.1-1880.7,2941.1-1892.1z"/>
		<path class="st11" d="M2890.5-1911.4c-4.6,5.1-7.4,11.9-7.4,19.3c0,16,13,29,28.9,29c4.5,0,8.8-1.1,12.7-2.9
			C2917.7-1884.2,2905.6-1900.9,2890.5-1911.4z"/>
	</g>
	<g>
		<line class="st21" x1="2856.6" y1="-1847.1" x2="2856.6" y2="-1742.4"/>
		<line class="st21" x1="2830.8" y1="-1839.6" x2="2856.6" y2="-1807.3"/>
		<line class="st21" x1="2856.6" y1="-1789.8" x2="2878.6" y2="-1818.3"/>
	</g>
	<g>
		<line class="st21" x1="2745.2" y1="-1872.6" x2="2745.2" y2="-1742.4"/>
		<line class="st21" x1="2713.3" y1="-1863.2" x2="2745.2" y2="-1823.1"/>
		<line class="st21" x1="2745.2" y1="-1801.3" x2="2772.5" y2="-1836.7"/>
	</g>
	<line class="st21" x1="2661.3" y1="-1736.5" x2="2939" y2="-1736.5"/>
	<line class="st21" x1="2688.1" y1="-1709.7" x2="2912.1" y2="-1709.7"/>
</g>
<path class="st22" d="M2295.1-667c4.5,8.5,7.1,18.3,7.1,28.6c0,33.7-27.3,61.1-61.1,61.1c-33.7,0-61.1-27.4-61.1-61.1
	c0-10.4,2.6-20.1,7.1-28.6"/>
<g>
	<g>
		<path class="st11" d="M1963.5-417.8c0,2.7-2.2,5-5,5c-2.7,0-5-2.2-5-5c0-2.7,2.2-5,5-5C1961.2-422.8,1963.5-420.6,1963.5-417.8z"
			/>
		<g>
			<path class="st23" d="M1937.2-407.6c0-6.6,5.3-14.5,11.8-14.5s11.8,7.9,11.8,14.5s-5.3,9.8-11.8,9.8S1937.2-401,1937.2-407.6z"/>
			<g>
				<line class="st23" x1="1949" y1="-410.1" x2="1949" y2="-392.2"/>
				<line class="st23" x1="1944.6" y1="-408.8" x2="1949" y2="-403.3"/>
				<line class="st23" x1="1949" y1="-400.3" x2="1952.8" y2="-405.2"/>
			</g>
			<g>
				<line class="st23" x1="1929.9" y1="-414.5" x2="1929.9" y2="-392.2"/>
				<line class="st23" x1="1924.5" y1="-412.9" x2="1929.9" y2="-406"/>
				<line class="st23" x1="1929.9" y1="-402.3" x2="1934.6" y2="-408.4"/>
			</g>
			<path class="st23" d="M1941.7-413.9c0,8.1-3.4,14.7-11.9,14.7c-7.8,0-11.9-6.6-11.9-14.7s5.3-20,11.9-20S1941.7-422,1941.7-413.9
				z"/>
			<line class="st23" x1="1915.6" y1="-391.2" x2="1963.1" y2="-391.2"/>
			<line class="st23" x1="1920.2" y1="-386.6" x2="1958.5" y2="-386.6"/>
		</g>
	</g>
	<g>
		<path class="st9" d="M1870.6-512.5l3.3-9.7h3.2l3.3,9.7h-2.5l-0.9-2.7l-3.1,0.9l-0.6,1.9L1870.6-512.5L1870.6-512.5z
			 M1874.6-516.6l1.7-0.5l-0.8-2.3L1874.6-516.6z"/>
		<path class="st9" d="M1884.7-515.6c0.4,0.4,0.9,0.7,1.5,0.9s1.2,0.3,1.8,0.3c0.4,0,0.7-0.1,0.9-0.2c0.2-0.1,0.3-0.3,0.3-0.5
			c0-0.3-0.1-0.5-0.3-0.6c-0.2-0.2-0.6-0.3-1.1-0.5c-0.4-0.1-0.9-0.3-1.3-0.4c-0.5-0.1-0.9-0.3-1.2-0.6c-0.4-0.2-0.7-0.5-0.9-0.9
			c-0.2-0.4-0.4-0.8-0.4-1.4c0-0.5,0.1-1,0.3-1.3c0.2-0.4,0.5-0.7,0.8-0.9s0.7-0.4,1.2-0.5c0.5-0.1,0.9-0.2,1.5-0.2
			c0.4,0,0.7,0,1,0.1c0.3,0,0.6,0.1,1,0.2c0.3,0.1,0.6,0.2,0.9,0.4s0.6,0.3,0.9,0.6l-1,2c-0.4-0.3-0.8-0.5-1.3-0.7s-1-0.3-1.5-0.3
			c-0.2,0-0.3,0-0.5,0s-0.3,0.1-0.4,0.1s-0.2,0.1-0.3,0.2c-0.1,0.1-0.1,0.2-0.1,0.3s0,0.2,0.1,0.3c0,0.1,0.1,0.2,0.2,0.3
			c0.1,0.1,0.3,0.2,0.5,0.2c0.2,0.1,0.5,0.2,0.8,0.3c0.5,0.1,1,0.3,1.5,0.5c0.5,0.2,0.9,0.4,1.2,0.6c0.3,0.2,0.6,0.5,0.8,0.9
			c0.2,0.4,0.3,0.8,0.3,1.4c0,0.5-0.1,0.9-0.3,1.3c-0.2,0.4-0.5,0.7-0.8,0.9s-0.8,0.4-1.2,0.5c-0.5,0.1-1,0.2-1.6,0.2
			c-0.8,0-1.6-0.1-2.3-0.4c-0.7-0.2-1.4-0.6-2-1L1884.7-515.6z"/>
		<path class="st9" d="M1897.9-520.1v7.6h-2.5v-7.6h-3.1v-2.1h8.7v2.1H1897.9z"/>
		<path class="st9" d="M1901.7-522.2h5.5c0.4,0,0.8,0.1,1.2,0.2c0.4,0.1,0.7,0.3,1,0.5s0.5,0.5,0.6,0.9c0.2,0.4,0.2,0.8,0.2,1.3
			c0,0.7-0.1,1.2-0.3,1.6c-0.2,0.4-0.5,0.7-1,1l1.9,4.3h-2.6l-1.5-3.6l-2.3,0.5v3.1h-2.5v-9.8H1901.7z M1907.6-519.2
			c0-0.2-0.1-0.4-0.2-0.6c-0.2-0.2-0.4-0.2-0.6-0.2h-2.6v2.4l2.3-0.4c0.4-0.1,0.7-0.2,0.9-0.4C1907.6-518.7,1907.6-519,1907.6-519.2
			z"/>
		<path class="st9" d="M1918.7-518.5v2.1h-4.8v1.8h5.1v2.1h-7.7v-9.7h7.6v2.1h-5v1.6H1918.7z"/>
		<path class="st9" d="M1919.4-512.5l3.3-9.7h3.2l3.3,9.7h-2.5l-0.9-2.7l-3.1,0.9l-0.6,1.9L1919.4-512.5L1919.4-512.5z
			 M1923.3-516.6l1.7-0.5l-0.8-2.3L1923.3-516.6z"/>
		<path class="st9" d="M1938-522.2h2.6v9.7h-2.5v-4.9l-2,4.9h-1.8l-2-4.9v4.9h-2.5v-9.7h2.6l2.8,6.9L1938-522.2z"/>
	</g>
	<g>
		<path class="st9" d="M1871.9-508.3l0.9,1.6l0.9-1.6h1.4l-1.7,2.8v2h-1.2v-2l-1.7-2.7L1871.9-508.3L1871.9-508.3z"/>
		<path class="st9" d="M1875.2-505.9c0-0.4,0.1-0.7,0.2-1c0.1-0.3,0.3-0.6,0.5-0.8c0.2-0.2,0.5-0.4,0.8-0.5c0.3-0.1,0.7-0.2,1-0.2
			c0.4,0,0.7,0.1,1,0.2c0.3,0.1,0.6,0.3,0.8,0.5c0.2,0.2,0.4,0.5,0.5,0.8c0.1,0.3,0.2,0.6,0.2,1s-0.1,0.7-0.2,1
			c-0.1,0.3-0.3,0.6-0.5,0.8c-0.2,0.2-0.5,0.4-0.8,0.5s-0.7,0.2-1,0.2c-0.4,0-0.7-0.1-1-0.2s-0.6-0.3-0.8-0.5
			c-0.2-0.2-0.4-0.5-0.5-0.8C1875.3-505.2,1875.2-505.6,1875.2-505.9z M1876.4-505.9c0,0.2,0,0.4,0.1,0.6c0.1,0.2,0.2,0.3,0.3,0.5
			c0.1,0.1,0.3,0.2,0.4,0.3c0.2,0.1,0.4,0.1,0.6,0.1s0.4,0,0.6-0.1s0.3-0.2,0.4-0.3c0.1-0.1,0.2-0.3,0.3-0.5
			c0.1-0.2,0.1-0.4,0.1-0.6c0-0.2,0-0.4-0.1-0.6s-0.2-0.3-0.3-0.5c-0.1-0.1-0.3-0.2-0.4-0.3c-0.2-0.1-0.4-0.1-0.6-0.1
			s-0.4,0-0.6,0.1c-0.2,0.1-0.3,0.2-0.4,0.3s-0.2,0.3-0.3,0.5C1876.5-506.3,1876.4-506.1,1876.4-505.9z"/>
		<path class="st9" d="M1883.3-503.4c-0.3,0-0.6,0-0.8-0.1c-0.3-0.1-0.5-0.2-0.7-0.4c-0.2-0.2-0.3-0.4-0.5-0.6
			c-0.1-0.2-0.2-0.5-0.2-0.8v-3h1.2v2.9c0,0.1,0,0.2,0.1,0.4c0,0.1,0.1,0.2,0.2,0.3c0.1,0.1,0.2,0.2,0.3,0.2c0.1,0,0.2,0.1,0.4,0.1
			c0.1,0,0.3,0,0.4-0.1s0.2-0.1,0.3-0.2c0.1-0.1,0.1-0.2,0.2-0.3c0-0.1,0.1-0.2,0.1-0.4v-2.9h1.2v2.9c0,0.3-0.1,0.6-0.2,0.8
			c-0.1,0.2-0.3,0.4-0.5,0.6s-0.4,0.3-0.7,0.4C1883.8-503.5,1883.5-503.4,1883.3-503.4z"/>
		<path class="st9" d="M1886.2-508.3h1.2l1.8,2.9v-2.9h1.2v4.8h-1.2l-1.8-2.9v2.9h-1.2V-508.3z"/>
		<path class="st9" d="M1893.6-504.4c0.3,0,0.6-0.1,0.8-0.2c0.2-0.1,0.3-0.4,0.4-0.6h-1.3v-1h2.5v0.7c0,0.4-0.1,0.7-0.2,1
			s-0.3,0.5-0.5,0.7c-0.2,0.2-0.5,0.3-0.8,0.4s-0.6,0.1-0.9,0.1c-0.4,0-0.7-0.1-1-0.2s-0.6-0.3-0.8-0.5c-0.2-0.2-0.4-0.5-0.5-0.8
			c-0.1-0.3-0.2-0.6-0.2-1c0-0.4,0.1-0.7,0.2-1c0.1-0.3,0.3-0.6,0.5-0.8c0.2-0.2,0.5-0.4,0.8-0.5s0.7-0.2,1-0.2
			c0.5,0,0.9,0.1,1.3,0.3s0.7,0.5,1,0.9l-0.8,0.7c-0.1-0.3-0.3-0.5-0.6-0.6c-0.2-0.2-0.5-0.2-0.9-0.2c-0.2,0-0.3,0-0.5,0.1
			s-0.3,0.2-0.4,0.3c-0.1,0.1-0.2,0.3-0.3,0.5c-0.1,0.2-0.1,0.4-0.1,0.6c0,0.2,0,0.4,0.1,0.6c0.1,0.2,0.2,0.3,0.3,0.5
			c0.1,0.1,0.3,0.2,0.4,0.3C1893.2-504.5,1893.4-504.4,1893.6-504.4z"/>
		<path class="st9" d="M1898.1-503.5l1.6-4.8h1.6l1.6,4.8h-1.2l-0.5-1.3l-1.5,0.4l-0.3,0.9H1898.1z M1900-505.6l0.8-0.2l-0.4-1.1
			L1900-505.6z"/>
		<path class="st9" d="M1903.4-508.3h2.3c0.3,0,0.6,0.1,0.9,0.2s0.5,0.3,0.7,0.5c0.2,0.2,0.3,0.5,0.4,0.7c0.1,0.3,0.1,0.6,0.1,0.9
			s-0.1,0.7-0.2,1s-0.2,0.5-0.4,0.8c-0.2,0.2-0.4,0.4-0.7,0.5c-0.3,0.1-0.6,0.2-1,0.2h-2v-4.8H1903.4z M1904.6-504.6h0.7
			c0.2,0,0.4,0,0.5-0.1c0.1-0.1,0.3-0.2,0.4-0.3s0.2-0.3,0.2-0.4c0-0.2,0.1-0.3,0.1-0.5c0-0.2,0-0.4-0.1-0.5
			c-0.1-0.2-0.1-0.3-0.2-0.4c-0.1-0.1-0.2-0.2-0.4-0.3c-0.2-0.1-0.3-0.1-0.5-0.1h-0.6L1904.6-504.6L1904.6-504.6z"/>
		<path class="st9" d="M1910.6-503.4c-0.3,0-0.6,0-0.8-0.1c-0.3-0.1-0.5-0.2-0.7-0.4c-0.2-0.2-0.3-0.4-0.5-0.6
			c-0.1-0.2-0.2-0.5-0.2-0.8v-3h1.2v2.9c0,0.1,0,0.2,0.1,0.4c0,0.1,0.1,0.2,0.2,0.3c0.1,0.1,0.2,0.2,0.3,0.2c0.1,0,0.2,0.1,0.4,0.1
			c0.1,0,0.3,0,0.4-0.1s0.2-0.1,0.3-0.2c0.1-0.1,0.1-0.2,0.2-0.3c0-0.1,0.1-0.2,0.1-0.4v-2.9h1.2v2.9c0,0.3-0.1,0.6-0.2,0.8
			c-0.1,0.2-0.3,0.4-0.5,0.6s-0.4,0.3-0.7,0.4C1911.1-503.5,1910.9-503.4,1910.6-503.4z"/>
		<path class="st9" d="M1913.6-508.3h1.2v3.7h2.3v1h-3.5V-508.3z"/>
		<path class="st9" d="M1919.9-507.3v3.7h-1.2v-3.7h-1.5v-1h4.3v1H1919.9z"/>
		<path class="st9" d="M1922.4-505.1c0.2,0.2,0.5,0.3,0.7,0.4c0.3,0.1,0.6,0.2,0.9,0.2c0.2,0,0.3,0,0.4-0.1s0.1-0.1,0.1-0.2
			c0-0.1-0.1-0.2-0.2-0.3s-0.3-0.2-0.5-0.2c-0.2-0.1-0.4-0.1-0.7-0.2c-0.2-0.1-0.4-0.2-0.6-0.3c-0.2-0.1-0.3-0.3-0.4-0.4
			c-0.1-0.2-0.2-0.4-0.2-0.7c0-0.2,0-0.5,0.1-0.6c0.1-0.2,0.2-0.3,0.4-0.4c0.2-0.1,0.4-0.2,0.6-0.3c0.2-0.1,0.5-0.1,0.7-0.1
			s0.3,0,0.5,0s0.3,0.1,0.5,0.1s0.3,0.1,0.5,0.2s0.3,0.2,0.5,0.3l-0.5,1c-0.2-0.1-0.4-0.3-0.6-0.3c-0.2-0.1-0.5-0.1-0.7-0.1
			c-0.1,0-0.2,0-0.2,0c-0.1,0-0.1,0-0.2,0.1c-0.1,0-0.1,0.1-0.1,0.1s0,0.1,0,0.2c0,0.1,0,0.1,0,0.2l0.1,0.1c0.1,0,0.1,0.1,0.2,0.1
			s0.2,0.1,0.4,0.1c0.3,0.1,0.5,0.1,0.7,0.2s0.4,0.2,0.6,0.3c0.2,0.1,0.3,0.3,0.4,0.4c0.1,0.2,0.1,0.4,0.1,0.7c0,0.2,0,0.5-0.1,0.6
			c-0.1,0.2-0.2,0.3-0.4,0.5c-0.2,0.1-0.4,0.2-0.6,0.3c-0.2,0.1-0.5,0.1-0.8,0.1c-0.4,0-0.8-0.1-1.1-0.2c-0.3-0.1-0.7-0.3-1-0.5
			L1922.4-505.1z"/>
		<path class="st9" d="M1870.7-497.9c0-0.4,0.1-0.7,0.2-1c0.1-0.3,0.3-0.6,0.5-0.8c0.2-0.2,0.5-0.4,0.8-0.5c0.3-0.1,0.7-0.2,1-0.2
			c0.5,0,0.9,0.1,1.3,0.3c0.4,0.2,0.7,0.5,1,0.9l-0.8,0.7c-0.1-0.3-0.3-0.5-0.6-0.6c-0.2-0.2-0.5-0.2-0.8-0.2c-0.2,0-0.4,0-0.6,0.1
			c-0.2,0.1-0.3,0.2-0.4,0.3s-0.2,0.3-0.3,0.5c-0.1,0.2-0.1,0.4-0.1,0.6c0,0.2,0,0.4,0.1,0.6c0.1,0.2,0.2,0.3,0.3,0.5
			c0.1,0.1,0.3,0.2,0.4,0.3c0.2,0.1,0.4,0.1,0.6,0.1s0.3,0,0.5-0.1c0.1,0,0.3-0.1,0.4-0.2s0.2-0.2,0.3-0.3c0.1-0.1,0.2-0.2,0.3-0.4
			l0.8,0.7c-0.3,0.4-0.6,0.7-0.9,0.9c-0.4,0.2-0.8,0.3-1.3,0.3c-0.4,0-0.7-0.1-1-0.2s-0.6-0.3-0.8-0.5c-0.2-0.2-0.4-0.5-0.5-0.8
			C1870.7-497.2,1870.7-497.5,1870.7-497.9z"/>
		<path class="st9" d="M1879.1-495.5v-2.2l-1.8,0.5v1.7h-1.2v-4.8h1.2v2l1.8-0.5v-1.5h1.2v4.8H1879.1z"/>
		<path class="st9" d="M1883.3-495.4c-0.3,0-0.6,0-0.8-0.1c-0.3-0.1-0.5-0.2-0.7-0.4c-0.2-0.2-0.3-0.4-0.5-0.6
			c-0.1-0.2-0.2-0.5-0.2-0.8v-3h1.2v2.9c0,0.1,0,0.2,0.1,0.4c0,0.1,0.1,0.2,0.2,0.3c0.1,0.1,0.2,0.2,0.3,0.2c0.1,0,0.2,0.1,0.4,0.1
			c0.1,0,0.3,0,0.4-0.1s0.2-0.1,0.3-0.2c0.1-0.1,0.1-0.2,0.2-0.3c0-0.1,0.1-0.2,0.1-0.4v-2.9h1.2v2.9c0,0.3-0.1,0.6-0.2,0.8
			c-0.1,0.2-0.3,0.4-0.5,0.6s-0.4,0.3-0.7,0.4C1883.9-495.5,1883.6-495.4,1883.3-495.4z"/>
		<path class="st9" d="M1886.3-500.3h2.7c0.2,0,0.4,0,0.6,0.1c0.2,0.1,0.3,0.1,0.5,0.3c0.1,0.1,0.2,0.3,0.3,0.4
			c0.1,0.2,0.1,0.4,0.1,0.6c0,0.3-0.1,0.6-0.2,0.8c-0.1,0.2-0.3,0.4-0.5,0.5l0.9,2.1h-1.3l-0.7-1.7l-1.1,0.2v1.5h-1.2v-4.8H1886.3z
			 M1889.2-498.8c0-0.1,0-0.2-0.1-0.3s-0.2-0.1-0.3-0.1h-1.3v1.2l1.1-0.2c0.2,0,0.3-0.1,0.4-0.2
			C1889.1-498.6,1889.2-498.7,1889.2-498.8z"/>
		<path class="st9" d="M1891.1-497.9c0-0.4,0.1-0.7,0.2-1c0.1-0.3,0.3-0.6,0.5-0.8c0.2-0.2,0.5-0.4,0.8-0.5c0.3-0.1,0.7-0.2,1-0.2
			c0.5,0,0.9,0.1,1.3,0.3c0.4,0.2,0.7,0.5,1,0.9l-0.8,0.7c-0.1-0.3-0.3-0.5-0.6-0.6c-0.2-0.2-0.5-0.2-0.8-0.2c-0.2,0-0.4,0-0.6,0.1
			c-0.2,0.1-0.3,0.2-0.4,0.3s-0.2,0.3-0.3,0.5c-0.1,0.2-0.1,0.4-0.1,0.6c0,0.2,0,0.4,0.1,0.6c0.1,0.2,0.2,0.3,0.3,0.5
			c0.1,0.1,0.3,0.2,0.4,0.3c0.2,0.1,0.4,0.1,0.6,0.1s0.3,0,0.5-0.1c0.1,0,0.3-0.1,0.4-0.2s0.2-0.2,0.3-0.3c0.1-0.1,0.2-0.2,0.3-0.4
			l0.8,0.7c-0.3,0.4-0.6,0.7-0.9,0.9c-0.4,0.2-0.8,0.3-1.3,0.3c-0.4,0-0.7-0.1-1-0.2s-0.6-0.3-0.8-0.5c-0.2-0.2-0.4-0.5-0.5-0.8
			C1891.1-497.2,1891.1-497.5,1891.1-497.9z"/>
		<path class="st9" d="M1899.5-495.5v-2.2l-1.8,0.5v1.7h-1.2v-4.8h1.2v2l1.8-0.5v-1.5h1.2v4.8H1899.5z"/>
	</g>
	<rect x="1859.2" y="-537.6" class="st24" width="118" height="167"/>
</g>
</svg>
