<?xml version="1.0" encoding="utf-8"?>
<!-- Generator: Adobe Illustrator 27.4.1, SVG Export Plug-In . SVG Version: 6.00 Build 0)  -->
<svg version="1.1" id="Layer_1" xmlns="http://www.w3.org/2000/svg" xmlns:xlink="http://www.w3.org/1999/xlink" x="0px" y="0px"
	 viewBox="0 0 500 374.9" style="enable-background:new 0 0 500 374.9;" xml:space="preserve">
<style type="text/css">
	.st0{fill:#FFE900;}
	.st1{fill:#3E2B2E;}
</style>
<g>
	<polygon class="st0" points="211.3,230.5 211.3,230.5 211.3,230.5 	"/>
	<path class="st0" d="M210.1,233.7C210.1,233.7,210.1,233.7,210.1,233.7L210.1,233.7C210,233.7,210,233.7,210.1,233.7z"/>
</g>
<g>
	<path class="st0" d="M242.4,18.4h6.5C165,18.4,97,86.4,97,170.3v3.8c0,57.7,32.2,108,79.6,133.7c-1.1,5.5-4.7,14.2-10.3,21.6
		c-6.4,8.6-14.6,18.7-18.3,22.7c-3.7,4-0.3,5.8,10.8,2.9c11.1-2.9,34.5-11.9,52.1-22c7.9-4.5,12.4-7.1,15.7-8.8
		c7.3,1.1,14.7,1.8,22.3,1.8h-6.5c83.9,0,151.9-68,151.9-152v-3.8C394.3,86.4,326.3,18.4,242.4,18.4z"/>
	<path class="st1" d="M251.4,18.8h-2.6C165,18.8,97.1,86.7,97.1,170.4v3.8c0,57.6,32.1,107.7,79.4,133.4
		c-1.1,5.5-4.7,14.1-10.3,21.6c-6.4,8.6-14.5,18.7-18.2,22.6c-3.7,4-0.3,5.8,10.8,2.9c11.1-2.9,34.5-11.9,52-22
		c7.8-4.5,12.4-7.1,15.7-8.8c7.3,1.1,14.7,1.8,22.3,1.8h2.6c83.7,0,151.6-67.9,151.6-151.6v-3.8C403,86.7,335.1,18.8,251.4,18.8z
		 M170.3,167.9h32.5v32.2h-32.5c-5.2,0-9.6-1.5-13-4.4c-3.4-2.8-5.1-6.7-5.1-11.9c0-4.9,1.7-8.7,5.2-11.6
		C160.9,169.3,165.1,167.9,170.3,167.9z M322.8,182.3c-9.8,12-24.3,18-42.9,18h-22v-32.2H270c9,0,15.8-2.4,20.7-7.3
		c4.5-4.6,6.8-10.8,6.8-18.6c-0.4-7.1-3-12.9-7.6-17.1c-4.7-4.2-10.6-6.3-17.7-6.3h-23.5v120.2c0,5.9-1.7,10.9-5,15
		c-3.3,4-7.7,5.9-13.5,5.9c-5.8,0-10.3-1.9-13.7-5.9c-3.4-4.1-5.1-9-5.1-14.9V109.3c0-7.3,2-12.8,6-16.9c4-4,9.7-6.1,16.9-6.1h40.5
		c19.1,0,33.7,4.8,43.3,14.2c3.5,3.4,6.7,7.4,9.4,11.9c2.7,4.5,4.8,9.4,6.3,14.4c1.4,5,2.1,10.1,2.1,15.1
		C335.8,158.5,331.4,172,322.8,182.3z"/>
</g>
</svg>
