<?xml version="1.0" encoding="utf-8"?>
<!-- Generator: Adobe Illustrator 27.4.1, SVG Export Plug-In . SVG Version: 6.00 Build 0)  -->
<svg version="1.1" id="Layer_1" xmlns="http://www.w3.org/2000/svg" xmlns:xlink="http://www.w3.org/1999/xlink" x="0px" y="0px"
	 viewBox="0 0 500 374.9" style="enable-background:new 0 0 500 374.9;" xml:space="preserve">
<style type="text/css">
	.st0{fill:#FFFFFF;}
</style>
<g id="XMLID_80_">
	
		<image style="overflow:visible;" width="1369" height="1370" xlink:href="A02C7964.jpg"  transform="matrix(0.24 0 0 0.24 85.68 23.04)">
	</image>
	<g id="XMLID_35_">
		<path id="XMLID_38_" class="st0" d="M301,67.2H199c-38.4,0-69.6,31.2-69.6,69.6v102c0,38.4,31.2,69.6,69.6,69.6h102
			c38.4,0,69.6-31.2,69.6-69.6v-102C370.6,98.4,339.4,67.2,301,67.2z M348.4,240.6c0,25.5-20.7,46.2-46.2,46.2H197.8
			c-25.5,0-46.2-20.7-46.2-46.2V136.3c0-25.5,20.7-46.2,46.2-46.2h104.3c25.5,0,46.2,20.7,46.2,46.2V240.6z"/>
		<path id="XMLID_41_" class="st0" d="M250,125.9c-34.6,0-62.6,28-62.6,62.6c0,34.6,28,62.6,62.6,62.6c34.6,0,62.6-28,62.6-62.6
			C312.6,153.9,284.6,125.9,250,125.9z M250,229c-22.4,0-40.6-18.2-40.6-40.6c0-22.4,18.2-40.6,40.6-40.6
			c22.4,0,40.6,18.2,40.6,40.6C290.6,210.8,272.4,229,250,229z"/>
		<circle id="XMLID_42_" class="st0" cx="314.7" cy="123.5" r="14.6"/>
	</g>
</g>
</svg>
