<?xml version="1.0" encoding="utf-8"?>
<!-- Generator: Adobe Illustrator 27.5.0, SVG Export Plug-In . SVG Version: 6.00 Build 0)  -->
<svg version="1.1" id="레이어_1" xmlns="http://www.w3.org/2000/svg" xmlns:xlink="http://www.w3.org/1999/xlink" x="0px"
	 y="0px" viewBox="0 0 1500 451.9" style="enable-background:new 0 0 1500 451.9;" xml:space="preserve">
<style type="text/css">
	.st0{fill:#3B5399;}
	.st1{fill:#FFFFFF;}
</style>
<g>
	<path class="st0" d="M594,173.3h-26.4v45.6H594c16.2,0,25.5-9.7,25.5-22.9C619.5,182.9,610.1,173.3,594,173.3z"/>
	<polygon class="st0" points="950.2,252.5 996.4,252.5 973.2,187.4 	"/>
	<polygon class="st0" points="15.7,3.2 15.7,171.2 99.9,3.2 	"/>
	<polygon class="st0" points="1484.3,3.2 1237.4,3.2 1237.4,222.5 1281.3,121.8 1337.7,121.8 1368.7,332 1311.5,332 1295.7,211 
		1237.4,332.2 1237.4,450.8 1484.3,450.8 	"/>
	<path class="st0" d="M712.5,193.3L617.3,3.2h-504L15.7,197.9v252.9h825.9L782,332h-69.5V193.3z M216,337.1
		c-51.4,0-84.7-27.2-84.7-73h59.7c0,15,11.6,22.3,24.8,22.3c12.1,0,23.7-6.5,23.7-17.9c0-13.2-16.4-17-36.4-21.9
		c-30.4-7.6-69.2-16.9-69.2-64.7c0-41.4,30.4-65.1,80-65.1c50.4,0,79.3,25.9,79.3,68.6h-58.1c0-13.3-9.9-19.5-21.9-19.5
		c-10.3,0-20.2,4.5-20.2,14.3c0,11.9,15.8,15.9,35.6,20.9c30.9,8,71.4,18.3,71.4,66.3C300.1,313.3,264.8,337.1,216,337.1z
		 M483.8,173.9h-57.1v158h-58.2v-158h-57.1v-52.1h172.3V173.9z M622.6,332l-34.1-64.3h-21V332h-57.9V121.8h91.1
		c45.3,0,78.2,30.4,78.2,74.4c0,25.8-12.6,46.9-33.4,59.4l41.7,76.4H622.6z"/>
	<path class="st0" d="M1167.1,211l-15.8,121h-57.2l31-210.2h56.3l43.9,100.6V3.2H630.7l81.8,163.4v-44.7H847v50h-76.8v30.9h69v47.5
		h-69v31.3l0.1,0.2h79.3V332h-54.1L855,450.8h370.4V332.1L1167.1,211z M1022.2,332l-11.6-34.1h-74.5L924.4,332h-62l82.6-210.2h56.6
		l84.4,210.2H1022.2z"/>
	<polygon class="st1" points="113.3,3.2 99.9,3.2 15.7,171.2 15.7,197.9 	"/>
	<polygon class="st1" points="770.3,281.7 770.2,281.6 770.2,281.7 	"/>
	<polygon class="st1" points="712.5,193.3 712.5,166.5 630.7,3.2 617.3,3.2 	"/>
	<polygon class="st1" points="782,332 841.6,450.8 855,450.8 795.4,332 	"/>
	<polygon class="st1" points="1237.4,332.3 1225.5,332.3 1225.4,332.1 1225.4,450.8 1237.4,450.8 1237.4,332.2 	"/>
	<polygon class="st1" points="1231.4,236.2 1237.4,222.5 1237.4,3.2 1225.4,3.2 1225.4,222.4 	"/>
	<path class="st1" d="M228.7,201.1c-19.8-5-35.6-8.9-35.6-20.9c0-9.8,9.9-14.3,20.2-14.3c12,0,21.9,6.2,21.9,19.5h58.1
		c0-42.8-28.9-68.6-79.3-68.6c-49.6,0-80,23.7-80,65.1c0,47.8,38.8,57.2,69.2,64.7c20,4.8,36.4,8.7,36.4,21.9
		c0,11.5-11.6,17.9-23.7,17.9c-13.2,0-24.8-7.3-24.8-22.3h-59.7c0,45.8,33.2,73,84.7,73c48.8,0,84.1-23.8,84.1-69.7
		C300.1,219.4,259.6,209.1,228.7,201.1z"/>
	<polygon class="st1" points="311.5,173.9 368.5,173.9 368.5,332 426.7,332 426.7,173.9 483.8,173.9 483.8,121.8 311.5,121.8 	"/>
	<path class="st1" d="M678.9,196.2c0-43.9-32.8-74.4-78.2-74.4h-91.1V332h57.9v-64.3h21l34.1,64.3h64.6l-41.7-76.4
		C666.3,243.1,678.9,222,678.9,196.2z M594,218.9h-26.4v-45.6H594c16.2,0,25.5,9.6,25.5,22.8C619.5,209.1,610.1,218.9,594,218.9z"/>
	<polygon class="st1" points="770.2,250.3 839.2,250.3 839.2,202.8 770.2,202.8 770.2,171.9 847,171.9 847,121.8 712.5,121.8 
		712.5,166.5 770.2,281.6 	"/>
	<polygon class="st1" points="849.6,332 849.6,281.7 770.3,281.7 795.4,332 	"/>
	<polygon class="st1" points="712.5,332 782,332 712.5,193.3 	"/>
	<polygon class="st1" points="782,332 795.4,332 770.3,281.7 770.2,281.7 770.2,281.6 712.5,166.5 712.5,193.3 	"/>
	<path class="st1" d="M944.9,121.8L862.4,332h62l11.6-34.1h74.5l11.6,34.1h63.8l-84.4-210.2H944.9z M950.2,252.5l23-65.1l23.2,65.1
		H950.2z"/>
	<polygon class="st1" points="1295.7,211 1311.5,332 1368.7,332 1337.7,121.8 1281.3,121.8 1237.4,222.5 1237.4,332.2 	"/>
	<polygon class="st1" points="1181.5,121.8 1125.1,121.8 1094.1,332 1151.3,332 1167.1,211 1225.4,332.1 1225.4,222.4 	"/>
	<polygon class="st1" points="1225.4,222.4 1225.4,332.1 1225.5,332.3 1237.4,332.3 1237.4,332.2 1237.4,222.5 1231.4,236.2 	"/>
</g>
</svg>
