<?xml version="1.0" encoding="utf-8"?>
<!-- Generator: Adobe Illustrator 27.5.0, SVG Export Plug-In . SVG Version: 6.00 Build 0)  -->
<svg version="1.1" id="레이어_1" xmlns="http://www.w3.org/2000/svg" xmlns:xlink="http://www.w3.org/1999/xlink" x="0px"
	 y="0px" viewBox="0 0 1500 1500" style="enable-background:new 0 0 1500 1500;" xml:space="preserve">
<style type="text/css">
	.st0{fill:#3B5399;}
	.st1{fill:#FFFFFF;}
</style>
<g>
	<path class="st0" d="M713.4,852.7V717L373.6,38.9l-342,682.7v746.8h1058.2L781.3,852.7H713.4z M227.6,857.8
		c-50.3,0-82.9-26.6-82.9-71.4h58.4c0,14.7,11.3,21.8,24.3,21.8c11.9,0,23.2-6.3,23.2-17.5c0-12.9-16-16.6-35.6-21.4
		c-29.7-7.4-67.7-16.5-67.7-63.3c0-40.5,29.7-63.7,78.2-63.7c49.3,0,77.6,25.3,77.6,67.1h-56.8c0-13-9.7-19.1-21.4-19.1
		c-10.1,0-19.8,4.4-19.8,14c0,11.7,15.5,15.5,34.9,20.4c30.3,7.8,69.8,17.9,69.8,64.9C309.8,834.4,275.3,857.8,227.6,857.8z
		 M489.6,698.1h-55.9v154.6h-56.9V698.1H321v-51h168.6V698.1z M625.4,852.7L592,789.8h-20.5v62.9h-56.6V647.1h89.1
		c44.3,0,76.5,29.8,76.5,72.8c0,25.2-12.3,45.9-32.6,58.1l40.8,74.8H625.4z"/>
	<path class="st0" d="M597.3,697.4h-25.9v44.6h25.9c15.8,0,25-9.5,25-22.4C622.3,706.9,613.2,697.4,597.3,697.4z"/>
	<path class="st0" d="M1158.1,734.4l-15.4,118.4h-56l30.3-205.6h55.1l43,98.4V31.6H383.1l330.3,659.3v-43.7h131.6v49h-75.2v30.3
		h67.5v46.5h-67.5v30.6l0.1,0.2h77.6v49.1h-53l308.5,615.7h112.2V852.9L1158.1,734.4z M1016.3,852.7l-11.3-33.4H932l-11.4,33.4H860
		l80.8-205.6h55.4l82.5,205.6H1016.3z"/>
	<polygon class="st0" points="1226.8,745.6 1269.8,647.1 1325,647.1 1355.3,852.7 1299.3,852.7 1283.9,734.4 1226.8,853 
		1226.8,1468.4 1468.4,1468.4 1468.4,31.6 1226.8,31.6 	"/>
	<polygon class="st0" points="945.8,775 991.1,775 968.4,711.3 	"/>
	<polygon class="st0" points="31.6,31.6 31.6,695.4 364.2,31.6 	"/>
	<polygon class="st1" points="769.8,803.6 769.8,803.4 769.8,803.6 	"/>
</g>
</svg>
