<?xml version="1.0" encoding="utf-8"?>
<!-- Generator: Adobe Illustrator 27.5.0, SVG Export Plug-In . SVG Version: 6.00 Build 0)  -->
<svg version="1.1" id="레이어_1" xmlns="http://www.w3.org/2000/svg" xmlns:xlink="http://www.w3.org/1999/xlink" x="0px"
	 y="0px" viewBox="0 0 1500 451.9" style="enable-background:new 0 0 1500 451.9;" xml:space="preserve">
<style type="text/css">
	.st0{fill:#3B5399;}
	.st1{fill:#FFFFFF;}
</style>
<g>
	<path class="st0" d="M601,174.7h-25.2v43.6H601c15.5,0,24.3-9.3,24.3-21.8C625.4,183.8,616.5,174.7,601,174.7z"/>
	<polygon class="st0" points="941.1,250.3 985.3,250.3 963.1,188.2 	"/>
	<polygon class="st0" points="49,12.3 49,172.7 129.4,12.3 	"/>
	<polygon class="st0" points="1215.3,12.3 1215.3,221.7 1257.2,125.6 1311,125.6 1340.6,326.2 1286,326.2 1271,210.7 1215.3,326.4 
		1215.3,439.6 1451,439.6 1451,12.3 	"/>
	<path class="st0" d="M714.2,326.2V193.8L623.3,12.3H142.2L49,198.2v241.4h788.4l-56.8-113.4H714.2z M240.3,331.1
		c-49.1,0-80.8-26-80.8-69.7h57c0,14.3,11.1,21.3,23.7,21.3c11.6,0,22.6-6.2,22.6-17.1c0-12.6-15.6-16.2-34.7-20.9
		c-29-7.2-66-16.1-66-61.8c0-39.5,29-62.1,76.3-62.1c48.1,0,75.7,24.7,75.7,65.5h-55.4c0-12.7-9.5-18.6-20.9-18.6
		c-9.8,0-19.3,4.3-19.3,13.6c0,11.4,15.1,15.2,34,19.9c29.5,7.6,68.1,17.5,68.1,63.3C320.5,308.3,286.8,331.1,240.3,331.1z
		 M495.9,175.3h-54.5v150.9h-55.5V175.3h-54.5v-49.8h164.5V175.3z M628.4,326.2l-32.6-61.4h-20v61.4h-55.3V125.6h87
		c43.3,0,74.6,29.1,74.6,71c0,24.6-12,44.8-31.8,56.7l39.8,73H628.4z"/>
	<path class="st0" d="M1148.2,210.7l-15,115.5h-54.6l29.6-200.6h53.8l42,96V12.3H636.1l78.1,155.9v-42.7h128.4v47.8h-73.4v29.5h65.9
		v45.3h-65.9v29.9l0.1,0.2H845v47.9h-51.7l56.8,113.4h353.6V326.4L1148.2,210.7z M1009.8,326.2l-11.1-32.6h-71.1l-11.1,32.6h-59.2
		l78.8-200.6h54l80.5,200.6H1009.8z"/>
	<polygon class="st1" points="769.4,278.2 769.3,278.1 769.3,278.2 	"/>
</g>
</svg>
