<?xml version="1.0" encoding="utf-8"?>
<!-- Generator: Adobe Illustrator 27.5.0, SVG Export Plug-In . SVG Version: 6.00 Build 0)  -->
<svg version="1.1" id="레이어_1" xmlns="http://www.w3.org/2000/svg" xmlns:xlink="http://www.w3.org/1999/xlink" x="0px"
	 y="0px" viewBox="0 0 1500 451.9" style="enable-background:new 0 0 1500 451.9;" xml:space="preserve">
<style type="text/css">
	.st0{fill:#3B5399;}
	.st1{fill:#FFFFFF;}
</style>
<g>
	<path class="st0" d="M594,172.2h-26.4v45.6H594c16.2,0,25.5-9.7,25.5-22.9C619.5,181.8,610.1,172.2,594,172.2z"/>
	<polygon class="st0" points="950.2,251.4 996.4,251.4 973.2,186.3 	"/>
	<polygon class="st0" points="15.7,2.2 15.7,170.1 99.9,2.2 	"/>
	<polygon class="st0" points="1484.3,2.2 1237.4,2.2 1237.4,221.4 1281.3,120.8 1337.7,120.8 1368.7,331 1311.5,331 1295.7,209.9 
		1237.4,331.2 1237.4,449.8 1484.3,449.8 	"/>
	<path class="st0" d="M712.5,192.2L617.3,2.2h-504L15.7,196.8v252.9h825.9L782,331h-69.5V192.2z M216,336.1
		c-51.4,0-84.7-27.2-84.7-73H191c0,15,11.6,22.3,24.8,22.3c12.1,0,23.7-6.5,23.7-17.9c0-13.2-16.4-17-36.4-21.9
		c-30.4-7.6-69.2-16.9-69.2-64.7c0-41.4,30.4-65.1,80-65.1c50.4,0,79.3,25.9,79.3,68.6h-58.1c0-13.3-9.9-19.5-21.9-19.5
		c-10.3,0-20.2,4.5-20.2,14.3c0,11.9,15.8,15.9,35.6,20.9c30.9,8,71.4,18.3,71.4,66.3C300.1,312.2,264.8,336.1,216,336.1z
		 M483.8,172.8h-57.1v158h-58.2v-158h-57.1v-52.1h172.3v52.1H483.8z M622.6,331l-34.1-64.3h-21V331h-57.9V120.8h91.1
		c45.3,0,78.2,30.4,78.2,74.4c0,25.8-12.6,46.9-33.4,59.4l41.7,76.4H622.6z"/>
	<path class="st0" d="M1167.1,209.9l-15.8,121h-57.2l31-210.2h56.3l43.9,100.6V2.2H630.7l81.8,163.4v-44.7H847v50h-76.8v30.9h69
		v47.5h-69v31.3l0.1,0.2h79.3V331h-54.1L855,449.8h370.4V331.1L1167.1,209.9z M1022.2,331l-11.6-34.1h-74.5L924.4,331h-62L945,120.8
		h56.6L1086,331H1022.2z"/>
	<polygon class="st1" points="113.3,2.2 99.9,2.2 15.7,170.1 15.7,196.8 	"/>
	<path class="st1" d="M228.7,200.1c-19.8-5-35.6-8.9-35.6-20.9c0-9.8,9.9-14.3,20.2-14.3c12,0,21.9,6.2,21.9,19.5h58.1
		c0-42.8-28.9-68.6-79.3-68.6c-49.6,0-80,23.7-80,65.1c0,47.8,38.8,57.2,69.2,64.7c20,4.8,36.4,8.7,36.4,21.9
		c0,11.5-11.6,17.9-23.7,17.9c-13.2,0-24.8-7.3-24.8-22.3h-59.7c0,45.8,33.2,73,84.7,73c48.8,0,84.1-23.8,84.1-69.7
		C300.1,218.3,259.6,208.1,228.7,200.1z"/>
	<polygon class="st1" points="311.5,172.8 368.5,172.8 368.5,331 426.7,331 426.7,172.8 483.8,172.8 483.8,120.8 311.5,120.8 	"/>
	<path class="st1" d="M678.9,195.1c0-43.9-32.8-74.4-78.2-74.4h-91.1V331h57.9v-64.3h21l34.1,64.3h64.6l-41.7-76.4
		C666.3,242.1,678.9,220.9,678.9,195.1z M594,217.8h-26.4v-45.6H594c16.2,0,25.5,9.6,25.5,22.8C619.5,208.1,610.1,217.8,594,217.8z"
		/>
	<polygon class="st1" points="795.4,331 849.6,331 849.6,280.7 770.3,280.7 770.2,280.5 770.2,249.2 839.2,249.2 839.2,201.8 
		770.2,201.8 770.2,170.8 847,170.8 847,120.7 712.5,120.7 712.5,165.5 630.7,2.2 617.3,2.2 712.5,192.2 712.5,331 782,331 
		841.6,449.8 855,449.8 	"/>
	<path class="st1" d="M944.9,120.8L862.4,331h62l11.6-34.1h74.5l11.6,34.1h63.8l-84.4-210.2H944.9z M950.2,251.4l23-65.1l23.2,65.1
		H950.2z"/>
	<polygon class="st1" points="1337.7,120.7 1281.3,120.7 1237.4,221.5 1237.4,2.2 1225.4,2.2 1225.4,221.3 1181.5,120.7 
		1125.1,120.7 1094.1,331 1151.3,331 1167.1,210 1225.4,331 1225.4,449.8 1237.4,449.8 1237.4,331.2 1237.4,331.2 1295.7,210 
		1311.5,331 1368.7,331 	"/>
</g>
</svg>
