<?xml version="1.0" encoding="utf-8"?>
<!-- Generator: Adobe Illustrator 27.5.0, SVG Export Plug-In . SVG Version: 6.00 Build 0)  -->
<svg version="1.1" id="레이어_1" xmlns="http://www.w3.org/2000/svg" xmlns:xlink="http://www.w3.org/1999/xlink" x="0px"
	 y="0px" viewBox="0 0 1500 291.2" style="enable-background:new 0 0 1500 291.2;" xml:space="preserve">
<style type="text/css">
	.st0{fill:#FFFFFF;}
</style>
<g>
	<path class="st0" d="M594,89.9h-26.4v45.6H594c16.2,0,25.5-9.7,25.5-22.9C619.5,99.5,610.1,89.9,594,89.9z"/>
	<polygon class="st0" points="950.2,169.1 996.4,169.1 973.2,104 	"/>
	<polygon class="st0" points="1237.4,9.8 1237.4,139.1 1281.3,38.4 1337.7,38.4 1368.7,248.6 1311.5,248.6 1295.7,127.6 
		1237.4,248.8 1237.4,277.3 1484.3,277.3 1484.3,9.8 	"/>
	<path class="st0" d="M1167.1,127.6l-15.8,121h-57.2l31-210.2h56.3l43.9,100.6V9.8H661.2l51.3,102.3V38.5H847v50h-76.8v30.9h69v47.5
		h-69v31.3l0.1,0.2h79.3v50.2h-68.7l14.4,28.7h430.1v-28.6L1167.1,127.6z M1022.2,248.6l-11.6-34.1h-74.5l-11.7,34.1h-62L945,38.4
		h56.6l84.4,210.2H1022.2z M767.5,248.6h-55V138.9l-64.7-129H82.8l-67,133.8v133.7h766.2L767.5,248.6z M216,253.7
		c-51.4,0-84.7-27.2-84.7-73H191c0,15,11.6,22.3,24.8,22.3c12.1,0,23.7-6.5,23.7-17.9c0-13.2-16.4-17-36.4-21.9
		c-30.4-7.6-69.2-16.9-69.2-64.7c0-41.4,30.4-65.1,80-65.1c50.4,0,79.3,25.9,79.3,68.6h-58.1c0-13.3-9.9-19.5-21.9-19.5
		c-10.3,0-20.2,4.5-20.2,14.3c0,11.9,15.8,15.9,35.6,20.9c30.9,8,71.4,18.3,71.4,66.3C300.1,229.9,264.8,253.7,216,253.7z
		 M483.7,90.5h-57v158h-58.2v-158h-57.1V38.4h172.3V90.5z M622.6,248.6l-34.1-64.3h-21v64.3h-57.9V38.4h91.1
		c45.3,0,78.2,30.4,78.2,74.4c0,25.8-12.6,46.9-33.4,59.4l41.7,76.4H622.6z M15.7,9.8v107l53.6-107H15.7z"/>
</g>
</svg>
