<?xml version="1.0" encoding="utf-8"?>
<!-- Generator: Adobe Illustrator 27.5.0, SVG Export Plug-In . SVG Version: 6.00 Build 0)  -->
<svg version="1.1" id="레이어_1" xmlns="http://www.w3.org/2000/svg" xmlns:xlink="http://www.w3.org/1999/xlink" x="0px"
	 y="0px" viewBox="0 0 1500 1500" style="enable-background:new 0 0 1500 1500;" xml:space="preserve">
<style type="text/css">
	.st0{fill:#FFFFFF;}
	.st1{fill:#3B5399;}
</style>
<g>
	<path class="st0" d="M723.8,724.4L376.9,32.1l-349.2,697v762.5h1080.4L793.2,863h-69.4V724.4z M227.9,868.1
		c-51.4,0-84.6-27.2-84.6-72.9H203c0,15,11.6,22.3,24.8,22.3c12.1,0,23.7-6.4,23.7-17.9c0-13.2-16.3-17-36.3-21.8
		c-30.3-7.5-69.1-16.8-69.1-64.6c0-41.3,30.4-65,79.9-65c50.3,0,79.2,25.8,79.2,68.5h-58c0-13.3-9.9-19.5-21.9-19.5
		c-10.3,0-20.2,4.5-20.2,14.3c0,11.9,15.8,15.9,35.6,20.8c30.9,8,71.3,18.3,71.3,66.2C311.8,844.3,276.6,868.1,227.9,868.1z
		 M495.3,705.1h-57V863h-58.1V705.1h-57V653h172.1V705.1z M634,863l-34.1-64.3h-21v64.2h-57.8V653h91c45.3,0,78.1,30.4,78.1,74.3
		c0,25.8-12.6,46.9-33.3,59.3l41.7,76.3H634V863z"/>
	<path class="st0" d="M605.4,704.4H579V750h26.4c16.2,0,25.5-9.7,25.5-22.9C630.8,714,621.5,704.4,605.4,704.4z"/>
	<path class="st0" d="M1177.8,742.1L1162.1,863H1105l31-209.9h56.2l43.9,100.5v-729H386.6l337.2,673.1V653h134.3v50h-76.7v30.9h68.9
		v47.4h-68.9v31.2l0.1,0.2h79.2v50.2h-54.1l314.9,628.6H1236V863.1L1177.8,742.1z M1033.1,863l-11.6-34.1h-74.4L935.5,863h-62
		L956,653.1h56.5l84.3,209.9L1033.1,863L1033.1,863z"/>
	<polygon class="st0" points="1248,753.6 1291.9,653.1 1348.2,653.1 1379.2,863 1322.1,863 1306.3,742.1 1248,863.2 1248,1491.6 
		1494.7,1491.6 1494.7,24.6 1248,24.6 	"/>
	<polygon class="st0" points="961.2,783.6 1007.4,783.6 984.2,718.6 	"/>
	<polygon class="st0" points="27.8,24.6 27.8,702.3 367.3,24.6 	"/>
</g>
<g>
	<path class="st1" d="M1754.3,728.4h-5.9v10.1h5.9c3.6,0,5.7-2.2,5.7-5.1C1760,730.5,1757.9,728.4,1754.3,728.4z"/>
	<polygon class="st1" points="1833.4,746 1843.7,746 1838.6,731.6 	"/>
	<polygon class="st1" points="1625.8,690.6 1625.8,727.9 1644.5,690.6 	"/>
	<polygon class="st1" points="1952.1,690.6 1897.2,690.6 1897.2,739.3 1907,717 1919.5,717 1926.4,763.7 1913.7,763.7 1910.2,736.8 
		1897.2,763.7 1897.2,790.1 1952.1,790.1 	"/>
	<path class="st1" d="M1780.6,732.9l-21.2-42.2h-112l-21.7,43.3v56.2h183.5l-13.2-26.4h-15.4L1780.6,732.9L1780.6,732.9z
		 M1670.3,764.8c-11.4,0-18.8-6-18.8-16.2h13.3c0,3.3,2.6,5,5.5,5c2.7,0,5.3-1.4,5.3-4c0-2.9-3.6-3.8-8.1-4.9
		c-6.7-1.7-15.4-3.7-15.4-14.4c0-9.2,6.8-14.5,17.8-14.5c11.2,0,17.6,5.7,17.6,15.2h-12.9c0-3-2.2-4.3-4.9-4.3c-2.3,0-4.5,1-4.5,3.2
		c0,2.7,3.5,3.5,7.9,4.6c6.9,1.8,15.9,4.1,15.9,14.7C1689,759.5,1681.2,764.8,1670.3,764.8z M1729.8,728.6h-12.7v35.1h-12.9v-35.1
		h-12.7V717h38.3L1729.8,728.6L1729.8,728.6z M1760.7,763.7l-7.6-14.3h-4.7v14.3h-12.9V717h20.2c10.1,0,17.4,6.8,17.4,16.5
		c0,5.7-2.8,10.4-7.4,13.2l9.3,17H1760.7z"/>
	<path class="st1" d="M1881.6,736.8l-3.5,26.9h-12.7l6.9-46.7h12.5l9.8,22.3v-48.7h-132.1l18.2,36.3V717h29.9v11.1h-17.1v6.9h15.3
		v10.6h-15.3v6.9l0,0h17.6v11.2h-12l13.2,26.4h82.3v-26.4L1881.6,736.8z M1849.4,763.7l-2.6-7.6h-16.6l-2.6,7.6h-13.8l18.3-46.7
		h12.6l18.7,46.7H1849.4z"/>
	<polygon class="st0" points="1647.5,690.6 1644.5,690.6 1625.8,727.9 1625.8,733.9 	"/>
	<path class="st0" d="M1793.5,752.5L1793.5,752.5L1793.5,752.5z"/>
	<polygon class="st0" points="1780.6,732.9 1780.6,726.9 1762.5,690.6 1759.5,690.6 	"/>
	<polygon class="st0" points="1796.1,763.7 1809.3,790.1 1812.3,790.1 1799.1,763.7 	"/>
	<polygon class="st0" points="1897.2,763.7 1894.6,763.7 1894.6,763.7 1894.6,790.1 1897.2,790.1 	"/>
	<polygon class="st0" points="1895.9,742.4 1897.2,739.3 1897.2,690.6 1894.6,690.6 1894.6,739.3 	"/>
	<path class="st0" d="M1673.2,734.6c-4.4-1.1-7.9-2-7.9-4.6c0-2.2,2.2-3.2,4.5-3.2c2.7,0,4.9,1.4,4.9,4.3h12.9
		c0-9.5-6.4-15.2-17.6-15.2c-11,0-17.8,5.3-17.8,14.5c0,10.6,8.6,12.7,15.4,14.4c4.4,1.1,8.1,1.9,8.1,4.9c0,2.6-2.6,4-5.3,4
		c-2.9,0-5.5-1.6-5.5-5h-13.3c0,10.2,7.4,16.2,18.8,16.2c10.8,0,18.7-5.3,18.7-15.5C1689,738.7,1680,736.4,1673.2,734.6z"/>
	<polygon class="st0" points="1691.5,728.6 1704.2,728.6 1704.2,763.7 1717.1,763.7 1717.1,728.6 1729.8,728.6 1729.8,717 
		1691.5,717 	"/>
	<path class="st0" d="M1773.2,733.5c0-9.8-7.3-16.5-17.4-16.5h-20.2v46.7h12.9v-14.3h4.7l7.6,14.3h14.4l-9.3-17
		C1770.4,743.9,1773.2,739.2,1773.2,733.5z M1754.3,738.5h-5.9v-10.1h5.9c3.6,0,5.7,2.1,5.7,5.1
		C1760,736.4,1757.9,738.5,1754.3,738.5z"/>
	<polygon class="st0" points="1793.5,745.5 1808.8,745.5 1808.8,735 1793.5,735 1793.5,728.1 1810.5,728.1 1810.5,717 1780.6,717 
		1780.6,726.9 1793.5,752.5 	"/>
	<polygon class="st0" points="1811.1,763.7 1811.1,752.5 1793.5,752.5 1799.1,763.7 	"/>
	<polygon class="st0" points="1780.6,763.7 1796.1,763.7 1780.6,732.9 	"/>
	<polygon class="st0" points="1796.1,763.7 1799.1,763.7 1793.5,752.5 1793.5,752.5 1793.5,752.5 1780.6,726.9 1780.6,732.9 	"/>
	<path class="st0" d="M1832.3,717l-18.3,46.7h13.8l2.6-7.6h16.6l2.6,7.6h14.2l-18.7-46.7H1832.3z M1833.4,746l5.1-14.5l5.2,14.5
		H1833.4z"/>
	<polygon class="st0" points="1910.2,736.8 1913.7,763.7 1926.4,763.7 1919.5,717 1907,717 1897.2,739.3 1897.2,763.7 	"/>
	<polygon class="st0" points="1884.8,717 1872.3,717 1865.4,763.7 1878.1,763.7 1881.6,736.8 1894.6,763.7 1894.6,739.3 	"/>
	<polygon class="st0" points="1894.6,739.3 1894.6,763.7 1894.6,763.7 1897.2,763.7 1897.2,763.7 1897.2,739.3 1895.9,742.4 	"/>
</g>
<g>
	<path class="st1" d="M2260.2,763.7v-30.8l-77.1-154l-77.7,155v169.6h240.3l-70-139.8H2260.2z M2149.9,764.8
		c-11.4,0-18.8-6-18.8-16.2h13.3c0,3.3,2.6,5,5.5,5c2.7,0,5.3-1.4,5.3-4c0-2.9-3.6-3.8-8.1-4.9c-6.7-1.7-15.4-3.7-15.4-14.4
		c0-9.2,6.8-14.5,17.8-14.5c11.2,0,17.6,5.7,17.6,15.2h-12.9c0-3-2.2-4.3-4.9-4.3c-2.3,0-4.5,1-4.5,3.2c0,2.7,3.5,3.5,7.9,4.6
		c6.9,1.8,15.9,4.1,15.9,14.7C2168.6,759.5,2160.7,764.8,2149.9,764.8z M2209.4,728.6h-12.7v35.1h-12.9v-35.1h-12.7V717h38.3
		L2209.4,728.6L2209.4,728.6z M2240.2,763.7l-7.6-14.3h-4.7v14.3H2215V717h20.2c10.1,0,17.4,6.8,17.4,16.5c0,5.7-2.8,10.4-7.4,13.2
		l9.3,17H2240.2z"/>
	<path class="st1" d="M2233.8,728.4h-5.9v10.1h5.9c3.6,0,5.7-2.2,5.7-5.1C2239.5,730.5,2237.4,728.4,2233.8,728.4z"/>
	<path class="st1" d="M2361.2,736.8l-3.5,26.9H2345l6.9-46.7h12.5l9.8,22.3V577.2h-188.9l75,149.7V717h29.9v11.1H2273v6.9h15.3v10.6
		H2273v7l0,0h17.6v11.2h-12l70,139.8h25.5V763.7L2361.2,736.8z M2329,763.7l-2.6-7.6h-16.6l-2.6,7.6h-13.8l18.3-46.7h12.6l18.7,46.7
		H2329z"/>
	<polygon class="st1" points="2376.8,739.3 2386.6,717 2399.1,717 2406,763.7 2393.3,763.7 2389.8,736.8 2376.8,763.7 2376.8,903.5 
		2431.6,903.5 2431.6,577.2 2376.8,577.2 	"/>
	<polygon class="st1" points="2313,746 2323.3,746 2318.1,731.6 	"/>
	<polygon class="st1" points="2105.4,577.2 2105.4,727.9 2180.9,577.2 	"/>
	<path class="st0" d="M2273,752.5L2273,752.5L2273,752.5z"/>
	<path class="st1" d="M2676.2,728.4h-5.9v10.1h5.9c3.6,0,5.7-2.2,5.7-5.1C2681.8,730.5,2679.8,728.4,2676.2,728.4z"/>
	<polygon class="st1" points="2755.3,746 2765.6,746 2760.4,731.6 	"/>
	<polygon class="st1" points="2547.7,690.6 2547.7,727.9 2566.4,690.6 	"/>
	<polygon class="st1" points="2819.1,690.6 2819.1,739.3 2828.9,717 2841.4,717 2848.3,763.7 2835.6,763.7 2832.1,736.8 
		2819.1,763.7 2819.1,790.1 2874,790.1 2874,690.6 	"/>
	<path class="st1" d="M2702.5,763.7v-30.8l-21.2-42.2h-112l-21.7,43.3v56.2h183.5l-13.2-26.4L2702.5,763.7L2702.5,763.7z
		 M2592.2,764.8c-11.4,0-18.8-6-18.8-16.2h13.3c0,3.3,2.6,5,5.5,5c2.7,0,5.3-1.4,5.3-4c0-2.9-3.6-3.8-8.1-4.9
		c-6.7-1.7-15.4-3.7-15.4-14.4c0-9.2,6.8-14.5,17.8-14.5c11.2,0,17.6,5.7,17.6,15.2h-12.9c0-3-2.2-4.3-4.9-4.3c-2.3,0-4.5,1-4.5,3.2
		c0,2.7,3.5,3.5,7.9,4.6c6.9,1.8,15.9,4.1,15.9,14.7C2610.9,759.5,2603.1,764.8,2592.2,764.8z M2651.7,728.6H2639v35.1h-12.9v-35.1
		h-12.7V717h38.3L2651.7,728.6L2651.7,728.6z M2682.5,763.7l-7.6-14.3h-4.7v14.3h-12.9V717h20.2c10.1,0,17.4,6.8,17.4,16.5
		c0,5.7-2.8,10.4-7.4,13.2l9.3,17H2682.5z"/>
	<path class="st1" d="M2803.5,736.8l-3.5,26.9h-12.7l6.9-46.7h12.5l9.8,22.3v-48.7h-132.1l18.2,36.3V717h29.9v11.1h-17.1v6.9h15.3
		v10.6h-15.3v6.9l0,0h17.6v11.2h-12l13.2,26.4h82.3v-26.4L2803.5,736.8z M2771.3,763.7l-2.6-7.6h-16.6l-2.6,7.6h-13.8L2754,717h12.6
		l18.7,46.7H2771.3z"/>
	<polygon class="st0" points="2715.4,752.5 2715.3,752.5 2715.3,752.5 	"/>
</g>
</svg>
