<?xml version="1.0" encoding="utf-8"?>
<!-- Generator: Adobe Illustrator 27.5.0, SVG Export Plug-In . SVG Version: 6.00 Build 0)  -->
<svg version="1.1" id="레이어_1" xmlns="http://www.w3.org/2000/svg" xmlns:xlink="http://www.w3.org/1999/xlink" x="0px"
	 y="0px" viewBox="0 0 326.3 326.3" style="enable-background:new 0 0 326.3 326.3;" xml:space="preserve">
<style type="text/css">
	.st0{fill:#FFFFFF;}
</style>
<g>
	<path class="st0" d="M154.8,155.6L77.7,1.7L0,156.7v169.6h240.3l-70-139.8h-15.4V155.6z M44.5,187.6c-11.4,0-18.8-6-18.8-16.2H39
		c0,3.3,2.6,5,5.5,5c2.7,0,5.3-1.4,5.3-4c0-2.9-3.6-3.8-8.1-4.9c-6.7-1.7-15.4-3.7-15.4-14.4c0-9.2,6.8-14.5,17.8-14.5
		c11.2,0,17.6,5.7,17.6,15.2H48.8c0-3-2.2-4.3-4.9-4.3c-2.3,0-4.5,1-4.5,3.2c0,2.7,3.5,3.5,7.9,4.6c6.9,1.8,15.9,4.1,15.9,14.7
		C63.2,182.3,55.4,187.6,44.5,187.6z M104,151.4H91.3v35.1H78.4v-35.1H65.7v-11.6H104V151.4z M134.8,186.5l-7.6-14.3h-4.7v14.3
		h-12.9v-46.7H130c10.1,0,17.4,6.8,17.4,16.5c0,5.7-2.8,10.4-7.4,13.2l9.3,17H134.8z"/>
	<path class="st0" d="M128.5,151.2h-5.9v10.1h5.9c3.6,0,5.7-2.2,5.7-5.1C134.1,153.3,132.1,151.2,128.5,151.2z"/>
	<path class="st0" d="M255.8,159.6l-3.5,26.9h-12.7l6.9-46.7H259l9.8,22.3V0H79.8l75,149.7v-9.9h29.9v11.1h-17.1v6.9H183v10.6h-15.3
		v7l0,0h17.6v11.2h-12l70,139.8h25.5V186.5L255.8,159.6z M223.6,186.5l-2.6-7.6h-16.6l-2.6,7.6h-13.8l18.3-46.7H219l18.7,46.7H223.6
		z"/>
	<polygon class="st0" points="271.4,162.1 281.2,139.8 293.7,139.8 300.6,186.5 287.9,186.5 284.4,159.6 271.4,186.5 271.4,326.3 
		326.3,326.3 326.3,0 271.4,0 	"/>
	<polygon class="st0" points="207.6,168.8 217.9,168.8 212.7,154.3 	"/>
	<polygon class="st0" points="0,0 0,150.7 75.5,0 	"/>
	<path d="M47.3,157.4c-4.4-1.1-7.9-2-7.9-4.6c0-2.2,2.2-3.2,4.5-3.2c2.7,0,4.9,1.4,4.9,4.3h12.9c0-9.5-6.4-15.2-17.6-15.2
		c-11,0-17.8,5.3-17.8,14.5c0,10.6,8.6,12.7,15.4,14.4c4.4,1.1,8.1,1.9,8.1,4.9c0,2.6-2.6,4-5.3,4c-2.9,0-5.5-1.6-5.5-5H25.7
		c0,10.2,7.4,16.2,18.8,16.2c10.8,0,18.7-5.3,18.7-15.5C63.2,161.5,54.2,159.2,47.3,157.4z"/>
	<polygon points="65.7,151.4 78.4,151.4 78.4,186.5 91.3,186.5 91.3,151.4 104,151.4 104,139.8 65.7,139.8 	"/>
	<path d="M147.3,156.3c0-9.8-7.3-16.5-17.4-16.5h-20.2v46.7h12.9v-14.3h4.7l7.6,14.3h14.4l-9.3-17
		C144.5,166.7,147.3,162,147.3,156.3z M128.5,161.3h-5.9v-10.1h5.9c3.6,0,5.7,2.1,5.7,5.1C134.1,159.2,132.1,161.3,128.5,161.3z"/>
	<polygon points="173.2,186.5 185.3,186.5 185.3,175.3 167.6,175.3 167.6,175.3 167.6,168.3 183,168.3 183,157.8 167.6,157.8 
		167.6,150.9 184.7,150.9 184.7,139.8 154.8,139.8 154.8,149.7 79.8,0 75.5,0 0,150.7 0,156.7 77.7,1.7 154.8,155.6 154.8,186.5 
		170.3,186.5 240.3,326.3 243.3,326.3 	"/>
	<path d="M206.4,139.8l-18.3,46.7h13.8l2.6-7.6H221l2.6,7.6h14.2L219,139.8H206.4z M207.6,168.8l5.1-14.5l5.2,14.5H207.6z"/>
	<polygon points="293.7,139.8 281.2,139.8 271.4,162.1 271.4,0 268.8,0 268.8,162.1 259,139.8 246.5,139.8 239.6,186.5 252.3,186.5 
		255.8,159.6 268.8,186.5 268.8,326.3 271.4,326.3 271.4,186.5 284.4,159.6 287.9,186.5 300.6,186.5 	"/>
</g>
</svg>
