<?xml version="1.0" encoding="utf-8"?>
<!-- Generator: Adobe Illustrator 27.5.0, SVG Export Plug-In . SVG Version: 6.00 Build 0)  -->
<svg version="1.1" id="레이어_1" xmlns="http://www.w3.org/2000/svg" xmlns:xlink="http://www.w3.org/1999/xlink" x="0px"
	 y="0px" viewBox="0 0 1024 312.1" style="enable-background:new 0 0 1024 312.1;" xml:space="preserve">
<style type="text/css">
	.st0{fill:#FFFFFF;}
</style>
<g>
	<path class="st0" d="M403.2,118.6h-18.4v31.8h18.4c11.3,0,17.8-6.8,17.8-16C421,125.3,414.5,118.6,403.2,118.6z"/>
	<polygon class="st0" points="651.6,173.9 683.8,173.9 667.6,128.5 	"/>
	<polygon class="st0" points="0,0 0,117.1 58.7,0 	"/>
	<polygon class="st0" points="1024,0 851.8,0 851.8,152.9 882.5,82.7 921.8,82.7 943.4,229.3 903.5,229.3 892.5,144.9 851.8,229.5 
		851.8,312.1 1024,312.1 	"/>
	<path class="st0" d="M485.9,132.6L419.5,0H68L0,135.8v176.3h575.8l-41.5-82.8h-48.5V132.6z M139.7,232.8c-35.9,0-59-19-59-50.9
		h41.6c0,10.5,8.1,15.6,17.3,15.6c8.5,0,16.5-4.5,16.5-12.5c0-9.2-11.4-11.9-25.4-15.2c-21.2-5.3-48.2-11.8-48.2-45.1
		c0-28.9,21.2-45.4,55.8-45.4c35.1,0,55.3,18,55.3,47.9h-40.5c0-9.3-6.9-13.6-15.3-13.6c-7.2,0-14.1,3.1-14.1,10
		c0,8.3,11,11.1,24.8,14.5c21.6,5.6,49.8,12.8,49.8,46.2C198.3,216.2,173.7,232.8,139.7,232.8z M326.4,119.1h-39.8v110.2H246V119.1
		h-39.8V82.7h120.2V119.1z M423.2,229.3l-23.8-44.8h-14.6v44.8h-40.4V82.7h63.5c31.6,0,54.5,21.2,54.5,51.9c0,18-8.8,32.7-23.3,41.4
		l29.1,53.3H423.2z"/>
	<path class="st0" d="M802.8,144.9l-11,84.4h-39.9l21.6-146.5h39.3l30.6,70.1V0H428.8l57.1,113.9V82.7h93.8v34.9h-53.6v21.6h48.1
		v33.1h-48.1v21.8l0.1,0.1h55.3v35h-37.7l41.5,82.8h258.3v-82.7L802.8,144.9z M701.8,229.3l-8.1-23.8h-51.9l-8.1,23.8h-43.3
		l57.6-146.5h39.5l58.8,146.5H701.8z"/>
	<polygon points="68,0 58.7,0 0,117.1 0,135.8 	"/>
	<path d="M148.5,138c-13.8-3.5-24.8-6.2-24.8-14.5c0-6.8,6.9-10,14.1-10c8.4,0,15.3,4.3,15.3,13.6h40.5c0-29.8-20.1-47.9-55.3-47.9
		c-34.6,0-55.8,16.5-55.8,45.4c0,33.4,27,39.8,48.2,45.1c13.9,3.4,25.4,6,25.4,15.2c0,8-8.1,12.5-16.5,12.5
		c-9.2,0-17.3-5.1-17.3-15.6H80.6c0,31.9,23.2,50.9,59,50.9c34,0,58.6-16.6,58.6-48.6C198.3,150.8,170.1,143.6,148.5,138z"/>
	<polygon points="206.2,119.1 246,119.1 246,229.3 286.6,229.3 286.6,119.1 326.4,119.1 326.4,82.7 206.2,82.7 	"/>
	<path d="M462.4,134.6c0-30.6-22.9-51.9-54.5-51.9h-63.5v146.5h40.4v-44.8h14.6l23.8,44.8h45.1L439.1,176
		C453.6,167.3,462.4,152.6,462.4,134.6z M403.2,150.4h-18.4v-31.8h18.4c11.3,0,17.8,6.7,17.8,15.9
		C421,143.6,414.5,150.4,403.2,150.4z"/>
	<polygon points="543.7,229.3 581.4,229.3 581.4,194.2 526.1,194.2 526.1,194.1 526.1,172.3 574.2,172.3 574.2,139.2 526.1,139.2 
		526.1,117.6 579.7,117.6 579.7,82.7 485.9,82.7 485.9,113.9 428.8,0 419.5,0 485.9,132.6 485.9,229.3 534.3,229.3 575.8,312.1 
		585.2,312.1 	"/>
	<path d="M647.9,82.7l-57.6,146.5h43.3l8.1-23.8h51.9l8.1,23.8h44.5L687.4,82.7H647.9z M651.6,173.9l16.1-45.4l16.2,45.4H651.6z"/>
	<polygon points="921.8,82.7 882.5,82.7 851.8,152.9 851.8,0 843.5,0 843.5,152.9 812.8,82.7 773.6,82.7 751.9,229.3 791.8,229.3 
		802.8,144.9 843.5,229.4 843.5,312.1 851.8,312.1 851.8,229.5 892.5,144.9 903.5,229.3 943.4,229.3 	"/>
</g>
</svg>
