<?xml version="1.0" encoding="utf-8"?>
<!-- Generator: Adobe Illustrator 27.5.0, SVG Export Plug-In . SVG Version: 6.00 Build 0)  -->
<svg version="1.1" id="레이어_1" xmlns="http://www.w3.org/2000/svg" xmlns:xlink="http://www.w3.org/1999/xlink" x="0px"
	 y="0px" viewBox="0 0 1024 312.1" style="enable-background:new 0 0 1024 312.1;" xml:space="preserve">
<style type="text/css">
	.st0{fill:#FFFFFF;}
</style>
<g>
	<path class="st0" d="M403.2,118.6h-18.4v31.8h18.4c11.3,0,17.8-6.8,17.8-16C421,125.3,414.5,118.6,403.2,118.6z"/>
	<polygon class="st0" points="651.6,173.9 683.8,173.9 667.6,128.5 	"/>
	<polygon class="st0" points="0,0 0,117.1 58.7,0 	"/>
	<polygon class="st0" points="1024,0 851.8,0 851.8,152.9 882.5,82.7 921.8,82.7 943.4,229.3 903.5,229.3 892.5,144.9 851.8,229.5 
		851.8,312.1 1024,312.1 	"/>
	<path class="st0" d="M485.9,132.6L419.5,0H68L0,135.8v176.3h575.8l-41.5-82.8h-48.5V132.6z M139.7,232.8c-35.9,0-59-19-59-50.9
		h41.6c0,10.5,8.1,15.6,17.3,15.6c8.5,0,16.5-4.5,16.5-12.5c0-9.2-11.4-11.9-25.4-15.2c-21.2-5.3-48.2-11.8-48.2-45.1
		c0-28.9,21.2-45.4,55.8-45.4c35.1,0,55.3,18,55.3,47.9h-40.5c0-9.3-6.9-13.6-15.3-13.6c-7.2,0-14.1,3.1-14.1,10
		c0,8.3,11,11.1,24.8,14.5c21.6,5.6,49.8,12.8,49.8,46.2C198.3,216.2,173.7,232.8,139.7,232.8z M326.4,119.1h-39.8v110.2H246V119.1
		h-39.8V82.7h120.2V119.1z M423.2,229.3l-23.8-44.8h-14.6v44.8h-40.4V82.7h63.5c31.6,0,54.5,21.2,54.5,51.9c0,18-8.8,32.7-23.3,41.4
		l29.1,53.3H423.2z"/>
	<path class="st0" d="M802.8,144.9l-11,84.4h-39.9l21.6-146.5h39.3l30.6,70.1V0H428.8l57.1,113.9V82.7h93.8v34.9h-53.6v21.6h48.1
		v33.1h-48.1v21.8l0.1,0.1h55.3v35h-37.7l41.5,82.8h258.3v-82.7L802.8,144.9z M701.8,229.3l-8.1-23.8h-51.9l-8.1,23.8h-43.3
		l57.6-146.5h39.5l58.8,146.5H701.8z"/>
</g>
<g>
	<path class="st0" d="M403.2-234.8h-18.4v31.8h18.4c11.3,0,17.8-6.8,17.8-16C421-228.1,414.5-234.8,403.2-234.8z"/>
	<polygon class="st0" points="651.6,-179.6 683.8,-179.6 667.6,-225 	"/>
	<polygon class="st0" points="0,-353.4 0,-236.3 58.7,-353.4 	"/>
	<polygon class="st0" points="1024,-353.4 851.8,-353.4 851.8,-200.5 882.5,-270.7 921.8,-270.7 943.4,-124.1 903.5,-124.1 
		892.5,-208.5 851.8,-124 851.8,-41.3 1024,-41.3 	"/>
	<path class="st0" d="M485.9-220.9l-66.4-132.6H68L0-217.6v176.3h575.8l-41.5-82.8h-48.5V-220.9z M139.7-120.6
		c-35.9,0-59-19-59-50.9h41.6c0,10.5,8.1,15.6,17.3,15.6c8.5,0,16.5-4.5,16.5-12.5c0-9.2-11.4-11.9-25.4-15.2
		c-21.2-5.3-48.2-11.8-48.2-45.1c0-28.9,21.2-45.4,55.8-45.4c35.1,0,55.3,18,55.3,47.9h-40.5c0-9.3-6.9-13.6-15.3-13.6
		c-7.2,0-14.1,3.1-14.1,10c0,8.3,11,11.1,24.8,14.5c21.6,5.6,49.8,12.8,49.8,46.2C198.3-137.2,173.7-120.6,139.7-120.6z
		 M326.4-234.3h-39.8v110.2H246v-110.2h-39.8v-36.3h120.2V-234.3z M423.2-124.2L399.4-169h-14.6v44.8h-40.4v-146.5h63.5
		c31.6,0,54.5,21.2,54.5,51.9c0,18-8.8,32.7-23.3,41.4l29.1,53.3H423.2z"/>
	<path class="st0" d="M802.8-208.5l-11,84.4h-39.9l21.6-146.5h39.3l30.6,70.1v-152.9H428.8l57.1,113.9v-31.2h93.8v34.9h-53.6v21.6
		h48.1v33.1h-48.1v21.8l0.1,0.1h55.3v35h-37.7l41.5,82.8h258.3V-124L802.8-208.5z M701.8-124.2l-8.1-23.8h-51.9l-8.1,23.8h-43.3
		l57.6-146.5h39.5l58.8,146.5H701.8z"/>
</g>
</svg>
