<?xml version="1.0" encoding="utf-8"?>
<!-- Generator: Adobe Illustrator 27.5.0, SVG Export Plug-In . SVG Version: 6.00 Build 0)  -->
<svg version="1.1" id="레이어_1" xmlns="http://www.w3.org/2000/svg" xmlns:xlink="http://www.w3.org/1999/xlink" x="0px"
	 y="0px" viewBox="0 0 326.3 326.3" style="enable-background:new 0 0 326.3 326.3;" xml:space="preserve">
<g>
	<path d="M154.8,155.6L77.7,1.7L0,156.7v169.6h240.3l-70-139.8h-15.4V155.6z M44.5,187.6c-11.4,0-18.8-6-18.8-16.2H39
		c0,3.3,2.6,5,5.5,5c2.7,0,5.3-1.4,5.3-4c0-2.9-3.6-3.8-8.1-4.9c-6.7-1.7-15.4-3.7-15.4-14.4c0-9.2,6.8-14.5,17.8-14.5
		c11.2,0,17.6,5.7,17.6,15.2H48.8c0-3-2.2-4.3-4.9-4.3c-2.3,0-4.5,1-4.5,3.2c0,2.7,3.5,3.5,7.9,4.6c6.9,1.8,15.9,4.1,15.9,14.7
		C63.2,182.3,55.4,187.6,44.5,187.6z M104,151.4H91.3v35.1H78.4v-35.1H65.7v-11.6H104V151.4z M134.8,186.5l-7.6-14.3h-4.7v14.3
		h-12.9v-46.7H130c10.1,0,17.4,6.8,17.4,16.5c0,5.7-2.8,10.4-7.4,13.2l9.3,17H134.8z"/>
	<path d="M128.5,151.2h-5.9v10.1h5.9c3.6,0,5.7-2.2,5.7-5.1C134.1,153.3,132.1,151.2,128.5,151.2z"/>
	<path d="M255.8,159.6l-3.5,26.9h-12.7l6.9-46.7H259l9.8,22.3V0H79.8l75,149.7v-9.9h29.9v11.1h-17.1v6.9H183v10.6h-15.3v7l0,0h17.6
		v11.2h-12l70,139.8h25.5V186.5L255.8,159.6z M223.6,186.5l-2.6-7.6h-16.6l-2.6,7.6h-13.8l18.3-46.7H219l18.7,46.7H223.6z"/>
	<polygon points="271.4,162.1 281.2,139.8 293.7,139.8 300.6,186.5 287.9,186.5 284.4,159.6 271.4,186.5 271.4,326.3 326.3,326.3 
		326.3,0 271.4,0 	"/>
	<polygon points="207.6,168.8 217.9,168.8 212.7,154.3 	"/>
	<polygon points="0,0 0,150.7 75.5,0 	"/>
</g>
</svg>
