<?xml version="1.0" encoding="utf-8"?>
<!-- Generator: Adobe Illustrator 27.7.0, SVG Export Plug-In . SVG Version: 6.00 Build 0)  -->
<svg version="1.1" id="Layer_1" xmlns="http://www.w3.org/2000/svg" xmlns:xlink="http://www.w3.org/1999/xlink" x="0px" y="0px"
	 viewBox="0 0 800 249.6" style="enable-background:new 0 0 800 249.6;" xml:space="preserve">
<style type="text/css">
	.st0{fill:#FFFFFF;}
	.st1{fill:#303030;}
	.st2{fill:#3B2214;}
	.st3{fill:#FFE9E6;}
	.st4{fill:#FFFCFC;}
	.st5{fill:#FFA4A4;}
	.st6{fill:#FDCDC6;}
	.st7{fill:#3F81B4;}
	.st8{fill:#CCCCCC;}
	.st9{fill:#FFCC00;}
	.st10{fill:#FF6666;}
	.st11{fill:#7FCC5E;}
	.st12{fill:#754C28;}
	.st13{fill:#A87B50;}
	.st14{fill:#00CC5E;}
</style>
<g>
	<path class="st0" d="M751.6,49.5c0-1.7-1.3-3-3-3c-0.7,0-1.3,0.2-1.8,0.6c-1.2-0.9-2.8-1.5-4.4-1.5l-0.1,0l0-0.1
		c0-3.3-2.6-5.9-5.9-5.9c-1,0-2,0.3-2.9,0.8c-1.3-2.2-3.6-3.6-6.3-3.6c-4,0-7.3,3.3-7.3,7.3c0,0.6,0.1,1.1,0.2,1.6
		c-1.4,0.2-2.8,0.7-3.8,1.6c-0.5-0.5-1.2-0.8-2-0.8c-1.7,0-3,1.3-3,3c0,1.7,1.3,3,3,3c0.3,0,0.5,0,0.8-0.1h32.8
		c0.3,0.1,0.5,0.1,0.8,0.1c0.3,0,0.5,0,0.8-0.1h0.4l0-0.1C750.8,51.8,751.6,50.7,751.6,49.5z"/>
	<path class="st1" d="M748.6,52.6c-0.3,0-0.5,0-0.8-0.1h-32.8c-0.3,0.1-0.5,0.1-0.8,0.1c-1.7,0-3.1-1.4-3.1-3.1
		c0-1.7,1.4-3.1,3.1-3.1c0.7,0,1.4,0.3,2,0.7c1.1-0.9,2.4-1.4,3.7-1.6c-0.1-0.5-0.2-1-0.2-1.5c0-4.1,3.3-7.4,7.4-7.4
		c2.6,0,5,1.4,6.4,3.6c0.9-0.5,1.9-0.7,2.8-0.7c3.3,0,6,2.7,6,6v0h0c1.6,0,3.1,0.5,4.4,1.5c0.5-0.4,1.1-0.6,1.8-0.6
		c1.7,0,3.1,1.4,3.1,3.1c0,1.2-0.7,2.3-1.8,2.8l0,0.1l0,0.1l-0.1,0h-0.4C749.1,52.5,748.8,52.6,748.6,52.6z M714.9,52.3h32.8l0,0
		c0.5,0.1,1,0.1,1.5,0l0,0h0.3l0,0l0.1-0.1c1.1-0.5,1.8-1.5,1.8-2.7c0-1.6-1.3-2.9-2.9-2.9c-0.6,0-1.2,0.2-1.7,0.6l-0.1,0
		c-1.3-1-2.8-1.5-4.4-1.5l-0.1,0l-0.1,0l0-0.1l0-0.1l0-0.1c0-3.2-2.6-5.8-5.8-5.8c-1,0-2,0.3-2.8,0.7l-0.1,0
		c-1.3-2.2-3.7-3.6-6.2-3.6c-4,0-7.2,3.2-7.2,7.2c0,0.5,0.1,1.1,0.2,1.6l0,0.1l-0.1,0c-1.4,0.2-2.7,0.7-3.8,1.6l-0.1,0
		c-0.5-0.5-1.2-0.7-1.9-0.7c-1.6,0-2.9,1.3-2.9,2.9c0,1.6,1.3,2.9,2.9,2.9C714.4,52.4,714.6,52.3,714.9,52.3L714.9,52.3z"/>
	<path class="st0" d="M772.5,33.6c0-1.3-1-2.3-2.3-2.3c-0.5,0-1,0.2-1.4,0.4c-0.9-0.7-2.1-1.1-3.4-1.1l-0.1,0l0-0.1
		c0-2.5-2-4.5-4.5-4.5c-0.8,0-1.5,0.2-2.2,0.6c-1-1.7-2.8-2.8-4.8-2.8c-3.1,0-5.6,2.5-5.6,5.6c0,0.4,0,0.8,0.1,1.2
		c-1.1,0.1-2.1,0.6-2.9,1.2c-0.4-0.4-0.9-0.6-1.5-0.6c-1.3,0-2.3,1-2.3,2.3c0,1.3,1,2.3,2.3,2.3c0.2,0,0.4,0,0.6-0.1h25
		c0.2,0.1,0.4,0.1,0.6,0.1s0.4,0,0.6-0.1h0.3l0-0.1C771.9,35.3,772.5,34.5,772.5,33.6z"/>
	<path class="st1" d="M770.2,35.9c-0.2,0-0.4,0-0.6-0.1h-24.9c-0.2,0.1-0.4,0.1-0.6,0.1c-1.3,0-2.4-1.1-2.4-2.4
		c0-1.3,1.1-2.4,2.4-2.4c0.6,0,1.1,0.2,1.5,0.6c0.8-0.6,1.8-1,2.8-1.2c-0.1-0.4-0.1-0.8-0.1-1.1c0-3.1,2.5-5.7,5.7-5.7
		c2,0,3.8,1,4.9,2.7c0.7-0.4,1.4-0.5,2.2-0.5c2.5,0,4.6,2,4.6,4.6c1.2,0,2.4,0.4,3.4,1.1c0.4-0.3,0.9-0.4,1.3-0.4
		c1.3,0,2.4,1.1,2.4,2.4c0,0.9-0.5,1.8-1.4,2.2l0,0l0,0.1l-0.1,0h-0.3C770.6,35.9,770.4,35.9,770.2,35.9z M744.6,35.6h25l0,0
		c0.4,0.1,0.8,0.1,1.2,0l0,0h0.2l0.1-0.1c0.8-0.3,1.3-1.1,1.3-2c0-1.2-1-2.2-2.2-2.2c-0.5,0-0.9,0.1-1.3,0.4l-0.1,0
		c-1-0.7-2.1-1.1-3.3-1.1l-0.1,0l-0.1,0l0-0.1l0,0l0,0c0-2.4-2-4.4-4.4-4.4c-0.7,0-1.5,0.2-2.1,0.6l-0.1,0c-1-1.7-2.8-2.7-4.7-2.7
		c-3,0-5.5,2.5-5.5,5.5c0,0.4,0,0.8,0.1,1.2l0,0.1l-0.1,0c-1,0.1-2,0.5-2.9,1.2l-0.1,0c-0.4-0.4-0.9-0.6-1.4-0.6
		c-1.2,0-2.2,1-2.2,2.2c0,1.2,1,2.2,2.2,2.2C744.2,35.7,744.4,35.7,744.6,35.6L744.6,35.6z"/>
	<path class="st2" d="M38,134.9c0,0,7.8,12.2,5.3,17c0,0,6.4,0.8,15.7-7.4l-8.7-12.7L38,134.9z"/>
	<path class="st1" d="M43.7,152.1c-0.3,0-0.5,0-0.5,0l-0.1-0.1v-0.1c2.5-4.8-5.2-16.8-5.3-16.9l0-0.1l0.1-0.1l12.3-3.1l0.1,0
		l8.7,12.7l0,0.1C51.2,151.5,45.4,152.1,43.7,152.1z M43.4,151.8c1,0.1,7,0,15.4-7.3l-8.6-12.6l-12,3
		C39,136.3,45.6,147.1,43.4,151.8z"/>
	<path class="st3" d="M73.8,143.7c0,0,13.9,1.2,24-13.8l8.5,3.8c0,0-10.6,20.1-28.8,16.1"/>
	<path class="st1" d="M82.3,150.4c-1.5,0-3.1-0.2-4.7-0.5c-0.1,0-0.1-0.1-0.1-0.1c0-0.1,0.1-0.1,0.1-0.1c9.3,2.1,16.6-2.4,21.1-6.5
		c4.5-4.1,7.1-8.7,7.5-9.4l-8.4-3.7c-5.2,7.7-11.5,11.1-15.8,12.5c-4.7,1.6-8.2,1.3-8.3,1.3c-0.1,0-0.1-0.1-0.1-0.1
		c0-0.1,0.1-0.1,0.1-0.1c0,0,3.5,0.3,8.2-1.3c4.3-1.4,10.5-4.8,15.7-12.5l0.1,0l8.5,3.8l0.1,0.1l0,0.1c0,0.1-2.7,5.1-7.6,9.6
		C95.1,146.7,89.5,150.4,82.3,150.4z"/>
	<path class="st3" d="M70.4,174.4l4.6,12.6l12.7-4.6l-3-9.8c0,0-2.8-6.5-9.1-4.7C75.6,167.7,69.7,168.8,70.4,174.4z"/>
	<path class="st1" d="M74.9,187L74.9,187l-4.7-12.6l0,0c-0.6-5.6,5.2-6.7,5.3-6.7c6.3-1.8,9.2,4.7,9.2,4.8l3,9.8l-0.1,0.1L74.9,187
		L74.9,187z M70.5,174.3l4.5,12.5l12.5-4.6l-3-9.7c0-0.1-2.8-6.4-9-4.7C75.3,167.9,69.9,168.9,70.5,174.3z"/>
	<path class="st3" d="M58.4,173.4v13.4h13.5l0.6-10.2c0,0-0.4-7.1-6.9-7.6C65.5,168.9,59.7,167.9,58.4,173.4z"/>
	<path class="st1" d="M71.9,186.8H58.4c-0.1,0-0.1,0-0.1-0.1v-13.4l0,0c1.3-5.5,7.2-4.5,7.3-4.5c6.5,0.5,7,7.6,7,7.7L72,186.7
		C72,186.8,71.9,186.8,71.9,186.8z M58.5,186.6h13.3l0.5-10.2c0-0.1-0.5-7-6.8-7.4c-0.2,0-5.8-1-7,4.3V186.6z"/>
	<polygon class="st4" points="87.7,182.3 74.9,186.9 78.5,196.6 90.9,192.1 	"/>
	<path class="st1" d="M78.5,196.7L78.5,196.7l-3.6-9.8l0-0.1l0.1-0.1l12.7-4.6l0.1,0l0.1,0.1l3.2,9.8l-0.1,0.1L78.5,196.7
		L78.5,196.7z M75.1,187l3.5,9.5l12.2-4.4l-3.2-9.6L75.1,187z"/>
	<path class="st4" d="M90.9,192.1c0,0,5,1.5,6.2,4.6l-16.5,6l-2.2-6L90.9,192.1z"/>
	<path class="st1" d="M80.6,202.8L80.6,202.8l-2.3-6.1l0-0.1l0.1-0.1l12.5-4.6l0.1,0c0.2,0.1,5.1,1.5,6.2,4.7l0,0.1l-0.1,0.1
		L80.6,202.8L80.6,202.8z M78.5,196.7l2.1,5.8l16.3-5.9c-1.1-2.8-5.6-4.3-6-4.4L78.5,196.7z"/>
	<path class="st3" d="M73.3,143.6v-5c0-2.7-2.2-5-5-5h-1.5c-2.7,0-5,2.2-5,5v5l13.1,2L73.3,143.6z"/>
	<path class="st1" d="M74.9,145.7L74.9,145.7l-13.1-2l-0.1-0.1v-5c0-2.8,2.3-5.1,5.1-5.1h1.5c2.8,0,5.1,2.3,5.1,5.1v5l1.6,2
		L74.9,145.7L74.9,145.7z M61.9,143.5l12.7,2l-1.4-1.8l0-0.1v-5c0-2.7-2.2-4.9-4.9-4.9h-1.5c-2.7,0-4.9,2.2-4.9,4.9V143.5z"/>
	<path class="st3" d="M61.6,143c0,0-4.1,1.7-4.1,12.3L57,165.7h25.6L78.5,150c0,0-1.5-5.5-5-6.1L61.6,143z"/>
	<path class="st1" d="M82.6,165.8H57l-0.1,0l0-0.1l0.5-10.4c0-10.6,4-12.4,4.2-12.4l0,0l11.9,0.9c3.5,0.6,5,6,5.1,6.2l4.1,15.7
		L82.6,165.8L82.6,165.8z M57.1,165.6h25.4L78.4,150c0-0.1-1.5-5.5-4.9-6.1l-11.9-0.9c-0.3,0.2-4,2.2-4,12.2L57.1,165.6z"/>
	<path class="st3" d="M57,165.9L57,165.9c-0.6,4.9,2.7,9.3,7,9.3l8.7,2.9c4.2,0,10.1-7,9.7-11.8l0-0.3H57z"/>
	<path class="st1" d="M72.7,178.2L72.7,178.2l-8.8-2.9c-1.9,0-3.6-0.8-5-2.3c-1.6-1.9-2.4-4.4-2.1-7.1l0.1-0.1h25.4
		c0.1,0,0.1,0,0.1,0.1l0,0.3c0.2,2.4-1.2,5.8-3.7,8.4C76.8,176.8,74.5,178.2,72.7,178.2z M57,166c-0.3,2.5,0.5,5,2.1,6.8
		c1.3,1.5,3,2.3,4.8,2.3l0,0l8.7,2.8c1.7,0,4-1.3,5.9-3.5c2.4-2.6,3.8-5.9,3.6-8.3l0-0.2H57z"/>
	<path class="st5" d="M58.9,143.9c0,0-3,21.6-2.8,23.9c0.2,2.3-5.1,12.5-5.1,12.5s5.5,3.2,10.8,2.3c5.3-0.8,8.9,0.2,9.7,0.4
		c0.8,0.2,4.2,0.2,7.4-1.5c3.2-1.7,10.2-1.9,10.2-1.9l-7-15.9l-4-22L58.9,143.9z"/>
	<path class="st1" d="M72.7,183.3c-0.5,0-0.9,0-1.2-0.1l-0.2,0c-1.1-0.3-4.6-1.2-9.5-0.4c-5.3,0.8-10.8-2.3-10.9-2.3l0-0.1
		c0.1-0.1,5.3-10.2,5.1-12.4c-0.2-2.3,2.6-23.1,2.8-23.9l0.1-0.1l19.3-2.1c0.1,0,0.1,0,0.1,0.1l4,22l7,15.9l0,0.1l-0.1,0
		c-0.1,0-7,0.2-10.1,1.9C76.7,182.9,74.2,183.3,72.7,183.3z M65.9,182.2c2.8,0,4.8,0.5,5.6,0.7l0.2,0c0.8,0.2,4.2,0.2,7.3-1.5
		c2.9-1.5,9-1.9,10.1-1.9l-6.9-15.7l-4-21.9L59,144c-0.2,1.4-2.9,21.6-2.7,23.8c0.2,2.2-4.5,11.4-5,12.5c0.7,0.4,5.8,3,10.6,2.3
		C63.3,182.3,64.7,182.2,65.9,182.2z"/>
	<polygon class="st4" points="71.9,186.7 58.4,186.7 58.4,197 71.6,197 	"/>
	<path class="st1" d="M71.6,197.2H58.4c-0.1,0-0.1,0-0.1-0.1v-10.3c0-0.1,0-0.1,0.1-0.1h13.5l0.1,0l0,0.1l-0.3,10.3
		C71.7,197.1,71.6,197.2,71.6,197.2z M58.5,196.9h13l0.3-10.1H58.5V196.9z"/>
	<path class="st4" d="M71.6,197c0,0,4.2,3.1,4.2,6.4H58.2V197H71.6z"/>
	<path class="st1" d="M75.8,203.6H58.2c-0.1,0-0.1,0-0.1-0.1V197c0-0.1,0-0.1,0.1-0.1h13.3l0.1,0c0.2,0.1,4.3,3.2,4.3,6.5
		C75.9,203.5,75.8,203.6,75.8,203.6z M58.3,203.4h17.3c-0.1-3.1-3.8-6-4.1-6.2H58.3V203.4z"/>
	<path class="st2" d="M89.8,112.1c0,0,3.4,10.8,6.1,11.4l-3.8,3.6L89.8,112.1z"/>
	<path class="st1" d="M92.1,127.3L92.1,127.3l-0.1-0.1l-2.3-15l0.1-0.1l0.1,0.1c0,0.1,3.4,10.7,6.1,11.4l0.1,0.1l0,0.1L92.1,127.3
		L92.1,127.3z M90.1,113.4l2.1,13.6l3.5-3.3C93.5,122.8,91,116.1,90.1,113.4z"/>
	<path class="st3" d="M91.6,117.6c3.8,11.3,3.1,21.7-14.8,27.8c-16.5,5.5-24.8-1.9-28.6-13.2c-3.8-11.3-4.6-25.3,15.2-30.5
		C84.1,96.2,87.8,106.3,91.6,117.6z"/>
	<path class="st1" d="M66.5,147.3c-3.3,0-6.3-0.7-8.9-2.2c-4.3-2.4-7.5-6.7-9.6-13c-2.9-8.5-2.9-15.1-0.1-20.3
		c2.6-4.8,7.8-8.3,15.4-10.3c9.6-2.5,16.1-2,20.6,1.7c4.1,3.3,6,8.9,7.8,14.3c2.2,6.6,2.5,11.7,0.7,15.9c-2.1,5.2-7.2,9.1-15.7,12
		C73.1,146.7,69.7,147.3,66.5,147.3z M73.6,100.3c-2.9,0-6.2,0.5-10.3,1.5c-7.5,2-12.6,5.4-15.2,10.2c-2.8,5.1-2.7,11.7,0.1,20.1
		c2.1,6.2,5.3,10.5,9.5,12.8c4.9,2.7,11.3,2.8,19,0.3c8.4-2.8,13.4-6.7,15.5-11.9c1.7-4.2,1.5-9.2-0.8-15.8
		C88.5,108.7,85.7,100.3,73.6,100.3z"/>
	<path class="st1" d="M89.1,123.3c0.4,1.2-0.1,2.4-1,2.7c-0.9,0.3-2-0.4-2.3-1.6c-0.4-1.2,0.1-2.4,1-2.7
		C87.7,121.4,88.7,122.1,89.1,123.3z"/>
	<path class="st6" d="M70.1,133.6c0.7,2.3-0.6,4.8-2.9,5.6c-2.3,0.7-4.8-0.6-5.6-2.9c-0.7-2.3,0.6-4.8,2.9-5.6
		C66.8,129.9,69.3,131.2,70.1,133.6z"/>
	<path class="st1" d="M71.5,128.9c0.4,1.2-0.1,2.4-1,2.7c-0.9,0.3-2-0.4-2.3-1.6c-0.4-1.2,0.1-2.4,1-2.7
		C70,127,71.1,127.7,71.5,128.9z"/>
	<path class="st6" d="M92.1,121.5c-1.9,1-2.8,3.2-2.2,5.3c0.4,1.4,1.5,2.4,2.9,2.9C93.3,126.7,92.6,123.4,92.1,121.5z"/>
	<path class="st2" d="M90.1,108.3c-0.5-5.6-2.8-11.7-6.4-15.6c-3.3-3.6-7.6-5.6-12.4-6.2c-5.4-0.7-11.1,0.4-16.1,2.5
		c-5.9,2.5-11.6,5.9-16.1,10.5c-9.5,9.6-8.8,25.2-1.1,35.4c2,2.7,6.1,3.4,9.2,4.5c-1.6-4.3,2.2-4.1,4-6c1.9-2,3.1-6.1,3.1-8.8
		c-0.1-2.3-0.9-4.5-1.1-6.8c-0.2-3.8,1.8-7.4,4.6-10.1c4.5-4.4,10.9-7.9,17.4-7.7c6.8,0.3,13.1,6.7,14.9,13
		C90.2,111.6,90.2,110,90.1,108.3z"/>
	<path class="st1" d="M47.2,139.5L47.2,139.5c-0.7-0.2-1.4-0.4-2.1-0.7c-2.8-0.8-5.6-1.7-7.2-3.8c-3.9-5.2-6-11.6-5.9-18
		c0.1-6.8,2.6-13,7-17.5c4.2-4.3,9.6-7.8,16.1-10.5c3.8-1.6,9.7-3.3,16.1-2.5c4.9,0.6,9.3,2.8,12.5,6.3c3.5,3.8,6,9.8,6.4,15.7
		c0.1,1.7,0.1,3.3-0.1,4.8l-0.1,0.1l-0.1-0.1c-1.7-6-7.8-12.7-14.8-13c-5.7-0.2-12.1,2.6-17.3,7.6c-3,2.9-4.7,6.6-4.5,10
		c0.1,1.1,0.3,2.2,0.5,3.3c0.2,1.1,0.5,2.3,0.5,3.5c0.1,2.7-1.1,6.8-3.1,8.9c-0.6,0.6-1.3,1-2,1.3c-1.7,0.9-3.1,1.6-2,4.5
		L47.2,139.5L47.2,139.5z M68,86.3c-5.1,0-9.6,1.4-12.7,2.7c-6.5,2.7-11.9,6.2-16.1,10.5c-8.9,9-9.4,24.2-1.1,35.3
		c1.5,2.1,4.4,2.9,7.1,3.8c0.7,0.2,1.3,0.4,1.9,0.6c-1-2.9,0.5-3.7,2.2-4.6c0.7-0.4,1.4-0.7,1.9-1.3c2-2,3.1-6.1,3-8.8
		c0-1.2-0.3-2.3-0.5-3.5c-0.2-1.1-0.5-2.2-0.5-3.3c-0.2-3.5,1.5-7.2,4.6-10.2c5.2-5,11.8-7.9,17.5-7.7c6.8,0.3,12.9,6.7,14.8,12.6
		c0.1-1.3,0.1-2.8,0-4.2c-0.5-5.9-2.9-11.8-6.4-15.6c-3.2-3.5-7.5-5.6-12.4-6.2C70.1,86.4,69,86.3,68,86.3z"/>
	<path class="st3" d="M51.9,138.7c-0.3,1.6-2,2.7-3.5,2.4c-0.5-0.1-1-0.3-1.5-0.6c-1-0.7-2-1.6-2.3-2.8c-0.4-1.2-0.2-2.6,0.8-3.4
		c1.7-1.6,3.8-0.2,4.8,1.4"/>
	<path class="st1" d="M48.9,141.3c-0.2,0-0.4,0-0.5-0.1c-0.5-0.1-1-0.3-1.5-0.6c-0.8-0.5-1.9-1.4-2.4-2.8c-0.4-1.3-0.1-2.7,0.8-3.5
		c0.6-0.6,1.3-0.8,2.1-0.7c1.2,0.2,2.3,1.2,2.9,2.2l0,0.1l-0.1,0c-0.6-0.9-1.6-1.9-2.8-2.1c-0.7-0.1-1.3,0.1-1.9,0.7
		c-0.8,0.8-1.1,2.1-0.7,3.3c0.3,1,1.2,2,2.3,2.7c0.5,0.3,1,0.5,1.4,0.6c0.7,0.1,1.5,0,2.2-0.5c0.7-0.5,1.1-1.1,1.2-1.9
		c0-0.1,0.1-0.1,0.1-0.1c0.1,0,0.1,0.1,0.1,0.1c-0.1,0.8-0.6,1.5-1.3,2C50.2,141.1,49.5,141.3,48.9,141.3z"/>
	<path class="st3" d="M47.6,136.6c1.2,0,2.4,0.8,2.9,1.9c-0.4,0.2-0.8,0.4-1.2,0.4c-0.4,0-0.8-0.5-0.7-0.9c0.2-0.2,0.4-0.4,0.6-0.6"
		/>
	<path class="st1" d="M49.5,139l-0.1,0c-0.3,0-0.5-0.2-0.7-0.4c-0.1-0.2-0.1-0.4-0.1-0.6l0,0l0.6-0.6l0.1,0l0,0.1l-0.6,0.6
		c0,0.2,0,0.3,0.1,0.4c0.1,0.2,0.3,0.3,0.5,0.3c0.3,0,0.7-0.1,1.1-0.3c-0.5-1-1.6-1.7-2.8-1.7c-0.1,0-0.1,0-0.1-0.1
		c0-0.1,0-0.1,0.1-0.1h0c1.3,0,2.5,0.8,3,1.9l0,0.1C50.3,138.8,49.9,139,49.5,139z"/>
	<polygon class="st1" points="68.9,127.9 68.9,127.9 68.8,127.7 69.4,126.6 69.6,126.5 69.6,126.7 69,127.8 	"/>
	<path class="st1" d="M86.7,122.3L86.7,122.3l-0.1-0.2c0.3-0.4,0.5-0.9,0.4-1.5c0-0.1,0-0.1,0.1-0.1c0.1,0,0.1,0,0.1,0.1
		C87.3,121.2,87.1,121.8,86.7,122.3L86.7,122.3z"/>
	<path class="st1" d="M80.4,128.2L80.4,128.2l-0.1-0.2c0.2-0.1,0.5-0.3,0.6-0.5c0.1-0.2,0.1-0.5-0.1-0.6c-0.2-0.2-0.5-0.1-0.8,0
		c-0.3,0.1-0.4,0.2-0.4,0.4c0,0.1-0.1,0.1-0.1,0.1c-0.1,0-0.1-0.1-0.1-0.1c0-0.2,0.2-0.4,0.6-0.6c0.3-0.1,0.7-0.2,1,0
		c0.3,0.2,0.3,0.6,0.2,0.9C81,127.9,80.7,128,80.4,128.2L80.4,128.2z"/>
	<path class="st1" d="M65.5,124.2L65.5,124.2c-0.1,0-0.1-0.1-0.1-0.1c0.1-1,0.8-1.9,1.7-2.3l0.1,0.1l-0.1,0.1
		c-0.9,0.4-1.5,1.2-1.6,2.1L65.5,124.2z"/>
	<path class="st1" d="M85.8,116.1L85.8,116.1c-0.7-0.6-1.7-0.7-2.5-0.3l-0.1,0l0-0.1c0.8-0.5,1.9-0.3,2.6,0.3L85.8,116.1L85.8,116.1
		z"/>
	<polygon class="st7" points="68.7,146.9 69.5,169.4 75.1,169.7 87.5,162.3 87.5,141.1 74.6,147.3 	"/>
	<path class="st1" d="M75.1,169.8L75.1,169.8l-5.6-0.3c-0.1,0-0.1,0-0.1-0.1l-0.9-22.4l0-0.1l0.1,0l5.9,0.4l12.8-6.3l0.1,0l0,0.1
		v21.3l-0.1,0.1L75.1,169.8L75.1,169.8z M69.6,169.3l5.5,0.3l12.3-7.3v-21l-12.7,6.2l-0.1,0l-5.9-0.4L69.6,169.3z"/>
	<polygon class="st8" points="68.7,146.9 74.6,147.3 87.5,141.1 81.7,141.1 	"/>
	<path class="st1" d="M74.6,147.4L74.6,147.4l-6-0.4l-0.1-0.1l0.1-0.1l13-5.9l0,0h5.8l0.1,0.1l-0.1,0.1L74.6,147.4L74.6,147.4z
		 M69.1,146.9l5.5,0.4l12.4-6.1h-5.3L69.1,146.9z"/>
	<line class="st8" x1="74.6" y1="147.3" x2="75.1" y2="169.7"/>
	<path class="st1" d="M75.1,169.8c-0.1,0-0.1,0-0.1-0.1l-0.5-22.3c0-0.1,0-0.1,0.1-0.1c0.1,0,0.1,0,0.1,0.1l0.5,22.3
		C75.2,169.7,75.2,169.8,75.1,169.8L75.1,169.8z"/>
	<path class="st9" d="M84.9,150.2l-3,1.2l-0.1-3.2c0-0.1-0.1-0.2-0.2-0.1l-0.9,0.4c-0.1,0-0.2,0.2-0.2,0.3l0.1,3.2l-3,1.2
		c-0.1,0-0.2,0.2-0.2,0.3l0,1c0,0.1,0.1,0.2,0.2,0.1l3-1.2l0.2,6.7c0,0.1,0.1,0.2,0.2,0.1l0.9-0.4c0.1,0,0.2-0.2,0.2-0.3l-0.2-6.7
		l3-1.2c0.1,0,0.2-0.2,0.2-0.3l0-1C85.1,150.2,85,150.2,84.9,150.2z"/>
	<path class="st0" d="M77.7,153.5l3-1.2l0-0.3l-3,1.2c-0.1,0-0.2,0.2-0.2,0.3l0,0.3C77.5,153.7,77.6,153.6,77.7,153.5z"/>
	<path class="st0" d="M84.9,150.2l-3,1.2l0,0.3l3-1.2c0.1,0,0.2,0,0.2,0.1l0-0.3C85.1,150.2,85,150.2,84.9,150.2z"/>
	<path class="st0" d="M80.8,148.8l0.9-0.4c0.1,0,0.2,0,0.2,0.1l0-0.3c0-0.1-0.1-0.2-0.2-0.1l-0.9,0.4c-0.1,0-0.2,0.2-0.2,0.3l0,0.3
		C80.6,149,80.6,148.9,80.8,148.8z"/>
	<path class="st1" d="M81.1,160.3l-0.1,0c-0.1,0-0.1-0.1-0.1-0.2l-0.2-6.6l-2.8,1.2c-0.1,0-0.2,0-0.2,0c-0.1,0-0.1-0.1-0.1-0.2l0-1
		c0-0.2,0.1-0.3,0.3-0.4l2.9-1.2l-0.1-3.1c0-0.2,0.1-0.3,0.3-0.4l0.9-0.4c0.1,0,0.2,0,0.2,0c0.1,0,0.1,0.1,0.1,0.2l0.1,3l2.8-1.2
		c0.1,0,0.2,0,0.2,0c0.1,0,0.1,0.1,0.1,0.2l0,1c0,0.2-0.1,0.3-0.3,0.4l-2.9,1.2l0.2,6.7c0,0.2-0.1,0.3-0.3,0.4l-0.9,0.4L81.1,160.3z
		 M80.7,153.2L80.7,153.2l0.1,0.1l0.2,6.7l0,0l0,0l0.9-0.4c0.1,0,0.1-0.1,0.1-0.2l-0.2-6.7l0.1-0.1l3-1.2c0.1,0,0.1-0.1,0.1-0.2l0-1
		l0,0l0,0l-3,1.2l-0.1,0l0-0.1l-0.1-3.2l0,0l0,0l-0.9,0.4c-0.1,0-0.1,0.1-0.1,0.2l0.1,3.2l-0.1,0.1l-3,1.2c-0.1,0-0.1,0.1-0.1,0.2
		l0,1l0,0l0,0L80.7,153.2L80.7,153.2z"/>
	<polygon class="st1" points="71,147 70.9,147 70.9,146.8 82.8,141.1 83,141.2 82.9,141.3 71,147 	"/>
	<polygon class="st1" points="72.8,147.3 72.7,147.2 72.8,147.1 85,141.1 85.1,141.2 85.1,141.3 72.9,147.3 	"/>
	<path class="st3" d="M59.1,146.2c0,0-5.1,9.4-4,15.4c0,0,2.7,9.1,16.7,1.9l-1.9-8.8l-6.3,1.8l1-5.7"/>
	<path class="st1" d="M62.4,166.3c-1.3,0-2.5-0.2-3.6-0.7c-3-1.3-3.8-4-3.9-4.1c-1.1-5.9,4-15.4,4-15.5l0.1,0l0,0.1
		c-0.1,0.1-5.1,9.5-4,15.3c0,0,0.8,2.7,3.7,3.9c3.1,1.4,7.4,0.7,12.7-2l-1.9-8.6l-6.2,1.8l-0.1,0l0-0.1l1-5.7c0-0.1,0.1-0.1,0.1-0.1
		c0.1,0,0.1,0.1,0.1,0.1l-0.9,5.5l6.1-1.8l0.1,0l0,0.1l1.9,8.8l-0.1,0.1C68.2,165.4,65.1,166.3,62.4,166.3z"/>
	<path class="st3" d="M68.4,155.5c0.4-1.9,2.2-3.4,4.1-3.6c0.4,0,0.9,0,1.1,0.4c0.2,0.4-0.2,0.9-0.5,1.3c-0.3,0.3-0.7,0.6-1,0.9
		c1.2,0.1,6.2,0.2,5.6,2.3c0.3-0.2,0.7-0.2,1,0c0.2,0.1,0.3,0.4,0.4,0.6c0.5,1.2,0,2.6-1,3.3c-0.2,0.1-0.3,0.2-0.4,0.4
		c0,0.1,0,0.2,0,0.3c0,0.5-0.3,1.1-0.8,1.4c-0.5,0.3-1,0.5-1.5,0.6c-1.5,0.4-3,0.6-4.5,0.7"/>
	<path class="st1" d="M70.8,164c-0.1,0-0.1,0-0.1-0.1c0-0.1,0-0.1,0.1-0.1c1.5-0.1,3-0.3,4.5-0.7c0.5-0.1,1-0.3,1.5-0.6
		c0.5-0.3,0.8-0.8,0.7-1.3l0-0.1c0-0.1,0-0.2,0-0.3c0.1-0.2,0.2-0.3,0.4-0.4l0,0c1-0.7,1.4-2.1,1-3.2c-0.1-0.3-0.2-0.4-0.4-0.6
		c-0.3-0.2-0.6-0.2-0.9,0l-0.1,0l0-0.1c0.1-0.3,0-0.6-0.1-0.8c-0.7-1-3.5-1.2-4.8-1.3c-0.2,0-0.4,0-0.6,0l-0.1-0.1l0-0.1l1-0.9
		c0.3-0.3,0.7-0.8,0.5-1.1c-0.2-0.3-0.7-0.3-1-0.3c-1.9,0.2-3.6,1.7-4,3.6c0,0.1-0.1,0.1-0.1,0.1c-0.1,0-0.1-0.1-0.1-0.1
		c0.4-1.9,2.2-3.5,4.2-3.7c0.3,0,0.9,0,1.2,0.4c0.2,0.4,0,0.9-0.5,1.4l-0.8,0.7c0.1,0,0.2,0,0.3,0c1.5,0.1,4.2,0.3,5,1.4
		c0.2,0.2,0.2,0.5,0.2,0.8c0.3-0.1,0.7-0.1,0.9,0.1c0.2,0.1,0.3,0.4,0.5,0.6c0.5,1.2,0,2.7-1.1,3.4l0,0c-0.1,0.1-0.3,0.2-0.3,0.3
		c0,0.1,0,0.1,0,0.2l0,0.1c0,0.5-0.3,1.1-0.8,1.4c-0.5,0.3-1,0.5-1.6,0.6C73.9,163.7,72.3,163.9,70.8,164L70.8,164z"/>
	<path class="st1" d="M73.8,157.1c-0.1,0-0.1,0-0.1-0.1c0-0.1,0-0.1,0.1-0.1l3.6-0.2c0.1,0,0.1,0,0.1,0.1c0,0.1,0,0.1-0.1,0.1
		L73.8,157.1L73.8,157.1z"/>
	<path class="st1" d="M75,159.3c-0.3,0-0.5,0-0.8,0c-0.1,0-0.1-0.1-0.1-0.1c0-0.1,0-0.1,0.1-0.1c1.5,0.1,3.1-0.1,4.6-0.5
		c0.1,0,0.1,0,0.1,0.1c0,0.1,0,0.1-0.1,0.1C77.6,159.1,76.3,159.3,75,159.3z"/>
	<path class="st1" d="M74.2,161.4c-0.1,0-0.2,0-0.4,0c-0.1,0-0.1,0-0.1-0.1c0-0.1,0-0.1,0.1-0.1h0c1.3,0,2.5-0.1,3.7-0.4
		c0.1,0,0.1,0,0.1,0.1c0,0.1,0,0.1-0.1,0.1C76.5,161.3,75.3,161.4,74.2,161.4z"/>
	<path class="st1" d="M71.9,154.4L71.9,154.4l-0.9,0c-0.1,0-0.1-0.1-0.1-0.1c0-0.1,0-0.1,0.1-0.1l0.8,0c0.1,0,0.1,0.1,0.1,0.1
		C72,154.4,71.9,154.4,71.9,154.4z"/>
	<path class="st1" d="M60.9,157.2L60.9,157.2l0-0.2c0.8-0.3,1.7-0.5,2.6-0.5h0c0.1,0,0.1,0,0.1,0.1c0,0.1,0,0.1-0.1,0.1
		C62.6,156.7,61.7,156.8,60.9,157.2L60.9,157.2z"/>
	<path class="st3" d="M98,130.4c0,0-0.4-2.6,2.8-3.6l4.3-1.6c0,0,3.5,0,1.2,2.2l-0.9,0.3l4.8-1.1c0,0,2.7,0.2,1.7,1.7l1.5-0.2
		c0,0,2.1,1.2,0.1,2.4c0,0,0.9,1.7-1.6,2.6c0,0,0.3,1.9-2.2,2.7l-5.6,1.1"/>
	<path class="st1" d="M104.1,137l-0.1-0.1c0-0.1,0-0.1,0.1-0.1l5.6-1.1c2.4-0.7,2.1-2.5,2.1-2.6l0.1-0.1c0.8-0.3,1.4-0.7,1.6-1.2
		c0.3-0.6,0-1.2,0-1.2l0-0.1c0.5-0.3,0.8-0.7,0.8-1c0-0.6-0.7-1.1-0.9-1.2l-1.5,0.2l-0.1,0l0-0.1c0.2-0.3,0.2-0.6,0.1-0.8
		c-0.3-0.6-1.6-0.7-1.8-0.8l-4.7,1.1l-0.1-0.1l0.1-0.1l0.8-0.3c0.6-0.6,0.8-1,0.7-1.3c-0.2-0.5-1.4-0.6-1.8-0.6l-4.3,1.6
		c-3.1,0.9-2.8,3.4-2.7,3.5c0,0.1,0,0.1-0.1,0.1c-0.1,0-0.1,0-0.1-0.1c0,0-0.4-2.7,2.9-3.7l4.3-1.6l0,0c0.1,0,1.7,0,2,0.8
		c0.2,0.4-0.1,0.9-0.7,1.5l3.7-0.8l0,0c0.1,0,1.6,0.1,2,0.9c0.1,0.2,0.1,0.5,0,0.8l1.3-0.2l0.1,0c0,0,1,0.6,1,1.3
		c0,0.4-0.3,0.8-0.8,1.2c0.1,0.2,0.2,0.7,0,1.3c-0.2,0.6-0.8,1-1.6,1.3c0,0.4,0,2-2.2,2.7L104.1,137L104.1,137z"/>
	<path class="st1" d="M108.8,129.3l-0.1-0.1c0-0.1,0-0.1,0.1-0.1c1.1-0.1,2.1-0.4,3.1-0.7c0.1,0,0.1,0,0.1,0.1c0,0.1,0,0.1-0.1,0.1
		C110.9,128.9,109.8,129.1,108.8,129.3L108.8,129.3z"/>
	<path class="st1" d="M109.5,131.4l-0.1-0.1c0-0.1,0-0.1,0.1-0.1l4-0.8c0.1,0,0.1,0,0.1,0.1c0,0.1,0,0.1-0.1,0.1L109.5,131.4
		L109.5,131.4z"/>
	<path class="st1" d="M103.3,134.4L103.3,134.4l-0.1-0.2c1.3-1.3,3.3-1.7,5.1-1.1c0.1,0,0.2,0.1,0.3,0.1c0.2,0.1,0.4,0.2,0.6,0.2
		c0.9,0.2,1.9-0.1,2.7-0.4c0.1,0,0.1,0,0.1,0.1c0,0.1,0,0.1-0.1,0.1c-0.8,0.3-1.8,0.6-2.8,0.4c-0.2-0.1-0.4-0.1-0.6-0.2
		c-0.1,0-0.2-0.1-0.3-0.1C106.6,132.7,104.6,133.1,103.3,134.4L103.3,134.4z"/>
	<path class="st1" d="M109.5,131.8l-0.1-0.1l-0.1-0.8c0-0.1,0-0.1,0.1-0.1c0.1,0,0.1,0,0.1,0.1l0.1,0.8
		C109.6,131.7,109.6,131.8,109.5,131.8L109.5,131.8z"/>
	<path class="st1" d="M103.7,128c-0.1,0-0.1,0-0.1-0.1c0-0.1,0-0.1,0.1-0.1l1.6-0.1c0.1,0,0.1,0,0.1,0.1c0,0.1,0,0.1-0.1,0.1
		L103.7,128L103.7,128z"/>
	<path class="st10" d="M79.4,134.1c-0.2-0.5-0.4-1-0.4-1.6c-0.1-0.4-0.1-0.9-0.1-1.3c0.7,0.5,1.6,0.3,2.4,0c0.4-0.1,0.8-0.2,0.9-0.6
		c0,0.6,0,1.2,0.1,1.9c0,0.4,0,0.8-0.1,1.2c-0.1,0.4-0.3,0.8-0.7,1C80.5,135.4,79.8,134.9,79.4,134.1z"/>
	<path class="st1" d="M80.7,135.2c-0.1,0-0.2,0-0.3,0c-0.4-0.1-0.8-0.5-1.1-1c-0.3-0.5-0.4-1.1-0.4-1.6c-0.1-0.4-0.1-0.9-0.1-1.3
		l0-0.1h0.1c0.7,0.4,1.5,0.3,2.4,0c0.4-0.1,0.7-0.2,0.8-0.5l0.1-0.1l0.1,0.1l0.1,1.9c0,0.4,0,0.9-0.1,1.3c-0.1,0.5-0.4,0.9-0.7,1.1
		C81.2,135.1,81,135.2,80.7,135.2z M78.9,131.4c0,0.4,0.1,0.7,0.1,1.1c0.1,0.5,0.2,1,0.4,1.5c0.2,0.5,0.6,0.8,0.9,0.9
		c0.3,0.1,0.7,0,1-0.2c0.4-0.2,0.6-0.7,0.6-1c0.1-0.4,0.1-0.8,0.1-1.2L82,131c-0.2,0.2-0.5,0.3-0.8,0.4
		C80.5,131.6,79.6,131.8,78.9,131.4z"/>
	<path class="st5" d="M48,121c0,0-4-17.6,13.1-23.9c0,0,14.8-7,22.2,3c0,0-6.4-13.8-23.5-5.3C59.9,94.8,40.4,100.3,48,121z"/>
	<path class="st1" d="M48,121.1L48,121.1c-2.5-6.5-2.5-12.2-0.1-16.9c3.7-7.2,11.8-9.6,11.9-9.6c5.8-2.8,10.9-3.5,15.4-1.9
		c5.8,2,8.2,7.2,8.2,7.3l0,0.1l-0.1,0c-7.3-9.8-22-3-22.1-2.9c-8.8,3.3-11.9,9.6-12.9,14.3c-1.1,5.1-0.1,9.5-0.1,9.5L48,121.1
		L48,121.1z M70.2,92.1c-3.2,0-6.6,0.9-10.3,2.7c-0.1,0-8.2,2.4-11.8,9.5c-2.2,4.3-2.4,9.5-0.4,15.5c-0.2-1.7-0.4-4.9,0.3-8.4
		c1-4.8,4.2-11.1,13.1-14.4c0,0,3.8-1.8,8.4-2.3c4-0.4,9.4,0,13.2,4.3c-1-1.6-3.4-4.6-7.5-6.1C73.6,92.4,71.9,92.1,70.2,92.1z"/>
	<path class="st5" d="M49.2,100.7c0,1.1-0.9,2-2,2c-1.1,0-2-0.9-2-2s0.9-2,2-2C48.3,98.7,49.2,99.6,49.2,100.7z"/>
	<path class="st1" d="M47.2,102.7c-1.1,0-2.1-0.9-2.1-2.1s0.9-2.1,2.1-2.1c1.1,0,2.1,0.9,2.1,2.1S48.3,102.7,47.2,102.7z M47.2,98.8
		c-1,0-1.9,0.8-1.9,1.9c0,1,0.8,1.9,1.9,1.9c1,0,1.9-0.8,1.9-1.9C49.1,99.6,48.2,98.8,47.2,98.8z"/>
	<path class="st5" d="M47.2,102.7c0.9,0.5,1.3,1.7,0.7,2.7s-1.7,1.3-2.7,0.7c-0.9-0.5-1.3-1.7-0.7-2.7
		C45.1,102.5,46.3,102.2,47.2,102.7z"/>
	<path class="st1" d="M46.3,106.5c-0.4,0-0.7-0.1-1-0.3c-1-0.6-1.3-1.8-0.8-2.8c0.3-0.5,0.7-0.8,1.3-1c0.5-0.1,1.1-0.1,1.6,0.2
		c1,0.6,1.3,1.8,0.8,2.8c-0.3,0.5-0.7,0.8-1.3,1C46.6,106.5,46.4,106.5,46.3,106.5z M46.3,102.6c-0.2,0-0.3,0-0.5,0.1
		c-0.5,0.1-0.9,0.4-1.1,0.9c-0.5,0.9-0.2,2,0.7,2.5c0.4,0.2,0.9,0.3,1.4,0.2c0.5-0.1,0.9-0.4,1.1-0.9c0.5-0.9,0.2-2-0.7-2.5
		C46.9,102.7,46.6,102.6,46.3,102.6z"/>
	<path class="st5" d="M48.1,105.4c0.9-0.5,2.1-0.2,2.7,0.7c0.5,0.9,0.2,2.1-0.7,2.7c-0.9,0.5-2.1,0.2-2.7-0.7
		C46.8,107.2,47.2,106,48.1,105.4z"/>
	<path class="st1" d="M49.1,109.2c-0.7,0-1.4-0.4-1.8-1c-0.6-1-0.2-2.2,0.8-2.8c1-0.6,2.2-0.2,2.8,0.8c0.6,1,0.2,2.2-0.8,2.8
		C49.8,109.1,49.4,109.2,49.1,109.2z M48.1,105.5L48.1,105.5c-0.9,0.5-1.2,1.6-0.7,2.5c0.5,0.9,1.6,1.2,2.5,0.7
		c0.9-0.5,1.2-1.6,0.7-2.5C50.2,105.3,49,105,48.1,105.5z"/>
	<circle class="st5" cx="52.8" cy="106.1" r="2"/>
	<path class="st1" d="M52.8,108.1c-1.1,0-2.1-0.9-2.1-2.1s0.9-2.1,2.1-2.1c1.1,0,2.1,0.9,2.1,2.1S53.9,108.1,52.8,108.1z
		 M52.8,104.2c-1,0-1.9,0.8-1.9,1.9c0,1,0.8,1.9,1.9,1.9c1,0,1.9-0.8,1.9-1.9C54.7,105,53.8,104.2,52.8,104.2z"/>
	<path class="st5" d="M52.8,104c-0.9-0.5-1.3-1.7-0.7-2.7s1.7-1.3,2.7-0.7c0.9,0.5,1.3,1.7,0.7,2.7C54.9,104.2,53.7,104.5,52.8,104z
		"/>
	<path class="st1" d="M53.7,104.3c-0.3,0-0.7-0.1-1-0.3c-0.5-0.3-0.8-0.7-1-1.3c-0.1-0.5-0.1-1.1,0.2-1.6c0.3-0.5,0.7-0.8,1.3-1
		c0.5-0.1,1.1-0.1,1.6,0.2c1,0.6,1.3,1.8,0.8,2.8C55.2,104,54.5,104.3,53.7,104.3z M53.8,100.4c-0.2,0-0.3,0-0.5,0.1
		c-0.5,0.1-0.9,0.4-1.1,0.9c-0.2,0.4-0.3,0.9-0.2,1.4c0.1,0.5,0.4,0.9,0.9,1.1c0.9,0.5,2,0.2,2.5-0.7c0.5-0.9,0.2-2-0.7-2.5
		C54.4,100.5,54.1,100.4,53.8,100.4z"/>
	<path class="st5" d="M51.9,101.3c-0.9,0.5-2.1,0.2-2.7-0.7c-0.5-0.9-0.2-2.1,0.7-2.7c0.9-0.5,2.1-0.2,2.7,0.7
		C53.2,99.5,52.9,100.7,51.9,101.3z"/>
	<path class="st1" d="M50.9,101.6c-0.7,0-1.4-0.4-1.8-1c-0.3-0.5-0.3-1-0.2-1.6c0.1-0.5,0.5-1,1-1.3c1-0.6,2.2-0.2,2.8,0.8
		c0.6,1,0.2,2.2-0.8,2.8C51.6,101.5,51.3,101.6,50.9,101.6z M50.9,97.7c-0.3,0-0.6,0.1-0.9,0.2c-0.4,0.2-0.7,0.6-0.9,1.1
		c-0.1,0.5-0.1,1,0.2,1.4c0.5,0.9,1.6,1.2,2.5,0.7c0.9-0.5,1.2-1.6,0.7-2.5C52.2,98.1,51.6,97.7,50.9,97.7z"/>
	<circle class="st9" cx="50" cy="103.7" r="3.5"/>
	<path class="st1" d="M50,107.3c-2,0-3.6-1.6-3.6-3.6s1.6-3.6,3.6-3.6s3.6,1.6,3.6,3.6S52,107.3,50,107.3z M50,100.3
		c-1.9,0-3.4,1.5-3.4,3.4s1.5,3.4,3.4,3.4s3.4-1.5,3.4-3.4S51.9,100.3,50,100.3z"/>
	<path class="st2" d="M67.2,100.1c0,0,14.8,3.4,17.1,8.7c0,0-2.5-9.1-11.4-10.4"/>
	<path class="st1" d="M84.3,108.9L84.3,108.9c-2.4-5.2-17-8.6-17.2-8.7c-0.1,0-0.1-0.1-0.1-0.1c0-0.1,0.1-0.1,0.1-0.1
		c0.6,0.1,13.2,3.1,16.7,7.8c-1-2.4-4-8.3-11-9.3c-0.1,0-0.1-0.1-0.1-0.1s0.1-0.1,0.1-0.1c8.9,1.3,11.5,10.4,11.5,10.4L84.3,108.9
		L84.3,108.9z"/>
	<path class="st2" d="M55.5,107.9c0,0-1.9,7.8-0.8,11.4c0,0,1.3-8.9,5.9-14.6"/>
	<path class="st1" d="M54.7,119.4L54.7,119.4c-1.2-3.7,0.7-11.2,0.7-11.6c0-0.1,0.1-0.1,0.1-0.1c0.1,0,0.1,0.1,0.1,0.1
		c0,0.1-1.7,7.2-1,10.9c0.4-2,1.9-9.3,5.9-14.2l0.1,0l0,0.1c-4.6,5.6-5.9,14.5-5.9,14.6L54.7,119.4L54.7,119.4z"/>
	<path class="st2" d="M38.8,135.7c0,0,5.7,13.9,2.9,16.2l-2.8-0.4c0,0,5.5,1.7-2.1-20.1"/>
	<path class="st1" d="M41.8,152L41.8,152l-2.6-0.4c-0.1,0-0.2,0-0.2,0l-0.1-0.1c0-0.1,0.1-0.1,0.1-0.1l0.2,0c0.2,0,0.5,0,0.9-0.4
		c1-1,1.9-4.9-3.3-19.6c0-0.1,0-0.1,0.1-0.1c0.1,0,0.1,0,0.1,0.1c4.9,14.1,4.5,18.6,3.2,19.9c-0.1,0.1-0.3,0.2-0.4,0.3l1.9,0.3
		c2.6-2.3-3-15.9-3-16l0.1-0.1l0.1,0.1C39.1,136.3,44.6,149.7,41.8,152L41.8,152z"/>
	<path class="st5" d="M58.9,145.7c0,0-4.9,3.4-3.2,7.9l-0.8,1.3c0,0,0.2,0.8,1.4,0.6c1.2-0.2,1.1,0.8,1.9,1c0.8,0.1,1.5-0.6,2.1-0.5
		c0.6,0.1,0.8,1,1.6,0.7c0.7-0.2,2.1-0.5,2.1-0.5l-0.1-0.8c0,0,2.2-1.6,1.6-5.2"/>
	<path class="st1" d="M61.6,156.8c-0.3,0-0.6-0.2-0.8-0.4c-0.2-0.2-0.4-0.3-0.6-0.4c-0.3,0-0.6,0.1-0.9,0.2
		c-0.4,0.2-0.8,0.4-1.2,0.3c-0.4-0.1-0.6-0.3-0.8-0.5c-0.2-0.3-0.5-0.5-1.1-0.4c-1.3,0.2-1.5-0.7-1.5-0.7l0-0.1l0.8-1.2
		c-1.6-4.5,3.2-8,3.2-8l0.1,0l0,0.1c0,0-4.8,3.4-3.1,7.8l0,0.1l-0.8,1.2c0.1,0.2,0.3,0.7,1.2,0.5c0.7-0.1,1,0.2,1.3,0.5
		c0.2,0.2,0.3,0.4,0.7,0.4c0.4,0.1,0.8-0.1,1.1-0.3c0.3-0.2,0.7-0.3,1-0.2c0.3,0,0.5,0.2,0.7,0.4c0.3,0.2,0.5,0.4,0.8,0.3
		c0.6-0.2,1.7-0.4,2-0.5l-0.1-0.8l0-0.1c0,0,2.2-1.6,1.5-5.1c0-0.1,0-0.1,0.1-0.1c0.1,0,0.1,0,0.1,0.1c0.6,3.3-1.2,5-1.6,5.2
		l0.1,0.8l-0.1,0.1c0,0-1.4,0.3-2.1,0.5C61.8,156.8,61.7,156.8,61.6,156.8z"/>
	<path class="st1" d="M62.8,155.5c-3.6,0-7.1-1.7-7.1-1.8l0-0.1l0.1,0c0,0,4.1,2.1,8.1,1.7c0.1,0,0.1,0,0.1,0.1c0,0.1,0,0.1-0.1,0.1
		C63.5,155.5,63.2,155.5,62.8,155.5z"/>
	<path class="st0" d="M60.6,169.4c0,0.6-0.5,1.2-1.2,1.2s-1.2-0.5-1.2-1.2s0.5-1.2,1.2-1.2S60.6,168.8,60.6,169.4z"/>
	<path class="st0" d="M68.4,153c0,0.6-0.5,1.2-1.2,1.2s-1.2-0.5-1.2-1.2s0.5-1.2,1.2-1.2S68.4,152.4,68.4,153z"/>
	<path class="st0" d="M61.8,149.9c0,0.6-0.5,1.2-1.2,1.2s-1.2-0.5-1.2-1.2c0-0.6,0.5-1.2,1.2-1.2S61.8,149.3,61.8,149.9z"/>
	<circle class="st0" cx="57.6" cy="178.2" r="1.2"/>
	<path class="st0" d="M67.3,175.2c0,0.6-0.5,1.2-1.2,1.2s-1.2-0.5-1.2-1.2s0.5-1.2,1.2-1.2S67.3,174.6,67.3,175.2z"/>
	<path class="st0" d="M68.7,167.2c0,0.6-0.5,1.2-1.2,1.2s-1.2-0.5-1.2-1.2s0.5-1.2,1.2-1.2S68.7,166.5,68.7,167.2z"/>
	<path class="st0" d="M81.9,170.7c0,0.6-0.5,1.2-1.2,1.2c-0.6,0-1.2-0.5-1.2-1.2s0.5-1.2,1.2-1.2C81.3,169.5,81.9,170,81.9,170.7z"
		/>
	<path class="st0" d="M77,178c0,0.6-0.5,1.2-1.2,1.2s-1.2-0.5-1.2-1.2s0.5-1.2,1.2-1.2S77,177.3,77,178z"/>
	<path class="st0" d="M86.5,177.8c0,0.6-0.5,1.2-1.2,1.2s-1.2-0.5-1.2-1.2s0.5-1.2,1.2-1.2S86.5,177.1,86.5,177.8z"/>
	<path class="st5" d="M74.8,200.1c-3.5,0.9-8.6-1.7-8.6-1.7l6.5-0.6c-0.3-0.3-0.7-0.6-1.1-1L58.2,197v6.4l17.7,0.3
		C75.9,203.8,76.4,202.4,74.8,200.1z"/>
	<path class="st1" d="M75.9,203.9L75.9,203.9l-17.7-0.3c-0.1,0-0.1,0-0.1-0.1V197c0-0.1,0-0.1,0.1-0.1l13.4-0.3l0.1,0
		c0.4,0.3,0.7,0.6,1.1,1l0,0.1l-0.1,0.1l-6.1,0.6c1.2,0.6,5.3,2.3,8.2,1.6l0.1,0C76.5,202.4,76,203.7,75.9,203.9L75.9,203.9z
		 M58.3,203.4l17.5,0.3c0.1-0.3,0.2-1.5-1.1-3.5c-3.5,0.9-8.4-1.6-8.6-1.8l-0.1-0.1l0.1-0.1l6.3-0.6c-0.3-0.3-0.6-0.5-0.9-0.8
		l-13.2,0.3V203.4z"/>
	<line class="st4" x1="58.3" y1="202.3" x2="75.9" y2="202.3"/>
	<path class="st1" d="M75.9,202.4H58.3c-0.1,0-0.1,0-0.1-0.1c0-0.1,0-0.1,0.1-0.1h17.7c0.1,0,0.1,0,0.1,0.1
		C76,202.3,76,202.4,75.9,202.4z"/>
	<path class="st5" d="M95.1,194.3c-3,2-8.7,1.1-8.7,1.1l6-2.6c-0.4-0.2-0.9-0.4-1.4-0.6l-12.6,4.5l2,6.1l16.9-5.3
		C97.3,197.4,97.4,196,95.1,194.3z"/>
	<path class="st1" d="M80.5,202.9L80.5,202.9l-2.1-6.2c0-0.1,0-0.1,0.1-0.1l12.6-4.5l0.1,0c0.4,0.2,0.9,0.4,1.4,0.6l0.1,0.1
		l-0.1,0.1l-5.7,2.5c1.3,0.2,5.8,0.5,8.3-1.1l0.1,0c2.3,1.7,2.3,3.2,2.3,3.2l-0.1,0.1L80.5,202.9L80.5,202.9z M78.6,196.7l2,5.9
		l16.7-5.3c0-0.3-0.3-1.5-2.1-2.9c-3,1.9-8.5,1.1-8.7,1.1l-0.1-0.1l0.1-0.1l5.8-2.5c-0.4-0.2-0.7-0.3-1.1-0.5L78.6,196.7z"/>
	<line class="st4" x1="80.1" y1="201.6" x2="96.9" y2="196"/>
	<path class="st1" d="M80.1,201.7L80.1,201.7c-0.1-0.1-0.1-0.2,0-0.2l16.8-5.6c0.1,0,0.1,0,0.1,0.1c0,0.1,0,0.1-0.1,0.1L80.1,201.7
		L80.1,201.7z"/>
	<path class="st11" d="M679.9,203.7c-2.1-0.3-4.1-2.7-3.4-4.8c0.3-1,1.6-2.2,2.7-2.4c0.5-0.1,1.1-0.1,1.6,0
		c-0.7-0.6-1.2-1.5-1.3-2.4c-0.1-1.4,0.7-2.8,1.9-3.5c1.8-1.1,4.3-0.8,5.8,0.6c-0.8-1.8-0.4-4,0.9-5.4c1.4-1.4,3.6-1.8,5.4-1
		c1.5,0.7,2.6,2.4,1.9,3.9v14.6c0,0-8.7,0.3-9.3,0.3c-1.9,0.1-3.7,0.2-5.6,0.2C680.2,203.7,680,203.7,679.9,203.7z"/>
	<path class="st0" d="M677.1,199.5c0.3-1,1.6-2.2,2.7-2.4c0.5-0.1,1.1-0.1,1.6,0c-0.7-0.6-1.2-1.5-1.3-2.4c-0.1-1.4,0.7-2.8,1.9-3.5
		c1.8-1.1,4.3-0.8,5.8,0.6c-0.8-1.8-0.4-4,0.9-5.4c1.4-1.4,3.6-1.8,5.4-1c0.2,0.1,0.4,0.2,0.6,0.4c-0.4-0.4-0.8-0.7-1.3-1
		c-1.8-0.8-4-0.4-5.4,1c-1.4,1.4-1.8,3.7-0.9,5.4c-1.5-1.5-4-1.7-5.8-0.6c-1.2,0.7-2,2.1-1.9,3.5c0.1,0.9,0.6,1.8,1.3,2.4
		c-0.5-0.1-1.1-0.1-1.6,0c-1,0.2-2.3,1.4-2.7,2.4c-0.5,1.5,0.3,3,1.6,4C677.2,201.9,676.7,200.6,677.1,199.5z"/>
	<path class="st1" d="M680.4,203.8c-0.2,0-0.4,0-0.5,0c-1.2-0.2-2.4-1.1-3.1-2.2c-0.5-0.9-0.7-1.9-0.4-2.7c0.4-1,1.7-2.2,2.7-2.4
		c0.4-0.1,0.9-0.1,1.3,0c-0.6-0.6-1-1.4-1.1-2.3c-0.1-1.4,0.7-2.8,2-3.6c1.7-1.1,4.1-0.9,5.6,0.4c-0.6-1.7-0.2-3.8,1.1-5.1
		c1.4-1.4,3.7-1.9,5.5-1.1c0.9,0.4,1.7,1.2,2,2.1c0.2,0.7,0.2,1.3-0.1,1.9v14.6c0,0.1,0,0.1-3.2,0.2c-1.7,0.1-3.8,0.1-5,0.2
		c-0.6,0-1,0-1.1,0c-0.6,0-1.2,0-1.9,0.1C682.9,203.7,681.7,203.8,680.4,203.8L680.4,203.8z M679.8,196.5c-0.2,0-0.5,0-0.7,0.1
		c-1,0.2-2.3,1.3-2.6,2.3c-0.3,0.8-0.1,1.7,0.4,2.5c0.7,1.1,1.8,1.9,3,2.1c0.2,0,0.4,0,0.5,0c1.2,0,2.5-0.1,3.7-0.1
		c0.6,0,1.2-0.1,1.9-0.1c0.1,0,0.5,0,1.1,0c2.1-0.1,7.3-0.2,8.1-0.3v-14.5l0,0c0.3-0.5,0.3-1.1,0.1-1.7c-0.3-0.9-1-1.6-1.9-2
		c-1.7-0.8-4-0.3-5.3,1c-1.3,1.4-1.7,3.6-0.9,5.3l0,0.1l-0.1,0c-1.5-1.4-3.9-1.7-5.7-0.6c-1.2,0.8-2,2.1-1.9,3.4
		c0.1,0.9,0.5,1.8,1.3,2.3l0,0.1l-0.1,0.1C680.4,196.6,680.1,196.5,679.8,196.5z"/>
	<path class="st11" d="M783,203.7c2.1-0.3,4.1-2.7,3.4-4.8c-0.3-1-1.6-2.2-2.7-2.4c-0.5-0.1-1.1-0.1-1.6,0c0.7-0.6,1.2-1.5,1.3-2.4
		c0.1-1.4-0.7-2.8-1.9-3.5c-1.8-1.1-4.3-0.8-5.8,0.6c0.8-1.8,0.4-4-0.9-5.4c-1.4-1.4-3.6-1.8-5.4-1c-1.5,0.7-2.6,2.4-1.9,3.9v14.6
		c0,0,8.7,0.3,9.3,0.3c1.9,0.1,3.7,0.2,5.6,0.2C782.6,203.7,782.8,203.7,783,203.7z"/>
	<path class="st0" d="M785.8,199.5c-0.3-1-1.6-2.2-2.7-2.4c-0.5-0.1-1.1-0.1-1.6,0c0.7-0.6,1.2-1.5,1.3-2.4c0.1-1.4-0.7-2.8-1.9-3.5
		c-1.8-1.1-4.3-0.8-5.8,0.6c0.8-1.8,0.4-4-0.9-5.4c-1.4-1.4-3.6-1.8-5.4-1c-0.2,0.1-0.4,0.2-0.6,0.4c0.4-0.4,0.8-0.7,1.3-1
		c1.8-0.8,4-0.4,5.4,1c1.4,1.4,1.8,3.7,0.9,5.4c1.5-1.5,4-1.7,5.8-0.6c1.2,0.7,2,2.1,1.9,3.5c-0.1,0.9-0.6,1.8-1.3,2.4
		c0.5-0.1,1.1-0.1,1.6,0c1,0.2,2.3,1.4,2.7,2.4c0.5,1.5-0.3,3-1.6,4C785.7,201.9,786.2,200.6,785.8,199.5z"/>
	<path class="st1" d="M782.5,203.8L782.5,203.8c-1.3,0-2.6-0.1-3.8-0.1c-0.6,0-1.2-0.1-1.9-0.1c-0.1,0-0.5,0-1.1,0
		c-1.3,0-3.3-0.1-5-0.2c-3.2-0.1-3.2-0.1-3.2-0.2v-14.6c-0.3-0.6-0.3-1.2-0.1-1.9c0.3-0.9,1.1-1.7,2-2.1c1.8-0.8,4.1-0.4,5.5,1.1
		c1.3,1.3,1.7,3.4,1.1,5.1c1.6-1.2,3.9-1.4,5.6-0.4c1.3,0.8,2.1,2.3,2,3.6c-0.1,0.9-0.5,1.7-1.1,2.3c0.4,0,0.9,0,1.3,0
		c1.1,0.2,2.4,1.4,2.7,2.4c0.3,0.9,0.2,1.8-0.4,2.7c-0.7,1.1-1.9,2-3.1,2.2C782.8,203.8,782.7,203.8,782.5,203.8z M767.6,203.1
		c0.7,0.1,6,0.2,8.1,0.3c0.6,0,1,0,1.1,0c0.6,0,1.2,0,1.9,0.1c1.2,0.1,2.5,0.1,3.7,0.1c0.2,0,0.4,0,0.5,0c1.2-0.2,2.3-1,3-2.1
		c0.5-0.8,0.6-1.7,0.4-2.5c-0.3-1-1.6-2.1-2.6-2.3c-0.5-0.1-1.1-0.1-1.6,0l-0.1-0.1l0-0.1c0.7-0.6,1.2-1.4,1.3-2.3
		c0.1-1.3-0.6-2.7-1.9-3.4c-1.8-1.1-4.2-0.8-5.7,0.6l-0.1,0l0-0.1c0.8-1.7,0.4-4-0.9-5.3c-1.3-1.4-3.6-1.8-5.3-1
		c-0.9,0.4-1.6,1.2-1.9,2c-0.2,0.6-0.2,1.2,0.1,1.7l0,0V203.1z"/>
	<rect x="715.7" y="168.2" class="st0" width="52.1" height="35.1"/>
	<path class="st1" d="M767.8,203.4h-52.1c-0.1,0-0.1,0-0.1-0.1v-35.1c0-0.1,0-0.1,0.1-0.1h52.1c0.1,0,0.1,0,0.1,0.1v35.1
		C768,203.4,767.9,203.4,767.8,203.4z M715.8,203.2h51.9v-34.9h-51.9V203.2z"/>
	<polygon class="st10" points="771.5,177.8 712.8,177.8 712.8,160.8 769.3,160.8 	"/>
	<polygon class="st0" points="770.7,177.8 771.5,177.8 769.3,160.8 712.8,160.8 712.8,161.8 768.6,161.8 	"/>
	<path class="st1" d="M771.5,177.9h-58.8c-0.1,0-0.1,0-0.1-0.1v-17c0-0.1,0-0.1,0.1-0.1h56.5l0.1,0.1l2.2,17L771.5,177.9
		L771.5,177.9z M712.9,177.7h58.5l-2.2-16.8h-56.3V177.7z"/>
	<rect x="695.2" y="140.5" class="st0" width="24.8" height="62.8"/>
	<path class="st1" d="M719.9,203.4h-24.8c-0.1,0-0.1,0-0.1-0.1v-62.8c0-0.1,0-0.1,0.1-0.1h24.8c0.1,0,0.1,0,0.1,0.1v62.8
		C720,203.4,720,203.4,719.9,203.4z M695.3,203.2h24.6v-62.6h-24.6V203.2z"/>
	<polygon class="st10" points="690,143.8 725.1,143.8 706.6,111.3 	"/>
	<polygon class="st0" points="723.8,143.8 725.1,143.8 706.6,111.3 690,143.8 691.1,143.8 706.6,113.6 	"/>
	<path class="st1" d="M725.1,144H690l-0.1,0l0-0.1l16.6-32.5l0.1-0.1l0.1,0.1l18.5,32.5L725.1,144L725.1,144z M690.2,143.7h34.8
		l-18.3-32.2L690.2,143.7z"/>
	<path class="st12" d="M713.8,200.3h-11.7v-12.3c0-2.2,1.8-4.1,4.1-4.1h3.6c2.2,0,4.1,1.8,4.1,4.1V200.3z"/>
	<rect x="699.1" y="201.5" class="st0" width="17.4" height="1.8"/>
	<path class="st1" d="M716.5,203.4h-17.4c-0.1,0-0.1,0-0.1-0.1v-1.8c0-0.1,0-0.1,0.1-0.1h17.4c0.1,0,0.1,0,0.1,0.1v1.8
		C716.6,203.4,716.5,203.4,716.5,203.4z M699.2,203.2h17.2v-1.6h-17.2V203.2z"/>
	<rect x="700.8" y="199.8" class="st0" width="14" height="1.8"/>
	<path class="st1" d="M714.8,201.7h-14c-0.1,0-0.1,0-0.1-0.1v-1.8c0-0.1,0-0.1,0.1-0.1h14c0.1,0,0.1,0,0.1,0.1v1.8
		C714.9,201.7,714.9,201.7,714.8,201.7z M700.9,201.5h13.8v-1.6h-13.8V201.5z"/>
	<path class="st12" d="M707,150.9c-1.8,0-3.3,1.5-3.3,3.3v0.5h3.3V150.9z"/>
	<rect x="703.7" y="155.9" class="st12" width="3.3" height="3.3"/>
	<rect x="708" y="155.9" class="st12" width="3.3" height="3.3"/>
	<path class="st12" d="M711.2,154.2c0-1.8-1.5-3.3-3.3-3.3v3.8h3.3V154.2z"/>
	<path class="st12" d="M707,164.8c-1.8,0-3.3,1.5-3.3,3.3v0.5h3.3V164.8z"/>
	<rect x="703.7" y="169.8" class="st12" width="3.3" height="3.3"/>
	<rect x="708" y="169.8" class="st12" width="3.3" height="3.3"/>
	<path class="st12" d="M711.2,168.1c0-1.8-1.5-3.3-3.3-3.3v3.8h3.3V168.1z"/>
	<path class="st12" d="M728.4,182.3c-1.8,0-3.3,1.5-3.3,3.3v0.5h3.3V182.3z"/>
	<rect x="725.2" y="187.3" class="st12" width="3.3" height="3.3"/>
	<rect x="729.4" y="187.3" class="st12" width="3.3" height="3.3"/>
	<path class="st12" d="M732.7,185.6c0-1.8-1.5-3.3-3.3-3.3v3.8h3.3V185.6z"/>
	<path class="st12" d="M742.3,182.3c-1.8,0-3.3,1.5-3.3,3.3v0.5h3.3V182.3z"/>
	<rect x="739.1" y="187.3" class="st12" width="3.3" height="3.3"/>
	<rect x="743.3" y="187.3" class="st12" width="3.3" height="3.3"/>
	<path class="st12" d="M746.6,185.6c0-1.8-1.5-3.3-3.3-3.3v3.8h3.3V185.6z"/>
	<path class="st12" d="M756.3,182.3c-1.8,0-3.3,1.5-3.3,3.3v0.5h3.3V182.3z"/>
	<rect x="753" y="187.3" class="st12" width="3.3" height="3.3"/>
	<rect x="757.3" y="187.3" class="st12" width="3.3" height="3.3"/>
	<path class="st12" d="M760.5,185.6c0-1.8-1.5-3.3-3.3-3.3v3.8h3.3V185.6z"/>
	<path class="st9" d="M713,98.3h-3.2v-3.7c0-0.7-0.6-1.3-1.3-1.3h-3.2c-0.7,0-1.3,0.6-1.3,1.3v3.7h-3.2c-0.7,0-1.3,0.6-1.3,1.3v3.2
		c0,0.7,0.6,1.3,1.3,1.3h3.2v5.4c0,0.7,0.6,1.3,1.3,1.3h3.2c0.7,0,1.3-0.6,1.3-1.3v-5.4h3.2c0.7,0,1.3-0.6,1.3-1.3v-3.2
		C714.2,98.8,713.7,98.3,713,98.3z"/>
	<path class="st0" d="M700,100.3c0-0.7,0.6-1.3,1.3-1.3h3.2v-3.7c0-0.7,0.6-1.3,1.3-1.3h3.2c0.3,0,0.6,0.1,0.8,0.3
		c-0.1-0.6-0.6-1-1.3-1h-3.2c-0.7,0-1.3,0.6-1.3,1.3v3.7h-3.2c-0.7,0-1.3,0.6-1.3,1.3v3.2c0,0.4,0.2,0.8,0.5,1c0-0.1,0-0.2,0-0.3
		V100.3z"/>
	<path class="st0" d="M713.4,99c0.3,0,0.6,0.1,0.8,0.3c-0.1-0.6-0.6-1-1.3-1h-2.7V99H713.4z"/>
	<path class="st1" d="M708.5,110.9h-3.2c-0.8,0-1.4-0.6-1.4-1.4v-5.3h-3.1c-0.8,0-1.4-0.6-1.4-1.4v-3.2c0-0.8,0.6-1.4,1.4-1.4h3.1
		v-3.6c0-0.8,0.6-1.4,1.4-1.4h3.2c0.8,0,1.4,0.6,1.4,1.4v3.6h3.1c0.8,0,1.4,0.6,1.4,1.4v3.2c0,0.8-0.6,1.4-1.4,1.4h-3.1v5.3
		C709.9,110.3,709.3,110.9,708.5,110.9z M700.8,98.4c-0.7,0-1.2,0.5-1.2,1.2v3.2c0,0.7,0.5,1.2,1.2,1.2h3.2c0.1,0,0.1,0,0.1,0.1v5.4
		c0,0.7,0.5,1.2,1.2,1.2h3.2c0.7,0,1.2-0.5,1.2-1.2v-5.4c0-0.1,0-0.1,0.1-0.1h3.2c0.7,0,1.2-0.5,1.2-1.2v-3.2c0-0.7-0.5-1.2-1.2-1.2
		h-3.2c-0.1,0-0.1,0-0.1-0.1v-3.7c0-0.7-0.5-1.2-1.2-1.2h-3.2c-0.7,0-1.2,0.5-1.2,1.2v3.7c0,0.1,0,0.1-0.1,0.1H700.8z"/>
	<path class="st3" d="M752.8,111.7c0,0,4.3,0.8,6.2,5.4l-3.6-0.5L752.8,111.7z"/>
	<path class="st1" d="M759,117.2L759,117.2l-3.7-0.5l-0.1-0.1l-2.6-4.9l0-0.1l0.1,0c0,0,4.4,0.8,6.3,5.4L759,117.2L759,117.2z
		 M755.4,116.6l3.4,0.4c-1.6-3.8-5-4.9-5.8-5.1L755.4,116.6z"/>
	<polygon class="st7" points="742.3,127.1 746.9,113.3 766.4,119.6 761.9,133.7 	"/>
	<path class="st1" d="M761.9,133.8L761.9,133.8l-19.6-6.6c-0.1,0-0.1-0.1-0.1-0.1l4.6-13.8c0-0.1,0.1-0.1,0.1-0.1l19.5,6.3
		c0.1,0,0.1,0.1,0.1,0.1L761.9,133.8L761.9,133.8L761.9,133.8z M742.5,127l19.4,6.5l4.4-13.9l-19.3-6.2L742.5,127z"/>
	<path class="st8" d="M761.9,133.7l4.5-14.1l1.3,2.9c0.3,0.6,0.3,1.2,0.1,1.8l-3.8,13.1l-18.7-6.5c-1-0.3-1.8-1.1-2.2-2.1l-0.8-1.7
		L761.9,133.7z"/>
	<path class="st1" d="M764.1,137.5L764.1,137.5l-18.8-6.5c-1-0.4-1.9-1.1-2.3-2.1l-0.8-1.7l0-0.1l0.1,0l19.5,6.5l4.4-14l0.1-0.1
		l0.1,0.1l1.3,2.9c0.3,0.6,0.3,1.3,0.1,1.9L764.1,137.5L764.1,137.5L764.1,137.5z M742.5,127.3l0.7,1.5c0.4,0.9,1.2,1.7,2.2,2
		l18.6,6.5l3.8-13c0.2-0.6,0.1-1.2-0.1-1.7l-1.2-2.7l-4.4,13.8l-0.1,0.1l-0.1,0L742.5,127.3z"/>
	<polygon class="st1" points="764,137.3 763.9,137.2 761.9,133.8 762,133.6 762.1,133.7 764.1,137.1 764,137.3 	"/>
	<path class="st9" d="M750.4,125l1-2.7l-2.8-1c-0.1,0-0.1-0.1-0.1-0.2l0.3-0.8c0-0.1,0.1-0.1,0.2-0.1l2.8,1l1-2.7
		c0-0.1,0.1-0.1,0.2-0.1l0.8,0.3c0.1,0,0.1,0.1,0.1,0.2l-1,2.7l5.9,2.2c0.1,0,0.1,0.1,0.1,0.2l-0.3,0.8c0,0.1-0.1,0.1-0.2,0.1
		l-5.9-2.2l-1,2.7c0,0.1-0.1,0.1-0.2,0.1l-0.8-0.3C750.4,125.2,750.4,125.1,750.4,125z"/>
	<path class="st0" d="M753.1,118.5l-1,2.7l-0.3-0.1l1-2.7c0-0.1,0.1-0.1,0.2-0.1l0.3,0.1C753.3,118.4,753.2,118.4,753.1,118.5z"/>
	<path class="st0" d="M750.4,125l1-2.7l0.3,0.1l-1,2.7c0,0.1,0,0.2,0.1,0.2l-0.3-0.1C750.4,125.2,750.4,125.1,750.4,125z"/>
	<path class="st0" d="M749.1,120.3l-0.3,0.8c0,0.1,0,0.2,0.1,0.2l-0.3-0.1c-0.1,0-0.1-0.1-0.1-0.2l0.3-0.8c0-0.1,0.1-0.1,0.2-0.1
		l0.3,0.1C749.2,120.1,749.1,120.2,749.1,120.3z"/>
	<path class="st1" d="M751.4,125.7l-0.1,0l-0.8-0.3c-0.1,0-0.1-0.1-0.2-0.2c0-0.1,0-0.1,0-0.2l1-2.6l-2.7-1c-0.1,0-0.1-0.1-0.2-0.2
		c0-0.1,0-0.1,0-0.2l0.3-0.8c0-0.1,0.1-0.1,0.2-0.2c0.1,0,0.1,0,0.2,0l2.7,1l1-2.6c0-0.1,0.1-0.1,0.2-0.2c0.1,0,0.1,0,0.2,0l0.8,0.3
		c0.1,0,0.1,0.1,0.2,0.2c0,0.1,0,0.1,0,0.2l-1,2.6l5.8,2.2c0.1,0,0.1,0.1,0.2,0.2c0,0.1,0,0.1,0,0.2l-0.3,0.8c0,0.1-0.1,0.1-0.2,0.2
		c-0.1,0-0.1,0-0.2,0l-5.8-2.2l-1,2.6C751.6,125.6,751.5,125.7,751.4,125.7z M750.5,125L750.5,125L750.5,125l0,0.1l0.8,0.3l0.1,0
		l1-2.7l0.1-0.1l0.1,0l5.9,2.2l0.1,0l0,0l0.3-0.8l0-0.1l0,0l-5.9-2.2c-0.1,0-0.1-0.1-0.1-0.1l1-2.7l0-0.1l0,0l-0.8-0.3l-0.1,0l0,0
		l-1,2.7l-0.1,0.1l-0.1,0l-2.8-1l-0.1,0l0,0l-0.3,0.8l0,0.1l0,0l2.8,1l0.1,0.1l0,0.1L750.5,125z"/>
	<path class="st1" d="M762.7,135L762.7,135c-0.1,0-0.1-0.1-0.1-0.1l4.3-14c0-0.1,0.1-0.1,0.1-0.1c0.1,0,0.1,0.1,0.1,0.1L762.7,135
		L762.7,135z"/>
	<path class="st1" d="M762.5,135L762.5,135l-19.6-6.7c-0.1,0-0.1-0.1-0.1-0.1c0-0.1,0.1-0.1,0.1-0.1l19.6,6.7
		C762.6,134.8,762.6,134.8,762.5,135L762.5,135z"/>
	<path class="st1" d="M763.4,136.3L763.4,136.3l-20-6.7c-0.1,0-0.1-0.1-0.1-0.1c0-0.1,0.1-0.1,0.1-0.1l19.9,6.7l4.1-13.9
		c0-0.1,0.1-0.1,0.1-0.1c0.1,0,0.1,0.1,0.1,0.1L763.4,136.3L763.4,136.3L763.4,136.3z"/>
	<path class="st3" d="M756.5,130.3L756.5,130.3c0.5,4-2.2,7.5-5.7,7.5l-7.1,2.3c-3.4,0-8.2-5.7-7.8-9.6l0-0.2H756.5z"/>
	<path class="st1" d="M743.8,140.2c-1.5,0-3.3-1.1-5-2.9c-2-2.2-3.2-4.9-3-6.8l0-0.2c0-0.1,0-0.1,0.1-0.1h20.6l0.1,0.1
		c0.3,2.1-0.4,4.2-1.7,5.7c-1.1,1.2-2.5,1.9-4,1.9L743.8,140.2L743.8,140.2z M736.1,130.4l0,0.1c-0.2,1.9,1,4.6,2.9,6.7
		c1.6,1.7,3.4,2.8,4.8,2.8l7.1-2.3l0,0c1.5,0,2.9-0.7,3.9-1.8c1.3-1.4,1.9-3.4,1.7-5.5H736.1z"/>
	<path class="st3" d="M743.3,112.3v-4.1c0-2.2,1.8-4,4-4h1.2c2.2,0,4,1.8,4,4v4.1l-10.6,1.6L743.3,112.3z"/>
	<path class="st1" d="M742,114L742,114l-0.1-0.2l1.3-1.6v-4c0-2.3,1.9-4.1,4.1-4.1h1.2c2.3,0,4.1,1.9,4.1,4.1v4.1l-0.1,0.1L742,114
		L742,114z M747.4,104.3c-2.2,0-3.9,1.8-3.9,3.9v4.1l0,0.1l-1.1,1.4l10.2-1.6v-4c0-2.2-1.8-3.9-3.9-3.9H747.4z M743.3,112.3
		L743.3,112.3L743.3,112.3z"/>
	<path class="st3" d="M755.6,135l2.2,8l5.3,6.5l1.5,4.4l-6.4,6.2l-8.6,0.2c0,0,0.8-4.5,3.3-5.6l-4.8-5.8l-5.4-11.1"/>
	<path class="st1" d="M749.6,160.4L749.6,160.4l-0.1-0.1c0-0.2,0.8-4.4,3.3-5.6l-4.7-5.7l-5.4-11.1l0-0.1l0.1,0l5.4,11.1l4.7,5.8
		l0,0.1l-0.1,0.1c-2.2,0.9-3.1,4.7-3.2,5.4l8.4-0.2l6.3-6.1l-1.5-4.3l-5.3-6.5l0,0l-2.2-8c0-0.1,0-0.1,0.1-0.1c0.1,0,0.1,0,0.1,0.1
		l2.1,8l5.3,6.4l0,0l1.5,4.4l0,0.1l-6.4,6.2l-0.1,0L749.6,160.4L749.6,160.4z"/>
	<path class="st3" d="M772.3,96.4c1.2-2.2,2.2-4.4,2.6-6.9c2.1-10.2-7.7-18.3-16-22.2c-7.2-3.4-15.9-3.8-22.1,2
		c-5.1,4.7-6.3,10.8-9.5,16.6c-0.7,1.3-1.6,2.5-2.2,3.9c-3.8,8.1,4.2,12.7,10.4,16.2c0,0,0.5,0.3,1.3,0.7c7.3,3.7,15.8,5.7,23.6,2.5
		c4.1-1.7,7.3-5.5,9.6-9.2C770.9,98.9,771.6,97.7,772.3,96.4z"/>
	<path class="st1" d="M752.1,111.1c-5.8,0-11.2-2-15.2-4.1c-0.8-0.4-1.3-0.7-1.3-0.7l0,0c-6.4-3.6-14.3-8.1-10.4-16.3
		c0.4-0.8,0.8-1.5,1.3-2.3c0.3-0.5,0.7-1.1,1-1.6c1-1.8,1.8-3.6,2.5-5.4c1.8-4.1,3.4-8,7-11.2c5.6-5.2,13.9-5.9,22.2-2
		c8.7,4.1,18.1,12.3,16,22.3c-0.4,2.1-1.3,4.3-2.7,6.9c-0.7,1.3-1.4,2.5-2.2,3.7c-2.9,4.7-6.1,7.8-9.7,9.3
		C757.8,110.6,754.9,111.1,752.1,111.1z M748.6,65c-4.4,0-8.5,1.5-11.7,4.4c-3.5,3.2-5.2,7.1-6.9,11.2c-0.8,1.8-1.6,3.6-2.5,5.4
		c-0.3,0.6-0.6,1.1-1,1.6c-0.4,0.7-0.9,1.5-1.3,2.3c-3.8,8,4.1,12.5,10.3,16.1l0,0c0,0,0.5,0.3,1.3,0.7c6,3.1,14.9,6,23.5,2.5
		c3.5-1.4,6.8-4.6,9.6-9.2c0.7-1.2,1.5-2.4,2.2-3.7c1.4-2.5,2.2-4.7,2.6-6.8c2-9.8-7.3-18-15.9-22.1C755.4,65.8,751.9,65,748.6,65z
		 M772.3,96.4L772.3,96.4L772.3,96.4z"/>
	<path class="st1" d="M730.6,86.7c-0.5,0.9-0.4,2,0.4,2.4c0.7,0.4,1.7,0,2.3-0.9c0.5-0.9,0.4-2-0.4-2.4
		C732.1,85.4,731.1,85.8,730.6,86.7z"/>
	<path class="st6" d="M730.9,90.1c-1.4,1.6-1.3,4,0.2,5.4c1.6,1.4,4,1.3,5.4-0.2c1.4-1.6,1.3-4-0.2-5.4
		C734.8,88.4,732.4,88.5,730.9,90.1z"/>
	<path class="st1" d="M727.4,91.2c-0.6,0-1.1-0.3-1.3-0.9l0.1-0.1l0.1,0.1c0.2,0.4,0.6,0.7,1.1,0.7h0c0.5,0,0.9-0.3,1.1-0.8l0.1-0.1
		l0.1,0.1C728.6,90.8,728,91.2,727.4,91.2L727.4,91.2z"/>
	<path class="st3" d="M744.5,102.3c0.3,1.4,1.8,2.3,3.1,2c0.5-0.1,0.9-0.3,1.3-0.6c0.9-0.6,1.7-1.4,2-2.5c0.3-1,0.1-2.2-0.7-2.9
		c-1.6-1.3-3.3-0.1-4.1,1.4"/>
	<path class="st1" d="M747.1,104.5c-0.5,0-1-0.2-1.5-0.5c-0.6-0.4-1.1-1-1.2-1.7c0-0.1,0-0.1,0.1-0.1c0.1,0,0.1,0,0.1,0.1
		c0.1,0.6,0.5,1.2,1.1,1.6c0.6,0.4,1.3,0.5,1.9,0.4c0.4-0.1,0.8-0.3,1.2-0.6c1-0.6,1.7-1.5,1.9-2.4c0.3-1.1,0-2.2-0.7-2.8
		c-0.5-0.4-1.1-0.6-1.6-0.5c-1,0.2-1.9,1.1-2.3,1.9l-0.1,0l0-0.1c0.5-0.8,1.4-1.8,2.5-2c0.6-0.1,1.2,0.1,1.8,0.6
		c0.8,0.7,1.1,1.9,0.8,3.1c-0.4,1.2-1.3,2-2,2.5c-0.5,0.3-0.9,0.5-1.3,0.6C747.4,104.5,747.3,104.5,747.1,104.5z"/>
	<path class="st3" d="M748.1,100.4c-1.1,0-2.1,0.7-2.5,1.7c0.3,0.2,0.7,0.3,1,0.3c0.4,0,0.7-0.4,0.6-0.8c-0.2-0.2-0.3-0.4-0.5-0.5"
		/>
	<path class="st1" d="M746.6,102.5c-0.3,0-0.6-0.1-1-0.3l0-0.1c0.4-1,1.5-1.7,2.6-1.8h0c0.1,0,0.1,0,0.1,0.1c0,0.1,0,0.1-0.1,0.1
		c-1,0-1.9,0.7-2.4,1.5c0.3,0.2,0.6,0.3,0.9,0.2c0.2,0,0.4-0.1,0.5-0.3c0-0.1,0.1-0.2,0-0.3l-0.5-0.5l0-0.1l0.1,0l0.5,0.5l0,0
		c0.1,0.2,0,0.3-0.1,0.5c-0.1,0.2-0.4,0.4-0.6,0.4L746.6,102.5z"/>
	<path class="st13" d="M738,68.4c0,0,13.7,2,9.8,15.1c0,0-3.8,5-2.1,11.5l1.1,3.6c0,0,4-2.7,3.9,2.8c0,0-2.6,6-0.3,9.4
		c1.8,2.6,13.2-1.3,15.5-2.4c0.7-0.3,5.9-4.2,5.4-4.8c0.5,0.8,1.3,1.4,2.2,1.7c0.4-2.3,1-4.5,1.8-6.7c0.4,1.5,1.9,2.5,3.4,2.5
		c-1.4-2.5-0.4-5.6-0.1-8.5c1.3-13.2-8.5-22.8-19.4-28.1C759.2,64.5,740.5,56.2,738,68.4z"/>
	<path class="st1" d="M753.3,111.7c-1.3,0-2.4-0.3-2.9-0.9c-2.3-3.3,0.1-9,0.3-9.5c0-1.7-0.3-2.8-1.1-3.2c-1.1-0.6-2.6,0.4-2.6,0.5
		l-0.1,0l-0.1-0.1l-1.1-3.6c-1.7-6.2,1.8-11.2,2.1-11.5c1.1-3.8,0.9-7-0.8-9.6c-2.8-4.4-8.9-5.4-9-5.4l-0.1,0l0-0.1
		c0.5-2.6,1.9-4.5,4-5.6c6.2-3.2,17.3,1.6,17.4,1.6c6.4,3.1,21.1,12.1,19.5,28.2c-0.1,0.7-0.2,1.3-0.3,2c-0.3,2.2-0.7,4.5,0.4,6.4
		l0,0.1l-0.1,0.1c-1.5,0.1-2.9-0.9-3.4-2.3c-0.8,2.1-1.3,4.2-1.7,6.4l-0.1,0.1l-0.1,0c-0.8-0.3-1.5-0.9-2-1.5
		c-0.5,1.1-4.9,4.4-5.5,4.6C764.3,109.3,757.4,111.7,753.3,111.7z M748.8,97.8c0.3,0,0.6,0.1,0.9,0.2c0.8,0.4,1.2,1.6,1.2,3.4l0,0
		c0,0.1-2.6,6-0.3,9.3c1.7,2.5,12.7-1.2,15.3-2.4c0.7-0.3,5.2-3.7,5.4-4.6l0-0.1l0-0.1l0.1,0v0c0.5,0.7,1.2,1.3,2,1.6
		c0.4-2.2,1-4.4,1.8-6.6l0.1-0.1h0l0.1,0.1c0.4,1.4,1.7,2.4,3.1,2.4c-1-1.9-0.7-4.2-0.3-6.4c0.1-0.6,0.2-1.3,0.3-2
		c1.6-16-13-24.9-19.4-28c-0.1,0-11.1-4.8-17.2-1.6c-2,1-3.3,2.8-3.8,5.3c0.8,0.2,6.4,1.3,9,5.5c1.7,2.6,1.9,5.9,0.8,9.8l0,0
		c0,0-3.7,5.1-2,11.4l1.1,3.4C747.3,98.2,748,97.8,748.8,97.8z M747.9,83.5L747.9,83.5L747.9,83.5z"/>
	<path class="st1" d="M732.8,86.3L732.8,86.3c-0.4-0.4-0.6-0.9-0.6-1.4c0-0.1,0-0.1,0.1-0.1h0c0.1,0,0.1,0,0.1,0.1
		c0,0.5,0.2,0.9,0.5,1.2L732.8,86.3L732.8,86.3z"/>
	<path class="st3" d="M728.3,85.7c-0.2-0.2-0.5-0.3-0.8-0.3c-0.3,0-0.6,0.2-0.7,0.5c0,0.2,0.1,0.5,0.2,0.6c0.2,0.2,0.4,0.3,0.6,0.4"
		/>
	<path class="st1" d="M727.6,86.9L727.6,86.9c-0.3-0.1-0.5-0.2-0.7-0.4c-0.2-0.2-0.3-0.5-0.3-0.7c0.1-0.4,0.5-0.6,0.8-0.6
		c0.3,0,0.6,0.1,0.9,0.4l0,0.1l-0.1,0c-0.3-0.2-0.5-0.3-0.8-0.3h0c-0.2,0-0.5,0.2-0.6,0.4c0,0.2,0.1,0.4,0.2,0.5
		c0.2,0.1,0.4,0.2,0.6,0.3L727.6,86.9L727.6,86.9z"/>
	<path class="st1" d="M734.7,84.1L734.7,84.1c-0.1,0-0.1,0-0.1-0.1c0-0.8-0.4-1.7-1.1-2.2l0-0.1l0.1,0c0.7,0.6,1.1,1.5,1.1,2.4
		C734.8,84.1,734.7,84.1,734.7,84.1z"/>
	<path class="st14" d="M747,141.9c0,0,6.6-0.3,10-2.8l-1.2-3.9c0,0,2.1-4.1-0.3-6l-4.3,0.4"/>
	<path class="st1" d="M747,142c-0.1,0-0.1,0-0.1-0.1c0-0.1,0-0.1,0.1-0.1c0.1,0,6.5-0.3,9.9-2.7l-1.2-3.8l0-0.1c0,0,2.1-4.1-0.2-5.9
		l-4.2,0.4c-0.1,0-0.1,0-0.1-0.1c0-0.1,0-0.1,0.1-0.1l4.3-0.4l0.1,0c2.3,1.8,0.5,5.7,0.3,6.1l1.2,3.8l0,0.1
		C753.6,141.7,747.1,142,747,142L747,142z"/>
	<path class="st3" d="M751.9,132.6c0,0,0.9,4.6-3.7,5.5l-3,9.6l0.1,13.2h-14.2c0,0-0.1-3.4,3.4-5.2l-0.3-8.3c0,0,0.3-2.5,1-4.6
		l1.7-8"/>
	<path class="st1" d="M745.4,161h-14.2c-0.1,0-0.1,0-0.1-0.1c0,0-0.1-3.5,3.4-5.3l-0.3-8.3c0,0,0.3-2.5,1-4.7l1.7-8
		c0-0.1,0.1-0.1,0.1-0.1c0.1,0,0.1,0.1,0.1,0.1l-1.7,8c-0.7,2.1-1,4.6-1,4.6l0.3,8.3l-0.1,0.1c-3.1,1.6-3.3,4.4-3.4,5h14l-0.1-13.1
		l0,0l3-9.6l0.1-0.1c1.3-0.3,2.3-0.9,3-1.8c1.1-1.6,0.7-3.6,0.7-3.6c0-0.1,0-0.1,0.1-0.1c0.1,0,0.1,0,0.1,0.1c0,0.1,0.4,2.1-0.7,3.8
		c-0.6,1-1.7,1.6-3,1.9l-2.9,9.5l0.1,13.2L745.4,161L745.4,161z"/>
	<path class="st14" d="M752.8,132.4c0.5,6.1-3.9,6.4-3.9,6.4l-1.6,4.4c-7.6,0.1-12.2-3.2-12.2-3.2l1.5-4.7c-1.7-2.8-0.7-5.9-0.7-5.9
		l16.8-0.3"/>
	<path class="st1" d="M746.8,143.3c-7.3,0-11.7-3.2-11.8-3.2l0-0.1l1.5-4.6c-1.7-2.8-0.7-5.9-0.7-5.9l0.1-0.1l16.8-0.3
		c0.1,0,0.1,0,0.1,0.1c0,0.1,0,0.1-0.1,0.1l-16.8,0.3c-0.1,0.5-0.9,3.2,0.7,5.7l0,0.1l-1.4,4.6c0.6,0.4,5,3.2,12,3.1l1.6-4.3
		l0.1-0.1c0,0,1.5-0.1,2.6-1.4c1-1.1,1.4-2.8,1.2-4.9c0-0.1,0-0.1,0.1-0.1c0.1,0,0.1,0,0.1,0.1c0.2,2.2-0.2,3.9-1.2,5.1
		c-1,1.2-2.4,1.4-2.7,1.5l-1.6,4.3l-0.1,0.1C747.1,143.3,747,143.3,746.8,143.3z M747.3,143.2L747.3,143.2L747.3,143.2z"/>
	<path class="st9" d="M752.8,111.7c0,0,3.3,1.4,3.3,10l0.4,8.4h-20.8l3.3-12.7c0,0,1.2-4.5,4-5L752.8,111.7z"/>
	<path class="st1" d="M756.5,130.3h-20.8l-0.1,0l0-0.1l3.3-12.7c0-0.2,1.3-4.5,4.1-5l9.7-0.7l0,0c0.1,0.1,3.4,1.5,3.4,10.1l0.4,8.4
		L756.5,130.3L756.5,130.3z M735.9,130h20.5l-0.4-8.3c0-8.1-3-9.7-3.2-9.9l-9.6,0.7c-2.7,0.5-3.9,4.9-3.9,4.9L735.9,130z"/>
	<path class="st3" d="M742.9,113.6c0,0-8.6-3-9.9-5.3l-5.6-6.7c0,0-4.9,0.5-4.9,6.5c0,0,4.4,5.6,6.7,6.7c0,0,5.6,3.2,10.6,4.2"/>
	<path class="st1" d="M739.9,119L739.9,119c-5.1-0.9-10.6-4.1-10.7-4.2c-2.3-1.2-6.6-6.5-6.7-6.7l0-0.1c0-6,4.9-6.6,5-6.6l0.1,0
		l5.6,6.7c1.4,2.3,9.8,5.3,9.9,5.3c0.1,0,0.1,0.1,0.1,0.1c0,0.1-0.1,0.1-0.1,0.1c-0.4-0.1-8.6-3-10-5.4l-5.5-6.7
		c-0.6,0.1-4.7,0.8-4.7,6.3c0.3,0.4,4.5,5.6,6.7,6.7c0.1,0,5.6,3.2,10.6,4.2c0.1,0,0.1,0.1,0.1,0.1L739.9,119z"/>
	<path class="st3" d="M727.8,102.4c-0.4-1.1-1.3-2.4-2.1-3.3c-0.4-0.4-2.8-2.7-3.4-2.3c-0.5,0.3-1,0.7-1,1.2
		c-0.1,1.1,1.6,1.5,1.9,2.5c-1-0.1-1.9,0.5-2.5,1.3c-0.7,1-1.2,2.2-1.2,3.4c0.1,1.2,0.6,2.4,1.6,3.1c0.2,0.1,0.4,0.2,0.6,0.2
		s0.4-0.3,0.3-0.5c0.2,0.1,0.5,0.3,0.7,0.4"/>
	<path class="st1" d="M721.8,108.6c-0.2,0-0.4-0.1-0.6-0.2c-1-0.7-1.6-1.9-1.7-3.2c-0.1-1.2,0.4-2.4,1.2-3.5
		c0.7-0.9,1.6-1.4,2.4-1.3c-0.2-0.4-0.5-0.7-0.9-0.9c-0.5-0.4-1-0.8-1-1.5c0.1-0.6,0.5-0.9,1.1-1.3c0.7-0.5,3.5,2.3,3.5,2.3
		c0.7,0.8,1.7,2.1,2.1,3.3c0,0.1,0,0.1-0.1,0.1c-0.1,0-0.1,0-0.1-0.1c-0.4-1-1.2-2.3-2.1-3.3c-0.6-0.7-2.8-2.6-3.2-2.3
		c-0.4,0.3-0.9,0.6-1,1.1c0,0.5,0.4,0.9,0.9,1.3c0.4,0.3,0.9,0.7,1,1.2l0,0.1l-0.1,0c-0.8-0.1-1.7,0.4-2.4,1.3
		c-0.8,1-1.2,2.2-1.1,3.3c0.1,1.2,0.7,2.4,1.6,3.1c0.1,0.1,0.3,0.2,0.5,0.2c0.1,0,0.2-0.1,0.2-0.2c0,0,0-0.1,0-0.2l0-0.1l0.1,0
		l0.7,0.4l0,0.1l-0.1,0l-0.6-0.3l0,0.1C722.2,108.5,722,108.6,721.8,108.6L721.8,108.6z"/>
	<polygon class="st1" points="722.2,108.1 722.1,108 720.8,106.2 720.9,106.1 721,106.1 722.3,107.9 722.3,108 	"/>
	<path class="st1" d="M722.6,102.1L722.6,102.1c-0.5-0.2-0.9-0.3-1.4-0.2c-0.1,0-0.1,0-0.1-0.1c0-0.1,0-0.1,0.1-0.1
		c0.5-0.1,1,0,1.5,0.2L722.6,102.1L722.6,102.1z"/>
	<path class="st1" d="M721.5,103.8L721.5,103.8c-0.4-0.3-0.9-0.4-1.3-0.4c-0.1,0-0.1,0-0.1-0.1c0-0.1,0-0.1,0.1-0.1
		c0.5,0,1,0.1,1.4,0.4L721.5,103.8L721.5,103.8z"/>
	<path class="st1" d="M724.2,100.8L724.2,100.8l-1.1-0.2c-0.1,0-0.1-0.1-0.1-0.1c0-0.1,0.1-0.1,0.1-0.1l1.1,0.2
		c0.1,0,0.1,0.1,0.1,0.1L724.2,100.8z"/>
	<path class="st1" d="M754.5,145L754.5,145l-0.1-0.1c0.4-1,1.5-1.7,2.7-1.8h0c0.1,0,0.1,0,0.1,0.1c0,0.1,0,0.1-0.1,0.1
		C756,143.3,755,144,754.5,145L754.5,145z"/>
	<path class="st1" d="M752.9,154.8c-0.1,0-0.1,0-0.1-0.1c0-0.1,0-0.1,0.1-0.1l2.6-0.2l7.1-5.2l0.1,0l0,0.1l-7.1,5.2l-0.1,0
		L752.9,154.8L752.9,154.8z"/>
	<path class="st1" d="M745,155.7h-10.3c-0.1,0-0.1,0-0.1-0.1c0-0.1,0-0.1,0.1-0.1H745c0.1,0,0.1,0,0.1,0.1
		C745.1,155.6,745.1,155.7,745,155.7z"/>
	<polyline class="st13" points="739,65.6 735.2,70.9 737.9,72.2 740.6,70.9 739.5,73.3 743.3,75.2 745.9,73.6 744.9,76.8 
		748.9,80.5 754,74.9 	"/>
	<polygon class="st1" points="748.9,80.6 748.8,80.6 744.8,76.9 744.8,76.8 745.7,73.8 743.3,75.3 743.2,75.3 739.5,73.4 
		739.4,73.3 740.4,71.1 738,72.3 737.9,72.3 735.2,71 735.1,70.9 735.2,70.8 738.9,65.5 739,65.5 739.1,65.6 735.4,70.9 737.9,72.1 
		740.5,70.8 740.7,70.8 740.7,71 739.7,73.3 743.3,75.1 745.9,73.5 746,73.5 746,73.6 745,76.8 748.9,80.4 753.9,74.8 754,74.8 
		754,75 749,80.6 748.9,80.6 	"/>
	<polyline class="st9" points="743.8,113.2 739.2,111.5 736.4,118.5 740.3,119.6 	"/>
	<path class="st1" d="M740.3,119.7L740.3,119.7l-3.9-1.1l-0.1-0.1l0-0.1l2.8-7l0.1-0.1l4.5,1.6c0.1,0,0.1,0.1,0.1,0.1
		c0,0.1-0.1,0.1-0.1,0.1l-4.5-1.6l-2.7,6.8l3.8,1c0.1,0,0.1,0.1,0.1,0.1L740.3,119.7z"/>
	<path class="st1" d="M746.6,141.7c-4.6,0-10.8-3.1-10.9-3.2l0-0.1l0.1,0c0.1,0,7.5,3.7,12,3c0.1,0,0.1,0,0.1,0.1
		c0,0.1,0,0.1-0.1,0.1C747.4,141.7,747,141.7,746.6,141.7z"/>
	<path class="st1" d="M748.3,140.5l-0.1-0.1c0-0.1,0-0.1,0.1-0.1c0.1,0,6.1-0.8,8.3-2.5l0.1,0l0,0.1
		C754.4,139.6,748.5,140.4,748.3,140.5L748.3,140.5z"/>
	<path class="st1" d="M741.4,134.2L741.4,134.2l-0.6-0.8l0-0.1l0.1-0.1c0.8-0.1,3-2.3,3.8-3.1l0.1,0l0,0.1c-0.1,0.1-2.6,2.8-3.8,3.1
		l0.4,0.6c0.4-0.2,2.3-1,4.7-3.8l0.1,0l0,0.1C743.6,133.5,741.5,134.1,741.4,134.2L741.4,134.2z"/>
	<polygon class="st14" points="752.3,111.7 742.5,123.3 743.1,124.1 753.6,111.9 	"/>
	<path class="st1" d="M743.1,124.2L743.1,124.2L743.1,124.2l-0.7-0.8l0-0.1l9.9-11.6l0.1,0l1.2,0.3l0.1,0.1l0,0.1L743.1,124.2
		L743.1,124.2z M742.6,123.3l0.5,0.6l10.2-11.9l-1-0.2L742.6,123.3z"/>
	<polygon class="st14" points="738,121.4 738.7,124 739.5,123.6 738.6,119.8 	"/>
	<path class="st1" d="M738.7,124.1L738.7,124.1l-0.1-0.1l-0.7-2.5l0-0.1l0.5-1.6l0.1-0.1l0.1,0.1l0.9,3.7l-0.1,0.1L738.7,124.1
		L738.7,124.1z M738.2,121.4l0.6,2.4l0.6-0.3l-0.8-3.3L738.2,121.4z"/>
	<path class="st14" d="M738.3,122.2c-0.4,1.2-1.6,1.8-2.8,1.4c-1.2-0.4-1.8-1.6-1.4-2.8c0.4-1.2,1.6-1.8,2.8-1.4
		C738.1,119.8,738.7,121,738.3,122.2z"/>
	<path class="st1" d="M736.3,123.8c-0.2,0-0.5,0-0.7-0.1c-1.2-0.4-1.9-1.7-1.5-2.9c0.4-1.2,1.7-1.9,2.9-1.5c1.2,0.4,1.9,1.7,1.5,2.9
		C738.1,123.2,737.2,123.8,736.3,123.8z M736.3,119.4c-0.9,0-1.7,0.6-2,1.4c-0.4,1.1,0.2,2.3,1.3,2.6c1.1,0.4,2.3-0.2,2.6-1.3
		c0.4-1.1-0.2-2.3-1.3-2.6C736.7,119.4,736.5,119.4,736.3,119.4z"/>
	<path class="st14" d="M745.5,124.9c-0.4,1.2-1.6,1.8-2.8,1.4c-1.2-0.4-1.8-1.6-1.4-2.8c0.4-1.2,1.6-1.8,2.8-1.4
		S745.9,123.7,745.5,124.9z"/>
	<path class="st1" d="M743.4,126.5c-0.2,0-0.5,0-0.7-0.1c-1.2-0.4-1.9-1.7-1.5-2.9c0.4-1.2,1.7-1.9,2.9-1.5c1.2,0.4,1.9,1.7,1.5,2.9
		C745.3,125.9,744.4,126.5,743.4,126.5z M743.4,122.1c-0.9,0-1.7,0.6-2,1.4c-0.4,1.1,0.2,2.3,1.3,2.6c1.1,0.4,2.3-0.2,2.6-1.3
		c0.4-1.1-0.2-2.3-1.3-2.6C743.9,122.1,743.7,122.1,743.4,122.1z"/>
	<path class="st1" d="M736.8,121.3c-0.1,0.4-0.6,0.7-1,0.5s-0.7-0.6-0.5-1c0.1-0.4,0.6-0.7,1-0.5C736.7,120.4,737,120.9,736.8,121.3
		z"/>
	<path class="st1" d="M744.8,123.9c-0.1,0.4-0.6,0.7-1,0.5c-0.4-0.1-0.7-0.6-0.5-1c0.1-0.4,0.6-0.7,1-0.5
		C744.7,123.1,744.9,123.5,744.8,123.9z"/>
	<path class="st14" d="M744.2,127.2c-0.7,2.2-3.6,3.2-6.5,2.2c-2.9-0.9-4.6-3.4-3.9-5.6c0.7-2.2,3.6-3.2,6.5-2.2
		C743.1,122.6,744.9,125.1,744.2,127.2z"/>
	<path class="st1" d="M739.9,129.9c-0.7,0-1.5-0.1-2.2-0.4c-1.4-0.5-2.6-1.3-3.4-2.4c-0.8-1.1-1-2.3-0.6-3.4
		c0.7-2.2,3.7-3.2,6.6-2.3c2.9,0.9,4.7,3.5,4,5.7C743.8,128.9,742,129.9,739.9,129.9z M738.1,121.4c-2,0-3.7,0.9-4.2,2.5
		c-0.3,1-0.1,2.1,0.6,3.2c0.7,1,1.9,1.9,3.3,2.3c2.8,0.9,5.7-0.1,6.3-2.2c0.7-2.1-1.1-4.6-3.9-5.5
		C739.5,121.5,738.8,121.4,738.1,121.4z M744.2,127.2L744.2,127.2L744.2,127.2z"/>
	<path class="st1" d="M736.8,122.8c0,0,1.4,2.9,5.7,2L736.8,122.8z"/>
	<path class="st4" d="M739.5,156.1l0.8-1.8h5l0-3.9l-11-0.1v3.6C735.5,153.8,738.3,153.8,739.5,156.1z"/>
	<path class="st1" d="M739.5,156.2L739.5,156.2c-1.2-2.2-4-2.3-5.2-2.2l-0.1,0l0-0.1v-3.6l0-0.1l0.1,0h0l11,0.1c0.1,0,0.1,0,0.1,0.1
		l0,3.9l0,0.1l-0.1,0h-5L739.5,156.2L739.5,156.2L739.5,156.2z M735,153.7c1.3,0,3.5,0.3,4.5,2.1l0.7-1.6l0.1-0.1h4.9l0-3.7
		l-10.8-0.1v3.4C734.6,153.7,734.8,153.7,735,153.7z"/>
	<path class="st4" d="M740.3,154.3l-0.8,1.8c-1.2-2.2-4-2.3-5.2-2.2v1.8c0,0-3.2,1.4-3.1,5.2h14.2l-0.1-6.6H740.3z"/>
	<path class="st1" d="M745.4,161h-14.2c-0.1,0-0.1,0-0.1-0.1c-0.1-3.5,2.7-5,3.1-5.2v-1.8c0-0.1,0-0.1,0.1-0.1
		c1.1-0.1,3.9,0,5.2,2.1l0.7-1.6l0.1-0.1h5c0.1,0,0.1,0,0.1,0.1l0.1,6.6L745.4,161L745.4,161z M731.3,160.8h14l-0.1-6.4h-4.9
		l-0.8,1.7l-0.1,0.1l-0.1-0.1c-1.1-2.1-3.8-2.2-5-2.1v1.7l-0.1,0.1C734.4,155.8,731.3,157.1,731.3,160.8z"/>
	<path class="st1" d="M745.4,159.7L745.4,159.7l-14.1-0.1c-0.1,0-0.1,0-0.1-0.1c0-0.1,0-0.1,0.1-0.1h0l14.1,0.1c0.1,0,0.1,0,0.1,0.1
		C745.5,159.7,745.5,159.7,745.4,159.7z"/>
	<path class="st1" d="M734,158.5c-0.7,0-1.4-0.1-2.1-0.3c-0.1,0-0.1-0.1-0.1-0.1c0-0.1,0.1-0.1,0.1-0.1c4.4,1.3,7.4-2,7.5-2l0.1,0
		l0,0.1C739.6,156.2,737.4,158.5,734,158.5z"/>
	<path class="st1" d="M738.3,157.1L738.3,157.1l-4-1.3c-0.1,0-0.1-0.1-0.1-0.1c0-0.1,0.1-0.1,0.1-0.1l3.9,1.3
		C738.4,157,738.4,157,738.3,157.1L738.3,157.1z"/>
	<polygon class="st1" points="735.5,158.4 735.5,158.4 732.8,157 732.7,156.8 732.9,156.8 735.6,158.2 735.6,158.3 	"/>
	<path class="st1" d="M741.7,159.6L741.7,159.6l-0.1-0.2c1.3-2.4,3.7-2.7,3.7-2.7c0.1,0,0.1,0,0.1,0.1c0,0.1,0,0.1-0.1,0.1
		C745.3,157,743,157.3,741.7,159.6L741.7,159.6z"/>
	<path class="st4" d="M757.4,152.6l0.2-2l3.9-3l-3-3.6c-4.2,1.2-9.5,6.1-9.5,6.1l2.5,3C752.5,152.4,755.1,151.1,757.4,152.6z"/>
	<path class="st1" d="M751.4,153.1L751.4,153.1l-2.6-3l0-0.1c0.1,0,5.4-5,9.6-6.2l0.1,0l3,3.6l0,0.1l0,0.1l-3.8,3l-0.2,2l-0.1,0.1
		l-0.1,0C755.1,151.3,752.5,152.5,751.4,153.1L751.4,153.1z M749.1,150.1l2.4,2.8c1.1-0.6,3.6-1.8,5.9-0.5l0.2-1.9l0-0.1l3.8-2.9
		l-2.9-3.5C754.6,145.2,749.8,149.5,749.1,150.1z"/>
	<path class="st4" d="M763.1,149.5l-1.6-1.9l-3.9,3l-0.2,2c-2.3-1.4-4.9-0.2-6,0.5l1.2,1.4c-2.9,1.8-3.3,6.2-3.3,6.2l9-0.2l6.2-6.6
		L763.1,149.5z"/>
	<path class="st1" d="M749.3,160.8L749.3,160.8l-0.1-0.1c0,0,0.5-4.4,3.2-6.3l-1.1-1.3l0-0.1l0-0.1c1-0.6,3.6-1.9,6-0.5l0.2-1.9
		l0-0.1l3.9-3l0.1,0l1.6,1.9l0,0l1.5,4.4l0,0.1l-6.2,6.6l-0.1,0L749.3,160.8L749.3,160.8z M751.6,153.1l1.1,1.3l0,0.1l0,0.1
		c-2.5,1.6-3.1,5.3-3.2,6l8.8-0.2l6.2-6.6l-1.5-4.4l-1.5-1.8l-3.8,2.9l-0.2,2l-0.1,0.1l-0.1,0C755.2,151.3,752.7,152.4,751.6,153.1z
		"/>
	<path class="st1" d="M751,158.3c-0.3,0-0.7,0-1,0c-0.1,0-0.1-0.1-0.1-0.1c0-0.1,0.1-0.1,0.1-0.1c2.5,0.2,4.4-0.3,5.6-1.5
		c1.7-1.6,1.7-4,1.7-4c0-0.1,0-0.1,0.1-0.1h0c0.1,0,0.1,0,0.1,0.1c0,0,0,2.5-1.8,4.2C754.6,157.8,753,158.3,751,158.3z"/>
	<path class="st1" d="M756.9,155.2L756.9,155.2l-4.3-0.6c-0.1,0-0.1-0.1-0.1-0.1c0-0.1,0.1-0.1,0.1-0.1l4.3,0.6
		c0.1,0,0.1,0.1,0.1,0.1L756.9,155.2z"/>
	<path class="st1" d="M754.6,157.4L754.6,157.4l-3.7-1c-0.1,0-0.1-0.1-0.1-0.1c0-0.1,0.1-0.1,0.1-0.1l3.7,1c0.1,0,0.1,0.1,0.1,0.1
		L754.6,157.4z"/>
	<path class="st1" d="M749.6,159.6c-0.1,0-0.1,0-0.1-0.1c0-0.1,0-0.1,0.1-0.1l8.3-0.1l6.2-6.5l0.1,0l0,0.1l-6.2,6.5l-0.1,0
		L749.6,159.6L749.6,159.6z"/>
	<path class="st1" d="M761.9,155.5l-0.1-0.1c0,0-0.3-3,1.6-4.5l0.1,0l0,0.1c-1.9,1.4-1.6,4.2-1.6,4.3
		C762,155.4,762,155.4,761.9,155.5L761.9,155.5z"/>
	<path class="st0" d="M109.3,119.2L109.3,119.2c-0.2-0.1-0.3-0.2-0.2-0.3l4-10.3c0-0.1,0.2-0.2,0.3-0.1c0.1,0,0.2,0.2,0.1,0.3
		l-4,10.3C109.5,119.1,109.4,119.2,109.3,119.2z"/>
	<path class="st0" d="M115.7,123.5c-0.1,0-0.1,0-0.2-0.1c-0.1-0.1,0-0.2,0.1-0.3l9.5-6.7c0.1-0.1,0.2,0,0.3,0.1
		c0.1,0.1,0,0.2-0.1,0.3l-9.5,6.7L115.7,123.5z"/>
	<path class="st0" d="M118.5,130.3c-0.1,0-0.2-0.1-0.2-0.2c0-0.1,0.1-0.2,0.2-0.2l8.3-0.4c0.1,0,0.2,0.1,0.2,0.2
		c0,0.1-0.1,0.2-0.2,0.2L118.5,130.3L118.5,130.3z"/>
	<path class="st0" d="M691.6,102.5L691.6,102.5l-4.4-0.4c-0.1,0-0.2-0.1-0.2-0.2c0-0.1,0.1-0.2,0.2-0.2l4.4,0.4
		c0.1,0,0.2,0.1,0.2,0.2C691.8,102.4,691.7,102.5,691.6,102.5z"/>
	<path class="st0" d="M696.8,93.4c-0.1,0-0.1,0-0.2-0.1l-2.8-2.8c-0.1-0.1-0.1-0.2,0-0.3c0.1-0.1,0.2-0.1,0.3,0l2.8,2.8
		c0.1,0.1,0.1,0.2,0,0.3C696.9,93.4,696.8,93.4,696.8,93.4z"/>
	<path class="st0" d="M706.3,86.6L706.3,86.6c-0.1,0-0.2-0.1-0.2-0.2l0.4-4c0-0.1,0.1-0.2,0.2-0.2c0.1,0,0.2,0.1,0.2,0.2l-0.4,4
		C706.5,86.6,706.4,86.6,706.3,86.6z"/>
	<path class="st0" d="M717,93.8l-0.1-0.1c-0.1-0.1-0.1-0.2,0-0.3l2-2.4c0.1-0.1,0.2-0.1,0.3,0c0.1,0.1,0.1,0.2,0,0.3l-2,2.4
		C717.1,93.8,717.1,93.8,717,93.8z"/>
	<path class="st0" d="M694,114.4c-0.1,0-0.1,0-0.2-0.1c-0.1-0.1-0.1-0.2,0-0.3l3.2-2.4c0.1-0.1,0.2-0.1,0.3,0c0.1,0.1,0.1,0.2,0,0.3
		l-3.2,2.4L694,114.4z"/>
	<path class="st0" d="M717.8,113.6l-0.1,0l-2.8-1.6c-0.1-0.1-0.1-0.2-0.1-0.3c0.1-0.1,0.2-0.1,0.3-0.1l2.8,1.6
		c0.1,0.1,0.1,0.2,0.1,0.3C717.9,113.6,717.9,113.6,717.8,113.6z"/>
	<path class="st0" d="M718.6,101.7H717c-0.1,0-0.2-0.1-0.2-0.2c0-0.1,0.1-0.2,0.2-0.2h1.6c0.1,0,0.2,0.1,0.2,0.2
		C718.8,101.6,718.7,101.7,718.6,101.7z"/>
</g>
</svg>
