<?xml version="1.0" encoding="utf-8"?>
<!-- Generator: Adobe Illustrator 27.7.0, SVG Export Plug-In . SVG Version: 6.00 Build 0)  -->
<svg version="1.1" id="Layer_1" xmlns="http://www.w3.org/2000/svg" xmlns:xlink="http://www.w3.org/1999/xlink" x="0px" y="0px"
	 viewBox="0 0 800 295.2" style="enable-background:new 0 0 800 295.2;" xml:space="preserve">
<style type="text/css">
	.st0{fill:#FFDE55;}
	.st1{fill:#C1BBFF;}
	.st2{fill:none;stroke:#231F20;stroke-miterlimit:10;}
	.st3{fill:#FFFFFF;stroke:#231F20;stroke-miterlimit:10;}
	.st4{fill:none;stroke:#231F20;stroke-width:1.1666;stroke-miterlimit:10;}
	.st5{font-family:'SDGothicNeob-dMd-KSCpc-EUC-H';}
	.st6{font-size:28.7047px;}
	.st7{letter-spacing:2;}
	.st8{font-size:24.8393px;}
</style>
<rect x="117.3" y="27.3" class="st0" width="670.8" height="41.2"/>
<rect x="117.3" y="68.5" class="st1" width="670.8" height="43.5"/>
<rect x="11.9" y="27.3" class="st2" width="776.2" height="240.6"/>
<rect x="11.9" y="27.3" class="st3" width="105.4" height="240.6"/>
<rect x="11.9" y="27.3" class="st3" width="105.4" height="84.6"/>
<line class="st4" x1="117.3" y1="68.5" x2="788.1" y2="68.5"/>
<line class="st4" x1="117.3" y1="111.9" x2="788.1" y2="111.9"/>
<line class="st4" x1="11.9" y1="190.1" x2="788.1" y2="190.1"/>
<line class="st2" x1="463.2" y1="27.3" x2="463.2" y2="268.2"/>
<text transform="matrix(1 0 0 1 240.8098 57.5897)" class="st5 st6 st7">개인전</text>
<text transform="matrix(1 0 0 1 586.6488 57.5897)" class="st5 st6 st7">단체전</text>
<text transform="matrix(1 0 0 1 152.8688 100.4946)" class="st5 st6 st7">1등</text>
<text transform="matrix(1 0 0 1 130.0156 158.7339)" class="st5 st8">200만원</text>
<text transform="matrix(1 0 0 1 248.0998 158.7339)" class="st5 st8">100만원</text>
<text transform="matrix(1 0 0 1 370.2736 158.7339)" class="st5 st8">50만원</text>
<text transform="matrix(1 0 0 1 129.9411 235.73)" class="st5 st8">300만원</text>
<text transform="matrix(1 0 0 1 30.1975 158.7339)" class="st5 st8">아동부</text>
<text transform="matrix(1 0 0 1 18.7718 235.73)" class="st5 st8">청소년부</text>
<text transform="matrix(1 0 0 1 246.2497 235.73)" class="st5 st8">200만원</text>
<text transform="matrix(1 0 0 1 364.0761 235.73)" class="st5 st8">100만원</text>
<text transform="matrix(1 0 0 1 267.006 100.4946)" class="st5 st6 st7">2등</text>
<text transform="matrix(1 0 0 1 385.9449 100.4946)" class="st5 st6 st7">3등</text>
<text transform="matrix(1 0 0 1 495.4603 100.4946)" class="st5 st6 st7">1등</text>
<text transform="matrix(1 0 0 1 471.7856 158.7339)" class="st5 st8">300만원</text>
<text transform="matrix(1 0 0 1 586.0403 158.7339)" class="st5 st8">200만원</text>
<text transform="matrix(1 0 0 1 695.6058 158.7339)" class="st5 st8">100만원</text>
<text transform="matrix(1 0 0 1 471.7856 235.73)" class="st5 st8">500만원</text>
<text transform="matrix(1 0 0 1 586.0403 235.73)" class="st5 st8">300만원</text>
<text transform="matrix(1 0 0 1 695.605 235.73)" class="st5 st8">100만원</text>
<text transform="matrix(1 0 0 1 607.5963 100.4946)" class="st5 st6 st7">2등</text>
<text transform="matrix(1 0 0 1 716.9173 100.4946)" class="st5 st6 st7">3등</text>
<line class="st2" x1="231.6" y1="68.5" x2="231.6" y2="267.9"/>
<line class="st2" x1="351.4" y1="68.5" x2="351.4" y2="267.9"/>
<line class="st2" x1="573.4" y1="68.5" x2="573.4" y2="267.9"/>
<line class="st2" x1="689.2" y1="68.5" x2="689.2" y2="267.9"/>
<line class="st2" x1="117.3" y1="27.3" x2="11.9" y2="111.9"/>
</svg>
