<svg xmlns="http://www.w3.org/2000/svg" xmlns:xlink="http://www.w3.org/1999/xlink" version="1.1" id="Layer_1" x="0px" y="0px" viewBox="0 0 135 135" style="enable-background:new 0 0 135 135;" xml:space="preserve">
<style type="text/css">
	.st0{fill:#E07165;}
	.st1{fill:none;stroke:#FFFFFF;stroke-width:5.0475;stroke-linecap:round;stroke-miterlimit:10;}
</style>
<path class="st0" d="M127.89,46.57c0,6.76-5.48,12.24-12.24,12.24s-12.23-5.48-12.23-12.24c0-6.76,5.48-12.24,12.23-12.24  S127.89,39.82,127.89,46.57z"/>
<g>
	<path class="st1" d="M63.09,71.86c0-16.23,13.04-35.76,29.12-35.76c16.08,0,29.12,19.52,29.12,35.76s-13.04,24.06-29.12,24.06   C76.13,95.93,63.09,88.1,63.09,71.86z"/>
	<g>
		<line class="st1" x1="92.21" y1="65.58" x2="92.21" y2="109.8"/>
		<line class="st1" x1="81.34" y1="68.77" x2="92.21" y2="82.4"/>
		<line class="st1" x1="92.21" y1="89.79" x2="101.49" y2="77.76"/>
	</g>
	<g>
		<line class="st1" x1="45.19" y1="54.84" x2="45.19" y2="109.8"/>
		<line class="st1" x1="31.68" y1="58.81" x2="45.19" y2="75.74"/>
		<line class="st1" x1="45.19" y1="84.93" x2="56.72" y2="69.98"/>
	</g>
	<path class="st1" d="M74.28,56.38c0,19.99-8.29,36.19-29.47,36.19c-19.17,0-29.47-16.2-29.47-36.19c0-19.99,13.2-49.45,29.47-49.45   C61.09,6.92,74.28,36.39,74.28,56.38z"/>
	<line class="st1" x1="9.72" y1="112.32" x2="127.01" y2="112.32"/>
	<line class="st1" x1="21.07" y1="123.65" x2="115.66" y2="123.65"/>
</g>
</svg>
